<svg version="1.1" viewBox="0.0 0.0 771.8267716535433 364.70866141732284" fill="none" stroke="none" stroke-linecap="square" stroke-miterlimit="10" xmlns:xlink="http://www.w3.org/1999/xlink" xmlns="http://www.w3.org/2000/svg"><clipPath id="p.0"><path d="m0 0l771.8268 0l0 364.70865l-771.8268 0l0 -364.70865z" clip-rule="nonzero"/></clipPath><g clip-path="url(#p.0)"><path fill="#ffffff" d="m0 0l771.8268 0l0 364.70865l-771.8268 0z" fill-rule="evenodd"/><path fill="#ffffff" d="m364.91104 143.67717l202.6766 0c3.54187 0 6.9386597 1.4069977 9.443115 3.9114685c2.5045166 2.5044708 3.911499 5.9012604 3.911499 9.4431305l0 66.77138c0 0.0010528564 -8.544922E-4 0.0019073486 -0.0018920898 0.0019073486l-229.38394 -0.0019073486l0 0c-0.0010375977 0 -0.0019226074 -8.544922E-4 -0.0019226074 -0.0019073486l0.0019226074 -66.76947l0 0c0 -7.3755493 5.979065 -13.354599 13.354614 -13.354599z" fill-rule="evenodd"/><path stroke="#f03100" stroke-width="2.0" stroke-linejoin="round" stroke-linecap="butt" d="m364.91104 143.67717l202.6766 0c3.54187 0 6.9386597 1.4069977 9.443115 3.9114685c2.5045166 2.5044708 3.911499 5.9012604 3.911499 9.4431305l0 66.77138c0 0.0010528564 -8.544922E-4 0.0019073486 -0.0018920898 0.0019073486l-229.38394 -0.0019073486l0 0c-0.0010375977 0 -0.0019226074 -8.544922E-4 -0.0019226074 -0.0019073486l0.0019226074 -66.76947l0 0c0 -7.3755493 5.979065 -13.354599 13.354614 -13.354599z" fill-rule="evenodd"/><path fill="#000000" d="m446.18588 192.61588l0 -13.5625l4.75 0q1.40625 0 2.328125 0.484375q0.921875 0.484375 1.375 1.3125q0.453125 0.8125 0.453125 1.796875q0 0.875 -0.3125 1.453125q-0.296875 0.5625 -0.796875 0.90625q-0.5 0.328125 -1.09375 0.484375l0 0.125q0.625 0.046875 1.25 0.453125q0.640625 0.390625 1.0625 1.140625q0.421875 0.734375 0.421875 1.796875q0 1.03125 -0.46875 1.84375q-0.453125 0.8125 -1.453125 1.296875q-1.0 0.46875 -2.609375 0.46875l-4.90625 0zm1.640625 -1.453125l3.265625 0q1.609375 0 2.28125 -0.625q0.6875 -0.625 0.6875 -1.53125q0 -0.6875 -0.359375 -1.265625q-0.34375 -0.59375 -1.0 -0.9375q-0.640625 -0.359375 -1.53125 -0.359375l-3.34375 0l0 4.71875zm0 -6.15625l3.046875 0q0.75 0 1.34375 -0.28125q0.609375 -0.296875 0.953125 -0.828125q0.359375 -0.53125 0.359375 -1.25q0 -0.890625 -0.625 -1.515625q-0.625 -0.625 -1.96875 -0.625l-3.109375 0l0 4.5zm16.69983 3.453125l0 -6.015625l1.5625 0l0 10.171875l-1.5625 0l0 -1.71875l-0.109375 0q-0.359375 0.765625 -1.109375 1.3125q-0.75 0.53125 -1.90625 0.53125q-0.953125 0 -1.703125 -0.40625q-0.734375 -0.421875 -1.15625 -1.265625q-0.421875 -0.859375 -0.421875 -2.15625l0 -6.46875l1.5625 0l0 6.359375q0 1.109375 0.625 1.78125q0.625 0.65625 1.59375 0.65625q0.578125 0 1.1875 -0.296875q0.609375 -0.296875 1.015625 -0.90625q0.421875 -0.625 0.421875 -1.578125zm4.432556 4.15625l0 -10.171875l1.5625 0l0 10.171875l-1.5625 0zm0.78125 -11.875q-0.453125 0 -0.78125 -0.3125q-0.328125 -0.3125 -0.328125 -0.75q0 -0.4375 0.328125 -0.75q0.328125 -0.3125 0.78125 -0.3125q0.46875 0 0.796875 0.3125q0.328125 0.3125 0.328125 0.75q0 0.4375 -0.328125 0.75q-0.328125 0.3125 -0.796875 0.3125zm5.206848 -1.6875l0 13.5625l-1.5625 0l0 -13.5625l1.5625 0zm6.7068787 13.78125q-1.28125 0 -2.265625 -0.640625q-0.96875 -0.65625 -1.515625 -1.828125q-0.546875 -1.1875 -0.546875 -2.8125q0 -1.609375 0.546875 -2.78125q0.546875 -1.1875 1.53125 -1.828125q0.984375 -0.640625 2.265625 -0.640625q1.0 0 1.578125 0.328125q0.578125 0.328125 0.875 0.75q0.3125 0.40625 0.484375 0.671875l0.140625 0l0 -5.0l1.5625 0l0 13.5625l-1.515625 0l0 -1.5625l-0.1875 0q-0.171875 0.28125 -0.484375 0.703125q-0.3125 0.421875 -0.90625 0.75q-0.59375 0.328125 -1.5625 0.328125zm0.203125 -1.40625q0.9375 0 1.578125 -0.484375q0.65625 -0.5 1.0 -1.375q0.34375 -0.890625 0.34375 -2.046875q0 -1.140625 -0.34375 -1.984375q-0.328125 -0.859375 -0.984375 -1.34375q-0.640625 -0.484375 -1.59375 -0.484375q-1.0 0 -1.65625 0.515625q-0.65625 0.5 -0.984375 1.375q-0.328125 0.859375 -0.328125 1.921875q0 1.09375 0.328125 1.984375q0.34375 0.875 1.0 1.40625q0.65625 0.515625 1.640625 0.515625z" fill-rule="nonzero"/><path fill="#ffffff" d="m573.21515 270.16534l-213.93146 0c-2.0493774 0 -4.0148315 -0.8140869 -5.4639587 -2.2632446c-1.4491272 -1.4491272 -2.2632446 -3.4145508 -2.2632446 -5.463928l0 -38.635025c0 -0.0010528564 8.544922E-4 -0.0019073486 0.0019226074 -0.0019073486l229.38391 0.0019073486l0 0c0.0010375977 0 0.0018920898 8.544922E-4 0.0018920898 0.0019073486l-0.0018920898 38.633118l0 0c0 4.2676086 -3.4595947 7.727173 -7.727173 7.727173z" fill-rule="evenodd"/><path stroke="#58da95" stroke-width="2.0" stroke-linejoin="round" stroke-linecap="butt" d="m573.21515 270.16534l-213.93146 0c-2.0493774 0 -4.0148315 -0.8140869 -5.4639587 -2.2632446c-1.4491272 -1.4491272 -2.2632446 -3.4145508 -2.2632446 -5.463928l0 -38.635025c0 -0.0010528564 8.544922E-4 -0.0019073486 0.0019226074 -0.0019073486l229.38391 0.0019073486l0 0c0.0010375977 0 0.0018920898 8.544922E-4 0.0018920898 0.0019073486l-0.0018920898 38.633118l0 0c0 4.2676086 -3.4595947 7.727173 -7.727173 7.727173z" fill-rule="evenodd"/><path fill="#000000" fill-opacity="0.0" d="m120.24409 229.19948l0 -172.31497l116.0315 0" fill-rule="evenodd"/><path stroke="#000000" stroke-width="1.0" stroke-linejoin="round" stroke-linecap="butt" stroke-dasharray="1.0,3.0" d="m120.24409 229.19948l0 -172.31497l110.0315 0" fill-rule="evenodd"/><path stroke="#000000" stroke-width="1.0" stroke-linecap="butt" d="m230.27559 58.536247l4.538101 -1.6517334l-4.538101 -1.6517334z" fill-rule="evenodd"/><path fill="#000000" fill-opacity="0.0" d="m112.99344 27.170603l94.456696 0l0 35.55906l-94.456696 0z" fill-rule="evenodd"/><path fill="#000000" d="m123.00906 48.970604l1.546875 -7.265625l1.078125 0l-0.234375 1.09375l0.078125 0q0.3125 -0.546875 0.90625 -0.875q0.609375 -0.34375 1.265625 -0.34375q0.109375 0 0.28125 0.015625q0.1875 0 0.28125 0.015625l-0.234375 1.125q-0.0625 -0.015625 -0.25 -0.03125q-0.1875 -0.03125 -0.421875 -0.03125q-0.515625 0 -0.984375 0.21875q-0.453125 0.21875 -0.78125 0.609375q-0.328125 0.375 -0.4375 0.875l-0.96875 4.59375l-1.125 0zm7.7642517 0.15625q-1.0625 0 -1.71875 -0.46875q-0.65625 -0.46875 -0.890625 -1.3125q-0.21875 -0.84375 0.015625 -1.953125q0.234375 -1.109375 0.8125 -1.96875q0.59375 -0.859375 1.421875 -1.328125q0.84375 -0.484375 1.828125 -0.484375q0.578125 0 1.078125 0.1875q0.515625 0.1875 0.890625 0.609375q0.375 0.421875 0.484375 1.125q0.125 0.6875 -0.09375 1.703125l-0.109375 0.484375l-5.59375 0l0.203125 -0.96875l4.453125 0q0.140625 -0.625 0 -1.09375q-0.140625 -0.484375 -0.53125 -0.765625q-0.375 -0.28125 -0.984375 -0.28125q-0.65625 0 -1.21875 0.328125q-0.5625 0.328125 -0.9375 0.859375q-0.375 0.515625 -0.5 1.125l-0.140625 0.640625q-0.171875 0.828125 0 1.40625q0.171875 0.5625 0.609375 0.859375q0.453125 0.28125 1.140625 0.28125q0.4375 0 0.8125 -0.125q0.375 -0.125 0.6875 -0.375q0.328125 -0.25 0.546875 -0.625l1.015625 0.296875q-0.28125 0.546875 -0.78125 0.96875q-0.5 0.40625 -1.140625 0.640625q-0.625 0.234375 -1.359375 0.234375zm9.527893 -7.421875l-0.203125 0.9375l-3.921875 0l0.203125 -0.9375l3.921875 0zm-4.296875 7.265625l1.75 -8.265625q0.140625 -0.625 0.515625 -1.046875q0.375 -0.421875 0.890625 -0.625q0.515625 -0.203125 1.046875 -0.203125q0.40625 0 0.640625 0.0625q0.25 0.0625 0.375 0.125l-0.53125 0.953125q-0.0625 -0.015625 -0.203125 -0.0625q-0.140625 -0.046875 -0.390625 -0.046875q-0.546875 0 -0.859375 0.28125q-0.3125 0.28125 -0.421875 0.8125l-1.703125 8.015625l-1.109375 0zm7.0370483 0.15625q-1.0625 0 -1.71875 -0.46875q-0.65625 -0.46875 -0.890625 -1.3125q-0.21875 -0.84375 0.015625 -1.953125q0.234375 -1.109375 0.8125 -1.96875q0.59375 -0.859375 1.421875 -1.328125q0.84375 -0.484375 1.828125 -0.484375q0.578125 0 1.078125 0.1875q0.515625 0.1875 0.890625 0.609375q0.375 0.421875 0.484375 1.125q0.125 0.6875 -0.09375 1.703125l-0.109375 0.484375l-5.59375 0l0.203125 -0.96875l4.453125 0q0.140625 -0.625 0 -1.09375q-0.140625 -0.484375 -0.53125 -0.765625q-0.375 -0.28125 -0.984375 -0.28125q-0.65625 0 -1.21875 0.328125q-0.5625 0.328125 -0.9375 0.859375q-0.375 0.515625 -0.5 1.125l-0.140625 0.640625q-0.171875 0.828125 0 1.40625q0.171875 0.5625 0.609375 0.859375q0.453125 0.28125 1.140625 0.28125q0.4375 0 0.8125 -0.125q0.375 -0.125 0.6875 -0.375q0.328125 -0.25 0.546875 -0.625l1.015625 0.296875q-0.28125 0.546875 -0.78125 0.96875q-0.5 0.40625 -1.140625 0.640625q-0.625 0.234375 -1.359375 0.234375zm4.731018 -0.15625l1.546875 -7.265625l1.078125 0l-0.234375 1.09375l0.078125 0q0.3125 -0.546875 0.90625 -0.875q0.609375 -0.34375 1.265625 -0.34375q0.109375 0 0.28125 0.015625q0.1875 0 0.28125 0.015625l-0.234375 1.125q-0.0625 -0.015625 -0.25 -0.03125q-0.1875 -0.03125 -0.421875 -0.03125q-0.515625 0 -0.984375 0.21875q-0.453125 0.21875 -0.78125 0.609375q-0.328125 0.375 -0.4375 0.875l-0.96875 4.59375l-1.125 0zm7.7642517 0.15625q-1.0625 0 -1.71875 -0.46875q-0.65625 -0.46875 -0.890625 -1.3125q-0.21875 -0.84375 0.015625 -1.953125q0.234375 -1.109375 0.8125 -1.96875q0.59375 -0.859375 1.421875 -1.328125q0.84375 -0.484375 1.828125 -0.484375q0.578125 0 1.078125 0.1875q0.515625 0.1875 0.890625 0.609375q0.375 0.421875 0.484375 1.125q0.125 0.6875 -0.09375 1.703125l-0.109375 0.484375l-5.59375 0l0.203125 -0.96875l4.453125 0q0.140625 -0.625 0 -1.09375q-0.140625 -0.484375 -0.53125 -0.765625q-0.375 -0.28125 -0.984375 -0.28125q-0.65625 0 -1.21875 0.328125q-0.5625 0.328125 -0.9375 0.859375q-0.375 0.515625 -0.5 1.125l-0.140625 0.640625q-0.171875 0.828125 0 1.40625q0.171875 0.5625 0.609375 0.859375q0.453125 0.28125 1.140625 0.28125q0.4375 0 0.8125 -0.125q0.375 -0.125 0.6875 -0.375q0.328125 -0.25 0.546875 -0.625l1.015625 0.296875q-0.28125 0.546875 -0.78125 0.96875q-0.5 0.40625 -1.140625 0.640625q-0.625 0.234375 -1.359375 0.234375zm6.793518 -4.53125l-0.9375 4.375l-1.125 0l1.546875 -7.265625l1.078125 0l-0.234375 1.125l0.109375 0q0.359375 -0.546875 0.953125 -0.875q0.59375 -0.34375 1.40625 -0.34375q0.75 0 1.234375 0.296875q0.484375 0.296875 0.65625 0.90625q0.1875 0.609375 0 1.53125l-0.984375 4.625l-1.125 0l0.96875 -4.546875q0.1875 -0.859375 -0.15625 -1.328125q-0.34375 -0.484375 -1.109375 -0.484375q-0.546875 0 -1.015625 0.234375q-0.46875 0.234375 -0.8125 0.6875q-0.328125 0.4375 -0.453125 1.0625zm8.6595 4.53125q-1.015625 0 -1.65625 -0.484375q-0.625 -0.484375 -0.84375 -1.328125q-0.21875 -0.859375 0.015625 -1.9375q0.234375 -1.109375 0.8125 -1.953125q0.59375 -0.859375 1.421875 -1.328125q0.84375 -0.484375 1.828125 -0.484375q0.765625 0 1.3125 0.28125q0.5625 0.28125 0.84375 0.796875q0.296875 0.5 0.234375 1.1875l-1.109375 0q-0.015625 -0.5 -0.375 -0.875q-0.34375 -0.390625 -1.09375 -0.390625q-0.640625 0 -1.21875 0.34375q-0.5625 0.328125 -0.96875 0.953125q-0.390625 0.609375 -0.5625 1.421875q-0.1875 0.84375 -0.0625 1.46875q0.140625 0.625 0.5625 0.96875q0.421875 0.34375 1.078125 0.34375q0.4375 0 0.828125 -0.140625q0.390625 -0.15625 0.6875 -0.4375q0.296875 -0.28125 0.5 -0.6875l1.109375 0q-0.234375 0.640625 -0.71875 1.15625q-0.46875 0.515625 -1.140625 0.828125q-0.671875 0.296875 -1.484375 0.296875zm7.5497894 0q-1.0625 0 -1.71875 -0.46875q-0.65625 -0.46875 -0.890625 -1.3125q-0.21875 -0.84375 0.015625 -1.953125q0.234375 -1.109375 0.8125 -1.96875q0.59375 -0.859375 1.421875 -1.328125q0.84375 -0.484375 1.828125 -0.484375q0.578125 0 1.078125 0.1875q0.515625 0.1875 0.890625 0.609375q0.375 0.421875 0.484375 1.125q0.125 0.6875 -0.09375 1.703125l-0.109375 0.484375l-5.59375 0l0.203125 -0.96875l4.453125 0q0.140625 -0.625 0 -1.09375q-0.140625 -0.484375 -0.53125 -0.765625q-0.375 -0.28125 -0.984375 -0.28125q-0.65625 0 -1.21875 0.328125q-0.5625 0.328125 -0.9375 0.859375q-0.375 0.515625 -0.5 1.125l-0.140625 0.640625q-0.171875 0.828125 0 1.40625q0.171875 0.5625 0.609375 0.859375q0.453125 0.28125 1.140625 0.28125q0.4375 0 0.8125 -0.125q0.375 -0.125 0.6875 -0.375q0.328125 -0.25 0.546875 -0.625l1.015625 0.296875q-0.28125 0.546875 -0.78125 0.96875q-0.5 0.40625 -1.140625 0.640625q-0.625 0.234375 -1.359375 0.234375zm11.090393 -5.796875l-1.0625 0.28125q-0.046875 -0.25 -0.1875 -0.484375q-0.125 -0.25 -0.40625 -0.40625q-0.28125 -0.15625 -0.765625 -0.15625q-0.65625 0 -1.171875 0.3125q-0.5 0.3125 -0.609375 0.78125q-0.078125 0.40625 0.171875 0.65625q0.25 0.234375 0.859375 0.390625l1.015625 0.265625q0.921875 0.234375 1.296875 0.734375q0.375 0.484375 0.21875 1.234375q-0.140625 0.625 -0.59375 1.125q-0.453125 0.484375 -1.15625 0.78125q-0.703125 0.28125 -1.546875 0.28125q-1.109375 0 -1.75 -0.484375q-0.625 -0.484375 -0.609375 -1.40625l1.109375 -0.265625q0.015625 0.578125 0.375 0.875q0.375 0.296875 1.0625 0.296875q0.78125 0 1.3125 -0.328125q0.53125 -0.34375 0.640625 -0.8125q0.078125 -0.375 -0.140625 -0.625q-0.203125 -0.265625 -0.71875 -0.390625l-1.15625 -0.296875q-0.953125 -0.234375 -1.328125 -0.734375q-0.359375 -0.5 -0.1875 -1.25q0.125 -0.609375 0.578125 -1.078125q0.453125 -0.484375 1.109375 -0.75q0.65625 -0.265625 1.421875 -0.265625q1.078125 0 1.59375 0.46875q0.515625 0.46875 0.625 1.25z" fill-rule="nonzero"/><path fill="#ffffff" d="m236.29115 38.472l75.073044 0l0 37.049904c-37.534485 0 -37.534485 14.254929 -75.073044 7.1274643zm6.1851044 0l0 -4.8032913l74.5603 0l0 37.282326c-2.8341675 0 -5.6723633 0.25823975 -5.6723633 0.25823975l0 -32.737274zm5.813675 -4.8032913l0 -4.6870823l75.20625 0l0 37.166115c-3.2297974 0 -6.4596252 0.19367981 -6.4596252 0.19367981l0 -32.672714z" fill-rule="evenodd"/><path fill="#000000" fill-opacity="0.0" d="m236.29115 38.472l75.073044 0l0 37.049904c-37.534485 0 -37.534485 14.254929 -75.073044 7.1274643zm6.1851044 0l0 -4.8032913l74.5603 0l0 37.282326c-2.8341675 0 -5.6723633 0.25823975 -5.6723633 0.25823975m-63.074265 -37.540565l0 -4.6870823l75.20625 0l0 37.166115c-3.2297974 0 -6.4596252 0.19367981 -6.4596252 0.19367981" fill-rule="evenodd"/><path fill="#000000" fill-opacity="0.0" d="m236.29115 82.64937c37.53856 7.1274643 37.53856 -7.1274643 75.073044 -7.1274643l0 -4.3126297c0 0 2.8381958 -0.25823975 5.6723633 -0.25823975l0 -4.6096115c0 0 3.229828 -0.19367981 6.4596252 -0.19367981l0 -37.166115l-75.20625 0l0 4.6870823l-5.813675 0l0 4.8032913l-6.1851044 0z" fill-rule="evenodd"/><path stroke="#ff9900" stroke-width="1.0" stroke-linejoin="round" stroke-linecap="butt" d="m236.29115 38.472l75.073044 0l0 37.049904c-37.534485 0 -37.534485 14.254929 -75.073044 7.1274643zm6.1851044 0l0 -4.8032913l74.5603 0l0 37.282326c-2.8341675 0 -5.6723633 0.25823975 -5.6723633 0.25823975m-63.074265 -37.540565l0 -4.6870823l75.20625 0l0 37.166115c-3.2297974 0 -6.4596252 0.19367981 -6.4596252 0.19367981" fill-rule="evenodd"/><path fill="#000000" d="m250.1374 50.09506l0 0.9375l-3.765625 0l0 -0.9375l3.765625 0zm-2.671875 -1.75l1.109375 0l0 6.9375q0 0.46875 0.140625 0.703125q0.140625 0.234375 0.359375 0.3125q0.21875 0.078125 0.46875 0.078125q0.1875 0 0.296875 -0.015625q0.125 -0.03125 0.203125 -0.046875l0.21875 1.015625q-0.109375 0.03125 -0.3125 0.078125q-0.203125 0.046875 -0.515625 0.046875q-0.46875 0 -0.921875 -0.203125q-0.453125 -0.203125 -0.75 -0.609375q-0.296875 -0.421875 -0.296875 -1.0625l0 -7.234375zm7.224045 9.171875q-0.984375 0 -1.71875 -0.46875q-0.734375 -0.46875 -1.15625 -1.3125q-0.40625 -0.84375 -0.40625 -1.96875q0 -1.140625 0.40625 -1.984375q0.421875 -0.84375 1.15625 -1.3125q0.734375 -0.46875 1.71875 -0.46875q0.984375 0 1.71875 0.46875q0.75 0.46875 1.15625 1.3125q0.421875 0.84375 0.421875 1.984375q0 1.125 -0.421875 1.96875q-0.40625 0.84375 -1.15625 1.3125q-0.734375 0.46875 -1.71875 0.46875zm0 -1.015625q0.75 0 1.234375 -0.375q0.484375 -0.390625 0.71875 -1.015625q0.234375 -0.625 0.234375 -1.34375q0 -0.734375 -0.234375 -1.359375q-0.234375 -0.625 -0.71875 -1.015625q-0.484375 -0.390625 -1.234375 -0.390625q-0.734375 0 -1.21875 0.390625q-0.484375 0.390625 -0.71875 1.015625q-0.234375 0.625 -0.234375 1.359375q0 0.71875 0.234375 1.34375q0.234375 0.625 0.71875 1.015625q0.484375 0.375 1.21875 0.375zm4.998474 3.578125l0 -9.984375l1.078125 0l0 1.15625l0.140625 0q0.125 -0.1875 0.34375 -0.484375q0.21875 -0.296875 0.625 -0.53125q0.421875 -0.234375 1.125 -0.234375q0.921875 0 1.625 0.453125q0.703125 0.453125 1.09375 1.296875q0.390625 0.84375 0.390625 2.0q0 1.140625 -0.390625 2.0q-0.390625 0.84375 -1.09375 1.3125q-0.6875 0.453125 -1.59375 0.453125q-0.703125 0 -1.125 -0.234375q-0.421875 -0.234375 -0.65625 -0.53125q-0.21875 -0.3125 -0.34375 -0.5l-0.09375 0l0 3.828125l-1.125 0zm1.109375 -6.359375q0 0.828125 0.234375 1.453125q0.25 0.625 0.703125 0.984375q0.46875 0.34375 1.140625 0.34375q0.703125 0 1.171875 -0.359375q0.46875 -0.375 0.703125 -1.0q0.25 -0.640625 0.25 -1.421875q0 -0.765625 -0.234375 -1.375q-0.234375 -0.625 -0.71875 -0.984375q-0.46875 -0.359375 -1.171875 -0.359375q-0.6875 0 -1.15625 0.34375q-0.453125 0.34375 -0.6875 0.953125q-0.234375 0.609375 -0.234375 1.421875zm11.184479 -1.03125l0 1.03125l-4.234375 0l0 -1.03125l4.234375 0zm3.0871887 -5.015625l0 9.6875l-1.125 0l0 -9.6875l1.125 0zm5.0992126 9.84375q-1.0625 0 -1.828125 -0.46875q-0.75 -0.46875 -1.15625 -1.3125q-0.40625 -0.84375 -0.40625 -1.953125q0 -1.109375 0.40625 -1.96875q0.40625 -0.859375 1.140625 -1.328125q0.734375 -0.484375 1.71875 -0.484375q0.578125 0 1.125 0.1875q0.546875 0.1875 1.0 0.609375q0.46875 0.421875 0.734375 1.125q0.265625 0.6875 0.265625 1.703125l0 0.484375l-5.59375 0l0 -0.96875l4.453125 0q0 -0.625 -0.25 -1.09375q-0.234375 -0.484375 -0.6875 -0.765625q-0.4375 -0.28125 -1.046875 -0.28125q-0.65625 0 -1.15625 0.328125q-0.484375 0.328125 -0.75 0.859375q-0.25 0.515625 -0.25 1.125l0 0.640625q0 0.828125 0.28125 1.40625q0.296875 0.5625 0.796875 0.859375q0.515625 0.28125 1.203125 0.28125q0.4375 0 0.78125 -0.125q0.359375 -0.125 0.625 -0.375q0.265625 -0.25 0.40625 -0.625l1.078125 0.296875q-0.171875 0.546875 -0.578125 0.96875q-0.40625 0.40625 -1.0 0.640625q-0.578125 0.234375 -1.3125 0.234375zm10.425598 -7.421875l-2.6875 7.265625l-1.140625 0l-2.6875 -7.265625l1.21875 0l2.0 5.78125l0.078125 0l2.0 -5.78125l1.21875 0zm4.2657166 7.421875q-1.0625 0 -1.828125 -0.46875q-0.75 -0.46875 -1.15625 -1.3125q-0.40625 -0.84375 -0.40625 -1.953125q0 -1.109375 0.40625 -1.96875q0.40625 -0.859375 1.140625 -1.328125q0.734375 -0.484375 1.71875 -0.484375q0.578125 0 1.125 0.1875q0.546875 0.1875 1.0 0.609375q0.46875 0.421875 0.734375 1.125q0.265625 0.6875 0.265625 1.703125l0 0.484375l-5.59375 0l0 -0.96875l4.453125 0q0 -0.625 -0.25 -1.09375q-0.234375 -0.484375 -0.6875 -0.765625q-0.4375 -0.28125 -1.046875 -0.28125q-0.65625 0 -1.15625 0.328125q-0.484375 0.328125 -0.75 0.859375q-0.25 0.515625 -0.25 1.125l0 0.640625q0 0.828125 0.28125 1.40625q0.296875 0.5625 0.796875 0.859375q0.515625 0.28125 1.203125 0.28125q0.4375 0 0.78125 -0.125q0.359375 -0.125 0.625 -0.375q0.265625 -0.25 0.40625 -0.625l1.078125 0.296875q-0.171875 0.546875 -0.578125 0.96875q-0.40625 0.40625 -1.0 0.640625q-0.578125 0.234375 -1.3125 0.234375zm5.824768 -9.84375l0 9.6875l-1.125 0l0 -9.6875l1.125 0z" fill-rule="nonzero"/><path fill="#000000" d="m250.89513 73.53256q-0.6875 0 -1.25 -0.265625q-0.5625 -0.265625 -0.890625 -0.765625q-0.328125 -0.5 -0.328125 -1.203125q0 -0.625 0.234375 -1.015625q0.25 -0.390625 0.65625 -0.609375q0.421875 -0.234375 0.921875 -0.34375q0.5 -0.109375 1.0 -0.171875q0.671875 -0.078125 1.078125 -0.125q0.421875 -0.046875 0.609375 -0.15625q0.1875 -0.109375 0.1875 -0.375l0 -0.046875q0 -0.703125 -0.390625 -1.078125q-0.375 -0.390625 -1.140625 -0.390625q-0.796875 0 -1.25 0.34375q-0.453125 0.34375 -0.640625 0.75l-1.0625 -0.375q0.28125 -0.671875 0.75 -1.03125q0.484375 -0.375 1.046875 -0.515625q0.5625 -0.15625 1.125 -0.15625q0.34375 0 0.796875 0.078125q0.453125 0.078125 0.875 0.34375q0.4375 0.25 0.71875 0.765625q0.296875 0.515625 0.296875 1.375l0 4.796875l-1.125 0l0 -0.984375l-0.0625 0q-0.109375 0.234375 -0.375 0.515625q-0.265625 0.265625 -0.703125 0.453125q-0.4375 0.1875 -1.078125 0.1875zm0.171875 -1.0q0.671875 0 1.125 -0.265625q0.453125 -0.265625 0.6875 -0.671875q0.234375 -0.40625 0.234375 -0.859375l0 -1.03125q-0.0625 0.09375 -0.3125 0.15625q-0.234375 0.0625 -0.546875 0.125q-0.3125 0.046875 -0.609375 0.078125q-0.28125 0.03125 -0.453125 0.0625q-0.4375 0.046875 -0.828125 0.171875q-0.375 0.125 -0.609375 0.375q-0.21875 0.25 -0.21875 0.6875q0 0.578125 0.4375 0.875q0.4375 0.296875 1.09375 0.296875zm5.2036285 0.828125l0 -7.265625l1.078125 0l0 1.09375l0.078125 0q0.203125 -0.546875 0.71875 -0.875q0.53125 -0.34375 1.1875 -0.34375q0.109375 0 0.296875 0.015625q0.1875 0 0.28125 0.015625l0 1.125q-0.0625 -0.015625 -0.265625 -0.03125q-0.1875 -0.03125 -0.421875 -0.03125q-0.515625 0 -0.9375 0.21875q-0.40625 0.21875 -0.65625 0.609375q-0.234375 0.375 -0.234375 0.875l0 4.59375l-1.125 0zm8.5867 -7.265625l0 0.9375l-3.765625 0l0 -0.9375l3.765625 0zm-2.671875 -1.75l1.109375 0l0 6.9375q0 0.46875 0.140625 0.703125q0.140625 0.234375 0.359375 0.3125q0.21875 0.078125 0.46875 0.078125q0.1875 0 0.296875 -0.015625q0.125 -0.03125 0.203125 -0.046875l0.21875 1.015625q-0.109375 0.03125 -0.3125 0.078125q-0.203125 0.046875 -0.515625 0.046875q-0.46875 0 -0.921875 -0.203125q-0.453125 -0.203125 -0.75 -0.609375q-0.296875 -0.421875 -0.296875 -1.0625l0 -7.234375zm4.3466797 9.015625l0 -7.265625l1.125 0l0 7.265625l-1.125 0zm0.578125 -8.484375q-0.328125 0 -0.5625 -0.21875q-0.234375 -0.21875 -0.234375 -0.53125q0 -0.3125038 0.234375 -0.5312538q0.234375 -0.234375 0.5625 -0.234375q0.328125 0 0.5625 0.234375q0.234375 0.21875 0.234375 0.5312538q0 0.3125 -0.234375 0.53125q-0.234375 0.21875 -0.5625 0.21875zm5.8335876 1.21875l0 0.9375l-3.921875 0l0 -0.9375l3.921875 0zm-2.75 7.265625l0 -8.265625q0 -0.625 0.28125 -1.046875q0.296875 -0.4218788 0.765625 -0.6250038q0.46875 -0.203125 1.0 -0.203125q0.40625 0 0.65625 0.0625q0.265625 0.0625 0.40625 0.125l-0.328125 0.9531288q-0.078125 -0.015625 -0.234375 -0.0625q-0.140625 -0.046875 -0.390625 -0.046875q-0.546875 0 -0.796875 0.28125q-0.25 0.28125 -0.25 0.8125l0 8.015625l-1.109375 0zm6.2411194 0.171875q-0.6875 0 -1.25 -0.265625q-0.5625 -0.265625 -0.890625 -0.765625q-0.328125 -0.5 -0.328125 -1.203125q0 -0.625 0.234375 -1.015625q0.25 -0.390625 0.65625 -0.609375q0.421875 -0.234375 0.921875 -0.34375q0.5 -0.109375 1.0 -0.171875q0.671875 -0.078125 1.078125 -0.125q0.421875 -0.046875 0.609375 -0.15625q0.1875 -0.109375 0.1875 -0.375l0 -0.046875q0 -0.703125 -0.390625 -1.078125q-0.375 -0.390625 -1.140625 -0.390625q-0.796875 0 -1.25 0.34375q-0.453125 0.34375 -0.640625 0.75l-1.0625 -0.375q0.28125 -0.671875 0.75 -1.03125q0.484375 -0.375 1.046875 -0.515625q0.5625 -0.15625 1.125 -0.15625q0.34375 0 0.796875 0.078125q0.453125 0.078125 0.875 0.34375q0.4375 0.25 0.71875 0.765625q0.296875 0.515625 0.296875 1.375l0 4.796875l-1.125 0l0 -0.984375l-0.0625 0q-0.109375 0.234375 -0.375 0.515625q-0.265625 0.265625 -0.703125 0.453125q-0.4375 0.1875 -1.078125 0.1875zm0.171875 -1.0q0.671875 0 1.125 -0.265625q0.453125 -0.265625 0.6875 -0.671875q0.234375 -0.40625 0.234375 -0.859375l0 -1.03125q-0.0625 0.09375 -0.3125 0.15625q-0.234375 0.0625 -0.546875 0.125q-0.3125 0.046875 -0.609375 0.078125q-0.28125 0.03125 -0.453125 0.0625q-0.4375 0.046875 -0.828125 0.171875q-0.375 0.125 -0.609375 0.375q-0.21875 0.25 -0.21875 0.6875q0 0.578125 0.4375 0.875q0.4375 0.296875 1.09375 0.296875zm8.156769 0.984375q-1.015625 0 -1.75 -0.484375q-0.734375 -0.484375 -1.140625 -1.328125q-0.390625 -0.859375 -0.390625 -1.9375q0 -1.109375 0.40625 -1.953125q0.40625 -0.859375 1.140625 -1.328125q0.734375 -0.484375 1.71875 -0.484375q0.765625 0 1.375 0.28125q0.625 0.28125 1.015625 0.796875q0.390625 0.5 0.484375 1.1875l-1.109375 0q-0.125 -0.5 -0.5625 -0.875q-0.4375 -0.390625 -1.1875 -0.390625q-0.640625 0 -1.140625 0.34375q-0.484375 0.328125 -0.765625 0.953125q-0.265625 0.609375 -0.265625 1.421875q0 0.84375 0.265625 1.46875q0.265625 0.625 0.75 0.96875q0.5 0.34375 1.15625 0.34375q0.4375 0 0.796875 -0.140625q0.359375 -0.15625 0.59375 -0.4375q0.25 -0.28125 0.359375 -0.6875l1.109375 0q-0.09375 0.640625 -0.46875 1.15625q-0.359375 0.515625 -0.96875 0.828125q-0.609375 0.296875 -1.421875 0.296875zm7.659149 -7.421875l0 0.9375l-3.765625 0l0 -0.9375l3.765625 0zm-2.671875 -1.75l1.109375 0l0 6.9375q0 0.46875 0.140625 0.703125q0.140625 0.234375 0.359375 0.3125q0.21875 0.078125 0.46875 0.078125q0.1875 0 0.296875 -0.015625q0.125 -0.03125 0.203125 -0.046875l0.21875 1.015625q-0.109375 0.03125 -0.3125 0.078125q-0.203125 0.046875 -0.515625 0.046875q-0.46875 0 -0.921875 -0.203125q-0.453125 -0.203125 -0.75 -0.609375q-0.296875 -0.421875 -0.296875 -1.0625l0 -7.234375zm9.370361 3.375l-1.0 0.28125q-0.09375 -0.25 -0.28125 -0.484375q-0.1875 -0.25 -0.5 -0.40625q-0.3125 -0.15625 -0.796875 -0.15625q-0.65625 0 -1.109375 0.3125q-0.4375 0.3125 -0.4375 0.78125q0 0.40625 0.296875 0.65625q0.3125 0.234375 0.953125 0.390625l1.078125 0.265625q0.96875 0.234375 1.4375 0.734375q0.484375 0.484375 0.484375 1.234375q0 0.625 -0.359375 1.125q-0.34375 0.484375 -0.984375 0.78125q-0.640625 0.28125 -1.484375 0.28125q-1.109375 0 -1.84375 -0.484375q-0.734375 -0.484375 -0.921875 -1.40625l1.0625 -0.265625q0.140625 0.578125 0.5625 0.875q0.4375 0.296875 1.125 0.296875q0.78125 0 1.234375 -0.328125q0.46875 -0.34375 0.46875 -0.8125q0 -0.375 -0.265625 -0.625q-0.265625 -0.265625 -0.8125 -0.390625l-1.21875 -0.296875q-1.0 -0.234375 -1.46875 -0.734375q-0.46875 -0.5 -0.46875 -1.25q0 -0.609375 0.34375 -1.078125q0.359375 -0.484375 0.953125 -0.75q0.609375 -0.265625 1.375 -0.265625q1.078125 0 1.6875 0.46875q0.625 0.46875 0.890625 1.25z" fill-rule="nonzero"/><path fill="#ffffff" d="m161.20473 317.9293l0 0c0 -4.2676086 3.4595795 -7.7272034 7.727188 -7.7272034l576.7346 0c2.0493774 0 4.0148315 0.81411743 5.463928 2.2632446c1.4491577 1.4491272 2.2632446 3.4145813 2.2632446 5.4639587l0 30.907837c0 4.2676086 -3.4595337 7.727173 -7.727173 7.727173l-576.7346 0c-4.2676086 0 -7.727188 -3.4595642 -7.727188 -7.727173z" fill-rule="evenodd"/><path stroke="#58da95" stroke-width="2.0" stroke-linejoin="round" stroke-linecap="butt" d="m161.20473 317.9293l0 0c0 -4.2676086 3.4595795 -7.7272034 7.727188 -7.7272034l576.7346 0c2.0493774 0 4.0148315 0.81411743 5.463928 2.2632446c1.4491577 1.4491272 2.2632446 3.4145813 2.2632446 5.4639587l0 30.907837c0 4.2676086 -3.4595337 7.727173 -7.727173 7.727173l-576.7346 0c-4.2676086 0 -7.727188 -3.4595642 -7.727188 -7.727173z" fill-rule="evenodd"/><path fill="#000000" d="m397.52454 340.3032l0 -13.5625l4.75 0q1.40625 0 2.328125 0.484375q0.921875 0.484375 1.375 1.3125q0.453125 0.8125 0.453125 1.796875q0 0.875 -0.3125 1.453125q-0.296875 0.5625 -0.796875 0.90625q-0.5 0.328125 -1.09375 0.484375l0 0.125q0.625 0.046875 1.25 0.453125q0.640625 0.390625 1.0625 1.140625q0.421875 0.734375 0.421875 1.796875q0 1.03125 -0.46875 1.84375q-0.453125 0.8125 -1.453125 1.296875q-1.0 0.46875 -2.609375 0.46875l-4.90625 0zm1.640625 -1.453125l3.265625 0q1.609375 0 2.28125 -0.625q0.6875 -0.625 0.6875 -1.53125q0 -0.6875 -0.359375 -1.265625q-0.34375 -0.59375 -1.0 -0.9375q-0.640625 -0.359375 -1.53125 -0.359375l-3.34375 0l0 4.71875zm0 -6.15625l3.046875 0q0.75 0 1.34375 -0.28125q0.609375 -0.296875 0.953125 -0.828125q0.359375 -0.53125 0.359375 -1.25q0 -0.890625 -0.625 -1.515625q-0.625 -0.625 -1.96875 -0.625l-3.109375 0l0 4.5zm16.69983 3.453125l0 -6.015625l1.5625 0l0 10.171875l-1.5625 0l0 -1.71875l-0.109375 0q-0.359375 0.765625 -1.109375 1.3125q-0.75 0.53125 -1.90625 0.53125q-0.953125 0 -1.703125 -0.40625q-0.734375 -0.421875 -1.15625 -1.265625q-0.421875 -0.859375 -0.421875 -2.15625l0 -6.46875l1.5625 0l0 6.359375q0 1.109375 0.625 1.78125q0.625 0.65625 1.59375 0.65625q0.578125 0 1.1875 -0.296875q0.609375 -0.296875 1.015625 -0.90625q0.421875 -0.625 0.421875 -1.578125zm4.4325256 4.15625l0 -10.171875l1.5625 0l0 10.171875l-1.5625 0zm0.78125 -11.875q-0.453125 0 -0.78125 -0.3125q-0.328125 -0.3125 -0.328125 -0.75q0 -0.4375 0.328125 -0.75q0.328125 -0.3125 0.78125 -0.3125q0.46875 0 0.796875 0.3125q0.328125 0.3125 0.328125 0.75q0 0.4375 -0.328125 0.75q-0.328125 0.3125 -0.796875 0.3125zm5.2068787 -1.6875l0 13.5625l-1.5625 0l0 -13.5625l1.5625 0zm6.7068787 13.78125q-1.28125 0 -2.265625 -0.640625q-0.96875 -0.65625 -1.515625 -1.828125q-0.546875 -1.1875 -0.546875 -2.8125q0 -1.609375 0.546875 -2.78125q0.546875 -1.1875 1.53125 -1.828125q0.984375 -0.640625 2.265625 -0.640625q1.0 0 1.578125 0.328125q0.578125 0.328125 0.875 0.75q0.3125 0.40625 0.484375 0.671875l0.140625 0l0 -5.0l1.5625 0l0 13.5625l-1.515625 0l0 -1.5625l-0.1875 0q-0.171875 0.28125 -0.484375 0.703125q-0.3125 0.421875 -0.90625 0.75q-0.59375 0.328125 -1.5625 0.328125zm0.203125 -1.40625q0.9375 0 1.578125 -0.484375q0.65625 -0.5 1.0 -1.375q0.34375 -0.890625 0.34375 -2.046875q0 -1.140625 -0.34375 -1.984375q-0.328125 -0.859375 -0.984375 -1.34375q-0.640625 -0.484375 -1.59375 -0.484375q-1.0 0 -1.65625 0.515625q-0.65625 0.5 -0.984375 1.375q-0.328125 0.859375 -0.328125 1.921875q0 1.09375 0.328125 1.984375q0.34375 0.875 1.0 1.40625q0.65625 0.515625 1.640625 0.515625zm12.984192 1.1875l0 -13.5625l4.59375 0q1.59375 0 2.609375 0.578125q1.015625 0.5625 1.5 1.546875q0.5 0.96875 0.5 2.15625q0 1.203125 -0.5 2.1875q-0.484375 0.984375 -1.5 1.5625q-1.0 0.578125 -2.59375 0.578125l-3.28125 0l0 -1.453125l3.234375 0q1.09375 0 1.75 -0.375q0.671875 -0.390625 0.96875 -1.03125q0.296875 -0.640625 0.296875 -1.46875q0 -0.8125 -0.296875 -1.453125q-0.296875 -0.640625 -0.96875 -1.0q-0.671875 -0.375 -1.78125 -0.375l-2.890625 0l0 12.109375l-1.640625 0zm13.2052 -13.5625l0 13.5625l-1.5625 0l0 -13.5625l1.5625 0zm5.847473 13.796875q-0.96875 0 -1.765625 -0.359375q-0.78125 -0.375 -1.25 -1.0625q-0.453125 -0.703125 -0.453125 -1.703125q0 -0.875 0.34375 -1.421875q0.34375 -0.546875 0.921875 -0.859375q0.578125 -0.3125 1.265625 -0.46875q0.703125 -0.15625 1.421875 -0.25q0.921875 -0.109375 1.5 -0.171875q0.578125 -0.0625 0.84375 -0.21875q0.28125 -0.15625 0.28125 -0.53125l0 -0.046875q0 -0.984375 -0.546875 -1.53125q-0.53125 -0.546875 -1.609375 -0.546875q-1.109375 0 -1.75 0.5q-0.640625 0.484375 -0.890625 1.046875l-1.484375 -0.53125q0.390625 -0.921875 1.046875 -1.4375q0.671875 -0.53125 1.46875 -0.734375q0.796875 -0.21875 1.5625 -0.21875q0.484375 0 1.125 0.125q0.640625 0.109375 1.234375 0.46875q0.609375 0.359375 1.0 1.078125q0.40625 0.71875 0.40625 1.9375l0 6.703125l-1.5625 0l0 -1.375l-0.078125 0q-0.171875 0.328125 -0.546875 0.703125q-0.359375 0.375 -0.984375 0.640625q-0.609375 0.265625 -1.5 0.265625zm0.25 -1.40625q0.921875 0 1.5625 -0.359375q0.640625 -0.359375 0.96875 -0.9375q0.328125 -0.578125 0.328125 -1.21875l0 -1.421875q-0.109375 0.109375 -0.453125 0.21875q-0.328125 0.09375 -0.765625 0.15625q-0.421875 0.0625 -0.828125 0.125q-0.40625 0.046875 -0.65625 0.078125q-0.609375 0.078125 -1.140625 0.265625q-0.53125 0.171875 -0.859375 0.515625q-0.3125 0.34375 -0.3125 0.9375q0 0.8125 0.609375 1.234375q0.609375 0.40625 1.546875 0.40625zm11.708282 -9.0l0 1.328125l-5.28125 0l0 -1.328125l5.28125 0zm-3.734375 -2.4375l1.5625 0l0 9.6875q0 0.671875 0.1875 1.0q0.203125 0.328125 0.5 0.4375q0.3125 0.109375 0.65625 0.109375q0.265625 0 0.421875 -0.03125q0.171875 -0.03125 0.265625 -0.046875l0.328125 1.40625q-0.15625 0.046875 -0.453125 0.109375q-0.28125 0.0625 -0.71875 0.0625q-0.65625 0 -1.296875 -0.28125q-0.625 -0.28125 -1.046875 -0.859375q-0.40625 -0.59375 -0.40625 -1.46875l0 -10.125zm10.62793 2.4375l0 1.328125l-5.484375 0l0 -1.328125l5.484375 0zm-3.84375 10.171875l0 -11.578125q0 -0.875 0.40625 -1.453125q0.40625 -0.59375 1.0625 -0.875q0.65625 -0.296875 1.390625 -0.296875q0.578125 0 0.9375 0.09375q0.359375 0.09375 0.546875 0.171875l-0.453125 1.34375q-0.125 -0.03125 -0.328125 -0.09375q-0.203125 -0.0625 -0.546875 -0.0625q-0.78125 0 -1.125 0.390625q-0.328125 0.390625 -0.328125 1.15625l0 11.203125l-1.5625 0zm9.744446 0.21875q-1.375 0 -2.421875 -0.65625q-1.03125 -0.65625 -1.609375 -1.828125q-0.578125 -1.1875 -0.578125 -2.765625q0 -1.59375 0.578125 -2.78125q0.578125 -1.1875 1.609375 -1.84375q1.046875 -0.65625 2.421875 -0.65625q1.375 0 2.40625 0.65625q1.046875 0.65625 1.625 1.84375q0.578125 1.1875 0.578125 2.78125q0 1.578125 -0.578125 2.765625q-0.578125 1.171875 -1.625 1.828125q-1.03125 0.65625 -2.40625 0.65625zm0 -1.40625q1.046875 0 1.71875 -0.53125q0.6875 -0.546875 1.0 -1.421875q0.328125 -0.875 0.328125 -1.890625q0 -1.03125 -0.328125 -1.90625q-0.3125 -0.875 -1.0 -1.421875q-0.671875 -0.546875 -1.71875 -0.546875q-1.046875 0 -1.71875 0.546875q-0.671875 0.546875 -1.0 1.421875q-0.328125 0.875 -0.328125 1.90625q0 1.015625 0.328125 1.890625q0.328125 0.875 1.0 1.421875q0.671875 0.53125 1.71875 0.53125zm7.0052795 1.1875l0 -10.171875l1.5 0l0 1.53125l0.109375 0q0.28125 -0.75 1.0 -1.21875q0.734375 -0.46875 1.65625 -0.46875q0.171875 0 0.421875 0q0.265625 0 0.390625 0.015625l0 1.59375q-0.078125 -0.015625 -0.359375 -0.0625q-0.28125 -0.046875 -0.59375 -0.046875q-0.734375 0 -1.328125 0.3125q-0.578125 0.3125 -0.90625 0.859375q-0.328125 0.53125 -0.328125 1.21875l0 6.4375l-1.5625 0zm6.943207 0l0 -10.171875l1.5 0l0 1.578125l0.140625 0q0.3125 -0.8125 1.015625 -1.265625q0.71875 -0.453125 1.703125 -0.453125q1.015625 0 1.6875 0.453125q0.671875 0.453125 1.046875 1.265625l0.109375 0q0.390625 -0.78125 1.171875 -1.25q0.78125 -0.46875 1.875 -0.46875q1.359375 0 2.21875 0.859375q0.875 0.84375 0.875 2.640625l0 6.8125l-1.5625 0l0 -6.8125q0 -1.125 -0.625 -1.609375q-0.609375 -0.484375 -1.4375 -0.484375q-1.078125 0 -1.671875 0.65625q-0.578125 0.640625 -0.578125 1.625l0 6.625l-1.59375 0l0 -6.96875q0 -0.875 -0.5625 -1.40625q-0.5625 -0.53125 -1.453125 -0.53125q-0.609375 0 -1.140625 0.328125q-0.515625 0.328125 -0.84375 0.90625q-0.3125 0.5625 -0.3125 1.3125l0 6.359375l-1.5625 0z" fill-rule="nonzero"/><path fill="#000000" fill-opacity="0.0" d="m580.94226 183.74016l77.82678 0" fill-rule="evenodd"/><path stroke="#000000" stroke-width="1.0" stroke-linejoin="round" stroke-linecap="butt" d="m580.94226 183.74016l71.82678 0" fill-rule="evenodd"/><path fill="#000000" stroke="#000000" stroke-width="1.0" stroke-linecap="butt" d="m652.76904 185.39189l4.538086 -1.6517334l-4.538086 -1.6517334z" fill-rule="evenodd"/><path fill="#ffffff" d="m2.6528237 165.98688l217.40158 0l17.779526 17.779526l0 17.779526l0 0l-217.40157 0l-17.779528 -17.779526l0 -17.779526z" fill-rule="evenodd"/><path stroke="#ff9900" stroke-width="1.0" stroke-linejoin="round" stroke-linecap="butt" d="m2.6528237 165.98688l217.40158 0l17.779526 17.779526l0 17.779526l0 0l-217.40157 0l-17.779528 -17.779526l0 -17.779526z" fill-rule="evenodd"/><path fill="#000000" d="m32.894676 190.6864l0 -13.5625l8.1875 0l0 1.453125l-6.546875 0l0 4.578125l6.125 0l0 1.46875l-6.125 0l0 4.609375l6.65625 0l0 1.453125l-8.296875 0zm12.109924 -10.171875l2.4375 4.15625l2.4375 -4.15625l1.8125 0l-3.296875 5.078125l3.296875 5.09375l-1.8125 0l-2.4375 -3.953125l-2.4375 3.953125l-1.796875 0l3.234375 -5.09375l-3.234375 -5.078125l1.796875 0zm13.335892 0l0 1.328125l-5.28125 0l0 -1.328125l5.28125 0zm-3.734375 -2.4375l1.5625 0l0 9.6875q0 0.671875 0.1875 1.0q0.203125 0.328125 0.5 0.4375q0.3125 0.109375 0.65625 0.109375q0.265625 0 0.421875 -0.03125q0.171875 -0.03125 0.265625 -0.046875l0.328125 1.40625q-0.15625 0.046875 -0.453125 0.109375q-0.28125 0.0625 -0.71875 0.0625q-0.65625 0 -1.296875 -0.28125q-0.625 -0.28125 -1.046875 -0.859375q-0.40625 -0.59375 -0.40625 -1.46875l0 -10.125zm10.256241 12.828125q-1.46875 0 -2.546875 -0.65625q-1.0625 -0.65625 -1.640625 -1.828125q-0.5625 -1.171875 -0.5625 -2.75q0 -1.5625 0.5625 -2.75q0.578125 -1.203125 1.609375 -1.875q1.03125 -0.671875 2.40625 -0.671875q0.796875 0 1.578125 0.265625q0.78125 0.265625 1.40625 0.859375q0.640625 0.59375 1.015625 1.578125q0.375 0.96875 0.375 2.390625l0 0.65625l-7.84375 0l0 -1.34375l6.265625 0q0 -0.859375 -0.34375 -1.53125q-0.34375 -0.6875 -0.96875 -1.078125q-0.625 -0.390625 -1.484375 -0.390625q-0.921875 0 -1.609375 0.46875q-0.671875 0.453125 -1.046875 1.1875q-0.359375 0.734375 -0.359375 1.578125l0 0.90625q0 1.140625 0.390625 1.953125q0.40625 0.796875 1.125 1.21875q0.71875 0.40625 1.671875 0.40625q0.609375 0 1.109375 -0.171875q0.5 -0.1875 0.859375 -0.53125q0.375 -0.359375 0.5625 -0.890625l1.515625 0.421875q-0.234375 0.765625 -0.796875 1.34375q-0.5625 0.578125 -1.390625 0.90625q-0.828125 0.328125 -1.859375 0.328125zm6.5996704 -0.21875l0 -10.171875l1.5 0l0 1.53125l0.109375 0q0.28125 -0.75 1.0 -1.21875q0.734375 -0.46875 1.65625 -0.46875q0.171875 0 0.421875 0q0.265625 0 0.390625 0.015625l0 1.59375q-0.078125 -0.015625 -0.359375 -0.0625q-0.28125 -0.046875 -0.59375 -0.046875q-0.734375 0 -1.328125 0.3125q-0.578125 0.3125 -0.90625 0.859375q-0.328125 0.53125 -0.328125 1.21875l0 6.4375l-1.5625 0zm8.505692 -6.125l0 6.125l-1.5625 0l0 -10.171875l1.5 0l0 1.578125l0.140625 0q0.359375 -0.765625 1.078125 -1.234375q0.734375 -0.484375 1.890625 -0.484375q1.03125 0 1.796875 0.421875q0.78125 0.421875 1.203125 1.28125q0.4375 0.84375 0.4375 2.140625l0 6.46875l-1.5625 0l0 -6.359375q0 -1.203125 -0.625 -1.875q-0.625 -0.671875 -1.703125 -0.671875q-0.75 0 -1.34375 0.328125q-0.578125 0.328125 -0.921875 0.953125q-0.328125 0.609375 -0.328125 1.5zm12.340164 6.359375q-0.96875 0 -1.765625 -0.359375q-0.78125 -0.375 -1.25 -1.0625q-0.453125 -0.703125 -0.453125 -1.703125q0 -0.875 0.34375 -1.421875q0.34375 -0.546875 0.921875 -0.859375q0.578125 -0.3125 1.265625 -0.46875q0.703125 -0.15625 1.421875 -0.25q0.921875 -0.109375 1.5 -0.171875q0.578125 -0.0625 0.84375 -0.21875q0.28125 -0.15625 0.28125 -0.53125l0 -0.046875q0 -0.984375 -0.546875 -1.53125q-0.53125 -0.546875 -1.609375 -0.546875q-1.109375 0 -1.75 0.5q-0.640625 0.484375 -0.890625 1.046875l-1.484375 -0.53125q0.390625 -0.921875 1.046875 -1.4375q0.671875 -0.53125 1.46875 -0.734375q0.796875 -0.21875 1.5625 -0.21875q0.484375 0 1.125 0.125q0.640625 0.109375 1.234375 0.46875q0.609375 0.359375 1.0 1.078125q0.40625 0.71875 0.40625 1.9375l0 6.703125l-1.5625 0l0 -1.375l-0.078125 0q-0.171875 0.328125 -0.546875 0.703125q-0.359375 0.375 -0.984375 0.640625q-0.609375 0.265625 -1.5 0.265625zm0.25 -1.40625q0.921875 0 1.5625 -0.359375q0.640625 -0.359375 0.96875 -0.9375q0.328125 -0.578125 0.328125 -1.21875l0 -1.421875q-0.109375 0.109375 -0.453125 0.21875q-0.328125 0.09375 -0.765625 0.15625q-0.421875 0.0625 -0.828125 0.125q-0.40625 0.046875 -0.65625 0.078125q-0.609375 0.078125 -1.140625 0.265625q-0.53125 0.171875 -0.859375 0.515625q-0.3125 0.34375 -0.3125 0.9375q0 0.8125 0.609375 1.234375q0.609375 0.40625 1.546875 0.40625zm8.848907 -12.390625l0 13.5625l-1.5625 0l0 -13.5625l1.5625 0zm8.313385 13.5625l0 -13.5625l4.59375 0q1.59375 0 2.609375 0.578125q1.015625 0.5625 1.5 1.546875q0.5 0.96875 0.5 2.15625q0 1.203125 -0.5 2.1875q-0.484375 0.984375 -1.5 1.5625q-1.0 0.578125 -2.59375 0.578125l-3.28125 0l0 -1.453125l3.234375 0q1.09375 0 1.75 -0.375q0.671875 -0.390625 0.96875 -1.03125q0.296875 -0.640625 0.296875 -1.46875q0 -0.8125 -0.296875 -1.453125q-0.296875 -0.640625 -0.96875 -1.0q-0.671875 -0.375 -1.78125 -0.375l-2.890625 0l0 12.109375l-1.640625 0zm14.62706 0.234375q-0.96875 0 -1.765625 -0.359375q-0.78125 -0.375 -1.25 -1.0625q-0.453125 -0.703125 -0.453125 -1.703125q0 -0.875 0.34375 -1.421875q0.34375 -0.546875 0.921875 -0.859375q0.578125 -0.3125 1.265625 -0.46875q0.703125 -0.15625 1.421875 -0.25q0.921875 -0.109375 1.5 -0.171875q0.578125 -0.0625 0.84375 -0.21875q0.28125 -0.15625 0.28125 -0.53125l0 -0.046875q0 -0.984375 -0.546875 -1.53125q-0.53125 -0.546875 -1.609375 -0.546875q-1.109375 0 -1.75 0.5q-0.640625 0.484375 -0.890625 1.046875l-1.484375 -0.53125q0.390625 -0.921875 1.046875 -1.4375q0.671875 -0.53125 1.46875 -0.734375q0.796875 -0.21875 1.5625 -0.21875q0.484375 0 1.125 0.125q0.640625 0.109375 1.234375 0.46875q0.6093826 0.359375 1.0000076 1.078125q0.40625 0.71875 0.40625 1.9375l0 6.703125l-1.5625076 0l0 -1.375l-0.078125 0q-0.171875 0.328125 -0.546875 0.703125q-0.359375 0.375 -0.984375 0.640625q-0.609375 0.265625 -1.5 0.265625zm0.25 -1.40625q0.921875 0 1.5625 -0.359375q0.640625 -0.359375 0.96875 -0.9375q0.328125 -0.578125 0.328125 -1.21875l0 -1.421875q-0.109375 0.109375 -0.453125 0.21875q-0.328125 0.09375 -0.765625 0.15625q-0.421875 0.0625 -0.828125 0.125q-0.40625 0.046875 -0.65625 0.078125q-0.609375 0.078125 -1.140625 0.265625q-0.53125 0.171875 -0.859375 0.515625q-0.3125 0.34375 -0.3125 0.9375q0 0.8125 0.609375 1.234375q0.609375 0.40625 1.546875 0.40625zm7.286415 1.171875l0 -10.171875l1.5 0l0 1.53125l0.109375 0q0.28125 -0.75 1.0 -1.21875q0.734375 -0.46875 1.65625 -0.46875q0.171875 0 0.421875 0q0.265625 0 0.390625 0.015625l0 1.59375q-0.078125 -0.015625 -0.359375 -0.0625q-0.28125 -0.046875 -0.59375 -0.046875q-0.734375 0 -1.328125 0.3125q-0.578125 0.3125 -0.90625 0.859375q-0.328125 0.53125 -0.328125 1.21875l0 6.4375l-1.5625 0zm9.927551 0.234375q-0.96875 0 -1.765625 -0.359375q-0.78123474 -0.375 -1.2499847 -1.0625q-0.453125 -0.703125 -0.453125 -1.703125q0 -0.875 0.34375 -1.421875q0.34375 -0.546875 0.92185974 -0.859375q0.578125 -0.3125 1.265625 -0.46875q0.703125 -0.15625 1.421875 -0.25q0.921875 -0.109375 1.5 -0.171875q0.578125 -0.0625 0.84375 -0.21875q0.28125 -0.15625 0.28125 -0.53125l0 -0.046875q0 -0.984375 -0.546875 -1.53125q-0.53125 -0.546875 -1.609375 -0.546875q-1.109375 0 -1.75 0.5q-0.640625 0.484375 -0.890625 1.046875l-1.4843597 -0.53125q0.390625 -0.921875 1.0468597 -1.4375q0.671875 -0.53125 1.46875 -0.734375q0.796875 -0.21875 1.5625 -0.21875q0.484375 0 1.125 0.125q0.640625 0.109375 1.234375 0.46875q0.609375 0.359375 1.0 1.078125q0.40625 0.71875 0.40625 1.9375l0 6.703125l-1.5625 0l0 -1.375l-0.078125 0q-0.171875 0.328125 -0.546875 0.703125q-0.359375 0.375 -0.984375 0.640625q-0.609375 0.265625 -1.5 0.265625zm0.25 -1.40625q0.921875 0 1.5625 -0.359375q0.640625 -0.359375 0.96875 -0.9375q0.328125 -0.578125 0.328125 -1.21875l0 -1.421875q-0.109375 0.109375 -0.453125 0.21875q-0.328125 0.09375 -0.765625 0.15625q-0.421875 0.0625 -0.828125 0.125q-0.40625 0.046875 -0.65625 0.078125q-0.609375 0.078125 -1.140625 0.265625q-0.53125 0.171875 -0.859375 0.515625q-0.3125 0.34375 -0.3125 0.9375q0 0.8125 0.609375 1.234375q0.609375 0.40625 1.546875 0.40625zm7.2864075 1.171875l0 -10.171875l1.5 0l0 1.578125l0.140625 0q0.3125 -0.8125 1.015625 -1.265625q0.71875 -0.453125 1.703125 -0.453125q1.015625 0 1.6875 0.453125q0.671875 0.453125 1.046875 1.265625l0.109375 0q0.390625 -0.78125 1.171875 -1.25q0.78125 -0.46875 1.875 -0.46875q1.359375 0 2.21875 0.859375q0.875 0.84375 0.875 2.640625l0 6.8125l-1.5625 0l0 -6.8125q0 -1.125 -0.625 -1.609375q-0.609375 -0.484375 -1.4375 -0.484375q-1.078125 0 -1.671875 0.65625q-0.578125 0.640625 -0.578125 1.625l0 6.625l-1.59375 0l0 -6.96875q0 -0.875 -0.5625 -1.40625q-0.5625 -0.53125 -1.453125 -0.53125q-0.609375 0 -1.140625 0.328125q-0.515625 0.328125 -0.84375 0.90625q-0.3125 0.5625 -0.3125 1.3125l0 6.359375l-1.5625 0zm20.48407 0.21875q-1.46875 0 -2.546875 -0.65625q-1.0625 -0.65625 -1.640625 -1.828125q-0.5625 -1.171875 -0.5625 -2.75q0 -1.5625 0.5625 -2.75q0.578125 -1.203125 1.609375 -1.875q1.03125 -0.671875 2.40625 -0.671875q0.796875 0 1.578125 0.265625q0.78125 0.265625 1.40625 0.859375q0.640625 0.59375 1.015625 1.578125q0.375 0.96875 0.375 2.390625l0 0.65625l-7.84375 0l0 -1.34375l6.265625 0q0 -0.859375 -0.34375 -1.53125q-0.34375 -0.6875 -0.96875 -1.078125q-0.625 -0.390625 -1.484375 -0.390625q-0.921875 0 -1.609375 0.46875q-0.671875 0.453125 -1.046875 1.1875q-0.359375 0.734375 -0.359375 1.578125l0 0.90625q0 1.140625 0.390625 1.953125q0.40625 0.796875 1.125 1.21875q0.71875 0.40625 1.671875 0.40625q0.609375 0 1.109375 -0.171875q0.5 -0.1875 0.859375 -0.53125q0.375 -0.359375 0.5625 -0.890625l1.515625 0.421875q-0.234375 0.765625 -0.796875 1.34375q-0.5625 0.578125 -1.390625 0.90625q-0.828125 0.328125 -1.859375 0.328125zm11.021545 -10.390625l0 1.328125l-5.28125 0l0 -1.328125l5.28125 0zm-3.734375 -2.4375l1.5625 0l0 9.6875q0 0.671875 0.1875 1.0q0.203125 0.328125 0.5 0.4375q0.3125 0.109375 0.65625 0.109375q0.265625 0 0.421875 -0.03125q0.171875 -0.03125 0.265625 -0.046875l0.328125 1.40625q-0.15625 0.046875 -0.453125 0.109375q-0.28125 0.0625 -0.71875 0.0625q-0.65625 0 -1.296875 -0.28125q-0.625 -0.28125 -1.046875 -0.859375q-0.40625 -0.59375 -0.40625 -1.46875l0 -10.125zm10.256226 12.828125q-1.46875 0 -2.546875 -0.65625q-1.0625 -0.65625 -1.640625 -1.828125q-0.5625 -1.171875 -0.5625 -2.75q0 -1.5625 0.5625 -2.75q0.578125 -1.203125 1.609375 -1.875q1.03125 -0.671875 2.40625 -0.671875q0.796875 0 1.578125 0.265625q0.78125 0.265625 1.40625 0.859375q0.640625 0.59375 1.015625 1.578125q0.375 0.96875 0.375 2.390625l0 0.65625l-7.84375 0l0 -1.34375l6.265625 0q0 -0.859375 -0.34375 -1.53125q-0.34375 -0.6875 -0.96875 -1.078125q-0.625 -0.390625 -1.484375 -0.390625q-0.921875 0 -1.609375 0.46875q-0.671875 0.453125 -1.046875 1.1875q-0.359375 0.734375 -0.359375 1.578125l0 0.90625q0 1.140625 0.390625 1.953125q0.40625 0.796875 1.125 1.21875q0.71875 0.40625 1.671875 0.40625q0.609375 0 1.109375 -0.171875q0.5 -0.1875 0.859375 -0.53125q0.375 -0.359375 0.5625 -0.890625l1.515625 0.421875q-0.234375 0.765625 -0.796875 1.34375q-0.5625 0.578125 -1.390625 0.90625q-0.828125 0.328125 -1.859375 0.328125zm6.5996704 -0.21875l0 -10.171875l1.5 0l0 1.53125l0.109375 0q0.28125 -0.75 1.0 -1.21875q0.734375 -0.46875 1.65625 -0.46875q0.171875 0 0.421875 0q0.265625 0 0.390625 0.015625l0 1.59375q-0.078125 -0.015625 -0.359375 -0.0625q-0.28125 -0.046875 -0.59375 -0.046875q-0.734375 0 -1.328125 0.3125q-0.578125 0.3125 -0.90625 0.859375q-0.328125 0.53125 -0.328125 1.21875l0 6.4375l-1.5625 0zm14.146332 -7.890625l-1.40625 0.390625q-0.125 -0.34375 -0.390625 -0.671875q-0.25 -0.34375 -0.6875 -0.5625q-0.4375 -0.21875 -1.125 -0.21875q-0.9375 0 -1.5625 0.421875q-0.609375 0.421875 -0.609375 1.078125q0 0.59375 0.421875 0.9375q0.421875 0.328125 1.328125 0.546875l1.515625 0.375q1.359375 0.328125 2.03125 1.015625q0.671875 0.671875 0.671875 1.75q0 0.859375 -0.5 1.5625q-0.5 0.6875 -1.40625 1.09375q-0.890625 0.390625 -2.078125 0.390625q-1.546875 0 -2.578125 -0.671875q-1.015625 -0.6875 -1.28125 -1.984375l1.484375 -0.375q0.203125 0.828125 0.796875 1.234375q0.59375 0.40625 1.5625 0.40625q1.09375 0 1.734375 -0.453125q0.640625 -0.46875 0.640625 -1.125q0 -0.53125 -0.375 -0.890625q-0.359375 -0.375 -1.125 -0.546875l-1.703125 -0.390625q-1.390625 -0.34375 -2.046875 -1.03125q-0.65625 -0.703125 -0.65625 -1.765625q0 -0.859375 0.484375 -1.515625q0.484375 -0.65625 1.328125 -1.03125q0.859375 -0.390625 1.921875 -0.390625q1.515625 0 2.375 0.671875q0.875 0.65625 1.234375 1.75z" fill-rule="nonzero"/><path fill="#000000" fill-opacity="0.0" d="m237.83392 183.7664l113.7323 -0.03149414" fill-rule="evenodd"/><path stroke="#000000" stroke-width="1.0" stroke-linejoin="round" stroke-linecap="butt" d="m237.83392 183.7664l107.73227 -0.029830933" fill-rule="evenodd"/><path fill="#000000" stroke="#000000" stroke-width="1.0" stroke-linecap="butt" d="m345.56665 185.3883l4.537628 -1.6529999l-4.5385437 -1.6504669z" fill-rule="evenodd"/><path fill="#ffffff" d="m2.6535368 229.19948l217.40158 0l17.779526 17.779526l0 17.779541l0 0l-217.40158 0l-17.779526 -17.779541l0 -17.779526z" fill-rule="evenodd"/><path stroke="#58da95" stroke-width="1.0" stroke-linejoin="round" stroke-linecap="butt" d="m2.6535368 229.19948l217.40158 0l17.779526 17.779526l0 17.779541l0 0l-217.40158 0l-17.779526 -17.779541l0 -17.779526z" fill-rule="evenodd"/><path fill="#000000" d="m43.205845 243.72713q-0.125 -1.015625 -0.96875 -1.5625q-0.84375 -0.5625 -2.078125 -0.5625q-0.90625 0 -1.578125 0.296875q-0.671875 0.28125 -1.046875 0.796875q-0.375 0.515625 -0.375 1.15625q0 0.546875 0.265625 0.9375q0.265625 0.390625 0.671875 0.640625q0.40625 0.25 0.859375 0.421875q0.453125 0.15625 0.828125 0.25l1.375 0.375q0.53125 0.140625 1.1875 0.390625q0.65625 0.234375 1.25 0.65625q0.609375 0.421875 1.0 1.078125q0.390625 0.65625 0.390625 1.609375q0 1.109375 -0.578125 2.0q-0.578125 0.875 -1.671875 1.40625q-1.09375 0.515625 -2.65625 0.515625q-1.453125 0 -2.515625 -0.46875q-1.0625 -0.46875 -1.671875 -1.3125q-0.609375 -0.84375 -0.6875 -1.953125l1.6875 0q0.078125 0.765625 0.53125 1.265625q0.453125 0.5 1.140625 0.75q0.703125 0.234375 1.515625 0.234375q0.9375 0 1.6875 -0.296875q0.75 -0.3125 1.1875 -0.859375q0.4375 -0.5625 0.4375 -1.296875q0 -0.6875 -0.375 -1.109375q-0.375 -0.421875 -1.0 -0.6875q-0.609375 -0.265625 -1.328125 -0.46875l-1.671875 -0.46875q-1.59375 -0.453125 -2.515625 -1.296875q-0.921875 -0.859375 -0.921875 -2.234375q0 -1.140625 0.609375 -1.984375q0.625 -0.859375 1.671875 -1.328125q1.046875 -0.46875 2.34375 -0.46875q1.3125 0 2.328125 0.46875q1.03125 0.46875 1.625 1.28125q0.609375 0.796875 0.640625 1.828125l-1.59375 0zm5.273819 13.98436q-0.390625 0 -0.703125 -0.0625q-0.3125 -0.0625 -0.4375 -0.125l0.40625 -1.375q0.5625 0.140625 1.0 0.09375q0.4375 -0.03125 0.78125 -0.37498474q0.34375 -0.34375 0.625 -1.125l0.296875 -0.796875l-3.765625 -10.21875l1.6875 0l2.8125 8.109375l0.109375 0l2.8125 -8.109375l1.6875 0l-4.3125 11.65625q-0.296875 0.78123474 -0.734375 1.2968597q-0.421875 0.53125 -1.0 0.78125q-0.5625 0.25 -1.265625 0.25zm16.591396 -11.70311l-1.4062462 0.390625q-0.125 -0.34375 -0.390625 -0.671875q-0.25 -0.34375 -0.6875 -0.5625q-0.4375 -0.21875 -1.125 -0.21875q-0.9375 0 -1.5625 0.421875q-0.609375 0.421875 -0.609375 1.078125q0 0.59375 0.421875 0.9375q0.421875 0.328125 1.328125 0.546875l1.515625 0.375q1.359375 0.328125 2.0312462 1.015625q0.671875 0.671875 0.671875 1.75q0 0.859375 -0.5 1.5625q-0.5 0.6875 -1.4062462 1.09375q-0.890625 0.390625 -2.078125 0.390625q-1.546875 0 -2.578125 -0.671875q-1.015625 -0.6875 -1.28125 -1.984375l1.484375 -0.375q0.203125 0.828125 0.796875 1.234375q0.59375 0.40625 1.5625 0.40625q1.09375 0 1.734375 -0.453125q0.640625 -0.46875 0.640625 -1.125q0 -0.53125 -0.375 -0.890625q-0.359375 -0.375 -1.125 -0.546875l-1.703125 -0.390625q-1.390625 -0.34375 -2.046875 -1.03125q-0.65625 -0.703125 -0.65625 -1.765625q0 -0.859375 0.484375 -1.515625q0.484375 -0.65625 1.328125 -1.03125q0.859375 -0.390625 1.921875 -0.390625q1.515625 0 2.375 0.671875q0.8749962 0.65625 1.2343712 1.75zm6.9710083 -2.28125l0 1.328125l-5.28125 0l0 -1.328125l5.28125 0zm-3.734375 -2.4375l1.5625 0l0 9.6875q0 0.671875 0.1875 1.0q0.203125 0.328125 0.5 0.4375q0.3125 0.109375 0.65625 0.109375q0.265625 0 0.421875 -0.03125q0.171875 -0.03125 0.265625 -0.046875l0.328125 1.40625q-0.15625 0.046875 -0.453125 0.109375q-0.28125 0.0625 -0.71875 0.0625q-0.65625 0 -1.296875 -0.28125q-0.625 -0.28125 -1.046875 -0.859375q-0.40625 -0.59375 -0.40625 -1.46875l0 -10.125zm10.256241 12.828125q-1.46875 0 -2.546875 -0.65625q-1.0625 -0.65625 -1.640625 -1.828125q-0.5625 -1.171875 -0.5625 -2.75q0 -1.5625 0.5625 -2.75q0.578125 -1.203125 1.609375 -1.875q1.03125 -0.671875 2.40625 -0.671875q0.796875 0 1.578125 0.265625q0.78125 0.265625 1.40625 0.859375q0.640625 0.59375 1.015625 1.578125q0.375 0.96875 0.375 2.390625l0 0.65625l-7.84375 0l0 -1.34375l6.265625 0q0 -0.859375 -0.34375 -1.53125q-0.34375 -0.6875 -0.96875 -1.078125q-0.625 -0.390625 -1.484375 -0.390625q-0.921875 0 -1.609375 0.46875q-0.671875 0.453125 -1.046875 1.1875q-0.359375 0.734375 -0.359375 1.578125l0 0.90625q0 1.140625 0.390625 1.953125q0.40625 0.796875 1.125 1.21875q0.71875 0.40625 1.671875 0.40625q0.609375 0 1.109375 -0.171875q0.5 -0.1875 0.859375 -0.53125q0.375 -0.359375 0.5625 -0.890625l1.515625 0.421875q-0.234375 0.765625 -0.796875 1.34375q-0.5625 0.578125 -1.390625 0.90625q-0.828125 0.328125 -1.859375 0.328125zm6.5996704 -0.21875l0 -10.171875l1.5 0l0 1.578125l0.140625 0q0.3125 -0.8125 1.015625 -1.265625q0.71875 -0.453125 1.703125 -0.453125q1.015625 0 1.6875 0.453125q0.671875 0.453125 1.046875 1.265625l0.109375 0q0.390625 -0.78125 1.171875 -1.25q0.78125 -0.46875 1.875 -0.46875q1.359375 0 2.21875 0.859375q0.875 0.84375 0.875 2.640625l0 6.8125l-1.5625 0l0 -6.8125q0 -1.125 -0.625 -1.609375q-0.609375 -0.484375 -1.4375 -0.484375q-1.078125 0 -1.671875 0.65625q-0.578125 0.640625 -0.578125 1.625l0 6.625l-1.59375 0l0 -6.96875q0 -0.875 -0.5625 -1.40625q-0.5625 -0.53125 -1.453125 -0.53125q-0.609375 0 -1.140625 0.328125q-0.515625 0.328125 -0.84375 0.90625q-0.3125 0.5625 -0.3125 1.3125l0 6.359375l-1.5625 0zm21.668701 0l0 -13.5625l4.59375 0q1.59375 0 2.609375 0.578125q1.015625 0.5625 1.5 1.546875q0.5 0.96875 0.5 2.15625q0 1.203125 -0.5 2.1875q-0.484375 0.984375 -1.5 1.5625q-1.0 0.578125 -2.59375 0.578125l-3.28125 0l0 -1.453125l3.234375 0q1.09375 0 1.75 -0.375q0.671875 -0.390625 0.96875 -1.03125q0.296875 -0.640625 0.296875 -1.46875q0 -0.8125 -0.296875 -1.453125q-0.296875 -0.640625 -0.96875 -1.0q-0.671875 -0.375 -1.78125 -0.375l-2.890625 0l0 12.109375l-1.640625 0zm14.62706 0.234375q-0.96875 0 -1.765625 -0.359375q-0.78125 -0.375 -1.25 -1.0625q-0.453125 -0.703125 -0.453125 -1.703125q0 -0.875 0.34375 -1.421875q0.34375 -0.546875 0.921875 -0.859375q0.578125 -0.3125 1.265625 -0.46875q0.703125 -0.15625 1.421875 -0.25q0.921875 -0.109375 1.5 -0.171875q0.578125 -0.0625 0.84375 -0.21875q0.28125 -0.15625 0.28125 -0.53125l0 -0.046875q0 -0.984375 -0.546875 -1.53125q-0.53125 -0.546875 -1.609375 -0.546875q-1.109375 0 -1.75 0.5q-0.640625 0.484375 -0.890625 1.046875l-1.484375 -0.53125q0.390625 -0.921875 1.046875 -1.4375q0.671875 -0.53125 1.46875 -0.734375q0.796875 -0.21875 1.5625 -0.21875q0.484375 0 1.125 0.125q0.640625 0.109375 1.234375 0.46875q0.609375 0.359375 1.0 1.078125q0.40625 0.71875 0.40625 1.9375l0 6.703125l-1.5625 0l0 -1.375l-0.078125 0q-0.171875 0.328125 -0.546875 0.703125q-0.359375 0.375 -0.984375 0.640625q-0.609375 0.265625 -1.5 0.265625zm0.25 -1.40625q0.921875 0 1.5625 -0.359375q0.640625 -0.359375 0.96875 -0.9375q0.328125 -0.578125 0.328125 -1.21875l0 -1.421875q-0.109375 0.109375 -0.453125 0.21875q-0.328125 0.09375 -0.765625 0.15625q-0.421875 0.0625 -0.828125 0.125q-0.40625 0.046875 -0.65625 0.078125q-0.609375 0.078125 -1.140625 0.265625q-0.53125 0.171875 -0.859375 0.515625q-0.3125 0.34375 -0.3125 0.9375q0 0.8125 0.609375 1.234375q0.609375 0.40625 1.546875 0.40625zm7.2864075 1.171875l0 -10.171875l1.5 0l0 1.53125l0.109375 0q0.28125 -0.75 1.0 -1.21875q0.734375 -0.46875 1.65625 -0.46875q0.171875 0 0.421875 0q0.265625 0 0.390625 0.015625l0 1.59375q-0.078125 -0.015625 -0.359375 -0.0625q-0.28125 -0.046875 -0.59375 -0.046875q-0.734375 0 -1.328125 0.3125q-0.578125 0.3125 -0.90625 0.859375q-0.328125 0.53125 -0.328125 1.21875l0 6.4375l-1.5625 0zm9.927567 0.234375q-0.96875 0 -1.765625 -0.359375q-0.78125 -0.375 -1.25 -1.0625q-0.453125 -0.703125 -0.453125 -1.703125q0 -0.875 0.34375 -1.421875q0.34375 -0.546875 0.921875 -0.859375q0.578125 -0.3125 1.265625 -0.46875q0.703125 -0.15625 1.421875 -0.25q0.921875 -0.109375 1.5 -0.171875q0.578125 -0.0625 0.84375 -0.21875q0.28125 -0.15625 0.28125 -0.53125l0 -0.046875q0 -0.984375 -0.546875 -1.53125q-0.53125 -0.546875 -1.609375 -0.546875q-1.109375 0 -1.75 0.5q-0.640625 0.484375 -0.890625 1.046875l-1.484375 -0.53125q0.390625 -0.921875 1.046875 -1.4375q0.671875 -0.53125 1.46875 -0.734375q0.796875 -0.21875 1.5625 -0.21875q0.484375 0 1.125 0.125q0.640625 0.109375 1.234375 0.46875q0.609375 0.359375 1.0 1.078125q0.40625 0.71875 0.40625 1.9375l0 6.703125l-1.5625 0l0 -1.375l-0.078125 0q-0.171875 0.328125 -0.546875 0.703125q-0.359375 0.375 -0.984375 0.640625q-0.609375 0.265625 -1.5 0.265625zm0.25 -1.40625q0.921875 0 1.5625 -0.359375q0.640625 -0.359375 0.96875 -0.9375q0.328125 -0.578125 0.328125 -1.21875l0 -1.421875q-0.109375 0.109375 -0.453125 0.21875q-0.328125 0.09375 -0.765625 0.15625q-0.421875 0.0625 -0.828125 0.125q-0.40625 0.046875 -0.65625 0.078125q-0.609375 0.078125 -1.140625 0.265625q-0.53125 0.171875 -0.859375 0.515625q-0.3125 0.34375 -0.3125 0.9375q0 0.8125 0.609375 1.234375q0.609375 0.40625 1.546875 0.40625zm7.2864075 1.171875l0 -10.171875l1.5 0l0 1.578125l0.140625 0q0.3125 -0.8125 1.015625 -1.265625q0.71875 -0.453125 1.703125 -0.453125q1.015625 0 1.6875 0.453125q0.671875 0.453125 1.046875 1.265625l0.109375 0q0.390625 -0.78125 1.171875 -1.25q0.78125 -0.46875 1.875 -0.46875q1.359375 0 2.21875 0.859375q0.875 0.84375 0.875 2.640625l0 6.8125l-1.5625 0l0 -6.8125q0 -1.125 -0.625 -1.609375q-0.609375 -0.484375 -1.4375 -0.484375q-1.078125 0 -1.671875 0.65625q-0.578125 0.640625 -0.578125 1.625l0 6.625l-1.59375 0l0 -6.96875q0 -0.875 -0.5625 -1.40625q-0.5625 -0.53125 -1.453125 -0.53125q-0.609375 0 -1.140625 0.328125q-0.515625 0.328125 -0.84375 0.90625q-0.3125 0.5625 -0.3125 1.3125l0 6.359375l-1.5625 0zm20.48407 0.21875q-1.46875 0 -2.546875 -0.65625q-1.0625 -0.65625 -1.640625 -1.828125q-0.5625 -1.171875 -0.5625 -2.75q0 -1.5625 0.5625 -2.75q0.578125 -1.203125 1.609375 -1.875q1.03125 -0.671875 2.40625 -0.671875q0.796875 0 1.578125 0.265625q0.78125 0.265625 1.40625 0.859375q0.640625 0.59375 1.015625 1.578125q0.375 0.96875 0.375 2.390625l0 0.65625l-7.84375 0l0 -1.34375l6.265625 0q0 -0.859375 -0.34375 -1.53125q-0.34375 -0.6875 -0.96875 -1.078125q-0.625 -0.390625 -1.484375 -0.390625q-0.921875 0 -1.609375 0.46875q-0.671875 0.453125 -1.046875 1.1875q-0.359375 0.734375 -0.359375 1.578125l0 0.90625q0 1.140625 0.390625 1.953125q0.40625 0.796875 1.125 1.21875q0.71875 0.40625 1.671875 0.40625q0.609375 0 1.109375 -0.171875q0.5 -0.1875 0.859375 -0.53125q0.375 -0.359375 0.5625 -0.890625l1.515625 0.421875q-0.234375 0.765625 -0.796875 1.34375q-0.5625 0.578125 -1.390625 0.90625q-0.828125 0.328125 -1.859375 0.328125zm11.021545 -10.390625l0 1.328125l-5.28125 0l0 -1.328125l5.28125 0zm-3.734375 -2.4375l1.5625 0l0 9.6875q0 0.671875 0.1875 1.0q0.203125 0.328125 0.5 0.4375q0.3125 0.109375 0.65625 0.109375q0.265625 0 0.421875 -0.03125q0.171875 -0.03125 0.265625 -0.046875l0.328125 1.40625q-0.15625 0.046875 -0.453125 0.109375q-0.28125 0.0625 -0.71875 0.0625q-0.65625 0 -1.296875 -0.28125q-0.625 -0.28125 -1.046875 -0.859375q-0.40625 -0.59375 -0.40625 -1.46875l0 -10.125zm10.256226 12.828125q-1.46875 0 -2.546875 -0.65625q-1.0625 -0.65625 -1.640625 -1.828125q-0.5625 -1.171875 -0.5625 -2.75q0 -1.5625 0.5625 -2.75q0.578125 -1.203125 1.609375 -1.875q1.03125 -0.671875 2.40625 -0.671875q0.796875 0 1.578125 0.265625q0.78125 0.265625 1.40625 0.859375q0.640625 0.59375 1.015625 1.578125q0.375 0.96875 0.375 2.390625l0 0.65625l-7.84375 0l0 -1.34375l6.265625 0q0 -0.859375 -0.34375 -1.53125q-0.34375 -0.6875 -0.96875 -1.078125q-0.625 -0.390625 -1.484375 -0.390625q-0.921875 0 -1.609375 0.46875q-0.671875 0.453125 -1.046875 1.1875q-0.359375 0.734375 -0.359375 1.578125l0 0.90625q0 1.140625 0.390625 1.953125q0.40625 0.796875 1.125 1.21875q0.71875 0.40625 1.671875 0.40625q0.609375 0 1.109375 -0.171875q0.5 -0.1875 0.859375 -0.53125q0.375 -0.359375 0.5625 -0.890625l1.515625 0.421875q-0.234375 0.765625 -0.796875 1.34375q-0.5625 0.578125 -1.390625 0.90625q-0.828125 0.328125 -1.859375 0.328125zm6.5996704 -0.21875l0 -10.171875l1.5 0l0 1.53125l0.109375 0q0.28125 -0.75 1.0 -1.21875q0.734375 -0.46875 1.65625 -0.46875q0.171875 0 0.421875 0q0.265625 0 0.390625 0.015625l0 1.59375q-0.078125 -0.015625 -0.359375 -0.0625q-0.28125 -0.046875 -0.59375 -0.046875q-0.734375 0 -1.328125 0.3125q-0.578125 0.3125 -0.90625 0.859375q-0.328125 0.53125 -0.328125 1.21875l0 6.4375l-1.5625 0zm14.146332 -7.890625l-1.40625 0.390625q-0.125 -0.34375 -0.390625 -0.671875q-0.25 -0.34375 -0.6875 -0.5625q-0.4375 -0.21875 -1.125 -0.21875q-0.9375 0 -1.5625 0.421875q-0.609375 0.421875 -0.609375 1.078125q0 0.59375 0.421875 0.9375q0.421875 0.328125 1.328125 0.546875l1.515625 0.375q1.359375 0.328125 2.03125 1.015625q0.671875 0.671875 0.671875 1.75q0 0.859375 -0.5 1.5625q-0.5 0.6875 -1.40625 1.09375q-0.890625 0.390625 -2.078125 0.390625q-1.546875 0 -2.578125 -0.671875q-1.015625 -0.6875 -1.28125 -1.984375l1.484375 -0.375q0.203125 0.828125 0.796875 1.234375q0.59375 0.40625 1.5625 0.40625q1.09375 0 1.734375 -0.453125q0.640625 -0.46875 0.640625 -1.125q0 -0.53125 -0.375 -0.890625q-0.359375 -0.375 -1.125 -0.546875l-1.703125 -0.390625q-1.390625 -0.34375 -2.046875 -1.03125q-0.65625 -0.703125 -0.65625 -1.765625q0 -0.859375 0.484375 -1.515625q0.484375 -0.65625 1.328125 -1.03125q0.859375 -0.390625 1.921875 -0.390625q1.515625 0 2.375 0.671875q0.875 0.65625 1.234375 1.75z" fill-rule="nonzero"/><path fill="#ffffff" d="m402.05777 38.472l118.77371 0l0 37.049904c-59.383636 0 -59.383636 14.254929 -118.77371 7.1274643zm9.785492 0l0 -4.8032913l117.962524 0l0 37.282326c-4.4839478 0 -8.974304 0.25823975 -8.974304 0.25823975l0 -32.737274zm9.197876 -4.8032913l0 -4.6870823l118.9845 0l0 37.166115c-5.1099243 0 -10.219849 0.19367981 -10.219849 0.19367981l0 -32.672714z" fill-rule="evenodd"/><path fill="#000000" fill-opacity="0.0" d="m402.05777 38.472l118.77371 0l0 37.049904c-59.383636 0 -59.383636 14.254929 -118.77371 7.1274643zm9.785492 0l0 -4.8032913l117.962524 0l0 37.282326c-4.4839478 0 -8.974304 0.25823975 -8.974304 0.25823975m-99.790344 -37.540565l0 -4.6870823l118.9845 0l0 37.166115c-5.1099243 0 -10.219849 0.19367981 -10.219849 0.19367981" fill-rule="evenodd"/><path fill="#000000" fill-opacity="0.0" d="m402.05777 82.64937c59.390076 7.1274643 59.390076 -7.1274643 118.77371 -7.1274643l0 -4.3126297c0 0 4.4903564 -0.25823975 8.974304 -0.25823975l0 -4.6096115c0 0 5.1099243 -0.19367981 10.219849 -0.19367981l0 -37.166115l-118.9845 0l0 4.6870823l-9.197876 0l0 4.8032913l-9.785492 0z" fill-rule="evenodd"/><path stroke="#ff9900" stroke-width="1.0" stroke-linejoin="round" stroke-linecap="butt" d="m402.05777 38.472l118.77371 0l0 37.049904c-59.383636 0 -59.383636 14.254929 -118.77371 7.1274643zm9.785492 0l0 -4.8032913l117.962524 0l0 37.282326c-4.4839478 0 -8.974304 0.25823975 -8.974304 0.25823975m-99.790344 -37.540565l0 -4.6870823l118.9845 0l0 37.166115c-5.1099243 0 -10.219849 0.19367981 -10.219849 0.19367981" fill-rule="evenodd"/><path fill="#000000" d="m420.76657 65.51694q-0.90625 0 -1.609375 -0.453125q-0.6875 -0.46875 -1.078125 -1.3125038q-0.390625 -0.859375 -0.390625 -2.0q0 -1.15625 0.390625 -2.0q0.390625 -0.84375 1.09375 -1.296875q0.703125 -0.453125 1.609375 -0.453125q0.71875 0 1.125 0.234375q0.421875 0.234375 0.640625 0.53125q0.21875 0.296875 0.34375 0.484375l0.09375 0l0 -3.578125l1.109375 0l0 9.687504l-1.078125 0l0 -1.109375l-0.125 0q-0.125 0.1875 -0.359375 0.5q-0.21875 0.296875 -0.640625 0.53125q-0.421875 0.234375 -1.125 0.234375zm0.15625 -1.015625q0.671875 0 1.125 -0.34375q0.46875 -0.3593788 0.703125 -0.9843788q0.25 -0.625 0.25 -1.453125q0 -0.8125 -0.234375 -1.421875q-0.234375 -0.609375 -0.703125 -0.953125q-0.46875 -0.34375 -1.140625 -0.34375q-0.71875 0 -1.1875 0.359375q-0.46875 0.359375 -0.703125 0.984375q-0.234375 0.609375 -0.234375 1.375q0 0.78125 0.234375 1.421875q0.25 0.625 0.71875 1.0000038q0.46875 0.359375 1.171875 0.359375zm8.4296875 1.015625q-1.0625 0 -1.828125 -0.46875q-0.75 -0.46875 -1.15625 -1.3125038q-0.40625 -0.84375 -0.40625 -1.953125q0 -1.109375 0.40625 -1.96875q0.40625 -0.859375 1.140625 -1.328125q0.734375 -0.484375 1.71875 -0.484375q0.578125 0 1.125 0.1875q0.546875 0.1875 1.0 0.609375q0.46875 0.421875 0.734375 1.125q0.265625 0.6875 0.265625 1.703125l0 0.484375l-5.59375 0l0 -0.96875l4.453125 0q0 -0.625 -0.25 -1.09375q-0.234375 -0.484375 -0.6875 -0.765625q-0.4375 -0.28125 -1.046875 -0.28125q-0.65625 0 -1.15625 0.328125q-0.484375 0.328125 -0.75 0.859375q-0.25 0.515625 -0.25 1.125l0 0.640625q0 0.828125 0.28125 1.40625q0.296875 0.5625 0.796875 0.8593788q0.515625 0.28125 1.203125 0.28125q0.4375 0 0.78125 -0.125q0.359375 -0.125 0.625 -0.375q0.265625 -0.2500038 0.40625 -0.6250038l1.078125 0.296875q-0.171875 0.5468788 -0.578125 0.9687538q-0.40625 0.40625 -1.0 0.640625q-0.578125 0.234375 -1.3125 0.234375zm4.699768 2.5625l0 -9.984379l1.078125 0l0 1.15625l0.140625 0q0.125 -0.1875 0.34375 -0.484375q0.21875 -0.296875 0.625 -0.53125q0.421875 -0.234375 1.125 -0.234375q0.921875 0 1.625 0.453125q0.703125 0.453125 1.09375 1.296875q0.390625 0.84375 0.390625 2.0q0 1.140625 -0.390625 2.0q-0.390625 0.8437538 -1.09375 1.3125038q-0.6875 0.453125 -1.59375 0.453125q-0.703125 0 -1.125 -0.234375q-0.421875 -0.234375 -0.65625 -0.53125q-0.21875 -0.3125 -0.34375 -0.5l-0.09375 0l0 3.828125l-1.125 0zm1.109375 -6.359379q0 0.828125 0.234375 1.453125q0.25 0.625 0.703125 0.9843788q0.46875 0.34375 1.140625 0.34375q0.703125 0 1.171875 -0.359375q0.46875 -0.3750038 0.703125 -1.0000038q0.25 -0.640625 0.25 -1.421875q0 -0.765625 -0.234375 -1.375q-0.234375 -0.625 -0.71875 -0.984375q-0.46875 -0.359375 -1.171875 -0.359375q-0.6875 0 -1.15625 0.34375q-0.453125 0.34375 -0.6875 0.953125q-0.234375 0.609375 -0.234375 1.421875zm10.075104 3.7968788q-1.0625 0 -1.828125 -0.46875q-0.75 -0.46875 -1.15625 -1.3125038q-0.40625 -0.84375 -0.40625 -1.953125q0 -1.109375 0.40625 -1.96875q0.40625 -0.859375 1.140625 -1.328125q0.734375 -0.484375 1.71875 -0.484375q0.578125 0 1.125 0.1875q0.546875 0.1875 1.0 0.609375q0.46875 0.421875 0.734375 1.125q0.265625 0.6875 0.265625 1.703125l0 0.484375l-5.59375 0l0 -0.96875l4.453125 0q0 -0.625 -0.25 -1.09375q-0.234375 -0.484375 -0.6875 -0.765625q-0.4375 -0.28125 -1.046875 -0.28125q-0.65625 0 -1.15625 0.328125q-0.484375 0.328125 -0.75 0.859375q-0.25 0.515625 -0.25 1.125l0 0.640625q0 0.828125 0.28125 1.40625q0.296875 0.5625 0.796875 0.8593788q0.515625 0.28125 1.203125 0.28125q0.4375 0 0.78125 -0.125q0.359375 -0.125 0.625 -0.375q0.265625 -0.2500038 0.40625 -0.6250038l1.078125 0.296875q-0.171875 0.5468788 -0.578125 0.9687538q-0.40625 0.40625 -1.0 0.640625q-0.578125 0.234375 -1.3125 0.234375zm5.824768 -4.531254l0 4.375004l-1.125 0l0 -7.265629l1.078125 0l0 1.125l0.109375 0q0.25 -0.546875 0.765625 -0.875q0.53125 -0.34375 1.34375 -0.34375q0.75 0 1.296875 0.296875q0.546875 0.296875 0.859375 0.90625q0.3125 0.609375 0.3125 1.53125l0 4.625004l-1.125 0l0 -4.546879q0 -0.859375 -0.453125 -1.328125q-0.4375 -0.484375 -1.203125 -0.484375q-0.546875 0 -0.96875 0.234375q-0.40625 0.234375 -0.65625 0.6875q-0.234375 0.4375 -0.234375 1.0625zm9.42511 4.531254q-0.90625 0 -1.609375 -0.453125q-0.6875 -0.46875 -1.078125 -1.3125038q-0.390625 -0.859375 -0.390625 -2.0q0 -1.15625 0.390625 -2.0q0.390625 -0.84375 1.09375 -1.296875q0.703125 -0.453125 1.609375 -0.453125q0.71875 0 1.125 0.234375q0.421875 0.234375 0.640625 0.53125q0.21875 0.296875 0.34375 0.484375l0.09375 0l0 -3.578125l1.109375 0l0 9.687504l-1.078125 0l0 -1.109375l-0.125 0q-0.125 0.1875 -0.359375 0.5q-0.21875 0.296875 -0.640625 0.53125q-0.421875 0.234375 -1.125 0.234375zm0.15625 -1.015625q0.671875 0 1.125 -0.34375q0.46875 -0.3593788 0.703125 -0.9843788q0.25 -0.625 0.25 -1.453125q0 -0.8125 -0.234375 -1.421875q-0.234375 -0.609375 -0.703125 -0.953125q-0.46875 -0.34375 -1.140625 -0.34375q-0.71875 0 -1.1875 0.359375q-0.46875 0.359375 -0.703125 0.984375q-0.234375 0.609375 -0.234375 1.375q0 0.78125 0.234375 1.421875q0.25 0.625 0.71875 1.0000038q0.46875 0.359375 1.171875 0.359375zm8.429718 1.015625q-1.0625 0 -1.828125 -0.46875q-0.75 -0.46875 -1.15625 -1.3125038q-0.40628052 -0.84375 -0.40628052 -1.953125q0 -1.109375 0.40628052 -1.96875q0.40625 -0.859375 1.140625 -1.328125q0.734375 -0.484375 1.71875 -0.484375q0.578125 0 1.125 0.1875q0.546875 0.1875 1.0 0.609375q0.46875 0.421875 0.734375 1.125q0.265625 0.6875 0.265625 1.703125l0 0.484375l-5.59375 0l0 -0.96875l4.453125 0q0 -0.625 -0.25 -1.09375q-0.234375 -0.484375 -0.6875 -0.765625q-0.4375 -0.28125 -1.046875 -0.28125q-0.65625 0 -1.15625 0.328125q-0.484375 0.328125 -0.75 0.859375q-0.25 0.515625 -0.25 1.125l0 0.640625q0 0.828125 0.28125 1.40625q0.296875 0.5625 0.796875 0.8593788q0.515625 0.28125 1.203125 0.28125q0.4375 0 0.78125 -0.125q0.359375 -0.125 0.625 -0.375q0.265625 -0.2500038 0.40625 -0.6250038l1.078125 0.296875q-0.171875 0.5468788 -0.578125 0.9687538q-0.40625 0.40625 -1.0 0.640625q-0.578125 0.234375 -1.3125 0.234375zm5.824768 -4.531254l0 4.375004l-1.125 0l0 -7.265629l1.078125 0l0 1.125l0.109375 0q0.25 -0.546875 0.765625 -0.875q0.53125 -0.34375 1.34375 -0.34375q0.75 0 1.296875 0.296875q0.546875 0.296875 0.859375 0.90625q0.3125 0.609375 0.3125 1.53125l0 4.625004l-1.125 0l0 -4.546879q0 -0.859375 -0.453125 -1.328125q-0.4375 -0.484375 -1.203125 -0.484375q-0.546875 0 -0.96875 0.234375q-0.40625 0.234375 -0.65625 0.6875q-0.234375 0.4375 -0.234375 1.0625zm9.628235 4.531254q-1.015625 0 -1.75 -0.484375q-0.734375 -0.484375 -1.140625 -1.3281288q-0.390625 -0.859375 -0.390625 -1.9375q0 -1.109375 0.40625 -1.953125q0.40625 -0.859375 1.140625 -1.328125q0.734375 -0.484375 1.71875 -0.484375q0.765625 0 1.375 0.28125q0.625 0.28125 1.015625 0.796875q0.390625 0.5 0.484375 1.1875l-1.109375 0q-0.125 -0.5 -0.5625 -0.875q-0.4375 -0.390625 -1.1875 -0.390625q-0.640625 0 -1.140625 0.34375q-0.484375 0.328125 -0.765625 0.953125q-0.265625 0.609375 -0.265625 1.421875q0 0.84375 0.265625 1.46875q0.265625 0.625 0.75 0.9687538q0.5 0.34375 1.15625 0.34375q0.4375 0 0.796875 -0.140625q0.359375 -0.15625 0.59375 -0.4375038q0.25 -0.28125 0.359375 -0.6875l1.109375 0q-0.09375 0.640625 -0.46875 1.1562538q-0.359375 0.515625 -0.96875 0.828125q-0.609375 0.296875 -1.421875 0.296875zm4.4873047 -0.15625l0 -7.265629l1.125 0l0 7.265629l-1.125 0zm0.578125 -8.484379q-0.328125 0 -0.5625 -0.21875q-0.234375 -0.21875 -0.234375 -0.53125q0 -0.3125 0.234375 -0.53125q0.234375 -0.234375 0.5625 -0.234375q0.328125 0 0.5625 0.234375q0.234375 0.21875 0.234375 0.53125q0 0.3125 -0.234375 0.53125q-0.234375 0.21875 -0.5625 0.21875zm5.646057 8.640629q-1.0625 0 -1.828125 -0.46875q-0.75 -0.46875 -1.15625 -1.3125038q-0.40625 -0.84375 -0.40625 -1.953125q0 -1.109375 0.40625 -1.96875q0.40625 -0.859375 1.140625 -1.328125q0.734375 -0.484375 1.71875 -0.484375q0.578125 0 1.125 0.1875q0.546875 0.1875 1.0 0.609375q0.46875 0.421875 0.734375 1.125q0.265625 0.6875 0.265625 1.703125l0 0.484375l-5.59375 0l0 -0.96875l4.453125 0q0 -0.625 -0.25 -1.09375q-0.234375 -0.484375 -0.6875 -0.765625q-0.4375 -0.28125 -1.046875 -0.28125q-0.65625 0 -1.15625 0.328125q-0.484375 0.328125 -0.75 0.859375q-0.25 0.515625 -0.25 1.125l0 0.640625q0 0.828125 0.28125 1.40625q0.296875 0.5625 0.796875 0.8593788q0.515625 0.28125 1.203125 0.28125q0.4375 0 0.78125 -0.125q0.359375 -0.125 0.625 -0.375q0.265625 -0.2500038 0.40625 -0.6250038l1.078125 0.296875q-0.171875 0.5468788 -0.578125 0.9687538q-0.40625 0.40625 -1.0 0.640625q-0.578125 0.234375 -1.3125 0.234375zm9.856018 -5.796879l-1.0 0.28125q-0.09375 -0.25 -0.28125 -0.484375q-0.1875 -0.25 -0.5 -0.40625q-0.3125 -0.15625 -0.796875 -0.15625q-0.65625 0 -1.109375 0.3125q-0.4375 0.3125 -0.4375 0.78125q0 0.40625 0.296875 0.65625q0.3125 0.234375 0.953125 0.390625l1.078125 0.265625q0.96875 0.234375 1.4375 0.734375q0.484375 0.484375 0.484375 1.234375q0 0.625 -0.359375 1.1250038q-0.34375 0.484375 -0.984375 0.78125q-0.640625 0.28125 -1.484375 0.28125q-1.109375 0 -1.84375 -0.484375q-0.734375 -0.484375 -0.921875 -1.4062538l1.0625 -0.265625q0.140625 0.578125 0.5625 0.8750038q0.4375 0.296875 1.125 0.296875q0.78125 0 1.234375 -0.328125q0.46875 -0.3437538 0.46875 -0.8125038q0 -0.375 -0.265625 -0.625q-0.265625 -0.265625 -0.8125 -0.390625l-1.21875 -0.296875q-1.0 -0.234375 -1.46875 -0.734375q-0.46875 -0.5 -0.46875 -1.25q0 -0.609375 0.34375 -1.078125q0.359375 -0.484375 0.953125 -0.75q0.609375 -0.265625 1.375 -0.265625q1.078125 0 1.6875 0.46875q0.625 0.46875 0.890625 1.25z" fill-rule="nonzero"/><path fill="#000000" fill-opacity="0.0" d="m323.4962 56.871708l78.55118 0" fill-rule="evenodd"/><path stroke="#000000" stroke-width="1.0" stroke-linejoin="round" stroke-linecap="butt" stroke-dasharray="1.0,3.0" d="m323.49622 56.871704l72.55115 0" fill-rule="evenodd"/><path stroke="#000000" stroke-width="1.0" stroke-linecap="butt" d="m396.04736 58.523438l4.5381165 -1.6517334l-4.5381165 -1.6517334z" fill-rule="evenodd"/><path fill="#000000" fill-opacity="0.0" d="m540.02563 56.871708l25.000244 0l0 -52.890156l-84.49631 0l0 24.984642" fill-rule="evenodd"/><path stroke="#000000" stroke-width="1.0" stroke-linejoin="round" stroke-linecap="butt" stroke-dasharray="1.0,3.0" d="m540.02563 56.871704l25.000244 0l0 -52.890152l-84.49631 0l0 18.984642" fill-rule="evenodd"/><path stroke="#000000" stroke-width="1.0" stroke-linecap="butt" d="m478.87784 22.966194l1.6517334 4.5380974l1.6517334 -4.5380974z" fill-rule="evenodd"/><path fill="#000000" fill-opacity="0.0" d="m273.8297 82.64937l0 77.18295l76.59842 0l0 0.013900757" fill-rule="evenodd"/><path stroke="#000000" stroke-width="1.0" stroke-linejoin="round" stroke-linecap="butt" d="m273.8297 82.64937l0 77.18295l70.59839 0" fill-rule="evenodd"/><path fill="#000000" stroke="#000000" stroke-width="1.0" stroke-linecap="butt" d="m344.4243 161.48405l4.541931 -1.6412201l-4.5342712 -1.6622314z" fill-rule="evenodd"/><path fill="#ffffff" d="m658.7693 165.34077l93.302 0l0 37.049896c-46.648438 0 -46.648438 14.254929 -93.302 7.127472zm7.6869507 0l0 -4.803299l92.664795 0l0 37.28232c-3.5223389 0 -7.0497437 0.25823975 -7.0497437 0.25823975l0 -32.73726zm7.225342 -4.803299l0 -4.687088l93.46759 0l0 37.166122c-4.014099 0 -8.028137 0.19367981 -8.028137 0.19367981l0 -32.672714z" fill-rule="evenodd"/><path fill="#000000" fill-opacity="0.0" d="m658.7693 165.34077l93.302 0l0 37.049896c-46.648438 0 -46.648438 14.254929 -93.302 7.127472zm7.6869507 0l0 -4.803299l92.664795 0l0 37.28232c-3.5223389 0 -7.0497437 0.25823975 -7.0497437 0.25823975m-78.38971 -37.540558l0 -4.687088l93.46759 0l0 37.166122c-4.014099 0 -8.028137 0.19367981 -8.028137 0.19367981" fill-rule="evenodd"/><path fill="#000000" fill-opacity="0.0" d="m658.7693 209.51814c46.653564 7.1274567 46.653564 -7.127472 93.302 -7.127472l0 -4.3126373c0 0 3.5274048 -0.25823975 7.0497437 -0.25823975l0 -4.609604c0 0 4.014038 -0.19367981 8.028137 -0.19367981l0 -37.166122l-93.46759 0l0 4.687088l-7.225342 0l0 4.803299l-7.6869507 0z" fill-rule="evenodd"/><path stroke="#ff9900" stroke-width="1.0" stroke-linejoin="round" stroke-linecap="butt" d="m658.7693 165.34077l93.302 0l0 37.049896c-46.648438 0 -46.648438 14.254929 -93.302 7.127472zm7.6869507 0l0 -4.803299l92.664795 0l0 37.28232c-3.5223389 0 -7.0497437 0.25823975 -7.0497437 0.25823975m-78.38971 -37.540558l0 -4.687088l93.46759 0l0 37.166122c-4.014099 0 -8.028137 0.19367981 -8.028137 0.19367981" fill-rule="evenodd"/><path fill="#000000" d="m685.34503 184.3857q-0.984375 0 -1.71875 -0.46875q-0.734375 -0.46875 -1.15625 -1.3125q-0.40625 -0.84375 -0.40625 -1.96875q0 -1.140625 0.40625 -1.984375q0.421875 -0.84375 1.15625 -1.3125q0.734375 -0.46875 1.71875 -0.46875q0.984375 0 1.71875 0.46875q0.75 0.46875 1.15625 1.3125q0.421875 0.84375 0.421875 1.984375q0 1.125 -0.421875 1.96875q-0.40625 0.84375 -1.15625 1.3125q-0.734375 0.46875 -1.71875 0.46875zm0 -1.015625q0.75 0 1.234375 -0.375q0.484375 -0.390625 0.71875 -1.015625q0.234375 -0.625 0.234375 -1.34375q0 -0.734375 -0.234375 -1.359375q-0.234375 -0.625 -0.71875 -1.015625q-0.484375 -0.390625 -1.234375 -0.390625q-0.734375 0 -1.21875 0.390625q-0.484375 0.390625 -0.71875 1.015625q-0.234375 0.625 -0.234375 1.359375q0 0.71875 0.234375 1.34375q0.234375 0.625 0.71875 1.015625q0.484375 0.375 1.21875 0.375zm9.592163 -2.109375l0 -4.296875l1.109375 0l0 7.265625l-1.109375 0l0 -1.234375l-0.078125 0q-0.265625 0.5625 -0.8125 0.953125q-0.53125 0.375 -1.34375 0.375q-0.6875 0 -1.21875 -0.296875q-0.53125 -0.296875 -0.84375 -0.90625q-0.296875 -0.609375 -0.296875 -1.546875l0 -4.609375l1.125 0l0 4.546875q0 0.78125 0.4375 1.265625q0.453125 0.46875 1.15625 0.46875q0.40625 0 0.84375 -0.203125q0.4375 -0.21875 0.734375 -0.65625q0.296875 -0.453125 0.296875 -1.125zm6.321472 -4.296875l0 0.9375l-3.765625 0l0 -0.9375l3.765625 0zm-2.671875 -1.75l1.109375 0l0 6.9375q0 0.46875 0.140625 0.703125q0.140625 0.234375 0.359375 0.3125q0.21875 0.078125 0.46875 0.078125q0.1875 0 0.296875 -0.015625q0.125 -0.03125 0.203125 -0.046875l0.21875 1.015625q-0.109375 0.03125 -0.3125 0.078125q-0.203125 0.046875 -0.515625 0.046875q-0.46875 0 -0.921875 -0.203125q-0.453125 -0.203125 -0.75 -0.609375q-0.296875 -0.421875 -0.296875 -1.0625l0 -7.234375zm4.3466797 11.734375l0 -9.984375l1.078125 0l0 1.15625l0.140625 0q0.125 -0.1875 0.34375 -0.484375q0.21875 -0.296875 0.625 -0.53125q0.421875 -0.234375 1.125 -0.234375q0.921875 0 1.625 0.453125q0.703125 0.453125 1.09375 1.296875q0.390625 0.84375 0.390625 2.0q0 1.140625 -0.390625 2.0q-0.390625 0.84375 -1.09375 1.3125q-0.6875 0.453125 -1.59375 0.453125q-0.703125 0 -1.125 -0.234375q-0.421875 -0.234375 -0.65625 -0.53125q-0.21875 -0.3125 -0.34375 -0.5l-0.09375 0l0 3.828125l-1.125 0zm1.109375 -6.359375q0 0.828125 0.234375 1.453125q0.25 0.625 0.703125 0.984375q0.46875 0.34375 1.140625 0.34375q0.703125 0 1.171875 -0.359375q0.46875 -0.375 0.703125 -1.0q0.25 -0.640625 0.25 -1.421875q0 -0.765625 -0.234375 -1.375q-0.234375 -0.625 -0.71875 -0.984375q-0.46875 -0.359375 -1.171875 -0.359375q-0.6875 0 -1.15625 0.34375q-0.453125 0.34375 -0.6875 0.953125q-0.234375 0.609375 -0.234375 1.421875zm11.606384 0.671875l0 -4.296875l1.109375 0l0 7.265625l-1.109375 0l0 -1.234375l-0.078125 0q-0.265625 0.5625 -0.8125 0.953125q-0.53125 0.375 -1.34375 0.375q-0.6875 0 -1.21875 -0.296875q-0.53125 -0.296875 -0.84375 -0.90625q-0.296875 -0.609375 -0.296875 -1.546875l0 -4.609375l1.125 0l0 4.546875q0 0.78125 0.4375 1.265625q0.453125 0.46875 1.15625 0.46875q0.40625 0 0.84375 -0.203125q0.4375 -0.21875 0.734375 -0.65625q0.296875 -0.453125 0.296875 -1.125zm6.321411 -4.296875l0 0.9375l-3.765625 0l0 -0.9375l3.765625 0zm-2.671875 -1.75l1.109375 0l0 6.9375q0 0.46875 0.140625 0.703125q0.140625 0.234375 0.359375 0.3125q0.21875 0.078125 0.46875 0.078125q0.1875 0 0.296875 -0.015625q0.125 -0.03125 0.203125 -0.046875l0.21875 1.015625q-0.109375 0.03125 -0.3125 0.078125q-0.203125 0.046875 -0.515625 0.046875q-0.46875 0 -0.921875 -0.203125q-0.453125 -0.203125 -0.75 -0.609375q-0.296875 -0.421875 -0.296875 -1.0625l0 -7.234375zm9.370361 3.375l-1.0 0.28125q-0.09375 -0.25 -0.28125 -0.484375q-0.1875 -0.25 -0.5 -0.40625q-0.3125 -0.15625 -0.796875 -0.15625q-0.65625 0 -1.109375 0.3125q-0.4375 0.3125 -0.4375 0.78125q0 0.40625 0.296875 0.65625q0.3125 0.234375 0.953125 0.390625l1.078125 0.265625q0.96875 0.234375 1.4375 0.734375q0.484375 0.484375 0.484375 1.234375q0 0.625 -0.359375 1.125q-0.34375 0.484375 -0.984375 0.78125q-0.640625 0.28125 -1.484375 0.28125q-1.109375 0 -1.84375 -0.484375q-0.734375 -0.484375 -0.921875 -1.40625l1.0625 -0.265625q0.140625 0.578125 0.5625 0.875q0.4375 0.296875 1.125 0.296875q0.78125 0 1.234375 -0.328125q0.46875 -0.34375 0.46875 -0.8125q0 -0.375 -0.265625 -0.625q-0.265625 -0.265625 -0.8125 -0.390625l-1.21875 -0.296875q-1.0 -0.234375 -1.46875 -0.734375q-0.46875 -0.5 -0.46875 -1.25q0 -0.609375 0.34375 -1.078125q0.359375 -0.484375 0.953125 -0.75q0.609375 -0.265625 1.375 -0.265625q1.078125 0 1.6875 0.46875q0.625 0.46875 0.890625 1.25z" fill-rule="nonzero"/><path fill="#000000" d="m674.0255 196.1357q0 -1.78125 0.46875 -3.28125q0.46875 -1.515625 1.328125 -2.765625l0.984375 0q-0.34375 0.46875 -0.640625 1.15625q-0.296875 0.671875 -0.515625 1.5q-0.21875 0.8125 -0.34375 1.6875q-0.125 0.859375 -0.125 1.703125q0 1.125 0.21875 2.296875q0.21875 1.15625 0.578125 2.140625q0.375 1.0 0.828125 1.625l-0.984375 0q-0.859375 -1.265625 -1.328125 -2.765625q-0.46875 -1.5 -0.46875 -3.296875z" fill-rule="nonzero"/><path fill="#000000" d="m681.5095 200.3857q-1.078125 0 -1.859375 -0.359375q-0.78125 -0.375 -1.328125 -0.984375l0.71875 -0.625q0.5 0.515625 1.078125 0.796875q0.59375 0.28125 1.421875 0.28125q0.796875 0 1.3125 -0.28125q0.515625 -0.296875 0.515625 -0.90625q0 -0.265625 -0.109375 -0.4375q-0.09375 -0.1875 -0.265625 -0.296875q-0.171875 -0.109375 -0.390625 -0.15625q-0.21875 -0.0625 -0.453125 -0.109375l-1.078125 -0.15625q-0.359375 -0.046875 -0.78125 -0.140625q-0.421875 -0.09375 -0.765625 -0.296875q-0.34375 -0.21875 -0.578125 -0.5625q-0.234375 -0.34375 -0.234375 -0.90625q0 -0.515625 0.203125 -0.890625q0.203125 -0.390625 0.578125 -0.640625q0.375 -0.265625 0.875 -0.390625q0.515625 -0.125 1.109375 -0.125q0.9375 0 1.625 0.296875q0.6875 0.28125 1.171875 0.796875l-0.6875 0.65625q-0.125 -0.140625 -0.3125 -0.296875q-0.171875 -0.15625 -0.4375 -0.28125q-0.25 -0.125 -0.59375 -0.203125q-0.34375 -0.078125 -0.796875 -0.078125q-0.8125 0 -1.25 0.28125q-0.4375 0.28125 -0.4375 0.8125q0 0.265625 0.09375 0.453125q0.109375 0.171875 0.28125 0.28125q0.171875 0.09375 0.390625 0.15625q0.21875 0.0625 0.453125 0.109375l1.078125 0.15625q0.375 0.046875 0.78125 0.140625q0.421875 0.09375 0.765625 0.3125q0.34375 0.203125 0.578125 0.546875q0.234375 0.34375 0.234375 0.90625q0 1.03125 -0.796875 1.59375q-0.796875 0.546875 -2.109375 0.546875zm9.543701 -1.28125l-0.046875 0q-0.109375 0.265625 -0.28125 0.5q-0.15625 0.21875 -0.390625 0.40625q-0.234375 0.171875 -0.5625 0.265625q-0.3125 0.109375 -0.734375 0.109375q-1.078125 0 -1.734375 -0.6875q-0.65625 -0.6875 -0.65625 -1.9375l0 -4.40625l1.078125 0l0 4.21875q0 0.953125 0.40625 1.421875q0.421875 0.453125 1.21875 0.453125q0.3125 0 0.609375 -0.078125q0.3125 -0.09375 0.546875 -0.25q0.25 -0.15625 0.390625 -0.40625q0.15625 -0.25 0.15625 -0.59375l0 -4.765625l1.0625 0l0 6.875l-1.0625 0l0 -1.125zm3.6374512 -8.734375l1.0625 0l0 4.109375l0.0625 0q0.65625 -1.28125 2.109375 -1.28125q1.265625 0 1.984375 0.953125q0.71875 0.9375 0.71875 2.640625q0 1.703125 -0.71875 2.65625q-0.71875 0.9375 -1.984375 0.9375q-1.453125 0 -2.109375 -1.28125l-0.0625 0l0 1.125l-1.0625 0l0 -9.859375zm2.828125 9.078125q0.9375 0 1.4375 -0.5625q0.515625 -0.578125 0.515625 -1.515625l0 -1.171875q0 -0.921875 -0.515625 -1.484375q-0.5 -0.578125 -1.4375 -0.578125q-0.359375 0 -0.6875 0.09375q-0.3125 0.09375 -0.5625 0.28125q-0.234375 0.171875 -0.375 0.4375q-0.140625 0.25 -0.140625 0.609375l0 2.46875q0 0.34375 0.140625 0.609375q0.140625 0.265625 0.375 0.453125q0.25 0.171875 0.5625 0.265625q0.328125 0.09375 0.6875 0.09375zm5.262451 2.546875l3.328125 0l0 -7.734375l-3.453125 0l0 -0.90625l4.515625 0l0 7.96875q0 0.6875 -0.359375 1.125q-0.359375 0.453125 -1.15625 0.453125l-2.875 0l0 -0.90625zm3.859375 -10.15625q-0.453125 0 -0.640625 -0.1875q-0.1875 -0.203125 -0.1875 -0.5l0 -0.21875q0 -0.28125 0.1875 -0.46875q0.1875 -0.203125 0.640625 -0.203125q0.46875 0 0.65625 0.203125q0.1875 0.1875 0.1875 0.46875l0 0.21875q0 0.296875 -0.1875 0.5q-0.1875 0.1875 -0.65625 0.1875zm6.903137 8.546875q-0.75 0 -1.34375 -0.25q-0.59375 -0.25 -1.015625 -0.71875q-0.421875 -0.484375 -0.65625 -1.140625q-0.21875 -0.65625 -0.21875 -1.46875q0 -0.828125 0.234375 -1.484375q0.234375 -0.671875 0.640625 -1.140625q0.421875 -0.484375 1.0 -0.734375q0.578125 -0.25 1.28125 -0.25q0.703125 0 1.265625 0.25q0.5625 0.25 0.953125 0.703125q0.40625 0.4375 0.625 1.0625q0.21875 0.609375 0.21875 1.34375l0 0.5l-5.09375 0l0 0.3125q0 0.453125 0.140625 0.84375q0.15625 0.390625 0.421875 0.671875q0.28125 0.28125 0.671875 0.4375q0.390625 0.140625 0.875 0.140625q0.6875 0 1.1875 -0.3125q0.515625 -0.328125 0.78125 -0.875l0.78125 0.53125q-0.296875 0.6875 -1.015625 1.140625q-0.71875 0.4375 -1.734375 0.4375zm-0.078125 -6.3125q-0.4375 0 -0.8125 0.15625q-0.375 0.15625 -0.65625 0.4375q-0.265625 0.28125 -0.421875 0.671875q-0.140625 0.375 -0.140625 0.828125l0 0.09375l3.9375 0l0 -0.15625q0 -0.453125 -0.140625 -0.8125q-0.140625 -0.375 -0.390625 -0.640625q-0.234375 -0.28125 -0.59375 -0.421875q-0.34375 -0.15625 -0.78125 -0.15625zm8.184326 6.3125q-0.75 0 -1.328125 -0.25q-0.578125 -0.265625 -0.984375 -0.734375q-0.390625 -0.46875 -0.59375 -1.125q-0.203125 -0.671875 -0.203125 -1.484375q0 -0.8125 0.203125 -1.46875q0.21875 -0.671875 0.609375 -1.140625q0.40625 -0.484375 0.96875 -0.734375q0.578125 -0.25 1.3125 -0.25q1.0 0 1.625 0.4375q0.640625 0.4375 0.921875 1.140625l-0.84375 0.453125q-0.1875 -0.53125 -0.625 -0.828125q-0.4375 -0.296875 -1.078125 -0.296875q-0.453125 0 -0.828125 0.15625q-0.359375 0.15625 -0.625 0.4375q-0.25 0.28125 -0.375 0.671875q-0.125 0.375 -0.125 0.828125l0 1.171875q0 0.453125 0.125 0.84375q0.125 0.390625 0.375 0.671875q0.265625 0.28125 0.625 0.4375q0.375 0.140625 0.859375 0.140625q0.6875 0 1.140625 -0.3125q0.453125 -0.328125 0.734375 -0.875l0.75 0.515625q-0.296875 0.6875 -0.953125 1.140625q-0.640625 0.453125 -1.6875 0.453125zm8.090576 -0.15625q-0.78125 0 -1.15625 -0.4375q-0.359375 -0.4375 -0.359375 -1.140625l0 -4.390625l-2.296875 0l0 -0.90625l1.703125 0q0.359375 0 0.5 -0.140625q0.140625 -0.140625 0.140625 -0.484375l0 -1.796875l1.015625 0l0 2.421875l3.140625 0l0 0.90625l-3.140625 0l0 5.0625l3.140625 0l0 0.90625l-2.6875 0z" fill-rule="nonzero"/><path fill="#000000" d="m736.8155 196.1357q0 1.796875 -0.46875 3.296875q-0.46875 1.5 -1.328125 2.765625l-0.984375 0q0.34375 -0.46875 0.640625 -1.15625q0.296875 -0.6875 0.515625 -1.5q0.21875 -0.8125 0.34375 -1.6875q0.125 -0.875 0.125 -1.71875q0 -1.125 -0.21875 -2.28125q-0.21875 -1.15625 -0.59375 -2.140625q-0.359375 -1.0 -0.8125 -1.625l0.984375 0q0.859375 1.25 1.328125 2.765625q0.46875 1.5 0.46875 3.28125z" fill-rule="nonzero"/><path fill="#000000" fill-opacity="0.0" d="m466.24933 84.76128l0 58.897644" fill-rule="evenodd"/><path stroke="#000000" stroke-width="1.0" stroke-linejoin="round" stroke-linecap="butt" d="m466.24933 84.76128l0 52.897644" fill-rule="evenodd"/><path fill="#000000" stroke="#000000" stroke-width="1.0" stroke-linecap="butt" d="m464.59763 137.65892l1.6517029 4.538086l1.6517334 -4.538086z" fill-rule="evenodd"/><path fill="#000000" fill-opacity="0.0" d="m457.29922 84.76128l0 58.897644" fill-rule="evenodd"/><path stroke="#000000" stroke-width="1.0" stroke-linejoin="round" stroke-linecap="butt" d="m457.29922 90.76128l0 52.897644" fill-rule="evenodd"/><path fill="#000000" stroke="#000000" stroke-width="1.0" stroke-linecap="butt" d="m458.95096 90.76128l-1.6517334 -4.5380936l-1.6517334 4.5380936z" fill-rule="evenodd"/><path fill="#000000" fill-opacity="0.0" d="m461.7743 270.16556l0 40.031494" fill-rule="evenodd"/><path stroke="#000000" stroke-width="1.0" stroke-linejoin="round" stroke-linecap="butt" d="m461.7743 270.16556l0 34.031494" fill-rule="evenodd"/><path fill="#000000" stroke="#000000" stroke-width="1.0" stroke-linecap="butt" d="m460.12256 304.19705l1.6517334 4.538086l1.6517334 -4.538086z" fill-rule="evenodd"/><path fill="#000000" fill-opacity="0.0" d="m452.82416 270.16556l0 40.031494" fill-rule="evenodd"/><path stroke="#000000" stroke-width="1.0" stroke-linejoin="round" stroke-linecap="butt" d="m452.82416 276.16556l0 34.031494" fill-rule="evenodd"/><path fill="#000000" stroke="#000000" stroke-width="1.0" stroke-linecap="butt" d="m454.4759 276.16556l-1.6517334 -4.538086l-1.6517334 4.538086z" fill-rule="evenodd"/><path fill="#000000" fill-opacity="0.0" d="m237.83464 246.979l113.732285 0" fill-rule="evenodd"/><path stroke="#000000" stroke-width="1.0" stroke-linejoin="round" stroke-linecap="butt" d="m237.83464 246.979l107.732285 0" fill-rule="evenodd"/><path fill="#000000" stroke="#000000" stroke-width="1.0" stroke-linecap="butt" d="m345.56693 248.63074l4.5381165 -1.6517334l-4.5381165 -1.6517334z" fill-rule="evenodd"/><path fill="#000000" fill-opacity="0.0" d="m350.42783 223.94751l230.51968 0l0 46.362213l-230.51968 0z" fill-rule="evenodd"/><path fill="#000000" d="m412.3395 253.8486l0 -13.5625l8.1875 0l0 1.453125l-6.546875 0l0 4.578125l6.125 0l0 1.46875l-6.125 0l0 4.609375l6.65625 0l0 1.453125l-8.296875 0zm12.516174 -6.125l0 6.125l-1.5625 0l0 -10.171875l1.5 0l0 1.578125l0.140625 0q0.359375 -0.765625 1.078125 -1.234375q0.734375 -0.484375 1.890625 -0.484375q1.03125 0 1.796875 0.421875q0.78125 0.421875 1.203125 1.28125q0.4375 0.84375 0.4375 2.140625l0 6.46875l-1.5625 0l0 -6.359375q0 -1.203125 -0.625 -1.875q-0.625 -0.671875 -1.703125 -0.671875q-0.75 0 -1.34375 0.328125q-0.578125 0.328125 -0.921875 0.953125q-0.328125 0.609375 -0.328125 1.5zm17.297089 -4.046875l-3.765625 10.171875l-1.578125 0l-3.765625 -10.171875l1.6875 0l2.8125 8.109375l0.109375 0l2.8125 -8.109375l1.6875 0zm2.0757751 10.171875l0 -10.171875l1.5625 0l0 10.171875l-1.5625 0zm0.78125 -11.875q-0.453125 0 -0.78125 -0.3125q-0.328125 -0.3125 -0.328125 -0.75q0 -0.4375 0.328125 -0.75q0.328125 -0.3125 0.78125 -0.3125q0.46875 0 0.796875 0.3125q0.328125 0.3125 0.328125 0.75q0 0.4375 -0.328125 0.75q-0.328125 0.3125 -0.796875 0.3125zm3.6443481 11.875l0 -10.171875l1.5 0l0 1.53125l0.109375 0q0.28125 -0.75 1.0 -1.21875q0.734375 -0.46875 1.65625 -0.46875q0.171875 0 0.421875 0q0.265625 0 0.390625 0.015625l0 1.59375q-0.078125 -0.015625 -0.359375 -0.0625q-0.28125 -0.046875 -0.59375 -0.046875q-0.734375 0 -1.328125 0.3125q-0.578125 0.3125 -0.90625 0.859375q-0.328125 0.53125 -0.328125 1.21875l0 6.4375l-1.5625 0zm10.7500305 0.21875q-1.375 0 -2.421875 -0.65625q-1.03125 -0.65625 -1.609375 -1.828125q-0.578125 -1.1875 -0.578125 -2.765625q0 -1.59375 0.578125 -2.78125q0.578125 -1.1875 1.609375 -1.84375q1.046875 -0.65625 2.421875 -0.65625q1.375 0 2.40625 0.65625q1.046875 0.65625 1.625 1.84375q0.578125 1.1875 0.578125 2.78125q0 1.578125 -0.578125 2.765625q-0.578125 1.171875 -1.625 1.828125q-1.03125 0.65625 -2.40625 0.65625zm0 -1.40625q1.046875 0 1.71875 -0.53125q0.6875 -0.546875 1.0 -1.421875q0.328125 -0.875 0.328125 -1.890625q0 -1.03125 -0.328125 -1.90625q-0.3125 -0.875 -1.0 -1.421875q-0.671875 -0.546875 -1.71875 -0.546875q-1.046875 0 -1.71875 0.546875q-0.671875 0.546875 -1.0 1.421875q-0.328125 0.875 -0.328125 1.90625q0 1.015625 0.328125 1.890625q0.328125 0.875 1.0 1.421875q0.671875 0.53125 1.71875 0.53125zm8.56778 -4.9375l0 6.125l-1.5625 0l0 -10.171875l1.5 0l0 1.578125l0.140625 0q0.359375 -0.765625 1.078125 -1.234375q0.734375 -0.484375 1.890625 -0.484375q1.03125 0 1.796875 0.421875q0.78125 0.421875 1.203125 1.28125q0.4375 0.84375 0.4375 2.140625l0 6.46875l-1.5625 0l0 -6.359375q0 -1.203125 -0.625 -1.875q-0.625 -0.671875 -1.703125 -0.671875q-0.75 0 -1.34375 0.328125q-0.578125 0.328125 -0.921875 0.953125q-0.328125 0.609375 -0.328125 1.5zm9.355804 6.125l0 -10.171875l1.5 0l0 1.578125l0.140625 0q0.3125 -0.8125 1.015625 -1.265625q0.71875 -0.453125 1.703125 -0.453125q1.015625 0 1.6875 0.453125q0.671875 0.453125 1.046875 1.265625l0.109375 0q0.390625 -0.78125 1.171875 -1.25q0.78125 -0.46875 1.875 -0.46875q1.359375 0 2.21875 0.859375q0.875 0.84375 0.875 2.640625l0 6.8125l-1.5625 0l0 -6.8125q0 -1.125 -0.625 -1.609375q-0.609375 -0.484375 -1.4375 -0.484375q-1.078125 0 -1.671875 0.65625q-0.578125 0.640625 -0.578125 1.625l0 6.625l-1.59375 0l0 -6.96875q0 -0.875 -0.5625 -1.40625q-0.5625 -0.53125 -1.453125 -0.53125q-0.609375 0 -1.140625 0.328125q-0.515625 0.328125 -0.84375 0.90625q-0.3125 0.5625 -0.3125 1.3125l0 6.359375l-1.5625 0zm20.48404 0.21875q-1.46875 0 -2.546875 -0.65625q-1.0625 -0.65625 -1.640625 -1.828125q-0.5625 -1.171875 -0.5625 -2.75q0 -1.5625 0.5625 -2.75q0.578125 -1.203125 1.609375 -1.875q1.03125 -0.671875 2.40625 -0.671875q0.796875 0 1.578125 0.265625q0.78125 0.265625 1.40625 0.859375q0.640625 0.59375 1.015625 1.578125q0.375 0.96875 0.375 2.390625l0 0.65625l-7.84375 0l0 -1.34375l6.265625 0q0 -0.859375 -0.34375 -1.53125q-0.34375 -0.6875 -0.96875 -1.078125q-0.625 -0.390625 -1.484375 -0.390625q-0.921875 0 -1.609375 0.46875q-0.671875 0.453125 -1.046875 1.1875q-0.359375 0.734375 -0.359375 1.578125l0 0.90625q0 1.140625 0.390625 1.953125q0.40625 0.796875 1.125 1.21875q0.71875 0.40625 1.671875 0.40625q0.609375 0 1.109375 -0.171875q0.5 -0.1875 0.859375 -0.53125q0.375 -0.359375 0.5625 -0.890625l1.515625 0.421875q-0.234375 0.765625 -0.796875 1.34375q-0.5625 0.578125 -1.390625 0.90625q-0.828125 0.328125 -1.859375 0.328125zm8.16217 -6.34375l0 6.125l-1.5625 0l0 -10.171875l1.5 0l0 1.578125l0.140625 0q0.359375 -0.765625 1.078125 -1.234375q0.734375 -0.484375 1.890625 -0.484375q1.03125 0 1.796875 0.421875q0.78125 0.421875 1.2030945 1.28125q0.4375 0.84375 0.4375 2.140625l0 6.46875l-1.5624695 0l0 -6.359375q0 -1.203125 -0.625 -1.875q-0.625 -0.671875 -1.703125 -0.671875q-0.75 0 -1.34375 0.328125q-0.578125 0.328125 -0.921875 0.953125q-0.328125 0.609375 -0.328125 1.5zm13.777679 -4.046875l0 1.328125l-5.28125 0l0 -1.328125l5.28125 0zm-3.734375 -2.4375l1.5625 0l0 9.6875q0 0.671875 0.1875 1.0q0.203125 0.328125 0.5 0.4375q0.3125 0.109375 0.65625 0.109375q0.265625 0 0.421875 -0.03125q0.171875 -0.03125 0.265625 -0.046875l0.328125 1.40625q-0.15625 0.046875 -0.453125 0.109375q-0.28125 0.0625 -0.71875 0.0625q-0.65625 0 -1.296875 -0.28125q-0.625 -0.28125 -1.046875 -0.859375q-0.40625 -0.59375 -0.40625 -1.46875l0 -10.125z" fill-rule="nonzero"/></g></svg>