<svg width="182" height="183" viewBox="0 0 182 183" fill="none" xmlns="http://www.w3.org/2000/svg">
<path fill-rule="evenodd" clip-rule="evenodd" d="M0 6.11436C0 2.99759 2.52664 0.470947 5.64341 0.470947H80.4186C83.5354 0.470947 86.062 2.99759 86.062 6.11436V29.3015C87.4031 28.9023 88.8238 28.688 90.2946 28.688C98.4761 28.688 105.109 35.3204 105.109 43.5019C105.109 51.6835 98.4761 58.3159 90.2946 58.3159C88.8238 58.3159 87.4031 58.1016 86.062 57.7024V86.533H57.2315C57.6306 85.1918 57.845 83.7711 57.845 82.3004C57.845 74.1189 51.2125 67.4864 43.031 67.4864C34.8495 67.4864 28.2171 74.1189 28.2171 82.3004C28.2171 83.7711 28.4314 85.1918 28.8305 86.533H5.64341C2.52664 86.533 0 84.0063 0 80.8895V6.11436Z" fill="#23907E"/>
<path fill-rule="evenodd" clip-rule="evenodd" d="M176.357 0.470947C179.473 0.470947 182 2.99759 182 6.11436L182 80.8895C182 84.0063 179.473 86.533 176.357 86.533L153.169 86.533C153.569 87.8741 153.783 89.2948 153.783 90.7655C153.783 98.947 147.15 105.579 138.969 105.579C130.787 105.579 124.155 98.947 124.155 90.7655C124.155 89.2948 124.369 87.8741 124.768 86.5329L95.938 86.5329L95.938 57.7024C97.2791 58.1016 98.6998 58.3159 100.171 58.3159C108.352 58.3159 114.984 51.6835 114.984 43.502C114.984 35.3204 108.352 28.688 100.171 28.688C98.6998 28.688 97.2791 28.9023 95.938 29.3015L95.938 6.11435C95.938 2.99758 98.4646 0.470944 101.581 0.470944L176.357 0.470947Z" fill="#58DA95"/>
<path fill-rule="evenodd" clip-rule="evenodd" d="M182 176.828C182 179.944 179.473 182.471 176.357 182.471L101.581 182.471C98.4646 182.471 95.938 179.944 95.938 176.828L95.938 153.64C94.5969 154.04 93.1762 154.254 91.7054 154.254C83.5239 154.254 76.8915 147.621 76.8915 139.44C76.8915 131.258 83.5239 124.626 91.7054 124.626C93.1762 124.626 94.5969 124.84 95.938 125.239L95.938 96.4089L124.768 96.4089C124.369 97.75 124.155 99.1707 124.155 100.641C124.155 108.823 130.787 115.455 138.969 115.455C147.15 115.455 153.783 108.823 153.783 100.641C153.783 99.1707 153.569 97.75 153.169 96.4089L176.357 96.4089C179.473 96.4089 182 98.9356 182 102.052L182 176.828Z" fill="#B4F3C9"/>
<path fill-rule="evenodd" clip-rule="evenodd" d="M5.64341 182.471C2.52664 182.471 -1.10443e-07 179.944 -2.46681e-07 176.828L-3.51521e-06 102.052C-3.65145e-06 98.9356 2.52664 96.4089 5.64341 96.4089L28.8305 96.4089C28.4314 95.0678 28.2171 93.6471 28.2171 92.1764C28.2171 83.9948 34.8495 77.3624 43.031 77.3624C51.2125 77.3624 57.845 83.9948 57.845 92.1764C57.845 93.6471 57.6306 95.0678 57.2315 96.4089L86.062 96.4089L86.062 125.239C84.7209 124.84 83.3002 124.626 81.8294 124.626C73.6479 124.626 67.0155 131.258 67.0155 139.44C67.0155 147.621 73.6479 154.254 81.8294 154.254C83.3002 154.254 84.7209 154.04 86.062 153.64L86.062 176.828C86.062 179.944 83.5354 182.471 80.4186 182.471L5.64341 182.471Z" fill="#155757"/>
</svg>
