<svg width="784" height="330" viewBox="0 0 784 330" fill="none" xmlns="http://www.w3.org/2000/svg">
<rect width="784" height="330" fill="white"/>
<path d="M134.723 15.5653C134.677 15.1619 134.49 14.8494 134.16 14.6278C133.831 14.4034 133.416 14.2912 132.916 14.2912C132.558 14.2912 132.248 14.348 131.987 14.4616C131.725 14.5724 131.522 14.7259 131.377 14.9219C131.235 15.1151 131.164 15.3352 131.164 15.5824C131.164 15.7898 131.213 15.9687 131.309 16.1193C131.409 16.2699 131.538 16.3963 131.697 16.4986C131.859 16.598 132.032 16.6818 132.217 16.75C132.402 16.8153 132.579 16.8693 132.75 16.9119L133.602 17.1335C133.88 17.2017 134.166 17.294 134.458 17.4105C134.751 17.527 135.022 17.6804 135.272 17.8707C135.522 18.0611 135.724 18.2969 135.877 18.5781C136.034 18.8594 136.112 19.196 136.112 19.5881C136.112 20.0824 135.984 20.5213 135.728 20.9048C135.475 21.2884 135.108 21.5909 134.625 21.8125C134.145 22.0341 133.564 22.1449 132.882 22.1449C132.228 22.1449 131.663 22.0412 131.186 21.8338C130.708 21.6264 130.335 21.3324 130.065 20.9517C129.795 20.5682 129.646 20.1136 129.618 19.5881H130.939C130.964 19.9034 131.066 20.1662 131.245 20.3764C131.427 20.5838 131.659 20.7386 131.94 20.8409C132.224 20.9403 132.535 20.9901 132.873 20.9901C133.245 20.9901 133.576 20.9318 133.866 20.8153C134.159 20.696 134.389 20.5312 134.556 20.321C134.724 20.108 134.808 19.8594 134.808 19.5753C134.808 19.3168 134.734 19.1051 134.586 18.9403C134.441 18.7756 134.244 18.6392 133.994 18.5312C133.747 18.4233 133.467 18.3281 133.154 18.2457L132.123 17.9645C131.424 17.7741 130.87 17.4943 130.461 17.125C130.055 16.7557 129.852 16.267 129.852 15.6591C129.852 15.1562 129.988 14.7173 130.261 14.3423C130.534 13.9673 130.903 13.6761 131.369 13.4688C131.835 13.2585 132.36 13.1534 132.946 13.1534C133.537 13.1534 134.058 13.2571 134.51 13.4645C134.964 13.6719 135.322 13.9574 135.583 14.321C135.845 14.6818 135.981 15.0966 135.993 15.5653H134.723ZM145.266 17.6364C145.266 18.5682 145.096 19.3693 144.755 20.0398C144.414 20.7074 143.947 21.2216 143.353 21.5824C142.762 21.9403 142.09 22.1193 141.337 22.1193C140.582 22.1193 139.907 21.9403 139.313 21.5824C138.722 21.2216 138.256 20.706 137.915 20.0355C137.575 19.3651 137.404 18.5653 137.404 17.6364C137.404 16.7045 137.575 15.9048 137.915 15.2372C138.256 14.5668 138.722 14.0526 139.313 13.6946C139.907 13.3338 140.582 13.1534 141.337 13.1534C142.09 13.1534 142.762 13.3338 143.353 13.6946C143.947 14.0526 144.414 14.5668 144.755 15.2372C145.096 15.9048 145.266 16.7045 145.266 17.6364ZM143.962 17.6364C143.962 16.9261 143.847 16.3281 143.617 15.8423C143.39 15.3537 143.077 14.9844 142.68 14.7344C142.285 14.4815 141.837 14.3551 141.337 14.3551C140.835 14.3551 140.386 14.4815 139.991 14.7344C139.596 14.9844 139.283 15.3537 139.053 15.8423C138.826 16.3281 138.712 16.9261 138.712 17.6364C138.712 18.3466 138.826 18.946 139.053 19.4347C139.283 19.9205 139.596 20.2898 139.991 20.5426C140.386 20.7926 140.835 20.9176 141.337 20.9176C141.837 20.9176 142.285 20.7926 142.68 20.5426C143.077 20.2898 143.39 19.9205 143.617 19.4347C143.847 18.946 143.962 18.3466 143.962 17.6364ZM152.52 13.2727H153.841V19.0128C153.841 19.6236 153.698 20.1648 153.411 20.6364C153.124 21.1051 152.721 21.4744 152.201 21.7443C151.681 22.0114 151.071 22.1449 150.373 22.1449C149.676 22.1449 149.069 22.0114 148.549 21.7443C148.029 21.4744 147.625 21.1051 147.338 20.6364C147.051 20.1648 146.908 19.6236 146.908 19.0128V13.2727H148.225V18.9062C148.225 19.3011 148.311 19.652 148.485 19.9588C148.661 20.2656 148.909 20.5071 149.23 20.6832C149.551 20.8565 149.932 20.9432 150.373 20.9432C150.816 20.9432 151.198 20.8565 151.519 20.6832C151.843 20.5071 152.09 20.2656 152.26 19.9588C152.434 19.652 152.52 19.3011 152.52 18.9062V13.2727ZM155.756 22V13.2727H158.866C159.543 13.2727 160.104 13.3892 160.55 13.6222C160.999 13.8551 161.334 14.1776 161.555 14.5895C161.777 14.9986 161.888 15.4716 161.888 16.0085C161.888 16.5426 161.776 17.0128 161.551 17.419C161.33 17.8224 160.994 18.1364 160.545 18.3608C160.099 18.5852 159.538 18.6974 158.862 18.6974H156.506V17.5639H158.743C159.169 17.5639 159.516 17.5028 159.783 17.3807C160.053 17.2585 160.25 17.081 160.375 16.848C160.5 16.6151 160.562 16.3352 160.562 16.0085C160.562 15.679 160.499 15.3935 160.371 15.152C160.246 14.9105 160.048 14.7259 159.778 14.598C159.511 14.4673 159.161 14.402 158.726 14.402H157.072V22H155.756ZM160.064 18.0625L162.22 22H160.72L158.607 18.0625H160.064ZM170.739 16.1108H169.409C169.358 15.8267 169.263 15.5767 169.124 15.3608C168.984 15.1449 168.814 14.9616 168.612 14.8111C168.411 14.6605 168.185 14.5469 167.935 14.4702C167.688 14.3935 167.425 14.3551 167.146 14.3551C166.643 14.3551 166.193 14.4815 165.795 14.7344C165.401 14.9872 165.088 15.358 164.858 15.8466C164.631 16.3352 164.517 16.9318 164.517 17.6364C164.517 18.3466 164.631 18.946 164.858 19.4347C165.088 19.9233 165.402 20.2926 165.8 20.5426C166.197 20.7926 166.645 20.9176 167.142 20.9176C167.418 20.9176 167.679 20.8807 167.926 20.8068C168.176 20.7301 168.402 20.6179 168.604 20.4702C168.805 20.3224 168.976 20.142 169.115 19.929C169.257 19.7131 169.355 19.4659 169.409 19.1875L170.739 19.1918C170.668 19.6207 170.53 20.0156 170.325 20.3764C170.124 20.7344 169.864 21.044 169.545 21.3054C169.23 21.5639 168.869 21.7642 168.463 21.9062C168.057 22.0483 167.614 22.1193 167.134 22.1193C166.378 22.1193 165.705 21.9403 165.114 21.5824C164.523 21.2216 164.057 20.706 163.716 20.0355C163.378 19.3651 163.209 18.5653 163.209 17.6364C163.209 16.7045 163.379 15.9048 163.72 15.2372C164.061 14.5668 164.527 14.0526 165.118 13.6946C165.709 13.3338 166.381 13.1534 167.134 13.1534C167.597 13.1534 168.028 13.2202 168.429 13.3537C168.832 13.4844 169.195 13.6776 169.516 13.9332C169.837 14.1861 170.102 14.4957 170.312 14.8622C170.523 15.2259 170.665 15.642 170.739 16.1108ZM172.314 22V13.2727H177.786V14.4062H173.631V17.0653H177.5V18.1946H173.631V20.8665H177.837V22H172.314ZM184.037 13.2727V22H182.721V13.2727H184.037ZM192.999 13.2727V22H191.789L187.353 15.5994H187.272V22H185.955V13.2727H187.174L191.614 19.6818H191.695V13.2727H192.999ZM194.489 14.4062V13.2727H201.244V14.4062H198.521V22H197.208V14.4062H194.489ZM202.736 22V13.2727H208.208V14.4062H204.053V17.0653H207.922V18.1946H204.053V20.8665H208.259V22H202.736ZM215.873 16.0298C215.79 15.7713 215.68 15.5398 215.54 15.3352C215.404 15.1278 215.241 14.9517 215.05 14.8068C214.86 14.6591 214.643 14.5469 214.398 14.4702C214.157 14.3935 213.891 14.3551 213.602 14.3551C213.11 14.3551 212.667 14.4815 212.272 14.7344C211.877 14.9872 211.565 15.358 211.335 15.8466C211.107 16.3324 210.994 16.9276 210.994 17.6321C210.994 18.3395 211.109 18.9375 211.339 19.4261C211.569 19.9148 211.884 20.2855 212.285 20.5384C212.685 20.7912 213.141 20.9176 213.653 20.9176C214.127 20.9176 214.54 20.821 214.893 20.6278C215.248 20.4347 215.522 20.1619 215.715 19.8097C215.911 19.4545 216.009 19.0369 216.009 18.5568L216.35 18.6207H213.853V17.5341H217.283V18.527C217.283 19.2599 217.127 19.8963 216.815 20.4361C216.505 20.973 216.076 21.3878 215.528 21.6804C214.982 21.973 214.357 22.1193 213.653 22.1193C212.863 22.1193 212.17 21.9375 211.573 21.5739C210.979 21.2102 210.516 20.6946 210.184 20.027C209.852 19.3565 209.685 18.5611 209.685 17.6406C209.685 16.9446 209.782 16.3196 209.975 15.7656C210.168 15.2116 210.44 14.7415 210.789 14.3551C211.141 13.9659 211.555 13.669 212.029 13.4645C212.506 13.2571 213.028 13.1534 213.593 13.1534C214.065 13.1534 214.504 13.223 214.91 13.3622C215.319 13.5014 215.683 13.6989 216.001 13.9545C216.322 14.2102 216.587 14.5142 216.798 14.8665C217.008 15.2159 217.15 15.6037 217.224 16.0298H215.873ZM218.955 22V13.2727H222.066C222.742 13.2727 223.303 13.3892 223.749 13.6222C224.198 13.8551 224.533 14.1776 224.755 14.5895C224.976 14.9986 225.087 15.4716 225.087 16.0085C225.087 16.5426 224.975 17.0128 224.75 17.419C224.529 17.8224 224.194 18.1364 223.745 18.3608C223.299 18.5852 222.738 18.6974 222.061 18.6974H219.705V17.5639H221.942C222.368 17.5639 222.715 17.5028 222.982 17.3807C223.252 17.2585 223.449 17.081 223.574 16.848C223.699 16.6151 223.762 16.3352 223.762 16.0085C223.762 15.679 223.698 15.3935 223.57 15.152C223.445 14.9105 223.248 14.7259 222.978 14.598C222.711 14.4673 222.36 14.402 221.925 14.402H220.272V22H218.955ZM223.263 18.0625L225.419 22H223.919L221.806 18.0625H223.263ZM228.006 13.2727V22H226.689V13.2727H228.006ZM229.493 14.4062V13.2727H236.248V14.4062H233.525V22H232.212V14.4062H229.493ZM237.067 13.2727H238.562L240.842 17.2401H240.936L243.216 13.2727H244.712L241.545 18.5739V22H240.233V18.5739L237.067 13.2727Z" fill="#155757"/>
<path d="M100 35V33C100 29.6863 102.686 27 106 27H268C271.314 27 274 29.6863 274 33V35" stroke="#155757"/>
<path d="M429.07 22V13.2727H432.266C432.885 13.2727 433.398 13.375 433.805 13.5795C434.211 13.7812 434.515 14.0554 434.716 14.402C434.918 14.7457 435.019 15.1335 435.019 15.5653C435.019 15.929 434.952 16.2358 434.819 16.4858C434.685 16.733 434.506 16.9318 434.282 17.0824C434.06 17.2301 433.816 17.3381 433.549 17.4062V17.4915C433.839 17.5057 434.121 17.5994 434.397 17.7727C434.675 17.9432 434.905 18.1861 435.087 18.5014C435.269 18.8168 435.36 19.2003 435.36 19.652C435.36 20.098 435.255 20.4986 435.045 20.8537C434.837 21.206 434.516 21.4858 434.081 21.6932C433.647 21.8977 433.091 22 432.415 22H429.07ZM430.387 20.8707H432.287C432.918 20.8707 433.37 20.7486 433.643 20.5043C433.915 20.2599 434.052 19.9545 434.052 19.5881C434.052 19.3125 433.982 19.0597 433.843 18.8295C433.704 18.5994 433.505 18.4162 433.246 18.2798C432.991 18.1435 432.687 18.0753 432.334 18.0753H430.387V20.8707ZM430.387 17.0483H432.151C432.447 17.0483 432.712 16.9915 432.948 16.8778C433.187 16.7642 433.376 16.6051 433.515 16.4006C433.657 16.1932 433.728 15.9489 433.728 15.6676C433.728 15.3068 433.601 15.0043 433.349 14.7599C433.096 14.5156 432.708 14.3935 432.185 14.3935H430.387V17.0483ZM442.534 13.2727H443.855V19.0128C443.855 19.6236 443.711 20.1648 443.425 20.6364C443.138 21.1051 442.734 21.4744 442.214 21.7443C441.694 22.0114 441.085 22.1449 440.386 22.1449C439.69 22.1449 439.082 22.0114 438.562 21.7443C438.042 21.4744 437.639 21.1051 437.352 20.6364C437.065 20.1648 436.922 19.6236 436.922 19.0128V13.2727H438.238V18.9062C438.238 19.3011 438.325 19.652 438.498 19.9588C438.675 20.2656 438.923 20.5071 439.244 20.6832C439.565 20.8565 439.946 20.9432 440.386 20.9432C440.829 20.9432 441.211 20.8565 441.532 20.6832C441.856 20.5071 442.104 20.2656 442.274 19.9588C442.447 19.652 442.534 19.3011 442.534 18.9062V13.2727ZM447.086 13.2727V22H445.769V13.2727H447.086ZM449.004 22V13.2727H450.32V20.8665H454.275V22H449.004ZM458.602 22H455.777V13.2727H458.692C459.547 13.2727 460.281 13.4474 460.895 13.7969C461.509 14.1435 461.979 14.642 462.306 15.2926C462.635 15.9403 462.8 16.7173 462.8 17.6236C462.8 18.5327 462.634 19.3139 462.301 19.9673C461.972 20.6207 461.494 21.1236 460.869 21.4759C460.244 21.8253 459.489 22 458.602 22ZM457.094 20.8494H458.53C459.195 20.8494 459.747 20.7244 460.188 20.4744C460.628 20.2216 460.958 19.8565 461.176 19.3793C461.395 18.8991 461.504 18.3139 461.504 17.6236C461.504 16.9389 461.395 16.358 461.176 15.8807C460.96 15.4034 460.638 15.0412 460.209 14.794C459.78 14.5469 459.247 14.4233 458.611 14.4233H457.094V20.8494ZM468.93 13.2727V22H467.613V13.2727H468.93ZM477.892 13.2727V22H476.681L472.245 15.5994H472.164V22H470.847V13.2727H472.066L476.507 19.6818H476.588V13.2727H477.892ZM479.382 14.4062V13.2727H486.136V14.4062H483.413V22H482.101V14.4062H479.382ZM487.629 22V13.2727H493.1V14.4062H488.945V17.0653H492.815V18.1946H488.945V20.8665H493.151V22H487.629ZM500.765 16.0298C500.683 15.7713 500.572 15.5398 500.433 15.3352C500.297 15.1278 500.133 14.9517 499.943 14.8068C499.753 14.6591 499.535 14.5469 499.291 14.4702C499.05 14.3935 498.784 14.3551 498.494 14.3551C498.003 14.3551 497.559 14.4815 497.165 14.7344C496.77 14.9872 496.457 15.358 496.227 15.8466C496 16.3324 495.886 16.9276 495.886 17.6321C495.886 18.3395 496.001 18.9375 496.231 19.4261C496.461 19.9148 496.777 20.2855 497.177 20.5384C497.578 20.7912 498.034 20.9176 498.545 20.9176C499.02 20.9176 499.433 20.821 499.785 20.6278C500.14 20.4347 500.415 20.1619 500.608 19.8097C500.804 19.4545 500.902 19.0369 500.902 18.5568L501.243 18.6207H498.746V17.5341H502.176V18.527C502.176 19.2599 502.02 19.8963 501.707 20.4361C501.398 20.973 500.969 21.3878 500.42 21.6804C499.875 21.973 499.25 22.1193 498.545 22.1193C497.756 22.1193 497.062 21.9375 496.466 21.5739C495.872 21.2102 495.409 20.6946 495.077 20.027C494.744 19.3565 494.578 18.5611 494.578 17.6406C494.578 16.9446 494.675 16.3196 494.868 15.7656C495.061 15.2116 495.332 14.7415 495.682 14.3551C496.034 13.9659 496.447 13.669 496.922 13.4645C497.399 13.2571 497.92 13.1534 498.486 13.1534C498.957 13.1534 499.396 13.223 499.802 13.3622C500.211 13.5014 500.575 13.6989 500.893 13.9545C501.214 14.2102 501.48 14.5142 501.69 14.8665C501.9 15.2159 502.042 15.6037 502.116 16.0298H500.765ZM503.847 22V13.2727H506.958C507.634 13.2727 508.195 13.3892 508.642 13.6222C509.09 13.8551 509.426 14.1776 509.647 14.5895C509.869 14.9986 509.98 15.4716 509.98 16.0085C509.98 16.5426 509.867 17.0128 509.643 17.419C509.421 17.8224 509.086 18.1364 508.637 18.3608C508.191 18.5852 507.63 18.6974 506.954 18.6974H504.597V17.5639H506.835C507.261 17.5639 507.607 17.5028 507.874 17.3807C508.144 17.2585 508.342 17.081 508.467 16.848C508.592 16.6151 508.654 16.3352 508.654 16.0085C508.654 15.679 508.59 15.3935 508.463 15.152C508.338 14.9105 508.14 14.7259 507.87 14.598C507.603 14.4673 507.252 14.402 506.818 14.402H505.164V22H503.847ZM508.156 18.0625L510.312 22H508.812L506.698 18.0625H508.156ZM512.899 13.2727V22H511.582V13.2727H512.899ZM514.386 14.4062V13.2727H521.14V14.4062H518.417V22H517.105V14.4062H514.386ZM521.959 13.2727H523.455L525.735 17.2401H525.829L528.108 13.2727H529.604L526.438 18.5739V22H525.126V18.5739L521.959 13.2727Z" fill="#155757"/>
<path d="M274 35V33C274 29.6863 276.686 27 280 27H678C681.314 27 684 29.6863 684 33V35" stroke="#155757"/>
<path d="M143.401 79.9712C144.294 82.2392 142.854 84.7203 140.44 85.0596C131.522 86.3135 122.478 86.3135 113.56 85.0596C111.146 84.7203 109.706 82.2392 110.599 79.9713C113.992 71.3578 118.504 63.226 123.999 55.8407C125.504 53.8167 128.496 53.8167 130.001 55.8407C135.496 63.226 140.008 71.3578 143.401 79.9712Z" fill="#F03100"/>
<path d="M123.46 78H120.928L125.537 64.9091H128.465L133.08 78H130.548L127.052 67.5938H126.95L123.46 78ZM123.543 72.8672H130.446V74.772H123.543V72.8672Z" fill="white"/>
<path d="M128 89C128 88.4477 127.552 88 127 88C126.448 88 126 88.4477 126 89H128ZM126 134C126 134.552 126.448 135 127 135C127.552 135 128 134.552 128 134H126ZM126 89.0499C126 89.6022 126.448 90.0499 127 90.0499C127.552 90.0499 128 89.6022 128 89.0499H126ZM128 93.041C128 92.4887 127.552 92.041 127 92.041C126.448 92.041 126 92.4887 126 93.041H128ZM126 93.1408C126 93.6931 126.448 94.1408 127 94.1408C127.552 94.1408 128 93.6931 128 93.1408H126ZM128 97.1319C128 96.5796 127.552 96.1319 127 96.1319C126.448 96.1319 126 96.5796 126 97.1319H128ZM126 97.2317C126 97.784 126.448 98.2317 127 98.2317C127.552 98.2317 128 97.784 128 97.2317H126ZM128 101.223C128 100.671 127.552 100.223 127 100.223C126.448 100.223 126 100.671 126 101.223H128ZM126 101.323C126 101.875 126.448 102.323 127 102.323C127.552 102.323 128 101.875 128 101.323H126ZM128 105.314C128 104.761 127.552 104.314 127 104.314C126.448 104.314 126 104.761 126 105.314H128ZM126 105.414C126 105.966 126.448 106.414 127 106.414C127.552 106.414 128 105.966 128 105.414H126ZM128 109.405C128 108.852 127.552 108.405 127 108.405C126.448 108.405 126 108.852 126 109.405H128ZM126 109.504C126 110.057 126.448 110.504 127 110.504C127.552 110.504 128 110.057 128 109.504H126ZM128 113.496C128 112.943 127.552 112.496 127 112.496C126.448 112.496 126 112.943 126 113.496H128ZM126 113.595C126 114.148 126.448 114.595 127 114.595C127.552 114.595 128 114.148 128 113.595H126ZM128 117.586C128 117.034 127.552 116.586 127 116.586C126.448 116.586 126 117.034 126 117.586H128ZM126 117.686C126 118.239 126.448 118.686 127 118.686C127.552 118.686 128 118.239 128 117.686H126ZM128 121.677C128 121.125 127.552 120.677 127 120.677C126.448 120.677 126 121.125 126 121.677H128ZM126 121.777C126 122.329 126.448 122.777 127 122.777C127.552 122.777 128 122.329 128 121.777H126ZM128 125.768C128 125.216 127.552 124.768 127 124.768C126.448 124.768 126 125.216 126 125.768H128ZM126 125.868C126 126.42 126.448 126.868 127 126.868C127.552 126.868 128 126.42 128 125.868H126ZM128 129.859C128 129.307 127.552 128.859 127 128.859C126.448 128.859 126 129.307 126 129.859H128ZM126 129.959C126 130.511 126.448 130.959 127 130.959C127.552 130.959 128 130.511 128 129.959H126ZM128 133.95C128 133.398 127.552 132.95 127 132.95C126.448 132.95 126 133.398 126 133.95H128ZM126 89V89.0499H128V89H126ZM126 93.041V93.1408H128V93.041H126ZM126 97.1319V97.2317H128V97.1319H126ZM126 101.223V101.323H128V101.223H126ZM126 105.314V105.414H128V105.314H126ZM126 109.405V109.504H128V109.405H126ZM126 113.496V113.595H128V113.496H126ZM126 117.586V117.686H128V117.586H126ZM126 121.677V121.777H128V121.677H126ZM126 125.768V125.868H128V125.768H126ZM126 129.859V129.959H128V129.859H126ZM126 133.95V134H128V133.95H126Z" fill="#F03100"/>
<path d="M230.401 79.9712C231.294 82.2392 229.854 84.7203 227.44 85.0596C218.522 86.3135 209.478 86.3135 200.56 85.0596C198.146 84.7203 196.706 82.2392 197.599 79.9713C200.992 71.3578 205.504 63.226 210.999 55.8407C212.504 53.8167 215.496 53.8167 217.001 55.8407C222.496 63.226 227.008 71.3578 230.401 79.9712Z" fill="#F03100"/>
<path d="M209.376 78V64.9091H214.388C215.334 64.9091 216.12 65.0582 216.746 65.3565C217.377 65.6506 217.848 66.0533 218.159 66.5646C218.474 67.076 218.632 67.6555 218.632 68.3033C218.632 68.8359 218.53 69.2919 218.325 69.6712C218.12 70.0462 217.846 70.3509 217.5 70.5852C217.155 70.8196 216.77 70.9879 216.343 71.0902V71.218C216.808 71.2436 217.253 71.3864 217.679 71.6463C218.11 71.902 218.461 72.2642 218.734 72.733C219.007 73.2017 219.143 73.7685 219.143 74.4332C219.143 75.1108 218.979 75.7202 218.651 76.2614C218.323 76.7983 217.829 77.2223 217.168 77.5334C216.508 77.8445 215.677 78 214.675 78H209.376ZM211.748 76.0185H214.298C215.159 76.0185 215.779 75.8544 216.158 75.5263C216.542 75.1939 216.733 74.7678 216.733 74.2479C216.733 73.8601 216.638 73.5107 216.446 73.1996C216.254 72.8842 215.981 72.6371 215.628 72.4581C215.274 72.2749 214.852 72.1832 214.362 72.1832H211.748V76.0185ZM211.748 70.4766H214.093C214.503 70.4766 214.871 70.402 215.199 70.2528C215.527 70.0994 215.785 69.8842 215.973 69.6072C216.165 69.326 216.26 68.9936 216.26 68.6101C216.26 68.103 216.081 67.6854 215.723 67.3572C215.37 67.0291 214.843 66.8651 214.145 66.8651H211.748V70.4766Z" fill="white"/>
<path d="M215 89C215 88.4477 214.552 88 214 88C213.448 88 213 88.4477 213 89H215ZM213 109C213 109.552 213.448 110 214 110C214.552 110 215 109.552 215 109H213ZM213 89.0488C213 89.6011 213.448 90.0488 214 90.0488C214.552 90.0488 215 89.6011 215 89.0488H213ZM215 92.9512C215 92.3989 214.552 91.9512 214 91.9512C213.448 91.9512 213 92.3989 213 92.9512H215ZM213 93.0488C213 93.6011 213.448 94.0488 214 94.0488C214.552 94.0488 215 93.6011 215 93.0488H213ZM215 96.9512C215 96.3989 214.552 95.9512 214 95.9512C213.448 95.9512 213 96.3989 213 96.9512H215ZM213 97.0488C213 97.6011 213.448 98.0488 214 98.0488C214.552 98.0488 215 97.6011 215 97.0488H213ZM215 100.951C215 100.399 214.552 99.9512 214 99.9512C213.448 99.9512 213 100.399 213 100.951H215ZM213 101.049C213 101.601 213.448 102.049 214 102.049C214.552 102.049 215 101.601 215 101.049H213ZM215 104.951C215 104.399 214.552 103.951 214 103.951C213.448 103.951 213 104.399 213 104.951H215ZM213 105.049C213 105.601 213.448 106.049 214 106.049C214.552 106.049 215 105.601 215 105.049H213ZM215 108.951C215 108.399 214.552 107.951 214 107.951C213.448 107.951 213 108.399 213 108.951H215ZM213 89V89.0488H215V89H213ZM213 92.9512V93.0488H215V92.9512H213ZM213 96.9512V97.0488H215V96.9512H213ZM213 100.951V101.049H215V100.951H213ZM213 104.951V105.049H215V104.951H213ZM213 108.951V109H215V108.951H213Z" fill="#F03100"/>
<path d="M326.401 79.9712C327.294 82.2392 325.854 84.7203 323.44 85.0596C314.522 86.3135 305.478 86.3135 296.56 85.0596C294.146 84.7203 292.706 82.2392 293.599 79.9713C296.992 71.3578 301.504 63.226 306.999 55.8407C308.504 53.8167 311.496 53.8167 313.001 55.8407C318.496 63.226 323.008 71.3578 326.401 79.9712Z" fill="#F03100"/>
<path d="M315.808 69.326H313.417C313.349 68.9339 313.223 68.5866 313.04 68.2841C312.857 67.9773 312.629 67.7173 312.356 67.5043C312.084 67.2912 311.772 67.1314 311.423 67.0249C311.078 66.9141 310.705 66.8587 310.304 66.8587C309.593 66.8587 308.962 67.0376 308.412 67.3956C307.863 67.7493 307.432 68.2692 307.121 68.9553C306.81 69.6371 306.655 70.4702 306.655 71.4545C306.655 72.456 306.81 73.2997 307.121 73.9858C307.437 74.6676 307.867 75.1832 308.412 75.5327C308.962 75.8778 309.591 76.0504 310.298 76.0504C310.69 76.0504 311.057 75.9993 311.397 75.897C311.743 75.7905 312.052 75.6349 312.324 75.4304C312.601 75.2259 312.834 74.9744 313.021 74.6761C313.213 74.3778 313.345 74.0369 313.417 73.6534L315.808 73.6662C315.718 74.2884 315.525 74.8722 315.226 75.4176C314.932 75.9631 314.547 76.4446 314.069 76.8622C313.592 77.2756 313.034 77.5994 312.395 77.8338C311.755 78.0639 311.046 78.179 310.266 78.179C309.116 78.179 308.089 77.9126 307.185 77.38C306.282 76.8473 305.57 76.0781 305.05 75.0724C304.53 74.0668 304.27 72.8608 304.27 71.4545C304.27 70.044 304.532 68.8381 305.057 67.8366C305.581 66.831 306.294 66.0618 307.198 65.5291C308.101 64.9964 309.124 64.7301 310.266 64.7301C310.995 64.7301 311.672 64.8324 312.299 65.0369C312.925 65.2415 313.483 65.5419 313.973 65.9382C314.464 66.3303 314.866 66.8118 315.182 67.3828C315.501 67.9496 315.71 68.5973 315.808 69.326Z" fill="white"/>
<path d="M311 89C311 88.4477 310.552 88 310 88C309.448 88 309 88.4477 309 89H311ZM309 134C309 134.552 309.448 135 310 135C310.552 135 311 134.552 311 134H309ZM309 89.0499C309 89.6022 309.448 90.0499 310 90.0499C310.552 90.0499 311 89.6022 311 89.0499H309ZM311 93.041C311 92.4887 310.552 92.041 310 92.041C309.448 92.041 309 92.4887 309 93.041H311ZM309 93.1408C309 93.6931 309.448 94.1408 310 94.1408C310.552 94.1408 311 93.6931 311 93.1408H309ZM311 97.1319C311 96.5796 310.552 96.1319 310 96.1319C309.448 96.1319 309 96.5796 309 97.1319H311ZM309 97.2317C309 97.784 309.448 98.2317 310 98.2317C310.552 98.2317 311 97.784 311 97.2317H309ZM311 101.223C311 100.671 310.552 100.223 310 100.223C309.448 100.223 309 100.671 309 101.223H311ZM309 101.323C309 101.875 309.448 102.323 310 102.323C310.552 102.323 311 101.875 311 101.323H309ZM311 105.314C311 104.761 310.552 104.314 310 104.314C309.448 104.314 309 104.761 309 105.314H311ZM309 105.414C309 105.966 309.448 106.414 310 106.414C310.552 106.414 311 105.966 311 105.414H309ZM311 109.405C311 108.852 310.552 108.405 310 108.405C309.448 108.405 309 108.852 309 109.405H311ZM309 109.504C309 110.057 309.448 110.504 310 110.504C310.552 110.504 311 110.057 311 109.504H309ZM311 113.496C311 112.943 310.552 112.496 310 112.496C309.448 112.496 309 112.943 309 113.496H311ZM309 113.595C309 114.148 309.448 114.595 310 114.595C310.552 114.595 311 114.148 311 113.595H309ZM311 117.586C311 117.034 310.552 116.586 310 116.586C309.448 116.586 309 117.034 309 117.586H311ZM309 117.686C309 118.239 309.448 118.686 310 118.686C310.552 118.686 311 118.239 311 117.686H309ZM311 121.677C311 121.125 310.552 120.677 310 120.677C309.448 120.677 309 121.125 309 121.677H311ZM309 121.777C309 122.329 309.448 122.777 310 122.777C310.552 122.777 311 122.329 311 121.777H309ZM311 125.768C311 125.216 310.552 124.768 310 124.768C309.448 124.768 309 125.216 309 125.768H311ZM309 125.868C309 126.42 309.448 126.868 310 126.868C310.552 126.868 311 126.42 311 125.868H309ZM311 129.859C311 129.307 310.552 128.859 310 128.859C309.448 128.859 309 129.307 309 129.859H311ZM309 129.959C309 130.511 309.448 130.959 310 130.959C310.552 130.959 311 130.511 311 129.959H309ZM311 133.95C311 133.398 310.552 132.95 310 132.95C309.448 132.95 309 133.398 309 133.95H311ZM309 89V89.0499H311V89H309ZM309 93.041V93.1408H311V93.041H309ZM309 97.1319V97.2317H311V97.1319H309ZM309 101.223V101.323H311V101.223H309ZM309 105.314V105.414H311V105.314H309ZM309 109.405V109.504H311V109.405H309ZM309 113.496V113.595H311V113.496H309ZM309 117.586V117.686H311V117.586H309ZM309 121.677V121.777H311V121.677H309ZM309 125.768V125.868H311V125.768H309ZM309 129.859V129.959H311V129.859H309ZM309 133.95V134H311V133.95H309Z" fill="#F03100"/>
<path d="M408.401 79.9712C409.294 82.2392 407.854 84.7203 405.44 85.0596C396.522 86.3135 387.478 86.3135 378.56 85.0596C376.146 84.7203 374.706 82.2392 375.599 79.9713C378.992 71.3578 383.504 63.226 388.999 55.8407C390.504 53.8167 393.496 53.8167 395.001 55.8407C400.496 63.226 405.008 71.3578 408.401 79.9712Z" fill="#F03100"/>
<path d="M391.206 78H386.77V64.9091H391.295C392.595 64.9091 393.711 65.1712 394.645 65.6953C395.582 66.2152 396.302 66.9631 396.805 67.9389C397.308 68.9148 397.559 70.0824 397.559 71.4418C397.559 72.8054 397.306 73.9773 396.799 74.9574C396.296 75.9375 395.569 76.6896 394.619 77.2138C393.673 77.7379 392.535 78 391.206 78ZM389.141 75.9482H391.091C392.003 75.9482 392.763 75.782 393.373 75.4496C393.982 75.1129 394.44 74.6122 394.747 73.9474C395.054 73.2784 395.207 72.4432 395.207 71.4418C395.207 70.4403 395.054 69.6094 394.747 68.9489C394.44 68.2841 393.986 67.7876 393.385 67.4595C392.789 67.1271 392.047 66.9609 391.161 66.9609H389.141V75.9482Z" fill="white"/>
<path d="M393 89C393 88.4477 392.552 88 392 88C391.448 88 391 88.4477 391 89H393ZM391 109C391 109.552 391.448 110 392 110C392.552 110 393 109.552 393 109H391ZM391 89.0488C391 89.6011 391.448 90.0488 392 90.0488C392.552 90.0488 393 89.6011 393 89.0488H391ZM393 92.9512C393 92.3989 392.552 91.9512 392 91.9512C391.448 91.9512 391 92.3989 391 92.9512H393ZM391 93.0488C391 93.6011 391.448 94.0488 392 94.0488C392.552 94.0488 393 93.6011 393 93.0488H391ZM393 96.9512C393 96.3989 392.552 95.9512 392 95.9512C391.448 95.9512 391 96.3989 391 96.9512H393ZM391 97.0488C391 97.6011 391.448 98.0488 392 98.0488C392.552 98.0488 393 97.6011 393 97.0488H391ZM393 100.951C393 100.399 392.552 99.9512 392 99.9512C391.448 99.9512 391 100.399 391 100.951H393ZM391 101.049C391 101.601 391.448 102.049 392 102.049C392.552 102.049 393 101.601 393 101.049H391ZM393 104.951C393 104.399 392.552 103.951 392 103.951C391.448 103.951 391 104.399 391 104.951H393ZM391 105.049C391 105.601 391.448 106.049 392 106.049C392.552 106.049 393 105.601 393 105.049H391ZM393 108.951C393 108.399 392.552 107.951 392 107.951C391.448 107.951 391 108.399 391 108.951H393ZM391 89V89.0488H393V89H391ZM391 92.9512V93.0488H393V92.9512H391ZM391 96.9512V97.0488H393V96.9512H391ZM391 100.951V101.049H393V100.951H391ZM391 104.951V105.049H393V104.951H391ZM391 108.951V109H393V108.951H391Z" fill="#F03100"/>
<path d="M490.401 79.9712C491.294 82.2392 489.854 84.7203 487.44 85.0596C478.522 86.3135 469.478 86.3135 460.56 85.0596C458.146 84.7203 456.706 82.2392 457.599 79.9713C460.992 71.3578 465.504 63.226 470.999 55.8407C472.504 53.8167 475.496 53.8167 477.001 55.8407C482.496 63.226 487.008 71.3578 490.401 79.9712Z" fill="#F03100"/>
<path d="M470.018 78V64.9091H478.404V66.897H472.389V70.451H477.829V72.4389H472.389V78H470.018Z" fill="white"/>
<path d="M475 89C475 88.4477 474.552 88 474 88C473.448 88 473 88.4477 473 89H475ZM473 134C473 134.552 473.448 135 474 135C474.552 135 475 134.552 475 134H473ZM473 89.0499C473 89.6022 473.448 90.0499 474 90.0499C474.552 90.0499 475 89.6022 475 89.0499H473ZM475 93.041C475 92.4887 474.552 92.041 474 92.041C473.448 92.041 473 92.4887 473 93.041H475ZM473 93.1408C473 93.6931 473.448 94.1408 474 94.1408C474.552 94.1408 475 93.6931 475 93.1408H473ZM475 97.1319C475 96.5796 474.552 96.1319 474 96.1319C473.448 96.1319 473 96.5796 473 97.1319H475ZM473 97.2317C473 97.784 473.448 98.2317 474 98.2317C474.552 98.2317 475 97.784 475 97.2317H473ZM475 101.223C475 100.671 474.552 100.223 474 100.223C473.448 100.223 473 100.671 473 101.223H475ZM473 101.323C473 101.875 473.448 102.323 474 102.323C474.552 102.323 475 101.875 475 101.323H473ZM475 105.314C475 104.761 474.552 104.314 474 104.314C473.448 104.314 473 104.761 473 105.314H475ZM473 105.414C473 105.966 473.448 106.414 474 106.414C474.552 106.414 475 105.966 475 105.414H473ZM475 109.405C475 108.852 474.552 108.405 474 108.405C473.448 108.405 473 108.852 473 109.405H475ZM473 109.504C473 110.057 473.448 110.504 474 110.504C474.552 110.504 475 110.057 475 109.504H473ZM475 113.496C475 112.943 474.552 112.496 474 112.496C473.448 112.496 473 112.943 473 113.496H475ZM473 113.595C473 114.148 473.448 114.595 474 114.595C474.552 114.595 475 114.148 475 113.595H473ZM475 117.586C475 117.034 474.552 116.586 474 116.586C473.448 116.586 473 117.034 473 117.586H475ZM473 117.686C473 118.239 473.448 118.686 474 118.686C474.552 118.686 475 118.239 475 117.686H473ZM475 121.677C475 121.125 474.552 120.677 474 120.677C473.448 120.677 473 121.125 473 121.677H475ZM473 121.777C473 122.329 473.448 122.777 474 122.777C474.552 122.777 475 122.329 475 121.777H473ZM475 125.768C475 125.216 474.552 124.768 474 124.768C473.448 124.768 473 125.216 473 125.768H475ZM473 125.868C473 126.42 473.448 126.868 474 126.868C474.552 126.868 475 126.42 475 125.868H473ZM475 129.859C475 129.307 474.552 128.859 474 128.859C473.448 128.859 473 129.307 473 129.859H475ZM473 129.959C473 130.511 473.448 130.959 474 130.959C474.552 130.959 475 130.511 475 129.959H473ZM475 133.95C475 133.398 474.552 132.95 474 132.95C473.448 132.95 473 133.398 473 133.95H475ZM473 89V89.0499H475V89H473ZM473 93.041V93.1408H475V93.041H473ZM473 97.1319V97.2317H475V97.1319H473ZM473 101.223V101.323H475V101.223H473ZM473 105.314V105.414H475V105.314H473ZM473 109.405V109.504H475V109.405H473ZM473 113.496V113.595H475V113.496H473ZM473 117.586V117.686H475V117.586H473ZM473 121.677V121.777H475V121.677H473ZM473 125.768V125.868H475V125.768H473ZM473 129.859V129.959H475V129.859H473ZM473 133.95V134H475V133.95H473Z" fill="#F03100"/>
<path d="M586.401 79.9712C587.294 82.2392 585.854 84.7203 583.44 85.0596C574.522 86.3135 565.478 86.3135 556.56 85.0596C554.146 84.7203 552.706 82.2392 553.599 79.9713C556.992 71.3578 561.504 63.226 566.999 55.8407C568.504 53.8167 571.496 53.8167 573.001 55.8407C578.496 63.226 583.008 71.3578 586.401 79.9712Z" fill="#F03100"/>
<path d="M573.267 69.0895C573.161 68.7443 573.014 68.4354 572.826 68.1626C572.643 67.8857 572.421 67.6491 572.161 67.4531C571.906 67.2571 571.612 67.1101 571.279 67.0121C570.947 66.9098 570.585 66.8587 570.193 66.8587C569.489 66.8587 568.863 67.0355 568.313 67.3892C567.764 67.7429 567.331 68.2628 567.016 68.9489C566.705 69.6307 566.549 70.4616 566.549 71.4418C566.549 72.4304 566.705 73.2678 567.016 73.9538C567.327 74.6399 567.759 75.1619 568.313 75.5199C568.867 75.8736 569.511 76.0504 570.244 76.0504C570.908 76.0504 571.484 75.9226 571.97 75.6669C572.46 75.4112 572.837 75.049 573.101 74.5803C573.365 74.1072 573.497 73.5533 573.497 72.9183L574.034 73.0014H570.48V71.1477H575.792V72.7202C575.792 73.8409 575.553 74.8104 575.076 75.6286C574.599 76.4467 573.943 77.0774 573.107 77.5206C572.272 77.9595 571.313 78.179 570.231 78.179C569.025 78.179 567.966 77.9084 567.054 77.3672C566.146 76.8217 565.437 76.0483 564.926 75.0469C564.418 74.0412 564.165 72.848 564.165 71.4673C564.165 70.4105 564.314 69.4666 564.612 68.6357C564.915 67.8047 565.337 67.0994 565.878 66.5199C566.419 65.9361 567.054 65.4929 567.783 65.1903C568.511 64.8835 569.304 64.7301 570.161 64.7301C570.885 64.7301 571.56 64.8366 572.187 65.0497C572.813 65.2585 573.369 65.5568 573.855 65.9446C574.345 66.3324 574.748 66.7926 575.063 67.3253C575.379 67.858 575.585 68.446 575.683 69.0895H573.267Z" fill="white"/>
<path d="M571 89C571 88.4477 570.552 88 570 88C569.448 88 569 88.4477 569 89H571ZM569 109C569 109.552 569.448 110 570 110C570.552 110 571 109.552 571 109H569ZM569 89.0488C569 89.6011 569.448 90.0488 570 90.0488C570.552 90.0488 571 89.6011 571 89.0488H569ZM571 92.9512C571 92.3989 570.552 91.9512 570 91.9512C569.448 91.9512 569 92.3989 569 92.9512H571ZM569 93.0488C569 93.6011 569.448 94.0488 570 94.0488C570.552 94.0488 571 93.6011 571 93.0488H569ZM571 96.9512C571 96.3989 570.552 95.9512 570 95.9512C569.448 95.9512 569 96.3989 569 96.9512H571ZM569 97.0488C569 97.6011 569.448 98.0488 570 98.0488C570.552 98.0488 571 97.6011 571 97.0488H569ZM571 100.951C571 100.399 570.552 99.9512 570 99.9512C569.448 99.9512 569 100.399 569 100.951H571ZM569 101.049C569 101.601 569.448 102.049 570 102.049C570.552 102.049 571 101.601 571 101.049H569ZM571 104.951C571 104.399 570.552 103.951 570 103.951C569.448 103.951 569 104.399 569 104.951H571ZM569 105.049C569 105.601 569.448 106.049 570 106.049C570.552 106.049 571 105.601 571 105.049H569ZM571 108.951C571 108.399 570.552 107.951 570 107.951C569.448 107.951 569 108.399 569 108.951H571ZM569 89V89.0488H571V89H569ZM569 92.9512V93.0488H571V92.9512H569ZM569 96.9512V97.0488H571V96.9512H569ZM569 100.951V101.049H571V100.951H569ZM569 104.951V105.049H571V104.951H569ZM569 108.951V109H571V108.951H569Z" fill="#F03100"/>
<path d="M673.401 79.9712C674.294 82.2392 672.854 84.7203 670.44 85.0596C661.522 86.3135 652.478 86.3135 643.56 85.0596C641.146 84.7203 639.706 82.2392 640.599 79.9713C643.992 71.3578 648.504 63.226 653.999 55.8407C655.504 53.8167 658.496 53.8167 660.001 55.8407C665.496 63.226 670.008 71.3578 673.401 79.9712Z" fill="#F03100"/>
<path d="M651.594 78V64.9091H653.965V70.451H660.031V64.9091H662.409V78H660.031V72.4389H653.965V78H651.594Z" fill="white"/>
<path d="M658 89C658 88.4477 657.552 88 657 88C656.448 88 656 88.4477 656 89H658ZM656 134C656 134.552 656.448 135 657 135C657.552 135 658 134.552 658 134H656ZM656 89.0499C656 89.6022 656.448 90.0499 657 90.0499C657.552 90.0499 658 89.6022 658 89.0499H656ZM658 93.041C658 92.4887 657.552 92.041 657 92.041C656.448 92.041 656 92.4887 656 93.041H658ZM656 93.1408C656 93.6931 656.448 94.1408 657 94.1408C657.552 94.1408 658 93.6931 658 93.1408H656ZM658 97.1319C658 96.5796 657.552 96.1319 657 96.1319C656.448 96.1319 656 96.5796 656 97.1319H658ZM656 97.2317C656 97.784 656.448 98.2317 657 98.2317C657.552 98.2317 658 97.784 658 97.2317H656ZM658 101.223C658 100.671 657.552 100.223 657 100.223C656.448 100.223 656 100.671 656 101.223H658ZM656 101.323C656 101.875 656.448 102.323 657 102.323C657.552 102.323 658 101.875 658 101.323H656ZM658 105.314C658 104.761 657.552 104.314 657 104.314C656.448 104.314 656 104.761 656 105.314H658ZM656 105.414C656 105.966 656.448 106.414 657 106.414C657.552 106.414 658 105.966 658 105.414H656ZM658 109.405C658 108.852 657.552 108.405 657 108.405C656.448 108.405 656 108.852 656 109.405H658ZM656 109.504C656 110.057 656.448 110.504 657 110.504C657.552 110.504 658 110.057 658 109.504H656ZM658 113.496C658 112.943 657.552 112.496 657 112.496C656.448 112.496 656 112.943 656 113.496H658ZM656 113.595C656 114.148 656.448 114.595 657 114.595C657.552 114.595 658 114.148 658 113.595H656ZM658 117.586C658 117.034 657.552 116.586 657 116.586C656.448 116.586 656 117.034 656 117.586H658ZM656 117.686C656 118.239 656.448 118.686 657 118.686C657.552 118.686 658 118.239 658 117.686H656ZM658 121.677C658 121.125 657.552 120.677 657 120.677C656.448 120.677 656 121.125 656 121.677H658ZM656 121.777C656 122.329 656.448 122.777 657 122.777C657.552 122.777 658 122.329 658 121.777H656ZM658 125.768C658 125.216 657.552 124.768 657 124.768C656.448 124.768 656 125.216 656 125.768H658ZM656 125.868C656 126.42 656.448 126.868 657 126.868C657.552 126.868 658 126.42 658 125.868H656ZM658 129.859C658 129.307 657.552 128.859 657 128.859C656.448 128.859 656 129.307 656 129.859H658ZM656 129.959C656 130.511 656.448 130.959 657 130.959C657.552 130.959 658 130.511 658 129.959H656ZM658 133.95C658 133.398 657.552 132.95 657 132.95C656.448 132.95 656 133.398 656 133.95H658ZM656 89V89.0499H658V89H656ZM656 93.041V93.1408H658V93.041H656ZM656 97.1319V97.2317H658V97.1319H656ZM656 101.223V101.323H658V101.223H656ZM656 105.314V105.414H658V105.314H656ZM656 109.405V109.504H658V109.405H656ZM656 113.496V113.595H658V113.496H656ZM656 117.586V117.686H658V117.586H656ZM656 121.677V121.777H658V121.677H656ZM656 125.768V125.868H658V125.768H656ZM656 129.859V129.959H658V129.859H656ZM656 133.95V134H658V133.95H656Z" fill="#F03100"/>
<path d="M326.401 226.471C327.294 228.739 325.854 231.22 323.44 231.56C314.522 232.813 305.478 232.813 296.56 231.56C294.146 231.22 292.706 228.739 293.599 226.471C296.992 217.858 301.504 209.726 306.999 202.341C308.504 200.317 311.496 200.317 313.001 202.341C318.496 209.726 323.008 217.858 326.401 226.471Z" fill="#F03100"/>
<path d="M305.824 224.5V211.409H314.339V213.397H308.196V216.951H313.898V218.939H308.196V222.512H314.39V224.5H305.824Z" fill="white"/>
<path d="M378 218C378.552 218 379 217.552 379 217C379 216.448 378.552 216 378 216V218ZM326 216C325.448 216 325 216.448 325 217C325 217.552 325.448 218 326 218V216ZM377.951 216C377.399 216 376.951 216.448 376.951 217C376.951 217.552 377.399 218 377.951 218V216ZM374.049 218C374.601 218 375.049 217.552 375.049 217C375.049 216.448 374.601 216 374.049 216V218ZM373.951 216C373.399 216 372.951 216.448 372.951 217C372.951 217.552 373.399 218 373.951 218V216ZM370.049 218C370.601 218 371.049 217.552 371.049 217C371.049 216.448 370.601 216 370.049 216V218ZM369.951 216C369.399 216 368.951 216.448 368.951 217C368.951 217.552 369.399 218 369.951 218V216ZM366.049 218C366.601 218 367.049 217.552 367.049 217C367.049 216.448 366.601 216 366.049 216V218ZM365.951 216C365.399 216 364.951 216.448 364.951 217C364.951 217.552 365.399 218 365.951 218V216ZM362.049 218C362.601 218 363.049 217.552 363.049 217C363.049 216.448 362.601 216 362.049 216V218ZM361.951 216C361.399 216 360.951 216.448 360.951 217C360.951 217.552 361.399 218 361.951 218V216ZM358.049 218C358.601 218 359.049 217.552 359.049 217C359.049 216.448 358.601 216 358.049 216V218ZM357.951 216C357.399 216 356.951 216.448 356.951 217C356.951 217.552 357.399 218 357.951 218V216ZM354.049 218C354.601 218 355.049 217.552 355.049 217C355.049 216.448 354.601 216 354.049 216V218ZM353.951 216C353.399 216 352.951 216.448 352.951 217C352.951 217.552 353.399 218 353.951 218V216ZM350.049 218C350.601 218 351.049 217.552 351.049 217C351.049 216.448 350.601 216 350.049 216V218ZM349.951 216C349.399 216 348.951 216.448 348.951 217C348.951 217.552 349.399 218 349.951 218V216ZM346.049 218C346.601 218 347.049 217.552 347.049 217C347.049 216.448 346.601 216 346.049 216V218ZM345.951 216C345.399 216 344.951 216.448 344.951 217C344.951 217.552 345.399 218 345.951 218V216ZM342.049 218C342.601 218 343.049 217.552 343.049 217C343.049 216.448 342.601 216 342.049 216V218ZM341.951 216C341.399 216 340.951 216.448 340.951 217C340.951 217.552 341.399 218 341.951 218V216ZM338.049 218C338.601 218 339.049 217.552 339.049 217C339.049 216.448 338.601 216 338.049 216V218ZM337.951 216C337.399 216 336.951 216.448 336.951 217C336.951 217.552 337.399 218 337.951 218V216ZM334.049 218C334.601 218 335.049 217.552 335.049 217C335.049 216.448 334.601 216 334.049 216V218ZM333.951 216C333.399 216 332.951 216.448 332.951 217C332.951 217.552 333.399 218 333.951 218V216ZM330.049 218C330.601 218 331.049 217.552 331.049 217C331.049 216.448 330.601 216 330.049 216V218ZM329.951 216C329.399 216 328.951 216.448 328.951 217C328.951 217.552 329.399 218 329.951 218V216ZM326.049 218C326.601 218 327.049 217.552 327.049 217C327.049 216.448 326.601 216 326.049 216V218ZM378 216H377.951V218H378V216ZM374.049 216H373.951V218H374.049V216ZM370.049 216H369.951V218H370.049V216ZM366.049 216H365.951V218H366.049V216ZM362.049 216H361.951V218H362.049V216ZM358.049 216H357.951V218H358.049V216ZM354.049 216H353.951V218H354.049V216ZM350.049 216H349.951V218H350.049V216ZM346.049 216H345.951V218H346.049V216ZM342.049 216H341.951V218H342.049V216ZM338.049 216H337.951V218H338.049V216ZM334.049 216H333.951V218H334.049V216ZM330.049 216H329.951V218H330.049V216ZM326.049 216H326V218H326.049V216Z" fill="#F03100"/>
<path d="M15.108 157.5H11.3409V145.864H15.2273C16.3674 145.864 17.3466 146.097 18.1648 146.562C18.983 147.025 19.6098 147.689 20.0455 148.557C20.4848 149.42 20.7045 150.456 20.7045 151.665C20.7045 152.877 20.483 153.919 20.0398 154.79C19.6004 155.661 18.964 156.331 18.1307 156.801C17.2973 157.267 16.2898 157.5 15.108 157.5ZM13.0966 155.966H15.0114C15.8977 155.966 16.6345 155.799 17.2216 155.466C17.8087 155.129 18.2481 154.642 18.5398 154.006C18.8314 153.366 18.9773 152.585 18.9773 151.665C18.9773 150.752 18.8314 149.977 18.5398 149.341C18.2519 148.705 17.822 148.222 17.25 147.892C16.678 147.562 15.9678 147.398 15.1193 147.398H13.0966V155.966ZM26.5128 157.676C25.6529 157.676 24.9124 157.492 24.2912 157.125C23.6738 156.754 23.1965 156.233 22.8594 155.562C22.526 154.888 22.3594 154.098 22.3594 153.193C22.3594 152.299 22.526 151.511 22.8594 150.83C23.1965 150.148 23.6662 149.616 24.2685 149.233C24.8745 148.85 25.5829 148.659 26.3935 148.659C26.8859 148.659 27.3632 148.741 27.8253 148.903C28.2874 149.066 28.7022 149.322 29.0696 149.67C29.437 150.019 29.7268 150.472 29.9389 151.028C30.151 151.581 30.2571 152.254 30.2571 153.045V153.648H23.3196V152.375H28.5923C28.5923 151.928 28.5014 151.532 28.3196 151.188C28.1378 150.839 27.8821 150.564 27.5526 150.364C27.2268 150.163 26.8442 150.062 26.4048 150.062C25.9276 150.062 25.5109 150.18 25.1548 150.415C24.8026 150.646 24.5298 150.949 24.3366 151.324C24.1473 151.695 24.0526 152.098 24.0526 152.534V153.528C24.0526 154.112 24.1548 154.608 24.3594 155.017C24.5677 155.426 24.8575 155.739 25.2287 155.955C25.5999 156.167 26.0336 156.273 26.5298 156.273C26.8518 156.273 27.1454 156.227 27.4105 156.136C27.6757 156.042 27.9048 155.902 28.098 155.716C28.2912 155.53 28.4389 155.301 28.5412 155.028L30.1491 155.318C30.0204 155.792 29.7893 156.206 29.456 156.562C29.1264 156.915 28.7116 157.189 28.2116 157.386C27.7154 157.58 27.1491 157.676 26.5128 157.676ZM39.358 148.773L36.1932 157.5H34.375L31.2045 148.773H33.0284L35.2386 155.489H35.3295L37.5341 148.773H39.358ZM44.419 157.676C43.5592 157.676 42.8187 157.492 42.1974 157.125C41.58 156.754 41.1027 156.233 40.7656 155.562C40.4323 154.888 40.2656 154.098 40.2656 153.193C40.2656 152.299 40.4323 151.511 40.7656 150.83C41.1027 150.148 41.5724 149.616 42.1747 149.233C42.7808 148.85 43.4891 148.659 44.2997 148.659C44.7921 148.659 45.2694 148.741 45.7315 148.903C46.1937 149.066 46.6084 149.322 46.9759 149.67C47.3433 150.019 47.633 150.472 47.8452 151.028C48.0573 151.581 48.1634 152.254 48.1634 153.045V153.648H41.2259V152.375H46.4986C46.4986 151.928 46.4077 151.532 46.2259 151.188C46.044 150.839 45.7884 150.564 45.4588 150.364C45.133 150.163 44.7505 150.062 44.3111 150.062C43.8338 150.062 43.4171 150.18 43.0611 150.415C42.7088 150.646 42.4361 150.949 42.2429 151.324C42.0535 151.695 41.9588 152.098 41.9588 152.534V153.528C41.9588 154.112 42.0611 154.608 42.2656 155.017C42.474 155.426 42.7637 155.739 43.1349 155.955C43.5062 156.167 43.9399 156.273 44.4361 156.273C44.758 156.273 45.0516 156.227 45.3168 156.136C45.5819 156.042 45.8111 155.902 46.0043 155.716C46.1974 155.53 46.3452 155.301 46.4474 155.028L48.0554 155.318C47.9266 155.792 47.6955 156.206 47.3622 156.562C47.0327 156.915 46.6179 157.189 46.1179 157.386C45.6217 157.58 45.0554 157.676 44.419 157.676ZM51.7472 145.864V157.5H50.0483V145.864H51.7472ZM57.7088 157.676C56.8906 157.676 56.1766 157.489 55.5668 157.114C54.9569 156.739 54.4834 156.214 54.1463 155.54C53.8092 154.866 53.6406 154.078 53.6406 153.176C53.6406 152.271 53.8092 151.479 54.1463 150.801C54.4834 150.123 54.9569 149.597 55.5668 149.222C56.1766 148.847 56.8906 148.659 57.7088 148.659C58.527 148.659 59.241 148.847 59.8509 149.222C60.4607 149.597 60.9342 150.123 61.2713 150.801C61.6084 151.479 61.777 152.271 61.777 153.176C61.777 154.078 61.6084 154.866 61.2713 155.54C60.9342 156.214 60.4607 156.739 59.8509 157.114C59.241 157.489 58.527 157.676 57.7088 157.676ZM57.7145 156.25C58.2448 156.25 58.6842 156.11 59.0327 155.83C59.3812 155.549 59.6387 155.176 59.8054 154.71C59.9759 154.244 60.0611 153.731 60.0611 153.17C60.0611 152.614 59.9759 152.102 59.8054 151.636C59.6387 151.167 59.3812 150.79 59.0327 150.506C58.6842 150.222 58.2448 150.08 57.7145 150.08C57.1804 150.08 56.7372 150.222 56.3849 150.506C56.0365 150.79 55.777 151.167 55.6065 151.636C55.4399 152.102 55.3565 152.614 55.3565 153.17C55.3565 153.731 55.4399 154.244 55.6065 154.71C55.777 155.176 56.0365 155.549 56.3849 155.83C56.7372 156.11 57.1804 156.25 57.7145 156.25ZM63.6733 160.773V148.773H65.3324V150.188H65.4744C65.5729 150.006 65.715 149.795 65.9006 149.557C66.0862 149.318 66.3438 149.11 66.6733 148.932C67.0028 148.75 67.4384 148.659 67.9801 148.659C68.6847 148.659 69.3134 148.837 69.8665 149.193C70.4195 149.549 70.8532 150.062 71.1676 150.733C71.4858 151.403 71.6449 152.21 71.6449 153.153C71.6449 154.097 71.4877 154.905 71.1733 155.58C70.8589 156.25 70.4271 156.767 69.8778 157.131C69.3286 157.491 68.7017 157.67 67.9972 157.67C67.4669 157.67 67.0331 157.581 66.696 157.403C66.3627 157.225 66.1013 157.017 65.9119 156.778C65.7225 156.54 65.5767 156.328 65.4744 156.142H65.3722V160.773H63.6733ZM65.3381 153.136C65.3381 153.75 65.4271 154.288 65.6051 154.75C65.7831 155.212 66.0407 155.574 66.3778 155.835C66.715 156.093 67.1278 156.222 67.6165 156.222C68.1241 156.222 68.5483 156.087 68.8892 155.818C69.2301 155.545 69.4877 155.176 69.6619 154.71C69.84 154.244 69.929 153.72 69.929 153.136C69.929 152.561 69.8419 152.044 69.6676 151.585C69.4972 151.127 69.2396 150.765 68.8949 150.5C68.554 150.235 68.1278 150.102 67.6165 150.102C67.1241 150.102 66.7074 150.229 66.3665 150.483C66.0294 150.737 65.7737 151.091 65.5994 151.545C65.4252 152 65.3381 152.53 65.3381 153.136ZM77.3097 157.676C76.4498 157.676 75.7093 157.492 75.0881 157.125C74.4706 156.754 73.9934 156.233 73.6562 155.562C73.3229 154.888 73.1562 154.098 73.1562 153.193C73.1562 152.299 73.3229 151.511 73.6562 150.83C73.9934 150.148 74.4631 149.616 75.0653 149.233C75.6714 148.85 76.3797 148.659 77.1903 148.659C77.6828 148.659 78.16 148.741 78.6222 148.903C79.0843 149.066 79.4991 149.322 79.8665 149.67C80.2339 150.019 80.5237 150.472 80.7358 151.028C80.9479 151.581 81.054 152.254 81.054 153.045V153.648H74.1165V152.375H79.3892C79.3892 151.928 79.2983 151.532 79.1165 151.188C78.9347 150.839 78.679 150.564 78.3494 150.364C78.0237 150.163 77.6411 150.062 77.2017 150.062C76.7244 150.062 76.3078 150.18 75.9517 150.415C75.5994 150.646 75.3267 150.949 75.1335 151.324C74.9441 151.695 74.8494 152.098 74.8494 152.534V153.528C74.8494 154.112 74.9517 154.608 75.1562 155.017C75.3646 155.426 75.6544 155.739 76.0256 155.955C76.3968 156.167 76.8305 156.273 77.3267 156.273C77.6487 156.273 77.9422 156.227 78.2074 156.136C78.4725 156.042 78.7017 155.902 78.8949 155.716C79.0881 155.53 79.2358 155.301 79.3381 155.028L80.946 155.318C80.8172 155.792 80.5862 156.206 80.2528 156.562C79.9233 156.915 79.5085 157.189 79.0085 157.386C78.5123 157.58 77.946 157.676 77.3097 157.676ZM82.9389 157.5V148.773H84.581V150.159H84.6719C84.831 149.689 85.1113 149.32 85.5128 149.051C85.9181 148.778 86.3764 148.642 86.8878 148.642C86.9938 148.642 87.1188 148.646 87.2628 148.653C87.4105 148.661 87.526 148.67 87.6094 148.682V150.307C87.5412 150.288 87.42 150.267 87.2457 150.244C87.0715 150.218 86.8973 150.205 86.723 150.205C86.3215 150.205 85.9635 150.29 85.6491 150.46C85.3385 150.627 85.0923 150.86 84.9105 151.159C84.7287 151.455 84.6378 151.792 84.6378 152.17V157.5H82.9389Z" fill="#102B2D"/>
<path d="M104 152L150 152" stroke="#10C800" stroke-linejoin="round"/>
<path d="M125 146L131 152L125 158" stroke="#10C800" stroke-linecap="square" stroke-linejoin="round"/>
<path d="M194.19 150.062C194.137 149.566 193.914 149.18 193.52 148.903C193.13 148.627 192.622 148.489 191.997 148.489C191.558 148.489 191.181 148.555 190.866 148.688C190.552 148.82 190.312 149 190.145 149.227C189.978 149.455 189.893 149.714 189.889 150.006C189.889 150.248 189.944 150.458 190.054 150.636C190.168 150.814 190.321 150.966 190.514 151.091C190.707 151.212 190.921 151.314 191.156 151.398C191.391 151.481 191.628 151.551 191.866 151.608L192.957 151.881C193.397 151.983 193.819 152.121 194.224 152.295C194.634 152.47 194.999 152.689 195.321 152.955C195.647 153.22 195.904 153.54 196.094 153.915C196.283 154.29 196.378 154.729 196.378 155.233C196.378 155.915 196.204 156.515 195.855 157.034C195.507 157.549 195.003 157.953 194.344 158.244C193.688 158.532 192.895 158.676 191.963 158.676C191.058 158.676 190.272 158.536 189.605 158.256C188.942 157.975 188.423 157.566 188.048 157.028C187.677 156.491 187.476 155.835 187.446 155.062H189.52C189.55 155.468 189.675 155.805 189.895 156.074C190.115 156.343 190.401 156.544 190.753 156.676C191.109 156.809 191.507 156.875 191.946 156.875C192.404 156.875 192.806 156.807 193.151 156.67C193.499 156.53 193.772 156.337 193.969 156.091C194.166 155.841 194.266 155.549 194.27 155.216C194.266 154.913 194.177 154.663 194.003 154.466C193.829 154.265 193.584 154.098 193.27 153.966C192.959 153.83 192.596 153.708 192.179 153.602L190.855 153.261C189.897 153.015 189.139 152.642 188.582 152.142C188.029 151.638 187.753 150.97 187.753 150.136C187.753 149.451 187.938 148.85 188.31 148.335C188.685 147.82 189.194 147.42 189.838 147.136C190.482 146.848 191.211 146.705 192.026 146.705C192.851 146.705 193.575 146.848 194.196 147.136C194.821 147.42 195.312 147.816 195.668 148.324C196.024 148.828 196.207 149.407 196.219 150.062H194.19ZM201.973 158.67C201.121 158.67 200.382 158.483 199.757 158.108C199.132 157.733 198.647 157.208 198.303 156.534C197.962 155.86 197.791 155.072 197.791 154.17C197.791 153.269 197.962 152.479 198.303 151.801C198.647 151.123 199.132 150.597 199.757 150.222C200.382 149.847 201.121 149.659 201.973 149.659C202.825 149.659 203.564 149.847 204.189 150.222C204.814 150.597 205.297 151.123 205.638 151.801C205.982 152.479 206.155 153.269 206.155 154.17C206.155 155.072 205.982 155.86 205.638 156.534C205.297 157.208 204.814 157.733 204.189 158.108C203.564 158.483 202.825 158.67 201.973 158.67ZM201.984 157.023C202.446 157.023 202.833 156.896 203.143 156.642C203.454 156.384 203.685 156.04 203.837 155.608C203.992 155.176 204.07 154.695 204.07 154.165C204.07 153.631 203.992 153.148 203.837 152.716C203.685 152.28 203.454 151.934 203.143 151.676C202.833 151.419 202.446 151.29 201.984 151.29C201.511 151.29 201.117 151.419 200.803 151.676C200.492 151.934 200.259 152.28 200.104 152.716C199.952 153.148 199.876 153.631 199.876 154.165C199.876 154.695 199.952 155.176 200.104 155.608C200.259 156.04 200.492 156.384 200.803 156.642C201.117 156.896 201.511 157.023 201.984 157.023ZM213.463 154.83V149.773H215.52V158.5H213.526V156.949H213.435C213.238 157.437 212.914 157.837 212.463 158.148C212.016 158.458 211.465 158.614 210.81 158.614C210.238 158.614 209.732 158.487 209.293 158.233C208.857 157.975 208.516 157.602 208.27 157.114C208.024 156.621 207.901 156.027 207.901 155.33V149.773H209.957V155.011C209.957 155.564 210.109 156.004 210.412 156.33C210.715 156.655 211.113 156.818 211.605 156.818C211.908 156.818 212.202 156.744 212.486 156.597C212.77 156.449 213.003 156.229 213.185 155.938C213.37 155.642 213.463 155.273 213.463 154.83ZM217.635 158.5V149.773H219.629V151.227H219.72C219.879 150.723 220.152 150.335 220.538 150.062C220.929 149.786 221.374 149.648 221.874 149.648C221.987 149.648 222.114 149.653 222.254 149.665C222.398 149.672 222.518 149.686 222.612 149.705V151.597C222.525 151.566 222.387 151.54 222.197 151.517C222.012 151.491 221.832 151.477 221.658 151.477C221.283 151.477 220.946 151.559 220.646 151.722C220.351 151.881 220.118 152.102 219.947 152.386C219.777 152.67 219.692 152.998 219.692 153.369V158.5H217.635ZM227.426 158.67C226.555 158.67 225.807 158.479 225.182 158.097C224.561 157.714 224.081 157.186 223.744 156.511C223.411 155.833 223.244 155.053 223.244 154.17C223.244 153.284 223.415 152.502 223.756 151.824C224.097 151.142 224.578 150.612 225.199 150.233C225.824 149.85 226.563 149.659 227.415 149.659C228.123 149.659 228.75 149.79 229.295 150.051C229.845 150.309 230.282 150.674 230.608 151.148C230.934 151.617 231.119 152.167 231.165 152.795H229.199C229.119 152.375 228.93 152.025 228.631 151.744C228.335 151.46 227.939 151.318 227.443 151.318C227.023 151.318 226.653 151.432 226.335 151.659C226.017 151.883 225.769 152.205 225.591 152.625C225.417 153.045 225.33 153.549 225.33 154.136C225.33 154.731 225.417 155.242 225.591 155.67C225.765 156.095 226.009 156.422 226.324 156.653C226.642 156.881 227.015 156.994 227.443 156.994C227.746 156.994 228.017 156.937 228.256 156.824C228.498 156.706 228.701 156.538 228.864 156.318C229.027 156.098 229.138 155.831 229.199 155.517H231.165C231.116 156.134 230.934 156.682 230.619 157.159C230.305 157.633 229.877 158.004 229.335 158.273C228.794 158.538 228.157 158.67 227.426 158.67ZM236.717 158.67C235.842 158.67 235.087 158.489 234.45 158.125C233.818 157.758 233.331 157.239 232.99 156.568C232.649 155.894 232.479 155.1 232.479 154.188C232.479 153.29 232.649 152.502 232.99 151.824C233.335 151.142 233.816 150.612 234.433 150.233C235.051 149.85 235.776 149.659 236.609 149.659C237.147 149.659 237.655 149.746 238.132 149.92C238.613 150.091 239.037 150.356 239.405 150.716C239.776 151.076 240.068 151.534 240.28 152.091C240.492 152.644 240.598 153.303 240.598 154.068V154.699H233.445V153.312H238.626C238.623 152.919 238.537 152.568 238.371 152.261C238.204 151.951 237.971 151.706 237.672 151.528C237.376 151.35 237.032 151.261 236.638 151.261C236.217 151.261 235.848 151.364 235.53 151.568C235.212 151.769 234.964 152.034 234.786 152.364C234.611 152.689 234.522 153.047 234.518 153.438V154.648C234.518 155.155 234.611 155.591 234.797 155.955C234.982 156.314 235.242 156.591 235.575 156.784C235.909 156.973 236.299 157.068 236.746 157.068C237.045 157.068 237.316 157.027 237.558 156.943C237.801 156.856 238.011 156.729 238.189 156.562C238.367 156.396 238.501 156.189 238.592 155.943L240.513 156.159C240.392 156.667 240.161 157.11 239.82 157.489C239.482 157.864 239.051 158.155 238.524 158.364C237.998 158.568 237.395 158.67 236.717 158.67Z" fill="#102B2D"/>
<rect x="155" y="115" width="118" height="74" rx="7" stroke="#58DA95" stroke-width="2"/>
<path d="M278 152L342 152" stroke="#10C800" stroke-linejoin="round"/>
<path d="M308 146L314 152L308 158" stroke="#10C800" stroke-linecap="square" stroke-linejoin="round"/>
<mask id="path-36-inside-1_580_1324" fill="white">
<path fill-rule="evenodd" clip-rule="evenodd" d="M346.345 154.071C351.164 167.828 359.776 179.884 371.149 188.798C372.234 189.648 373.575 190.082 374.944 190.082H408.643H409.643V190.004C410.655 189.844 411.619 189.44 412.438 188.798C423.811 179.884 432.423 167.828 437.242 154.071C437.702 152.758 437.702 151.324 437.242 150.012C432.423 136.255 423.811 124.198 412.438 115.284C411.619 114.643 410.655 114.238 409.643 114.078V114H408.643H374.944C373.575 114 372.234 114.434 371.149 115.284C359.776 124.198 351.164 136.255 346.345 150.012C345.885 151.324 345.885 152.758 346.345 154.071Z"/>
</mask>
<path d="M371.149 188.798L372.383 187.224L372.383 187.224L371.149 188.798ZM346.345 154.071L348.232 153.409V153.409L346.345 154.071ZM409.643 190.082V192.082H411.643V190.082H409.643ZM409.643 190.004L409.33 188.029L407.643 188.295V190.004H409.643ZM412.438 188.798L411.204 187.224V187.224L412.438 188.798ZM437.242 154.071L435.355 153.409V153.409L437.242 154.071ZM437.242 150.012L435.355 150.673V150.673L437.242 150.012ZM412.438 115.284L413.671 113.71V113.71L412.438 115.284ZM409.643 114.078H407.643V115.787L409.33 116.054L409.643 114.078ZM409.643 114H411.643V112H409.643V114ZM371.149 115.284L372.383 116.859V116.859L371.149 115.284ZM346.345 150.012L348.232 150.673L348.232 150.673L346.345 150.012ZM372.383 187.224C361.313 178.548 352.927 166.809 348.232 153.409L344.457 154.732C349.402 168.846 358.239 181.221 369.916 190.372L372.383 187.224ZM374.944 188.082C373.995 188.082 373.095 187.782 372.383 187.224L369.916 190.372C371.373 191.514 373.154 192.082 374.944 192.082V188.082ZM408.643 188.082H374.944V192.082H408.643V188.082ZM409.643 188.082H408.643V192.082H409.643V188.082ZM407.643 190.004V190.082H411.643V190.004H407.643ZM409.955 191.98C411.287 191.769 412.572 191.234 413.671 190.372L411.204 187.224C410.666 187.645 410.023 187.919 409.33 188.029L409.955 191.98ZM413.671 190.372C425.348 181.221 434.185 168.846 439.13 154.732L435.355 153.409C430.66 166.809 422.274 178.548 411.204 187.224L413.671 190.372ZM439.13 154.732C439.739 152.991 439.739 151.091 439.13 149.35L435.355 150.673C435.664 151.557 435.664 152.525 435.355 153.409L439.13 154.732ZM439.13 149.35C434.185 135.236 425.348 122.862 413.671 113.71L411.204 116.859C422.274 125.534 430.66 137.273 435.355 150.673L439.13 149.35ZM413.671 113.71C412.572 112.849 411.287 112.313 409.955 112.103L409.33 116.054C410.023 116.163 410.666 116.437 411.204 116.859L413.671 113.71ZM407.643 114V114.078H411.643V114H407.643ZM408.643 116H409.643V112H408.643V116ZM374.944 116H408.643V112H374.944V116ZM372.383 116.859C373.095 116.3 373.995 116 374.944 116V112C373.154 112 371.373 112.568 369.916 113.71L372.383 116.859ZM348.232 150.673C352.927 137.273 361.313 125.534 372.383 116.859L369.916 113.71C358.239 122.862 349.402 135.236 344.457 149.35L348.232 150.673ZM348.232 153.409C347.923 152.525 347.923 151.557 348.232 150.673L344.457 149.35C343.848 151.091 343.848 152.991 344.457 154.732L348.232 153.409Z" fill="#58DA95" mask="url(#path-36-inside-1_580_1324)"/>
<path d="M374.312 159V147.364H378.766C379.607 147.364 380.306 147.496 380.863 147.761C381.424 148.023 381.842 148.381 382.119 148.835C382.399 149.29 382.539 149.805 382.539 150.381C382.539 150.854 382.448 151.259 382.266 151.597C382.085 151.93 381.84 152.201 381.533 152.409C381.227 152.617 380.884 152.767 380.505 152.858V152.972C380.918 152.994 381.314 153.121 381.692 153.352C382.075 153.58 382.388 153.902 382.63 154.318C382.872 154.735 382.994 155.239 382.994 155.83C382.994 156.432 382.848 156.973 382.556 157.455C382.264 157.932 381.825 158.309 381.238 158.585C380.651 158.862 379.912 159 379.022 159H374.312ZM376.42 157.239H378.687C379.452 157.239 380.003 157.093 380.34 156.801C380.681 156.506 380.852 156.127 380.852 155.665C380.852 155.32 380.766 155.009 380.596 154.733C380.425 154.453 380.183 154.233 379.869 154.074C379.554 153.911 379.179 153.83 378.744 153.83H376.42V157.239ZM376.42 152.312H378.505C378.869 152.312 379.196 152.246 379.488 152.114C379.78 151.977 380.009 151.786 380.175 151.54C380.346 151.29 380.431 150.994 380.431 150.653C380.431 150.203 380.272 149.831 379.954 149.54C379.639 149.248 379.172 149.102 378.55 149.102H376.42V152.312ZM390.299 155.33V150.273H392.356V159H390.362V157.449H390.271C390.074 157.937 389.75 158.337 389.299 158.648C388.852 158.958 388.301 159.114 387.646 159.114C387.074 159.114 386.568 158.987 386.129 158.733C385.693 158.475 385.352 158.102 385.106 157.614C384.86 157.121 384.737 156.527 384.737 155.83V150.273H386.793V155.511C386.793 156.064 386.945 156.504 387.248 156.83C387.551 157.155 387.949 157.318 388.441 157.318C388.744 157.318 389.038 157.244 389.322 157.097C389.606 156.949 389.839 156.729 390.021 156.438C390.206 156.142 390.299 155.773 390.299 155.33ZM394.471 159V150.273H396.528V159H394.471ZM395.505 149.034C395.179 149.034 394.899 148.926 394.664 148.71C394.429 148.491 394.312 148.227 394.312 147.92C394.312 147.61 394.429 147.347 394.664 147.131C394.899 146.911 395.179 146.801 395.505 146.801C395.835 146.801 396.115 146.911 396.346 147.131C396.581 147.347 396.698 147.61 396.698 147.92C396.698 148.227 396.581 148.491 396.346 148.71C396.115 148.926 395.835 149.034 395.505 149.034ZM400.7 147.364V159H398.643V147.364H400.7ZM406.053 159.153C405.368 159.153 404.754 158.977 404.212 158.625C403.671 158.273 403.243 157.761 402.928 157.091C402.614 156.42 402.457 155.606 402.457 154.648C402.457 153.678 402.616 152.86 402.934 152.193C403.256 151.523 403.69 151.017 404.235 150.676C404.781 150.331 405.388 150.159 406.059 150.159C406.57 150.159 406.991 150.246 407.32 150.42C407.65 150.591 407.911 150.797 408.104 151.04C408.298 151.278 408.447 151.504 408.553 151.716H408.638V147.364H410.701V159H408.678V157.625H408.553C408.447 157.837 408.294 158.062 408.093 158.301C407.892 158.536 407.627 158.737 407.298 158.903C406.968 159.07 406.553 159.153 406.053 159.153ZM406.627 157.466C407.063 157.466 407.434 157.348 407.741 157.114C408.048 156.875 408.281 156.544 408.44 156.119C408.599 155.695 408.678 155.201 408.678 154.636C408.678 154.072 408.599 153.581 408.44 153.165C408.284 152.748 408.053 152.424 407.746 152.193C407.443 151.962 407.07 151.847 406.627 151.847C406.169 151.847 405.786 151.966 405.479 152.205C405.173 152.443 404.942 152.773 404.786 153.193C404.631 153.614 404.553 154.095 404.553 154.636C404.553 155.182 404.631 155.669 404.786 156.097C404.945 156.521 405.178 156.856 405.485 157.102C405.796 157.345 406.176 157.466 406.627 157.466Z" fill="#102B2D"/>
<path d="M442 152L506 152" stroke="#10C800" stroke-linejoin="round"/>
<path d="M472 146L478 152L472 158" stroke="#10C800" stroke-linecap="square" stroke-linejoin="round"/>
<path d="M537.476 157V145.364H541.839C542.733 145.364 543.483 145.53 544.089 145.864C544.699 146.197 545.16 146.655 545.47 147.239C545.785 147.818 545.942 148.477 545.942 149.216C545.942 149.962 545.785 150.625 545.47 151.205C545.156 151.784 544.692 152.241 544.078 152.574C543.464 152.903 542.709 153.068 541.811 153.068H538.919V151.335H541.527C542.05 151.335 542.478 151.244 542.811 151.062C543.144 150.881 543.391 150.631 543.55 150.312C543.713 149.994 543.794 149.629 543.794 149.216C543.794 148.803 543.713 148.439 543.55 148.125C543.391 147.811 543.143 147.566 542.805 147.392C542.472 147.214 542.042 147.125 541.516 147.125H539.584V157H537.476ZM550.037 157.176C549.484 157.176 548.986 157.078 548.543 156.881C548.103 156.68 547.755 156.384 547.497 155.994C547.243 155.604 547.116 155.123 547.116 154.551C547.116 154.059 547.207 153.652 547.389 153.33C547.571 153.008 547.819 152.75 548.134 152.557C548.448 152.364 548.802 152.218 549.196 152.119C549.594 152.017 550.005 151.943 550.429 151.898C550.94 151.845 551.355 151.797 551.673 151.756C551.991 151.71 552.223 151.642 552.366 151.551C552.514 151.456 552.588 151.311 552.588 151.114V151.08C552.588 150.652 552.461 150.32 552.207 150.085C551.954 149.85 551.588 149.733 551.111 149.733C550.607 149.733 550.207 149.843 549.912 150.062C549.62 150.282 549.423 150.542 549.321 150.841L547.401 150.568C547.552 150.038 547.802 149.595 548.151 149.239C548.499 148.879 548.925 148.61 549.429 148.432C549.933 148.25 550.49 148.159 551.099 148.159C551.52 148.159 551.938 148.208 552.355 148.307C552.772 148.405 553.152 148.568 553.497 148.795C553.842 149.019 554.118 149.324 554.327 149.71C554.539 150.097 554.645 150.58 554.645 151.159V157H552.668V155.801H552.599C552.474 156.044 552.298 156.271 552.071 156.483C551.848 156.691 551.565 156.86 551.224 156.989C550.887 157.114 550.491 157.176 550.037 157.176ZM550.571 155.665C550.984 155.665 551.342 155.583 551.645 155.42C551.948 155.254 552.181 155.034 552.344 154.761C552.51 154.489 552.594 154.191 552.594 153.869V152.841C552.529 152.894 552.42 152.943 552.264 152.989C552.113 153.034 551.942 153.074 551.753 153.108C551.563 153.142 551.376 153.172 551.19 153.199C551.005 153.225 550.844 153.248 550.707 153.267C550.401 153.309 550.126 153.377 549.884 153.472C549.641 153.566 549.45 153.699 549.31 153.869C549.17 154.036 549.099 154.252 549.099 154.517C549.099 154.896 549.238 155.182 549.514 155.375C549.791 155.568 550.143 155.665 550.571 155.665ZM560.52 157.17C559.649 157.17 558.901 156.979 558.276 156.597C557.654 156.214 557.175 155.686 556.838 155.011C556.505 154.333 556.338 153.553 556.338 152.67C556.338 151.784 556.509 151.002 556.849 150.324C557.19 149.642 557.671 149.112 558.293 148.733C558.918 148.35 559.656 148.159 560.509 148.159C561.217 148.159 561.844 148.29 562.389 148.551C562.938 148.809 563.376 149.174 563.702 149.648C564.027 150.117 564.213 150.667 564.259 151.295H562.293C562.213 150.875 562.024 150.525 561.724 150.244C561.429 149.96 561.033 149.818 560.537 149.818C560.116 149.818 559.747 149.932 559.429 150.159C559.111 150.383 558.863 150.705 558.685 151.125C558.51 151.545 558.423 152.049 558.423 152.636C558.423 153.231 558.51 153.742 558.685 154.17C558.859 154.595 559.103 154.922 559.418 155.153C559.736 155.381 560.109 155.494 560.537 155.494C560.84 155.494 561.111 155.437 561.349 155.324C561.592 155.206 561.795 155.038 561.957 154.818C562.12 154.598 562.232 154.331 562.293 154.017H564.259C564.209 154.634 564.027 155.182 563.713 155.659C563.399 156.133 562.971 156.504 562.429 156.773C561.887 157.038 561.251 157.17 560.52 157.17ZM567.822 154.261L567.817 151.778H568.146L571.283 148.273H573.686L569.828 152.568H569.402L567.822 154.261ZM565.947 157V145.364H568.004V157H565.947ZM571.425 157L568.584 153.028L569.97 151.58L573.885 157H571.425ZM577.568 157.176C577.015 157.176 576.517 157.078 576.074 156.881C575.634 156.68 575.286 156.384 575.028 155.994C574.775 155.604 574.648 155.123 574.648 154.551C574.648 154.059 574.739 153.652 574.92 153.33C575.102 153.008 575.35 152.75 575.665 152.557C575.979 152.364 576.333 152.218 576.727 152.119C577.125 152.017 577.536 151.943 577.96 151.898C578.472 151.845 578.886 151.797 579.205 151.756C579.523 151.71 579.754 151.642 579.898 151.551C580.045 151.456 580.119 151.311 580.119 151.114V151.08C580.119 150.652 579.992 150.32 579.739 150.085C579.485 149.85 579.119 149.733 578.642 149.733C578.138 149.733 577.739 149.843 577.443 150.062C577.152 150.282 576.955 150.542 576.852 150.841L574.932 150.568C575.083 150.038 575.333 149.595 575.682 149.239C576.03 148.879 576.456 148.61 576.96 148.432C577.464 148.25 578.021 148.159 578.631 148.159C579.051 148.159 579.47 148.208 579.886 148.307C580.303 148.405 580.684 148.568 581.028 148.795C581.373 149.019 581.65 149.324 581.858 149.71C582.07 150.097 582.176 150.58 582.176 151.159V157H580.199V155.801H580.131C580.006 156.044 579.83 156.271 579.602 156.483C579.379 156.691 579.097 156.86 578.756 156.989C578.419 157.114 578.023 157.176 577.568 157.176ZM578.102 155.665C578.515 155.665 578.873 155.583 579.176 155.42C579.479 155.254 579.712 155.034 579.875 154.761C580.042 154.489 580.125 154.191 580.125 153.869V152.841C580.061 152.894 579.951 152.943 579.795 152.989C579.644 153.034 579.473 153.074 579.284 153.108C579.095 153.142 578.907 153.172 578.722 153.199C578.536 153.225 578.375 153.248 578.239 153.267C577.932 153.309 577.657 153.377 577.415 153.472C577.172 153.566 576.981 153.699 576.841 153.869C576.701 154.036 576.631 154.252 576.631 154.517C576.631 154.896 576.769 155.182 577.045 155.375C577.322 155.568 577.674 155.665 578.102 155.665ZM588.04 160.455C587.301 160.455 586.667 160.354 586.136 160.153C585.606 159.956 585.18 159.691 584.858 159.358C584.536 159.025 584.312 158.655 584.188 158.25L586.04 157.801C586.123 157.972 586.244 158.14 586.403 158.307C586.563 158.477 586.777 158.617 587.045 158.727C587.318 158.841 587.661 158.898 588.074 158.898C588.657 158.898 589.14 158.756 589.523 158.472C589.905 158.191 590.097 157.729 590.097 157.085V155.432H589.994C589.888 155.644 589.733 155.862 589.528 156.085C589.328 156.309 589.061 156.496 588.727 156.648C588.398 156.799 587.983 156.875 587.483 156.875C586.812 156.875 586.205 156.718 585.659 156.403C585.117 156.085 584.686 155.612 584.364 154.983C584.045 154.35 583.886 153.559 583.886 152.608C583.886 151.65 584.045 150.841 584.364 150.182C584.686 149.519 585.119 149.017 585.665 148.676C586.21 148.331 586.818 148.159 587.489 148.159C588 148.159 588.42 148.246 588.75 148.42C589.083 148.591 589.348 148.797 589.545 149.04C589.742 149.278 589.892 149.504 589.994 149.716H590.108V148.273H592.136V157.142C592.136 157.888 591.958 158.506 591.602 158.994C591.246 159.483 590.759 159.848 590.142 160.091C589.525 160.333 588.824 160.455 588.04 160.455ZM588.057 155.261C588.492 155.261 588.864 155.155 589.17 154.943C589.477 154.731 589.71 154.426 589.869 154.028C590.028 153.631 590.108 153.153 590.108 152.597C590.108 152.047 590.028 151.566 589.869 151.153C589.714 150.741 589.483 150.42 589.176 150.193C588.873 149.962 588.5 149.847 588.057 149.847C587.598 149.847 587.216 149.966 586.909 150.205C586.602 150.443 586.371 150.771 586.216 151.188C586.061 151.6 585.983 152.07 585.983 152.597C585.983 153.131 586.061 153.598 586.216 154C586.375 154.398 586.608 154.708 586.915 154.932C587.225 155.152 587.606 155.261 588.057 155.261ZM598.108 157.17C597.233 157.17 596.477 156.989 595.841 156.625C595.208 156.258 594.722 155.739 594.381 155.068C594.04 154.394 593.869 153.6 593.869 152.688C593.869 151.79 594.04 151.002 594.381 150.324C594.725 149.642 595.206 149.112 595.824 148.733C596.441 148.35 597.167 148.159 598 148.159C598.538 148.159 599.045 148.246 599.523 148.42C600.004 148.591 600.428 148.856 600.795 149.216C601.167 149.576 601.458 150.034 601.67 150.591C601.883 151.144 601.989 151.803 601.989 152.568V153.199H594.835V151.812H600.017C600.013 151.419 599.928 151.068 599.761 150.761C599.595 150.451 599.362 150.206 599.062 150.028C598.767 149.85 598.422 149.761 598.028 149.761C597.608 149.761 597.239 149.864 596.92 150.068C596.602 150.269 596.354 150.534 596.176 150.864C596.002 151.189 595.913 151.547 595.909 151.938V153.148C595.909 153.655 596.002 154.091 596.188 154.455C596.373 154.814 596.633 155.091 596.966 155.284C597.299 155.473 597.689 155.568 598.136 155.568C598.436 155.568 598.706 155.527 598.949 155.443C599.191 155.356 599.402 155.229 599.58 155.062C599.758 154.896 599.892 154.689 599.983 154.443L601.903 154.659C601.782 155.167 601.551 155.61 601.21 155.989C600.873 156.364 600.441 156.655 599.915 156.864C599.388 157.068 598.786 157.17 598.108 157.17Z" fill="#102B2D"/>
<rect x="511" y="115" width="118" height="74" rx="7" stroke="#58DA95" stroke-width="2"/>
<path d="M634 152L680 152" stroke="#10C800" stroke-linejoin="round"/>
<path d="M655 146L661 152L655 158" stroke="#10C800" stroke-linecap="square" stroke-linejoin="round"/>
<path d="M706.076 149.648H704.303C704.235 149.269 704.108 148.936 703.923 148.648C703.737 148.36 703.51 148.116 703.241 147.915C702.972 147.714 702.671 147.562 702.337 147.46C702.008 147.358 701.657 147.307 701.286 147.307C700.616 147.307 700.015 147.475 699.485 147.812C698.959 148.15 698.542 148.644 698.235 149.295C697.932 149.947 697.781 150.742 697.781 151.682C697.781 152.629 697.932 153.428 698.235 154.08C698.542 154.731 698.96 155.223 699.491 155.557C700.021 155.89 700.618 156.057 701.281 156.057C701.648 156.057 701.996 156.008 702.326 155.909C702.659 155.807 702.96 155.657 703.229 155.46C703.498 155.263 703.726 155.023 703.911 154.739C704.101 154.451 704.231 154.121 704.303 153.75L706.076 153.756C705.981 154.328 705.798 154.854 705.525 155.335C705.256 155.812 704.909 156.225 704.485 156.574C704.065 156.919 703.584 157.186 703.042 157.375C702.5 157.564 701.909 157.659 701.269 157.659C700.262 157.659 699.364 157.42 698.576 156.943C697.788 156.462 697.167 155.775 696.712 154.881C696.262 153.987 696.036 152.92 696.036 151.682C696.036 150.439 696.263 149.373 696.718 148.483C697.173 147.589 697.794 146.903 698.582 146.426C699.37 145.945 700.265 145.705 701.269 145.705C701.887 145.705 702.462 145.794 702.996 145.972C703.534 146.146 704.017 146.403 704.445 146.744C704.873 147.081 705.228 147.494 705.508 147.983C705.788 148.468 705.978 149.023 706.076 149.648ZM711.717 157.676C710.898 157.676 710.184 157.489 709.575 157.114C708.965 156.739 708.491 156.214 708.154 155.54C707.817 154.866 707.648 154.078 707.648 153.176C707.648 152.271 707.817 151.479 708.154 150.801C708.491 150.123 708.965 149.597 709.575 149.222C710.184 148.847 710.898 148.659 711.717 148.659C712.535 148.659 713.249 148.847 713.859 149.222C714.469 149.597 714.942 150.123 715.279 150.801C715.616 151.479 715.785 152.271 715.785 153.176C715.785 154.078 715.616 154.866 715.279 155.54C714.942 156.214 714.469 156.739 713.859 157.114C713.249 157.489 712.535 157.676 711.717 157.676ZM711.722 156.25C712.253 156.25 712.692 156.11 713.04 155.83C713.389 155.549 713.647 155.176 713.813 154.71C713.984 154.244 714.069 153.731 714.069 153.17C714.069 152.614 713.984 152.102 713.813 151.636C713.647 151.167 713.389 150.79 713.04 150.506C712.692 150.222 712.253 150.08 711.722 150.08C711.188 150.08 710.745 150.222 710.393 150.506C710.044 150.79 709.785 151.167 709.614 151.636C709.448 152.102 709.364 152.614 709.364 153.17C709.364 153.731 709.448 154.244 709.614 154.71C709.785 155.176 710.044 155.549 710.393 155.83C710.745 156.11 711.188 156.25 711.722 156.25ZM719.38 152.318V157.5H717.681V148.773H719.312V150.193H719.42C719.621 149.731 719.935 149.36 720.363 149.08C720.795 148.799 721.338 148.659 721.994 148.659C722.588 148.659 723.109 148.784 723.556 149.034C724.003 149.28 724.35 149.648 724.596 150.136C724.842 150.625 724.965 151.229 724.965 151.949V157.5H723.266V152.153C723.266 151.521 723.102 151.027 722.772 150.67C722.442 150.311 721.99 150.131 721.414 150.131C721.02 150.131 720.67 150.216 720.363 150.386C720.06 150.557 719.819 150.807 719.641 151.136C719.467 151.462 719.38 151.856 719.38 152.318ZM733.783 150.903L732.244 151.176C732.179 150.979 732.077 150.792 731.937 150.614C731.8 150.436 731.615 150.29 731.38 150.176C731.145 150.062 730.852 150.006 730.499 150.006C730.018 150.006 729.617 150.114 729.295 150.33C728.973 150.542 728.812 150.816 728.812 151.153C728.812 151.445 728.92 151.68 729.136 151.858C729.352 152.036 729.7 152.182 730.181 152.295L731.567 152.614C732.371 152.799 732.969 153.085 733.363 153.472C733.757 153.858 733.954 154.36 733.954 154.977C733.954 155.5 733.802 155.966 733.499 156.375C733.2 156.78 732.781 157.098 732.244 157.33C731.71 157.561 731.09 157.676 730.386 157.676C729.408 157.676 728.611 157.468 727.994 157.051C727.376 156.631 726.997 156.034 726.857 155.261L728.499 155.011C728.602 155.439 728.812 155.763 729.13 155.983C729.448 156.199 729.863 156.307 730.374 156.307C730.931 156.307 731.376 156.191 731.71 155.96C732.043 155.725 732.21 155.439 732.21 155.102C732.21 154.83 732.107 154.6 731.903 154.415C731.702 154.229 731.393 154.089 730.977 153.994L729.499 153.67C728.685 153.485 728.083 153.189 727.692 152.784C727.306 152.379 727.113 151.866 727.113 151.244C727.113 150.729 727.257 150.278 727.545 149.892C727.833 149.506 728.23 149.205 728.738 148.989C729.246 148.769 729.827 148.659 730.482 148.659C731.425 148.659 732.168 148.864 732.71 149.273C733.251 149.678 733.609 150.222 733.783 150.903ZM741.35 153.881V148.773H743.055V157.5H741.384V155.989H741.293C741.093 156.455 740.771 156.843 740.327 157.153C739.888 157.46 739.341 157.614 738.685 157.614C738.125 157.614 737.629 157.491 737.197 157.244C736.769 156.994 736.432 156.625 736.185 156.136C735.943 155.648 735.822 155.044 735.822 154.324V148.773H737.521V154.119C737.521 154.714 737.685 155.187 738.015 155.54C738.344 155.892 738.772 156.068 739.299 156.068C739.617 156.068 739.933 155.989 740.248 155.83C740.566 155.67 740.829 155.43 741.038 155.108C741.25 154.786 741.354 154.377 741.35 153.881ZM745.337 157.5V148.773H746.968V150.193H747.076C747.258 149.712 747.555 149.337 747.968 149.068C748.381 148.795 748.875 148.659 749.451 148.659C750.034 148.659 750.523 148.795 750.917 149.068C751.315 149.341 751.608 149.716 751.798 150.193H751.888C752.097 149.727 752.428 149.356 752.883 149.08C753.337 148.799 753.879 148.659 754.508 148.659C755.299 148.659 755.945 148.907 756.445 149.403C756.949 149.9 757.201 150.648 757.201 151.648V157.5H755.502V151.807C755.502 151.216 755.341 150.788 755.019 150.523C754.697 150.258 754.313 150.125 753.866 150.125C753.313 150.125 752.883 150.295 752.576 150.636C752.269 150.973 752.116 151.407 752.116 151.938V157.5H750.423V151.699C750.423 151.225 750.275 150.845 749.979 150.557C749.684 150.269 749.299 150.125 748.826 150.125C748.504 150.125 748.207 150.21 747.934 150.381C747.665 150.547 747.447 150.78 747.281 151.08C747.118 151.379 747.036 151.725 747.036 152.119V157.5H745.337ZM763.239 157.676C762.379 157.676 761.639 157.492 761.018 157.125C760.4 156.754 759.923 156.233 759.586 155.562C759.253 154.888 759.086 154.098 759.086 153.193C759.086 152.299 759.253 151.511 759.586 150.83C759.923 150.148 760.393 149.616 760.995 149.233C761.601 148.85 762.309 148.659 763.12 148.659C763.612 148.659 764.09 148.741 764.552 148.903C765.014 149.066 765.429 149.322 765.796 149.67C766.164 150.019 766.453 150.472 766.665 151.028C766.878 151.581 766.984 152.254 766.984 153.045V153.648H760.046V152.375H765.319C765.319 151.928 765.228 151.532 765.046 151.188C764.864 150.839 764.609 150.564 764.279 150.364C763.953 150.163 763.571 150.062 763.131 150.062C762.654 150.062 762.237 150.18 761.881 150.415C761.529 150.646 761.256 150.949 761.063 151.324C760.874 151.695 760.779 152.098 760.779 152.534V153.528C760.779 154.112 760.881 154.608 761.086 155.017C761.294 155.426 761.584 155.739 761.955 155.955C762.326 156.167 762.76 156.273 763.256 156.273C763.578 156.273 763.872 156.227 764.137 156.136C764.402 156.042 764.631 155.902 764.825 155.716C765.018 155.53 765.165 155.301 765.268 155.028L766.876 155.318C766.747 155.792 766.516 156.206 766.183 156.562C765.853 156.915 765.438 157.189 764.938 157.386C764.442 157.58 763.876 157.676 763.239 157.676ZM768.869 157.5V148.773H770.511V150.159H770.602C770.761 149.689 771.041 149.32 771.442 149.051C771.848 148.778 772.306 148.642 772.817 148.642C772.924 148.642 773.049 148.646 773.192 148.653C773.34 148.661 773.456 148.67 773.539 148.682V150.307C773.471 150.288 773.35 150.267 773.175 150.244C773.001 150.218 772.827 150.205 772.653 150.205C772.251 150.205 771.893 150.29 771.579 150.46C771.268 150.627 771.022 150.86 770.84 151.159C770.658 151.455 770.567 151.792 770.567 152.17V157.5H768.869Z" fill="#102B2D"/>
<path d="M392.5 240L392.5 194" stroke="#10C800" stroke-linejoin="round"/>
<path d="M386.5 219L392.5 213L398.5 219" stroke="#10C800" stroke-linecap="square" stroke-linejoin="round"/>
<path d="M341.442 288.5H337.499V276.864H341.522C342.677 276.864 343.67 277.097 344.499 277.562C345.333 278.025 345.973 278.689 346.42 279.557C346.867 280.424 347.09 281.462 347.09 282.67C347.09 283.883 346.865 284.924 346.414 285.795C345.967 286.667 345.321 287.335 344.477 287.801C343.636 288.267 342.624 288.5 341.442 288.5ZM339.607 286.676H341.34C342.151 286.676 342.827 286.528 343.369 286.233C343.91 285.934 344.317 285.489 344.59 284.898C344.863 284.303 344.999 283.561 344.999 282.67C344.999 281.78 344.863 281.042 344.59 280.455C344.317 279.864 343.914 279.422 343.38 279.131C342.85 278.835 342.191 278.688 341.403 278.688H339.607V286.676ZM352.866 288.67C351.991 288.67 351.235 288.489 350.599 288.125C349.966 287.758 349.479 287.239 349.138 286.568C348.798 285.894 348.627 285.1 348.627 284.188C348.627 283.29 348.798 282.502 349.138 281.824C349.483 281.142 349.964 280.612 350.582 280.233C351.199 279.85 351.924 279.659 352.758 279.659C353.296 279.659 353.803 279.746 354.281 279.92C354.762 280.091 355.186 280.356 355.553 280.716C355.924 281.076 356.216 281.534 356.428 282.091C356.64 282.644 356.746 283.303 356.746 284.068V284.699H349.593V283.312H354.775C354.771 282.919 354.686 282.568 354.519 282.261C354.353 281.951 354.12 281.706 353.82 281.528C353.525 281.35 353.18 281.261 352.786 281.261C352.366 281.261 351.996 281.364 351.678 281.568C351.36 281.769 351.112 282.034 350.934 282.364C350.76 282.689 350.671 283.047 350.667 283.438V284.648C350.667 285.155 350.76 285.591 350.945 285.955C351.131 286.314 351.39 286.591 351.724 286.784C352.057 286.973 352.447 287.068 352.894 287.068C353.193 287.068 353.464 287.027 353.707 286.943C353.949 286.856 354.159 286.729 354.337 286.562C354.515 286.396 354.65 286.189 354.741 285.943L356.661 286.159C356.54 286.667 356.309 287.11 355.968 287.489C355.631 287.864 355.199 288.155 354.673 288.364C354.146 288.568 353.544 288.67 352.866 288.67ZM358.487 291.773V279.773H360.509V281.216H360.629C360.735 281.004 360.884 280.778 361.077 280.54C361.271 280.297 361.532 280.091 361.862 279.92C362.191 279.746 362.612 279.659 363.123 279.659C363.797 279.659 364.405 279.831 364.947 280.176C365.492 280.517 365.924 281.023 366.242 281.693C366.564 282.36 366.725 283.178 366.725 284.148C366.725 285.106 366.568 285.92 366.254 286.591C365.939 287.261 365.511 287.773 364.969 288.125C364.428 288.477 363.814 288.653 363.129 288.653C362.629 288.653 362.214 288.57 361.884 288.403C361.555 288.237 361.29 288.036 361.089 287.801C360.892 287.562 360.738 287.337 360.629 287.125H360.543V291.773H358.487ZM360.504 284.136C360.504 284.701 360.583 285.195 360.742 285.619C360.905 286.044 361.138 286.375 361.441 286.614C361.748 286.848 362.119 286.966 362.555 286.966C363.009 286.966 363.39 286.845 363.697 286.602C364.004 286.356 364.235 286.021 364.39 285.597C364.549 285.169 364.629 284.682 364.629 284.136C364.629 283.595 364.551 283.114 364.396 282.693C364.24 282.273 364.009 281.943 363.702 281.705C363.396 281.466 363.013 281.347 362.555 281.347C362.115 281.347 361.742 281.462 361.435 281.693C361.129 281.924 360.896 282.248 360.737 282.665C360.581 283.081 360.504 283.572 360.504 284.136ZM372.35 288.67C371.475 288.67 370.719 288.489 370.083 288.125C369.451 287.758 368.964 287.239 368.623 286.568C368.282 285.894 368.112 285.1 368.112 284.188C368.112 283.29 368.282 282.502 368.623 281.824C368.968 281.142 369.449 280.612 370.066 280.233C370.683 279.85 371.409 279.659 372.242 279.659C372.78 279.659 373.288 279.746 373.765 279.92C374.246 280.091 374.67 280.356 375.038 280.716C375.409 281.076 375.701 281.534 375.913 282.091C376.125 282.644 376.231 283.303 376.231 284.068V284.699H369.077V283.312H374.259C374.255 282.919 374.17 282.568 374.004 282.261C373.837 281.951 373.604 281.706 373.305 281.528C373.009 281.35 372.665 281.261 372.271 281.261C371.85 281.261 371.481 281.364 371.163 281.568C370.844 281.769 370.596 282.034 370.418 282.364C370.244 282.689 370.155 283.047 370.151 283.438V284.648C370.151 285.155 370.244 285.591 370.43 285.955C370.615 286.314 370.875 286.591 371.208 286.784C371.541 286.973 371.932 287.068 372.379 287.068C372.678 287.068 372.949 287.027 373.191 286.943C373.433 286.856 373.644 286.729 373.822 286.562C374 286.396 374.134 286.189 374.225 285.943L376.146 286.159C376.024 286.667 375.793 287.11 375.452 287.489C375.115 287.864 374.683 288.155 374.157 288.364C373.63 288.568 373.028 288.67 372.35 288.67ZM380.028 283.386V288.5H377.971V279.773H379.937V281.256H380.039C380.24 280.767 380.56 280.379 380.999 280.091C381.442 279.803 381.99 279.659 382.641 279.659C383.244 279.659 383.768 279.788 384.215 280.045C384.666 280.303 385.014 280.676 385.261 281.165C385.511 281.653 385.634 282.246 385.63 282.943V288.5H383.573V283.261C383.573 282.678 383.422 282.222 383.119 281.892C382.819 281.562 382.405 281.398 381.874 281.398C381.514 281.398 381.194 281.477 380.914 281.636C380.638 281.792 380.42 282.017 380.261 282.312C380.105 282.608 380.028 282.966 380.028 283.386ZM390.96 288.653C390.274 288.653 389.66 288.477 389.119 288.125C388.577 287.773 388.149 287.261 387.835 286.591C387.52 285.92 387.363 285.106 387.363 284.148C387.363 283.178 387.522 282.36 387.84 281.693C388.162 281.023 388.596 280.517 389.141 280.176C389.687 279.831 390.295 279.659 390.965 279.659C391.477 279.659 391.897 279.746 392.227 279.92C392.556 280.091 392.817 280.297 393.011 280.54C393.204 280.778 393.353 281.004 393.46 281.216H393.545V276.864H395.607V288.5H393.585V287.125H393.46C393.353 287.337 393.2 287.562 392.999 287.801C392.799 288.036 392.533 288.237 392.204 288.403C391.874 288.57 391.46 288.653 390.96 288.653ZM391.533 286.966C391.969 286.966 392.34 286.848 392.647 286.614C392.954 286.375 393.187 286.044 393.346 285.619C393.505 285.195 393.585 284.701 393.585 284.136C393.585 283.572 393.505 283.081 393.346 282.665C393.191 282.248 392.96 281.924 392.653 281.693C392.35 281.462 391.977 281.347 391.533 281.347C391.075 281.347 390.692 281.466 390.386 281.705C390.079 281.943 389.848 282.273 389.692 282.693C389.537 283.114 389.46 283.595 389.46 284.136C389.46 284.682 389.537 285.169 389.692 285.597C389.852 286.021 390.085 286.356 390.391 286.602C390.702 286.845 391.083 286.966 391.533 286.966ZM401.663 288.67C400.788 288.67 400.032 288.489 399.396 288.125C398.763 287.758 398.276 287.239 397.935 286.568C397.594 285.894 397.424 285.1 397.424 284.188C397.424 283.29 397.594 282.502 397.935 281.824C398.28 281.142 398.761 280.612 399.379 280.233C399.996 279.85 400.721 279.659 401.555 279.659C402.093 279.659 402.6 279.746 403.077 279.92C403.558 280.091 403.983 280.356 404.35 280.716C404.721 281.076 405.013 281.534 405.225 282.091C405.437 282.644 405.543 283.303 405.543 284.068V284.699H398.39V283.312H403.572C403.568 282.919 403.483 282.568 403.316 282.261C403.149 281.951 402.916 281.706 402.617 281.528C402.322 281.35 401.977 281.261 401.583 281.261C401.163 281.261 400.793 281.364 400.475 281.568C400.157 281.769 399.909 282.034 399.731 282.364C399.557 282.689 399.468 283.047 399.464 283.438V284.648C399.464 285.155 399.557 285.591 399.742 285.955C399.928 286.314 400.187 286.591 400.521 286.784C400.854 286.973 401.244 287.068 401.691 287.068C401.99 287.068 402.261 287.027 402.504 286.943C402.746 286.856 402.956 286.729 403.134 286.562C403.312 286.396 403.447 286.189 403.538 285.943L405.458 286.159C405.337 286.667 405.106 287.11 404.765 287.489C404.428 287.864 403.996 288.155 403.469 288.364C402.943 288.568 402.341 288.67 401.663 288.67ZM409.34 283.386V288.5H407.283V279.773H409.249V281.256H409.352C409.552 280.767 409.872 280.379 410.312 280.091C410.755 279.803 411.302 279.659 411.954 279.659C412.556 279.659 413.081 279.788 413.528 280.045C413.978 280.303 414.327 280.676 414.573 281.165C414.823 281.653 414.946 282.246 414.942 282.943V288.5H412.886V283.261C412.886 282.678 412.734 282.222 412.431 281.892C412.132 281.562 411.717 281.398 411.187 281.398C410.827 281.398 410.507 281.477 410.227 281.636C409.95 281.792 409.732 282.017 409.573 282.312C409.418 282.608 409.34 282.966 409.34 283.386ZM420.84 288.67C419.969 288.67 419.221 288.479 418.596 288.097C417.975 287.714 417.496 287.186 417.158 286.511C416.825 285.833 416.658 285.053 416.658 284.17C416.658 283.284 416.829 282.502 417.17 281.824C417.511 281.142 417.992 280.612 418.613 280.233C419.238 279.85 419.977 279.659 420.829 279.659C421.537 279.659 422.164 279.79 422.71 280.051C423.259 280.309 423.696 280.674 424.022 281.148C424.348 281.617 424.533 282.167 424.579 282.795H422.613C422.533 282.375 422.344 282.025 422.045 281.744C421.749 281.46 421.353 281.318 420.857 281.318C420.437 281.318 420.067 281.432 419.749 281.659C419.431 281.883 419.183 282.205 419.005 282.625C418.831 283.045 418.744 283.549 418.744 284.136C418.744 284.731 418.831 285.242 419.005 285.67C419.179 286.095 419.424 286.422 419.738 286.653C420.056 286.881 420.429 286.994 420.857 286.994C421.16 286.994 421.431 286.937 421.67 286.824C421.912 286.706 422.115 286.538 422.278 286.318C422.441 286.098 422.552 285.831 422.613 285.517H424.579C424.53 286.134 424.348 286.682 424.033 287.159C423.719 287.633 423.291 288.004 422.749 288.273C422.208 288.538 421.571 288.67 420.84 288.67ZM426.268 288.5V279.773H428.325V288.5H426.268ZM427.302 278.534C426.976 278.534 426.696 278.426 426.461 278.21C426.226 277.991 426.109 277.727 426.109 277.42C426.109 277.11 426.226 276.847 426.461 276.631C426.696 276.411 426.976 276.301 427.302 276.301C427.631 276.301 427.912 276.411 428.143 276.631C428.378 276.847 428.495 277.11 428.495 277.42C428.495 277.727 428.378 277.991 428.143 278.21C427.912 278.426 427.631 278.534 427.302 278.534ZM434.303 288.67C433.428 288.67 432.673 288.489 432.036 288.125C431.404 287.758 430.917 287.239 430.576 286.568C430.235 285.894 430.065 285.1 430.065 284.188C430.065 283.29 430.235 282.502 430.576 281.824C430.921 281.142 431.402 280.612 432.019 280.233C432.637 279.85 433.362 279.659 434.195 279.659C434.733 279.659 435.241 279.746 435.718 279.92C436.199 280.091 436.623 280.356 436.991 280.716C437.362 281.076 437.654 281.534 437.866 282.091C438.078 282.644 438.184 283.303 438.184 284.068V284.699H431.031V283.312H436.212C436.209 282.919 436.123 282.568 435.957 282.261C435.79 281.951 435.557 281.706 435.258 281.528C434.962 281.35 434.618 281.261 434.224 281.261C433.803 281.261 433.434 281.364 433.116 281.568C432.798 281.769 432.549 282.034 432.371 282.364C432.197 282.689 432.108 283.047 432.104 283.438V284.648C432.104 285.155 432.197 285.591 432.383 285.955C432.568 286.314 432.828 286.591 433.161 286.784C433.495 286.973 433.885 287.068 434.332 287.068C434.631 287.068 434.902 287.027 435.144 286.943C435.387 286.856 435.597 286.729 435.775 286.562C435.953 286.396 436.087 286.189 436.178 285.943L438.099 286.159C437.978 286.667 437.746 287.11 437.406 287.489C437.068 287.864 436.637 288.155 436.11 288.364C435.584 288.568 434.981 288.67 434.303 288.67ZM446.822 282.08L444.947 282.284C444.894 282.095 444.801 281.917 444.668 281.75C444.54 281.583 444.365 281.449 444.146 281.347C443.926 281.244 443.657 281.193 443.339 281.193C442.911 281.193 442.551 281.286 442.259 281.472C441.971 281.657 441.829 281.898 441.833 282.193C441.829 282.447 441.922 282.653 442.112 282.812C442.305 282.972 442.623 283.102 443.066 283.205L444.555 283.523C445.38 283.701 445.994 283.983 446.396 284.369C446.801 284.756 447.005 285.261 447.009 285.886C447.005 286.436 446.844 286.92 446.526 287.341C446.212 287.758 445.774 288.083 445.214 288.318C444.653 288.553 444.009 288.67 443.282 288.67C442.214 288.67 441.354 288.447 440.702 288C440.051 287.549 439.663 286.922 439.538 286.119L441.543 285.926C441.634 286.32 441.827 286.617 442.123 286.818C442.418 287.019 442.803 287.119 443.276 287.119C443.765 287.119 444.157 287.019 444.452 286.818C444.752 286.617 444.901 286.369 444.901 286.074C444.901 285.824 444.805 285.617 444.612 285.455C444.422 285.292 444.127 285.167 443.725 285.08L442.237 284.767C441.399 284.593 440.78 284.299 440.379 283.886C439.977 283.47 439.778 282.943 439.782 282.307C439.778 281.769 439.924 281.303 440.219 280.909C440.519 280.511 440.933 280.205 441.464 279.989C441.998 279.769 442.613 279.659 443.31 279.659C444.333 279.659 445.138 279.877 445.725 280.312C446.316 280.748 446.682 281.337 446.822 282.08Z" fill="#102B2D"/>
<rect x="312" y="245" width="160" height="74" rx="7" stroke="#58DA95" stroke-width="2" stroke-dasharray="5 5"/>
<path d="M576 213L570 219L564 213" stroke="#58DA95" stroke-linecap="round" stroke-linejoin="round"/>
<path d="M570 194V273C570 277.418 566.418 281 562 281H477" stroke="#58DA95" stroke-linejoin="round" stroke-dasharray="5 5"/>
</svg>
