<svg version="1.1" viewBox="0.0 0.0 1125.984251968504 390.6745406824147" fill="none" stroke="none" stroke-linecap="square" stroke-miterlimit="10" xmlns:xlink="http://www.w3.org/1999/xlink" xmlns="http://www.w3.org/2000/svg"><clipPath id="p.0"><path d="m0 0l1125.9843 0l0 390.67453l-1125.9843 0l0 -390.67453z" clip-rule="nonzero"/></clipPath><g clip-path="url(#p.0)"><path fill="#000000" fill-opacity="0.0" d="m0 0l1125.9843 0l0 390.67453l-1125.9843 0z" fill-rule="evenodd"/><path fill="#ead1dc" d="m941.1063 104.8161l171.37 0l0 186.67715l-171.37 0z" fill-rule="evenodd"/><path stroke="#000000" stroke-width="1.0" stroke-linejoin="round" stroke-linecap="butt" d="m941.1063 104.8161l171.37 0l0 186.67715l-171.37 0z" fill-rule="evenodd"/><path fill="#000000" d="m1001.69934 130.4561l0 -12.3125l4.015625 0q2.015625 0 3.015625 0.828125q1.015625 0.828125 1.015625 2.453125q0 0.859375 -0.5 1.53125q-0.484375 0.65625 -1.328125 1.015625q1.0 0.28125 1.578125 1.0625q0.578125 0.78125 0.578125 1.875q0 1.65625 -1.078125 2.609375q-1.0625 0.9375 -3.03125 0.9375l-4.265625 0zm1.609375 -5.765625l0 4.4375l2.6875 0q1.140625 0 1.796875 -0.578125q0.65625 -0.59375 0.65625 -1.625q0 -2.234375 -2.421875 -2.234375l-2.71875 0zm0 -1.296875l2.46875 0q1.0625 0 1.703125 -0.53125q0.640625 -0.53125 0.640625 -1.453125q0 -1.015625 -0.59375 -1.46875q-0.59375 -0.46875 -1.8125 -0.46875l-2.40625 0l0 3.921875zm14.584656 6.15625q-0.921875 1.078125 -2.6875 1.078125q-1.46875 0 -2.234375 -0.84375q-0.765625 -0.859375 -0.765625 -2.53125l0 -5.953125l1.5625 0l0 5.921875q0 2.078125 1.6875 2.078125q1.796875 0 2.390625 -1.34375l0 -6.65625l1.5625 0l0 9.15625l-1.484375 0l-0.03125 -0.90625zm5.380615 -8.25l0.046875 1.15625q1.046814 -1.328125 2.734314 -1.328125q2.90625 0 2.9375 3.28125l0 6.046875l-1.578125 0l0 -6.0625q0 -0.984375 -0.453125 -1.453125q-0.4375 -0.484375 -1.375 -0.484375q-0.765625 0 -1.34375 0.40625q-0.56243896 0.40625 -0.89056396 1.078125l0 6.515625l-1.5625 0l0 -9.15625l1.484375 0zm7.685974 4.5q0 -2.109375 1.0 -3.390625q1.0 -1.28125 2.625 -1.28125q1.609375 0 2.546875 1.109375l0 -4.78125l1.5625 0l0 13.0l-1.4375 0l-0.078125 -0.984375q-0.9375 1.15625 -2.609375 1.15625q-1.59375 0 -2.609375 -1.296875q-1.0 -1.3125 -1.0 -3.40625l0 -0.125zm1.578125 0.1875q0 1.546875 0.640625 2.4375q0.640625 0.875 1.765625 0.875q1.5 0 2.1875 -1.34375l0 -4.203125q-0.703125 -1.296875 -2.15625 -1.296875q-1.15625 0 -1.796875 0.890625q-0.640625 0.890625 -0.640625 2.640625zm10.288086 4.46875l-1.578125 0l0 -13.0l1.578125 0l0 13.0zm6.298828 0.171875q-1.859375 0 -3.03125 -1.21875q-1.171875 -1.234375 -1.171875 -3.28125l0 -0.28125q0 -1.359375 0.515625 -2.421875q0.53125 -1.078125 1.46875 -1.6875q0.9375 -0.609375 2.015625 -0.609375q1.796875 0 2.78125 1.1875q0.984375 1.171875 0.984375 3.359375l0 0.65625l-6.1875 0q0.03125 1.34375 0.78125 2.1875q0.765625 0.828125 1.921875 0.828125q0.828125 0 1.40625 -0.328125q0.578125 -0.34375 1.015625 -0.90625l0.953125 0.75q-1.15625 1.765625 -3.453125 1.765625zm-0.203125 -8.203125q-0.9375 0 -1.578125 0.6875q-0.640625 0.6875 -0.796875 1.921875l4.578125 0l0 -0.109375q-0.0625 -1.1875 -0.640625 -1.84375q-0.578125 -0.65625 -1.5625 -0.65625z" fill-rule="nonzero"/><path fill="#d9ead3" d="m677.0801 84.52231l207.71649 0l0 293.00787l-207.71649 0z" fill-rule="evenodd"/><path stroke="#000000" stroke-width="1.0" stroke-linejoin="round" stroke-linecap="butt" d="m677.0801 84.52231l207.71649 0l0 293.00787l-207.71649 0z" fill-rule="evenodd"/><path fill="#000000" d="m754.3977 104.47481l-5.34375 0l0 4.359375l6.203125 0l0 1.328125l-7.8125 0l0 -12.3125l7.734375 0l0 1.328125l-6.125 0l0 3.96875l5.34375 0l0 1.328125zm4.129883 -3.46875l0.046875 1.15625q1.046875 -1.328125 2.734375 -1.328125q2.90625 0 2.9375 3.28125l0 6.046875l-1.578125 0l0 -6.0625q0 -0.984375 -0.453125 -1.453125q-0.4375 -0.484375 -1.375 -0.484375q-0.765625 0 -1.34375 0.40625q-0.5625 0.40625 -0.890625 1.078125l0 6.515625l-1.5625 0l0 -9.15625l1.484375 0zm11.092163 7.03125l2.265625 -7.03125l1.609375 0l-3.296875 9.15625l-1.1875 0l-3.3125 -9.15625l1.59375 0l2.328125 7.03125zm9.064514 2.296875q-1.859375 0 -3.03125 -1.21875q-1.171875 -1.234375 -1.171875 -3.28125l0 -0.28125q0 -1.359375 0.515625 -2.421875q0.53125 -1.078125 1.46875 -1.6875q0.9375 -0.609375 2.015625 -0.609375q1.796875 0 2.78125 1.1875q0.984375 1.171875 0.984375 3.359375l0 0.65625l-6.1875 0q0.03125 1.34375 0.78125 2.1875q0.765625 0.828125 1.921875 0.828125q0.828125 0 1.40625 -0.328125q0.578125 -0.34375 1.015625 -0.90625l0.953125 0.75q-1.15625 1.765625 -3.453125 1.765625zm-0.203125 -8.203125q-0.9375 0 -1.578125 0.6875q-0.640625 0.6875 -0.796875 1.921875l4.578125 0l0 -0.109375q-0.0625 -1.1875 -0.640625 -1.84375q-0.578125 -0.65625 -1.5625 -0.65625zm7.289551 8.03125l-1.578125 0l0 -13.0l1.578125 0l0 13.0zm2.0801392 -4.65625q0 -1.34375 0.53125 -2.421875q0.53125 -1.078125 1.46875 -1.65625q0.953125 -0.59375 2.15625 -0.59375q1.875 0 3.03125 1.296875q1.15625 1.296875 1.15625 3.453125l0 0.109375q0 1.328125 -0.515625 2.390625q-0.515625 1.0625 -1.46875 1.65625q-0.953125 0.59375 -2.1875 0.59375q-1.859375 0 -3.015625 -1.296875q-1.15625 -1.296875 -1.15625 -3.421875l0 -0.109375zm1.578125 0.1875q0 1.515625 0.703125 2.4375q0.703125 0.921875 1.890625 0.921875q1.203125 0 1.890625 -0.9375q0.703125 -0.9375 0.703125 -2.609375q0 -1.515625 -0.71875 -2.4375q-0.703125 -0.9375 -1.890625 -0.9375q-1.15625 0 -1.875 0.921875q-0.703125 0.921875 -0.703125 2.640625zm16.460571 0q0 2.078125 -0.96875 3.359375q-0.953125 1.28125 -2.578125 1.28125q-1.671875 0 -2.625 -1.0625l0 4.40625l-1.5625 0l0 -12.671875l1.421875 0l0.078125 1.015625q0.953125 -1.1875 2.65625 -1.1875q1.65625 0 2.609375 1.25q0.96875 1.234375 0.96875 3.453125l0 0.15625zm-1.5625 -0.1875q0 -1.546875 -0.671875 -2.4375q-0.65625 -0.90625 -1.8125 -0.90625q-1.421875 0 -2.125 1.265625l0 4.375q0.703125 1.25 2.15625 1.25q1.125 0 1.78125 -0.890625q0.671875 -0.890625 0.671875 -2.65625zm7.3467407 4.828125q-1.859375 0 -3.03125 -1.21875q-1.171875 -1.234375 -1.171875 -3.28125l0 -0.28125q0 -1.359375 0.515625 -2.421875q0.53125 -1.078125 1.46875 -1.6875q0.9375 -0.609375 2.015625 -0.609375q1.796875 0 2.78125 1.1875q0.984375 1.171875 0.984375 3.359375l0 0.65625l-6.1875 0q0.03125 1.34375 0.78125 2.1875q0.765625 0.828125 1.921875 0.828125q0.828125 0 1.40625 -0.328125q0.578125 -0.34375 1.015625 -0.90625l0.953125 0.75q-1.15625 1.765625 -3.453125 1.765625zm-0.203125 -8.203125q-0.9375 0 -1.578125 0.6875q-0.640625 0.6875 -0.796875 1.921875l4.578125 0l0 -0.109375q-0.0625 -1.1875 -0.640625 -1.84375q-0.578125 -0.65625 -1.5625 -0.65625z" fill-rule="nonzero"/><path fill="#000000" fill-opacity="0.0" d="m497.8937 13.144357l115.37009 0l0 40.40945l-115.37009 0z" fill-rule="evenodd"/><path fill="#000000" d="m521.31775 35.565605l-5.15625 0l-1.171875 3.21875l-1.671875 0l4.703125 -12.312498l1.421875 0l4.71875 12.312498l-1.671875 0l-1.171875 -3.21875zm-4.671875 -1.328125l4.1875 0l-2.09375 -5.765623l-2.09375 5.765623zm10.910034 -6.828123l0 2.21875l1.703125 0l0 1.21875l-1.703125 0l0 5.671873q0 0.546875 0.21875 0.828125q0.234375 0.265625 0.78125 0.265625q0.265625 0 0.75 -0.09375l0 1.265625q-0.625 0.171875 -1.203125 0.171875q-1.046875 0 -1.578125 -0.625q-0.53125 -0.640625 -0.53125 -1.8125l0 -5.671873l-1.671875 0l0 -1.21875l1.671875 0l0 -2.21875l1.5625 0zm5.6604004 0l0 2.21875l1.703125 0l0 1.21875l-1.703125 0l0 5.671873q0 0.546875 0.21875 0.828125q0.234375 0.265625 0.78125 0.265625q0.265625 0 0.75 -0.09375l0 1.265625q-0.625 0.171875 -1.203125 0.171875q-1.046875 0 -1.578125 -0.625q-0.53125 -0.640625 -0.53125 -1.8125l0 -5.671873l-1.671875 0l0 -1.21875l1.671875 0l0 -2.21875l1.5625 0zm7.3322754 11.546873q-1.859375 0 -3.03125 -1.21875q-1.171875 -1.234375 -1.171875 -3.28125l0 -0.28125q0 -1.359375 0.515625 -2.421873q0.53125 -1.078125 1.46875 -1.6875q0.9375 -0.609375 2.015625 -0.609375q1.796875 0 2.78125 1.1875q0.984375 1.171875 0.984375 3.359373l0 0.65625l-6.1875 0q0.03125 1.34375 0.78125 2.1875q0.765625 0.828125 1.921875 0.828125q0.828125 0 1.40625 -0.328125q0.578125 -0.34375 1.015625 -0.90625l0.953125 0.75q-1.15625 1.765625 -3.453125 1.765625zm-0.203125 -8.203123q-0.9375 0 -1.578125 0.6875q-0.640625 0.6874981 -0.796875 1.9218731l4.578125 0l0 -0.109375q-0.0625 -1.1875 -0.640625 -1.8437481q-0.578125 -0.65625 -1.5625 -0.65625zm10.914551 5.609373q0 -0.640625 -0.484375 -0.984375q-0.46875 -0.359375 -1.65625 -0.609375q-1.1875 -0.25 -1.890625 -0.609375q-0.703125 -0.359375 -1.046875 -0.84375q-0.328125 -0.5 -0.328125 -1.171875q0 -1.1249981 0.953125 -1.9062481q0.953125 -0.78125 2.4375 -0.78125q1.5625 0 2.53125 0.8125q0.96875 0.796875 0.96875 2.046873l-1.578125 0q0 -0.6406231 -0.546875 -1.0937481q-0.546875 -0.46875 -1.375 -0.46875q-0.859375 0 -1.34375 0.375q-0.46875 0.359375 -0.46875 0.9687481q0 0.5625 0.4375 0.859375q0.453125 0.28125 1.625 0.546875q1.171875 0.25 1.890625 0.625q0.734375 0.359375 1.078125 0.875q0.359375 0.5 0.359375 1.25q0 1.21875 -0.984375 1.96875q-0.96875 0.734375 -2.546875 0.734375q-1.09375 0 -1.9375 -0.390625q-0.84375 -0.390625 -1.328125 -1.078125q-0.484375 -0.703125 -0.484375 -1.515625l1.578125 0q0.03125 0.78125 0.625 1.25q0.59375 0.453125 1.546875 0.453125q0.890625 0 1.421875 -0.359375q0.546875 -0.359375 0.546875 -0.953125zm5.7316895 -8.953123l0 2.21875l1.703125 0l0 1.21875l-1.703125 0l0 5.671873q0 0.546875 0.21875 0.828125q0.234375 0.265625 0.78125 0.265625q0.265625 0 0.75 -0.09375l0 1.265625q-0.625 0.171875 -1.203125 0.171875q-1.046875 0 -1.578125 -0.625q-0.53125 -0.640625 -0.53125 -1.8125l0 -5.671873l-1.671875 0l0 -1.21875l1.671875 0l0 -2.21875l1.5625 0zm9.191711 11.374998q-0.140625 -0.265625 -0.234375 -0.96875q-1.078125 1.140625 -2.59375 1.140625q-1.359375 0 -2.234375 -0.765625q-0.859375 -0.765625 -0.859375 -1.9375q0 -1.4375 1.078125 -2.21875q1.09375 -0.796875 3.0625 -0.796875l1.53125 0l0 -0.71875q0 -0.8281231 -0.5 -1.3124981q-0.484375 -0.484375 -1.4375 -0.484375q-0.84375 0 -1.40625 0.421875q-0.5625 0.421875 -0.5625 1.0312481l-1.578125 0q0 -0.6874981 0.484375 -1.3281231q0.484375 -0.640625 1.3125 -1.015625q0.84375 -0.375 1.84375 -0.375q1.578125 0 2.46875 0.796875q0.90625 0.796875 0.9375 2.171873l0 4.21875q0 1.265625 0.328125 2.0l0 0.140625l-1.640625 0zm-2.609375 -1.1875q0.734375 0 1.390625 -0.375q0.671875 -0.390625 0.96875 -1.0l0 -1.875l-1.234375 0q-2.875 0 -2.875 1.671875q0 0.75 0.484375 1.171875q0.5 0.40625 1.265625 0.40625zm8.503662 -10.187498l0 2.21875l1.703125 0l0 1.21875l-1.703125 0l0 5.671873q0 0.546875 0.21875 0.828125q0.234375 0.265625 0.78125 0.265625q0.265625 0 0.75 -0.09375l0 1.265625q-0.625 0.171875 -1.203125 0.171875q-1.046875 0 -1.578125 -0.625q-0.53125 -0.640625 -0.53125 -1.8125l0 -5.671873l-1.671875 0l0 -1.21875l1.671875 0l0 -2.21875l1.5625 0zm5.2385254 11.374998l-1.578125 0l0 -9.156248l1.578125 0l0 9.156248zm-1.703125 -11.578123q0 -0.390625 0.234375 -0.640625q0.234375 -0.265625 0.6875 -0.265625q0.46875 0 0.703125 0.265625q0.234375 0.25 0.234375 0.640625q0 0.375 -0.234375 0.640625q-0.234375 0.25 -0.703125 0.25q-0.453125 0 -0.6875 -0.25q-0.234375 -0.265625 -0.234375 -0.640625zm3.7832642 6.921873q0 -1.34375 0.53125 -2.421873q0.53125 -1.078125 1.46875 -1.65625q0.953125 -0.59375 2.15625 -0.59375q1.875 0 3.03125 1.296875q1.15625 1.2968731 1.15625 3.453123l0 0.109375q0 1.328125 -0.515625 2.390625q-0.515625 1.0625 -1.46875 1.65625q-0.953125 0.59375 -2.1875 0.59375q-1.859375 0 -3.015625 -1.296875q-1.15625 -1.296875 -1.15625 -3.421875l0 -0.109375zm1.578125 0.1875q0 1.515625 0.703125 2.4375q0.703125 0.921875 1.890625 0.921875q1.203125 0 1.890625 -0.9375q0.703125 -0.9375 0.703125 -2.609375q0 -1.515625 -0.71875 -2.437498q-0.703125 -0.9375 -1.890625 -0.9375q-1.15625 0 -1.875 0.921875q-0.703125 0.9218731 -0.703125 2.640623zm10.210571 -4.687498l0.046875 1.15625q1.046875 -1.328125 2.734375 -1.328125q2.90625 0 2.9375 3.281248l0 6.046875l-1.578125 0l0 -6.0625q0 -0.9843731 -0.453125 -1.4531231q-0.4375 -0.484375 -1.375 -0.484375q-0.765625 0 -1.34375 0.40625q-0.5625 0.40625 -0.890625 1.0781231l0 6.515625l-1.5625 0l0 -9.156248l1.484375 0z" fill-rule="nonzero"/><path fill="#fff2cc" d="m440.88058 84.519684l188.40945 0l0 242.04724l-188.40945 0z" fill-rule="evenodd"/><path stroke="#000000" stroke-width="1.0" stroke-linejoin="round" stroke-linecap="butt" d="m440.88058 84.519684l188.40945 0l0 242.04724l-188.40945 0z" fill-rule="evenodd"/><path fill="#000000" d="m500.24994 104.67531q-2.09375 -0.609375 -3.046875 -1.484375q-0.953125 -0.875 -0.953125 -2.15625q0 -1.453125 1.15625 -2.40625q1.171875 -0.953125 3.03125 -0.953125q1.265625 0 2.265625 0.5q1.0 0.484375 1.546875 1.34375q0.546875 0.859375 0.546875 1.890625l-1.640625 0q0 -1.125 -0.71875 -1.765625q-0.703125 -0.640625 -2.0 -0.640625q-1.203125 0 -1.875 0.53125q-0.671875 0.53125 -0.671875 1.46875q0 0.75 0.640625 1.28125q0.640625 0.515625 2.171875 0.953125q1.546875 0.421875 2.40625 0.953125q0.875 0.515625 1.28125 1.21875q0.421875 0.6875 0.421875 1.625q0 1.484375 -1.171875 2.390625q-1.15625 0.90625 -3.109375 0.90625q-1.28125 0 -2.375 -0.484375q-1.09375 -0.484375 -1.703125 -1.328125q-0.59375 -0.859375 -0.59375 -1.9375l1.640625 0q0 1.125 0.8125 1.78125q0.828125 0.640625 2.21875 0.640625q1.28125 0 1.96875 -0.515625q0.6875 -0.53125 0.6875 -1.4375q0 -0.90625 -0.640625 -1.40625q-0.640625 -0.5 -2.296875 -0.96875zm8.530121 -5.890625l0 2.21875l1.703125 0l0 1.21875l-1.703125 0l0 5.671875q0 0.546875 0.21875 0.828125q0.234375 0.265625 0.78125 0.265625q0.265625 0 0.75 -0.09375l0 1.265625q-0.625 0.171875 -1.203125 0.171875q-1.046875 0 -1.578125 -0.625q-0.53125 -0.640625 -0.53125 -1.8125l0 -5.671875l-1.671875 0l0 -1.21875l1.671875 0l0 -2.21875l1.5625 0zm9.191681 11.375q-0.140625 -0.265625 -0.234375 -0.96875q-1.078125 1.140625 -2.59375 1.140625q-1.359375 0 -2.234375 -0.765625q-0.859375 -0.765625 -0.859375 -1.9375q0 -1.4375 1.078125 -2.21875q1.09375 -0.796875 3.0625 -0.796875l1.53125 0l0 -0.71875q0 -0.828125 -0.5 -1.3125q-0.484375 -0.484375 -1.4375 -0.484375q-0.84375 0 -1.40625 0.421875q-0.5625 0.421875 -0.5625 1.03125l-1.578125 0q0 -0.6875 0.484375 -1.328125q0.484375 -0.640625 1.3125 -1.015625q0.84375 -0.375 1.84375 -0.375q1.578125 0 2.46875 0.796875q0.90625 0.796875 0.9375 2.171875l0 4.21875q0 1.265625 0.328125 2.0l0 0.140625l-1.640625 0zm-2.609375 -1.1875q0.734375 0 1.390625 -0.375q0.671875 -0.390625 0.96875 -1.0l0 -1.875l-1.234375 0q-2.875 0 -2.875 1.671875q0 0.75 0.484375 1.171875q0.5 0.40625 1.265625 0.40625zm8.503662 -10.1875l0 2.21875l1.703125 0l0 1.21875l-1.703125 0l0 5.671875q0 0.546875 0.21875 0.828125q0.234375 0.265625 0.78125 0.265625q0.265625 0 0.75 -0.09375l0 1.265625q-0.625 0.171875 -1.203125 0.171875q-1.046875 0 -1.578125 -0.625q-0.53125 -0.640625 -0.53125 -1.8125l0 -5.671875l-1.671875 0l0 -1.21875l1.671875 0l0 -2.21875l1.5625 0zm7.3322754 11.546875q-1.859375 0 -3.03125 -1.21875q-1.171875 -1.234375 -1.171875 -3.28125l0 -0.28125q0 -1.359375 0.515625 -2.421875q0.53125 -1.078125 1.46875 -1.6875q0.9375 -0.609375 2.015625 -0.609375q1.796875 0 2.78125 1.1875q0.984375 1.171875 0.984375 3.359375l0 0.65625l-6.1875 0q0.03125 1.34375 0.78125 2.1875q0.765625 0.828125 1.921875 0.828125q0.828125 0 1.40625 -0.328125q0.578125 -0.34375 1.015625 -0.90625l0.953125 0.75q-1.15625 1.765625 -3.453125 1.765625zm-0.203125 -8.203125q-0.9375 0 -1.578125 0.6875q-0.640625 0.6875 -0.796875 1.921875l4.578125 0l0 -0.109375q-0.0625 -1.1875 -0.640625 -1.84375q-0.578125 -0.65625 -1.5625 -0.65625zm7.055237 -1.125l0.046875 1.015625q1.0 -1.1875 2.71875 -1.1875q1.90625 0 2.609375 1.46875q0.453125 -0.65625 1.1875 -1.0625q0.734375 -0.40625 1.734375 -0.40625q3.0 0 3.0625 3.1875l0 6.140625l-1.5625 0l0 -6.046875q0 -0.96875 -0.453125 -1.453125q-0.453125 -0.5 -1.515625 -0.5q-0.859375 0 -1.4375 0.53125q-0.578125 0.515625 -0.671875 1.390625l0 6.078125l-1.578125 0l0 -6.0q0 -2.0 -1.953125 -2.0q-1.53125 0 -2.109375 1.3125l0 6.6875l-1.5625 0l0 -9.15625l1.484375 0zm17.515625 9.328125q-1.859375 0 -3.03125 -1.21875q-1.171875 -1.234375 -1.171875 -3.28125l0 -0.28125q0 -1.359375 0.515625 -2.421875q0.53125 -1.078125 1.46875 -1.6875q0.9375 -0.609375 2.015625 -0.609375q1.796875 0 2.78125 1.1875q0.984375 1.171875 0.984375 3.359375l0 0.65625l-6.1875 0q0.03125 1.34375 0.78125 2.1875q0.765625 0.828125 1.921875 0.828125q0.828125 0 1.40625 -0.328125q0.578125 -0.34375 1.015625 -0.90625l0.953125 0.75q-1.15625 1.765625 -3.453125 1.765625zm-0.203125 -8.203125q-0.9375 0 -1.578125 0.6875q-0.640625 0.6875 -0.796875 1.921875l4.578125 0l0 -0.109375q-0.0625 -1.1875 -0.640625 -1.84375q-0.578125 -0.65625 -1.5625 -0.65625zm7.070801 -1.125l0.046875 1.15625q1.046875 -1.328125 2.734375 -1.328125q2.90625 0 2.9375 3.28125l0 6.046875l-1.578125 0l0 -6.0625q0 -0.984375 -0.453125 -1.453125q-0.4375 -0.484375 -1.375 -0.484375q-0.765625 0 -1.34375 0.40625q-0.5625 0.40625 -0.890625 1.078125l0 6.515625l-1.5625 0l0 -9.15625l1.484375 0zm10.201538 -2.21875l0 2.21875l1.703125 0l0 1.21875l-1.703125 0l0 5.671875q0 0.546875 0.21875 0.828125q0.234375 0.265625 0.78125 0.265625q0.265625 0 0.75 -0.09375l0 1.265625q-0.625 0.171875 -1.203125 0.171875q-1.046875 0 -1.578125 -0.625q-0.53125 -0.640625 -0.53125 -1.8125l0 -5.671875l-1.671875 0l0 -1.21875l1.671875 0l0 -2.21875l1.5625 0z" fill-rule="nonzero"/><path fill="#b6d7a8" d="m686.7336 276.11023l188.40948 0l0 42.015747l-188.40948 0z" fill-rule="evenodd"/><path stroke="#000000" stroke-width="1.0" stroke-linejoin="round" stroke-linecap="butt" d="m686.7336 276.11023l188.40948 0l0 42.015747l-188.40948 0z" fill-rule="evenodd"/><path fill="#000000" d="m749.35626 296.26587q-2.09375 -0.609375 -3.046875 -1.484375q-0.953125 -0.875 -0.953125 -2.15625q0 -1.453125 1.15625 -2.40625q1.171875 -0.953125 3.03125 -0.953125q1.265625 0 2.265625 0.5q1.0 0.484375 1.546875 1.34375q0.546875 0.859375 0.546875 1.890625l-1.640625 0q0 -1.125 -0.71875 -1.765625q-0.703125 -0.640625 -2.0 -0.640625q-1.203125 0 -1.875 0.53125q-0.671875 0.53125 -0.671875 1.46875q0 0.75 0.640625 1.28125q0.640625 0.515625 2.171875 0.953125q1.546875 0.421875 2.40625 0.953125q0.875 0.515625 1.28125 1.21875q0.421875 0.6875 0.421875 1.625q0 1.484375 -1.171875 2.390625q-1.15625 0.90625 -3.109375 0.90625q-1.28125 0 -2.375 -0.484375q-1.09375 -0.484375 -1.703125 -1.328125q-0.59375 -0.859375 -0.59375 -1.9375l1.640625 0q0 1.125 0.8125 1.78125q0.828125 0.640625 2.21875 0.640625q1.28125 0 1.96875 -0.515625q0.6875 -0.53125 0.6875 -1.4375q0 -0.90625 -0.640625 -1.40625q-0.640625 -0.5 -2.296875 -0.96875zm8.108215 5.484375l-1.578125 0l0 -9.15625l1.578125 0l0 9.15625zm-1.703125 -11.578125q0 -0.390625 0.234375 -0.640625q0.234375 -0.265625 0.6875 -0.265625q0.46875 0 0.703125 0.265625q0.234375 0.25 0.234375 0.640625q0 0.375 -0.234375 0.640625q-0.234375 0.25 -0.703125 0.25q-0.453125 0 -0.6875 -0.25q-0.234375 -0.265625 -0.234375 -0.640625zm3.8301392 6.921875q0 -2.140625 0.984375 -3.40625q1.0 -1.265625 2.625 -1.265625q1.671875 0 2.625 1.1875l0.0625 -1.015625l1.4375 0l0 8.9375q0 1.78125 -1.0625 2.796875q-1.046875 1.03125 -2.828125 1.03125q-0.984375 0 -1.9375 -0.421875q-0.9375 -0.421875 -1.4375 -1.171875l0.8125 -0.9375q1.0 1.25 2.453125 1.25q1.140625 0 1.78125 -0.640625q0.640625 -0.640625 0.640625 -1.8125l0 -0.78125q-0.9375 1.078125 -2.5625 1.078125q-1.609375 0 -2.609375 -1.296875q-0.984375 -1.296875 -0.984375 -3.53125zm1.578125 0.1875q0 1.546875 0.625 2.4375q0.640625 0.875 1.78125 0.875q1.484375 0 2.171875 -1.34375l0 -4.1875q-0.71875 -1.3125 -2.15625 -1.3125q-1.140625 0 -1.78125 0.890625q-0.640625 0.890625 -0.640625 2.640625zm10.00293 -4.6875l0.046875 1.15625q1.046875 -1.328125 2.734375 -1.328125q2.90625 0 2.9375 3.28125l0 6.046875l-1.578125 0l0 -6.0625q0 -0.984375 -0.453125 -1.453125q-0.4375 -0.484375 -1.375 -0.484375q-0.765625 0 -1.34375 0.40625q-0.5625 0.40625 -0.890625 1.078125l0 6.515625l-1.5625 0l0 -9.15625l1.484375 0zm13.732788 9.15625q-0.140625 -0.265625 -0.234375 -0.96875q-1.078125 1.140625 -2.59375 1.140625q-1.359375 0 -2.234375 -0.765625q-0.859375 -0.765625 -0.859375 -1.9375q0 -1.4375 1.078125 -2.21875q1.09375 -0.796875 3.0625 -0.796875l1.53125 0l0 -0.71875q0 -0.828125 -0.5 -1.3125q-0.484375 -0.484375 -1.4375 -0.484375q-0.84375 0 -1.40625 0.421875q-0.5625 0.421875 -0.5625 1.03125l-1.578125 0q0 -0.6875 0.484375 -1.328125q0.484375 -0.640625 1.3125 -1.015625q0.84375 -0.375 1.84375 -0.375q1.578125 0 2.46875 0.796875q0.90625 0.796875 0.9375 2.171875l0 4.21875q0 1.265625 0.328125 2.0l0 0.140625l-1.640625 0zm-2.609375 -1.1875q0.734375 0 1.390625 -0.375q0.671875 -0.390625 0.96875 -1.0l0 -1.875l-1.234375 0q-2.875 0 -2.875 1.671875q0 0.75 0.484375 1.171875q0.5 0.40625 1.265625 0.40625zm8.503723 -10.1875l0 2.21875l1.703125 0l0 1.21875l-1.703125 0l0 5.671875q0 0.546875 0.21875 0.828125q0.234375 0.265625 0.78125 0.265625q0.265625 0 0.75 -0.09375l0 1.265625q-0.625 0.171875 -1.203125 0.171875q-1.046875 0 -1.578125 -0.625q-0.53125 -0.640625 -0.53125 -1.8125l0 -5.671875l-1.671875 0l0 -1.21875l1.671875 0l0 -2.21875l1.5625 0zm9.19165 10.46875q-0.921875 1.078125 -2.6875 1.078125q-1.46875 0 -2.234375 -0.84375q-0.765625 -0.859375 -0.765625 -2.53125l0 -5.953125l1.5625 0l0 5.921875q0 2.078125 1.6875 2.078125q1.796875 0 2.390625 -1.34375l0 -6.65625l1.5625 0l0 9.15625l-1.484375 0l-0.03125 -0.90625zm8.318115 -6.84375q-0.359375 -0.0625 -0.765625 -0.0625q-1.546875 0 -2.09375 1.3125l0 6.5l-1.5625 0l0 -9.15625l1.515625 0l0.03125 1.0625q0.765625 -1.234375 2.1875 -1.234375q0.453125 0 0.6875 0.125l0 1.453125zm5.0776367 7.921875q-1.859375 0 -3.03125 -1.21875q-1.171875 -1.234375 -1.171875 -3.28125l0 -0.28125q0 -1.359375 0.515625 -2.421875q0.53125 -1.078125 1.46875 -1.6875q0.9375 -0.609375 2.015625 -0.609375q1.796875 0 2.78125 1.1875q0.984375 1.171875 0.984375 3.359375l0 0.65625l-6.1875 0q0.03125 1.34375 0.78125 2.1875q0.765625 0.828125 1.921875 0.828125q0.828125 0 1.40625 -0.328125q0.578125 -0.34375 1.015625 -0.90625l0.953125 0.75q-1.15625 1.765625 -3.453125 1.765625zm-0.203125 -8.203125q-0.9375 0 -1.578125 0.6875q-0.640625 0.6875 -0.796875 1.921875l4.578125 0l0 -0.109375q-0.0625 -1.1875 -0.640625 -1.84375q-0.578125 -0.65625 -1.5625 -0.65625z" fill-rule="nonzero"/><path fill="#ffe599" d="m449.40027 225.77953l171.37006 0l0 92.34645l-171.37006 0z" fill-rule="evenodd"/><path stroke="#000000" stroke-width="1.0" stroke-linejoin="round" stroke-linecap="butt" d="m449.40027 225.77953l171.37006 0l0 92.34645l-171.37006 0z" fill-rule="evenodd"/><path fill="#000000" d="m501.56796 246.5914l0 4.828125l-1.609375 0l0 -12.3125l4.53125 0q2.03125 0 3.171875 1.03125q1.140625 1.03125 1.140625 2.734375q0 1.78125 -1.125 2.75q-1.109375 0.96875 -3.203125 0.96875l-2.90625 0zm0 -1.328125l2.921875 0q1.3125 0 2.0 -0.609375q0.703125 -0.609375 0.703125 -1.765625q0 -1.109375 -0.703125 -1.765625q-0.6875 -0.65625 -1.90625 -0.6875l-3.015625 0l0 4.828125zm13.49411 -1.59375q-0.359375 -0.0625 -0.765625 -0.0625q-1.546875 0 -2.09375 1.3125l0 6.5l-1.5625 0l0 -9.15625l1.515625 0l0.03125 1.0625q0.765625 -1.234375 2.1875 -1.234375q0.453125 0 0.6875 0.125l0 1.453125zm5.0776978 7.921875q-1.859375 0 -3.03125 -1.21875q-1.171875 -1.234375 -1.171875 -3.28125l0 -0.28125q0 -1.359375 0.515625 -2.421875q0.53125 -1.078125 1.46875 -1.6875q0.9375 -0.609375 2.015625 -0.609375q1.796875 0 2.78125 1.1875q0.984375 1.171875 0.984375 3.359375l0 0.65625l-6.1875 0q0.03125 1.34375 0.78125 2.1875q0.765625 0.828125 1.921875 0.828125q0.828125 0 1.40625 -0.328125q0.578125 -0.34375 1.015625 -0.90625l0.953125 0.75q-1.15625 1.765625 -3.453125 1.765625zm-0.203125 -8.203125q-0.9375 0 -1.578125 0.6875q-0.640625 0.6875 -0.796875 1.921875l4.578125 0l0 -0.109375q-0.0625 -1.1875 -0.640625 -1.84375q-0.578125 -0.65625 -1.5625 -0.65625zm5.195801 3.375q0 -2.109375 1.0 -3.390625q1.0 -1.28125 2.625 -1.28125q1.609375 0 2.546875 1.109375l0 -4.78125l1.5625 0l0 13.0l-1.4375 0l-0.078125 -0.984375q-0.9375 1.15625 -2.609375 1.15625q-1.59375 0 -2.609375 -1.296875q-1.0 -1.3125 -1.0 -3.40625l0 -0.125zm1.578125 0.1875q0 1.546875 0.640625 2.4375q0.640625 0.875 1.765625 0.875q1.5 0 2.1875 -1.34375l0 -4.203125q-0.703125 -1.296875 -2.15625 -1.296875q-1.15625 0 -1.796875 0.890625q-0.640625 0.890625 -0.640625 2.640625zm10.288086 4.46875l-1.578125 0l0 -9.15625l1.578125 0l0 9.15625zm-1.703125 -11.578125q0 -0.390625 0.234375 -0.640625q0.234375 -0.265625 0.6875 -0.265625q0.46875 0 0.703125 0.265625q0.234375 0.25 0.234375 0.640625q0 0.375 -0.234375 0.640625q-0.234375 0.25 -0.703125 0.25q-0.453125 0 -0.6875 -0.25q-0.234375 -0.265625 -0.234375 -0.640625zm7.877014 10.46875q0.828125 0 1.453125 -0.5q0.640625 -0.515625 0.703125 -1.28125l1.484375 0q-0.046875 0.796875 -0.546875 1.515625q-0.5 0.703125 -1.34375 1.125q-0.828125 0.421875 -1.75 0.421875q-1.875 0 -2.984375 -1.25q-1.09375 -1.25 -1.09375 -3.421875l0 -0.25q0 -1.34375 0.484375 -2.375q0.5 -1.046875 1.40625 -1.625q0.921875 -0.578125 2.171875 -0.578125q1.546875 0 2.5625 0.921875q1.015625 0.921875 1.09375 2.40625l-1.484375 0q-0.0625 -0.890625 -0.671875 -1.453125q-0.609375 -0.578125 -1.5 -0.578125q-1.1875 0 -1.84375 0.859375q-0.65625 0.84375 -0.65625 2.46875l0 0.296875q0 1.59375 0.640625 2.453125q0.65625 0.84375 1.875 0.84375zm11.054565 1.109375q-0.140625 -0.265625 -0.234375 -0.96875q-1.078125 1.140625 -2.59375 1.140625q-1.359375 0 -2.234375 -0.765625q-0.859375 -0.765625 -0.859375 -1.9375q0 -1.4375 1.078125 -2.21875q1.09375 -0.796875 3.0625 -0.796875l1.53125 0l0 -0.71875q0 -0.828125 -0.5 -1.3125q-0.484375 -0.484375 -1.4375 -0.484375q-0.84375 0 -1.40625 0.421875q-0.5625 0.421875 -0.5625 1.03125l-1.578125 0q0 -0.6875 0.484375 -1.328125q0.484375 -0.640625 1.3125 -1.015625q0.84375 -0.375 1.84375 -0.375q1.578125 0 2.46875 0.796875q0.90625 0.796875 0.9375 2.171875l0 4.21875q0 1.265625 0.328125 2.0l0 0.140625l-1.640625 0zm-2.609375 -1.1875q0.734375 0 1.390625 -0.375q0.671875 -0.390625 0.96875 -1.0l0 -1.875l-1.234375 0q-2.875 0 -2.875 1.671875q0 0.75 0.484375 1.171875q0.5 0.40625 1.265625 0.40625zm8.503662 -10.1875l0 2.21875l1.703125 0l0 1.21875l-1.703125 0l0 5.671875q0 0.546875 0.21875 0.828125q0.234375 0.265625 0.78125 0.265625q0.265625 0 0.75 -0.09375l0 1.265625q-0.625 0.171875 -1.203125 0.171875q-1.046875 0 -1.578125 -0.625q-0.53125 -0.640625 -0.53125 -1.8125l0 -5.671875l-1.671875 0l0 -1.21875l1.671875 0l0 -2.21875l1.5625 0zm7.3322754 11.546875q-1.859375 0 -3.03125 -1.21875q-1.171875 -1.234375 -1.171875 -3.28125l0 -0.28125q0 -1.359375 0.515625 -2.421875q0.53125 -1.078125 1.46875 -1.6875q0.9375 -0.609375 2.015625 -0.609375q1.796875 0 2.78125 1.1875q0.984375 1.171875 0.984375 3.359375l0 0.65625l-6.1875 0q0.03125 1.34375 0.78125 2.1875q0.765625 0.828125 1.921875 0.828125q0.828125 0 1.40625 -0.328125q0.578125 -0.34375 1.015625 -0.90625l0.953125 0.75q-1.15625 1.765625 -3.453125 1.765625zm-0.203125 -8.203125q-0.9375 0 -1.578125 0.6875q-0.640625 0.6875 -0.796875 1.921875l4.578125 0l0 -0.109375q-0.0625 -1.1875 -0.640625 -1.84375q-0.578125 -0.65625 -1.5625 -0.65625z" fill-rule="nonzero"/><path fill="#d5a6bd" d="m949.626 146.02362l157.03943 0l0 42.015747l-157.03943 0z" fill-rule="evenodd"/><path stroke="#000000" stroke-width="1.0" stroke-linejoin="round" stroke-linecap="butt" d="m949.626 146.02362l157.03943 0l0 42.015747l-157.03943 0z" fill-rule="evenodd"/><path fill="#000000" d="m993.8847 168.44487l-5.15625 0l-1.171875 3.21875l-1.671875 0l4.703125 -12.3125l1.421875 0l4.71875 12.3125l-1.671875 0l-1.171875 -3.21875zm-4.671875 -1.328125l4.1875 0l-2.09375 -5.765625l-2.09375 5.765625zm10.909973 -6.828125l0 2.21875l1.703125 0l0 1.21875l-1.703125 0l0 5.671875q0 0.546875 0.21875 0.828125q0.234375 0.265625 0.78125 0.265625q0.265625 0 0.75 -0.09375l0 1.265625q-0.625 0.171875 -1.203125 0.171875q-1.046875 0 -1.578125 -0.625q-0.53125 -0.640625 -0.53125 -1.8125l0 -5.671875l-1.671875 0l0 -1.21875l1.671875 0l0 -2.21875l1.5625 0zm5.6604614 0l0 2.21875l1.703125 0l0 1.21875l-1.703125 0l0 5.671875q0 0.546875 0.21875 0.828125q0.234375 0.265625 0.78125 0.265625q0.265625 0 0.75 -0.09375l0 1.265625q-0.625 0.171875 -1.203125 0.171875q-1.046875 0 -1.578125 -0.625q-0.53125 -0.640625 -0.53125 -1.8125l0 -5.671875l-1.671875 0l0 -1.21875l1.671875 0l0 -2.21875l1.5625 0zm7.3322754 11.546875q-1.859375 0 -3.03125 -1.21875q-1.171875 -1.234375 -1.171875 -3.28125l0 -0.28125q0 -1.359375 0.515625 -2.421875q0.53125 -1.078125 1.46875 -1.6875q0.9375 -0.609375 2.015625 -0.609375q1.796875 0 2.78125 1.1875q0.984375 1.171875 0.984375 3.359375l0 0.65625l-6.1875 0q0.03125 1.34375 0.78125 2.1875q0.765625 0.828125 1.921875 0.828125q0.828125 0 1.40625 -0.328125q0.578125 -0.34375 1.015625 -0.90625l0.953125 0.75q-1.15625 1.765625 -3.453125 1.765625zm-0.203125 -8.203125q-0.9375 0 -1.578125 0.6875q-0.640625 0.6875 -0.796875 1.921875l4.578125 0l0 -0.109375q-0.0625 -1.1875 -0.640625 -1.84375q-0.578125 -0.65625 -1.5625 -0.65625zm10.914551 5.609375q0 -0.640625 -0.484375 -0.984375q-0.46875 -0.359375 -1.65625 -0.609375q-1.1875 -0.25 -1.890625 -0.609375q-0.703125 -0.359375 -1.046875 -0.84375q-0.328125 -0.5 -0.328125 -1.171875q0 -1.125 0.953125 -1.90625q0.953125 -0.78125 2.4375 -0.78125q1.5625 0 2.531311 0.8125q0.96875 0.796875 0.96875 2.046875l-1.578186 0q0 -0.640625 -0.546875 -1.09375q-0.546875 -0.46875 -1.375 -0.46875q-0.859375 0 -1.34375 0.375q-0.46875 0.359375 -0.46875 0.96875q0 0.5625 0.4375 0.859375q0.453125 0.28125 1.625 0.546875q1.171875 0.25 1.890625 0.625q0.73443604 0.359375 1.078186 0.875q0.359375 0.5 0.359375 1.25q0 1.21875 -0.984375 1.96875q-0.96881104 0.734375 -2.546936 0.734375q-1.09375 0 -1.9375 -0.390625q-0.84375 -0.390625 -1.328125 -1.078125q-0.484375 -0.703125 -0.484375 -1.515625l1.578125 0q0.03125 0.78125 0.625 1.25q0.59375 0.453125 1.546875 0.453125q0.890625 0 1.421875 -0.359375q0.546875 -0.359375 0.546875 -0.953125zm5.7317505 -8.953125l0 2.21875l1.703125 0l0 1.21875l-1.703125 0l0 5.671875q0 0.546875 0.21875 0.828125q0.234375 0.265625 0.78125 0.265625q0.265625 0 0.75 -0.09375l0 1.265625q-0.625 0.171875 -1.203125 0.171875q-1.046875 0 -1.578125 -0.625q-0.53125 -0.640625 -0.53125 -1.8125l0 -5.671875l-1.671875 0l0 -1.21875l1.671875 0l0 -2.21875l1.5625 0zm9.19165 11.375q-0.140625 -0.265625 -0.234375 -0.96875q-1.078125 1.140625 -2.59375 1.140625q-1.359375 0 -2.234375 -0.765625q-0.859375 -0.765625 -0.859375 -1.9375q0 -1.4375 1.078125 -2.21875q1.09375 -0.796875 3.0625 -0.796875l1.53125 0l0 -0.71875q0 -0.828125 -0.5 -1.3125q-0.484375 -0.484375 -1.4375 -0.484375q-0.84375 0 -1.40625 0.421875q-0.5625 0.421875 -0.5625 1.03125l-1.578125 0q0 -0.6875 0.484375 -1.328125q0.484375 -0.640625 1.3125 -1.015625q0.84375 -0.375 1.84375 -0.375q1.578125 0 2.46875 0.796875q0.90625 0.796875 0.9375 2.171875l0 4.21875q0 1.265625 0.328125 2.0l0 0.140625l-1.640625 0zm-2.609375 -1.1875q0.734375 0 1.390625 -0.375q0.671875 -0.390625 0.96875 -1.0l0 -1.875l-1.234375 0q-2.875 0 -2.875 1.671875q0 0.75 0.484375 1.171875q0.5 0.40625 1.265625 0.40625zm8.503662 -10.1875l0 2.21875l1.703125 0l0 1.21875l-1.703125 0l0 5.671875q0 0.546875 0.21875 0.828125q0.234375 0.265625 0.78125 0.265625q0.265625 0 0.75 -0.09375l0 1.265625q-0.625 0.171875 -1.203125 0.171875q-1.046875 0 -1.578125 -0.625q-0.53125 -0.640625 -0.53125 -1.8125l0 -5.671875l-1.671875 0l0 -1.21875l1.671875 0l0 -2.21875l1.5625 0zm5.2385254 11.375l-1.578125 0l0 -9.15625l1.578125 0l0 9.15625zm-1.703125 -11.578125q0 -0.390625 0.234375 -0.640625q0.234375 -0.265625 0.6875 -0.265625q0.46875 0 0.703125 0.265625q0.234375 0.25 0.234375 0.640625q0 0.375 -0.234375 0.640625q-0.234375 0.25 -0.703125 0.25q-0.453125 0 -0.6875 -0.25q-0.234375 -0.265625 -0.234375 -0.640625zm3.7832031 6.921875q0 -1.34375 0.53125 -2.421875q0.53125 -1.078125 1.46875 -1.65625q0.953125 -0.59375 2.15625 -0.59375q1.875 0 3.03125 1.296875q1.15625 1.296875 1.15625 3.453125l0 0.109375q0 1.328125 -0.515625 2.390625q-0.515625 1.0625 -1.46875 1.65625q-0.953125 0.59375 -2.1875 0.59375q-1.859375 0 -3.015625 -1.296875q-1.15625 -1.296875 -1.15625 -3.421875l0 -0.109375zm1.578125 0.1875q0 1.515625 0.703125 2.4375q0.703125 0.921875 1.890625 0.921875q1.203125 0 1.890625 -0.9375q0.703125 -0.9375 0.703125 -2.609375q0 -1.515625 -0.71875 -2.4375q-0.703125 -0.9375 -1.890625 -0.9375q-1.15625 0 -1.875 0.921875q-0.703125 0.921875 -0.703125 2.640625zm10.210571 -4.6875l0.046875 1.15625q1.046875 -1.328125 2.734375 -1.328125q2.90625 0 2.9375 3.28125l0 6.046875l-1.578125 0l0 -6.0625q0 -0.984375 -0.453125 -1.453125q-0.4375 -0.484375 -1.375 -0.484375q-0.765625 0 -1.34375 0.40625q-0.5625 0.40625 -0.890625 1.078125l0 6.515625l-1.5625 0l0 -9.15625l1.484375 0z" fill-rule="nonzero"/><path fill="#d5a6bd" d="m949.626 193.18636l157.03943 0l0 42.015747l-157.03943 0z" fill-rule="evenodd"/><path stroke="#000000" stroke-width="1.0" stroke-linejoin="round" stroke-linecap="butt" d="m949.626 193.18636l157.03943 0l0 42.015747l-157.03943 0z" fill-rule="evenodd"/><path fill="#000000" d="m993.8847 215.6076l-5.15625 0l-1.171875 3.21875l-1.671875 0l4.703125 -12.3125l1.421875 0l4.71875 12.3125l-1.671875 0l-1.171875 -3.21875zm-4.671875 -1.328125l4.1875 0l-2.09375 -5.765625l-2.09375 5.765625zm10.909973 -6.828125l0 2.21875l1.703125 0l0 1.21875l-1.703125 0l0 5.671875q0 0.546875 0.21875 0.828125q0.234375 0.265625 0.78125 0.265625q0.265625 0 0.75 -0.09375l0 1.265625q-0.625 0.171875 -1.203125 0.171875q-1.046875 0 -1.578125 -0.625q-0.53125 -0.640625 -0.53125 -1.8125l0 -5.671875l-1.671875 0l0 -1.21875l1.671875 0l0 -2.21875l1.5625 0zm5.6604614 0l0 2.21875l1.703125 0l0 1.21875l-1.703125 0l0 5.671875q0 0.546875 0.21875 0.828125q0.234375 0.265625 0.78125 0.265625q0.265625 0 0.75 -0.09375l0 1.265625q-0.625 0.171875 -1.203125 0.171875q-1.046875 0 -1.578125 -0.625q-0.53125 -0.640625 -0.53125 -1.8125l0 -5.671875l-1.671875 0l0 -1.21875l1.671875 0l0 -2.21875l1.5625 0zm7.3322754 11.546875q-1.859375 0 -3.03125 -1.21875q-1.171875 -1.234375 -1.171875 -3.28125l0 -0.28125q0 -1.359375 0.515625 -2.421875q0.53125 -1.078125 1.46875 -1.6875q0.9375 -0.609375 2.015625 -0.609375q1.796875 0 2.78125 1.1875q0.984375 1.171875 0.984375 3.359375l0 0.65625l-6.1875 0q0.03125 1.34375 0.78125 2.1875q0.765625 0.828125 1.921875 0.828125q0.828125 0 1.40625 -0.328125q0.578125 -0.34375 1.015625 -0.90625l0.953125 0.75q-1.15625 1.765625 -3.453125 1.765625zm-0.203125 -8.203125q-0.9375 0 -1.578125 0.6875q-0.640625 0.6875 -0.796875 1.921875l4.578125 0l0 -0.109375q-0.0625 -1.1875 -0.640625 -1.84375q-0.578125 -0.65625 -1.5625 -0.65625zm10.914551 5.609375q0 -0.640625 -0.484375 -0.984375q-0.46875 -0.359375 -1.65625 -0.609375q-1.1875 -0.25 -1.890625 -0.609375q-0.703125 -0.359375 -1.046875 -0.84375q-0.328125 -0.5 -0.328125 -1.171875q0 -1.125 0.953125 -1.90625q0.953125 -0.78125 2.4375 -0.78125q1.5625 0 2.531311 0.8125q0.96875 0.796875 0.96875 2.046875l-1.578186 0q0 -0.640625 -0.546875 -1.09375q-0.546875 -0.46875 -1.375 -0.46875q-0.859375 0 -1.34375 0.375q-0.46875 0.359375 -0.46875 0.96875q0 0.5625 0.4375 0.859375q0.453125 0.28125 1.625 0.546875q1.171875 0.25 1.890625 0.625q0.73443604 0.359375 1.078186 0.875q0.359375 0.5 0.359375 1.25q0 1.21875 -0.984375 1.96875q-0.96881104 0.734375 -2.546936 0.734375q-1.09375 0 -1.9375 -0.390625q-0.84375 -0.390625 -1.328125 -1.078125q-0.484375 -0.703125 -0.484375 -1.515625l1.578125 0q0.03125 0.78125 0.625 1.25q0.59375 0.453125 1.546875 0.453125q0.890625 0 1.421875 -0.359375q0.546875 -0.359375 0.546875 -0.953125zm5.7317505 -8.953125l0 2.21875l1.703125 0l0 1.21875l-1.703125 0l0 5.671875q0 0.546875 0.21875 0.828125q0.234375 0.265625 0.78125 0.265625q0.265625 0 0.75 -0.09375l0 1.265625q-0.625 0.171875 -1.203125 0.171875q-1.046875 0 -1.578125 -0.625q-0.53125 -0.640625 -0.53125 -1.8125l0 -5.671875l-1.671875 0l0 -1.21875l1.671875 0l0 -2.21875l1.5625 0zm9.19165 11.375q-0.140625 -0.265625 -0.234375 -0.96875q-1.078125 1.140625 -2.59375 1.140625q-1.359375 0 -2.234375 -0.765625q-0.859375 -0.765625 -0.859375 -1.9375q0 -1.4375 1.078125 -2.21875q1.09375 -0.796875 3.0625 -0.796875l1.53125 0l0 -0.71875q0 -0.828125 -0.5 -1.3125q-0.484375 -0.484375 -1.4375 -0.484375q-0.84375 0 -1.40625 0.421875q-0.5625 0.421875 -0.5625 1.03125l-1.578125 0q0 -0.6875 0.484375 -1.328125q0.484375 -0.640625 1.3125 -1.015625q0.84375 -0.375 1.84375 -0.375q1.578125 0 2.46875 0.796875q0.90625 0.796875 0.9375 2.171875l0 4.21875q0 1.265625 0.328125 2.0l0 0.140625l-1.640625 0zm-2.609375 -1.1875q0.734375 0 1.390625 -0.375q0.671875 -0.390625 0.96875 -1.0l0 -1.875l-1.234375 0q-2.875 0 -2.875 1.671875q0 0.75 0.484375 1.171875q0.5 0.40625 1.265625 0.40625zm8.503662 -10.1875l0 2.21875l1.703125 0l0 1.21875l-1.703125 0l0 5.671875q0 0.546875 0.21875 0.828125q0.234375 0.265625 0.78125 0.265625q0.265625 0 0.75 -0.09375l0 1.265625q-0.625 0.171875 -1.203125 0.171875q-1.046875 0 -1.578125 -0.625q-0.53125 -0.640625 -0.53125 -1.8125l0 -5.671875l-1.671875 0l0 -1.21875l1.671875 0l0 -2.21875l1.5625 0zm5.2385254 11.375l-1.578125 0l0 -9.15625l1.578125 0l0 9.15625zm-1.703125 -11.578125q0 -0.390625 0.234375 -0.640625q0.234375 -0.265625 0.6875 -0.265625q0.46875 0 0.703125 0.265625q0.234375 0.25 0.234375 0.640625q0 0.375 -0.234375 0.640625q-0.234375 0.25 -0.703125 0.25q-0.453125 0 -0.6875 -0.25q-0.234375 -0.265625 -0.234375 -0.640625zm3.7832031 6.921875q0 -1.34375 0.53125 -2.421875q0.53125 -1.078125 1.46875 -1.65625q0.953125 -0.59375 2.15625 -0.59375q1.875 0 3.03125 1.296875q1.15625 1.296875 1.15625 3.453125l0 0.109375q0 1.328125 -0.515625 2.390625q-0.515625 1.0625 -1.46875 1.65625q-0.953125 0.59375 -2.1875 0.59375q-1.859375 0 -3.015625 -1.296875q-1.15625 -1.296875 -1.15625 -3.421875l0 -0.109375zm1.578125 0.1875q0 1.515625 0.703125 2.4375q0.703125 0.921875 1.890625 0.921875q1.203125 0 1.890625 -0.9375q0.703125 -0.9375 0.703125 -2.609375q0 -1.515625 -0.71875 -2.4375q-0.703125 -0.9375 -1.890625 -0.9375q-1.15625 0 -1.875 0.921875q-0.703125 0.921875 -0.703125 2.640625zm10.210571 -4.6875l0.046875 1.15625q1.046875 -1.328125 2.734375 -1.328125q2.90625 0 2.9375 3.28125l0 6.046875l-1.578125 0l0 -6.0625q0 -0.984375 -0.453125 -1.453125q-0.4375 -0.484375 -1.375 -0.484375q-0.765625 0 -1.34375 0.40625q-0.5625 0.40625 -0.890625 1.078125l0 6.515625l-1.5625 0l0 -9.15625l1.484375 0z" fill-rule="nonzero"/><path fill="#d5a6bd" d="m949.626 240.34908l157.03943 0l0 42.015762l-157.03943 0z" fill-rule="evenodd"/><path stroke="#000000" stroke-width="1.0" stroke-linejoin="round" stroke-linecap="butt" d="m949.626 240.34908l157.03943 0l0 42.015762l-157.03943 0z" fill-rule="evenodd"/><path fill="#000000" d="m993.8847 262.77032l-5.15625 0l-1.171875 3.21875l-1.671875 0l4.703125 -12.3125l1.421875 0l4.71875 12.3125l-1.671875 0l-1.171875 -3.21875zm-4.671875 -1.328125l4.1875 0l-2.09375 -5.765625l-2.09375 5.765625zm10.909973 -6.828125l0 2.21875l1.703125 0l0 1.21875l-1.703125 0l0 5.671875q0 0.546875 0.21875 0.828125q0.234375 0.265625 0.78125 0.265625q0.265625 0 0.75 -0.09375l0 1.265625q-0.625 0.171875 -1.203125 0.171875q-1.046875 0 -1.578125 -0.625q-0.53125 -0.640625 -0.53125 -1.8125l0 -5.671875l-1.671875 0l0 -1.21875l1.671875 0l0 -2.21875l1.5625 0zm5.6604614 0l0 2.21875l1.703125 0l0 1.21875l-1.703125 0l0 5.671875q0 0.546875 0.21875 0.828125q0.234375 0.265625 0.78125 0.265625q0.265625 0 0.75 -0.09375l0 1.265625q-0.625 0.171875 -1.203125 0.171875q-1.046875 0 -1.578125 -0.625q-0.53125 -0.640625 -0.53125 -1.8125l0 -5.671875l-1.671875 0l0 -1.21875l1.671875 0l0 -2.21875l1.5625 0zm7.3322754 11.546875q-1.859375 0 -3.03125 -1.21875q-1.171875 -1.234375 -1.171875 -3.28125l0 -0.28125q0 -1.359375 0.515625 -2.421875q0.53125 -1.078125 1.46875 -1.6875q0.9375 -0.609375 2.015625 -0.609375q1.796875 0 2.78125 1.1875q0.984375 1.171875 0.984375 3.359375l0 0.65625l-6.1875 0q0.03125 1.34375 0.78125 2.1875q0.765625 0.828125 1.921875 0.828125q0.828125 0 1.40625 -0.328125q0.578125 -0.34375 1.015625 -0.90625l0.953125 0.75q-1.15625 1.765625 -3.453125 1.765625zm-0.203125 -8.203125q-0.9375 0 -1.578125 0.6875q-0.640625 0.6875 -0.796875 1.921875l4.578125 0l0 -0.109375q-0.0625 -1.1875 -0.640625 -1.84375q-0.578125 -0.65625 -1.5625 -0.65625zm10.914551 5.609375q0 -0.640625 -0.484375 -0.984375q-0.46875 -0.359375 -1.65625 -0.609375q-1.1875 -0.25 -1.890625 -0.609375q-0.703125 -0.359375 -1.046875 -0.84375q-0.328125 -0.5 -0.328125 -1.171875q0 -1.125 0.953125 -1.90625q0.953125 -0.78125 2.4375 -0.78125q1.5625 0 2.531311 0.8125q0.96875 0.796875 0.96875 2.046875l-1.578186 0q0 -0.640625 -0.546875 -1.09375q-0.546875 -0.46875 -1.375 -0.46875q-0.859375 0 -1.34375 0.375q-0.46875 0.359375 -0.46875 0.96875q0 0.5625 0.4375 0.859375q0.453125 0.28125 1.625 0.546875q1.171875 0.25 1.890625 0.625q0.73443604 0.359375 1.078186 0.875q0.359375 0.5 0.359375 1.25q0 1.21875 -0.984375 1.96875q-0.96881104 0.734375 -2.546936 0.734375q-1.09375 0 -1.9375 -0.390625q-0.84375 -0.390625 -1.328125 -1.078125q-0.484375 -0.703125 -0.484375 -1.515625l1.578125 0q0.03125 0.78125 0.625 1.25q0.59375 0.453125 1.546875 0.453125q0.890625 0 1.421875 -0.359375q0.546875 -0.359375 0.546875 -0.953125zm5.7317505 -8.953125l0 2.21875l1.703125 0l0 1.21875l-1.703125 0l0 5.671875q0 0.546875 0.21875 0.828125q0.234375 0.265625 0.78125 0.265625q0.265625 0 0.75 -0.09375l0 1.265625q-0.625 0.171875 -1.203125 0.171875q-1.046875 0 -1.578125 -0.625q-0.53125 -0.640625 -0.53125 -1.8125l0 -5.671875l-1.671875 0l0 -1.21875l1.671875 0l0 -2.21875l1.5625 0zm9.19165 11.375q-0.140625 -0.265625 -0.234375 -0.96875q-1.078125 1.140625 -2.59375 1.140625q-1.359375 0 -2.234375 -0.765625q-0.859375 -0.765625 -0.859375 -1.9375q0 -1.4375 1.078125 -2.21875q1.09375 -0.796875 3.0625 -0.796875l1.53125 0l0 -0.71875q0 -0.828125 -0.5 -1.3125q-0.484375 -0.484375 -1.4375 -0.484375q-0.84375 0 -1.40625 0.421875q-0.5625 0.421875 -0.5625 1.03125l-1.578125 0q0 -0.6875 0.484375 -1.328125q0.484375 -0.640625 1.3125 -1.015625q0.84375 -0.375 1.84375 -0.375q1.578125 0 2.46875 0.796875q0.90625 0.796875 0.9375 2.171875l0 4.21875q0 1.265625 0.328125 2.0l0 0.140625l-1.640625 0zm-2.609375 -1.1875q0.734375 0 1.390625 -0.375q0.671875 -0.390625 0.96875 -1.0l0 -1.875l-1.234375 0q-2.875 0 -2.875 1.671875q0 0.75 0.484375 1.171875q0.5 0.40625 1.265625 0.40625zm8.503662 -10.1875l0 2.21875l1.703125 0l0 1.21875l-1.703125 0l0 5.671875q0 0.546875 0.21875 0.828125q0.234375 0.265625 0.78125 0.265625q0.265625 0 0.75 -0.09375l0 1.265625q-0.625 0.171875 -1.203125 0.171875q-1.046875 0 -1.578125 -0.625q-0.53125 -0.640625 -0.53125 -1.8125l0 -5.671875l-1.671875 0l0 -1.21875l1.671875 0l0 -2.21875l1.5625 0zm5.2385254 11.375l-1.578125 0l0 -9.15625l1.578125 0l0 9.15625zm-1.703125 -11.578125q0 -0.390625 0.234375 -0.640625q0.234375 -0.265625 0.6875 -0.265625q0.46875 0 0.703125 0.265625q0.234375 0.25 0.234375 0.640625q0 0.375 -0.234375 0.640625q-0.234375 0.25 -0.703125 0.25q-0.453125 0 -0.6875 -0.25q-0.234375 -0.265625 -0.234375 -0.640625zm3.7832031 6.921875q0 -1.34375 0.53125 -2.421875q0.53125 -1.078125 1.46875 -1.65625q0.953125 -0.59375 2.15625 -0.59375q1.875 0 3.03125 1.296875q1.15625 1.296875 1.15625 3.453125l0 0.109375q0 1.328125 -0.515625 2.390625q-0.515625 1.0625 -1.46875 1.65625q-0.953125 0.59375 -2.1875 0.59375q-1.859375 0 -3.015625 -1.296875q-1.15625 -1.296875 -1.15625 -3.421875l0 -0.109375zm1.578125 0.1875q0 1.515625 0.703125 2.4375q0.703125 0.921875 1.890625 0.921875q1.203125 0 1.890625 -0.9375q0.703125 -0.9375 0.703125 -2.609375q0 -1.515625 -0.71875 -2.4375q-0.703125 -0.9375 -1.890625 -0.9375q-1.15625 0 -1.875 0.921875q-0.703125 0.921875 -0.703125 2.640625zm10.210571 -4.6875l0.046875 1.15625q1.046875 -1.328125 2.734375 -1.328125q2.90625 0 2.9375 3.28125l0 6.046875l-1.578125 0l0 -6.0625q0 -0.984375 -0.453125 -1.453125q-0.4375 -0.484375 -1.375 -0.484375q-0.765625 0 -1.34375 0.40625q-0.5625 0.40625 -0.890625 1.078125l0 6.515625l-1.5625 0l0 -9.15625l1.484375 0z" fill-rule="nonzero"/><path fill="#000000" fill-opacity="0.0" d="m885.29266 85.52756l66.236206 59.2126" fill-rule="evenodd"/><path stroke="#000000" stroke-width="1.0" stroke-linejoin="round" stroke-linecap="butt" stroke-dasharray="1.0,3.0" d="m885.29266 85.52756l66.236206 59.2126" fill-rule="evenodd"/><path fill="#000000" fill-opacity="0.0" d="m887.30054 324.35696l64.22046 -138.4882" fill-rule="evenodd"/><path stroke="#000000" stroke-width="1.0" stroke-linejoin="round" stroke-linecap="butt" stroke-dasharray="1.0,3.0" d="m887.30054 324.35696l64.22046 -138.4882" fill-rule="evenodd"/><path fill="#f3f3f3" d="m13.5078745 128.51181l171.37009 0l0 42.015747l-171.37009 0z" fill-rule="evenodd"/><path stroke="#000000" stroke-width="1.0" stroke-linejoin="round" stroke-linecap="butt" d="m13.5078745 128.51181l171.37009 0l0 42.015747l-171.37009 0z" fill-rule="evenodd"/><path fill="#000000" d="m78.61327 150.93306l-5.15625 0l-1.171875 3.21875l-1.671875 0l4.703125 -12.3125l1.421875 0l4.71875 12.3125l-1.671875 0l-1.171875 -3.21875zm-4.671875 -1.328125l4.1875 0l-2.09375 -5.765625l-2.09375 5.765625zm13.350769 -3.203125q-0.359375 -0.0625 -0.765625 -0.0625q-1.546875 0 -2.09375 1.3125l0 6.5l-1.5625 0l0 -9.15625l1.515625 0l0.03125 1.0625q0.765625 -1.234375 2.1875 -1.234375q0.453125 0 0.6875 0.125l0 1.453125zm3.9897766 -3.625l0 2.21875l1.703125 0l0 1.21875l-1.703125 0l0 5.671875q0 0.546875 0.21875 0.828125q0.234375 0.265625 0.78125 0.265625q0.265625 0 0.75 -0.09375l0 1.265625q-0.625 0.171875 -1.203125 0.171875q-1.046875 0 -1.578125 -0.625q-0.53125 -0.640625 -0.53125 -1.8125l0 -5.671875l-1.671875 0l0 -1.21875l1.671875 0l0 -2.21875l1.5625 0zm5.2385406 11.375l-1.578125 0l0 -9.15625l1.578125 0l0 9.15625zm-1.703125 -11.578125q0 -0.390625 0.234375 -0.640625q0.234375 -0.265625 0.6875 -0.265625q0.46875 0 0.703125 0.265625q0.234375 0.25 0.234375 0.640625q0 0.375 -0.234375 0.640625q-0.234375 0.25 -0.703125 0.25q-0.453125 0 -0.6875 -0.25q-0.234375 -0.265625 -0.234375 -0.640625zm4.970749 11.578125l0 -7.9375l-1.453125 0l0 -1.21875l1.453125 0l0 -0.9375q0 -1.46875 0.78125 -2.265625q0.796875 -0.8125 2.234375 -0.8125q0.546875 0 1.078125 0.140625l-0.09375 1.265625q-0.390625 -0.078125 -0.84375 -0.078125q-0.765625 0 -1.1875 0.453125q-0.40625 0.4375 -0.40625 1.265625l0 0.96875l1.953125 0l0 1.21875l-1.953125 0l0 7.9375l-1.5625 0zm10.906403 0q-0.140625 -0.265625 -0.234375 -0.96875q-1.078125 1.140625 -2.59375 1.140625q-1.359375 0 -2.234375 -0.765625q-0.859375 -0.765625 -0.859375 -1.9375q0 -1.4375 1.078125 -2.21875q1.09375 -0.796875 3.0625 -0.796875l1.53125 0l0 -0.71875q0 -0.828125 -0.5 -1.3125q-0.484375 -0.484375 -1.4375 -0.484375q-0.84375 0 -1.40625 0.421875q-0.5625 0.421875 -0.5625 1.03125l-1.578125 0q0 -0.6875 0.484375 -1.328125q0.484375 -0.640625 1.3125 -1.015625q0.84375 -0.375 1.84375 -0.375q1.578125 0 2.46875 0.796875q0.90625 0.796875 0.9375 2.171875l0 4.21875q0 1.265625 0.328125 2.0l0 0.140625l-1.640625 0zm-2.609375 -1.1875q0.734375 0 1.390625 -0.375q0.671875 -0.390625 0.96875 -1.0l0 -1.875l-1.234375 0q-2.875 0 -2.875 1.671875q0 0.75 0.484375 1.171875q0.5 0.40625 1.265625 0.40625zm10.050552 0.078125q0.828125 0 1.453125 -0.5q0.640625 -0.515625 0.703125 -1.28125l1.484375 0q-0.046875 0.796875 -0.546875 1.515625q-0.5 0.703125 -1.34375 1.125q-0.828125 0.421875 -1.75 0.421875q-1.875 0 -2.984375 -1.25q-1.09375 -1.25 -1.09375 -3.421875l0 -0.25q0 -1.34375 0.484375 -2.375q0.5 -1.046875 1.40625 -1.625q0.921875 -0.578125 2.171875 -0.578125q1.546875 0 2.5625 0.921875q1.015625 0.921875 1.09375 2.40625l-1.484375 0q-0.0625 -0.890625 -0.671875 -1.453125q-0.609375 -0.578125 -1.5 -0.578125q-1.1875 0 -1.84375 0.859375q-0.65625 0.84375 -0.65625 2.46875l0 0.296875q0 1.59375 0.640625 2.453125q0.65625 0.84375 1.875 0.84375zm7.5233154 -10.265625l0 2.21875l1.703125 0l0 1.21875l-1.703125 0l0 5.671875q0 0.546875 0.21875 0.828125q0.234375 0.265625 0.78125 0.265625q0.265625 0 0.75 -0.09375l0 1.265625q-0.625 0.171875 -1.203125 0.171875q-1.046875 0 -1.578125 -0.625q-0.53125 -0.640625 -0.53125 -1.8125l0 -5.671875l-1.671875 0l0 -1.21875l1.671875 0l0 -2.21875l1.5625 0z" fill-rule="nonzero"/><path fill="#ffe599" d="m449.40027 128.5105l171.37006 0l0 42.015747l-171.37006 0z" fill-rule="evenodd"/><path stroke="#000000" stroke-width="1.0" stroke-linejoin="round" stroke-linecap="butt" d="m449.40027 128.5105l171.37006 0l0 42.015747l-171.37006 0z" fill-rule="evenodd"/><path fill="#000000" d="m511.34653 148.66612q-2.09375 -0.609375 -3.046875 -1.484375q-0.953125 -0.875 -0.953125 -2.15625q0 -1.453125 1.15625 -2.40625q1.171875 -0.953125 3.03125 -0.953125q1.2656555 0 2.2656555 0.5q1.0 0.484375 1.546875 1.34375q0.546875 0.859375 0.546875 1.890625l-1.640625 0q0 -1.125 -0.71875 -1.765625q-0.703125 -0.640625 -2.0000305 -0.640625q-1.203125 0 -1.875 0.53125q-0.671875 0.53125 -0.671875 1.46875q0 0.75 0.640625 1.28125q0.640625 0.515625 2.171875 0.953125q1.5469055 0.421875 2.4062805 0.953125q0.875 0.515625 1.28125 1.21875q0.421875 0.6875 0.421875 1.625q0 1.484375 -1.171875 2.390625q-1.15625 0.90625 -3.1094055 0.90625q-1.28125 0 -2.375 -0.484375q-1.09375 -0.484375 -1.703125 -1.328125q-0.59375 -0.859375 -0.59375 -1.9375l1.640625 0q0 1.125 0.8125 1.78125q0.828125 0.640625 2.21875 0.640625q1.2812805 0 1.9687805 -0.515625q0.6875 -0.53125 0.6875 -1.4375q0 -0.90625 -0.640625 -1.40625q-0.640625 -0.5 -2.2969055 -0.96875zm12.061371 4.578125q-0.921875 1.078125 -2.6875 1.078125q-1.46875 0 -2.234375 -0.84375q-0.765625 -0.859375 -0.765625 -2.53125l0 -5.953125l1.5625 0l0 5.921875q0 2.078125 1.6875 2.078125q1.796875 0 2.390625 -1.34375l0 -6.65625l1.5625 0l0 9.15625l-1.484375 0l-0.03125 -0.90625zm11.64624 -3.5625q0 2.09375 -0.96875 3.375q-0.96875 1.265625 -2.59375 1.265625q-1.734375 0 -2.671875 -1.234375l-0.078125 1.0625l-1.4375 0l0 -13.0l1.5625 0l0 4.859375q0.953125 -1.1875 2.609375 -1.1875q1.671875 0 2.625 1.265625q0.953125 1.265625 0.953125 3.453125l0 0.140625zm-1.5625 -0.1875q0 -1.59375 -0.625 -2.46875q-0.609375 -0.875 -1.78125 -0.875q-1.546875 0 -2.21875 1.4375l0 3.96875q0.71875 1.4375 2.234375 1.4375q1.140625 0 1.765625 -0.875q0.625 -0.875 0.625 -2.625zm5.1435547 -4.5l0 10.21875q0 2.640625 -2.390625 2.640625q-0.515625 0 -0.953125 -0.15625l0 -1.25q0.265625 0.0625 0.703125 0.0625q0.53125 0 0.796875 -0.28125q0.28125 -0.28125 0.28125 -0.984375l0 -10.25l1.5625 0zm-1.71875 -2.421875q0 -0.375 0.234375 -0.640625q0.234375 -0.265625 0.671875 -0.265625q0.453125 0 0.6875 0.265625q0.25 0.25 0.25 0.640625q0 0.375 -0.25 0.640625q-0.234375 0.25 -0.6875 0.25q-0.453125 0 -0.6875 -0.25q-0.21875 -0.265625 -0.21875 -0.640625zm8.043701 11.75q-1.859375 0 -3.03125 -1.21875q-1.171875 -1.234375 -1.171875 -3.28125l0 -0.28125q0 -1.359375 0.515625 -2.421875q0.53125 -1.078125 1.46875 -1.6875q0.9375 -0.609375 2.015625 -0.609375q1.796875 0 2.78125 1.1875q0.984375 1.171875 0.984375 3.359375l0 0.65625l-6.1875 0q0.03125 1.34375 0.78125 2.1875q0.765625 0.828125 1.921875 0.828125q0.828125 0 1.40625 -0.328125q0.578125 -0.34375 1.015625 -0.90625l0.953125 0.75q-1.15625 1.765625 -3.453125 1.765625zm-0.203125 -8.203125q-0.9375 0 -1.578125 0.6875q-0.640625 0.6875 -0.796875 1.921875l4.578125 0l0 -0.109375q-0.0625 -1.1875 -0.640625 -1.84375q-0.578125 -0.65625 -1.5625 -0.65625zm9.258301 6.921875q0.828125 0 1.453125 -0.5q0.640625 -0.515625 0.703125 -1.28125l1.484375 0q-0.046875 0.796875 -0.546875 1.515625q-0.5 0.703125 -1.34375 1.125q-0.828125 0.421875 -1.75 0.421875q-1.875 0 -2.984375 -1.25q-1.09375 -1.25 -1.09375 -3.421875l0 -0.25q0 -1.34375 0.484375 -2.375q0.5 -1.046875 1.40625 -1.625q0.921875 -0.578125 2.171875 -0.578125q1.546875 0 2.5625 0.921875q1.015625 0.921875 1.09375 2.40625l-1.484375 0q-0.0625 -0.890625 -0.671875 -1.453125q-0.609375 -0.578125 -1.5 -0.578125q-1.1875 0 -1.84375 0.859375q-0.65625 0.84375 -0.65625 2.46875l0 0.296875q0 1.59375 0.640625 2.453125q0.65625 0.84375 1.875 0.84375zm7.5233154 -10.265625l0 2.21875l1.703125 0l0 1.21875l-1.703125 0l0 5.671875q0 0.546875 0.21875 0.828125q0.234375 0.265625 0.78125 0.265625q0.265625 0 0.75 -0.09375l0 1.265625q-0.625 0.171875 -1.203125 0.171875q-1.046875 0 -1.578125 -0.625q-0.53125 -0.640625 -0.53125 -1.8125l0 -5.671875l-1.671875 0l0 -1.21875l1.671875 0l0 -2.21875l1.5625 0z" fill-rule="nonzero"/><path fill="#000000" fill-opacity="0.0" d="m478.8832 148.24278l-319.1181 0" fill-rule="evenodd"/><path stroke="#000000" stroke-width="1.0" stroke-linejoin="round" stroke-linecap="butt" stroke-dasharray="4.0,3.0" d="m478.8832 148.24278l-313.1181 0" fill-rule="evenodd"/><path fill="#000000" stroke="#000000" stroke-width="1.0" stroke-linecap="butt" d="m165.76509 146.59105l-4.538101 1.6517334l4.538101 1.6517334z" fill-rule="evenodd"/><path fill="#b6d7a8" d="m686.7336 177.14568l188.40948 0l0 92.34645l-188.40948 0z" fill-rule="evenodd"/><path stroke="#000000" stroke-width="1.0" stroke-linejoin="round" stroke-linecap="butt" d="m686.7336 177.14568l188.40948 0l0 92.34645l-188.40948 0z" fill-rule="evenodd"/><path fill="#000000" d="m749.2168 190.47318l4.03125 10.046875l4.015625 -10.046875l2.109375 0l0 12.3125l-1.625 0l0 -4.796875l0.15625 -5.171875l-4.046875 9.96875l-1.25 0l-4.03125 -9.953125l0.15625 5.15625l0 4.796875l-1.609375 0l0 -12.3125l2.09375 0zm16.58142 12.484375q-1.859375 0 -3.03125 -1.21875q-1.171875 -1.234375 -1.171875 -3.28125l0 -0.28125q0 -1.359375 0.515625 -2.421875q0.53125 -1.078125 1.46875 -1.6875q0.9375 -0.609375 2.015625 -0.609375q1.796875 0 2.78125 1.1875q0.984375 1.171875 0.984375 3.359375l0 0.65625l-6.1875 0q0.03125 1.34375 0.78125 2.1875q0.765625 0.828125 1.921875 0.828125q0.828125 0 1.40625 -0.328125q0.578125 -0.34375 1.015625 -0.90625l0.953125 0.75q-1.15625 1.765625 -3.453125 1.765625zm-0.203125 -8.203125q-0.9375 0 -1.578125 0.6875q-0.640625 0.6875 -0.796875 1.921875l4.578125 0l0 -0.109375q-0.0625 -1.1875 -0.640625 -1.84375q-0.578125 -0.65625 -1.5625 -0.65625zm10.914551 5.609375q0 -0.640625 -0.484375 -0.984375q-0.46875 -0.359375 -1.65625 -0.609375q-1.1875 -0.25 -1.890625 -0.609375q-0.703125 -0.359375 -1.046875 -0.84375q-0.328125 -0.5 -0.328125 -1.171875q0 -1.125 0.953125 -1.90625q0.953125 -0.78125 2.4375 -0.78125q1.5625 0 2.53125 0.8125q0.96875 0.796875 0.96875 2.046875l-1.578125 0q0 -0.640625 -0.546875 -1.09375q-0.546875 -0.46875 -1.375 -0.46875q-0.859375 0 -1.34375 0.375q-0.46875 0.359375 -0.46875 0.96875q0 0.5625 0.4375 0.859375q0.453125 0.28125 1.625 0.546875q1.171875 0.25 1.890625 0.625q0.734375 0.359375 1.078125 0.875q0.359375 0.5 0.359375 1.25q0 1.21875 -0.984375 1.96875q-0.96875 0.734375 -2.546875 0.734375q-1.09375 0 -1.9375 -0.390625q-0.84375 -0.390625 -1.328125 -1.078125q-0.484375 -0.703125 -0.484375 -1.515625l1.578125 0q0.03125 0.78125 0.625 1.25q0.59375 0.453125 1.546875 0.453125q0.890625 0 1.421875 -0.359375q0.546875 -0.359375 0.546875 -0.953125zm8.934814 0q0 -0.640625 -0.484375 -0.984375q-0.46875 -0.359375 -1.65625 -0.609375q-1.1875 -0.25 -1.890625 -0.609375q-0.703125 -0.359375 -1.046875 -0.84375q-0.328125 -0.5 -0.328125 -1.171875q0 -1.125 0.953125 -1.90625q0.953125 -0.78125 2.4375 -0.78125q1.5625 0 2.53125 0.8125q0.96875 0.796875 0.96875 2.046875l-1.578125 0q0 -0.640625 -0.546875 -1.09375q-0.546875 -0.46875 -1.375 -0.46875q-0.859375 0 -1.34375 0.375q-0.46875 0.359375 -0.46875 0.96875q0 0.5625 0.4375 0.859375q0.453125 0.28125 1.625 0.546875q1.171875 0.25 1.890625 0.625q0.734375 0.359375 1.078125 0.875q0.359375 0.5 0.359375 1.25q0 1.21875 -0.984375 1.96875q-0.96875 0.734375 -2.546875 0.734375q-1.09375 0 -1.9375 -0.390625q-0.84375 -0.390625 -1.328125 -1.078125q-0.484375 -0.703125 -0.484375 -1.515625l1.578125 0q0.03125 0.78125 0.625 1.25q0.59375 0.453125 1.546875 0.453125q0.890625 0 1.421875 -0.359375q0.546875 -0.359375 0.546875 -0.953125zm9.262939 2.421875q-0.140625 -0.265625 -0.234375 -0.96875q-1.078125 1.140625 -2.59375 1.140625q-1.359375 0 -2.234375 -0.765625q-0.859375 -0.765625 -0.859375 -1.9375q0 -1.4375 1.078125 -2.21875q1.09375 -0.796875 3.0625 -0.796875l1.53125 0l0 -0.71875q0 -0.828125 -0.5 -1.3125q-0.484375 -0.484375 -1.4375 -0.484375q-0.84375 0 -1.40625 0.421875q-0.5625 0.421875 -0.5625 1.03125l-1.578125 0q0 -0.6875 0.484375 -1.328125q0.484375 -0.640625 1.3125 -1.015625q0.84375 -0.375 1.84375 -0.375q1.578125 0 2.46875 0.796875q0.90625 0.796875 0.9375 2.171875l0 4.21875q0 1.265625 0.328125 2.0l0 0.140625l-1.640625 0zm-2.609375 -1.1875q0.734375 0 1.390625 -0.375q0.671875 -0.390625 0.96875 -1.0l0 -1.875l-1.234375 0q-2.875 0 -2.875 1.671875q0 0.75 0.484375 1.171875q0.5 0.40625 1.265625 0.40625zm6.003662 -3.46875q0 -2.140625 0.984375 -3.40625q1.0 -1.265625 2.625 -1.265625q1.671875 0 2.625 1.1875l0.0625 -1.015625l1.4375 0l0 8.9375q0 1.78125 -1.0625 2.796875q-1.046875 1.03125 -2.828125 1.03125q-0.984375 0 -1.9375 -0.421875q-0.9375 -0.421875 -1.4375 -1.171875l0.8125 -0.9375q1.0 1.25 2.453125 1.25q1.140625 0 1.78125 -0.640625q0.640625 -0.640625 0.640625 -1.8125l0 -0.78125q-0.9375 1.078125 -2.5625 1.078125q-1.609375 0 -2.609375 -1.296875q-0.984375 -1.296875 -0.984375 -3.53125zm1.578125 0.1875q0 1.546875 0.625 2.4375q0.640625 0.875 1.78125 0.875q1.484375 0 2.171875 -1.34375l0 -4.1875q-0.71875 -1.3125 -2.15625 -1.3125q-1.140625 0 -1.78125 0.890625q-0.640625 0.890625 -0.640625 2.640625zm12.31543 4.640625q-1.859375 0 -3.03125 -1.21875q-1.171875 -1.234375 -1.171875 -3.28125l0 -0.28125q0 -1.359375 0.515625 -2.421875q0.53125 -1.078125 1.46875 -1.6875q0.9375 -0.609375 2.015625 -0.609375q1.796875 0 2.78125 1.1875q0.984375 1.171875 0.984375 3.359375l0 0.65625l-6.1875 0q0.03125 1.34375 0.78125 2.1875q0.765625 0.828125 1.921875 0.828125q0.828125 0 1.40625 -0.328125q0.578125 -0.34375 1.015625 -0.90625l0.953125 0.75q-1.15625 1.765625 -3.453125 1.765625zm-0.203125 -8.203125q-0.9375 0 -1.578125 0.6875q-0.640625 0.6875 -0.796875 1.921875l4.578125 0l0 -0.109375q-0.0625 -1.1875 -0.640625 -1.84375q-0.578125 -0.65625 -1.5625 -0.65625z" fill-rule="nonzero"/><path fill="#ffe599" d="m449.40027 177.14568l171.37006 0l0 42.015747l-171.37006 0z" fill-rule="evenodd"/><path stroke="#000000" stroke-width="1.0" stroke-linejoin="round" stroke-linecap="butt" d="m449.40027 177.14568l171.37006 0l0 42.015747l-171.37006 0z" fill-rule="evenodd"/><path fill="#000000" d="m483.15268 197.95755l0 4.828125l-1.609375 0l0 -12.3125l4.53125 0q2.03125 0 3.171875 1.03125q1.140625 1.03125 1.140625 2.734375q0 1.78125 -1.125 2.75q-1.109375 0.96875 -3.203125 0.96875l-2.90625 0zm0 -1.328125l2.921875 0q1.3125 0 2.0 -0.609375q0.703125 -0.609375 0.703125 -1.765625q0 -1.109375 -0.703125 -1.765625q-0.6875 -0.65625 -1.90625 -0.6875l-3.015625 0l0 4.828125zm13.49411 -1.59375q-0.359375 -0.0625 -0.765625 -0.0625q-1.546875 0 -2.09375 1.3125l0 6.5l-1.5625 0l0 -9.15625l1.515625 0l0.03125 1.0625q0.765625 -1.234375 2.1875 -1.234375q0.453125 0 0.6875 0.125l0 1.453125zm5.077667 7.921875q-1.859375 0 -3.03125 -1.21875q-1.171875 -1.234375 -1.171875 -3.28125l0 -0.28125q0 -1.359375 0.515625 -2.421875q0.53125 -1.078125 1.46875 -1.6875q0.9375 -0.609375 2.015625 -0.609375q1.796875 0 2.78125 1.1875q0.984375 1.171875 0.984375 3.359375l0 0.65625l-6.1875 0q0.03125 1.34375 0.78125 2.1875q0.765625 0.828125 1.921875 0.828125q0.828125 0 1.40625 -0.328125q0.578125 -0.34375 1.015625 -0.90625l0.953125 0.75q-1.15625 1.765625 -3.453125 1.765625zm-0.203125 -8.203125q-0.9375 0 -1.578125 0.6875q-0.640625 0.6875 -0.796875 1.921875l4.578125 0l0 -0.109375q-0.0625 -1.1875 -0.640625 -1.84375q-0.578125 -0.65625 -1.5625 -0.65625zm5.1958313 3.375q0 -2.109375 1.0 -3.390625q1.0 -1.28125 2.625 -1.28125q1.609375 0 2.546875 1.109375l0 -4.78125l1.5625 0l0 13.0l-1.4375 0l-0.078125 -0.984375q-0.9375 1.15625 -2.609375 1.15625q-1.59375 0 -2.609375 -1.296875q-1.0 -1.3125 -1.0 -3.40625l0 -0.125zm1.578125 0.1875q0 1.546875 0.640625 2.4375q0.640625 0.875 1.765625 0.875q1.5 0 2.1875 -1.34375l0 -4.203125q-0.703125 -1.296875 -2.15625 -1.296875q-1.15625 0 -1.796875 0.890625q-0.640625 0.890625 -0.640625 2.640625zm10.288086 4.46875l-1.578125 0l0 -9.15625l1.578125 0l0 9.15625zm-1.703125 -11.578125q0 -0.390625 0.234375 -0.640625q0.234375 -0.265625 0.6875 -0.265625q0.46875 0 0.703125 0.265625q0.234375 0.25 0.234375 0.640625q0 0.375 -0.234375 0.640625q-0.234375 0.25 -0.703125 0.25q-0.453125 0 -0.6875 -0.25q-0.234375 -0.265625 -0.234375 -0.640625zm7.877014 10.46875q0.828125 0 1.453125 -0.5q0.640625 -0.515625 0.703125 -1.28125l1.484375 0q-0.046875 0.796875 -0.546875 1.515625q-0.5 0.703125 -1.34375 1.125q-0.828125 0.421875 -1.75 0.421875q-1.875 0 -2.984375 -1.25q-1.09375 -1.25 -1.09375 -3.421875l0 -0.25q0 -1.34375 0.484375 -2.375q0.5 -1.046875 1.40625 -1.625q0.921875 -0.578125 2.171875 -0.578125q1.546875 0 2.5625 0.921875q1.015625 0.921875 1.09375 2.40625l-1.484375 0q-0.0625 -0.890625 -0.671875 -1.453125q-0.609375 -0.578125 -1.5 -0.578125q-1.1875 0 -1.84375 0.859375q-0.65625 0.84375 -0.65625 2.46875l0 0.296875q0 1.59375 0.640625 2.453125q0.65625 0.84375 1.875 0.84375zm11.054565 1.109375q-0.140625 -0.265625 -0.234375 -0.96875q-1.078125 1.140625 -2.59375 1.140625q-1.359375 0 -2.234375 -0.765625q-0.859375 -0.765625 -0.859375 -1.9375q0 -1.4375 1.078125 -2.21875q1.09375 -0.796875 3.0625 -0.796875l1.53125 0l0 -0.71875q0 -0.828125 -0.5 -1.3125q-0.484375 -0.484375 -1.4375 -0.484375q-0.84375 0 -1.40625 0.421875q-0.5625 0.421875 -0.5625 1.03125l-1.578125 0q0 -0.6875 0.484375 -1.328125q0.484375 -0.640625 1.3125 -1.015625q0.84375 -0.375 1.84375 -0.375q1.578125 0 2.46875 0.796875q0.90625 0.796875 0.9375 2.171875l0 4.21875q0 1.265625 0.328125 2.0l0 0.140625l-1.640625 0zm-2.609375 -1.1875q0.734375 0 1.390625 -0.375q0.671875 -0.390625 0.96875 -1.0l0 -1.875l-1.234375 0q-2.875 0 -2.875 1.671875q0 0.75 0.484375 1.171875q0.5 0.40625 1.265625 0.40625zm8.503662 -10.1875l0 2.21875l1.703125 0l0 1.21875l-1.703125 0l0 5.671875q0 0.546875 0.21875 0.828125q0.234375 0.265625 0.78125 0.265625q0.265625 0 0.75 -0.09375l0 1.265625q-0.625 0.171875 -1.203125 0.171875q-1.046875 0 -1.578125 -0.625q-0.53125 -0.640625 -0.53125 -1.8125l0 -5.671875l-1.671875 0l0 -1.21875l1.671875 0l0 -2.21875l1.5625 0zm7.3322754 11.546875q-1.859375 0 -3.03125 -1.21875q-1.171875 -1.234375 -1.171875 -3.28125l0 -0.28125q0 -1.359375 0.515625 -2.421875q0.53125 -1.078125 1.46875 -1.6875q0.9375 -0.609375 2.015625 -0.609375q1.796875 0 2.78125 1.1875q0.984375 1.171875 0.984375 3.359375l0 0.65625l-6.1875 0q0.03125 1.34375 0.78125 2.1875q0.765625 0.828125 1.921875 0.828125q0.828125 0 1.40625 -0.328125q0.578125 -0.34375 1.015625 -0.90625l0.953125 0.75q-1.15625 1.765625 -3.453125 1.765625zm-0.203125 -8.203125q-0.9375 0 -1.578125 0.6875q-0.640625 0.6875 -0.796875 1.921875l4.578125 0l0 -0.109375q-0.0625 -1.1875 -0.640625 -1.84375q-0.578125 -0.65625 -1.5625 -0.65625zm14.336426 -2.953125l-3.953125 0l0 10.984375l-1.625 0l0 -10.984375l-3.9375 0l0 -1.328125l9.515625 0l0 1.328125zm3.9799805 8.6875l2.125 -6.859375l1.671875 0l-3.671875 10.5625q-0.859375 2.296875 -2.71875 2.296875l-0.296875 -0.03125l-0.59375 -0.109375l0 -1.265625l0.4375 0.03125q0.78125 0 1.21875 -0.328125q0.453125 -0.3125 0.75 -1.171875l0.34375 -0.921875l-3.265625 -9.0625l1.703125 0l2.296875 6.859375zm12.933105 -2.171875q0 2.078125 -0.96875 3.359375q-0.953125 1.28125 -2.578125 1.28125q-1.671875 0 -2.625 -1.0625l0 4.40625l-1.5625 0l0 -12.671875l1.421875 0l0.078125 1.015625q0.953125 -1.1875 2.65625 -1.1875q1.65625 0 2.609375 1.25q0.96875 1.234375 0.96875 3.453125l0 0.15625zm-1.5625 -0.1875q0 -1.546875 -0.671875 -2.4375q-0.65625 -0.90625 -1.8125 -0.90625q-1.421875 0 -2.125 1.265625l0 4.375q0.703125 1.25 2.15625 1.25q1.125 0 1.78125 -0.890625q0.671875 -0.890625 0.671875 -2.65625zm7.3466797 4.828125q-1.859375 0 -3.03125 -1.21875q-1.171875 -1.234375 -1.171875 -3.28125l0 -0.28125q0 -1.359375 0.515625 -2.421875q0.53125 -1.078125 1.46875 -1.6875q0.9375 -0.609375 2.015625 -0.609375q1.796875 0 2.78125 1.1875q0.984375 1.171875 0.984375 3.359375l0 0.65625l-6.1875 0q0.03125 1.34375 0.78125 2.1875q0.765625 0.828125 1.921875 0.828125q0.828125 0 1.40625 -0.328125q0.578125 -0.34375 1.015625 -0.90625l0.953125 0.75q-1.15625 1.765625 -3.453125 1.765625zm-0.203125 -8.203125q-0.9375 0 -1.578125 0.6875q-0.640625 0.6875 -0.796875 1.921875l4.578125 0l0 -0.109375q-0.0625 -1.1875 -0.640625 -1.84375q-0.578125 -0.65625 -1.5625 -0.65625z" fill-rule="nonzero"/><path fill="#000000" fill-opacity="0.0" d="m228.88583 73.25984c0 -6.8274536 5.5347443 -12.3622055 12.362198 -12.3622055l301.9685 0c6.8274536 0 12.362183 -5.534748 12.362183 -12.362202l0 0c0 6.8274536 5.534729 12.362202 12.362183 12.362202l301.9685 0l0 0c6.8274536 0 12.362244 5.534752 12.362244 12.3622055z" fill-rule="evenodd"/><path fill="#000000" fill-opacity="0.0" d="m228.88583 73.25984c0 -6.8274536 5.5347443 -12.3622055 12.362198 -12.3622055l301.9685 0c6.8274536 0 12.362183 -5.534748 12.362183 -12.362202l0 0c0 6.8274536 5.534729 12.362202 12.362183 12.362202l301.9685 0l0 0c6.8274536 0 12.362244 5.534752 12.362244 12.3622055" fill-rule="evenodd"/><path stroke="#000000" stroke-width="1.0" stroke-linejoin="round" stroke-linecap="butt" d="m228.88583 73.25984c0 -6.8274536 5.5347443 -12.3622055 12.362198 -12.3622055l301.9685 0c6.8274536 0 12.362183 -5.534748 12.362183 -12.362202l0 0c0 6.8274536 5.534729 12.362202 12.362183 12.362202l301.9685 0l0 0c6.8274536 0 12.362244 5.534752 12.362244 12.3622055" fill-rule="evenodd"/><path fill="#b6d7a8" d="m686.7336 128.51181l188.40948 0l0 42.015747l-188.40948 0z" fill-rule="evenodd"/><path stroke="#000000" stroke-width="1.0" stroke-linejoin="round" stroke-linecap="butt" d="m686.7336 128.51181l188.40948 0l0 42.015747l-188.40948 0z" fill-rule="evenodd"/><path fill="#000000" d="m730.8015 141.83931l4.03125 10.046875l4.015625 -10.046875l2.109375 0l0 12.3125l-1.625 0l0 -4.796875l0.15625 -5.171875l-4.046875 9.96875l-1.25 0l-4.03125 -9.953125l0.15625 5.15625l0 4.796875l-1.609375 0l0 -12.3125l2.09375 0zm16.58142 12.484375q-1.859375 0 -3.03125 -1.21875q-1.171875 -1.234375 -1.171875 -3.28125l0 -0.28125q0 -1.359375 0.515625 -2.421875q0.53125 -1.078125 1.46875 -1.6875q0.9375 -0.609375 2.015625 -0.609375q1.796875 0 2.78125 1.1875q0.984375 1.171875 0.984375 3.359375l0 0.65625l-6.1875 0q0.03125 1.34375 0.78125 2.1875q0.765625 0.828125 1.921875 0.828125q0.828125 0 1.40625 -0.328125q0.578125 -0.34375 1.015625 -0.90625l0.953125 0.75q-1.15625 1.765625 -3.453125 1.765625zm-0.203125 -8.203125q-0.9375 0 -1.578125 0.6875q-0.640625 0.6875 -0.796875 1.921875l4.578125 0l0 -0.109375q-0.0625 -1.1875 -0.640625 -1.84375q-0.578125 -0.65625 -1.5625 -0.65625zm10.914551 5.609375q0 -0.640625 -0.484375 -0.984375q-0.46875 -0.359375 -1.65625 -0.609375q-1.1875 -0.25 -1.890625 -0.609375q-0.703125 -0.359375 -1.046875 -0.84375q-0.328125 -0.5 -0.328125 -1.171875q0 -1.125 0.953125 -1.90625q0.953125 -0.78125 2.4375 -0.78125q1.5625 0 2.53125 0.8125q0.96875 0.796875 0.96875 2.046875l-1.578125 0q0 -0.640625 -0.546875 -1.09375q-0.546875 -0.46875 -1.375 -0.46875q-0.859375 0 -1.34375 0.375q-0.46875 0.359375 -0.46875 0.96875q0 0.5625 0.4375 0.859375q0.453125 0.28125 1.625 0.546875q1.171875 0.25 1.890625 0.625q0.734375 0.359375 1.078125 0.875q0.359375 0.5 0.359375 1.25q0 1.21875 -0.984375 1.96875q-0.96875 0.734375 -2.546875 0.734375q-1.09375 0 -1.9375 -0.390625q-0.84375 -0.390625 -1.328125 -1.078125q-0.484375 -0.703125 -0.484375 -1.515625l1.578125 0q0.03125 0.78125 0.625 1.25q0.59375 0.453125 1.546875 0.453125q0.890625 0 1.421875 -0.359375q0.546875 -0.359375 0.546875 -0.953125zm8.934814 0q0 -0.640625 -0.484375 -0.984375q-0.46875 -0.359375 -1.65625 -0.609375q-1.1875 -0.25 -1.890625 -0.609375q-0.703125 -0.359375 -1.046875 -0.84375q-0.328125 -0.5 -0.328125 -1.171875q0 -1.125 0.953125 -1.90625q0.953125 -0.78125 2.4375 -0.78125q1.5625 0 2.53125 0.8125q0.96875 0.796875 0.96875 2.046875l-1.578125 0q0 -0.640625 -0.546875 -1.09375q-0.546875 -0.46875 -1.375 -0.46875q-0.859375 0 -1.34375 0.375q-0.46875 0.359375 -0.46875 0.96875q0 0.5625 0.4375 0.859375q0.453125 0.28125 1.625 0.546875q1.171875 0.25 1.890625 0.625q0.734375 0.359375 1.078125 0.875q0.359375 0.5 0.359375 1.25q0 1.21875 -0.984375 1.96875q-0.96875 0.734375 -2.546875 0.734375q-1.09375 0 -1.9375 -0.390625q-0.84375 -0.390625 -1.328125 -1.078125q-0.484375 -0.703125 -0.484375 -1.515625l1.578125 0q0.03125 0.78125 0.625 1.25q0.59375 0.453125 1.546875 0.453125q0.890625 0 1.421875 -0.359375q0.546875 -0.359375 0.546875 -0.953125zm9.262939 2.421875q-0.140625 -0.265625 -0.234375 -0.96875q-1.078125 1.140625 -2.59375 1.140625q-1.359375 0 -2.234375 -0.765625q-0.859375 -0.765625 -0.859375 -1.9375q0 -1.4375 1.078125 -2.21875q1.09375 -0.796875 3.0625 -0.796875l1.53125 0l0 -0.71875q0 -0.828125 -0.5 -1.3125q-0.484375 -0.484375 -1.4375 -0.484375q-0.84375 0 -1.40625 0.421875q-0.5625 0.421875 -0.5625 1.03125l-1.578125 0q0 -0.6875 0.484375 -1.328125q0.484375 -0.640625 1.3125 -1.015625q0.84375 -0.375 1.84375 -0.375q1.578125 0 2.46875 0.796875q0.90625 0.796875 0.9375 2.171875l0 4.21875q0 1.265625 0.328125 2.0l0 0.140625l-1.640625 0zm-2.609375 -1.1875q0.734375 0 1.390625 -0.375q0.671875 -0.390625 0.96875 -1.0l0 -1.875l-1.234375 0q-2.875 0 -2.875 1.671875q0 0.75 0.484375 1.171875q0.5 0.40625 1.265625 0.40625zm6.003662 -3.46875q0 -2.140625 0.984375 -3.40625q1.0 -1.265625 2.625 -1.265625q1.671875 0 2.625 1.1875l0.0625 -1.015625l1.4375 0l0 8.9375q0 1.78125 -1.0625 2.796875q-1.046875 1.03125 -2.828125 1.03125q-0.984375 0 -1.9375 -0.421875q-0.9375 -0.421875 -1.4375 -1.171875l0.8125 -0.9375q1.0 1.25 2.453125 1.25q1.140625 0 1.78125 -0.640625q0.640625 -0.640625 0.640625 -1.8125l0 -0.78125q-0.9375 1.078125 -2.5625 1.078125q-1.609375 0 -2.609375 -1.296875q-0.984375 -1.296875 -0.984375 -3.53125zm1.578125 0.1875q0 1.546875 0.625 2.4375q0.640625 0.875 1.78125 0.875q1.484375 0 2.171875 -1.34375l0 -4.1875q-0.71875 -1.3125 -2.15625 -1.3125q-1.140625 0 -1.78125 0.890625q-0.640625 0.890625 -0.640625 2.640625zm12.31543 4.640625q-1.859375 0 -3.03125 -1.21875q-1.171875 -1.234375 -1.171875 -3.28125l0 -0.28125q0 -1.359375 0.515625 -2.421875q0.53125 -1.078125 1.46875 -1.6875q0.9375 -0.609375 2.015625 -0.609375q1.796875 0 2.78125 1.1875q0.984375 1.171875 0.984375 3.359375l0 0.65625l-6.1875 0q0.03125 1.34375 0.78125 2.1875q0.765625 0.828125 1.921875 0.828125q0.828125 0 1.40625 -0.328125q0.578125 -0.34375 1.015625 -0.90625l0.953125 0.75q-1.15625 1.765625 -3.453125 1.765625zm-0.203125 -8.203125q-0.9375 0 -1.578125 0.6875q-0.640625 0.6875 -0.796875 1.921875l4.578125 0l0 -0.109375q-0.0625 -1.1875 -0.640625 -1.84375q-0.578125 -0.65625 -1.5625 -0.65625zm14.336487 -2.953125l-3.953125 0l0 10.984375l-1.625 0l0 -10.984375l-3.9375 0l0 -1.328125l9.515625 0l0 1.328125zm3.9799194 8.6875l2.125 -6.859375l1.671875 0l-3.671875 10.5625q-0.859375 2.296875 -2.71875 2.296875l-0.296875 -0.03125l-0.59375 -0.109375l0 -1.265625l0.4375 0.03125q0.78125 0 1.21875 -0.328125q0.453125 -0.3125 0.75 -1.171875l0.34375 -0.921875l-3.265625 -9.0625l1.703125 0l2.296875 6.859375zm12.933105 -2.171875q0 2.078125 -0.96875 3.359375q-0.953125 1.28125 -2.578125 1.28125q-1.671875 0 -2.625 -1.0625l0 4.40625l-1.5625 0l0 -12.671875l1.421875 0l0.078125 1.015625q0.953125 -1.1875 2.65625 -1.1875q1.65625 0 2.609375 1.25q0.96875 1.234375 0.96875 3.453125l0 0.15625zm-1.5625 -0.1875q0 -1.546875 -0.671875 -2.4375q-0.65625 -0.90625 -1.8125 -0.90625q-1.421875 0 -2.125 1.265625l0 4.375q0.703125 1.25 2.15625 1.25q1.125 0 1.78125 -0.890625q0.671875 -0.890625 0.671875 -2.65625zm7.3466797 4.828125q-1.859375 0 -3.03125 -1.21875q-1.171875 -1.234375 -1.171875 -3.28125l0 -0.28125q0 -1.359375 0.515625 -2.421875q0.53125 -1.078125 1.46875 -1.6875q0.9375 -0.609375 2.015625 -0.609375q1.796875 0 2.78125 1.1875q0.984375 1.171875 0.984375 3.359375l0 0.65625l-6.1875 0q0.03125 1.34375 0.78125 2.1875q0.765625 0.828125 1.921875 0.828125q0.828125 0 1.40625 -0.328125q0.578125 -0.34375 1.015625 -0.90625l0.953125 0.75q-1.15625 1.765625 -3.453125 1.765625zm-0.203125 -8.203125q-0.9375 0 -1.578125 0.6875q-0.640625 0.6875 -0.796875 1.921875l4.578125 0l0 -0.109375q-0.0625 -1.1875 -0.640625 -1.84375q-0.578125 -0.65625 -1.5625 -0.65625z" fill-rule="nonzero"/><path fill="#000000" fill-opacity="0.0" d="m635.4239 86.53018l52.188965 90.3307" fill-rule="evenodd"/><path stroke="#000000" stroke-width="1.0" stroke-linejoin="round" stroke-linecap="butt" stroke-dasharray="1.0,3.0" d="m635.4239 86.53018l52.188965 90.3307" fill-rule="evenodd"/><path fill="#000000" fill-opacity="0.0" d="m634.42126 324.35696l53.19684 -53.19687" fill-rule="evenodd"/><path stroke="#000000" stroke-width="1.0" stroke-linejoin="round" stroke-linecap="butt" stroke-dasharray="1.0,3.0" d="m634.42126 324.35696l53.19684 -53.19687" fill-rule="evenodd"/><path fill="#cfe2f3" d="m228.88583 170.52756l171.37009 0l0 122.61417l-171.37009 0z" fill-rule="evenodd"/><path stroke="#000000" stroke-width="1.0" stroke-linejoin="round" stroke-linecap="butt" d="m228.88583 170.52756l171.37009 0l0 122.61417l-171.37009 0z" fill-rule="evenodd"/><path fill="#000000" d="m281.05353 191.33943l0 4.828125l-1.609375 0l0 -12.3125l4.53125 0q2.03125 0 3.171875 1.03125q1.140625 1.03125 1.140625 2.734375q0 1.78125 -1.125 2.75q-1.109375 0.96875 -3.203125 0.96875l-2.90625 0zm0 -1.328125l2.921875 0q1.3125 0 2.0 -0.609375q0.703125 -0.609375 0.703125 -1.765625q0 -1.109375 -0.703125 -1.765625q-0.6875 -0.65625 -1.90625 -0.6875l-3.015625 0l0 4.828125zm13.49411 -1.59375q-0.359375 -0.0625 -0.765625 -0.0625q-1.546875 0 -2.09375 1.3125l0 6.5l-1.5625 0l0 -9.15625l1.515625 0l0.03125 1.0625q0.765625 -1.234375 2.1875 -1.234375q0.453125 0 0.6875 0.125l0 1.453125zm5.077667 7.921875q-1.859375 0 -3.03125 -1.21875q-1.171875 -1.234375 -1.171875 -3.28125l0 -0.28125q0 -1.359375 0.515625 -2.421875q0.53125 -1.078125 1.46875 -1.6875q0.9375 -0.609375 2.015625 -0.609375q1.796875 0 2.78125 1.1875q0.984375 1.171875 0.984375 3.359375l0 0.65625l-6.1875 0q0.03125 1.34375 0.78125 2.1875q0.765625 0.828125 1.921875 0.828125q0.828125 0 1.40625 -0.328125q0.578125 -0.34375 1.015625 -0.90625l0.953125 0.75q-1.15625 1.765625 -3.453125 1.765625zm-0.203125 -8.203125q-0.9375 0 -1.578125 0.6875q-0.640625 0.6875 -0.796875 1.921875l4.578125 0l0 -0.109375q-0.0625 -1.1875 -0.640625 -1.84375q-0.578125 -0.65625 -1.5625 -0.65625zm5.1958313 3.375q0 -2.109375 1.0 -3.390625q1.0 -1.28125 2.625 -1.28125q1.609375 0 2.546875 1.109375l0 -4.78125l1.5625 0l0 13.0l-1.4375 0l-0.078125 -0.984375q-0.9375 1.15625 -2.609375 1.15625q-1.59375 0 -2.609375 -1.296875q-1.0 -1.3125 -1.0 -3.40625l0 -0.125zm1.578125 0.1875q0 1.546875 0.640625 2.4375q0.640625 0.875 1.765625 0.875q1.5 0 2.1875 -1.34375l0 -4.203125q-0.703125 -1.296875 -2.15625 -1.296875q-1.15625 0 -1.796875 0.890625q-0.640625 0.890625 -0.640625 2.640625zm10.288086 4.46875l-1.578125 0l0 -9.15625l1.578125 0l0 9.15625zm-1.703125 -11.578125q0 -0.390625 0.234375 -0.640625q0.234375 -0.265625 0.6875 -0.265625q0.46875 0 0.703125 0.265625q0.234375 0.25 0.234375 0.640625q0 0.375 -0.234375 0.640625q-0.234375 0.25 -0.703125 0.25q-0.453125 0 -0.6875 -0.25q-0.234375 -0.265625 -0.234375 -0.640625zm7.8769836 10.46875q0.828125 0 1.453125 -0.5q0.640625 -0.515625 0.703125 -1.28125l1.484375 0q-0.046875 0.796875 -0.546875 1.515625q-0.5 0.703125 -1.34375 1.125q-0.828125 0.421875 -1.75 0.421875q-1.875 0 -2.984375 -1.25q-1.09375 -1.25 -1.09375 -3.421875l0 -0.25q0 -1.34375 0.484375 -2.375q0.5 -1.046875 1.40625 -1.625q0.921875 -0.578125 2.171875 -0.578125q1.546875 0 2.5625 0.921875q1.015625 0.921875 1.09375 2.40625l-1.484375 0q-0.0625 -0.890625 -0.671875 -1.453125q-0.609375 -0.578125 -1.5 -0.578125q-1.1875 0 -1.84375 0.859375q-0.65625 0.84375 -0.65625 2.46875l0 0.296875q0 1.59375 0.640625 2.453125q0.65625 0.84375 1.875 0.84375zm11.054565 1.109375q-0.140625 -0.265625 -0.234375 -0.96875q-1.078125 1.140625 -2.59375 1.140625q-1.359375 0 -2.234375 -0.765625q-0.859375 -0.765625 -0.859375 -1.9375q0 -1.4375 1.078125 -2.21875q1.09375 -0.796875 3.0625 -0.796875l1.53125 0l0 -0.71875q0 -0.828125 -0.5 -1.3125q-0.484375 -0.484375 -1.4375 -0.484375q-0.84375 0 -1.40625 0.421875q-0.5625 0.421875 -0.5625 1.03125l-1.578125 0q0 -0.6875 0.484375 -1.328125q0.484375 -0.640625 1.3125 -1.015625q0.84375 -0.375 1.84375 -0.375q1.578125 0 2.46875 0.796875q0.90625 0.796875 0.9375 2.171875l0 4.21875q0 1.265625 0.328125 2.0l0 0.140625l-1.640625 0zm-2.609375 -1.1875q0.734375 0 1.390625 -0.375q0.671875 -0.390625 0.96875 -1.0l0 -1.875l-1.234375 0q-2.875 0 -2.875 1.671875q0 0.75 0.484375 1.171875q0.5 0.40625 1.265625 0.40625zm8.503693 -10.1875l0 2.21875l1.703125 0l0 1.21875l-1.703125 0l0 5.671875q0 0.546875 0.21875 0.828125q0.234375 0.265625 0.78125 0.265625q0.265625 0 0.75 -0.09375l0 1.265625q-0.625 0.171875 -1.203125 0.171875q-1.046875 0 -1.578125 -0.625q-0.53125 -0.640625 -0.53125 -1.8125l0 -5.671875l-1.671875 0l0 -1.21875l1.671875 0l0 -2.21875l1.5625 0zm7.3322754 11.546875q-1.859375 0 -3.03125 -1.21875q-1.171875 -1.234375 -1.171875 -3.28125l0 -0.28125q0 -1.359375 0.515625 -2.421875q0.53125 -1.078125 1.46875 -1.6875q0.9375 -0.609375 2.015625 -0.609375q1.796875 0 2.78125 1.1875q0.984375 1.171875 0.984375 3.359375l0 0.65625l-6.1875 0q0.03125 1.34375 0.78125 2.1875q0.765625 0.828125 1.921875 0.828125q0.828125 0 1.40625 -0.328125q0.578125 -0.34375 1.015625 -0.90625l0.953125 0.75q-1.15625 1.765625 -3.453125 1.765625zm-0.203125 -8.203125q-0.9375 0 -1.578125 0.6875q-0.640625 0.6875 -0.796875 1.921875l4.578125 0l0 -0.109375q-0.0625 -1.1875 -0.640625 -1.84375q-0.578125 -0.65625 -1.5625 -0.65625z" fill-rule="nonzero"/><path fill="#000000" fill-opacity="0.0" d="m401.61285 172.83202l49.19687 53.16536" fill-rule="evenodd"/><path stroke="#000000" stroke-width="1.0" stroke-linejoin="round" stroke-linecap="butt" stroke-dasharray="1.0,3.0" d="m401.61285 172.83202l49.19687 53.16536" fill-rule="evenodd"/><path fill="#000000" fill-opacity="0.0" d="m401.61285 294.25198l48.188995 25.070862" fill-rule="evenodd"/><path stroke="#000000" stroke-width="1.0" stroke-linejoin="round" stroke-linecap="butt" stroke-dasharray="1.0,3.0" d="m401.61285 294.25198l48.188995 25.070862" fill-rule="evenodd"/><path fill="#b6d7a8" d="m686.7336 326.02362l188.40948 0l0 42.015747l-188.40948 0z" fill-rule="evenodd"/><path stroke="#000000" stroke-width="1.0" stroke-linejoin="round" stroke-linecap="butt" d="m686.7336 326.02362l188.40948 0l0 42.015747l-188.40948 0z" fill-rule="evenodd"/><path fill="#000000" d="m709.7628 339.35114l0 8.375q-0.015625 1.734375 -1.109375 2.84375q-1.078125 1.109375 -2.9375 1.25l-0.4375 0.015625q-2.015625 0 -3.21875 -1.09375q-1.203125 -1.09375 -1.21875 -3.0l0 -8.390625l1.609375 0l0 8.328125q0 1.34375 0.734375 2.09375q0.734375 0.734375 2.09375 0.734375q1.375 0 2.109375 -0.734375q0.734375 -0.734375 0.734375 -2.078125l0 -8.34375l1.640625 0zm3.798706 3.15625l0.046875 1.15625q1.046875 -1.328125 2.734375 -1.328125q2.90625 0 2.9375 3.28125l0 6.046875l-1.578125 0l0 -6.0625q0 -0.984375 -0.453125 -1.453125q-0.4375 -0.484375 -1.375 -0.484375q-0.765625 0 -1.34375 0.40625q-0.5625 0.40625 -0.890625 1.078125l0 6.515625l-1.5625 0l0 -9.15625l1.484375 0zm13.732849 9.15625q-0.140625 -0.265625 -0.234375 -0.96875q-1.078125 1.140625 -2.59375 1.140625q-1.359375 0 -2.234375 -0.765625q-0.859375 -0.765625 -0.859375 -1.9375q0 -1.4375 1.078125 -2.21875q1.09375 -0.796875 3.0625 -0.796875l1.53125 0l0 -0.71875q0 -0.828125 -0.5 -1.3125q-0.484375 -0.484375 -1.4375 -0.484375q-0.84375 0 -1.40625 0.421875q-0.5625 0.421875 -0.5625 1.03125l-1.578125 0q0 -0.6875 0.484375 -1.328125q0.484375 -0.640625 1.3125 -1.015625q0.84375 -0.375 1.84375 -0.375q1.578125 0 2.46875 0.796875q0.90625 0.796875 0.9375 2.171875l0 4.21875q0 1.265625 0.328125 2.0l0 0.140625l-1.640625 0zm-2.609375 -1.1875q0.734375 0 1.390625 -0.375q0.671875 -0.390625 0.96875 -1.0l0 -1.875l-1.234375 0q-2.875 0 -2.875 1.671875q0 0.75 0.484375 1.171875q0.5 0.40625 1.265625 0.40625zm12.034912 0.28125q-0.921875 1.078125 -2.6875 1.078125q-1.46875 0 -2.234375 -0.84375q-0.765625 -0.859375 -0.765625 -2.53125l0 -5.953125l1.5625 0l0 5.921875q0 2.078125 1.6875 2.078125q1.796875 0 2.390625 -1.34375l0 -6.65625l1.5625 0l0 9.15625l-1.484375 0l-0.03125 -0.90625zm6.02124 -10.46875l0 2.21875l1.703125 0l0 1.21875l-1.703125 0l0 5.671875q0 0.546875 0.21875 0.828125q0.234375 0.265625 0.78125 0.265625q0.265625 0 0.75 -0.09375l0 1.265625q-0.625 0.171875 -1.203125 0.171875q-1.046875 0 -1.578125 -0.625q-0.53125 -0.640625 -0.53125 -1.8125l0 -5.671875l-1.671875 0l0 -1.21875l1.671875 0l0 -2.21875l1.5625 0zm5.0979004 3.328125q1.046875 -1.28125 2.703125 -1.28125q2.90625 0 2.9375 3.28125l0 6.046875l-1.578125 0l0 -6.0625q0 -0.984375 -0.453125 -1.453125q-0.4375 -0.484375 -1.375 -0.484375q-0.765625 0 -1.34375 0.40625q-0.5625 0.40625 -0.890625 1.078125l0 6.515625l-1.5625 0l0 -13.0l1.5625 0l0 4.953125zm11.778381 8.21875q-1.859375 0 -3.03125 -1.21875q-1.171875 -1.234375 -1.171875 -3.28125l0 -0.28125q0 -1.359375 0.515625 -2.421875q0.53125 -1.078125 1.46875 -1.6875q0.9375 -0.609375 2.015625 -0.609375q1.796875 0 2.78125 1.1875q0.984375 1.171875 0.984375 3.359375l0 0.65625l-6.1875 0q0.03125 1.34375 0.78125 2.1875q0.765625 0.828125 1.921875 0.828125q0.828125 0 1.40625 -0.328125q0.578125 -0.34375 1.015625 -0.90625l0.953125 0.75q-1.15625 1.765625 -3.453125 1.765625zm-0.203125 -8.203125q-0.9375 0 -1.578125 0.6875q-0.640625 0.6875 -0.796875 1.921875l4.578125 0l0 -0.109375q-0.0625 -1.1875 -0.640625 -1.84375q-0.578125 -0.65625 -1.5625 -0.65625zm7.070801 -1.125l0.046875 1.15625q1.046875 -1.328125 2.734375 -1.328125q2.90625 0 2.9375 3.28125l0 6.046875l-1.578125 0l0 -6.0625q0 -0.984375 -0.453125 -1.453125q-0.4375 -0.484375 -1.375 -0.484375q-0.765625 0 -1.34375 0.40625q-0.5625 0.40625 -0.890625 1.078125l0 6.515625l-1.5625 0l0 -9.15625l1.484375 0zm10.201538 -2.21875l0 2.21875l1.703125 0l0 1.21875l-1.703125 0l0 5.671875q0 0.546875 0.21875 0.828125q0.234375 0.265625 0.78125 0.265625q0.265625 0 0.75 -0.09375l0 1.265625q-0.625 0.171875 -1.203125 0.171875q-1.046875 0 -1.578125 -0.625q-0.53125 -0.640625 -0.53125 -1.8125l0 -5.671875l-1.671875 0l0 -1.21875l1.671875 0l0 -2.21875l1.5625 0zm5.2385864 11.375l-1.578125 0l0 -9.15625l1.578125 0l0 9.15625zm-1.703125 -11.578125q0 -0.390625 0.234375 -0.640625q0.234375 -0.265625 0.6875 -0.265625q0.46875 0 0.703125 0.265625q0.234375 0.25 0.234375 0.640625q0 0.375 -0.234375 0.640625q-0.234375 0.25 -0.703125 0.25q-0.453125 0 -0.6875 -0.25q-0.234375 -0.265625 -0.234375 -0.640625zm7.876953 10.46875q0.828125 0 1.453125 -0.5q0.640625 -0.515625 0.703125 -1.28125l1.484375 0q-0.046875 0.796875 -0.546875 1.515625q-0.5 0.703125 -1.34375 1.125q-0.828125 0.421875 -1.75 0.421875q-1.875 0 -2.984375 -1.25q-1.09375 -1.25 -1.09375 -3.421875l0 -0.25q0 -1.34375 0.484375 -2.375q0.5 -1.046875 1.40625 -1.625q0.921875 -0.578125 2.171875 -0.578125q1.546875 0 2.5625 0.921875q1.015625 0.921875 1.09375 2.40625l-1.484375 0q-0.0625 -0.890625 -0.671875 -1.453125q-0.609375 -0.578125 -1.5 -0.578125q-1.1875 0 -1.84375 0.859375q-0.65625 0.84375 -0.65625 2.46875l0 0.296875q0 1.59375 0.640625 2.453125q0.65625 0.84375 1.875 0.84375zm11.054565 1.109375q-0.140625 -0.265625 -0.234375 -0.96875q-1.078125 1.140625 -2.59375 1.140625q-1.359375 0 -2.234375 -0.765625q-0.859375 -0.765625 -0.859375 -1.9375q0 -1.4375 1.078125 -2.21875q1.09375 -0.796875 3.0625 -0.796875l1.53125 0l0 -0.71875q0 -0.828125 -0.5 -1.3125q-0.484375 -0.484375 -1.4375 -0.484375q-0.84375 0 -1.40625 0.421875q-0.5625 0.421875 -0.5625 1.03125l-1.578125 0q0 -0.6875 0.484375 -1.328125q0.484375 -0.640625 1.3125 -1.015625q0.84375 -0.375 1.84375 -0.375q1.578125 0 2.46875 0.796875q0.90625 0.796875 0.9375 2.171875l0 4.21875q0 1.265625 0.328125 2.0l0 0.140625l-1.640625 0zm-2.609375 -1.1875q0.734375 0 1.390625 -0.375q0.671875 -0.390625 0.96875 -1.0l0 -1.875l-1.234375 0q-2.875 0 -2.875 1.671875q0 0.75 0.484375 1.171875q0.5 0.40625 1.265625 0.40625zm8.503723 -10.1875l0 2.21875l1.703125 0l0 1.21875l-1.703125 0l0 5.671875q0 0.546875 0.21875 0.828125q0.234375 0.265625 0.78125 0.265625q0.265625 0 0.75 -0.09375l0 1.265625q-0.625 0.171875 -1.203125 0.171875q-1.046875 0 -1.578125 -0.625q-0.53125 -0.640625 -0.53125 -1.8125l0 -5.671875l-1.671875 0l0 -1.21875l1.671875 0l0 -2.21875l1.5625 0zm7.3322754 11.546875q-1.859375 0 -3.03125 -1.21875q-1.171875 -1.234375 -1.171875 -3.28125l0 -0.28125q0 -1.359375 0.515625 -2.421875q0.53125 -1.078125 1.46875 -1.6875q0.9375 -0.609375 2.015625 -0.609375q1.796875 0 2.78125 1.1875q0.984375 1.171875 0.984375 3.359375l0 0.65625l-6.1875 0q0.03125 1.34375 0.78125 2.1875q0.765625 0.828125 1.921875 0.828125q0.828125 0 1.40625 -0.328125q0.578125 -0.34375 1.015625 -0.90625l0.953125 0.75q-1.15625 1.765625 -3.453125 1.765625zm-0.203125 -8.203125q-0.9375 0 -1.578125 0.6875q-0.640625 0.6875 -0.796875 1.921875l4.578125 0l0 -0.109375q-0.0625 -1.1875 -0.640625 -1.84375q-0.578125 -0.65625 -1.5625 -0.65625zm5.195801 3.375q0 -2.109375 1.0 -3.390625q1.0 -1.28125 2.625 -1.28125q1.609375 0 2.546875 1.109375l0 -4.78125l1.5625 0l0 13.0l-1.4375 0l-0.078125 -0.984375q-0.9375 1.15625 -2.609375 1.15625q-1.59375 0 -2.609375 -1.296875q-1.0 -1.3125 -1.0 -3.40625l0 -0.125zm1.578125 0.1875q0 1.546875 0.640625 2.4375q0.640625 0.875 1.765625 0.875q1.5 0 2.1875 -1.34375l0 -4.203125q-0.703125 -1.296875 -2.15625 -1.296875q-1.15625 0 -1.796875 0.890625q-0.640625 0.890625 -0.640625 2.640625zm8.834961 4.46875l0 -12.3125l3.46875 0q1.609375 0 2.84375 0.71875q1.234375 0.703125 1.90625 2.015625q0.671875 1.296875 0.6875 3.0l0 0.796875q0 1.734375 -0.671875 3.046875q-0.671875 1.3125 -1.921875 2.015625q-1.25 0.703125 -2.90625 0.71875l-3.40625 0zm1.609375 -10.984375l0 9.65625l1.71875 0q1.875 0 2.921875 -1.15625q1.046875 -1.171875 1.046875 -3.34375l0 -0.71875q0 -2.09375 -0.984375 -3.25q-0.984375 -1.171875 -2.796875 -1.1875l-1.90625 0zm15.160034 10.984375q-0.140625 -0.265625 -0.234375 -0.96875q-1.078125 1.140625 -2.59375 1.140625q-1.359375 0 -2.234375 -0.765625q-0.859375 -0.765625 -0.859375 -1.9375q0 -1.4375 1.078125 -2.21875q1.09375 -0.796875 3.0625 -0.796875l1.53125 0l0 -0.71875q0 -0.828125 -0.5 -1.3125q-0.484375 -0.484375 -1.4375 -0.484375q-0.84375 0 -1.40625 0.421875q-0.5625 0.421875 -0.5625 1.03125l-1.578125 0q0 -0.6875 0.484375 -1.328125q0.484375 -0.640625 1.3125 -1.015625q0.84375 -0.375 1.84375 -0.375q1.578125 0 2.46875 0.796875q0.90625 0.796875 0.9375 2.171875l0 4.21875q0 1.265625 0.328125 2.0l0 0.140625l-1.640625 0zm-2.609375 -1.1875q0.734375 0 1.390625 -0.375q0.671875 -0.390625 0.96875 -1.0l0 -1.875l-1.234375 0q-2.875 0 -2.875 1.671875q0 0.75 0.484375 1.171875q0.5 0.40625 1.265625 0.40625zm8.503662 -10.1875l0 2.21875l1.703125 0l0 1.21875l-1.703125 0l0 5.671875q0 0.546875 0.21875 0.828125q0.234375 0.265625 0.78125 0.265625q0.265625 0 0.75 -0.09375l0 1.265625q-0.625 0.171875 -1.203125 0.171875q-1.046875 0 -1.578125 -0.625q-0.53125 -0.640625 -0.53125 -1.8125l0 -5.671875l-1.671875 0l0 -1.21875l1.671875 0l0 -2.21875l1.5625 0zm9.19165 11.375q-0.140625 -0.265625 -0.234375 -0.96875q-1.078125 1.140625 -2.59375 1.140625q-1.359375 0 -2.234375 -0.765625q-0.859375 -0.765625 -0.859375 -1.9375q0 -1.4375 1.078125 -2.21875q1.09375 -0.796875 3.0625 -0.796875l1.53125 0l0 -0.71875q0 -0.828125 -0.5 -1.3125q-0.484375 -0.484375 -1.4375 -0.484375q-0.84375 0 -1.40625 0.421875q-0.5625 0.421875 -0.5625 1.03125l-1.578125 0q0 -0.6875 0.484375 -1.328125q0.484375 -0.640625 1.3125 -1.015625q0.84375 -0.375 1.84375 -0.375q1.578125 0 2.46875 0.796875q0.90625 0.796875 0.9375 2.171875l0 4.21875q0 1.265625 0.328125 2.0l0 0.140625l-1.640625 0zm-2.609375 -1.1875q0.734375 0 1.390625 -0.375q0.671875 -0.390625 0.96875 -1.0l0 -1.875l-1.234375 0q-2.875 0 -2.875 1.671875q0 0.75 0.484375 1.171875q0.5 0.40625 1.265625 0.40625z" fill-rule="nonzero"/></g></svg>