<svg version="1.1" viewBox="0.0 0.0 817.1338582677165 275.8923884514436" fill="none" stroke="none" stroke-linecap="square" stroke-miterlimit="10" xmlns:xlink="http://www.w3.org/1999/xlink" xmlns="http://www.w3.org/2000/svg"><clipPath id="p.0"><path d="m0 0l817.13385 0l0 275.8924l-817.13385 0l0 -275.8924z" clip-rule="nonzero"/></clipPath><g clip-path="url(#p.0)"><path fill="#000000" fill-opacity="0.0" d="m0 0l817.13385 0l0 275.8924l-817.13385 0z" fill-rule="evenodd"/><path fill="#d9ead3" d="m118.18329 51.349083l0 0c0 4.150833 25.699554 7.515747 57.40158 7.515747c31.702011 0 57.401566 -3.364914 57.401566 -7.515747l0 45.09449c0 4.150833 -25.699554 7.515747 -57.401566 7.515747c-31.702026 0 -57.40158 -3.364914 -57.40158 -7.515747z" fill-rule="evenodd"/><path fill="#e8f2e4" d="m118.18329 51.349083l0 0c0 -4.150833 25.699554 -7.515751 57.40158 -7.515751c31.702011 0 57.401566 3.3649178 57.401566 7.515751l0 0c0 4.150833 -25.699554 7.515747 -57.401566 7.515747c-31.702026 0 -57.40158 -3.364914 -57.40158 -7.515747z" fill-rule="evenodd"/><path fill="#000000" fill-opacity="0.0" d="m232.98643 51.349083l0 0c0 4.150833 -25.699554 7.515747 -57.401566 7.515747c-31.702026 0 -57.40158 -3.364914 -57.40158 -7.515747l0 0c0 -4.150833 25.699554 -7.515751 57.40158 -7.515751c31.702011 0 57.401566 3.3649178 57.401566 7.515751l0 45.09449c0 4.150833 -25.699554 7.515747 -57.401566 7.515747c-31.702026 0 -57.40158 -3.364914 -57.40158 -7.515747l0 -45.09449" fill-rule="evenodd"/><path stroke="#595959" stroke-width="1.0" stroke-linejoin="round" stroke-linecap="butt" d="m232.98643 51.349083l0 0c0 4.150833 -25.699554 7.515747 -57.401566 7.515747c-31.702026 0 -57.40158 -3.364914 -57.40158 -7.515747l0 0c0 -4.150833 25.699554 -7.515751 57.40158 -7.515751c31.702011 0 57.401566 3.3649178 57.401566 7.515751l0 45.09449c0 4.150833 -25.699554 7.515747 -57.401566 7.515747c-31.702026 0 -57.40158 -3.364914 -57.40158 -7.515747l0 -45.09449" fill-rule="evenodd"/><path fill="#000000" d="m152.14726 78.667946q-2.25 -0.65625 -3.28125 -1.59375q-1.03125 -0.9375 -1.03125 -2.328125q0 -1.5625 1.25 -2.59375q1.265625 -1.03125 3.265625 -1.03125q1.359375 0 2.4375 0.53125q1.078125 0.53125 1.65625 1.46875q0.59375 0.921875 0.59375 2.03125l-1.765625 0q0 -1.203125 -0.765625 -1.890625q-0.765625 -0.6875 -2.15625 -0.6875q-1.296875 0 -2.015625 0.5625q-0.71875 0.5625 -0.71875 1.578125q0 0.8125 0.6875 1.375q0.6875 0.5625 2.328125 1.03125q1.65625 0.453125 2.59375 1.015625q0.9375 0.5625 1.375 1.3125q0.453125 0.75 0.453125 1.75q0 1.609375 -1.25 2.59375q-1.25 0.96875 -3.359375 0.96875q-1.375 0 -2.5625 -0.515625q-1.171875 -0.53125 -1.8125 -1.4375q-0.640625 -0.921875 -0.640625 -2.078125l1.75 0q0 1.203125 0.890625 1.90625q0.890625 0.6875 2.375 0.6875q1.375 0 2.109375 -0.5625q0.75 -0.5625 0.75 -1.53125q0 -0.984375 -0.6875 -1.515625q-0.6875 -0.53125 -2.46875 -1.046875zm6.443039 0.890625q0 -1.453125 0.5625 -2.609375q0.578125 -1.15625 1.59375 -1.78125q1.015625 -0.625 2.3125 -0.625q2.015625 0 3.25 1.390625q1.25 1.390625 1.25 3.703125l0 0.125q0 1.4375 -0.546875 2.578125q-0.546875 1.140625 -1.578125 1.78125q-1.015625 0.640625 -2.359375 0.640625q-2.0 0 -3.25 -1.390625q-1.234375 -1.40625 -1.234375 -3.703125l0 -0.109375zm1.6875 0.203125q0 1.640625 0.765625 2.640625q0.765625 0.984375 2.03125 0.984375q1.296875 0 2.046875 -1.0q0.75 -1.015625 0.75 -2.828125q0 -1.625 -0.765625 -2.625q-0.765625 -1.015625 -2.046875 -1.015625q-1.25 0 -2.015625 1.0q-0.765625 0.984375 -0.765625 2.84375zm15.483643 3.84375q-0.984375 1.15625 -2.890625 1.15625q-1.578125 0 -2.40625 -0.921875q-0.8125 -0.921875 -0.828125 -2.703125l0 -6.421875l1.6875 0l0 6.375q0 2.234375 1.828125 2.234375q1.921875 0 2.5625 -1.4375l0 -7.171875l1.6875 0l0 9.859375l-1.609375 0l-0.03125 -0.96875zm8.972122 -7.375q-0.390625 -0.0625 -0.84375 -0.0625q-1.65625 0 -2.25 1.40625l0 7.0l-1.671875 0l0 -9.859375l1.640625 0l0.015625 1.140625q0.828125 -1.3125 2.359375 -1.3125q0.484375 0 0.75 0.125l0 1.5625zm5.3272095 7.15625q0.890625 0 1.5625 -0.546875q0.6875 -0.546875 0.75 -1.375l1.59375 0q-0.046875 0.84375 -0.578125 1.609375q-0.53125 0.765625 -1.4375 1.234375q-0.890625 0.453125 -1.890625 0.453125q-2.015625 0 -3.203125 -1.34375q-1.1875 -1.34375 -1.1875 -3.6875l0 -0.28125q0 -1.4375 0.515625 -2.546875q0.53125 -1.125 1.515625 -1.734375q1.0 -0.625 2.34375 -0.625q1.65625 0 2.75 1.0q1.109375 0.984375 1.171875 2.5625l-1.59375 0q-0.0625 -0.953125 -0.71875 -1.5625q-0.65625 -0.625 -1.609375 -0.625q-1.28125 0 -2.0 0.921875q-0.703125 0.921875 -0.703125 2.671875l0 0.328125q0 1.703125 0.703125 2.625q0.703125 0.921875 2.015625 0.921875zm9.890381 1.375q-2.0 0 -3.265625 -1.3125q-1.25 -1.328125 -1.25 -3.53125l0 -0.3125q0 -1.46875 0.5625 -2.609375q0.5625 -1.15625 1.5625 -1.796875q1.015625 -0.65625 2.1875 -0.65625q1.921875 0 2.984375 1.265625q1.0625 1.265625 1.0625 3.625l0 0.6875l-6.671875 0q0.03125 1.46875 0.84375 2.375q0.828125 0.890625 2.078125 0.890625q0.890625 0 1.515625 -0.359375q0.625 -0.375 1.078125 -0.96875l1.03125 0.796875q-1.234375 1.90625 -3.71875 1.90625zm-0.203125 -8.84375q-1.015625 0 -1.71875 0.75q-0.6875 0.734375 -0.84375 2.078125l4.9375 0l0 -0.125q-0.078125 -1.28125 -0.703125 -1.984375q-0.609375 -0.71875 -1.671875 -0.71875z" fill-rule="nonzero"/><path fill="#c9daf8" d="m277.43176 53.85978l0 0c0 -5.5345535 4.4866333 -10.021198 10.021179 -10.021198l94.76077 0c2.6577759 0 5.206726 1.0558052 7.0860596 2.9351425c1.8793335 1.8793373 2.9351196 4.4282684 2.9351196 7.0860558l0 40.083588c0 5.5345535 -4.4866333 10.021202 -10.021179 10.021202l-94.76077 0c-5.534546 0 -10.021179 -4.4866486 -10.021179 -10.021202z" fill-rule="evenodd"/><path stroke="#595959" stroke-width="1.0" stroke-linejoin="round" stroke-linecap="butt" d="m277.43176 53.85978l0 0c0 -5.5345535 4.4866333 -10.021198 10.021179 -10.021198l94.76077 0c2.6577759 0 5.206726 1.0558052 7.0860596 2.9351425c1.8793335 1.8793373 2.9351196 4.4282684 2.9351196 7.0860558l0 40.083588c0 5.5345535 -4.4866333 10.021202 -10.021179 10.021202l-94.76077 0c-5.534546 0 -10.021179 -4.4866486 -10.021179 -10.021202z" fill-rule="evenodd"/><path fill="#000000" d="m315.64243 80.82157l0 -13.265625l4.328125 0q2.15625 0 3.25 0.890625q1.09375 0.890625 1.09375 2.640625q0 0.9375 -0.53125 1.65625q-0.53125 0.703125 -1.4375 1.09375q1.0625 0.3125 1.6875 1.15625q0.625 0.84375 0.625 2.0q0 1.78125 -1.15625 2.8125q-1.15625 1.015625 -3.265625 1.015625l-4.59375 0zm1.734375 -6.203125l0 4.765625l2.890625 0q1.21875 0 1.921875 -0.625q0.71875 -0.640625 0.71875 -1.75q0 -2.390625 -2.609375 -2.390625l-2.921875 0zm0 -1.40625l2.65625 0q1.140625 0 1.828125 -0.5625q0.6875 -0.578125 0.6875 -1.5625q0 -1.09375 -0.640625 -1.59375q-0.640625 -0.5 -1.9375 -0.5l-2.59375 0l0 4.21875zm15.692749 6.640625q-0.984375 1.15625 -2.890625 1.15625q-1.578125 0 -2.40625 -0.921875q-0.8125 -0.921875 -0.828125 -2.703125l0 -6.421875l1.6875 0l0 6.375q0 2.234375 1.828125 2.234375q1.921875 0 2.5625 -1.4375l0 -7.171875l1.6875 0l0 9.859375l-1.609375 0l-0.03125 -0.96875zm6.034607 0.96875l-1.6875 0l0 -9.859375l1.6875 0l0 9.859375zm-1.828125 -12.46875q0 -0.40625 0.25 -0.6875q0.25 -0.296875 0.734375 -0.296875q0.5 0 0.75 0.296875q0.265625 0.28125 0.265625 0.6875q0 0.40625 -0.265625 0.6875q-0.25 0.265625 -0.75 0.265625q-0.484375 0 -0.734375 -0.265625q-0.25 -0.28125 -0.25 -0.6875zm6.3555603 12.46875l-1.6875 0l0 -14.0l1.6875 0l0 14.0zm2.2774353 -5.015625q0 -2.265625 1.078125 -3.640625q1.078125 -1.375 2.8125 -1.375q1.734375 0 2.75 1.171875l0 -5.140625l1.6875 0l0 14.0l-1.546875 0l-0.09375 -1.0625q-1.0 1.25 -2.8125 1.25q-1.703125 0 -2.796875 -1.40625q-1.078125 -1.40625 -1.078125 -3.65625l0 -0.140625zm1.6875 0.203125q0 1.671875 0.6875 2.625q0.703125 0.9375 1.921875 0.9375q1.609375 0 2.34375 -1.4375l0 -4.53125q-0.765625 -1.390625 -2.328125 -1.390625q-1.234375 0 -1.9375 0.953125q-0.6875 0.953125 -0.6875 2.84375z" fill-rule="nonzero"/><path fill="#c9daf8" d="m436.68198 53.862404l0 0c0 -5.5345535 4.4866333 -10.021198 10.02121 -10.021198l94.76074 0c2.6577759 0 5.206726 1.0558052 7.0860596 2.9351425c1.8793335 1.8793411 2.9351196 4.4282684 2.9351196 7.0860558l0 40.083588c0 5.5345535 -4.4866333 10.021202 -10.021179 10.021202l-94.76074 0c-5.5345764 0 -10.02121 -4.4866486 -10.02121 -10.021202z" fill-rule="evenodd"/><path stroke="#595959" stroke-width="1.0" stroke-linejoin="round" stroke-linecap="butt" d="m436.68198 53.862404l0 0c0 -5.5345535 4.4866333 -10.021198 10.02121 -10.021198l94.76074 0c2.6577759 0 5.206726 1.0558052 7.0860596 2.9351425c1.8793335 1.8793411 2.9351196 4.4282684 2.9351196 7.0860558l0 40.083588c0 5.5345535 -4.4866333 10.021202 -10.021179 10.021202l-94.76074 0c-5.5345764 0 -10.02121 -4.4866486 -10.02121 -10.021202z" fill-rule="evenodd"/><path fill="#000000" d="m467.40924 80.824196l0 -13.265625l3.734375 0q1.734375 0 3.0625 0.765625q1.328125 0.765625 2.046875 2.1875q0.734375 1.40625 0.734375 3.234375l0 0.84375q0 1.875 -0.71875 3.296875q-0.71875 1.40625 -2.0625 2.171875q-1.34375 0.75 -3.140625 0.765625l-3.65625 0zm1.734375 -11.828125l0 10.390625l1.84375 0q2.03125 0 3.15625 -1.25q1.125 -1.25 1.125 -3.578125l0 -0.78125q0 -2.25 -1.0625 -3.5q-1.0625 -1.265625 -3.015625 -1.28125l-2.046875 0zm14.312195 12.015625q-2.0 0 -3.265625 -1.3125q-1.25 -1.328125 -1.25 -3.53125l0 -0.3125q0 -1.46875 0.5625 -2.609375q0.5625 -1.15625 1.5625 -1.796875q1.015625 -0.65625 2.1875 -0.65625q1.921875 0 2.984375 1.265625q1.0625 1.265625 1.0625 3.625l0 0.6875l-6.671875 0q0.03125 1.46875 0.84375 2.375q0.828125 0.890625 2.078125 0.890625q0.890625 0 1.515625 -0.359375q0.625 -0.375 1.078125 -0.96875l1.03125 0.796875q-1.234375 1.90625 -3.71875 1.90625zm-0.203125 -8.84375q-1.015625 0 -1.71875 0.75q-0.6875 0.734375 -0.84375 2.078125l4.9375 0l0 -0.125q-0.078125 -1.28125 -0.703125 -1.984375q-0.609375 -0.71875 -1.671875 -0.71875zm14.321289 3.84375q0 2.25 -1.03125 3.625q-1.015625 1.375 -2.78125 1.375q-1.796875 0 -2.828125 -1.140625l0 4.75l-1.671875 0l0 -13.65625l1.53125 0l0.078125 1.09375q1.03125 -1.265625 2.859375 -1.265625q1.78125 0 2.8125 1.34375q1.03125 1.328125 1.03125 3.71875l0 0.15625zm-1.671875 -0.203125q0 -1.65625 -0.71875 -2.625q-0.703125 -0.96875 -1.953125 -0.96875q-1.53125 0 -2.296875 1.359375l0 4.703125q0.765625 1.359375 2.328125 1.359375q1.203125 0 1.921875 -0.953125q0.71875 -0.96875 0.71875 -2.875zm5.6543274 5.015625l-1.6875 0l0 -14.0l1.6875 0l0 14.0zm2.2461548 -5.015625q0 -1.453125 0.5625 -2.609375q0.578125 -1.15625 1.59375 -1.78125q1.015625 -0.625 2.3125 -0.625q2.015625 0 3.25 1.390625q1.2500305 1.390625 1.2500305 3.703125l0 0.125q0 1.4375 -0.546875 2.578125q-0.5469055 1.140625 -1.5781555 1.78125q-1.015625 0.640625 -2.359375 0.640625q-2.0 0 -3.25 -1.390625q-1.234375 -1.40625 -1.234375 -3.703125l0 -0.109375zm1.6875 0.203125q0 1.640625 0.765625 2.640625q0.765625 0.984375 2.03125 0.984375q1.296875 0 2.046875 -1.0q0.75 -1.015625 0.75 -2.828125q0 -1.625 -0.765625 -2.625q-0.765625 -1.015625 -2.046875 -1.015625q-1.25 0 -2.015625 1.0q-0.765625 0.984375 -0.765625 2.84375zm12.487579 2.34375l2.296875 -7.390625l1.796875 0l-3.953125 11.375q-0.921875 2.46875 -2.921875 2.46875l-0.328125 -0.03125l-0.625 -0.125l0 -1.359375l0.453125 0.03125q0.859375 0 1.328125 -0.34375q0.484375 -0.34375 0.796875 -1.265625l0.375 -1.0l-3.515625 -9.75l1.84375 0l2.453125 7.390625z" fill-rule="nonzero"/><path fill="#efefef" d="m15.572179 73.896324l0 0c0 -14.646416 11.873267 -26.519684 26.519684 -26.519684c14.64642 0 26.519688 11.873268 26.519688 26.519684c0 14.646416 -11.873268 26.519684 -26.519688 26.519684c-14.646416 0 -26.519684 -11.873268 -26.519684 -26.519684z" fill-rule="evenodd"/><path fill="#bfbfbf" d="m30.833275 65.96497c0 -1.5256653 1.2367973 -2.7624664 2.7624664 -2.7624664c1.5256691 0 2.7624664 1.2368011 2.7624664 2.7624664c0 1.5256729 -1.2367973 2.7624664 -2.7624664 2.7624664c-1.5256691 0 -2.7624664 -1.2367935 -2.7624664 -2.7624664m16.99224 0c0 -1.5256653 1.2368011 -2.7624664 2.7624702 -2.7624664c1.5256691 0 2.7624664 1.2368011 2.7624664 2.7624664c0 1.5256729 -1.2367973 2.7624664 -2.7624664 2.7624664c-1.5256691 0 -2.7624702 -1.2367935 -2.7624702 -2.7624664" fill-rule="evenodd"/><path fill="#000000" fill-opacity="0.0" d="m27.718021 85.46174q14.37384 9.871689 28.714115 0" fill-rule="evenodd"/><path fill="#000000" fill-opacity="0.0" d="m15.572179 73.896324l0 0c0 -14.646416 11.873267 -26.519684 26.519684 -26.519684c14.64642 0 26.519688 11.873268 26.519688 26.519684c0 14.646416 -11.873268 26.519684 -26.519688 26.519684c-14.646416 0 -26.519684 -11.873268 -26.519684 -26.519684z" fill-rule="evenodd"/><path stroke="#000000" stroke-width="1.0" stroke-linejoin="round" stroke-linecap="butt" d="m30.833275 65.96497c0 -1.5256653 1.2367973 -2.7624664 2.7624664 -2.7624664c1.5256691 0 2.7624664 1.2368011 2.7624664 2.7624664c0 1.5256729 -1.2367973 2.7624664 -2.7624664 2.7624664c-1.5256691 0 -2.7624664 -1.2367935 -2.7624664 -2.7624664m16.99224 0c0 -1.5256653 1.2368011 -2.7624664 2.7624702 -2.7624664c1.5256691 0 2.7624664 1.2368011 2.7624664 2.7624664c0 1.5256729 -1.2367973 2.7624664 -2.7624664 2.7624664c-1.5256691 0 -2.7624702 -1.2367935 -2.7624702 -2.7624664" fill-rule="evenodd"/><path stroke="#000000" stroke-width="1.0" stroke-linejoin="round" stroke-linecap="butt" d="m27.718021 85.46174q14.37384 9.871689 28.714115 0" fill-rule="evenodd"/><path stroke="#000000" stroke-width="1.0" stroke-linejoin="round" stroke-linecap="butt" d="m15.572179 73.896324l0 0c0 -14.646416 11.873267 -26.519684 26.519684 -26.519684c14.64642 0 26.519688 11.873268 26.519688 26.519684c0 14.646416 -11.873268 26.519684 -26.519688 26.519684c-14.646416 0 -26.519684 -11.873268 -26.519684 -26.519684z" fill-rule="evenodd"/><path fill="#000000" fill-opacity="0.0" d="m0 100.41732l84.18898 0l0 46.92913l-84.18898 0z" fill-rule="evenodd"/><path fill="#000000" d="m16.175278 122.14982l0 5.1875l-1.734375 0l0 -13.265625l4.890625 0q2.171875 0 3.40625 1.109375q1.234375 1.109375 1.234375 2.953125q0 1.921875 -1.21875 2.96875q-1.203125 1.046875 -3.453125 1.046875l-3.125 0zm0 -1.4375l3.15625 0q1.390625 0 2.140625 -0.65625q0.75 -0.65625 0.75 -1.90625q0 -1.1875 -0.75 -1.890625q-0.75 -0.71875 -2.046875 -0.75l-3.25 0l0 5.203125zm13.729111 6.8125q-2.0 0 -3.265625 -1.3125q-1.25 -1.328125 -1.25 -3.53125l0 -0.3125q0 -1.46875 0.5625 -2.609375q0.5625 -1.15625 1.5625 -1.796875q1.015625 -0.65625 2.1875 -0.65625q1.921875 0 2.984375 1.265625q1.0625 1.265625 1.0625 3.625l0 0.6875l-6.671875 0q0.03125 1.46875 0.84375 2.375q0.828125 0.890625 2.078125 0.890625q0.890625 0 1.515625 -0.359375q0.625 -0.375 1.078125 -0.96875l1.03125 0.796875q-1.234375 1.90625 -3.71875 1.90625zm-0.203125 -8.84375q-1.015625 0 -1.71875 0.75q-0.6875 0.734375 -0.84375 2.078125l4.9375 0l0 -0.125q-0.078125 -1.28125 -0.703125 -1.984375q-0.609375 -0.71875 -1.671875 -0.71875zm10.774429 0.3125q-0.390625 -0.0625 -0.84375 -0.0625q-1.65625 0 -2.25 1.40625l0 7.0l-1.671875 0l0 -9.859375l1.640625 0l0.015625 1.140625q0.828125 -1.3125 2.359375 -1.3125q0.484375 0 0.75 0.125l0 1.5625zm7.2816315 5.734375q0 -0.6875 -0.515625 -1.0625q-0.515625 -0.375 -1.796875 -0.640625q-1.28125 -0.28125 -2.03125 -0.65625q-0.75 -0.390625 -1.109375 -0.921875q-0.359375 -0.53125 -0.359375 -1.265625q0 -1.203125 1.015625 -2.03125q1.03125 -0.84375 2.625 -0.84375q1.671875 0 2.71875 0.859375q1.046875 0.859375 1.046875 2.21875l-1.6875 0q0 -0.703125 -0.59375 -1.203125q-0.59375 -0.5 -1.484375 -0.5q-0.921875 0 -1.4375 0.40625q-0.515625 0.390625 -0.515625 1.046875q0 0.609375 0.484375 0.921875q0.484375 0.3125 1.734375 0.59375q1.265625 0.28125 2.046875 0.671875q0.78125 0.390625 1.15625 0.9375q0.390625 0.546875 0.390625 1.34375q0 1.328125 -1.0625 2.125q-1.046875 0.796875 -2.734375 0.796875q-1.1875 0 -2.109375 -0.421875q-0.90625 -0.421875 -1.421875 -1.171875q-0.515625 -0.75 -0.515625 -1.625l1.6875 0q0.046875 0.84375 0.671875 1.34375q0.640625 0.5 1.6875 0.5q0.953125 0 1.53125 -0.390625q0.578125 -0.390625 0.578125 -1.03125zm3.432129 -2.40625q0 -1.453125 0.5625 -2.609375q0.578125 -1.15625 1.59375 -1.78125q1.015625 -0.625 2.3125 -0.625q2.015625 0 3.25 1.390625q1.25 1.390625 1.25 3.703125l0 0.125q0 1.4375 -0.546875 2.578125q-0.546875 1.140625 -1.578125 1.78125q-1.015625 0.640625 -2.359375 0.640625q-2.0 0 -3.25 -1.390625q-1.234375 -1.40625 -1.234375 -3.703125l0 -0.109375zm1.6875 0.203125q0 1.640625 0.765625 2.640625q0.765625 0.984375 2.03125 0.984375q1.296875 0 2.046875 -1.0q0.75 -1.015625 0.75 -2.828125q0 -1.625 -0.765625 -2.625q-0.765625 -1.015625 -2.046875 -1.015625q-1.25 0 -2.015625 1.0q-0.765625 0.984375 -0.765625 2.84375zm10.999268 -5.046875l0.046875 1.234375q1.125 -1.40625 2.953125 -1.40625q3.125 0 3.15625 3.515625l0 6.515625l-1.6875 0l0 -6.515625q-0.015625 -1.078125 -0.5 -1.578125q-0.46875 -0.515625 -1.484375 -0.515625q-0.8125 0 -1.4375 0.4375q-0.609375 0.4375 -0.96875 1.15625l0 7.015625l-1.671875 0l0 -9.859375l1.59375 0z" fill-rule="nonzero"/><path fill="#d9ead3" d="m595.9304 51.351707l0 0c0 4.150833 25.699585 7.515747 57.40161 7.515747c31.702026 0 57.40155 -3.364914 57.40155 -7.515747l0 45.09449c0 4.150833 -25.699524 7.515747 -57.40155 7.515747c-31.702026 0 -57.40161 -3.364914 -57.40161 -7.515747z" fill-rule="evenodd"/><path fill="#e8f2e4" d="m595.9304 51.351707l0 0c0 -4.150833 25.699585 -7.515751 57.40161 -7.515751c31.702026 0 57.40155 3.3649178 57.40155 7.515751l0 0c0 4.150833 -25.699524 7.515747 -57.40155 7.515747c-31.702026 0 -57.40161 -3.364914 -57.40161 -7.515747z" fill-rule="evenodd"/><path fill="#000000" fill-opacity="0.0" d="m710.7336 51.351707l0 0c0 4.150833 -25.699524 7.515747 -57.40155 7.515747c-31.702026 0 -57.40161 -3.364914 -57.40161 -7.515747l0 0c0 -4.150833 25.699585 -7.515751 57.40161 -7.515751c31.702026 0 57.40155 3.3649178 57.40155 7.515751l0 45.09449c0 4.150833 -25.699524 7.515747 -57.40155 7.515747c-31.702026 0 -57.40161 -3.364914 -57.40161 -7.515747l0 -45.09449" fill-rule="evenodd"/><path stroke="#595959" stroke-width="1.0" stroke-linejoin="round" stroke-linecap="butt" d="m710.7336 51.351707l0 0c0 4.150833 -25.699524 7.515747 -57.40155 7.515747c-31.702026 0 -57.40161 -3.364914 -57.40161 -7.515747l0 0c0 -4.150833 25.699585 -7.515751 57.40161 -7.515751c31.702026 0 57.40155 3.3649178 57.40155 7.515751l0 45.09449c0 4.150833 -25.699524 7.515747 -57.40155 7.515747c-31.702026 0 -57.40161 -3.364914 -57.40161 -7.515747l0 -45.09449" fill-rule="evenodd"/><path fill="#000000" d="m620.8863 79.217445l-3.125 0l0 5.359375l-1.75 0l0 -13.265625l4.390625 0q2.234375 0 3.4375 1.03125q1.21875 1.015625 1.21875 2.953125q0 1.25 -0.671875 2.171875q-0.671875 0.921875 -1.859375 1.375l3.109375 5.625l0 0.109375l-1.875 0l-2.875 -5.359375zm-3.125 -1.4375l2.6875 0q1.3125 0 2.078125 -0.671875q0.765625 -0.671875 0.765625 -1.8125q0 -1.21875 -0.734375 -1.875q-0.734375 -0.65625 -2.109375 -0.671875l-2.6875 0l0 5.03125zm13.565247 6.984375q-2.0 0 -3.265625 -1.3125q-1.25 -1.328125 -1.25 -3.53125l0 -0.3125q0 -1.46875 0.5625 -2.609375q0.5625 -1.15625 1.5625 -1.796875q1.015625 -0.65625 2.1875 -0.65625q1.921875 0 2.984375 1.265625q1.0625 1.265625 1.0625 3.625l0 0.6875l-6.671875 0q0.03125 1.46875 0.84375 2.375q0.828125 0.890625 2.078125 0.890625q0.890625 0 1.515625 -0.359375q0.625 -0.375 1.078125 -0.96875l1.03125 0.796875q-1.234375 1.90625 -3.71875 1.90625zm-0.203125 -8.84375q-1.015625 0 -1.71875 0.75q-0.6875 0.734375 -0.84375 2.078125l4.9375 0l0 -0.125q-0.078125 -1.28125 -0.703125 -1.984375q-0.609375 -0.71875 -1.671875 -0.71875zm11.743164 6.046875q0 -0.6875 -0.515625 -1.0625q-0.515625 -0.375 -1.796875 -0.640625q-1.28125 -0.28125 -2.03125 -0.65625q-0.75 -0.390625 -1.109375 -0.921875q-0.359375 -0.53125 -0.359375 -1.265625q0 -1.203125 1.015625 -2.03125q1.03125 -0.84375 2.625 -0.84375q1.671875 0 2.71875 0.859375q1.046875 0.859375 1.046875 2.21875l-1.6875 0q0 -0.703125 -0.59375 -1.203125q-0.59375 -0.5 -1.484375 -0.5q-0.921875 0 -1.4375 0.40625q-0.515625 0.390625 -0.515625 1.046875q0 0.609375 0.484375 0.921875q0.484375 0.3125 1.734375 0.59375q1.265625 0.28125 2.046875 0.671875q0.78125 0.390625 1.15625 0.9375q0.390625 0.546875 0.390625 1.34375q0 1.328125 -1.0625 2.125q-1.046875 0.796875 -2.734375 0.796875q-1.1875 0 -2.109375 -0.421875q-0.90625 -0.421875 -1.421875 -1.171875q-0.515625 -0.75 -0.515625 -1.625l1.6875 0q0.046875 0.84375 0.671875 1.34375q0.640625 0.5 1.6875 0.5q0.953125 0 1.53125 -0.390625q0.578125 -0.390625 0.578125 -1.03125zm3.432129 -2.40625q0 -1.453125 0.5625 -2.609375q0.578125 -1.15625 1.59375 -1.78125q1.015625 -0.625 2.3125 -0.625q2.015625 0 3.25 1.390625q1.25 1.390625 1.25 3.703125l0 0.125q0 1.4375 -0.546875 2.578125q-0.546875 1.140625 -1.578125 1.78125q-1.015625 0.640625 -2.359375 0.640625q-2.0 0 -3.25 -1.390625q-1.234375 -1.40625 -1.234375 -3.703125l0 -0.109375zm1.6875 0.203125q0 1.640625 0.765625 2.640625q0.765625 0.984375 2.03125 0.984375q1.296875 0 2.046875 -1.0q0.75 -1.015625 0.75 -2.828125q0 -1.625 -0.765625 -2.625q-0.765625 -1.015625 -2.046875 -1.015625q-1.25 0 -2.015625 1.0q-0.765625 0.984375 -0.765625 2.84375zm15.483643 3.84375q-0.984375 1.15625 -2.890625 1.15625q-1.578125 0 -2.40625 -0.921875q-0.8125 -0.921875 -0.828125 -2.703125l0 -6.421875l1.6875 0l0 6.375q0 2.234375 1.828125 2.234375q1.921875 0 2.5625 -1.4375l0 -7.171875l1.6875 0l0 9.859375l-1.609375 0l-0.03125 -0.96875zm8.972107 -7.375q-0.390625 -0.0625 -0.84375 -0.0625q-1.65625 0 -2.25 1.40625l0 7.0l-1.671875 0l0 -9.859375l1.640625 0l0.015625 1.140625q0.828125 -1.3125 2.359375 -1.3125q0.484375 0 0.75 0.125l0 1.5625zm5.3272095 7.15625q0.890625 0 1.5625 -0.546875q0.6875 -0.546875 0.75 -1.375l1.59375 0q-0.046875 0.84375 -0.578125 1.609375q-0.53125 0.765625 -1.4375 1.234375q-0.890625 0.453125 -1.890625 0.453125q-2.015625 0 -3.203125 -1.34375q-1.1875 -1.34375 -1.1875 -3.6875l0 -0.28125q0 -1.4375 0.515625 -2.546875q0.53125 -1.125 1.515625 -1.734375q1.0 -0.625 2.34375 -0.625q1.65625 0 2.75 1.0q1.109375 0.984375 1.171875 2.5625l-1.59375 0q-0.0625 -0.953125 -0.71875 -1.5625q-0.65625 -0.625 -1.609375 -0.625q-1.28125 0 -2.0 0.921875q-0.703125 0.921875 -0.703125 2.671875l0 0.328125q0 1.703125 0.703125 2.625q0.703125 0.921875 2.015625 0.921875zm9.890381 1.375q-2.0 0 -3.265625 -1.3125q-1.25 -1.328125 -1.25 -3.53125l0 -0.3125q0 -1.46875 0.5625 -2.609375q0.5625 -1.15625 1.5625 -1.796875q1.015625 -0.65625 2.1875 -0.65625q1.921875 0 2.984375 1.265625q1.0625 1.265625 1.0625 3.625l0 0.6875l-6.671875 0q0.03125 1.46875 0.84375 2.375q0.828125 0.890625 2.078125 0.890625q0.890625 0 1.515625 -0.359375q0.625 -0.375 1.078125 -0.96875l1.03125 0.796875q-1.234375 1.90625 -3.71875 1.90625zm-0.203125 -8.84375q-1.015625 0 -1.71875 0.75q-0.6875 0.734375 -0.84375 2.078125l4.9375 0l0 -0.125q-0.078125 -1.28125 -0.703125 -1.984375q-0.609375 -0.71875 -1.671875 -0.71875z" fill-rule="nonzero"/><path fill="#d9ead3" d="m261.7467 154.17323l0 0c0 4.150833 32.722015 7.515747 73.08664 7.515747c40.364624 0 73.08661 -3.364914 73.08661 -7.515747l0 45.094482c0 4.150833 -32.721985 7.515747 -73.08661 7.515747c-40.364624 0 -73.08664 -3.364914 -73.08664 -7.515747z" fill-rule="evenodd"/><path fill="#e8f2e4" d="m261.7467 154.17323l0 0c0 -4.150833 32.722015 -7.515747 73.08664 -7.515747c40.364624 0 73.08661 3.364914 73.08661 7.515747l0 0c0 4.150833 -32.721985 7.515747 -73.08661 7.515747c-40.364624 0 -73.08664 -3.364914 -73.08664 -7.515747z" fill-rule="evenodd"/><path fill="#000000" fill-opacity="0.0" d="m407.91995 154.17323l0 0c0 4.150833 -32.721985 7.515747 -73.08661 7.515747c-40.364624 0 -73.08664 -3.364914 -73.08664 -7.515747l0 0c0 -4.150833 32.722015 -7.515747 73.08664 -7.515747c40.364624 0 73.08661 3.364914 73.08661 7.515747l0 45.094482c0 4.150833 -32.721985 7.515747 -73.08661 7.515747c-40.364624 0 -73.08664 -3.364914 -73.08664 -7.515747l0 -45.094482" fill-rule="evenodd"/><path stroke="#595959" stroke-width="1.0" stroke-linejoin="round" stroke-linecap="butt" d="m407.91995 154.17323l0 0c0 4.150833 -32.721985 7.515747 -73.08661 7.515747c-40.364624 0 -73.08664 -3.364914 -73.08664 -7.515747l0 0c0 -4.150833 32.722015 -7.515747 73.08664 -7.515747c40.364624 0 73.08661 3.364914 73.08661 7.515747l0 45.094482c0 4.150833 -32.721985 7.515747 -73.08661 7.515747c-40.364624 0 -73.08664 -3.364914 -73.08664 -7.515747l0 -45.094482" fill-rule="evenodd"/><path fill="#000000" d="m285.35336 187.39835l0 -13.265625l3.734375 0q1.734375 0 3.0625 0.765625q1.328125 0.765625 2.046875 2.1875q0.734375 1.40625 0.734375 3.234375l0 0.84375q0 1.875 -0.71875 3.296875q-0.71875 1.40625 -2.0625 2.171875q-1.34375 0.75 -3.140625 0.765625l-3.65625 0zm1.734375 -11.828125l0 10.390625l1.84375 0q2.03125 0 3.15625 -1.25q1.125 -1.25 1.125 -3.578125l0 -0.78125q0 -2.25 -1.0625 -3.5q-1.0625 -1.265625 -3.015625 -1.28125l-2.046875 0zm14.312164 12.015625q-2.0 0 -3.265625 -1.3125q-1.25 -1.328125 -1.25 -3.53125l0 -0.3125q0 -1.46875 0.5625 -2.609375q0.5625 -1.15625 1.5625 -1.796875q1.015625 -0.65625 2.1875 -0.65625q1.921875 0 2.984375 1.265625q1.0625 1.265625 1.0625 3.625l0 0.6875l-6.671875 0q0.03125 1.46875 0.84375 2.375q0.828125 0.890625 2.078125 0.890625q0.890625 0 1.515625 -0.359375q0.625 -0.375 1.078125 -0.96875l1.03125 0.796875q-1.234375 1.90625 -3.71875 1.90625zm-0.203125 -8.84375q-1.015625 0 -1.71875 0.75q-0.6875 0.734375 -0.84375 2.078125l4.9375 0l0 -0.125q-0.078125 -1.28125 -0.703125 -1.984375q-0.609375 -0.71875 -1.671875 -0.71875zm14.32132 3.84375q0 2.25 -1.03125 3.625q-1.015625 1.375 -2.78125 1.375q-1.796875 0 -2.828125 -1.140625l0 4.75l-1.671875 0l0 -13.65625l1.53125 0l0.078125 1.09375q1.03125 -1.265625 2.859375 -1.265625q1.78125 0 2.8125 1.34375q1.03125 1.328125 1.03125 3.71875l0 0.15625zm-1.671875 -0.203125q0 -1.65625 -0.71875 -2.625q-0.703125 -0.96875 -1.953125 -0.96875q-1.53125 0 -2.296875 1.359375l0 4.703125q0.765625 1.359375 2.328125 1.359375q1.203125 0 1.921875 -0.953125q0.71875 -0.96875 0.71875 -2.875zm7.904297 5.203125q-2.0 0 -3.265625 -1.3125q-1.25 -1.328125 -1.25 -3.53125l0 -0.3125q0 -1.46875 0.5625 -2.609375q0.5625 -1.15625 1.5625 -1.796875q1.015625 -0.65625 2.1875 -0.65625q1.921875 0 2.984375 1.265625q1.0625 1.265625 1.0625 3.625l0 0.6875l-6.671875 0q0.03125 1.46875 0.84375 2.375q0.828125 0.890625 2.078125 0.890625q0.890625 0 1.515625 -0.359375q0.625 -0.375 1.078125 -0.96875l1.03125 0.796875q-1.234375 1.90625 -3.71875 1.90625zm-0.203125 -8.84375q-1.015625 0 -1.71875 0.75q-0.6875 0.734375 -0.84375 2.078125l4.9375 0l0 -0.125q-0.078125 -1.28125 -0.703125 -1.984375q-0.609375 -0.71875 -1.671875 -0.71875zm7.6025696 -1.203125l0.046875 1.234375q1.125 -1.40625 2.953125 -1.40625q3.125 0 3.15625 3.515625l0 6.515625l-1.6875 0l0 -6.515625q-0.015625 -1.078125 -0.5 -1.578125q-0.46875 -0.515625 -1.484375 -0.515625q-0.8125 0 -1.4375 0.4375q-0.609375 0.4375 -0.96875 1.15625l0 7.015625l-1.671875 0l0 -9.859375l1.59375 0zm8.278107 4.84375q0 -2.265625 1.078125 -3.640625q1.078125 -1.375 2.8125 -1.375q1.734375 0 2.75 1.171875l0 -5.140625l1.6875 0l0 14.0l-1.546875 0l-0.09375 -1.0625q-1.0 1.25 -2.8125 1.25q-1.703125 0 -2.796875 -1.40625q-1.078125 -1.40625 -1.078125 -3.65625l0 -0.140625zm1.6875 0.203125q0 1.671875 0.6875 2.625q0.703125 0.9375 1.921875 0.9375q1.609375 0 2.34375 -1.4375l0 -4.53125q-0.765625 -1.390625 -2.328125 -1.390625q-1.234375 0 -1.9375 0.953125q-0.6875 0.953125 -0.6875 2.84375zm13.333954 5.0q-2.0 0 -3.265625 -1.3125q-1.25 -1.328125 -1.25 -3.53125l0 -0.3125q0 -1.46875 0.5625 -2.609375q0.5625 -1.15625 1.5625 -1.796875q1.015625 -0.65625 2.1875 -0.65625q1.921875 0 2.984375 1.265625q1.0625 1.265625 1.0625 3.625l0 0.6875l-6.671875 0q0.03125 1.46875 0.84375 2.375q0.828125 0.890625 2.078125 0.890625q0.890625 0 1.515625 -0.359375q0.625 -0.375 1.078125 -0.96875l1.03125 0.796875q-1.234375 1.90625 -3.71875 1.90625zm-0.203125 -8.84375q-1.015625 0 -1.71875 0.75q-0.6875 0.734375 -0.84375 2.078125l4.9375 0l0 -0.125q-0.078125 -1.28125 -0.703125 -1.984375q-0.609375 -0.71875 -1.671875 -0.71875zm7.6025696 -1.203125l0.046875 1.234375q1.125 -1.40625 2.953125 -1.40625q3.125 0 3.15625 3.515625l0 6.515625l-1.6875 0l0 -6.515625q-0.015625 -1.078125 -0.5 -1.578125q-0.46875 -0.515625 -1.484375 -0.515625q-0.8125 0 -1.4375 0.4375q-0.609375 0.4375 -0.96875 1.15625l0 7.015625l-1.671875 0l0 -9.859375l1.59375 0zm12.653107 8.671875q0.890625 0 1.5625 -0.546875q0.6875 -0.546875 0.75 -1.375l1.59375 0q-0.046875 0.84375 -0.578125 1.609375q-0.53125 0.765625 -1.4375 1.234375q-0.890625 0.453125 -1.890625 0.453125q-2.015625 0 -3.203125 -1.34375q-1.1875 -1.34375 -1.1875 -3.6875l0 -0.28125q0 -1.4375 0.515625 -2.546875q0.53125 -1.125 1.515625 -1.734375q1.0 -0.625 2.34375 -0.625q1.65625 0 2.75 1.0q1.109375 0.984375 1.171875 2.5625l-1.59375 0q-0.0625 -0.953125 -0.71875 -1.5625q-0.65625 -0.625 -1.609375 -0.625q-1.28125 0 -2.0 0.921875q-0.703125 0.921875 -0.703125 2.671875l0 0.328125q0 1.703125 0.703125 2.625q0.703125 0.921875 2.015625 0.921875zm9.031006 -1.28125l2.296875 -7.390625l1.796875 0l-3.953125 11.375q-0.921875 2.46875 -2.921875 2.46875l-0.328125 -0.03125l-0.625 -0.125l0 -1.359375l0.453125 0.03125q0.859375 0 1.328125 -0.34375q0.484375 -0.34375 0.796875 -1.265625l0.375 -1.0l-3.515625 -9.75l1.84375 0l2.453125 7.390625z" fill-rule="nonzero"/><path fill="#cfe2f3" d="m351.61023 36.964565l-8.638031 -8.125982l4.0629883 0c-1.8383789 -14.351088 -8.260498 -24.377953 -15.613922 -24.377953l8.125977 0l0 0c7.353424 0 13.775574 10.026865 15.613922 24.377953l4.0629883 0z" fill-rule="evenodd"/><path fill="#a5b4c2" d="m335.48425 5.5092254l0 0c-7.1044617 3.728232 -12.062988 16.658016 -12.062988 31.45534l-8.125977 0l0 0c0 -10.064585 2.3131104 -19.56144 6.263733 -25.716684c3.9506226 -6.155245 9.093048 -8.27446 13.925232 -5.7386556z" fill-rule="evenodd"/><path fill="#000000" fill-opacity="0.0" d="m335.48425 5.5092254l0 0c-7.1044617 3.728232 -12.062988 16.658016 -12.062988 31.45534l-8.125977 0l0 0c0 -17.951427 7.2198486 -32.503937 16.125977 -32.503937l8.125977 0l0 0c7.353424 0 13.775574 10.026865 15.613922 24.377953l4.0629883 0l-7.613922 8.125982l-8.638031 -8.125982l4.0629883 0c-1.8383789 -14.351088 -8.260498 -24.377953 -15.613922 -24.377953" fill-rule="evenodd"/><path stroke="#000000" stroke-width="1.0" stroke-linejoin="round" stroke-linecap="butt" d="m335.48425 5.5092254l0 0c-7.1044617 3.728232 -12.062988 16.658016 -12.062988 31.45534l-8.125977 0l0 0c0 -17.951427 7.2198486 -32.503937 16.125977 -32.503937l8.125977 0l0 0c7.353424 0 13.775574 10.026865 15.613922 24.377953l4.0629883 0l-7.613922 8.125982l-8.638031 -8.125982l4.0629883 0c-1.8383789 -14.351088 -8.260498 -24.377953 -15.613922 -24.377953" fill-rule="evenodd"/><path fill="#cfe2f3" d="m77.94882 70.29002l21.71653 0l0 -3.614174l7.228348 7.228348l-7.228348 7.228348l0 -3.614174l-21.71653 0z" fill-rule="evenodd"/><path stroke="#000000" stroke-width="1.0" stroke-linejoin="round" stroke-linecap="butt" d="m77.94882 70.29002l21.71653 0l0 -3.614174l7.228348 7.228348l-7.228348 7.228348l0 -3.614174l-21.71653 0z" fill-rule="evenodd"/><path fill="#cfe2f3" d="m240.73622 70.29002l21.716537 0l0 -3.614174l7.2283325 7.228348l-7.2283325 7.228348l0 -3.614174l-21.716537 0z" fill-rule="evenodd"/><path stroke="#000000" stroke-width="1.0" stroke-linejoin="round" stroke-linecap="butt" d="m240.73622 70.29002l21.716537 0l0 -3.614174l7.2283325 7.228348l-7.2283325 7.228348l0 -3.614174l-21.716537 0z" fill-rule="evenodd"/><path fill="#cfe2f3" d="m399.98557 70.29002l21.716522 0l0 -3.614174l7.228363 7.228348l-7.228363 7.228348l0 -3.614174l-21.716522 0z" fill-rule="evenodd"/><path stroke="#000000" stroke-width="1.0" stroke-linejoin="round" stroke-linecap="butt" d="m399.98557 70.29002l21.716522 0l0 -3.614174l7.228363 7.228348l-7.228363 7.228348l0 -3.614174l-21.716522 0z" fill-rule="evenodd"/><path fill="#cfe2f3" d="m559.2349 70.29002l21.716492 0l0 -3.614174l7.2283936 7.228348l-7.2283936 7.228348l0 -3.614174l-21.716492 0z" fill-rule="evenodd"/><path stroke="#000000" stroke-width="1.0" stroke-linejoin="round" stroke-linecap="butt" d="m559.2349 70.29002l21.716492 0l0 -3.614174l7.2283936 7.228348l-7.2283936 7.228348l0 -3.614174l-21.716492 0z" fill-rule="evenodd"/><path fill="#cfe2f3" d="m331.21915 139.78346l0 -21.71653l-3.6141663 0l7.228363 -7.228348l7.2283325 7.228348l-3.6141663 0l0 21.71653z" fill-rule="evenodd"/><path stroke="#000000" stroke-width="1.0" stroke-linejoin="round" stroke-linecap="butt" d="m331.21915 139.78346l0 -21.71653l-3.6141663 0l7.228363 -7.228348l7.2283325 7.228348l-3.6141663 0l0 21.71653z" fill-rule="evenodd"/><path fill="#d9ead3" d="m527.6706 158.08792l0 0c0 1.5155334 5.330261 2.7440948 11.905518 2.7440948c6.5752563 0 11.905518 -1.2285614 11.905518 -2.7440948l0 16.46457c0 1.5155182 -5.330261 2.7440948 -11.905518 2.7440948c-6.5752563 0 -11.905518 -1.2285767 -11.905518 -2.7440948z" fill-rule="evenodd"/><path fill="#e8f2e4" d="m527.6706 158.08792l0 0c0 -1.5155182 5.330261 -2.7440948 11.905518 -2.7440948c6.5752563 0 11.905518 1.2285767 11.905518 2.7440948l0 0c0 1.5155334 -5.330261 2.7440948 -11.905518 2.7440948c-6.5752563 0 -11.905518 -1.2285614 -11.905518 -2.7440948z" fill-rule="evenodd"/><path fill="#000000" fill-opacity="0.0" d="m551.4816 158.08792l0 0c0 1.5155334 -5.330261 2.7440948 -11.905518 2.7440948c-6.5752563 0 -11.905518 -1.2285614 -11.905518 -2.7440948l0 0c0 -1.5155182 5.330261 -2.7440948 11.905518 -2.7440948c6.5752563 0 11.905518 1.2285767 11.905518 2.7440948l0 16.46457c0 1.5155182 -5.330261 2.7440948 -11.905518 2.7440948c-6.5752563 0 -11.905518 -1.2285767 -11.905518 -2.7440948l0 -16.46457" fill-rule="evenodd"/><path stroke="#595959" stroke-width="1.0" stroke-linejoin="round" stroke-linecap="butt" d="m551.4816 158.08792l0 0c0 1.5155334 -5.330261 2.7440948 -11.905518 2.7440948c-6.5752563 0 -11.905518 -1.2285614 -11.905518 -2.7440948l0 0c0 -1.5155182 5.330261 -2.7440948 11.905518 -2.7440948c6.5752563 0 11.905518 1.2285767 11.905518 2.7440948l0 16.46457c0 1.5155182 -5.330261 2.7440948 -11.905518 2.7440948c-6.5752563 0 -11.905518 -1.2285767 -11.905518 -2.7440948l0 -16.46457" fill-rule="evenodd"/><path fill="#000000" fill-opacity="0.0" d="m551.48425 155.32808l129.60632 0l0 21.952759l-129.60632 0z" fill-rule="evenodd"/><path fill="#000000" d="m565.98425 167.55508l-2.671875 0l0 4.609375l-1.515625 0l0 -11.375l3.765625 0q1.921875 0 2.953125 0.875q1.046875 0.875 1.046875 2.546875q0 1.0625 -0.578125 1.859375q-0.578125 0.78125 -1.59375 1.171875l2.671875 4.828125l0 0.09375l-1.609375 0l-2.46875 -4.609375zm-2.671875 -1.21875l2.296875 0q1.125 0 1.78125 -0.578125q0.65625 -0.578125 0.65625 -1.546875q0 -1.0625 -0.625 -1.625q-0.625 -0.5625 -1.8125 -0.5625l-2.296875 0l0 4.3125zm11.6328125 5.984375q-1.71875 0 -2.796875 -1.125q-1.078125 -1.140625 -1.078125 -3.03125l0 -0.265625q0 -1.25 0.46875 -2.234375q0.484375 -1.0 1.34375 -1.546875q0.875 -0.5625 1.875 -0.5625q1.65625 0 2.5625 1.09375q0.921875 1.078125 0.921875 3.09375l0 0.609375l-5.734375 0q0.03125 1.25 0.734375 2.015625q0.703125 0.765625 1.78125 0.765625q0.765625 0 1.296875 -0.3125q0.53125 -0.3125 0.921875 -0.828125l0.890625 0.6875q-1.0625 1.640625 -3.1875 1.640625zm-0.1875 -7.578125q-0.875 0 -1.46875 0.640625q-0.59375 0.625 -0.734375 1.78125l4.234375 0l0 -0.109375q-0.0625 -1.109375 -0.59375 -1.703125q-0.53125 -0.609375 -1.4375 -0.609375zm10.0703125 5.171875q0 -0.578125 -0.4375 -0.90625q-0.4375 -0.328125 -1.546875 -0.5625q-1.09375 -0.234375 -1.734375 -0.5625q-0.640625 -0.328125 -0.953125 -0.78125q-0.3125 -0.453125 -0.3125 -1.078125q0 -1.03125 0.875 -1.75q0.890625 -0.71875 2.25 -0.71875q1.4375 0 2.328125 0.75q0.90625 0.734375 0.90625 1.890625l-1.453125 0q0 -0.59375 -0.515625 -1.015625q-0.5 -0.4375 -1.265625 -0.4375q-0.78125 0 -1.234375 0.34375q-0.4375 0.34375 -0.4375 0.890625q0 0.53125 0.40625 0.796875q0.421875 0.265625 1.5 0.515625q1.078125 0.234375 1.75 0.578125q0.671875 0.328125 1.0 0.796875q0.328125 0.46875 0.328125 1.15625q0 1.125 -0.90625 1.8125q-0.90625 0.6875 -2.359375 0.6875q-1.015625 0 -1.796875 -0.359375q-0.78125 -0.359375 -1.21875 -1.0q-0.4375 -0.65625 -0.4375 -1.40625l1.4375 0q0.046875 0.734375 0.578125 1.15625q0.546875 0.421875 1.4375 0.421875q0.828125 0 1.3125 -0.328125q0.5 -0.328125 0.5 -0.890625zm2.953125 -2.0625q0 -1.234375 0.484375 -2.21875q0.484375 -1.0 1.359375 -1.53125q0.875 -0.546875 1.984375 -0.546875q1.734375 0 2.796875 1.203125q1.0625 1.1875 1.0625 3.171875l0 0.09375q0 1.234375 -0.46875 2.21875q-0.46875 0.984375 -1.359375 1.53125q-0.875 0.546875 -2.015625 0.546875q-1.71875 0 -2.78125 -1.1875q-1.0625 -1.203125 -1.0625 -3.171875l0 -0.109375zm1.453125 0.171875q0 1.40625 0.640625 2.265625q0.65625 0.84375 1.75 0.84375q1.109375 0 1.75 -0.859375q0.65625 -0.859375 0.65625 -2.421875q0 -1.390625 -0.671875 -2.25q-0.65625 -0.859375 -1.75 -0.859375q-1.0625 0 -1.71875 0.859375q-0.65625 0.84375 -0.65625 2.421875zm13.265625 3.296875q-0.84375 1.0 -2.46875 1.0q-1.359375 0 -2.0625 -0.78125q-0.703125 -0.796875 -0.71875 -2.328125l0 -5.5l1.453125 0l0 5.453125q0 1.921875 1.5625 1.921875q1.65625 0 2.203125 -1.234375l0 -6.140625l1.4375 0l0 8.453125l-1.375 0l-0.03125 -0.84375zm7.6953125 -6.3125q-0.328125 -0.0625 -0.71875 -0.0625q-1.421875 0 -1.921875 1.21875l0 6.0l-1.453125 0l0 -8.453125l1.40625 0l0.03125 0.96875q0.703125 -1.125 2.015625 -1.125q0.421875 0 0.640625 0.109375l0 1.34375zm4.5625 6.125q0.78125 0 1.359375 -0.46875q0.578125 -0.46875 0.640625 -1.171875l1.359375 0q-0.03125 0.734375 -0.5 1.390625q-0.453125 0.65625 -1.234375 1.046875q-0.765625 0.390625 -1.625 0.390625q-1.71875 0 -2.75 -1.15625q-1.015625 -1.15625 -1.015625 -3.15625l0 -0.234375q0 -1.234375 0.453125 -2.1875q0.453125 -0.96875 1.296875 -1.5q0.859375 -0.53125 2.015625 -0.53125q1.421875 0 2.359375 0.859375q0.9375 0.84375 1.0 2.203125l-1.359375 0q-0.0625 -0.828125 -0.625 -1.34375q-0.5625 -0.53125 -1.375 -0.53125q-1.109375 0 -1.71875 0.796875q-0.59375 0.78125 -0.59375 2.28125l0 0.28125q0 1.453125 0.59375 2.25q0.609375 0.78125 1.71875 0.78125zm8.5 1.1875q-1.71875 0 -2.796875 -1.125q-1.078125 -1.140625 -1.078125 -3.03125l0 -0.265625q0 -1.25 0.46875 -2.234375q0.484375 -1.0 1.34375 -1.546875q0.875 -0.5625 1.875 -0.5625q1.65625 0 2.5625 1.09375q0.921875 1.078125 0.921875 3.09375l0 0.609375l-5.734375 0q0.03125 1.25 0.734375 2.015625q0.703125 0.765625 1.78125 0.765625q0.765625 0 1.296875 -0.3125q0.53125 -0.3125 0.921875 -0.828125l0.890625 0.6875q-1.0625 1.640625 -3.1875 1.640625zm-0.1875 -7.578125q-0.875 0 -1.46875 0.640625q-0.59375 0.625 -0.734375 1.78125l4.234375 0l0 -0.109375q-0.0625 -1.109375 -0.59375 -1.703125q-0.53125 -0.609375 -1.4375 -0.609375z" fill-rule="nonzero"/><path fill="#c9daf8" d="m527.6706 184.43709l0 0c0 -2.0207367 1.6381226 -3.6588745 3.6588745 -3.6588745l16.493286 0c0.97039795 0 1.901062 0.3854828 2.5872192 1.0716553c0.6861572 0.6861725 1.0716553 1.6168213 1.0716553 2.5872192l0 14.63501c0 2.0207367 -1.6381226 3.6588745 -3.6588745 3.6588745l-16.493286 0c-2.020752 0 -3.6588745 -1.6381378 -3.6588745 -3.6588745z" fill-rule="evenodd"/><path stroke="#595959" stroke-width="1.0" stroke-linejoin="round" stroke-linecap="butt" d="m527.6706 184.43709l0 0c0 -2.0207367 1.6381226 -3.6588745 3.6588745 -3.6588745l16.493286 0c0.97039795 0 1.901062 0.3854828 2.5872192 1.0716553c0.6861572 0.6861725 1.0716553 1.6168213 1.0716553 2.5872192l0 14.63501c0 2.0207367 -1.6381226 3.6588745 -3.6588745 3.6588745l-16.493286 0c-2.020752 0 -3.6588745 -1.6381378 -3.6588745 -3.6588745z" fill-rule="evenodd"/><path fill="#000000" fill-opacity="0.0" d="m551.48425 180.76247l129.60632 0l0 21.952759l-129.60632 0z" fill-rule="evenodd"/><path fill="#000000" d="m563.3124 193.14572l0 4.453125l-1.5 0l0 -11.375l4.1875 0q1.875 0 2.921875 0.953125q1.0625 0.953125 1.0625 2.515625q0 1.65625 -1.03125 2.5625q-1.03125 0.890625 -2.96875 0.890625l-2.671875 0zm0 -1.234375l2.6875 0q1.203125 0 1.84375 -0.5625q0.640625 -0.5625 0.640625 -1.640625q0 -1.015625 -0.640625 -1.625q-0.640625 -0.609375 -1.75 -0.625l-2.78125 0l0 4.453125zm12.453125 -1.46875q-0.328125 -0.0625 -0.71875 -0.0625q-1.421875 0 -1.921875 1.21875l0 6.0l-1.453125 0l0 -8.453125l1.40625 0l0.03125 0.96875q0.703125 -1.125 2.015625 -1.125q0.421875 0 0.640625 0.109375l0 1.34375zm0.7890625 2.84375q0 -1.234375 0.484375 -2.21875q0.484375 -1.0 1.359375 -1.53125q0.875 -0.546875 1.984375 -0.546875q1.734375 0 2.796875 1.203125q1.0625 1.1875 1.0625 3.171875l0 0.09375q0 1.234375 -0.46875 2.21875q-0.46875 0.984375 -1.359375 1.53125q-0.875 0.546875 -2.015625 0.546875q-1.71875 0 -2.78125 -1.1875q-1.0625 -1.203125 -1.0625 -3.171875l0 -0.109375zm1.453125 0.171875q0 1.40625 0.640625 2.265625q0.65625 0.84375 1.75 0.84375q1.109375 0 1.75 -0.859375q0.65625 -0.859375 0.65625 -2.421875q0 -1.390625 -0.671875 -2.25q-0.65625 -0.859375 -1.75 -0.859375q-1.0625 0 -1.71875 0.859375q-0.65625 0.84375 -0.65625 2.421875zm11.4375 3.109375q0.78125 0 1.359375 -0.46875q0.578125 -0.46875 0.640625 -1.171875l1.359375 0q-0.03125 0.734375 -0.5 1.390625q-0.453125 0.65625 -1.234375 1.046875q-0.765625 0.390625 -1.625 0.390625q-1.71875 0 -2.75 -1.15625q-1.015625 -1.15625 -1.015625 -3.15625l0 -0.234375q0 -1.234375 0.453125 -2.1875q0.453125 -0.96875 1.296875 -1.5q0.859375 -0.53125 2.015625 -0.53125q1.421875 0 2.359375 0.859375q0.9375 0.84375 1.0 2.203125l-1.359375 0q-0.0625 -0.828125 -0.625 -1.34375q-0.5625 -0.53125 -1.375 -0.53125q-1.109375 0 -1.71875 0.796875q-0.59375 0.78125 -0.59375 2.28125l0 0.28125q0 1.453125 0.59375 2.25q0.609375 0.78125 1.71875 0.78125zm8.5 1.1875q-1.71875 0 -2.796875 -1.125q-1.078125 -1.140625 -1.078125 -3.03125l0 -0.265625q0 -1.25 0.46875 -2.234375q0.484375 -1.0 1.34375 -1.546875q0.875 -0.5625 1.875 -0.5625q1.65625 0 2.5625 1.09375q0.921875 1.078125 0.921875 3.09375l0 0.609375l-5.734375 0q0.03125 1.25 0.734375 2.015625q0.703125 0.765625 1.78125 0.765625q0.765625 0 1.296875 -0.3125q0.53125 -0.3125 0.921875 -0.828125l0.890625 0.6875q-1.0625 1.640625 -3.1875 1.640625zm-0.1875 -7.578125q-0.875 0 -1.46875 0.640625q-0.59375 0.625 -0.734375 1.78125l4.234375 0l0 -0.109375q-0.0625 -1.109375 -0.59375 -1.703125q-0.53125 -0.609375 -1.4375 -0.609375zm10.0703125 5.171875q0 -0.578125 -0.4375 -0.90625q-0.4375 -0.328125 -1.546875 -0.5625q-1.09375 -0.234375 -1.734375 -0.5625q-0.640625 -0.328125 -0.953125 -0.78125q-0.3125 -0.453125 -0.3125 -1.078125q0 -1.03125 0.875 -1.75q0.890625 -0.71875 2.25 -0.71875q1.4375 0 2.328125 0.75q0.90625 0.734375 0.90625 1.890625l-1.453125 0q0 -0.59375 -0.515625 -1.015625q-0.5 -0.4375 -1.265625 -0.4375q-0.78125 0 -1.234375 0.34375q-0.4375 0.34375 -0.4375 0.890625q0 0.53125 0.40625 0.796875q0.421875 0.265625 1.5 0.515625q1.078125 0.234375 1.75 0.578125q0.671875 0.328125 1.0 0.796875q0.328125 0.46875 0.328125 1.15625q0 1.125 -0.90625 1.8125q-0.90625 0.6875 -2.359375 0.6875q-1.015625 0 -1.796875 -0.359375q-0.78125 -0.359375 -1.21875 -1.0q-0.4375 -0.65625 -0.4375 -1.40625l1.4375 0q0.046875 0.734375 0.578125 1.15625q0.546875 0.421875 1.4375 0.421875q0.828125 0 1.3125 -0.328125q0.5 -0.328125 0.5 -0.890625zm8.25 0q0 -0.578125 -0.4375 -0.90625q-0.4375 -0.328125 -1.546875 -0.5625q-1.09375 -0.234375 -1.734375 -0.5625q-0.640625 -0.328125 -0.953125 -0.78125q-0.3125 -0.453125 -0.3125 -1.078125q0 -1.03125 0.875 -1.75q0.890625 -0.71875 2.25 -0.71875q1.4375 0 2.328125 0.75q0.90625 0.734375 0.90625 1.890625l-1.453125 0q0 -0.59375 -0.515625 -1.015625q-0.5 -0.4375 -1.265625 -0.4375q-0.78125 0 -1.234375 0.34375q-0.4375 0.34375 -0.4375 0.890625q0 0.53125 0.40625 0.796875q0.421875 0.265625 1.5 0.515625q1.078125 0.234375 1.75 0.578125q0.671875 0.328125 1.0 0.796875q0.328125 0.46875 0.328125 1.15625q0 1.125 -0.90625 1.8125q-0.90625 0.6875 -2.359375 0.6875q-1.015625 0 -1.796875 -0.359375q-0.78125 -0.359375 -1.21875 -1.0q-0.4375 -0.65625 -0.4375 -1.40625l1.4375 0q0.046875 0.734375 0.578125 1.15625q0.546875 0.421875 1.4375 0.421875q0.828125 0 1.3125 -0.328125q0.5 -0.328125 0.5 -0.890625z" fill-rule="nonzero"/><path fill="#efefef" d="m331.21915 242.60236l0 -21.716522l-3.6141663 0l7.228363 -7.228348l7.2283325 7.228348l-3.6141663 0l0 21.716522z" fill-rule="evenodd"/><path stroke="#999999" stroke-width="1.0" stroke-linejoin="round" stroke-linecap="butt" stroke-dasharray="1.0,3.0" d="m331.21915 242.60236l0 -21.716522l-3.6141663 0l7.228363 -7.228348l7.2283325 7.228348l-3.6141663 0l0 21.716522z" fill-rule="evenodd"/><path fill="#efefef" d="m308.31366 253.13524l0 0c0 -2.0207367 1.6381226 -3.6588593 3.658844 -3.6588593l45.72165 0c0.97039795 0 1.9010315 0.3854828 2.5872192 1.0716553c0.6861572 0.6861725 1.0716553 1.6168213 1.0716553 2.587204l0 14.635025c0 2.020752 -1.6381531 3.6588745 -3.6588745 3.6588745l-45.72165 0c-2.0207214 0 -3.658844 -1.6381226 -3.658844 -3.6588745z" fill-rule="evenodd"/><path stroke="#999999" stroke-width="1.0" stroke-linejoin="round" stroke-linecap="butt" stroke-dasharray="1.0,3.0" d="m308.31366 253.13524l0 0c0 -2.0207367 1.6381226 -3.6588593 3.658844 -3.6588593l45.72165 0c0.97039795 0 1.9010315 0.3854828 2.5872192 1.0716553c0.6861572 0.6861725 1.0716553 1.6168213 1.0716553 2.587204l0 14.635025c0 2.020752 -1.6381531 3.6588745 -3.6588745 3.6588745l-45.72165 0c-2.0207214 0 -3.658844 -1.6381226 -3.658844 -3.6588745z" fill-rule="evenodd"/><path fill="#efefef" d="m718.48425 70.29002l21.716553 0l0 -3.614174l7.2283325 7.228348l-7.2283325 7.228348l0 -3.614174l-21.716553 0z" fill-rule="evenodd"/><path stroke="#999999" stroke-width="1.0" stroke-linejoin="round" stroke-linecap="butt" stroke-dasharray="1.0,3.0" d="m718.48425 70.29002l21.716553 0l0 -3.614174l7.2283325 7.228348l-7.2283325 7.228348l0 -3.614174l-21.716553 0z" fill-rule="evenodd"/><path fill="#efefef" d="m755.1798 66.57881l0 0c0 -2.0207367 1.6381226 -3.658863 3.6588745 -3.658863l45.72162 0c0.97039795 0 1.901001 0.3854866 2.5872192 1.0716553c0.6861572 0.6861687 1.0716553 1.6168175 1.0716553 2.5872078l0 14.635025c0 2.0207367 -1.6381226 3.658867 -3.6588745 3.658867l-45.72162 0c-2.020752 0 -3.6588745 -1.6381302 -3.6588745 -3.658867z" fill-rule="evenodd"/><path stroke="#999999" stroke-width="1.0" stroke-linejoin="round" stroke-linecap="butt" stroke-dasharray="1.0,3.0" d="m755.1798 66.57881l0 0c0 -2.0207367 1.6381226 -3.658863 3.6588745 -3.658863l45.72162 0c0.97039795 0 1.901001 0.3854866 2.5872192 1.0716553c0.6861572 0.6861687 1.0716553 1.6168175 1.0716553 2.5872078l0 14.635025c0 2.0207367 -1.6381226 3.658867 -3.6588745 3.658867l-45.72162 0c-2.020752 0 -3.6588745 -1.6381302 -3.6588745 -3.658867z" fill-rule="evenodd"/></g></svg>