<svg width="784" height="226" viewBox="0 0 784 226" fill="none" xmlns="http://www.w3.org/2000/svg">
<rect width="784" height="226" fill="white"/>
<path d="M15.108 53.5H11.3409V41.8636H15.2273C16.3674 41.8636 17.3466 42.0966 18.1648 42.5625C18.983 43.0246 19.6098 43.6894 20.0455 44.5568C20.4848 45.4205 20.7045 46.4564 20.7045 47.6648C20.7045 48.8769 20.483 49.9186 20.0398 50.7898C19.6004 51.661 18.964 52.3314 18.1307 52.8011C17.2973 53.267 16.2898 53.5 15.108 53.5ZM13.0966 51.9659H15.0114C15.8977 51.9659 16.6345 51.7992 17.2216 51.4659C17.8087 51.1288 18.2481 50.642 18.5398 50.0057C18.8314 49.3655 18.9773 48.5852 18.9773 47.6648C18.9773 46.7519 18.8314 45.9773 18.5398 45.3409C18.2519 44.7045 17.822 44.2216 17.25 43.892C16.678 43.5625 15.9678 43.3977 15.1193 43.3977H13.0966V51.9659ZM26.5128 53.6761C25.6529 53.6761 24.9124 53.4924 24.2912 53.125C23.6738 52.7538 23.1965 52.233 22.8594 51.5625C22.526 50.8883 22.3594 50.0985 22.3594 49.1932C22.3594 48.2992 22.526 47.5114 22.8594 46.8295C23.1965 46.1477 23.6662 45.6155 24.2685 45.233C24.8745 44.8504 25.5829 44.6591 26.3935 44.6591C26.8859 44.6591 27.3632 44.7405 27.8253 44.9034C28.2874 45.0663 28.7022 45.322 29.0696 45.6705C29.437 46.0189 29.7268 46.4716 29.9389 47.0284C30.151 47.5814 30.2571 48.2538 30.2571 49.0455V49.6477H23.3196V48.375H28.5923C28.5923 47.928 28.5014 47.5322 28.3196 47.1875C28.1378 46.839 27.8821 46.5644 27.5526 46.3636C27.2268 46.1629 26.8442 46.0625 26.4048 46.0625C25.9276 46.0625 25.5109 46.1799 25.1548 46.4148C24.8026 46.6458 24.5298 46.9489 24.3366 47.3239C24.1473 47.6951 24.0526 48.0985 24.0526 48.5341V49.5284C24.0526 50.1117 24.1548 50.608 24.3594 51.017C24.5677 51.4261 24.8575 51.7386 25.2287 51.9545C25.5999 52.1667 26.0336 52.2727 26.5298 52.2727C26.8518 52.2727 27.1454 52.2273 27.4105 52.1364C27.6757 52.0417 27.9048 51.9015 28.098 51.7159C28.2912 51.5303 28.4389 51.3011 28.5412 51.0284L30.1491 51.3182C30.0204 51.7917 29.7893 52.2064 29.456 52.5625C29.1264 52.9148 28.7116 53.1894 28.2116 53.3864C27.7154 53.5795 27.1491 53.6761 26.5128 53.6761ZM39.358 44.7727L36.1932 53.5H34.375L31.2045 44.7727H33.0284L35.2386 51.4886H35.3295L37.5341 44.7727H39.358ZM44.419 53.6761C43.5592 53.6761 42.8187 53.4924 42.1974 53.125C41.58 52.7538 41.1027 52.233 40.7656 51.5625C40.4323 50.8883 40.2656 50.0985 40.2656 49.1932C40.2656 48.2992 40.4323 47.5114 40.7656 46.8295C41.1027 46.1477 41.5724 45.6155 42.1747 45.233C42.7808 44.8504 43.4891 44.6591 44.2997 44.6591C44.7921 44.6591 45.2694 44.7405 45.7315 44.9034C46.1937 45.0663 46.6084 45.322 46.9759 45.6705C47.3433 46.0189 47.633 46.4716 47.8452 47.0284C48.0573 47.5814 48.1634 48.2538 48.1634 49.0455V49.6477H41.2259V48.375H46.4986C46.4986 47.928 46.4077 47.5322 46.2259 47.1875C46.044 46.839 45.7884 46.5644 45.4588 46.3636C45.133 46.1629 44.7505 46.0625 44.3111 46.0625C43.8338 46.0625 43.4171 46.1799 43.0611 46.4148C42.7088 46.6458 42.4361 46.9489 42.2429 47.3239C42.0535 47.6951 41.9588 48.0985 41.9588 48.5341V49.5284C41.9588 50.1117 42.0611 50.608 42.2656 51.017C42.474 51.4261 42.7637 51.7386 43.1349 51.9545C43.5062 52.1667 43.9399 52.2727 44.4361 52.2727C44.758 52.2727 45.0516 52.2273 45.3168 52.1364C45.5819 52.0417 45.8111 51.9015 46.0043 51.7159C46.1974 51.5303 46.3452 51.3011 46.4474 51.0284L48.0554 51.3182C47.9266 51.7917 47.6955 52.2064 47.3622 52.5625C47.0327 52.9148 46.6179 53.1894 46.1179 53.3864C45.6217 53.5795 45.0554 53.6761 44.419 53.6761ZM51.7472 41.8636V53.5H50.0483V41.8636H51.7472ZM57.7088 53.6761C56.8906 53.6761 56.1766 53.4886 55.5668 53.1136C54.9569 52.7386 54.4834 52.214 54.1463 51.5398C53.8092 50.8655 53.6406 50.0777 53.6406 49.1761C53.6406 48.2708 53.8092 47.4792 54.1463 46.8011C54.4834 46.1231 54.9569 45.5966 55.5668 45.2216C56.1766 44.8466 56.8906 44.6591 57.7088 44.6591C58.527 44.6591 59.241 44.8466 59.8509 45.2216C60.4607 45.5966 60.9342 46.1231 61.2713 46.8011C61.6084 47.4792 61.777 48.2708 61.777 49.1761C61.777 50.0777 61.6084 50.8655 61.2713 51.5398C60.9342 52.214 60.4607 52.7386 59.8509 53.1136C59.241 53.4886 58.527 53.6761 57.7088 53.6761ZM57.7145 52.25C58.2448 52.25 58.6842 52.1098 59.0327 51.8295C59.3812 51.5492 59.6387 51.1761 59.8054 50.7102C59.9759 50.2443 60.0611 49.7311 60.0611 49.1705C60.0611 48.6136 59.9759 48.1023 59.8054 47.6364C59.6387 47.1667 59.3812 46.7898 59.0327 46.5057C58.6842 46.2216 58.2448 46.0795 57.7145 46.0795C57.1804 46.0795 56.7372 46.2216 56.3849 46.5057C56.0365 46.7898 55.777 47.1667 55.6065 47.6364C55.4399 48.1023 55.3565 48.6136 55.3565 49.1705C55.3565 49.7311 55.4399 50.2443 55.6065 50.7102C55.777 51.1761 56.0365 51.5492 56.3849 51.8295C56.7372 52.1098 57.1804 52.25 57.7145 52.25ZM63.6733 56.7727V44.7727H65.3324V46.1875H65.4744C65.5729 46.0057 65.715 45.7955 65.9006 45.5568C66.0862 45.3182 66.3438 45.1098 66.6733 44.9318C67.0028 44.75 67.4384 44.6591 67.9801 44.6591C68.6847 44.6591 69.3134 44.8371 69.8665 45.1932C70.4195 45.5492 70.8532 46.0625 71.1676 46.733C71.4858 47.4034 71.6449 48.2102 71.6449 49.1534C71.6449 50.0966 71.4877 50.9053 71.1733 51.5795C70.8589 52.25 70.4271 52.767 69.8778 53.1307C69.3286 53.4905 68.7017 53.6705 67.9972 53.6705C67.4669 53.6705 67.0331 53.5814 66.696 53.4034C66.3627 53.2254 66.1013 53.017 65.9119 52.7784C65.7225 52.5398 65.5767 52.3277 65.4744 52.142H65.3722V56.7727H63.6733ZM65.3381 49.1364C65.3381 49.75 65.4271 50.2879 65.6051 50.75C65.7831 51.2121 66.0407 51.5739 66.3778 51.8352C66.715 52.0928 67.1278 52.2216 67.6165 52.2216C68.1241 52.2216 68.5483 52.0871 68.8892 51.8182C69.2301 51.5455 69.4877 51.1761 69.6619 50.7102C69.84 50.2443 69.929 49.7197 69.929 49.1364C69.929 48.5606 69.8419 48.0436 69.6676 47.5852C69.4972 47.1269 69.2396 46.7652 68.8949 46.5C68.554 46.2348 68.1278 46.1023 67.6165 46.1023C67.1241 46.1023 66.7074 46.2292 66.3665 46.483C66.0294 46.7367 65.7737 47.0909 65.5994 47.5455C65.4252 48 65.3381 48.5303 65.3381 49.1364ZM77.3097 53.6761C76.4498 53.6761 75.7093 53.4924 75.0881 53.125C74.4706 52.7538 73.9934 52.233 73.6562 51.5625C73.3229 50.8883 73.1562 50.0985 73.1562 49.1932C73.1562 48.2992 73.3229 47.5114 73.6562 46.8295C73.9934 46.1477 74.4631 45.6155 75.0653 45.233C75.6714 44.8504 76.3797 44.6591 77.1903 44.6591C77.6828 44.6591 78.16 44.7405 78.6222 44.9034C79.0843 45.0663 79.4991 45.322 79.8665 45.6705C80.2339 46.0189 80.5237 46.4716 80.7358 47.0284C80.9479 47.5814 81.054 48.2538 81.054 49.0455V49.6477H74.1165V48.375H79.3892C79.3892 47.928 79.2983 47.5322 79.1165 47.1875C78.9347 46.839 78.679 46.5644 78.3494 46.3636C78.0237 46.1629 77.6411 46.0625 77.2017 46.0625C76.7244 46.0625 76.3078 46.1799 75.9517 46.4148C75.5994 46.6458 75.3267 46.9489 75.1335 47.3239C74.9441 47.6951 74.8494 48.0985 74.8494 48.5341V49.5284C74.8494 50.1117 74.9517 50.608 75.1562 51.017C75.3646 51.4261 75.6544 51.7386 76.0256 51.9545C76.3968 52.1667 76.8305 52.2727 77.3267 52.2727C77.6487 52.2727 77.9422 52.2273 78.2074 52.1364C78.4725 52.0417 78.7017 51.9015 78.8949 51.7159C79.0881 51.5303 79.2358 51.3011 79.3381 51.0284L80.946 51.3182C80.8172 51.7917 80.5862 52.2064 80.2528 52.5625C79.9233 52.9148 79.5085 53.1894 79.0085 53.3864C78.5123 53.5795 77.946 53.6761 77.3097 53.6761ZM82.9389 53.5V44.7727H84.581V46.1591H84.6719C84.831 45.6894 85.1113 45.3201 85.5128 45.0511C85.9181 44.7784 86.3764 44.642 86.8878 44.642C86.9938 44.642 87.1188 44.6458 87.2628 44.6534C87.4105 44.661 87.526 44.6705 87.6094 44.6818V46.3068C87.5412 46.2879 87.42 46.267 87.2457 46.2443C87.0715 46.2178 86.8973 46.2045 86.723 46.2045C86.3215 46.2045 85.9635 46.2898 85.6491 46.4602C85.3385 46.6269 85.0923 46.8598 84.9105 47.1591C84.7287 47.4545 84.6378 47.7917 84.6378 48.1705V53.5H82.9389Z" fill="#102B2D"/>
<path d="M104 48L150 48" stroke="#10C800" stroke-linejoin="round"/>
<path d="M125 42L131 48L125 54" stroke="#10C800" stroke-linecap="square" stroke-linejoin="round"/>
<path d="M194.19 46.0625C194.137 45.5663 193.914 45.1799 193.52 44.9034C193.13 44.6269 192.622 44.4886 191.997 44.4886C191.558 44.4886 191.181 44.5549 190.866 44.6875C190.552 44.8201 190.312 45 190.145 45.2273C189.978 45.4545 189.893 45.714 189.889 46.0057C189.889 46.2481 189.944 46.4583 190.054 46.6364C190.168 46.8144 190.321 46.9659 190.514 47.0909C190.707 47.2121 190.921 47.3144 191.156 47.3977C191.391 47.4811 191.628 47.5511 191.866 47.608L192.957 47.8807C193.397 47.983 193.819 48.1212 194.224 48.2955C194.634 48.4697 194.999 48.6894 195.321 48.9545C195.647 49.2197 195.904 49.5398 196.094 49.9148C196.283 50.2898 196.378 50.7292 196.378 51.233C196.378 51.9148 196.204 52.5152 195.855 53.0341C195.507 53.5492 195.003 53.9527 194.344 54.2443C193.688 54.5322 192.895 54.6761 191.963 54.6761C191.058 54.6761 190.272 54.536 189.605 54.2557C188.942 53.9754 188.423 53.5663 188.048 53.0284C187.677 52.4905 187.476 51.8352 187.446 51.0625H189.52C189.55 51.4678 189.675 51.8049 189.895 52.0739C190.115 52.3428 190.401 52.5436 190.753 52.6761C191.109 52.8087 191.507 52.875 191.946 52.875C192.404 52.875 192.806 52.8068 193.151 52.6705C193.499 52.5303 193.772 52.3371 193.969 52.0909C194.166 51.8409 194.266 51.5492 194.27 51.2159C194.266 50.9129 194.177 50.6629 194.003 50.4659C193.829 50.2652 193.584 50.0985 193.27 49.9659C192.959 49.8295 192.596 49.7083 192.179 49.6023L190.855 49.2614C189.897 49.0152 189.139 48.642 188.582 48.142C188.029 47.6383 187.753 46.9697 187.753 46.1364C187.753 45.4508 187.938 44.8504 188.31 44.3352C188.685 43.8201 189.194 43.4205 189.838 43.1364C190.482 42.8485 191.211 42.7045 192.026 42.7045C192.851 42.7045 193.575 42.8485 194.196 43.1364C194.821 43.4205 195.312 43.8163 195.668 44.3239C196.024 44.8277 196.207 45.4072 196.219 46.0625H194.19ZM201.973 54.6705C201.121 54.6705 200.382 54.483 199.757 54.108C199.132 53.733 198.647 53.2083 198.303 52.5341C197.962 51.8598 197.791 51.072 197.791 50.1705C197.791 49.2689 197.962 48.4792 198.303 47.8011C198.647 47.1231 199.132 46.5966 199.757 46.2216C200.382 45.8466 201.121 45.6591 201.973 45.6591C202.825 45.6591 203.564 45.8466 204.189 46.2216C204.814 46.5966 205.297 47.1231 205.638 47.8011C205.982 48.4792 206.155 49.2689 206.155 50.1705C206.155 51.072 205.982 51.8598 205.638 52.5341C205.297 53.2083 204.814 53.733 204.189 54.108C203.564 54.483 202.825 54.6705 201.973 54.6705ZM201.984 53.0227C202.446 53.0227 202.833 52.8958 203.143 52.642C203.454 52.3845 203.685 52.0398 203.837 51.608C203.992 51.1761 204.07 50.6951 204.07 50.1648C204.07 49.6307 203.992 49.1477 203.837 48.7159C203.685 48.2803 203.454 47.9337 203.143 47.6761C202.833 47.4186 202.446 47.2898 201.984 47.2898C201.511 47.2898 201.117 47.4186 200.803 47.6761C200.492 47.9337 200.259 48.2803 200.104 48.7159C199.952 49.1477 199.876 49.6307 199.876 50.1648C199.876 50.6951 199.952 51.1761 200.104 51.608C200.259 52.0398 200.492 52.3845 200.803 52.642C201.117 52.8958 201.511 53.0227 201.984 53.0227ZM213.463 50.8295V45.7727H215.52V54.5H213.526V52.9489H213.435C213.238 53.4375 212.914 53.8371 212.463 54.1477C212.016 54.4583 211.465 54.6136 210.81 54.6136C210.238 54.6136 209.732 54.4867 209.293 54.233C208.857 53.9754 208.516 53.6023 208.27 53.1136C208.024 52.6212 207.901 52.0265 207.901 51.3295V45.7727H209.957V51.0114C209.957 51.5644 210.109 52.0038 210.412 52.3295C210.715 52.6553 211.113 52.8182 211.605 52.8182C211.908 52.8182 212.202 52.7443 212.486 52.5966C212.77 52.4489 213.003 52.2292 213.185 51.9375C213.37 51.642 213.463 51.2727 213.463 50.8295ZM217.635 54.5V45.7727H219.629V47.2273H219.72C219.879 46.7235 220.152 46.3352 220.538 46.0625C220.929 45.786 221.374 45.6477 221.874 45.6477C221.987 45.6477 222.114 45.6534 222.254 45.6648C222.398 45.6723 222.518 45.6856 222.612 45.7045V47.5966C222.525 47.5663 222.387 47.5398 222.197 47.517C222.012 47.4905 221.832 47.4773 221.658 47.4773C221.283 47.4773 220.946 47.5587 220.646 47.7216C220.351 47.8807 220.118 48.1023 219.947 48.3864C219.777 48.6705 219.692 48.9981 219.692 49.3693V54.5H217.635ZM227.426 54.6705C226.555 54.6705 225.807 54.4792 225.182 54.0966C224.561 53.714 224.081 53.1856 223.744 52.5114C223.411 51.8333 223.244 51.053 223.244 50.1705C223.244 49.2841 223.415 48.5019 223.756 47.8239C224.097 47.142 224.578 46.6117 225.199 46.233C225.824 45.8504 226.563 45.6591 227.415 45.6591C228.123 45.6591 228.75 45.7898 229.295 46.0511C229.845 46.3087 230.282 46.6742 230.608 47.1477C230.934 47.6174 231.119 48.1667 231.165 48.7955H229.199C229.119 48.375 228.93 48.0246 228.631 47.7443C228.335 47.4602 227.939 47.3182 227.443 47.3182C227.023 47.3182 226.653 47.4318 226.335 47.6591C226.017 47.8826 225.769 48.2045 225.591 48.625C225.417 49.0455 225.33 49.5492 225.33 50.1364C225.33 50.7311 225.417 51.2424 225.591 51.6705C225.765 52.0947 226.009 52.4223 226.324 52.6534C226.642 52.8807 227.015 52.9943 227.443 52.9943C227.746 52.9943 228.017 52.9375 228.256 52.8239C228.498 52.7064 228.701 52.5379 228.864 52.3182C229.027 52.0985 229.138 51.8314 229.199 51.517H231.165C231.116 52.1345 230.934 52.6818 230.619 53.1591C230.305 53.6326 229.877 54.0038 229.335 54.2727C228.794 54.5379 228.157 54.6705 227.426 54.6705ZM236.717 54.6705C235.842 54.6705 235.087 54.4886 234.45 54.125C233.818 53.7576 233.331 53.2386 232.99 52.5682C232.649 51.8939 232.479 51.1004 232.479 50.1875C232.479 49.2898 232.649 48.5019 232.99 47.8239C233.335 47.142 233.816 46.6117 234.433 46.233C235.051 45.8504 235.776 45.6591 236.609 45.6591C237.147 45.6591 237.655 45.7462 238.132 45.9205C238.613 46.0909 239.037 46.3561 239.405 46.7159C239.776 47.0758 240.068 47.5341 240.28 48.0909C240.492 48.6439 240.598 49.303 240.598 50.0682V50.6989H233.445V49.3125H238.626C238.623 48.9186 238.537 48.5682 238.371 48.2614C238.204 47.9508 237.971 47.7064 237.672 47.5284C237.376 47.3504 237.032 47.2614 236.638 47.2614C236.217 47.2614 235.848 47.3636 235.53 47.5682C235.212 47.7689 234.964 48.0341 234.786 48.3636C234.611 48.6894 234.522 49.0473 234.518 49.4375V50.6477C234.518 51.1553 234.611 51.5909 234.797 51.9545C234.982 52.3144 235.242 52.5909 235.575 52.7841C235.909 52.9735 236.299 53.0682 236.746 53.0682C237.045 53.0682 237.316 53.0265 237.558 52.9432C237.801 52.8561 238.011 52.7292 238.189 52.5625C238.367 52.3958 238.501 52.1894 238.592 51.9432L240.513 52.1591C240.392 52.6667 240.161 53.1098 239.82 53.4886C239.482 53.8636 239.051 54.1553 238.524 54.3636C237.998 54.5682 237.395 54.6705 236.717 54.6705Z" fill="#102B2D"/>
<rect x="155" y="11" width="118" height="74" rx="7" stroke="#58DA95" stroke-width="2"/>
<path d="M278 48L342 48" stroke="#10C800" stroke-linejoin="round"/>
<path d="M308 42L314 48L308 54" stroke="#10C800" stroke-linecap="square" stroke-linejoin="round"/>
<mask id="path-8-inside-1_571_581" fill="white">
<path fill-rule="evenodd" clip-rule="evenodd" d="M346.345 50.0707C351.164 63.8276 359.776 75.8842 371.149 84.7979C372.234 85.6482 373.575 86.0824 374.944 86.0824H408.643H409.643V86.0042C410.655 85.8442 411.619 85.4395 412.438 84.7979C423.811 75.8842 432.423 63.8276 437.242 50.0707C437.702 48.7582 437.702 47.3241 437.242 46.0117C432.423 32.2547 423.811 20.1981 412.438 11.2845C411.619 10.6428 410.655 10.2382 409.643 10.0782V10H408.643H374.944C373.575 10 372.234 10.4341 371.149 11.2845C359.776 20.1981 351.164 32.2547 346.345 46.0117C345.885 47.3241 345.885 48.7582 346.345 50.0707Z"/>
</mask>
<path d="M371.149 84.7979L372.383 83.2237L372.383 83.2237L371.149 84.7979ZM346.345 50.0707L348.232 49.4094V49.4094L346.345 50.0707ZM409.643 86.0824V88.0824H411.643V86.0824H409.643ZM409.643 86.0042L409.33 84.0287L407.643 84.2954V86.0042H409.643ZM412.438 84.7979L411.204 83.2237V83.2237L412.438 84.7979ZM437.242 50.0707L435.355 49.4094V49.4094L437.242 50.0707ZM437.242 46.0117L435.355 46.6729V46.6729L437.242 46.0117ZM412.438 11.2845L413.671 9.71035V9.71035L412.438 11.2845ZM409.643 10.0782H407.643V11.787L409.33 12.0537L409.643 10.0782ZM409.643 10H411.643V8H409.643V10ZM371.149 11.2845L372.383 12.8586V12.8586L371.149 11.2845ZM346.345 46.0117L348.232 46.6729L348.232 46.6729L346.345 46.0117ZM372.383 83.2237C361.313 74.5479 352.927 62.8092 348.232 49.4094L344.457 50.7319C349.402 64.846 358.239 77.2206 369.916 86.372L372.383 83.2237ZM374.944 84.0824C373.995 84.0824 373.095 83.782 372.383 83.2237L369.916 86.372C371.373 87.5145 373.154 88.0824 374.944 88.0824V84.0824ZM408.643 84.0824H374.944V88.0824H408.643V84.0824ZM409.643 84.0824H408.643V88.0824H409.643V84.0824ZM407.643 86.0042V86.0824H411.643V86.0042H407.643ZM409.955 87.9796C411.287 87.7691 412.572 87.2336 413.671 86.372L411.204 83.2237C410.666 83.6455 410.023 83.9193 409.33 84.0287L409.955 87.9796ZM413.671 86.372C425.348 77.2206 434.185 64.846 439.13 50.7319L435.355 49.4094C430.66 62.8092 422.274 74.5479 411.204 83.2237L413.671 86.372ZM439.13 50.7319C439.739 48.9914 439.739 47.091 439.13 45.3504L435.355 46.6729C435.664 47.5573 435.664 48.525 435.355 49.4094L439.13 50.7319ZM439.13 45.3504C434.185 31.2363 425.348 18.8618 413.671 9.71035L411.204 12.8586C422.274 21.5344 430.66 33.2731 435.355 46.6729L439.13 45.3504ZM413.671 9.71035C412.572 8.84877 411.287 8.31329 409.955 8.10271L409.33 12.0537C410.023 12.1631 410.666 12.4369 411.204 12.8586L413.671 9.71035ZM407.643 10V10.0782H411.643V10H407.643ZM408.643 12H409.643V8H408.643V12ZM374.944 12H408.643V8H374.944V12ZM372.383 12.8586C373.095 12.3004 373.995 12 374.944 12V8C373.154 8 371.373 8.56786 369.916 9.71035L372.383 12.8586ZM348.232 46.6729C352.927 33.2731 361.313 21.5344 372.383 12.8586L369.916 9.71035C358.239 18.8618 349.402 31.2363 344.457 45.3504L348.232 46.6729ZM348.232 49.4094C347.923 48.525 347.923 47.5573 348.232 46.6729L344.457 45.3504C343.848 47.091 343.848 48.9914 344.457 50.7319L348.232 49.4094Z" fill="#58DA95" mask="url(#path-8-inside-1_571_581)"/>
<path d="M374.312 55V43.3636H378.766C379.607 43.3636 380.306 43.4962 380.863 43.7614C381.424 44.0227 381.842 44.3807 382.119 44.8352C382.399 45.2898 382.539 45.8049 382.539 46.3807C382.539 46.8542 382.448 47.2595 382.266 47.5966C382.085 47.9299 381.84 48.2008 381.533 48.4091C381.227 48.6174 380.884 48.767 380.505 48.858V48.9716C380.918 48.9943 381.314 49.1212 381.692 49.3523C382.075 49.5795 382.388 49.9015 382.63 50.3182C382.872 50.7348 382.994 51.2386 382.994 51.8295C382.994 52.4318 382.848 52.9735 382.556 53.4545C382.264 53.9318 381.825 54.3087 381.238 54.5852C380.651 54.8617 379.912 55 379.022 55H374.312ZM376.42 53.2386H378.687C379.452 53.2386 380.003 53.0928 380.34 52.8011C380.681 52.5057 380.852 52.1269 380.852 51.6648C380.852 51.3201 380.766 51.0095 380.596 50.733C380.425 50.4527 380.183 50.233 379.869 50.0739C379.554 49.911 379.179 49.8295 378.744 49.8295H376.42V53.2386ZM376.42 48.3125H378.505C378.869 48.3125 379.196 48.2462 379.488 48.1136C379.78 47.9773 380.009 47.786 380.175 47.5398C380.346 47.2898 380.431 46.9943 380.431 46.6534C380.431 46.2027 380.272 45.8314 379.954 45.5398C379.639 45.2481 379.172 45.1023 378.55 45.1023H376.42V48.3125ZM390.299 51.3295V46.2727H392.356V55H390.362V53.4489H390.271C390.074 53.9375 389.75 54.3371 389.299 54.6477C388.852 54.9583 388.301 55.1136 387.646 55.1136C387.074 55.1136 386.568 54.9867 386.129 54.733C385.693 54.4754 385.352 54.1023 385.106 53.6136C384.86 53.1212 384.737 52.5265 384.737 51.8295V46.2727H386.793V51.5114C386.793 52.0644 386.945 52.5038 387.248 52.8295C387.551 53.1553 387.949 53.3182 388.441 53.3182C388.744 53.3182 389.038 53.2443 389.322 53.0966C389.606 52.9489 389.839 52.7292 390.021 52.4375C390.206 52.142 390.299 51.7727 390.299 51.3295ZM394.471 55V46.2727H396.528V55H394.471ZM395.505 45.0341C395.179 45.0341 394.899 44.9261 394.664 44.7102C394.429 44.4905 394.312 44.2273 394.312 43.9205C394.312 43.6098 394.429 43.3466 394.664 43.1307C394.899 42.911 395.179 42.8011 395.505 42.8011C395.835 42.8011 396.115 42.911 396.346 43.1307C396.581 43.3466 396.698 43.6098 396.698 43.9205C396.698 44.2273 396.581 44.4905 396.346 44.7102C396.115 44.9261 395.835 45.0341 395.505 45.0341ZM400.7 43.3636V55H398.643V43.3636H400.7ZM406.053 55.1534C405.368 55.1534 404.754 54.9773 404.212 54.625C403.671 54.2727 403.243 53.7614 402.928 53.0909C402.614 52.4205 402.457 51.6061 402.457 50.6477C402.457 49.678 402.616 48.8598 402.934 48.1932C403.256 47.5227 403.69 47.017 404.235 46.6761C404.781 46.3314 405.388 46.1591 406.059 46.1591C406.57 46.1591 406.991 46.2462 407.32 46.4205C407.65 46.5909 407.911 46.7973 408.104 47.0398C408.298 47.2784 408.447 47.5038 408.553 47.7159H408.638V43.3636H410.701V55H408.678V53.625H408.553C408.447 53.8371 408.294 54.0625 408.093 54.3011C407.892 54.536 407.627 54.7367 407.298 54.9034C406.968 55.0701 406.553 55.1534 406.053 55.1534ZM406.627 53.4659C407.063 53.4659 407.434 53.3485 407.741 53.1136C408.048 52.875 408.281 52.5436 408.44 52.1193C408.599 51.6951 408.678 51.2008 408.678 50.6364C408.678 50.072 408.599 49.5814 408.44 49.1648C408.284 48.7481 408.053 48.4242 407.746 48.1932C407.443 47.9621 407.07 47.8466 406.627 47.8466C406.169 47.8466 405.786 47.9659 405.479 48.2045C405.173 48.4432 404.942 48.7727 404.786 49.1932C404.631 49.6136 404.553 50.0947 404.553 50.6364C404.553 51.1818 404.631 51.6686 404.786 52.0966C404.945 52.5208 405.178 52.8561 405.485 53.1023C405.796 53.3447 406.176 53.4659 406.627 53.4659Z" fill="#102B2D"/>
<path d="M442 48L506 48" stroke="#10C800" stroke-linejoin="round"/>
<path d="M472 42L478 48L472 54" stroke="#10C800" stroke-linecap="square" stroke-linejoin="round"/>
<path d="M537.476 53V41.3636H541.839C542.733 41.3636 543.483 41.5303 544.089 41.8636C544.699 42.197 545.16 42.6553 545.47 43.2386C545.785 43.8182 545.942 44.4773 545.942 45.2159C545.942 45.9621 545.785 46.625 545.47 47.2045C545.156 47.7841 544.692 48.2405 544.078 48.5739C543.464 48.9034 542.709 49.0682 541.811 49.0682H538.919V47.3352H541.527C542.05 47.3352 542.478 47.2443 542.811 47.0625C543.144 46.8807 543.391 46.6307 543.55 46.3125C543.713 45.9943 543.794 45.6288 543.794 45.2159C543.794 44.803 543.713 44.4394 543.55 44.125C543.391 43.8106 543.143 43.5663 542.805 43.392C542.472 43.214 542.042 43.125 541.516 43.125H539.584V53H537.476ZM550.037 53.1761C549.484 53.1761 548.986 53.0777 548.543 52.8807C548.103 52.6799 547.755 52.3845 547.497 51.9943C547.243 51.6042 547.116 51.1231 547.116 50.5511C547.116 50.0587 547.207 49.6515 547.389 49.3295C547.571 49.0076 547.819 48.75 548.134 48.5568C548.448 48.3636 548.802 48.2178 549.196 48.1193C549.594 48.017 550.005 47.9432 550.429 47.8977C550.94 47.8447 551.355 47.7973 551.673 47.7557C551.991 47.7102 552.223 47.642 552.366 47.5511C552.514 47.4564 552.588 47.3106 552.588 47.1136V47.0795C552.588 46.6515 552.461 46.3201 552.207 46.0852C551.954 45.8504 551.588 45.733 551.111 45.733C550.607 45.733 550.207 45.8428 549.912 46.0625C549.62 46.2822 549.423 46.5417 549.321 46.8409L547.401 46.5682C547.552 46.0379 547.802 45.5947 548.151 45.2386C548.499 44.8788 548.925 44.6098 549.429 44.4318C549.933 44.25 550.49 44.1591 551.099 44.1591C551.52 44.1591 551.938 44.2083 552.355 44.3068C552.772 44.4053 553.152 44.5682 553.497 44.7955C553.842 45.0189 554.118 45.3239 554.327 45.7102C554.539 46.0966 554.645 46.5795 554.645 47.1591V53H552.668V51.8011H552.599C552.474 52.0436 552.298 52.2708 552.071 52.483C551.848 52.6913 551.565 52.8598 551.224 52.9886C550.887 53.1136 550.491 53.1761 550.037 53.1761ZM550.571 51.6648C550.984 51.6648 551.342 51.5833 551.645 51.4205C551.948 51.2538 552.181 51.0341 552.344 50.7614C552.51 50.4886 552.594 50.1913 552.594 49.8693V48.8409C552.529 48.8939 552.42 48.9432 552.264 48.9886C552.113 49.0341 551.942 49.0739 551.753 49.108C551.563 49.142 551.376 49.1723 551.19 49.1989C551.005 49.2254 550.844 49.2481 550.707 49.267C550.401 49.3087 550.126 49.3769 549.884 49.4716C549.641 49.5663 549.45 49.6989 549.31 49.8693C549.17 50.036 549.099 50.2519 549.099 50.517C549.099 50.8958 549.238 51.1818 549.514 51.375C549.791 51.5682 550.143 51.6648 550.571 51.6648ZM560.52 53.1705C559.649 53.1705 558.901 52.9792 558.276 52.5966C557.654 52.214 557.175 51.6856 556.838 51.0114C556.505 50.3333 556.338 49.553 556.338 48.6705C556.338 47.7841 556.509 47.0019 556.849 46.3239C557.19 45.642 557.671 45.1117 558.293 44.733C558.918 44.3504 559.656 44.1591 560.509 44.1591C561.217 44.1591 561.844 44.2898 562.389 44.5511C562.938 44.8087 563.376 45.1742 563.702 45.6477C564.027 46.1174 564.213 46.6667 564.259 47.2955H562.293C562.213 46.875 562.024 46.5246 561.724 46.2443C561.429 45.9602 561.033 45.8182 560.537 45.8182C560.116 45.8182 559.747 45.9318 559.429 46.1591C559.111 46.3826 558.863 46.7045 558.685 47.125C558.51 47.5455 558.423 48.0492 558.423 48.6364C558.423 49.2311 558.51 49.7424 558.685 50.1705C558.859 50.5947 559.103 50.9223 559.418 51.1534C559.736 51.3807 560.109 51.4943 560.537 51.4943C560.84 51.4943 561.111 51.4375 561.349 51.3239C561.592 51.2064 561.795 51.0379 561.957 50.8182C562.12 50.5985 562.232 50.3314 562.293 50.017H564.259C564.209 50.6345 564.027 51.1818 563.713 51.6591C563.399 52.1326 562.971 52.5038 562.429 52.7727C561.887 53.0379 561.251 53.1705 560.52 53.1705ZM567.822 50.2614L567.817 47.7784H568.146L571.283 44.2727H573.686L569.828 48.5682H569.402L567.822 50.2614ZM565.947 53V41.3636H568.004V53H565.947ZM571.425 53L568.584 49.0284L569.97 47.5795L573.885 53H571.425ZM577.568 53.1761C577.015 53.1761 576.517 53.0777 576.074 52.8807C575.634 52.6799 575.286 52.3845 575.028 51.9943C574.775 51.6042 574.648 51.1231 574.648 50.5511C574.648 50.0587 574.739 49.6515 574.92 49.3295C575.102 49.0076 575.35 48.75 575.665 48.5568C575.979 48.3636 576.333 48.2178 576.727 48.1193C577.125 48.017 577.536 47.9432 577.96 47.8977C578.472 47.8447 578.886 47.7973 579.205 47.7557C579.523 47.7102 579.754 47.642 579.898 47.5511C580.045 47.4564 580.119 47.3106 580.119 47.1136V47.0795C580.119 46.6515 579.992 46.3201 579.739 46.0852C579.485 45.8504 579.119 45.733 578.642 45.733C578.138 45.733 577.739 45.8428 577.443 46.0625C577.152 46.2822 576.955 46.5417 576.852 46.8409L574.932 46.5682C575.083 46.0379 575.333 45.5947 575.682 45.2386C576.03 44.8788 576.456 44.6098 576.96 44.4318C577.464 44.25 578.021 44.1591 578.631 44.1591C579.051 44.1591 579.47 44.2083 579.886 44.3068C580.303 44.4053 580.684 44.5682 581.028 44.7955C581.373 45.0189 581.65 45.3239 581.858 45.7102C582.07 46.0966 582.176 46.5795 582.176 47.1591V53H580.199V51.8011H580.131C580.006 52.0436 579.83 52.2708 579.602 52.483C579.379 52.6913 579.097 52.8598 578.756 52.9886C578.419 53.1136 578.023 53.1761 577.568 53.1761ZM578.102 51.6648C578.515 51.6648 578.873 51.5833 579.176 51.4205C579.479 51.2538 579.712 51.0341 579.875 50.7614C580.042 50.4886 580.125 50.1913 580.125 49.8693V48.8409C580.061 48.8939 579.951 48.9432 579.795 48.9886C579.644 49.0341 579.473 49.0739 579.284 49.108C579.095 49.142 578.907 49.1723 578.722 49.1989C578.536 49.2254 578.375 49.2481 578.239 49.267C577.932 49.3087 577.657 49.3769 577.415 49.4716C577.172 49.5663 576.981 49.6989 576.841 49.8693C576.701 50.036 576.631 50.2519 576.631 50.517C576.631 50.8958 576.769 51.1818 577.045 51.375C577.322 51.5682 577.674 51.6648 578.102 51.6648ZM588.04 56.4545C587.301 56.4545 586.667 56.3542 586.136 56.1534C585.606 55.9564 585.18 55.6913 584.858 55.358C584.536 55.0246 584.312 54.6553 584.188 54.25L586.04 53.8011C586.123 53.9716 586.244 54.1402 586.403 54.3068C586.563 54.4773 586.777 54.6174 587.045 54.7273C587.318 54.8409 587.661 54.8977 588.074 54.8977C588.657 54.8977 589.14 54.7557 589.523 54.4716C589.905 54.1913 590.097 53.7292 590.097 53.0852V51.4318H589.994C589.888 51.6439 589.733 51.8617 589.528 52.0852C589.328 52.3087 589.061 52.4962 588.727 52.6477C588.398 52.7992 587.983 52.875 587.483 52.875C586.812 52.875 586.205 52.7178 585.659 52.4034C585.117 52.0852 584.686 51.6117 584.364 50.983C584.045 50.3504 583.886 49.5587 583.886 48.608C583.886 47.6496 584.045 46.8409 584.364 46.1818C584.686 45.5189 585.119 45.017 585.665 44.6761C586.21 44.3314 586.818 44.1591 587.489 44.1591C588 44.1591 588.42 44.2462 588.75 44.4205C589.083 44.5909 589.348 44.7973 589.545 45.0398C589.742 45.2784 589.892 45.5038 589.994 45.7159H590.108V44.2727H592.136V53.142C592.136 53.8883 591.958 54.5057 591.602 54.9943C591.246 55.483 590.759 55.8485 590.142 56.0909C589.525 56.3333 588.824 56.4545 588.04 56.4545ZM588.057 51.2614C588.492 51.2614 588.864 51.1553 589.17 50.9432C589.477 50.7311 589.71 50.4261 589.869 50.0284C590.028 49.6307 590.108 49.1534 590.108 48.5966C590.108 48.0473 590.028 47.5663 589.869 47.1534C589.714 46.7405 589.483 46.4205 589.176 46.1932C588.873 45.9621 588.5 45.8466 588.057 45.8466C587.598 45.8466 587.216 45.9659 586.909 46.2045C586.602 46.4432 586.371 46.7708 586.216 47.1875C586.061 47.6004 585.983 48.0701 585.983 48.5966C585.983 49.1307 586.061 49.5985 586.216 50C586.375 50.3977 586.608 50.7083 586.915 50.9318C587.225 51.1515 587.606 51.2614 588.057 51.2614ZM598.108 53.1705C597.233 53.1705 596.477 52.9886 595.841 52.625C595.208 52.2576 594.722 51.7386 594.381 51.0682C594.04 50.3939 593.869 49.6004 593.869 48.6875C593.869 47.7898 594.04 47.0019 594.381 46.3239C594.725 45.642 595.206 45.1117 595.824 44.733C596.441 44.3504 597.167 44.1591 598 44.1591C598.538 44.1591 599.045 44.2462 599.523 44.4205C600.004 44.5909 600.428 44.8561 600.795 45.2159C601.167 45.5758 601.458 46.0341 601.67 46.5909C601.883 47.1439 601.989 47.803 601.989 48.5682V49.1989H594.835V47.8125H600.017C600.013 47.4186 599.928 47.0682 599.761 46.7614C599.595 46.4508 599.362 46.2064 599.062 46.0284C598.767 45.8504 598.422 45.7614 598.028 45.7614C597.608 45.7614 597.239 45.8636 596.92 46.0682C596.602 46.2689 596.354 46.5341 596.176 46.8636C596.002 47.1894 595.913 47.5473 595.909 47.9375V49.1477C595.909 49.6553 596.002 50.0909 596.188 50.4545C596.373 50.8144 596.633 51.0909 596.966 51.2841C597.299 51.4735 597.689 51.5682 598.136 51.5682C598.436 51.5682 598.706 51.5265 598.949 51.4432C599.191 51.3561 599.402 51.2292 599.58 51.0625C599.758 50.8958 599.892 50.6894 599.983 50.4432L601.903 50.6591C601.782 51.1667 601.551 51.6098 601.21 51.9886C600.873 52.3636 600.441 52.6553 599.915 52.8636C599.388 53.0682 598.786 53.1705 598.108 53.1705Z" fill="#102B2D"/>
<rect x="511" y="11" width="118" height="74" rx="7" stroke="#58DA95" stroke-width="2"/>
<path d="M634 48L680 48" stroke="#10C800" stroke-linejoin="round"/>
<path d="M655 42L661 48L655 54" stroke="#10C800" stroke-linecap="square" stroke-linejoin="round"/>
<path d="M706.076 45.6477H704.303C704.235 45.2689 704.108 44.9356 703.923 44.6477C703.737 44.3598 703.51 44.1155 703.241 43.9148C702.972 43.714 702.671 43.5625 702.337 43.4602C702.008 43.358 701.657 43.3068 701.286 43.3068C700.616 43.3068 700.015 43.4754 699.485 43.8125C698.959 44.1496 698.542 44.6439 698.235 45.2955C697.932 45.947 697.781 46.7424 697.781 47.6818C697.781 48.6288 697.932 49.428 698.235 50.0795C698.542 50.7311 698.96 51.2235 699.491 51.5568C700.021 51.8902 700.618 52.0568 701.281 52.0568C701.648 52.0568 701.996 52.0076 702.326 51.9091C702.659 51.8068 702.96 51.6572 703.229 51.4602C703.498 51.2633 703.726 51.0227 703.911 50.7386C704.101 50.4508 704.231 50.1212 704.303 49.75L706.076 49.7557C705.981 50.3277 705.798 50.8542 705.525 51.3352C705.256 51.8125 704.909 52.2254 704.485 52.5739C704.065 52.9186 703.584 53.1856 703.042 53.375C702.5 53.5644 701.909 53.6591 701.269 53.6591C700.262 53.6591 699.364 53.4205 698.576 52.9432C697.788 52.4621 697.167 51.7746 696.712 50.8807C696.262 49.9867 696.036 48.9205 696.036 47.6818C696.036 46.4394 696.263 45.3731 696.718 44.483C697.173 43.589 697.794 42.9034 698.582 42.4261C699.37 41.9451 700.265 41.7045 701.269 41.7045C701.887 41.7045 702.462 41.7936 702.996 41.9716C703.534 42.1458 704.017 42.4034 704.445 42.7443C704.873 43.0814 705.228 43.4943 705.508 43.983C705.788 44.4678 705.978 45.0227 706.076 45.6477ZM711.717 53.6761C710.898 53.6761 710.184 53.4886 709.575 53.1136C708.965 52.7386 708.491 52.214 708.154 51.5398C707.817 50.8655 707.648 50.0777 707.648 49.1761C707.648 48.2708 707.817 47.4792 708.154 46.8011C708.491 46.1231 708.965 45.5966 709.575 45.2216C710.184 44.8466 710.898 44.6591 711.717 44.6591C712.535 44.6591 713.249 44.8466 713.859 45.2216C714.469 45.5966 714.942 46.1231 715.279 46.8011C715.616 47.4792 715.785 48.2708 715.785 49.1761C715.785 50.0777 715.616 50.8655 715.279 51.5398C714.942 52.214 714.469 52.7386 713.859 53.1136C713.249 53.4886 712.535 53.6761 711.717 53.6761ZM711.722 52.25C712.253 52.25 712.692 52.1098 713.04 51.8295C713.389 51.5492 713.647 51.1761 713.813 50.7102C713.984 50.2443 714.069 49.7311 714.069 49.1705C714.069 48.6136 713.984 48.1023 713.813 47.6364C713.647 47.1667 713.389 46.7898 713.04 46.5057C712.692 46.2216 712.253 46.0795 711.722 46.0795C711.188 46.0795 710.745 46.2216 710.393 46.5057C710.044 46.7898 709.785 47.1667 709.614 47.6364C709.448 48.1023 709.364 48.6136 709.364 49.1705C709.364 49.7311 709.448 50.2443 709.614 50.7102C709.785 51.1761 710.044 51.5492 710.393 51.8295C710.745 52.1098 711.188 52.25 711.722 52.25ZM719.38 48.3182V53.5H717.681V44.7727H719.312V46.1932H719.42C719.621 45.7311 719.935 45.3598 720.363 45.0795C720.795 44.7992 721.338 44.6591 721.994 44.6591C722.588 44.6591 723.109 44.7841 723.556 45.0341C724.003 45.2803 724.35 45.6477 724.596 46.1364C724.842 46.625 724.965 47.2292 724.965 47.9489V53.5H723.266V48.1534C723.266 47.5208 723.102 47.0265 722.772 46.6705C722.442 46.3106 721.99 46.1307 721.414 46.1307C721.02 46.1307 720.67 46.2159 720.363 46.3864C720.06 46.5568 719.819 46.8068 719.641 47.1364C719.467 47.4621 719.38 47.8561 719.38 48.3182ZM733.783 46.9034L732.244 47.1761C732.179 46.9792 732.077 46.7917 731.937 46.6136C731.8 46.4356 731.615 46.2898 731.38 46.1761C731.145 46.0625 730.852 46.0057 730.499 46.0057C730.018 46.0057 729.617 46.1136 729.295 46.3295C728.973 46.5417 728.812 46.8163 728.812 47.1534C728.812 47.4451 728.92 47.6799 729.136 47.858C729.352 48.036 729.7 48.1818 730.181 48.2955L731.567 48.6136C732.371 48.7992 732.969 49.0852 733.363 49.4716C733.757 49.858 733.954 50.3598 733.954 50.9773C733.954 51.5 733.802 51.9659 733.499 52.375C733.2 52.7803 732.781 53.0985 732.244 53.3295C731.71 53.5606 731.09 53.6761 730.386 53.6761C729.408 53.6761 728.611 53.4678 727.994 53.0511C727.376 52.6307 726.997 52.0341 726.857 51.2614L728.499 51.0114C728.602 51.4394 728.812 51.7633 729.13 51.983C729.448 52.1989 729.863 52.3068 730.374 52.3068C730.931 52.3068 731.376 52.1913 731.71 51.9602C732.043 51.7254 732.21 51.4394 732.21 51.1023C732.21 50.8295 732.107 50.6004 731.903 50.4148C731.702 50.2292 731.393 50.089 730.977 49.9943L729.499 49.6705C728.685 49.4848 728.083 49.1894 727.692 48.7841C727.306 48.3788 727.113 47.8655 727.113 47.2443C727.113 46.7292 727.257 46.2784 727.545 45.892C727.833 45.5057 728.23 45.2045 728.738 44.9886C729.246 44.7689 729.827 44.6591 730.482 44.6591C731.425 44.6591 732.168 44.8636 732.71 45.2727C733.251 45.678 733.609 46.2216 733.783 46.9034ZM741.35 49.8807V44.7727H743.055V53.5H741.384V51.9886H741.293C741.093 52.4545 740.771 52.8428 740.327 53.1534C739.888 53.4602 739.341 53.6136 738.685 53.6136C738.125 53.6136 737.629 53.4905 737.197 53.2443C736.769 52.9943 736.432 52.625 736.185 52.1364C735.943 51.6477 735.822 51.0436 735.822 50.3239V44.7727H737.521V50.1193C737.521 50.714 737.685 51.1875 738.015 51.5398C738.344 51.892 738.772 52.0682 739.299 52.0682C739.617 52.0682 739.933 51.9886 740.248 51.8295C740.566 51.6705 740.829 51.4299 741.038 51.108C741.25 50.786 741.354 50.3769 741.35 49.8807ZM745.337 53.5V44.7727H746.968V46.1932H747.076C747.258 45.7121 747.555 45.3371 747.968 45.0682C748.381 44.7955 748.875 44.6591 749.451 44.6591C750.034 44.6591 750.523 44.7955 750.917 45.0682C751.315 45.3409 751.608 45.7159 751.798 46.1932H751.888C752.097 45.7273 752.428 45.3561 752.883 45.0795C753.337 44.7992 753.879 44.6591 754.508 44.6591C755.299 44.6591 755.945 44.9072 756.445 45.4034C756.949 45.8996 757.201 46.6477 757.201 47.6477V53.5H755.502V47.8068C755.502 47.2159 755.341 46.7879 755.019 46.5227C754.697 46.2576 754.313 46.125 753.866 46.125C753.313 46.125 752.883 46.2955 752.576 46.6364C752.269 46.9735 752.116 47.4072 752.116 47.9375V53.5H750.423V47.6989C750.423 47.2254 750.275 46.8447 749.979 46.5568C749.684 46.2689 749.299 46.125 748.826 46.125C748.504 46.125 748.207 46.2102 747.934 46.3807C747.665 46.5473 747.447 46.7803 747.281 47.0795C747.118 47.3788 747.036 47.7254 747.036 48.1193V53.5H745.337ZM763.239 53.6761C762.379 53.6761 761.639 53.4924 761.018 53.125C760.4 52.7538 759.923 52.233 759.586 51.5625C759.253 50.8883 759.086 50.0985 759.086 49.1932C759.086 48.2992 759.253 47.5114 759.586 46.8295C759.923 46.1477 760.393 45.6155 760.995 45.233C761.601 44.8504 762.309 44.6591 763.12 44.6591C763.612 44.6591 764.09 44.7405 764.552 44.9034C765.014 45.0663 765.429 45.322 765.796 45.6705C766.164 46.0189 766.453 46.4716 766.665 47.0284C766.878 47.5814 766.984 48.2538 766.984 49.0455V49.6477H760.046V48.375H765.319C765.319 47.928 765.228 47.5322 765.046 47.1875C764.864 46.839 764.609 46.5644 764.279 46.3636C763.953 46.1629 763.571 46.0625 763.131 46.0625C762.654 46.0625 762.237 46.1799 761.881 46.4148C761.529 46.6458 761.256 46.9489 761.063 47.3239C760.874 47.6951 760.779 48.0985 760.779 48.5341V49.5284C760.779 50.1117 760.881 50.608 761.086 51.017C761.294 51.4261 761.584 51.7386 761.955 51.9545C762.326 52.1667 762.76 52.2727 763.256 52.2727C763.578 52.2727 763.872 52.2273 764.137 52.1364C764.402 52.0417 764.631 51.9015 764.825 51.7159C765.018 51.5303 765.165 51.3011 765.268 51.0284L766.876 51.3182C766.747 51.7917 766.516 52.2064 766.183 52.5625C765.853 52.9148 765.438 53.1894 764.938 53.3864C764.442 53.5795 763.876 53.6761 763.239 53.6761ZM768.869 53.5V44.7727H770.511V46.1591H770.602C770.761 45.6894 771.041 45.3201 771.442 45.0511C771.848 44.7784 772.306 44.642 772.817 44.642C772.924 44.642 773.049 44.6458 773.192 44.6534C773.34 44.661 773.456 44.6705 773.539 44.6818V46.3068C773.471 46.2879 773.35 46.267 773.175 46.2443C773.001 46.2178 772.827 46.2045 772.653 46.2045C772.251 46.2045 771.893 46.2898 771.579 46.4602C771.268 46.6269 771.022 46.8598 770.84 47.1591C770.658 47.4545 770.567 47.7917 770.567 48.1705V53.5H768.869Z" fill="#102B2D"/>
<path d="M392.5 136L392.5 90" stroke="#10C800" stroke-linejoin="round"/>
<path d="M386.5 115L392.5 109L398.5 115" stroke="#10C800" stroke-linecap="square" stroke-linejoin="round"/>
<path d="M341.442 184.5H337.499V172.864H341.522C342.677 172.864 343.67 173.097 344.499 173.562C345.333 174.025 345.973 174.689 346.42 175.557C346.867 176.424 347.09 177.462 347.09 178.67C347.09 179.883 346.865 180.924 346.414 181.795C345.967 182.667 345.321 183.335 344.477 183.801C343.636 184.267 342.624 184.5 341.442 184.5ZM339.607 182.676H341.34C342.151 182.676 342.827 182.528 343.369 182.233C343.91 181.934 344.317 181.489 344.59 180.898C344.863 180.303 344.999 179.561 344.999 178.67C344.999 177.78 344.863 177.042 344.59 176.455C344.317 175.864 343.914 175.422 343.38 175.131C342.85 174.835 342.191 174.688 341.403 174.688H339.607V182.676ZM352.866 184.67C351.991 184.67 351.235 184.489 350.599 184.125C349.966 183.758 349.479 183.239 349.138 182.568C348.798 181.894 348.627 181.1 348.627 180.188C348.627 179.29 348.798 178.502 349.138 177.824C349.483 177.142 349.964 176.612 350.582 176.233C351.199 175.85 351.924 175.659 352.758 175.659C353.296 175.659 353.803 175.746 354.281 175.92C354.762 176.091 355.186 176.356 355.553 176.716C355.924 177.076 356.216 177.534 356.428 178.091C356.64 178.644 356.746 179.303 356.746 180.068V180.699H349.593V179.312H354.775C354.771 178.919 354.686 178.568 354.519 178.261C354.353 177.951 354.12 177.706 353.82 177.528C353.525 177.35 353.18 177.261 352.786 177.261C352.366 177.261 351.996 177.364 351.678 177.568C351.36 177.769 351.112 178.034 350.934 178.364C350.76 178.689 350.671 179.047 350.667 179.438V180.648C350.667 181.155 350.76 181.591 350.945 181.955C351.131 182.314 351.39 182.591 351.724 182.784C352.057 182.973 352.447 183.068 352.894 183.068C353.193 183.068 353.464 183.027 353.707 182.943C353.949 182.856 354.159 182.729 354.337 182.562C354.515 182.396 354.65 182.189 354.741 181.943L356.661 182.159C356.54 182.667 356.309 183.11 355.968 183.489C355.631 183.864 355.199 184.155 354.673 184.364C354.146 184.568 353.544 184.67 352.866 184.67ZM358.487 187.773V175.773H360.509V177.216H360.629C360.735 177.004 360.884 176.778 361.077 176.54C361.271 176.297 361.532 176.091 361.862 175.92C362.191 175.746 362.612 175.659 363.123 175.659C363.797 175.659 364.405 175.831 364.947 176.176C365.492 176.517 365.924 177.023 366.242 177.693C366.564 178.36 366.725 179.178 366.725 180.148C366.725 181.106 366.568 181.92 366.254 182.591C365.939 183.261 365.511 183.773 364.969 184.125C364.428 184.477 363.814 184.653 363.129 184.653C362.629 184.653 362.214 184.57 361.884 184.403C361.555 184.237 361.29 184.036 361.089 183.801C360.892 183.562 360.738 183.337 360.629 183.125H360.543V187.773H358.487ZM360.504 180.136C360.504 180.701 360.583 181.195 360.742 181.619C360.905 182.044 361.138 182.375 361.441 182.614C361.748 182.848 362.119 182.966 362.555 182.966C363.009 182.966 363.39 182.845 363.697 182.602C364.004 182.356 364.235 182.021 364.39 181.597C364.549 181.169 364.629 180.682 364.629 180.136C364.629 179.595 364.551 179.114 364.396 178.693C364.24 178.273 364.009 177.943 363.702 177.705C363.396 177.466 363.013 177.347 362.555 177.347C362.115 177.347 361.742 177.462 361.435 177.693C361.129 177.924 360.896 178.248 360.737 178.665C360.581 179.081 360.504 179.572 360.504 180.136ZM372.35 184.67C371.475 184.67 370.719 184.489 370.083 184.125C369.451 183.758 368.964 183.239 368.623 182.568C368.282 181.894 368.112 181.1 368.112 180.188C368.112 179.29 368.282 178.502 368.623 177.824C368.968 177.142 369.449 176.612 370.066 176.233C370.683 175.85 371.409 175.659 372.242 175.659C372.78 175.659 373.288 175.746 373.765 175.92C374.246 176.091 374.67 176.356 375.038 176.716C375.409 177.076 375.701 177.534 375.913 178.091C376.125 178.644 376.231 179.303 376.231 180.068V180.699H369.077V179.312H374.259C374.255 178.919 374.17 178.568 374.004 178.261C373.837 177.951 373.604 177.706 373.305 177.528C373.009 177.35 372.665 177.261 372.271 177.261C371.85 177.261 371.481 177.364 371.163 177.568C370.844 177.769 370.596 178.034 370.418 178.364C370.244 178.689 370.155 179.047 370.151 179.438V180.648C370.151 181.155 370.244 181.591 370.43 181.955C370.615 182.314 370.875 182.591 371.208 182.784C371.541 182.973 371.932 183.068 372.379 183.068C372.678 183.068 372.949 183.027 373.191 182.943C373.433 182.856 373.644 182.729 373.822 182.562C374 182.396 374.134 182.189 374.225 181.943L376.146 182.159C376.024 182.667 375.793 183.11 375.452 183.489C375.115 183.864 374.683 184.155 374.157 184.364C373.63 184.568 373.028 184.67 372.35 184.67ZM380.028 179.386V184.5H377.971V175.773H379.937V177.256H380.039C380.24 176.767 380.56 176.379 380.999 176.091C381.442 175.803 381.99 175.659 382.641 175.659C383.244 175.659 383.768 175.788 384.215 176.045C384.666 176.303 385.014 176.676 385.261 177.165C385.511 177.653 385.634 178.246 385.63 178.943V184.5H383.573V179.261C383.573 178.678 383.422 178.222 383.119 177.892C382.819 177.562 382.405 177.398 381.874 177.398C381.514 177.398 381.194 177.477 380.914 177.636C380.638 177.792 380.42 178.017 380.261 178.312C380.105 178.608 380.028 178.966 380.028 179.386ZM390.96 184.653C390.274 184.653 389.66 184.477 389.119 184.125C388.577 183.773 388.149 183.261 387.835 182.591C387.52 181.92 387.363 181.106 387.363 180.148C387.363 179.178 387.522 178.36 387.84 177.693C388.162 177.023 388.596 176.517 389.141 176.176C389.687 175.831 390.295 175.659 390.965 175.659C391.477 175.659 391.897 175.746 392.227 175.92C392.556 176.091 392.817 176.297 393.011 176.54C393.204 176.778 393.353 177.004 393.46 177.216H393.545V172.864H395.607V184.5H393.585V183.125H393.46C393.353 183.337 393.2 183.562 392.999 183.801C392.799 184.036 392.533 184.237 392.204 184.403C391.874 184.57 391.46 184.653 390.96 184.653ZM391.533 182.966C391.969 182.966 392.34 182.848 392.647 182.614C392.954 182.375 393.187 182.044 393.346 181.619C393.505 181.195 393.585 180.701 393.585 180.136C393.585 179.572 393.505 179.081 393.346 178.665C393.191 178.248 392.96 177.924 392.653 177.693C392.35 177.462 391.977 177.347 391.533 177.347C391.075 177.347 390.692 177.466 390.386 177.705C390.079 177.943 389.848 178.273 389.692 178.693C389.537 179.114 389.46 179.595 389.46 180.136C389.46 180.682 389.537 181.169 389.692 181.597C389.852 182.021 390.085 182.356 390.391 182.602C390.702 182.845 391.083 182.966 391.533 182.966ZM401.663 184.67C400.788 184.67 400.032 184.489 399.396 184.125C398.763 183.758 398.276 183.239 397.935 182.568C397.594 181.894 397.424 181.1 397.424 180.188C397.424 179.29 397.594 178.502 397.935 177.824C398.28 177.142 398.761 176.612 399.379 176.233C399.996 175.85 400.721 175.659 401.555 175.659C402.093 175.659 402.6 175.746 403.077 175.92C403.558 176.091 403.983 176.356 404.35 176.716C404.721 177.076 405.013 177.534 405.225 178.091C405.437 178.644 405.543 179.303 405.543 180.068V180.699H398.39V179.312H403.572C403.568 178.919 403.483 178.568 403.316 178.261C403.149 177.951 402.916 177.706 402.617 177.528C402.322 177.35 401.977 177.261 401.583 177.261C401.163 177.261 400.793 177.364 400.475 177.568C400.157 177.769 399.909 178.034 399.731 178.364C399.557 178.689 399.468 179.047 399.464 179.438V180.648C399.464 181.155 399.557 181.591 399.742 181.955C399.928 182.314 400.187 182.591 400.521 182.784C400.854 182.973 401.244 183.068 401.691 183.068C401.99 183.068 402.261 183.027 402.504 182.943C402.746 182.856 402.956 182.729 403.134 182.562C403.312 182.396 403.447 182.189 403.538 181.943L405.458 182.159C405.337 182.667 405.106 183.11 404.765 183.489C404.428 183.864 403.996 184.155 403.469 184.364C402.943 184.568 402.341 184.67 401.663 184.67ZM409.34 179.386V184.5H407.283V175.773H409.249V177.256H409.352C409.552 176.767 409.872 176.379 410.312 176.091C410.755 175.803 411.302 175.659 411.954 175.659C412.556 175.659 413.081 175.788 413.528 176.045C413.978 176.303 414.327 176.676 414.573 177.165C414.823 177.653 414.946 178.246 414.942 178.943V184.5H412.886V179.261C412.886 178.678 412.734 178.222 412.431 177.892C412.132 177.562 411.717 177.398 411.187 177.398C410.827 177.398 410.507 177.477 410.227 177.636C409.95 177.792 409.732 178.017 409.573 178.312C409.418 178.608 409.34 178.966 409.34 179.386ZM420.84 184.67C419.969 184.67 419.221 184.479 418.596 184.097C417.975 183.714 417.496 183.186 417.158 182.511C416.825 181.833 416.658 181.053 416.658 180.17C416.658 179.284 416.829 178.502 417.17 177.824C417.511 177.142 417.992 176.612 418.613 176.233C419.238 175.85 419.977 175.659 420.829 175.659C421.537 175.659 422.164 175.79 422.71 176.051C423.259 176.309 423.696 176.674 424.022 177.148C424.348 177.617 424.533 178.167 424.579 178.795H422.613C422.533 178.375 422.344 178.025 422.045 177.744C421.749 177.46 421.353 177.318 420.857 177.318C420.437 177.318 420.067 177.432 419.749 177.659C419.431 177.883 419.183 178.205 419.005 178.625C418.831 179.045 418.744 179.549 418.744 180.136C418.744 180.731 418.831 181.242 419.005 181.67C419.179 182.095 419.424 182.422 419.738 182.653C420.056 182.881 420.429 182.994 420.857 182.994C421.16 182.994 421.431 182.937 421.67 182.824C421.912 182.706 422.115 182.538 422.278 182.318C422.441 182.098 422.552 181.831 422.613 181.517H424.579C424.53 182.134 424.348 182.682 424.033 183.159C423.719 183.633 423.291 184.004 422.749 184.273C422.208 184.538 421.571 184.67 420.84 184.67ZM426.268 184.5V175.773H428.325V184.5H426.268ZM427.302 174.534C426.976 174.534 426.696 174.426 426.461 174.21C426.226 173.991 426.109 173.727 426.109 173.42C426.109 173.11 426.226 172.847 426.461 172.631C426.696 172.411 426.976 172.301 427.302 172.301C427.631 172.301 427.912 172.411 428.143 172.631C428.378 172.847 428.495 173.11 428.495 173.42C428.495 173.727 428.378 173.991 428.143 174.21C427.912 174.426 427.631 174.534 427.302 174.534ZM434.303 184.67C433.428 184.67 432.673 184.489 432.036 184.125C431.404 183.758 430.917 183.239 430.576 182.568C430.235 181.894 430.065 181.1 430.065 180.188C430.065 179.29 430.235 178.502 430.576 177.824C430.921 177.142 431.402 176.612 432.019 176.233C432.637 175.85 433.362 175.659 434.195 175.659C434.733 175.659 435.241 175.746 435.718 175.92C436.199 176.091 436.623 176.356 436.991 176.716C437.362 177.076 437.654 177.534 437.866 178.091C438.078 178.644 438.184 179.303 438.184 180.068V180.699H431.031V179.312H436.212C436.209 178.919 436.123 178.568 435.957 178.261C435.79 177.951 435.557 177.706 435.258 177.528C434.962 177.35 434.618 177.261 434.224 177.261C433.803 177.261 433.434 177.364 433.116 177.568C432.798 177.769 432.549 178.034 432.371 178.364C432.197 178.689 432.108 179.047 432.104 179.438V180.648C432.104 181.155 432.197 181.591 432.383 181.955C432.568 182.314 432.828 182.591 433.161 182.784C433.495 182.973 433.885 183.068 434.332 183.068C434.631 183.068 434.902 183.027 435.144 182.943C435.387 182.856 435.597 182.729 435.775 182.562C435.953 182.396 436.087 182.189 436.178 181.943L438.099 182.159C437.978 182.667 437.746 183.11 437.406 183.489C437.068 183.864 436.637 184.155 436.11 184.364C435.584 184.568 434.981 184.67 434.303 184.67ZM446.822 178.08L444.947 178.284C444.894 178.095 444.801 177.917 444.668 177.75C444.54 177.583 444.365 177.449 444.146 177.347C443.926 177.244 443.657 177.193 443.339 177.193C442.911 177.193 442.551 177.286 442.259 177.472C441.971 177.657 441.829 177.898 441.833 178.193C441.829 178.447 441.922 178.653 442.112 178.812C442.305 178.972 442.623 179.102 443.066 179.205L444.555 179.523C445.38 179.701 445.994 179.983 446.396 180.369C446.801 180.756 447.005 181.261 447.009 181.886C447.005 182.436 446.844 182.92 446.526 183.341C446.212 183.758 445.774 184.083 445.214 184.318C444.653 184.553 444.009 184.67 443.282 184.67C442.214 184.67 441.354 184.447 440.702 184C440.051 183.549 439.663 182.922 439.538 182.119L441.543 181.926C441.634 182.32 441.827 182.617 442.123 182.818C442.418 183.019 442.803 183.119 443.276 183.119C443.765 183.119 444.157 183.019 444.452 182.818C444.752 182.617 444.901 182.369 444.901 182.074C444.901 181.824 444.805 181.617 444.612 181.455C444.422 181.292 444.127 181.167 443.725 181.08L442.237 180.767C441.399 180.593 440.78 180.299 440.379 179.886C439.977 179.47 439.778 178.943 439.782 178.307C439.778 177.769 439.924 177.303 440.219 176.909C440.519 176.511 440.933 176.205 441.464 175.989C441.998 175.769 442.613 175.659 443.31 175.659C444.333 175.659 445.138 175.877 445.725 176.312C446.316 176.748 446.682 177.337 446.822 178.08Z" fill="#102B2D"/>
<rect x="312" y="141" width="160" height="74" rx="7" stroke="#58DA95" stroke-width="2" stroke-dasharray="5 5"/>
<path d="M576 109L570 115L564 109" stroke="#58DA95" stroke-linecap="round" stroke-linejoin="round"/>
<path d="M570 90V169C570 173.418 566.418 177 562 177H477" stroke="#58DA95" stroke-linejoin="round" stroke-dasharray="5 5"/>
</svg>
