<svg version="1.1" viewBox="0.0 0.0 1125.3753280839894 392.246719160105" fill="none" stroke="none" stroke-linecap="square" stroke-miterlimit="10" xmlns:xlink="http://www.w3.org/1999/xlink" xmlns="http://www.w3.org/2000/svg"><clipPath id="p.0"><path d="m0 0l1125.3754 0l0 392.2467l-1125.3754 0l0 -392.2467z" clip-rule="nonzero"/></clipPath><g clip-path="url(#p.0)"><path fill="#ffffff" d="m0 0l1125.3754 0l0 392.2467l-1125.3754 0z" fill-rule="evenodd"/><path fill="#fff2cc" d="m440.57742 71.37533l188.40945 0l0 241.51181l-188.40945 0z" fill-rule="evenodd"/><path stroke="#000000" stroke-width="1.0" stroke-linejoin="round" stroke-linecap="butt" d="m440.57742 71.37533l188.40945 0l0 241.51181l-188.40945 0z" fill-rule="evenodd"/><path fill="#000000" d="m499.94678 91.53095q-2.09375 -0.609375 -3.046875 -1.484375q-0.953125 -0.875 -0.953125 -2.15625q0 -1.453125 1.15625 -2.40625q1.171875 -0.953125 3.03125 -0.953125q1.265625 0 2.265625 0.5q1.0 0.484375 1.546875 1.34375q0.546875 0.859375 0.546875 1.890625l-1.640625 0q0 -1.125 -0.71875 -1.765625q-0.703125 -0.640625 -2.0 -0.640625q-1.203125 0 -1.875 0.53125q-0.671875 0.53125 -0.671875 1.46875q0 0.75 0.640625 1.28125q0.640625 0.515625 2.171875 0.953125q1.546875 0.421875 2.40625 0.953125q0.875 0.515625 1.28125 1.21875q0.421875 0.6875 0.421875 1.625q0 1.484375 -1.171875 2.390625q-1.15625 0.90625 -3.109375 0.90625q-1.28125 0 -2.375 -0.484375q-1.09375 -0.484375 -1.703125 -1.328125q-0.59375 -0.859375 -0.59375 -1.9375l1.640625 0q0 1.125 0.8125 1.78125q0.828125 0.640625 2.21875 0.640625q1.28125 0 1.96875 -0.515625q0.6875 -0.53125 0.6875 -1.4375q0 -0.90625 -0.640625 -1.40625q-0.640625 -0.5 -2.296875 -0.96875zm8.530121 -5.890625l0 2.21875l1.703125 0l0 1.21875l-1.703125 0l0 5.671875q0 0.546875 0.21875 0.828125q0.234375 0.265625 0.78125 0.265625q0.265625 0 0.75 -0.09375l0 1.265625q-0.625 0.171875 -1.203125 0.171875q-1.046875 0 -1.578125 -0.625q-0.53125 -0.640625 -0.53125 -1.8125l0 -5.671875l-1.671875 0l0 -1.21875l1.671875 0l0 -2.21875l1.5625 0zm9.191681 11.375q-0.140625 -0.265625 -0.234375 -0.96875q-1.078125 1.140625 -2.59375 1.140625q-1.359375 0 -2.234375 -0.765625q-0.859375 -0.765625 -0.859375 -1.9375q0 -1.4375 1.078125 -2.21875q1.09375 -0.796875 3.0625 -0.796875l1.53125 0l0 -0.71875q0 -0.828125 -0.5 -1.3125q-0.484375 -0.484375 -1.4375 -0.484375q-0.84375 0 -1.40625 0.421875q-0.5625 0.421875 -0.5625 1.03125l-1.578125 0q0 -0.6875 0.484375 -1.328125q0.484375 -0.640625 1.3125 -1.015625q0.84375 -0.375 1.84375 -0.375q1.578125 0 2.46875 0.796875q0.90625 0.796875 0.9375 2.171875l0 4.21875q0 1.265625 0.328125 2.0l0 0.140625l-1.640625 0zm-2.609375 -1.1875q0.734375 0 1.390625 -0.375q0.671875 -0.390625 0.96875 -1.0l0 -1.875l-1.234375 0q-2.875 0 -2.875 1.671875q0 0.75 0.484375 1.171875q0.5 0.40625 1.265625 0.40625zm8.503662 -10.1875l0 2.21875l1.703125 0l0 1.21875l-1.703125 0l0 5.671875q0 0.546875 0.21875 0.828125q0.234375 0.265625 0.78125 0.265625q0.265625 0 0.75 -0.09375l0 1.265625q-0.625 0.171875 -1.203125 0.171875q-1.046875 0 -1.578125 -0.625q-0.53125 -0.640625 -0.53125 -1.8125l0 -5.671875l-1.671875 0l0 -1.21875l1.671875 0l0 -2.21875l1.5625 0zm7.3322754 11.546875q-1.859375 0 -3.03125 -1.21875q-1.171875 -1.234375 -1.171875 -3.28125l0 -0.28125q0 -1.359375 0.515625 -2.421875q0.53125 -1.078125 1.46875 -1.6875q0.9375 -0.609375 2.015625 -0.609375q1.796875 0 2.78125 1.1875q0.984375 1.171875 0.984375 3.359375l0 0.65625l-6.1875 0q0.03125 1.34375 0.78125 2.1875q0.765625 0.828125 1.921875 0.828125q0.828125 0 1.40625 -0.328125q0.578125 -0.34375 1.015625 -0.90625l0.953125 0.75q-1.15625 1.765625 -3.453125 1.765625zm-0.203125 -8.203125q-0.9375 0 -1.578125 0.6875q-0.640625 0.6875 -0.796875 1.921875l4.578125 0l0 -0.109375q-0.0625 -1.1875 -0.640625 -1.84375q-0.578125 -0.65625 -1.5625 -0.65625zm7.055237 -1.125l0.046875 1.015625q1.0 -1.1875 2.71875 -1.1875q1.90625 0 2.609375 1.46875q0.453125 -0.65625 1.1875 -1.0625q0.734375 -0.40625 1.734375 -0.40625q3.0 0 3.0625 3.1875l0 6.140625l-1.5625 0l0 -6.046875q0 -0.96875 -0.453125 -1.453125q-0.453125 -0.5 -1.515625 -0.5q-0.859375 0 -1.4375 0.53125q-0.578125 0.515625 -0.671875 1.390625l0 6.078125l-1.578125 0l0 -6.0q0 -2.0 -1.953125 -2.0q-1.53125 0 -2.109375 1.3125l0 6.6875l-1.5625 0l0 -9.15625l1.484375 0zm17.515625 9.328125q-1.859375 0 -3.03125 -1.21875q-1.171875 -1.234375 -1.171875 -3.28125l0 -0.28125q0 -1.359375 0.515625 -2.421875q0.53125 -1.078125 1.46875 -1.6875q0.9375 -0.609375 2.015625 -0.609375q1.796875 0 2.78125 1.1875q0.984375 1.171875 0.984375 3.359375l0 0.65625l-6.1875 0q0.03125 1.34375 0.78125 2.1875q0.765625 0.828125 1.921875 0.828125q0.828125 0 1.40625 -0.328125q0.578125 -0.34375 1.015625 -0.90625l0.953125 0.75q-1.15625 1.765625 -3.453125 1.765625zm-0.203125 -8.203125q-0.9375 0 -1.578125 0.6875q-0.640625 0.6875 -0.796875 1.921875l4.578125 0l0 -0.109375q-0.0625 -1.1875 -0.640625 -1.84375q-0.578125 -0.65625 -1.5625 -0.65625zm7.070801 -1.125l0.046875 1.15625q1.046875 -1.328125 2.734375 -1.328125q2.90625 0 2.9375 3.28125l0 6.046875l-1.578125 0l0 -6.0625q0 -0.984375 -0.453125 -1.453125q-0.4375 -0.484375 -1.375 -0.484375q-0.765625 0 -1.34375 0.40625q-0.5625 0.40625 -0.890625 1.078125l0 6.515625l-1.5625 0l0 -9.15625l1.484375 0zm10.201538 -2.21875l0 2.21875l1.703125 0l0 1.21875l-1.703125 0l0 5.671875q0 0.546875 0.21875 0.828125q0.234375 0.265625 0.78125 0.265625q0.265625 0 0.75 -0.09375l0 1.265625q-0.625 0.171875 -1.203125 0.171875q-1.046875 0 -1.578125 -0.625q-0.53125 -0.640625 -0.53125 -1.8125l0 -5.671875l-1.671875 0l0 -1.21875l1.671875 0l0 -2.21875l1.5625 0z" fill-rule="nonzero"/><path fill="#000000" fill-opacity="0.0" d="m400.31497 160.15486l50.393677 6.2992096" fill-rule="evenodd"/><path stroke="#000000" stroke-width="1.0" stroke-linejoin="round" stroke-linecap="butt" stroke-dasharray="1.0,3.0" d="m400.31497 160.15486l50.393677 6.2992096" fill-rule="evenodd"/><path fill="#000000" fill-opacity="0.0" d="m403.9134 313.08398l46.04724 -6.4252014" fill-rule="evenodd"/><path stroke="#000000" stroke-width="1.0" stroke-linejoin="round" stroke-linecap="butt" stroke-dasharray="1.0,3.0" d="m403.9134 313.08398l46.04724 -6.4252014" fill-rule="evenodd"/><path fill="#ead1dc" d="m940.80054 91.671745l171.37012 0l0 186.67715l-171.37012 0z" fill-rule="evenodd"/><path stroke="#000000" stroke-width="1.0" stroke-linejoin="round" stroke-linecap="butt" d="m940.80054 91.671745l171.37012 0l0 186.67715l-171.37012 0z" fill-rule="evenodd"/><path fill="#000000" d="m1001.39355 117.311745l0 -12.3125l4.015625 0q2.015625 0 3.015625 0.828125q1.015625 0.828125 1.015625 2.453125q0 0.859375 -0.5 1.53125q-0.484375 0.65625 -1.328125 1.015625q1.0 0.28125 1.578125 1.0625q0.578125 0.78125 0.578125 1.875q0 1.65625 -1.078125 2.609375q-1.0625 0.9375 -3.03125 0.9375l-4.265625 0zm1.609375 -5.765625l0 4.4375l2.6875 0q1.140625 0 1.796875 -0.578125q0.65625 -0.59375 0.65625 -1.625q0 -2.234375 -2.421875 -2.234375l-2.71875 0zm0 -1.296875l2.46875 0q1.0625 0 1.703125 -0.53125q0.640625 -0.53125 0.640625 -1.453125q0 -1.015625 -0.59375 -1.46875q-0.59375 -0.46875 -1.8125 -0.46875l-2.40625 0l0 3.921875zm14.584656 6.15625q-0.921875 1.078125 -2.6875 1.078125q-1.46875 0 -2.234375 -0.84375q-0.765625 -0.859375 -0.765625 -2.53125l0 -5.953125l1.5625 0l0 5.921875q0 2.078125 1.6875 2.078125q1.796875 0 2.390625 -1.34375l0 -6.65625l1.5625 0l0 9.15625l-1.484375 0l-0.03125 -0.90625zm5.380615 -8.25l0.046875 1.15625q1.046936 -1.328125 2.734436 -1.328125q2.90625 0 2.9375 3.28125l0 6.046875l-1.578125 0l0 -6.0625q0 -0.984375 -0.453125 -1.453125q-0.4375 -0.484375 -1.375 -0.484375q-0.765625 0 -1.343811 0.40625q-0.5625 0.40625 -0.890625 1.078125l0 6.515625l-1.5625 0l0 -9.15625l1.484375 0zm7.685974 4.5q0 -2.109375 1.0 -3.390625q1.0 -1.28125 2.625 -1.28125q1.609375 0 2.546875 1.109375l0 -4.78125l1.5625 0l0 13.0l-1.4375 0l-0.078125 -0.984375q-0.9375 1.15625 -2.609375 1.15625q-1.59375 0 -2.609375 -1.296875q-1.0 -1.3125 -1.0 -3.40625l0 -0.125zm1.578125 0.1875q0 1.546875 0.640625 2.4375q0.640625 0.875 1.765625 0.875q1.5 0 2.1875 -1.34375l0 -4.203125q-0.703125 -1.296875 -2.15625 -1.296875q-1.15625 0 -1.796875 0.890625q-0.640625 0.890625 -0.640625 2.640625zm10.288086 4.46875l-1.578125 0l0 -13.0l1.578125 0l0 13.0zm6.298828 0.171875q-1.859375 0 -3.03125 -1.21875q-1.171875 -1.234375 -1.171875 -3.28125l0 -0.28125q0 -1.359375 0.515625 -2.421875q0.53125 -1.078125 1.46875 -1.6875q0.9375 -0.609375 2.015625 -0.609375q1.796875 0 2.78125 1.1875q0.984375 1.171875 0.984375 3.359375l0 0.65625l-6.1875 0q0.03125 1.34375 0.78125 2.1875q0.765625 0.828125 1.921875 0.828125q0.828125 0 1.40625 -0.328125q0.578125 -0.34375 1.015625 -0.90625l0.953125 0.75q-1.15625 1.765625 -3.453125 1.765625zm-0.203125 -8.203125q-0.9375 0 -1.578125 0.6875q-0.640625 0.6875 -0.796875 1.921875l4.578125 0l0 -0.109375q-0.0625 -1.1875 -0.640625 -1.84375q-0.578125 -0.65625 -1.5625 -0.65625z" fill-rule="nonzero"/><path fill="#d9ead3" d="m676.7743 71.37795l207.71649 0l0 241.51181l-207.71649 0z" fill-rule="evenodd"/><path stroke="#000000" stroke-width="1.0" stroke-linejoin="round" stroke-linecap="butt" d="m676.7743 71.37795l207.71649 0l0 241.51181l-207.71649 0z" fill-rule="evenodd"/><path fill="#000000" d="m754.0919 91.33045l-5.34375 0l0 4.359375l6.203125 0l0 1.328125l-7.8125 0l0 -12.3125l7.734375 0l0 1.328125l-6.125 0l0 3.96875l5.34375 0l0 1.328125zm4.129883 -3.46875l0.046875 1.15625q1.046875 -1.328125 2.734375 -1.328125q2.90625 0 2.9375 3.28125l0 6.046875l-1.578125 0l0 -6.0625q0 -0.984375 -0.453125 -1.453125q-0.4375 -0.484375 -1.375 -0.484375q-0.765625 0 -1.34375 0.40625q-0.5625 0.40625 -0.890625 1.078125l0 6.515625l-1.5625 0l0 -9.15625l1.484375 0zm11.092163 7.03125l2.265625 -7.03125l1.609375 0l-3.296875 9.15625l-1.1875 0l-3.3125 -9.15625l1.59375 0l2.328125 7.03125zm9.064514 2.296875q-1.859375 0 -3.03125 -1.21875q-1.171875 -1.234375 -1.171875 -3.28125l0 -0.28125q0 -1.359375 0.515625 -2.421875q0.53125 -1.078125 1.46875 -1.6875q0.9375 -0.609375 2.015625 -0.609375q1.796875 0 2.78125 1.1875q0.984375 1.171875 0.984375 3.359375l0 0.65625l-6.1875 0q0.03125 1.34375 0.78125 2.1875q0.765625 0.828125 1.921875 0.828125q0.828125 0 1.40625 -0.328125q0.578125 -0.34375 1.015625 -0.90625l0.953125 0.75q-1.15625 1.765625 -3.453125 1.765625zm-0.203125 -8.203125q-0.9375 0 -1.578125 0.6875q-0.640625 0.6875 -0.796875 1.921875l4.578125 0l0 -0.109375q-0.0625 -1.1875 -0.640625 -1.84375q-0.578125 -0.65625 -1.5625 -0.65625zm7.289612 8.03125l-1.578125 0l0 -13.0l1.578125 0l0 13.0zm2.0800781 -4.65625q0 -1.34375 0.53125 -2.421875q0.53125 -1.078125 1.46875 -1.65625q0.953125 -0.59375 2.15625 -0.59375q1.875 0 3.03125 1.296875q1.15625 1.296875 1.15625 3.453125l0 0.109375q0 1.328125 -0.515625 2.390625q-0.515625 1.0625 -1.46875 1.65625q-0.953125 0.59375 -2.1875 0.59375q-1.859375 0 -3.015625 -1.296875q-1.15625 -1.296875 -1.15625 -3.421875l0 -0.109375zm1.578125 0.1875q0 1.515625 0.703125 2.4375q0.703125 0.921875 1.890625 0.921875q1.203125 0 1.890625 -0.9375q0.703125 -0.9375 0.703125 -2.609375q0 -1.515625 -0.71875 -2.4375q-0.703125 -0.9375 -1.890625 -0.9375q-1.15625 0 -1.875 0.921875q-0.703125 0.921875 -0.703125 2.640625zm16.460571 0q0 2.078125 -0.96875 3.359375q-0.953125 1.28125 -2.578125 1.28125q-1.671875 0 -2.625 -1.0625l0 4.40625l-1.5625 0l0 -12.671875l1.421875 0l0.078125 1.015625q0.953125 -1.1875 2.65625 -1.1875q1.65625 0 2.609375 1.25q0.96875 1.234375 0.96875 3.453125l0 0.15625zm-1.5625 -0.1875q0 -1.546875 -0.671875 -2.4375q-0.65625 -0.90625 -1.8125 -0.90625q-1.421875 0 -2.125 1.265625l0 4.375q0.703125 1.25 2.15625 1.25q1.125 0 1.78125 -0.890625q0.671875 -0.890625 0.671875 -2.65625zm7.3467407 4.828125q-1.859375 0 -3.03125 -1.21875q-1.171875 -1.234375 -1.171875 -3.28125l0 -0.28125q0 -1.359375 0.515625 -2.421875q0.53125 -1.078125 1.46875 -1.6875q0.9375 -0.609375 2.015625 -0.609375q1.796875 0 2.78125 1.1875q0.984375 1.171875 0.984375 3.359375l0 0.65625l-6.1875 0q0.03125 1.34375 0.78125 2.1875q0.765625 0.828125 1.921875 0.828125q0.828125 0 1.40625 -0.328125q0.578125 -0.34375 1.015625 -0.90625l0.953125 0.75q-1.15625 1.765625 -3.453125 1.765625zm-0.203125 -8.203125q-0.9375 0 -1.578125 0.6875q-0.640625 0.6875 -0.796875 1.921875l4.578125 0l0 -0.109375q-0.0625 -1.1875 -0.640625 -1.84375q-0.578125 -0.65625 -1.5625 -0.65625z" fill-rule="nonzero"/><path fill="#000000" fill-opacity="0.0" d="m497.58792 0l115.37009 0l0 40.40945l-115.37009 0z" fill-rule="evenodd"/><path fill="#000000" d="m521.01196 22.42125l-5.15625 0l-1.171875 3.21875l-1.671875 0l4.703125 -12.3125l1.421875 0l4.71875 12.3125l-1.671875 0l-1.171875 -3.21875zm-4.671875 -1.328125l4.1875 0l-2.09375 -5.765625l-2.09375 5.765625zm10.910034 -6.828125l0 2.21875l1.703125 0l0 1.21875l-1.703125 0l0 5.671875q0 0.546875 0.21875 0.828125q0.234375 0.265625 0.78125 0.265625q0.265625 0 0.75 -0.09375l0 1.265625q-0.625 0.171875 -1.203125 0.171875q-1.046875 0 -1.578125 -0.625q-0.53125 -0.640625 -0.53125 -1.8125l0 -5.671875l-1.671875 0l0 -1.21875l1.671875 0l0 -2.21875l1.5625 0zm5.6604004 0l0 2.21875l1.703125 0l0 1.21875l-1.703125 0l0 5.671875q0 0.546875 0.21875 0.828125q0.234375 0.265625 0.78125 0.265625q0.265625 0 0.75 -0.09375l0 1.265625q-0.625 0.171875 -1.203125 0.171875q-1.046875 0 -1.578125 -0.625q-0.53125 -0.640625 -0.53125 -1.8125l0 -5.671875l-1.671875 0l0 -1.21875l1.671875 0l0 -2.21875l1.5625 0zm7.3322754 11.546875q-1.859375 0 -3.03125 -1.21875q-1.171875 -1.234375 -1.171875 -3.28125l0 -0.28125q0 -1.359375 0.515625 -2.421875q0.53125 -1.078125 1.46875 -1.6875q0.9375 -0.609375 2.015625 -0.609375q1.796875 0 2.78125 1.1875q0.984375 1.171875 0.984375 3.359375l0 0.65625l-6.1875 0q0.03125 1.34375 0.78125 2.1875q0.765625 0.828125 1.921875 0.828125q0.828125 0 1.40625 -0.328125q0.578125 -0.34375 1.015625 -0.90625l0.953125 0.75q-1.15625 1.765625 -3.453125 1.765625zm-0.203125 -8.203125q-0.9375 0 -1.578125 0.6875q-0.640625 0.6875 -0.796875 1.921875l4.578125 0l0 -0.109375q-0.0625 -1.1875 -0.640625 -1.84375q-0.578125 -0.65625 -1.5625 -0.65625zm10.914612 5.609375q0 -0.640625 -0.484375 -0.984375q-0.46875 -0.359375 -1.65625 -0.609375q-1.1875 -0.25 -1.890625 -0.609375q-0.703125 -0.359375 -1.046875 -0.84375q-0.328125 -0.5 -0.328125 -1.171875q0 -1.125 0.953125 -1.90625q0.953125 -0.78125 2.4375 -0.78125q1.5625 0 2.53125 0.8125q0.96875 0.796875 0.96875 2.046875l-1.578125 0q0 -0.640625 -0.546875 -1.09375q-0.546875 -0.46875 -1.375 -0.46875q-0.859375 0 -1.34375 0.375q-0.46875 0.359375 -0.46875 0.96875q0 0.5625 0.4375 0.859375q0.453125 0.28125 1.625 0.546875q1.171875 0.25 1.890625 0.625q0.734375 0.359375 1.078125 0.875q0.359375 0.5 0.359375 1.25q0 1.21875 -0.984375 1.96875q-0.96875 0.734375 -2.546875 0.734375q-1.09375 0 -1.9375 -0.390625q-0.84375 -0.390625 -1.328125 -1.078125q-0.484375 -0.703125 -0.484375 -1.515625l1.578125 0q0.03125 0.78125 0.625 1.25q0.59375 0.453125 1.546875 0.453125q0.890625 0 1.421875 -0.359375q0.546875 -0.359375 0.546875 -0.953125zm5.7316895 -8.953125l0 2.21875l1.703125 0l0 1.21875l-1.703125 0l0 5.671875q0 0.546875 0.21875 0.828125q0.234375 0.265625 0.78125 0.265625q0.265625 0 0.75 -0.09375l0 1.265625q-0.625 0.171875 -1.203125 0.171875q-1.046875 0 -1.578125 -0.625q-0.53125 -0.640625 -0.53125 -1.8125l0 -5.671875l-1.671875 0l0 -1.21875l1.671875 0l0 -2.21875l1.5625 0zm9.19165 11.375q-0.140625 -0.265625 -0.234375 -0.96875q-1.078125 1.140625 -2.59375 1.140625q-1.359375 0 -2.234375 -0.765625q-0.859375 -0.765625 -0.859375 -1.9375q0 -1.4375 1.078125 -2.21875q1.09375 -0.796875 3.0625 -0.796875l1.53125 0l0 -0.71875q0 -0.828125 -0.5 -1.3125q-0.484375 -0.484375 -1.4375 -0.484375q-0.84375 0 -1.40625 0.421875q-0.5625 0.421875 -0.5625 1.03125l-1.578125 0q0 -0.6875 0.484375 -1.328125q0.484375 -0.640625 1.3125 -1.015625q0.84375 -0.375 1.84375 -0.375q1.578125 0 2.46875 0.796875q0.90625 0.796875 0.9375 2.171875l0 4.21875q0 1.265625 0.328125 2.0l0 0.140625l-1.640625 0zm-2.609375 -1.1875q0.734375 0 1.390625 -0.375q0.671875 -0.390625 0.96875 -1.0l0 -1.875l-1.234375 0q-2.875 0 -2.875 1.671875q0 0.75 0.484375 1.171875q0.5 0.40625 1.265625 0.40625zm8.503662 -10.1875l0 2.21875l1.703125 0l0 1.21875l-1.703125 0l0 5.671875q0 0.546875 0.21875 0.828125q0.234375 0.265625 0.78125 0.265625q0.265625 0 0.75 -0.09375l0 1.265625q-0.625 0.171875 -1.203125 0.171875q-1.046875 0 -1.578125 -0.625q-0.53125 -0.640625 -0.53125 -1.8125l0 -5.671875l-1.671875 0l0 -1.21875l1.671875 0l0 -2.21875l1.5625 0zm5.2385254 11.375l-1.578125 0l0 -9.15625l1.578125 0l0 9.15625zm-1.703125 -11.578125q0 -0.390625 0.234375 -0.640625q0.234375 -0.265625 0.6875 -0.265625q0.46875 0 0.703125 0.265625q0.234375 0.25 0.234375 0.640625q0 0.375 -0.234375 0.640625q-0.234375 0.25 -0.703125 0.25q-0.453125 0 -0.6875 -0.25q-0.234375 -0.265625 -0.234375 -0.640625zm3.7832642 6.921875q0 -1.34375 0.53125 -2.421875q0.53125 -1.078125 1.46875 -1.65625q0.953125 -0.59375 2.15625 -0.59375q1.875 0 3.03125 1.296875q1.15625 1.296875 1.15625 3.453125l0 0.109375q0 1.328125 -0.515625 2.390625q-0.515625 1.0625 -1.46875 1.65625q-0.953125 0.59375 -2.1875 0.59375q-1.859375 0 -3.015625 -1.296875q-1.15625 -1.296875 -1.15625 -3.421875l0 -0.109375zm1.578125 0.1875q0 1.515625 0.703125 2.4375q0.703125 0.921875 1.890625 0.921875q1.203125 0 1.890625 -0.9375q0.703125 -0.9375 0.703125 -2.609375q0 -1.515625 -0.71875 -2.4375q-0.703125 -0.9375 -1.890625 -0.9375q-1.15625 0 -1.875 0.921875q-0.703125 0.921875 -0.703125 2.640625zm10.210571 -4.6875l0.046875 1.15625q1.046875 -1.328125 2.734375 -1.328125q2.90625 0 2.9375 3.28125l0 6.046875l-1.578125 0l0 -6.0625q0 -0.984375 -0.453125 -1.453125q-0.4375 -0.484375 -1.375 -0.484375q-0.765625 0 -1.34375 0.40625q-0.5625 0.40625 -0.890625 1.078125l0 6.515625l-1.5625 0l0 -9.15625l1.484375 0z" fill-rule="nonzero"/><path fill="#b6d7a8" d="m686.4278 263.82437l188.40948 0l0 42.015747l-188.40948 0z" fill-rule="evenodd"/><path stroke="#000000" stroke-width="1.0" stroke-linejoin="round" stroke-linecap="butt" d="m686.4278 263.82437l188.40948 0l0 42.015747l-188.40948 0z" fill-rule="evenodd"/><path fill="#000000" d="m749.0505 283.98q-2.09375 -0.609375 -3.046875 -1.484375q-0.953125 -0.875 -0.953125 -2.15625q0 -1.453125 1.15625 -2.40625q1.171875 -0.953125 3.03125 -0.953125q1.265625 0 2.265625 0.5q1.0 0.484375 1.546875 1.34375q0.546875 0.859375 0.546875 1.890625l-1.640625 0q0 -1.125 -0.71875 -1.765625q-0.703125 -0.640625 -2.0 -0.640625q-1.203125 0 -1.875 0.53125q-0.671875 0.53125 -0.671875 1.46875q0 0.75 0.640625 1.28125q0.640625 0.515625 2.171875 0.953125q1.546875 0.421875 2.40625 0.953125q0.875 0.515625 1.28125 1.21875q0.421875 0.6875 0.421875 1.625q0 1.484375 -1.171875 2.390625q-1.15625 0.90625 -3.109375 0.90625q-1.28125 0 -2.375 -0.484375q-1.09375 -0.484375 -1.703125 -1.328125q-0.59375 -0.859375 -0.59375 -1.9375l1.640625 0q0 1.125 0.8125 1.78125q0.828125 0.640625 2.21875 0.640625q1.28125 0 1.96875 -0.515625q0.6875 -0.53125 0.6875 -1.4375q0 -0.90625 -0.640625 -1.40625q-0.640625 -0.5 -2.296875 -0.96875zm8.108215 5.484375l-1.578125 0l0 -9.15625l1.578125 0l0 9.15625zm-1.703125 -11.578125q0 -0.390625 0.234375 -0.640625q0.234375 -0.265625 0.6875 -0.265625q0.46875 0 0.703125 0.265625q0.234375 0.25 0.234375 0.640625q0 0.375 -0.234375 0.640625q-0.234375 0.25 -0.703125 0.25q-0.453125 0 -0.6875 -0.25q-0.234375 -0.265625 -0.234375 -0.640625zm3.8301392 6.921875q0 -2.140625 0.984375 -3.40625q1.0 -1.265625 2.625 -1.265625q1.671875 0 2.625 1.1875l0.0625 -1.015625l1.4375 0l0 8.9375q0 1.78125 -1.0625 2.796875q-1.046875 1.03125 -2.828125 1.03125q-0.984375 0 -1.9375 -0.421875q-0.9375 -0.421875 -1.4375 -1.171875l0.8125 -0.9375q1.0 1.25 2.453125 1.25q1.140625 0 1.78125 -0.640625q0.640625 -0.640625 0.640625 -1.8125l0 -0.78125q-0.9375 1.078125 -2.5625 1.078125q-1.609375 0 -2.609375 -1.296875q-0.984375 -1.296875 -0.984375 -3.53125zm1.578125 0.1875q0 1.546875 0.625 2.4375q0.640625 0.875 1.78125 0.875q1.484375 0 2.171875 -1.34375l0 -4.1875q-0.71875 -1.3125 -2.15625 -1.3125q-1.140625 0 -1.78125 0.890625q-0.640625 0.890625 -0.640625 2.640625zm10.00293 -4.6875l0.046875 1.15625q1.046875 -1.328125 2.734375 -1.328125q2.90625 0 2.9375 3.28125l0 6.046875l-1.578125 0l0 -6.0625q0 -0.984375 -0.453125 -1.453125q-0.4375 -0.484375 -1.375 -0.484375q-0.765625 0 -1.34375 0.40625q-0.5625 0.40625 -0.890625 1.078125l0 6.515625l-1.5625 0l0 -9.15625l1.484375 0zm13.732849 9.15625q-0.140625 -0.265625 -0.234375 -0.96875q-1.078125 1.140625 -2.59375 1.140625q-1.359375 0 -2.234375 -0.765625q-0.859375 -0.765625 -0.859375 -1.9375q0 -1.4375 1.078125 -2.21875q1.09375 -0.796875 3.0625 -0.796875l1.53125 0l0 -0.71875q0 -0.828125 -0.5 -1.3125q-0.484375 -0.484375 -1.4375 -0.484375q-0.84375 0 -1.40625 0.421875q-0.5625 0.421875 -0.5625 1.03125l-1.578125 0q0 -0.6875 0.484375 -1.328125q0.484375 -0.640625 1.3125 -1.015625q0.84375 -0.375 1.84375 -0.375q1.578125 0 2.46875 0.796875q0.90625 0.796875 0.9375 2.171875l0 4.21875q0 1.265625 0.328125 2.0l0 0.140625l-1.640625 0zm-2.609375 -1.1875q0.734375 0 1.390625 -0.375q0.671875 -0.390625 0.96875 -1.0l0 -1.875l-1.234375 0q-2.875 0 -2.875 1.671875q0 0.75 0.484375 1.171875q0.5 0.40625 1.265625 0.40625zm8.503662 -10.1875l0 2.21875l1.703125 0l0 1.21875l-1.703125 0l0 5.671875q0 0.546875 0.21875 0.828125q0.234375 0.265625 0.78125 0.265625q0.265625 0 0.75 -0.09375l0 1.265625q-0.625 0.171875 -1.203125 0.171875q-1.046875 0 -1.578125 -0.625q-0.53125 -0.640625 -0.53125 -1.8125l0 -5.671875l-1.671875 0l0 -1.21875l1.671875 0l0 -2.21875l1.5625 0zm9.19165 10.46875q-0.921875 1.078125 -2.6875 1.078125q-1.46875 0 -2.234375 -0.84375q-0.765625 -0.859375 -0.765625 -2.53125l0 -5.953125l1.5625 0l0 5.921875q0 2.078125 1.6875 2.078125q1.796875 0 2.390625 -1.34375l0 -6.65625l1.5625 0l0 9.15625l-1.484375 0l-0.03125 -0.90625zm8.318115 -6.84375q-0.359375 -0.0625 -0.765625 -0.0625q-1.546875 0 -2.09375 1.3125l0 6.5l-1.5625 0l0 -9.15625l1.515625 0l0.03125 1.0625q0.765625 -1.234375 2.1875 -1.234375q0.453125 0 0.6875 0.125l0 1.453125zm5.0776367 7.921875q-1.859375 0 -3.03125 -1.21875q-1.171875 -1.234375 -1.171875 -3.28125l0 -0.28125q0 -1.359375 0.515625 -2.421875q0.53125 -1.078125 1.46875 -1.6875q0.9375 -0.609375 2.015625 -0.609375q1.796875 0 2.78125 1.1875q0.984375 1.171875 0.984375 3.359375l0 0.65625l-6.1875 0q0.03125 1.34375 0.78125 2.1875q0.765625 0.828125 1.921875 0.828125q0.828125 0 1.40625 -0.328125q0.578125 -0.34375 1.015625 -0.90625l0.953125 0.75q-1.15625 1.765625 -3.453125 1.765625zm-0.203125 -8.203125q-0.9375 0 -1.578125 0.6875q-0.640625 0.6875 -0.796875 1.921875l4.578125 0l0 -0.109375q-0.0625 -1.1875 -0.640625 -1.84375q-0.578125 -0.65625 -1.5625 -0.65625z" fill-rule="nonzero"/><path fill="#ffe599" d="m449.09448 164.4228l171.37006 0l0 141.41731l-171.37006 0z" fill-rule="evenodd"/><path stroke="#000000" stroke-width="1.0" stroke-linejoin="round" stroke-linecap="butt" d="m449.09448 164.4228l171.37006 0l0 141.41731l-171.37006 0z" fill-rule="evenodd"/><path fill="#000000" d="m501.2622 185.23468l0 4.828125l-1.609375 0l0 -12.3125l4.53125 0q2.03125 0 3.171875 1.03125q1.140625 1.03125 1.140625 2.734375q0 1.78125 -1.125 2.75q-1.109375 0.96875 -3.203125 0.96875l-2.90625 0zm0 -1.328125l2.921875 0q1.3125 0 2.0 -0.609375q0.703125 -0.609375 0.703125 -1.765625q0 -1.109375 -0.703125 -1.765625q-0.6875 -0.65625 -1.90625 -0.6875l-3.015625 0l0 4.828125zm13.49408 -1.59375q-0.359375 -0.0625 -0.765625 -0.0625q-1.546875 0 -2.0937195 1.3125l0 6.5l-1.5625 0l0 -9.15625l1.515625 0l0.03125 1.0625q0.7655945 -1.234375 2.1874695 -1.234375q0.453125 0 0.6875 0.125l0 1.453125zm5.0776978 7.921875q-1.859375 0 -3.03125 -1.21875q-1.171875 -1.234375 -1.171875 -3.28125l0 -0.28125q0 -1.359375 0.515625 -2.421875q0.53125 -1.078125 1.46875 -1.6875q0.9375 -0.609375 2.015625 -0.609375q1.796875 0 2.78125 1.1875q0.984375 1.171875 0.984375 3.359375l0 0.65625l-6.1875 0q0.03125 1.34375 0.78125 2.1875q0.765625 0.828125 1.921875 0.828125q0.828125 0 1.40625 -0.328125q0.578125 -0.34375 1.015625 -0.90625l0.953125 0.75q-1.15625 1.765625 -3.453125 1.765625zm-0.203125 -8.203125q-0.9375 0 -1.578125 0.6875q-0.640625 0.6875 -0.796875 1.921875l4.578125 0l0 -0.109375q-0.0625 -1.1875 -0.640625 -1.84375q-0.578125 -0.65625 -1.5625 -0.65625zm5.195801 3.375q0 -2.109375 1.0 -3.390625q1.0 -1.28125 2.625 -1.28125q1.609375 0 2.546875 1.109375l0 -4.78125l1.5625 0l0 13.0l-1.4375 0l-0.078125 -0.984375q-0.9375 1.15625 -2.609375 1.15625q-1.59375 0 -2.609375 -1.296875q-1.0 -1.3125 -1.0 -3.40625l0 -0.125zm1.578125 0.1875q0 1.546875 0.640625 2.4375q0.640625 0.875 1.765625 0.875q1.5 0 2.1875 -1.34375l0 -4.203125q-0.703125 -1.296875 -2.15625 -1.296875q-1.15625 0 -1.796875 0.890625q-0.640625 0.890625 -0.640625 2.640625zm10.288086 4.46875l-1.578125 0l0 -9.15625l1.578125 0l0 9.15625zm-1.703125 -11.578125q0 -0.390625 0.234375 -0.640625q0.234375 -0.265625 0.6875 -0.265625q0.46875 0 0.703125 0.265625q0.234375 0.25 0.234375 0.640625q0 0.375 -0.234375 0.640625q-0.234375 0.25 -0.703125 0.25q-0.453125 0 -0.6875 -0.25q-0.234375 -0.265625 -0.234375 -0.640625zm7.877014 10.46875q0.828125 0 1.453125 -0.5q0.640625 -0.515625 0.703125 -1.28125l1.484375 0q-0.046875 0.796875 -0.546875 1.515625q-0.5 0.703125 -1.34375 1.125q-0.828125 0.421875 -1.75 0.421875q-1.875 0 -2.984375 -1.25q-1.09375 -1.25 -1.09375 -3.421875l0 -0.25q0 -1.34375 0.484375 -2.375q0.5 -1.046875 1.40625 -1.625q0.921875 -0.578125 2.171875 -0.578125q1.546875 0 2.5625 0.921875q1.015625 0.921875 1.09375 2.40625l-1.484375 0q-0.0625 -0.890625 -0.671875 -1.453125q-0.609375 -0.578125 -1.5 -0.578125q-1.1875 0 -1.84375 0.859375q-0.65625 0.84375 -0.65625 2.46875l0 0.296875q0 1.59375 0.640625 2.453125q0.65625 0.84375 1.875 0.84375zm11.054565 1.109375q-0.140625 -0.265625 -0.234375 -0.96875q-1.078125 1.140625 -2.59375 1.140625q-1.359375 0 -2.234375 -0.765625q-0.859375 -0.765625 -0.859375 -1.9375q0 -1.4375 1.078125 -2.21875q1.09375 -0.796875 3.0625 -0.796875l1.53125 0l0 -0.71875q0 -0.828125 -0.5 -1.3125q-0.484375 -0.484375 -1.4375 -0.484375q-0.84375 0 -1.40625 0.421875q-0.5625 0.421875 -0.5625 1.03125l-1.578125 0q0 -0.6875 0.484375 -1.328125q0.484375 -0.640625 1.3125 -1.015625q0.84375 -0.375 1.84375 -0.375q1.578125 0 2.46875 0.796875q0.90625 0.796875 0.9375 2.171875l0 4.21875q0 1.265625 0.328125 2.0l0 0.140625l-1.640625 0zm-2.609375 -1.1875q0.734375 0 1.390625 -0.375q0.671875 -0.390625 0.96875 -1.0l0 -1.875l-1.234375 0q-2.875 0 -2.875 1.671875q0 0.75 0.484375 1.171875q0.5 0.40625 1.265625 0.40625zm8.503662 -10.1875l0 2.21875l1.703125 0l0 1.21875l-1.703125 0l0 5.671875q0 0.546875 0.21875 0.828125q0.234375 0.265625 0.78125 0.265625q0.265625 0 0.75 -0.09375l0 1.265625q-0.625 0.171875 -1.203125 0.171875q-1.046875 0 -1.578125 -0.625q-0.53125 -0.640625 -0.53125 -1.8125l0 -5.671875l-1.671875 0l0 -1.21875l1.671875 0l0 -2.21875l1.5625 0zm7.3322754 11.546875q-1.859375 0 -3.03125 -1.21875q-1.171875 -1.234375 -1.171875 -3.28125l0 -0.28125q0 -1.359375 0.515625 -2.421875q0.53125 -1.078125 1.46875 -1.6875q0.9375 -0.609375 2.015625 -0.609375q1.796875 0 2.78125 1.1875q0.984375 1.171875 0.984375 3.359375l0 0.65625l-6.1875 0q0.03125 1.34375 0.78125 2.1875q0.765625 0.828125 1.921875 0.828125q0.828125 0 1.40625 -0.328125q0.578125 -0.34375 1.015625 -0.90625l0.953125 0.75q-1.15625 1.765625 -3.453125 1.765625zm-0.203125 -8.203125q-0.9375 0 -1.578125 0.6875q-0.640625 0.6875 -0.796875 1.921875l4.578125 0l0 -0.109375q-0.0625 -1.1875 -0.640625 -1.84375q-0.578125 -0.65625 -1.5625 -0.65625z" fill-rule="nonzero"/><path fill="#d5a6bd" d="m949.3202 132.87927l157.03943 0l0 42.015747l-157.03943 0z" fill-rule="evenodd"/><path stroke="#000000" stroke-width="1.0" stroke-linejoin="round" stroke-linecap="butt" d="m949.3202 132.87927l157.03943 0l0 42.015747l-157.03943 0z" fill-rule="evenodd"/><path fill="#000000" d="m993.5789 155.30052l-5.15625 0l-1.171875 3.21875l-1.671875 0l4.703125 -12.3125l1.421875 0l4.71875 12.3125l-1.671875 0l-1.171875 -3.21875zm-4.671875 -1.328125l4.1875 0l-2.09375 -5.765625l-2.09375 5.765625zm10.909973 -6.828125l0 2.21875l1.703125 0l0 1.21875l-1.703125 0l0 5.671875q0 0.546875 0.21875 0.828125q0.234375 0.265625 0.78125 0.265625q0.265625 0 0.75 -0.09375l0 1.265625q-0.625 0.171875 -1.203125 0.171875q-1.046875 0 -1.578125 -0.625q-0.53125 -0.640625 -0.53125 -1.8125l0 -5.671875l-1.671875 0l0 -1.21875l1.671875 0l0 -2.21875l1.5625 0zm5.6604614 0l0 2.21875l1.703125 0l0 1.21875l-1.703125 0l0 5.671875q0 0.546875 0.21875 0.828125q0.234375 0.265625 0.78125 0.265625q0.265625 0 0.75 -0.09375l0 1.265625q-0.625 0.171875 -1.203125 0.171875q-1.046875 0 -1.578125 -0.625q-0.53125 -0.640625 -0.53125 -1.8125l0 -5.671875l-1.671875 0l0 -1.21875l1.671875 0l0 -2.21875l1.5625 0zm7.3322754 11.546875q-1.859375 0 -3.03125 -1.21875q-1.171875 -1.234375 -1.171875 -3.28125l0 -0.28125q0 -1.359375 0.515625 -2.421875q0.53125 -1.078125 1.46875 -1.6875q0.9375 -0.609375 2.015625 -0.609375q1.796875 0 2.78125 1.1875q0.984375 1.171875 0.984375 3.359375l0 0.65625l-6.1875 0q0.03125 1.34375 0.78125 2.1875q0.765625 0.828125 1.921875 0.828125q0.828125 0 1.40625 -0.328125q0.578125 -0.34375 1.015625 -0.90625l0.953125 0.75q-1.15625 1.765625 -3.453125 1.765625zm-0.203125 -8.203125q-0.9375 0 -1.578125 0.6875q-0.640625 0.6875 -0.796875 1.921875l4.578125 0l0 -0.109375q-0.0625 -1.1875 -0.640625 -1.84375q-0.578125 -0.65625 -1.5625 -0.65625zm10.914551 5.609375q0 -0.640625 -0.484375 -0.984375q-0.46875 -0.359375 -1.65625 -0.609375q-1.1875 -0.25 -1.890625 -0.609375q-0.703125 -0.359375 -1.046875 -0.84375q-0.328125 -0.5 -0.328125 -1.171875q0 -1.125 0.953125 -1.90625q0.953125 -0.78125 2.4375 -0.78125q1.5625 0 2.531311 0.8125q0.96875 0.796875 0.96875 2.046875l-1.578186 0q0 -0.640625 -0.546875 -1.09375q-0.546875 -0.46875 -1.375 -0.46875q-0.859375 0 -1.34375 0.375q-0.46875 0.359375 -0.46875 0.96875q0 0.5625 0.4375 0.859375q0.453125 0.28125 1.625 0.546875q1.171875 0.25 1.890625 0.625q0.73443604 0.359375 1.078186 0.875q0.359375 0.5 0.359375 1.25q0 1.21875 -0.984375 1.96875q-0.96881104 0.734375 -2.546936 0.734375q-1.09375 0 -1.9375 -0.390625q-0.84375 -0.390625 -1.328125 -1.078125q-0.484375 -0.703125 -0.484375 -1.515625l1.578125 0q0.03125 0.78125 0.625 1.25q0.59375 0.453125 1.546875 0.453125q0.890625 0 1.421875 -0.359375q0.546875 -0.359375 0.546875 -0.953125zm5.7317505 -8.953125l0 2.21875l1.703125 0l0 1.21875l-1.703125 0l0 5.671875q0 0.546875 0.21875 0.828125q0.234375 0.265625 0.78125 0.265625q0.265625 0 0.75 -0.09375l0 1.265625q-0.625 0.171875 -1.203125 0.171875q-1.046875 0 -1.578125 -0.625q-0.53125 -0.640625 -0.53125 -1.8125l0 -5.671875l-1.671875 0l0 -1.21875l1.671875 0l0 -2.21875l1.5625 0zm9.19165 11.375q-0.140625 -0.265625 -0.234375 -0.96875q-1.078125 1.140625 -2.59375 1.140625q-1.359375 0 -2.234375 -0.765625q-0.859375 -0.765625 -0.859375 -1.9375q0 -1.4375 1.078125 -2.21875q1.09375 -0.796875 3.0625 -0.796875l1.53125 0l0 -0.71875q0 -0.828125 -0.5 -1.3125q-0.484375 -0.484375 -1.4375 -0.484375q-0.84375 0 -1.40625 0.421875q-0.5625 0.421875 -0.5625 1.03125l-1.578125 0q0 -0.6875 0.484375 -1.328125q0.484375 -0.640625 1.3125 -1.015625q0.84375 -0.375 1.84375 -0.375q1.578125 0 2.46875 0.796875q0.90625 0.796875 0.9375 2.171875l0 4.21875q0 1.265625 0.328125 2.0l0 0.140625l-1.640625 0zm-2.609375 -1.1875q0.734375 0 1.390625 -0.375q0.671875 -0.390625 0.96875 -1.0l0 -1.875l-1.234375 0q-2.875 0 -2.875 1.671875q0 0.75 0.484375 1.171875q0.5 0.40625 1.265625 0.40625zm8.503662 -10.1875l0 2.21875l1.703125 0l0 1.21875l-1.703125 0l0 5.671875q0 0.546875 0.21875 0.828125q0.234375 0.265625 0.78125 0.265625q0.265625 0 0.75 -0.09375l0 1.265625q-0.625 0.171875 -1.203125 0.171875q-1.046875 0 -1.578125 -0.625q-0.53125 -0.640625 -0.53125 -1.8125l0 -5.671875l-1.671875 0l0 -1.21875l1.671875 0l0 -2.21875l1.5625 0zm5.2385254 11.375l-1.578125 0l0 -9.15625l1.578125 0l0 9.15625zm-1.703125 -11.578125q0 -0.390625 0.234375 -0.640625q0.234375 -0.265625 0.6875 -0.265625q0.46875 0 0.703125 0.265625q0.234375 0.25 0.234375 0.640625q0 0.375 -0.234375 0.640625q-0.234375 0.25 -0.703125 0.25q-0.453125 0 -0.6875 -0.25q-0.234375 -0.265625 -0.234375 -0.640625zm3.7832031 6.921875q0 -1.34375 0.53125 -2.421875q0.53125 -1.078125 1.46875 -1.65625q0.953125 -0.59375 2.15625 -0.59375q1.875 0 3.03125 1.296875q1.15625 1.296875 1.15625 3.453125l0 0.109375q0 1.328125 -0.515625 2.390625q-0.515625 1.0625 -1.46875 1.65625q-0.953125 0.59375 -2.1875 0.59375q-1.859375 0 -3.015625 -1.296875q-1.15625 -1.296875 -1.15625 -3.421875l0 -0.109375zm1.578125 0.1875q0 1.515625 0.703125 2.4375q0.703125 0.921875 1.890625 0.921875q1.203125 0 1.890625 -0.9375q0.703125 -0.9375 0.703125 -2.609375q0 -1.515625 -0.71875 -2.4375q-0.703125 -0.9375 -1.890625 -0.9375q-1.15625 0 -1.875 0.921875q-0.703125 0.921875 -0.703125 2.640625zm10.210571 -4.6875l0.046875 1.15625q1.046875 -1.328125 2.734375 -1.328125q2.90625 0 2.9375 3.28125l0 6.046875l-1.578125 0l0 -6.0625q0 -0.984375 -0.453125 -1.453125q-0.4375 -0.484375 -1.375 -0.484375q-0.765625 0 -1.34375 0.40625q-0.5625 0.40625 -0.890625 1.078125l0 6.515625l-1.5625 0l0 -9.15625l1.484375 0z" fill-rule="nonzero"/><path fill="#d5a6bd" d="m949.3202 180.04199l157.03943 0l0 42.015747l-157.03943 0z" fill-rule="evenodd"/><path stroke="#000000" stroke-width="1.0" stroke-linejoin="round" stroke-linecap="butt" d="m949.3202 180.04199l157.03943 0l0 42.015747l-157.03943 0z" fill-rule="evenodd"/><path fill="#000000" d="m993.5789 202.46324l-5.15625 0l-1.171875 3.21875l-1.671875 0l4.703125 -12.3125l1.421875 0l4.71875 12.3125l-1.671875 0l-1.171875 -3.21875zm-4.671875 -1.328125l4.1875 0l-2.09375 -5.765625l-2.09375 5.765625zm10.909973 -6.828125l0 2.21875l1.703125 0l0 1.21875l-1.703125 0l0 5.671875q0 0.546875 0.21875 0.828125q0.234375 0.265625 0.78125 0.265625q0.265625 0 0.75 -0.09375l0 1.265625q-0.625 0.171875 -1.203125 0.171875q-1.046875 0 -1.578125 -0.625q-0.53125 -0.640625 -0.53125 -1.8125l0 -5.671875l-1.671875 0l0 -1.21875l1.671875 0l0 -2.21875l1.5625 0zm5.6604614 0l0 2.21875l1.703125 0l0 1.21875l-1.703125 0l0 5.671875q0 0.546875 0.21875 0.828125q0.234375 0.265625 0.78125 0.265625q0.265625 0 0.75 -0.09375l0 1.265625q-0.625 0.171875 -1.203125 0.171875q-1.046875 0 -1.578125 -0.625q-0.53125 -0.640625 -0.53125 -1.8125l0 -5.671875l-1.671875 0l0 -1.21875l1.671875 0l0 -2.21875l1.5625 0zm7.3322754 11.546875q-1.859375 0 -3.03125 -1.21875q-1.171875 -1.234375 -1.171875 -3.28125l0 -0.28125q0 -1.359375 0.515625 -2.421875q0.53125 -1.078125 1.46875 -1.6875q0.9375 -0.609375 2.015625 -0.609375q1.796875 0 2.78125 1.1875q0.984375 1.171875 0.984375 3.359375l0 0.65625l-6.1875 0q0.03125 1.34375 0.78125 2.1875q0.765625 0.828125 1.921875 0.828125q0.828125 0 1.40625 -0.328125q0.578125 -0.34375 1.015625 -0.90625l0.953125 0.75q-1.15625 1.765625 -3.453125 1.765625zm-0.203125 -8.203125q-0.9375 0 -1.578125 0.6875q-0.640625 0.6875 -0.796875 1.921875l4.578125 0l0 -0.109375q-0.0625 -1.1875 -0.640625 -1.84375q-0.578125 -0.65625 -1.5625 -0.65625zm10.914551 5.609375q0 -0.640625 -0.484375 -0.984375q-0.46875 -0.359375 -1.65625 -0.609375q-1.1875 -0.25 -1.890625 -0.609375q-0.703125 -0.359375 -1.046875 -0.84375q-0.328125 -0.5 -0.328125 -1.171875q0 -1.125 0.953125 -1.90625q0.953125 -0.78125 2.4375 -0.78125q1.5625 0 2.531311 0.8125q0.96875 0.796875 0.96875 2.046875l-1.578186 0q0 -0.640625 -0.546875 -1.09375q-0.546875 -0.46875 -1.375 -0.46875q-0.859375 0 -1.34375 0.375q-0.46875 0.359375 -0.46875 0.96875q0 0.5625 0.4375 0.859375q0.453125 0.28125 1.625 0.546875q1.171875 0.25 1.890625 0.625q0.73443604 0.359375 1.078186 0.875q0.359375 0.5 0.359375 1.25q0 1.21875 -0.984375 1.96875q-0.96881104 0.734375 -2.546936 0.734375q-1.09375 0 -1.9375 -0.390625q-0.84375 -0.390625 -1.328125 -1.078125q-0.484375 -0.703125 -0.484375 -1.515625l1.578125 0q0.03125 0.78125 0.625 1.25q0.59375 0.453125 1.546875 0.453125q0.890625 0 1.421875 -0.359375q0.546875 -0.359375 0.546875 -0.953125zm5.7317505 -8.953125l0 2.21875l1.703125 0l0 1.21875l-1.703125 0l0 5.671875q0 0.546875 0.21875 0.828125q0.234375 0.265625 0.78125 0.265625q0.265625 0 0.75 -0.09375l0 1.265625q-0.625 0.171875 -1.203125 0.171875q-1.046875 0 -1.578125 -0.625q-0.53125 -0.640625 -0.53125 -1.8125l0 -5.671875l-1.671875 0l0 -1.21875l1.671875 0l0 -2.21875l1.5625 0zm9.19165 11.375q-0.140625 -0.265625 -0.234375 -0.96875q-1.078125 1.140625 -2.59375 1.140625q-1.359375 0 -2.234375 -0.765625q-0.859375 -0.765625 -0.859375 -1.9375q0 -1.4375 1.078125 -2.21875q1.09375 -0.796875 3.0625 -0.796875l1.53125 0l0 -0.71875q0 -0.828125 -0.5 -1.3125q-0.484375 -0.484375 -1.4375 -0.484375q-0.84375 0 -1.40625 0.421875q-0.5625 0.421875 -0.5625 1.03125l-1.578125 0q0 -0.6875 0.484375 -1.328125q0.484375 -0.640625 1.3125 -1.015625q0.84375 -0.375 1.84375 -0.375q1.578125 0 2.46875 0.796875q0.90625 0.796875 0.9375 2.171875l0 4.21875q0 1.265625 0.328125 2.0l0 0.140625l-1.640625 0zm-2.609375 -1.1875q0.734375 0 1.390625 -0.375q0.671875 -0.390625 0.96875 -1.0l0 -1.875l-1.234375 0q-2.875 0 -2.875 1.671875q0 0.75 0.484375 1.171875q0.5 0.40625 1.265625 0.40625zm8.503662 -10.1875l0 2.21875l1.703125 0l0 1.21875l-1.703125 0l0 5.671875q0 0.546875 0.21875 0.828125q0.234375 0.265625 0.78125 0.265625q0.265625 0 0.75 -0.09375l0 1.265625q-0.625 0.171875 -1.203125 0.171875q-1.046875 0 -1.578125 -0.625q-0.53125 -0.640625 -0.53125 -1.8125l0 -5.671875l-1.671875 0l0 -1.21875l1.671875 0l0 -2.21875l1.5625 0zm5.2385254 11.375l-1.578125 0l0 -9.15625l1.578125 0l0 9.15625zm-1.703125 -11.578125q0 -0.390625 0.234375 -0.640625q0.234375 -0.265625 0.6875 -0.265625q0.46875 0 0.703125 0.265625q0.234375 0.25 0.234375 0.640625q0 0.375 -0.234375 0.640625q-0.234375 0.25 -0.703125 0.25q-0.453125 0 -0.6875 -0.25q-0.234375 -0.265625 -0.234375 -0.640625zm3.7832031 6.921875q0 -1.34375 0.53125 -2.421875q0.53125 -1.078125 1.46875 -1.65625q0.953125 -0.59375 2.15625 -0.59375q1.875 0 3.03125 1.296875q1.15625 1.296875 1.15625 3.453125l0 0.109375q0 1.328125 -0.515625 2.390625q-0.515625 1.0625 -1.46875 1.65625q-0.953125 0.59375 -2.1875 0.59375q-1.859375 0 -3.015625 -1.296875q-1.15625 -1.296875 -1.15625 -3.421875l0 -0.109375zm1.578125 0.1875q0 1.515625 0.703125 2.4375q0.703125 0.921875 1.890625 0.921875q1.203125 0 1.890625 -0.9375q0.703125 -0.9375 0.703125 -2.609375q0 -1.515625 -0.71875 -2.4375q-0.703125 -0.9375 -1.890625 -0.9375q-1.15625 0 -1.875 0.921875q-0.703125 0.921875 -0.703125 2.640625zm10.210571 -4.6875l0.046875 1.15625q1.046875 -1.328125 2.734375 -1.328125q2.90625 0 2.9375 3.28125l0 6.046875l-1.578125 0l0 -6.0625q0 -0.984375 -0.453125 -1.453125q-0.4375 -0.484375 -1.375 -0.484375q-0.765625 0 -1.34375 0.40625q-0.5625 0.40625 -0.890625 1.078125l0 6.515625l-1.5625 0l0 -9.15625l1.484375 0z" fill-rule="nonzero"/><path fill="#d5a6bd" d="m949.3202 227.20473l157.03943 0l0 42.01573l-157.03943 0z" fill-rule="evenodd"/><path stroke="#000000" stroke-width="1.0" stroke-linejoin="round" stroke-linecap="butt" d="m949.3202 227.20473l157.03943 0l0 42.01573l-157.03943 0z" fill-rule="evenodd"/><path fill="#000000" d="m993.5789 249.62598l-5.15625 0l-1.171875 3.21875l-1.671875 0l4.703125 -12.3125l1.421875 0l4.71875 12.3125l-1.671875 0l-1.171875 -3.21875zm-4.671875 -1.328125l4.1875 0l-2.09375 -5.765625l-2.09375 5.765625zm10.909973 -6.828125l0 2.21875l1.703125 0l0 1.21875l-1.703125 0l0 5.671875q0 0.546875 0.21875 0.828125q0.234375 0.265625 0.78125 0.265625q0.265625 0 0.75 -0.09375l0 1.265625q-0.625 0.171875 -1.203125 0.171875q-1.046875 0 -1.578125 -0.625q-0.53125 -0.640625 -0.53125 -1.8125l0 -5.671875l-1.671875 0l0 -1.21875l1.671875 0l0 -2.21875l1.5625 0zm5.6604614 0l0 2.21875l1.703125 0l0 1.21875l-1.703125 0l0 5.671875q0 0.546875 0.21875 0.828125q0.234375 0.265625 0.78125 0.265625q0.265625 0 0.75 -0.09375l0 1.265625q-0.625 0.171875 -1.203125 0.171875q-1.046875 0 -1.578125 -0.625q-0.53125 -0.640625 -0.53125 -1.8125l0 -5.671875l-1.671875 0l0 -1.21875l1.671875 0l0 -2.21875l1.5625 0zm7.3322754 11.546875q-1.859375 0 -3.03125 -1.21875q-1.171875 -1.234375 -1.171875 -3.28125l0 -0.28125q0 -1.359375 0.515625 -2.421875q0.53125 -1.078125 1.46875 -1.6875q0.9375 -0.609375 2.015625 -0.609375q1.796875 0 2.78125 1.1875q0.984375 1.171875 0.984375 3.359375l0 0.65625l-6.1875 0q0.03125 1.34375 0.78125 2.1875q0.765625 0.828125 1.921875 0.828125q0.828125 0 1.40625 -0.328125q0.578125 -0.34375 1.015625 -0.90625l0.953125 0.75q-1.15625 1.765625 -3.453125 1.765625zm-0.203125 -8.203125q-0.9375 0 -1.578125 0.6875q-0.640625 0.6875 -0.796875 1.921875l4.578125 0l0 -0.109375q-0.0625 -1.1875 -0.640625 -1.84375q-0.578125 -0.65625 -1.5625 -0.65625zm10.914551 5.609375q0 -0.640625 -0.484375 -0.984375q-0.46875 -0.359375 -1.65625 -0.609375q-1.1875 -0.25 -1.890625 -0.609375q-0.703125 -0.359375 -1.046875 -0.84375q-0.328125 -0.5 -0.328125 -1.171875q0 -1.125 0.953125 -1.90625q0.953125 -0.78125 2.4375 -0.78125q1.5625 0 2.531311 0.8125q0.96875 0.796875 0.96875 2.046875l-1.578186 0q0 -0.640625 -0.546875 -1.09375q-0.546875 -0.46875 -1.375 -0.46875q-0.859375 0 -1.34375 0.375q-0.46875 0.359375 -0.46875 0.96875q0 0.5625 0.4375 0.859375q0.453125 0.28125 1.625 0.546875q1.171875 0.25 1.890625 0.625q0.73443604 0.359375 1.078186 0.875q0.359375 0.5 0.359375 1.25q0 1.21875 -0.984375 1.96875q-0.96881104 0.734375 -2.546936 0.734375q-1.09375 0 -1.9375 -0.390625q-0.84375 -0.390625 -1.328125 -1.078125q-0.484375 -0.703125 -0.484375 -1.515625l1.578125 0q0.03125 0.78125 0.625 1.25q0.59375 0.453125 1.546875 0.453125q0.890625 0 1.421875 -0.359375q0.546875 -0.359375 0.546875 -0.953125zm5.7317505 -8.953125l0 2.21875l1.703125 0l0 1.21875l-1.703125 0l0 5.671875q0 0.546875 0.21875 0.828125q0.234375 0.265625 0.78125 0.265625q0.265625 0 0.75 -0.09375l0 1.265625q-0.625 0.171875 -1.203125 0.171875q-1.046875 0 -1.578125 -0.625q-0.53125 -0.640625 -0.53125 -1.8125l0 -5.671875l-1.671875 0l0 -1.21875l1.671875 0l0 -2.21875l1.5625 0zm9.19165 11.375q-0.140625 -0.265625 -0.234375 -0.96875q-1.078125 1.140625 -2.59375 1.140625q-1.359375 0 -2.234375 -0.765625q-0.859375 -0.765625 -0.859375 -1.9375q0 -1.4375 1.078125 -2.21875q1.09375 -0.796875 3.0625 -0.796875l1.53125 0l0 -0.71875q0 -0.828125 -0.5 -1.3125q-0.484375 -0.484375 -1.4375 -0.484375q-0.84375 0 -1.40625 0.421875q-0.5625 0.421875 -0.5625 1.03125l-1.578125 0q0 -0.6875 0.484375 -1.328125q0.484375 -0.640625 1.3125 -1.015625q0.84375 -0.375 1.84375 -0.375q1.578125 0 2.46875 0.796875q0.90625 0.796875 0.9375 2.171875l0 4.21875q0 1.265625 0.328125 2.0l0 0.140625l-1.640625 0zm-2.609375 -1.1875q0.734375 0 1.390625 -0.375q0.671875 -0.390625 0.96875 -1.0l0 -1.875l-1.234375 0q-2.875 0 -2.875 1.671875q0 0.75 0.484375 1.171875q0.5 0.40625 1.265625 0.40625zm8.503662 -10.1875l0 2.21875l1.703125 0l0 1.21875l-1.703125 0l0 5.671875q0 0.546875 0.21875 0.828125q0.234375 0.265625 0.78125 0.265625q0.265625 0 0.75 -0.09375l0 1.265625q-0.625 0.171875 -1.203125 0.171875q-1.046875 0 -1.578125 -0.625q-0.53125 -0.640625 -0.53125 -1.8125l0 -5.671875l-1.671875 0l0 -1.21875l1.671875 0l0 -2.21875l1.5625 0zm5.2385254 11.375l-1.578125 0l0 -9.15625l1.578125 0l0 9.15625zm-1.703125 -11.578125q0 -0.390625 0.234375 -0.640625q0.234375 -0.265625 0.6875 -0.265625q0.46875 0 0.703125 0.265625q0.234375 0.25 0.234375 0.640625q0 0.375 -0.234375 0.640625q-0.234375 0.25 -0.703125 0.25q-0.453125 0 -0.6875 -0.25q-0.234375 -0.265625 -0.234375 -0.640625zm3.7832031 6.921875q0 -1.34375 0.53125 -2.421875q0.53125 -1.078125 1.46875 -1.65625q0.953125 -0.59375 2.15625 -0.59375q1.875 0 3.03125 1.296875q1.15625 1.296875 1.15625 3.453125l0 0.109375q0 1.328125 -0.515625 2.390625q-0.515625 1.0625 -1.46875 1.65625q-0.953125 0.59375 -2.1875 0.59375q-1.859375 0 -3.015625 -1.296875q-1.15625 -1.296875 -1.15625 -3.421875l0 -0.109375zm1.578125 0.1875q0 1.515625 0.703125 2.4375q0.703125 0.921875 1.890625 0.921875q1.203125 0 1.890625 -0.9375q0.703125 -0.9375 0.703125 -2.609375q0 -1.515625 -0.71875 -2.4375q-0.703125 -0.9375 -1.890625 -0.9375q-1.15625 0 -1.875 0.921875q-0.703125 0.921875 -0.703125 2.640625zm10.210571 -4.6875l0.046875 1.15625q1.046875 -1.328125 2.734375 -1.328125q2.90625 0 2.9375 3.28125l0 6.046875l-1.578125 0l0 -6.0625q0 -0.984375 -0.453125 -1.453125q-0.4375 -0.484375 -1.375 -0.484375q-0.765625 0 -1.34375 0.40625q-0.5625 0.40625 -0.890625 1.078125l0 6.515625l-1.5625 0l0 -9.15625l1.484375 0z" fill-rule="nonzero"/><path fill="#000000" fill-opacity="0.0" d="m884.9869 72.3832l66.236206 59.212593" fill-rule="evenodd"/><path stroke="#000000" stroke-width="1.0" stroke-linejoin="round" stroke-linecap="butt" stroke-dasharray="1.0,3.0" d="m884.9869 72.3832l66.236206 59.212593" fill-rule="evenodd"/><path fill="#000000" fill-opacity="0.0" d="m884.2887 313.08398l66.92914 -140.37794" fill-rule="evenodd"/><path stroke="#000000" stroke-width="1.0" stroke-linejoin="round" stroke-linecap="butt" stroke-dasharray="1.0,3.0" d="m884.2887 313.08398l66.92914 -140.37794" fill-rule="evenodd"/><path fill="#f3f3f3" d="m13.2021 115.367455l171.37007 0l0 42.015755l-171.37007 0z" fill-rule="evenodd"/><path stroke="#000000" stroke-width="1.0" stroke-linejoin="round" stroke-linecap="butt" d="m13.2021 115.367455l171.37007 0l0 42.015755l-171.37007 0z" fill-rule="evenodd"/><path fill="#000000" d="m78.3075 137.7887l-5.15625 0l-1.171875 3.21875l-1.671875 0l4.703125 -12.3125l1.421875 0l4.71875 12.3125l-1.671875 0l-1.171875 -3.21875zm-4.671875 -1.328125l4.1875 0l-2.09375 -5.765625l-2.09375 5.765625zm13.350769 -3.203125q-0.359375 -0.0625 -0.765625 -0.0625q-1.546875 0 -2.09375 1.3125l0 6.5l-1.5625 0l0 -9.15625l1.515625 0l0.03125 1.0625q0.765625 -1.234375 2.1875 -1.234375q0.453125 0 0.6875 0.125l0 1.453125zm3.9897766 -3.625l0 2.21875l1.703125 0l0 1.21875l-1.703125 0l0 5.671875q0 0.546875 0.21875 0.828125q0.234375 0.265625 0.78125 0.265625q0.265625 0 0.75 -0.09375l0 1.265625q-0.625 0.171875 -1.203125 0.171875q-1.046875 0 -1.578125 -0.625q-0.53125 -0.640625 -0.53125 -1.8125l0 -5.671875l-1.671875 0l0 -1.21875l1.671875 0l0 -2.21875l1.5625 0zm5.2385406 11.375l-1.578125 0l0 -9.15625l1.578125 0l0 9.15625zm-1.703125 -11.578125q0 -0.390625 0.234375 -0.640625q0.234375 -0.265625 0.6875 -0.265625q0.46875 0 0.703125 0.265625q0.234375 0.25 0.234375 0.640625q0 0.375 -0.234375 0.640625q-0.234375 0.25 -0.703125 0.25q-0.453125 0 -0.6875 -0.25q-0.234375 -0.265625 -0.234375 -0.640625zm4.970749 11.578125l0 -7.9375l-1.453125 0l0 -1.21875l1.453125 0l0 -0.9375q0 -1.46875 0.78125 -2.265625q0.796875 -0.8124924 2.234375 -0.8124924q0.546875 0 1.078125 0.140625l-0.09375 1.2656174q-0.390625 -0.078125 -0.84375 -0.078125q-0.765625 0 -1.1875 0.453125q-0.40625 0.4375 -0.40625 1.265625l0 0.96875l1.953125 0l0 1.21875l-1.953125 0l0 7.9375l-1.5625 0zm10.906403 0q-0.140625 -0.265625 -0.234375 -0.96875q-1.078125 1.140625 -2.59375 1.140625q-1.359375 0 -2.234375 -0.765625q-0.859375 -0.765625 -0.859375 -1.9375q0 -1.4375 1.078125 -2.21875q1.09375 -0.796875 3.0625 -0.796875l1.53125 0l0 -0.71875q0 -0.828125 -0.5 -1.3125q-0.484375 -0.484375 -1.4375 -0.484375q-0.84375 0 -1.40625 0.421875q-0.5625 0.421875 -0.5625 1.03125l-1.578125 0q0 -0.6875 0.484375 -1.328125q0.484375 -0.640625 1.3125 -1.015625q0.84375 -0.375 1.84375 -0.375q1.578125 0 2.46875 0.796875q0.90625 0.796875 0.9375 2.171875l0 4.21875q0 1.265625 0.328125 2.0l0 0.140625l-1.640625 0zm-2.609375 -1.1875q0.734375 0 1.390625 -0.375q0.671875 -0.390625 0.96875 -1.0l0 -1.875l-1.234375 0q-2.875 0 -2.875 1.671875q0 0.75 0.484375 1.171875q0.5 0.40625 1.265625 0.40625zm10.050552 0.078125q0.828125 0 1.453125 -0.5q0.640625 -0.515625 0.703125 -1.28125l1.484375 0q-0.046875 0.796875 -0.546875 1.515625q-0.5 0.703125 -1.34375 1.125q-0.828125 0.421875 -1.75 0.421875q-1.875 0 -2.984375 -1.25q-1.09375 -1.25 -1.09375 -3.421875l0 -0.25q0 -1.34375 0.484375 -2.375q0.5 -1.046875 1.40625 -1.625q0.921875 -0.578125 2.171875 -0.578125q1.546875 0 2.5625 0.921875q1.015625 0.921875 1.09375 2.40625l-1.484375 0q-0.0625 -0.890625 -0.671875 -1.453125q-0.609375 -0.578125 -1.5 -0.578125q-1.1875 0 -1.84375 0.859375q-0.65625 0.84375 -0.65625 2.46875l0 0.296875q0 1.59375 0.640625 2.453125q0.65625 0.84375 1.875 0.84375zm7.5233154 -10.265625l0 2.21875l1.703125 0l0 1.21875l-1.703125 0l0 5.671875q0 0.546875 0.21875 0.828125q0.234375 0.265625 0.78125 0.265625q0.265625 0 0.75 -0.09375l0 1.265625q-0.625 0.171875 -1.203125 0.171875q-1.046875 0 -1.578125 -0.625q-0.53125 -0.640625 -0.53125 -1.8125l0 -5.671875l-1.671875 0l0 -1.21875l1.671875 0l0 -2.21875l1.5625 0z" fill-rule="nonzero"/><path fill="#ffe599" d="m449.09448 115.36614l171.37006 0l0 42.015755l-171.37006 0z" fill-rule="evenodd"/><path stroke="#000000" stroke-width="1.0" stroke-linejoin="round" stroke-linecap="butt" d="m449.09448 115.36614l171.37006 0l0 42.015755l-171.37006 0z" fill-rule="evenodd"/><path fill="#000000" d="m511.04077 135.52176q-2.09375 -0.609375 -3.046875 -1.484375q-0.953125 -0.875 -0.953125 -2.15625q0 -1.453125 1.15625 -2.40625q1.171875 -0.953125 3.03125 -0.953125q1.265625 0 2.265625 0.5q1.0 0.484375 1.546875 1.34375q0.546875 0.859375 0.546875 1.890625l-1.640625 0q0 -1.125 -0.71875 -1.765625q-0.703125 -0.640625 -2.0 -0.640625q-1.203125 0 -1.875 0.53125q-0.671875 0.53125 -0.671875 1.46875q0 0.75 0.640625 1.28125q0.640625 0.515625 2.171875 0.953125q1.546875 0.421875 2.40625 0.953125q0.875 0.515625 1.28125 1.21875q0.421875 0.6875 0.421875 1.625q0 1.484375 -1.171875 2.390625q-1.15625 0.90625 -3.109375 0.90625q-1.28125 0 -2.375 -0.484375q-1.09375 -0.484375 -1.703125 -1.328125q-0.59375 -0.859375 -0.59375 -1.9375l1.640625 0q0 1.125 0.8125 1.78125q0.828125 0.640625 2.21875 0.640625q1.28125 0 1.96875 -0.515625q0.6875 -0.53125 0.6875 -1.4375q0 -0.90625 -0.640625 -1.40625q-0.640625 -0.5 -2.296875 -0.96875zm12.06134 4.578125q-0.921875 1.078125 -2.6875 1.078125q-1.46875 0 -2.234375 -0.84375q-0.765625 -0.859375 -0.765625 -2.53125l0 -5.953125l1.5625 0l0 5.921875q0 2.078125 1.6875 2.078125q1.796875 0 2.390625 -1.34375l0 -6.65625l1.5625 0l0 9.15625l-1.484375 0l-0.03125 -0.90625zm11.64624 -3.5625q0 2.09375 -0.96875 3.375q-0.96875 1.265625 -2.59375 1.265625q-1.734375 0 -2.671875 -1.234375l-0.078125 1.0625l-1.4375 0l0 -13.0l1.5625 0l0 4.859375q0.953125 -1.1875 2.609375 -1.1875q1.671875 0 2.625 1.265625q0.953125 1.265625 0.953125 3.453125l0 0.140625zm-1.5625 -0.1875q0 -1.59375 -0.625 -2.46875q-0.609375 -0.875 -1.78125 -0.875q-1.546875 0 -2.21875 1.4375l0 3.96875q0.71875 1.4375 2.234375 1.4375q1.140625 0 1.765625 -0.875q0.625 -0.875 0.625 -2.625zm5.1435547 -4.5l0 10.21875q0 2.640625 -2.390625 2.640625q-0.515625 0 -0.953125 -0.15625l0 -1.25q0.265625 0.0625 0.703125 0.0625q0.53125 0 0.796875 -0.28125q0.28125 -0.28125 0.28125 -0.984375l0 -10.25l1.5625 0zm-1.71875 -2.421875q0 -0.375 0.234375 -0.640625q0.234375 -0.265625 0.671875 -0.265625q0.453125 0 0.6875 0.265625q0.25 0.25 0.25 0.640625q0 0.375 -0.25 0.640625q-0.234375 0.25 -0.6875 0.25q-0.453125 0 -0.6875 -0.25q-0.21875 -0.265625 -0.21875 -0.640625zm8.043701 11.75q-1.859375 0 -3.03125 -1.21875q-1.171875 -1.234375 -1.171875 -3.28125l0 -0.28125q0 -1.359375 0.515625 -2.421875q0.53125 -1.078125 1.46875 -1.6875q0.9375 -0.609375 2.015625 -0.609375q1.796875 0 2.78125 1.1875q0.984375 1.171875 0.984375 3.359375l0 0.65625l-6.1875 0q0.03125 1.34375 0.78125 2.1875q0.765625 0.828125 1.921875 0.828125q0.828125 0 1.40625 -0.328125q0.578125 -0.34375 1.015625 -0.90625l0.953125 0.75q-1.15625 1.765625 -3.453125 1.765625zm-0.203125 -8.203125q-0.9375 0 -1.578125 0.6875q-0.640625 0.6875 -0.796875 1.921875l4.578125 0l0 -0.109375q-0.0625 -1.1875 -0.640625 -1.84375q-0.578125 -0.65625 -1.5625 -0.65625zm9.258301 6.921875q0.828125 0 1.453125 -0.5q0.640625 -0.515625 0.703125 -1.28125l1.484375 0q-0.046875 0.796875 -0.546875 1.515625q-0.5 0.703125 -1.34375 1.125q-0.828125 0.421875 -1.75 0.421875q-1.875 0 -2.984375 -1.25q-1.09375 -1.25 -1.09375 -3.421875l0 -0.25q0 -1.34375 0.484375 -2.375q0.5 -1.046875 1.40625 -1.625q0.921875 -0.578125 2.171875 -0.578125q1.546875 0 2.5625 0.921875q1.015625 0.921875 1.09375 2.40625l-1.484375 0q-0.0625 -0.890625 -0.671875 -1.453125q-0.609375 -0.578125 -1.5 -0.578125q-1.1875 0 -1.84375 0.859375q-0.65625 0.84375 -0.65625 2.46875l0 0.296875q0 1.59375 0.640625 2.453125q0.65625 0.84375 1.875 0.84375zm7.5233154 -10.265625l0 2.21875l1.703125 0l0 1.21875l-1.703125 0l0 5.671875q0 0.546875 0.21875 0.828125q0.234375 0.265625 0.78125 0.265625q0.265625 0 0.75 -0.09375l0 1.265625q-0.625 0.171875 -1.203125 0.171875q-1.046875 0 -1.578125 -0.625q-0.53125 -0.640625 -0.53125 -1.8125l0 -5.671875l-1.671875 0l0 -1.21875l1.671875 0l0 -2.21875l1.5625 0z" fill-rule="nonzero"/><path fill="#000000" fill-opacity="0.0" d="m478.57742 135.09842l-319.1181 0" fill-rule="evenodd"/><path stroke="#000000" stroke-width="1.0" stroke-linejoin="round" stroke-linecap="butt" stroke-dasharray="4.0,3.0" d="m478.57742 135.09842l-313.1181 0" fill-rule="evenodd"/><path fill="#000000" stroke="#000000" stroke-width="1.0" stroke-linecap="butt" d="m165.45932 133.44669l-4.538101 1.6517334l4.538101 1.6517334z" fill-rule="evenodd"/><path fill="#b6d7a8" d="m686.4278 115.367935l188.40948 0l0 141.41731l-188.40948 0z" fill-rule="evenodd"/><path stroke="#000000" stroke-width="1.0" stroke-linejoin="round" stroke-linecap="butt" d="m686.4278 115.367935l188.40948 0l0 141.41731l-188.40948 0z" fill-rule="evenodd"/><path fill="#000000" d="m748.911 128.69543l4.03125 10.046875l4.015625 -10.046875l2.109375 0l0 12.3125l-1.625 0l0 -4.796875l0.15625 -5.171875l-4.046875 9.96875l-1.25 0l-4.03125 -9.953125l0.15625 5.15625l0 4.796875l-1.609375 0l0 -12.3125l2.09375 0zm16.58142 12.484375q-1.859375 0 -3.03125 -1.21875q-1.171875 -1.234375 -1.171875 -3.28125l0 -0.28125q0 -1.359375 0.515625 -2.421875q0.53125 -1.078125 1.46875 -1.6875q0.9375 -0.609375 2.015625 -0.609375q1.796875 0 2.78125 1.1875q0.984375 1.171875 0.984375 3.359375l0 0.65625l-6.1875 0q0.03125 1.34375 0.78125 2.1875q0.765625 0.828125 1.921875 0.828125q0.828125 0 1.40625 -0.328125q0.578125 -0.34375 1.015625 -0.90625l0.953125 0.75q-1.15625 1.765625 -3.453125 1.765625zm-0.203125 -8.203125q-0.9375 0 -1.578125 0.6875q-0.640625 0.6875 -0.796875 1.921875l4.578125 0l0 -0.109375q-0.0625 -1.1875 -0.640625 -1.84375q-0.578125 -0.65625 -1.5625 -0.65625zm10.914551 5.609375q0 -0.640625 -0.484375 -0.984375q-0.46875 -0.359375 -1.65625 -0.609375q-1.1875 -0.25 -1.890625 -0.609375q-0.703125 -0.359375 -1.046875 -0.84375q-0.328125 -0.5 -0.328125 -1.171875q0 -1.125 0.953125 -1.90625q0.953125 -0.78125 2.4375 -0.78125q1.5625 0 2.53125 0.8125q0.96875 0.796875 0.96875 2.046875l-1.578125 0q0 -0.640625 -0.546875 -1.09375q-0.546875 -0.46875 -1.375 -0.46875q-0.859375 0 -1.34375 0.375q-0.46875 0.359375 -0.46875 0.96875q0 0.5625 0.4375 0.859375q0.453125 0.28125 1.625 0.546875q1.171875 0.25 1.890625 0.625q0.734375 0.359375 1.078125 0.875q0.359375 0.5 0.359375 1.25q0 1.21875 -0.984375 1.96875q-0.96875 0.734375 -2.546875 0.734375q-1.09375 0 -1.9375 -0.390625q-0.84375 -0.390625 -1.328125 -1.078125q-0.484375 -0.703125 -0.484375 -1.515625l1.578125 0q0.03125 0.78125 0.625 1.25q0.59375 0.453125 1.546875 0.453125q0.890625 0 1.421875 -0.359375q0.546875 -0.359375 0.546875 -0.953125zm8.934814 0q0 -0.640625 -0.484375 -0.984375q-0.46875 -0.359375 -1.65625 -0.609375q-1.1875 -0.25 -1.890625 -0.609375q-0.703125 -0.359375 -1.046875 -0.84375q-0.328125 -0.5 -0.328125 -1.171875q0 -1.125 0.953125 -1.90625q0.953125 -0.78125 2.4375 -0.78125q1.5625 0 2.53125 0.8125q0.96875 0.796875 0.96875 2.046875l-1.578125 0q0 -0.640625 -0.546875 -1.09375q-0.546875 -0.46875 -1.375 -0.46875q-0.859375 0 -1.34375 0.375q-0.46875 0.359375 -0.46875 0.96875q0 0.5625 0.4375 0.859375q0.453125 0.28125 1.625 0.546875q1.171875 0.25 1.890625 0.625q0.734375 0.359375 1.078125 0.875q0.359375 0.5 0.359375 1.25q0 1.21875 -0.984375 1.96875q-0.96875 0.734375 -2.546875 0.734375q-1.09375 0 -1.9375 -0.390625q-0.84375 -0.390625 -1.328125 -1.078125q-0.484375 -0.703125 -0.484375 -1.515625l1.578125 0q0.03125 0.78125 0.625 1.25q0.59375 0.453125 1.546875 0.453125q0.890625 0 1.421875 -0.359375q0.546875 -0.359375 0.546875 -0.953125zm9.262939 2.421875q-0.140625 -0.265625 -0.234375 -0.96875q-1.078125 1.140625 -2.59375 1.140625q-1.359375 0 -2.234375 -0.765625q-0.859375 -0.765625 -0.859375 -1.9375q0 -1.4375 1.078125 -2.21875q1.09375 -0.796875 3.0625 -0.796875l1.53125 0l0 -0.71875q0 -0.828125 -0.5 -1.3125q-0.484375 -0.484375 -1.4375 -0.484375q-0.84375 0 -1.40625 0.421875q-0.5625 0.421875 -0.5625 1.03125l-1.578125 0q0 -0.6875 0.484375 -1.328125q0.484375 -0.640625 1.3125 -1.015625q0.84375 -0.375 1.84375 -0.375q1.578125 0 2.46875 0.796875q0.90625 0.796875 0.9375 2.171875l0 4.21875q0 1.265625 0.328125 2.0l0 0.140625l-1.640625 0zm-2.609375 -1.1875q0.734375 0 1.390625 -0.375q0.671875 -0.390625 0.96875 -1.0l0 -1.875l-1.234375 0q-2.875 0 -2.875 1.671875q0 0.75 0.484375 1.171875q0.5 0.40625 1.265625 0.40625zm6.003662 -3.46875q0 -2.140625 0.984375 -3.40625q1.0 -1.265625 2.625 -1.265625q1.671875 0 2.625 1.1875l0.0625 -1.015625l1.4375 0l0 8.9375q0 1.78125 -1.0625 2.796875q-1.046875 1.03125 -2.828125 1.03125q-0.984375 0 -1.9375 -0.421875q-0.9375 -0.421875 -1.4375 -1.171875l0.8125 -0.9375q1.0 1.25 2.453125 1.25q1.140625 0 1.78125 -0.640625q0.640625 -0.640625 0.640625 -1.8125l0 -0.78125q-0.9375 1.078125 -2.5625 1.078125q-1.609375 0 -2.609375 -1.296875q-0.984375 -1.296875 -0.984375 -3.53125zm1.578125 0.1875q0 1.546875 0.625 2.4375q0.640625 0.875 1.78125 0.875q1.484375 0 2.171875 -1.34375l0 -4.1875q-0.71875 -1.3125 -2.15625 -1.3125q-1.140625 0 -1.78125 0.890625q-0.640625 0.890625 -0.640625 2.640625zm12.315491 4.640625q-1.859375 0 -3.03125 -1.21875q-1.171875 -1.234375 -1.171875 -3.28125l0 -0.28125q0 -1.359375 0.515625 -2.421875q0.53125 -1.078125 1.46875 -1.6875q0.9375 -0.609375 2.015625 -0.609375q1.796875 0 2.78125 1.1875q0.984375 1.171875 0.984375 3.359375l0 0.65625l-6.1875 0q0.03125 1.34375 0.78125 2.1875q0.765625 0.828125 1.921875 0.828125q0.828125 0 1.40625 -0.328125q0.578125 -0.34375 1.015625 -0.90625l0.953125 0.75q-1.15625 1.765625 -3.453125 1.765625zm-0.203125 -8.203125q-0.9375 0 -1.578125 0.6875q-0.640625 0.6875 -0.796875 1.921875l4.578125 0l0 -0.109375q-0.0625 -1.1875 -0.640625 -1.84375q-0.578125 -0.65625 -1.5625 -0.65625z" fill-rule="nonzero"/><path fill="#000000" fill-opacity="0.0" d="m228.58005 60.115486c0 -6.8274574 5.5347595 -12.3622055 12.362213 -12.3622055l301.9685 0c6.8274536 0 12.362183 -5.534748 12.362183 -12.3622055l0 0c0 6.8274574 5.53479 12.3622055 12.362244 12.3622055l301.9685 0l0 0c6.8274536 0 12.362183 5.534748 12.362183 12.3622055z" fill-rule="evenodd"/><path fill="#000000" fill-opacity="0.0" d="m228.58005 60.115486c0 -6.8274574 5.5347595 -12.3622055 12.362213 -12.3622055l301.9685 0c6.8274536 0 12.362183 -5.534748 12.362183 -12.3622055l0 0c0 6.8274574 5.53479 12.3622055 12.362244 12.3622055l301.9685 0l0 0c6.8274536 0 12.362183 5.534748 12.362183 12.3622055" fill-rule="evenodd"/><path stroke="#000000" stroke-width="1.0" stroke-linejoin="round" stroke-linecap="butt" d="m228.58005 60.115486c0 -6.8274574 5.5347595 -12.3622055 12.362213 -12.3622055l301.9685 0c6.8274536 0 12.362183 -5.534748 12.362183 -12.3622055l0 0c0 6.8274574 5.53479 12.3622055 12.362244 12.3622055l301.9685 0l0 0c6.8274536 0 12.362183 5.534748 12.362183 12.3622055" fill-rule="evenodd"/><path fill="#000000" fill-opacity="0.0" d="m630.68634 72.62205l55.055115 43.086617" fill-rule="evenodd"/><path stroke="#000000" stroke-width="1.0" stroke-linejoin="round" stroke-linecap="butt" stroke-dasharray="1.0,3.0" d="m630.68634 72.62205l55.055115 43.086617" fill-rule="evenodd"/><path fill="#000000" fill-opacity="0.0" d="m630.60895 313.98163l56.69287 -55.968506" fill-rule="evenodd"/><path stroke="#000000" stroke-width="1.0" stroke-linejoin="round" stroke-linecap="butt" stroke-dasharray="1.0,3.0" d="m630.60895 313.98163l56.69287 -55.968506" fill-rule="evenodd"/><path fill="#cfe2f3" d="m228.5853 157.38321l171.37009 0l0 155.52756l-171.37009 0z" fill-rule="evenodd"/><path stroke="#000000" stroke-width="1.0" stroke-linejoin="round" stroke-linecap="butt" d="m228.5853 157.38321l171.37009 0l0 155.52756l-171.37009 0z" fill-rule="evenodd"/><path fill="#000000" d="m280.75302 178.19508l0 4.828125l-1.609375 0l0 -12.3125l4.53125 0q2.03125 0 3.171875 1.03125q1.140625 1.03125 1.140625 2.734375q0 1.78125 -1.125 2.75q-1.109375 0.96875 -3.203125 0.96875l-2.90625 0zm0 -1.328125l2.921875 0q1.3125 0 2.0 -0.609375q0.703125 -0.609375 0.703125 -1.765625q0 -1.109375 -0.703125 -1.765625q-0.6875 -0.65625 -1.90625 -0.6875l-3.015625 0l0 4.828125zm13.49411 -1.59375q-0.359375 -0.0625 -0.765625 -0.0625q-1.546875 0 -2.09375 1.3125l0 6.5l-1.5625 0l0 -9.15625l1.515625 0l0.03125 1.0625q0.765625 -1.234375 2.1875 -1.234375q0.453125 0 0.6875 0.125l0 1.453125zm5.077667 7.921875q-1.859375 0 -3.03125 -1.21875q-1.171875 -1.234375 -1.171875 -3.28125l0 -0.28125q0 -1.359375 0.515625 -2.421875q0.53125 -1.078125 1.46875 -1.6875q0.9375 -0.609375 2.015625 -0.609375q1.796875 0 2.78125 1.1875q0.984375 1.171875 0.984375 3.359375l0 0.65625l-6.1875 0q0.03125 1.34375 0.78125 2.1875q0.765625 0.828125 1.921875 0.828125q0.828125 0 1.40625 -0.328125q0.578125 -0.34375 1.015625 -0.90625l0.953125 0.75q-1.15625 1.765625 -3.453125 1.765625zm-0.203125 -8.203125q-0.9375 0 -1.578125 0.6875q-0.640625 0.6875 -0.796875 1.921875l4.578125 0l0 -0.109375q-0.0625 -1.1875 -0.640625 -1.84375q-0.578125 -0.65625 -1.5625 -0.65625zm5.195801 3.375q0 -2.109375 1.0 -3.390625q1.0 -1.28125 2.625 -1.28125q1.609375 0 2.546875 1.109375l0 -4.78125l1.5625 0l0 13.0l-1.4375 0l-0.078125 -0.984375q-0.9375 1.15625 -2.609375 1.15625q-1.59375 0 -2.609375 -1.296875q-1.0 -1.3125 -1.0 -3.40625l0 -0.125zm1.578125 0.1875q0 1.546875 0.640625 2.4375q0.640625 0.875 1.765625 0.875q1.5 0 2.1875 -1.34375l0 -4.203125q-0.703125 -1.296875 -2.15625 -1.296875q-1.15625 0 -1.796875 0.890625q-0.640625 0.890625 -0.640625 2.640625zm10.288086 4.46875l-1.578125 0l0 -9.15625l1.578125 0l0 9.15625zm-1.703125 -11.578125q0 -0.390625 0.234375 -0.640625q0.234375 -0.265625 0.6875 -0.265625q0.46875 0 0.703125 0.265625q0.234375 0.25 0.234375 0.640625q0 0.375 -0.234375 0.640625q-0.234375 0.25 -0.703125 0.25q-0.453125 0 -0.6875 -0.25q-0.234375 -0.265625 -0.234375 -0.640625zm7.877014 10.46875q0.828125 0 1.453125 -0.5q0.640625 -0.515625 0.703125 -1.28125l1.484375 0q-0.046875 0.796875 -0.546875 1.515625q-0.5 0.703125 -1.34375 1.125q-0.828125 0.421875 -1.75 0.421875q-1.875 0 -2.984375 -1.25q-1.09375 -1.25 -1.09375 -3.421875l0 -0.25q0 -1.34375 0.484375 -2.375q0.5 -1.046875 1.40625 -1.625q0.921875 -0.578125 2.171875 -0.578125q1.546875 0 2.5625 0.921875q1.015625 0.921875 1.09375 2.40625l-1.484375 0q-0.0625 -0.890625 -0.671875 -1.453125q-0.609375 -0.578125 -1.5 -0.578125q-1.1875 0 -1.84375 0.859375q-0.65625 0.84375 -0.65625 2.46875l0 0.296875q0 1.59375 0.640625 2.453125q0.65625 0.84375 1.875 0.84375zm11.054565 1.109375q-0.140625 -0.265625 -0.234375 -0.96875q-1.078125 1.140625 -2.59375 1.140625q-1.359375 0 -2.234375 -0.765625q-0.859375 -0.765625 -0.859375 -1.9375q0 -1.4375 1.078125 -2.21875q1.09375 -0.796875 3.0625 -0.796875l1.53125 0l0 -0.71875q0 -0.828125 -0.5 -1.3125q-0.484375 -0.484375 -1.4375 -0.484375q-0.84375 0 -1.40625 0.421875q-0.5625 0.421875 -0.5625 1.03125l-1.578125 0q0 -0.6875 0.484375 -1.328125q0.484375 -0.640625 1.3125 -1.015625q0.84375 -0.375 1.84375 -0.375q1.578125 0 2.46875 0.796875q0.90625 0.796875 0.9375 2.171875l0 4.21875q0 1.265625 0.328125 2.0l0 0.140625l-1.640625 0zm-2.609375 -1.1875q0.734375 0 1.390625 -0.375q0.671875 -0.390625 0.96875 -1.0l0 -1.875l-1.234375 0q-2.875 0 -2.875 1.671875q0 0.75 0.484375 1.171875q0.5 0.40625 1.265625 0.40625zm8.503662 -10.1875l0 2.21875l1.703125 0l0 1.21875l-1.703125 0l0 5.671875q0 0.546875 0.21875 0.828125q0.234375 0.265625 0.78125 0.265625q0.265625 0 0.75 -0.09375l0 1.265625q-0.625 0.171875 -1.203125 0.171875q-1.046875 0 -1.578125 -0.625q-0.53125 -0.640625 -0.53125 -1.8125l0 -5.671875l-1.671875 0l0 -1.21875l1.671875 0l0 -2.21875l1.5625 0zm7.332306 11.546875q-1.859375 0 -3.03125 -1.21875q-1.171875 -1.234375 -1.171875 -3.28125l0 -0.28125q0 -1.359375 0.515625 -2.421875q0.53125 -1.078125 1.46875 -1.6875q0.9375 -0.609375 2.015625 -0.609375q1.796875 0 2.78125 1.1875q0.984375 1.171875 0.984375 3.359375l0 0.65625l-6.1875 0q0.03125 1.34375 0.78125 2.1875q0.765625 0.828125 1.921875 0.828125q0.828125 0 1.40625 -0.328125q0.578125 -0.34375 1.015625 -0.90625l0.953125 0.75q-1.15625 1.765625 -3.453125 1.765625zm-0.203125 -8.203125q-0.9375 0 -1.578125 0.6875q-0.640625 0.6875 -0.796875 1.921875l4.578125 0l0 -0.109375q-0.0625 -1.1875 -0.640625 -1.84375q-0.578125 -0.65625 -1.5625 -0.65625z" fill-rule="nonzero"/><path fill="#d9d2e9" d="m98.88714 339.16797l146.64566 0l0 40.409454l-146.64566 0z" fill-rule="evenodd"/><path fill="#000000" d="m112.94964 359.3236q-2.09375 -0.609375 -3.046875 -1.484375q-0.953125 -0.875 -0.953125 -2.15625q0 -1.453125 1.15625 -2.40625q1.171875 -0.953125 3.03125 -0.953125q1.265625 0 2.265625 0.5q1.0 0.484375 1.546875 1.34375q0.546875 0.859375 0.546875 1.890625l-1.640625 0q0 -1.125 -0.71875 -1.765625q-0.703125 -0.640625 -2.0 -0.640625q-1.203125 0 -1.875 0.53125q-0.671875 0.53125 -0.671875 1.46875q0 0.75 0.640625 1.28125q0.640625 0.515625 2.171875 0.953125q1.546875 0.421875 2.40625 0.953125q0.875 0.515625 1.28125 1.21875q0.421875 0.6875 0.421875 1.625q0 1.484375 -1.171875 2.390625q-1.15625 0.90625 -3.109375 0.90625q-1.28125 0 -2.375 -0.484375q-1.09375 -0.484375 -1.703125 -1.328125q-0.59375 -0.859375 -0.59375 -1.9375l1.640625 0q0 1.125 0.8125 1.78125q0.828125 0.640625 2.21875 0.640625q1.28125 0 1.96875 -0.515625q0.6875 -0.53125 0.6875 -1.4375q0 -0.90625 -0.640625 -1.40625q-0.640625 -0.5 -2.296875 -0.96875zm8.530121 -5.890625l0 2.21875l1.703125 0l0 1.21875l-1.703125 0l0 5.671875q0 0.546875 0.21875 0.828125q0.234375 0.265625 0.78125 0.265625q0.265625 0 0.75 -0.09375l0 1.265625q-0.625 0.171875 -1.203125 0.171875q-1.046875 0 -1.578125 -0.625q-0.53125 -0.640625 -0.53125 -1.8125l0 -5.671875l-1.671875 0l0 -1.21875l1.671875 0l0 -2.21875l1.5625 0zm2.944275 6.71875q0 -1.34375 0.53125 -2.421875q0.53125 -1.078125 1.46875 -1.65625q0.953125 -0.59375 2.1562576 -0.59375q1.875 0 3.03125 1.296875q1.15625 1.296875 1.15625 3.453125l0 0.109375q0 1.328125 -0.515625 2.390625q-0.515625 1.0625 -1.46875 1.65625q-0.953125 0.59375 -2.1875 0.59375q-1.8593826 0 -3.0156326 -1.296875q-1.15625 -1.296875 -1.15625 -3.421875l0 -0.109375zm1.578125 0.1875q0 1.515625 0.703125 2.4375q0.703125 0.921875 1.8906326 0.921875q1.203125 0 1.890625 -0.9375q0.703125 -0.9375 0.703125 -2.609375q0 -1.515625 -0.71875 -2.4375q-0.703125 -0.9375 -1.890625 -0.9375q-1.1562576 0 -1.8750076 0.921875q-0.703125 0.921875 -0.703125 2.640625zm13.148079 -3.28125q-0.359375 -0.0625 -0.765625 -0.0625q-1.546875 0 -2.09375 1.3125l0 6.5l-1.5625 0l0 -9.15625l1.515625 0l0.03125 1.0625q0.765625 -1.234375 2.1875 -1.234375q0.453125 0 0.6875 0.125l0 1.453125zm6.759308 7.75q-0.140625 -0.265625 -0.234375 -0.96875q-1.078125 1.140625 -2.59375 1.140625q-1.359375 0 -2.234375 -0.765625q-0.859375 -0.765625 -0.859375 -1.9375q0 -1.4375 1.078125 -2.21875q1.09375 -0.796875 3.0625 -0.796875l1.53125 0l0 -0.71875q0 -0.828125 -0.5 -1.3125q-0.484375 -0.484375 -1.4375 -0.484375q-0.84375 0 -1.40625 0.421875q-0.5625 0.421875 -0.5625 1.03125l-1.578125 0q0 -0.6875 0.484375 -1.328125q0.484375 -0.640625 1.3125 -1.015625q0.84375 -0.375 1.84375 -0.375q1.578125 0 2.46875 0.796875q0.90625 0.796875 0.9375 2.171875l0 4.21875q0 1.265625 0.328125 2.0l0 0.140625l-1.640625 0zm-2.609375 -1.1875q0.734375 0 1.390625 -0.375q0.671875 -0.390625 0.96875 -1.0l0 -1.875l-1.234375 0q-2.875 0 -2.875 1.671875q0 0.75 0.484375 1.171875q0.5 0.40625 1.265625 0.40625zm6.0036774 -3.46875q0 -2.140625 0.984375 -3.40625q1.0 -1.265625 2.625 -1.265625q1.671875 0 2.625 1.1875l0.0625 -1.015625l1.4375 0l0 8.9375q0 1.78125 -1.0625 2.796875q-1.046875 1.03125 -2.828125 1.03125q-0.984375 0 -1.9375 -0.421875q-0.9375 -0.421875 -1.4375 -1.171875l0.8125 -0.9375q1.0 1.25 2.453125 1.25q1.140625 0 1.78125 -0.640625q0.640625 -0.640625 0.640625 -1.8125l0 -0.78125q-0.9375 1.078125 -2.5625 1.078125q-1.609375 0 -2.609375 -1.296875q-0.984375 -1.296875 -0.984375 -3.53125zm1.578125 0.1875q0 1.546875 0.625 2.4375q0.640625 0.875 1.78125 0.875q1.484375 0 2.171875 -1.34375l0 -4.1875q-0.71875 -1.3125 -2.15625 -1.3125q-1.140625 0 -1.78125 0.890625q-0.640625 0.890625 -0.640625 2.640625zm12.315445 4.640625q-1.859375 0 -3.03125 -1.21875q-1.171875 -1.234375 -1.171875 -3.28125l0 -0.28125q0 -1.359375 0.515625 -2.421875q0.53125 -1.078125 1.46875 -1.6875q0.9375 -0.609375 2.015625 -0.609375q1.796875 0 2.78125 1.1875q0.984375 1.171875 0.984375 3.359375l0 0.65625l-6.1875 0q0.03125 1.34375 0.78125 2.1875q0.765625 0.828125 1.921875 0.828125q0.828125 0 1.40625 -0.328125q0.578125 -0.34375 1.015625 -0.90625l0.953125 0.75q-1.15625 1.765625 -3.453125 1.765625zm-0.203125 -8.203125q-0.9375 0 -1.578125 0.6875q-0.640625 0.6875 -0.796875 1.921875l4.578125 0l0 -0.109375q-0.0625 -1.1875 -0.640625 -1.84375q-0.578125 -0.65625 -1.5625 -0.65625zm5.898941 9.09375l-1.34375 0l5.140625 -13.375l1.34375 0l-5.140625 13.375zm8.703583 -2.390625l5.84375 0l0 1.328125l-7.46875 0l0 -12.3125l1.625 0l0 10.984375zm7.0271454 -3.328125q0 -1.34375 0.53125 -2.421875q0.53125 -1.078125 1.46875 -1.65625q0.953125 -0.59375 2.15625 -0.59375q1.875 0 3.03125 1.296875q1.15625 1.296875 1.15625 3.453125l0 0.109375q0 1.328125 -0.515625 2.390625q-0.515625 1.0625 -1.46875 1.65625q-0.953125 0.59375 -2.1875 0.59375q-1.859375 0 -3.015625 -1.296875q-1.15625 -1.296875 -1.15625 -3.421875l0 -0.109375zm1.578125 0.1875q0 1.515625 0.703125 2.4375q0.703125 0.921875 1.890625 0.921875q1.203125 0 1.890625 -0.9375q0.703125 -0.9375 0.703125 -2.609375q0 -1.515625 -0.71875 -2.4375q-0.703125 -0.9375 -1.890625 -0.9375q-1.15625 0 -1.875 0.921875q-0.703125 0.921875 -0.703125 2.640625zm8.304321 -0.1875q0 -1.34375 0.53125 -2.421875q0.53125 -1.078125 1.46875 -1.65625q0.953125 -0.59375 2.15625 -0.59375q1.875 0 3.03125 1.296875q1.15625 1.296875 1.15625 3.453125l0 0.109375q0 1.328125 -0.515625 2.390625q-0.515625 1.0625 -1.46875 1.65625q-0.953125 0.59375 -2.1875 0.59375q-1.859375 0 -3.015625 -1.296875q-1.15625 -1.296875 -1.15625 -3.421875l0 -0.109375zm1.578125 0.1875q0 1.515625 0.703125 2.4375q0.703125 0.921875 1.890625 0.921875q1.203125 0 1.890625 -0.9375q0.703125 -0.9375 0.703125 -2.609375q0 -1.515625 -0.71875 -2.4375q-0.703125 -0.9375 -1.890625 -0.9375q-1.15625 0 -1.875 0.921875q-0.703125 0.921875 -0.703125 2.640625zm11.273071 0.234375l-0.96875 1.015625l0 3.21875l-1.578125 0l0 -13.0l1.578125 0l0 7.859375l0.828125 -1.0l2.859375 -3.015625l1.890625 0l-3.5625 3.828125l3.984375 5.328125l-1.84375 0l-3.1875 -4.234375zm11.8918915 3.328125q-0.921875 1.078125 -2.6875 1.078125q-1.46875 0 -2.234375 -0.84375q-0.765625 -0.859375 -0.765625 -2.53125l0 -5.953125l1.5625 0l0 5.921875q0 2.078125 1.6875 2.078125q1.796875 0 2.390625 -1.34375l0 -6.65625l1.5625 0l0 9.15625l-1.484375 0l-0.03125 -0.90625zm11.6306 -3.5625q0 2.078125 -0.96875 3.359375q-0.953125 1.28125 -2.578125 1.28125q-1.671875 0 -2.625 -1.0625l0 4.40625l-1.5625 0l0 -12.671875l1.421875 0l0.078125 1.015625q0.953125 -1.1875 2.65625 -1.1875q1.65625 0 2.609375 1.25q0.96875 1.234375 0.96875 3.453125l0 0.15625zm-1.5625 -0.1875q0 -1.546875 -0.671875 -2.4375q-0.65625 -0.90625 -1.8125 -0.90625q-1.421875 0 -2.125 1.265625l0 4.375q0.703125 1.25 2.15625 1.25q1.125 0 1.78125 -0.890625q0.671875 -0.890625 0.671875 -2.65625z" fill-rule="nonzero"/><path fill="#000000" fill-opacity="0.0" d="m98.88714 157.38321l0 220.46976l927.5905 0l0 -99.49338" fill-rule="evenodd"/><path stroke="#000000" stroke-width="1.0" stroke-linejoin="round" stroke-linecap="butt" stroke-dasharray="1.0,3.0" d="m98.88714 157.38321l0 220.46976l927.5905 0l0 -93.49338" fill-rule="evenodd"/><path fill="#000000" stroke="#000000" stroke-width="1.0" stroke-linecap="butt" d="m1028.1294 284.3596l-1.6517334 -4.5381165l-1.6517334 4.5381165z" fill-rule="evenodd"/><path fill="#9fc5e8" d="m235.75066 263.82437l157.03938 0l0 42.015747l-157.03938 0z" fill-rule="evenodd"/><path stroke="#000000" stroke-width="1.0" stroke-linejoin="round" stroke-linecap="butt" d="m235.75066 263.82437l157.03938 0l0 42.015747l-157.03938 0z" fill-rule="evenodd"/><path fill="#000000" d="m301.39655 288.13626l5.84375 0l0 1.328125l-7.46875 0l0 -12.3125l1.625 0l0 10.984375zm9.152161 1.328125l-1.578125 0l0 -9.15625l1.578125 0l0 9.15625zm-1.703125 -11.578125q0 -0.390625 0.234375 -0.640625q0.234375 -0.265625 0.6875 -0.265625q0.46875 0 0.703125 0.265625q0.234375 0.25 0.234375 0.640625q0 0.375 -0.234375 0.640625q-0.234375 0.25 -0.703125 0.25q-0.453125 0 -0.6875 -0.25q-0.234375 -0.265625 -0.234375 -0.640625zm5.6894836 2.421875l0.046875 1.15625q1.046875 -1.328125 2.734375 -1.328125q2.90625 0 2.9375 3.28125l0 6.046875l-1.578125 0l0 -6.0625q0 -0.984375 -0.453125 -1.453125q-0.4375 -0.484375 -1.375 -0.484375q-0.765625 0 -1.34375 0.40625q-0.5625 0.40625 -0.890625 1.078125l0 6.515625l-1.5625 0l0 -9.15625l1.484375 0zm10.623444 4.921875l-0.96875 1.015625l0 3.21875l-1.578125 0l0 -13.0l1.578125 0l0 7.859375l0.828125 -1.0l2.859375 -3.015625l1.890625 0l-3.5625 3.828125l3.984375 5.328125l-1.84375 0l-3.1875 -4.234375z" fill-rule="nonzero"/><path fill="#000000" fill-opacity="0.0" d="m261.77954 278.90027l-98.04726 -36.881897" fill-rule="evenodd"/><path stroke="#000000" stroke-width="1.0" stroke-linejoin="round" stroke-linecap="butt" stroke-dasharray="4.0,3.0" d="m261.77954 278.90027l-92.43143 -34.769424" fill-rule="evenodd"/><path fill="#000000" stroke="#000000" stroke-width="1.0" stroke-linecap="butt" d="m169.92964 242.58487l-4.829056 -0.05178833l3.665985 3.1437378z" fill-rule="evenodd"/><path fill="#000000" fill-opacity="0.0" d="m253.68504 288.7953l-87.244095 -16.188995" fill-rule="evenodd"/><path stroke="#000000" stroke-width="1.0" stroke-linejoin="round" stroke-linecap="butt" stroke-dasharray="4.0,3.0" d="m253.68504 288.7953l-81.3448 -15.09433" fill-rule="evenodd"/><path fill="#000000" stroke="#000000" stroke-width="1.0" stroke-linecap="butt" d="m172.64159 272.07697l-4.763275 0.796051l4.1605835 2.4519653z" fill-rule="evenodd"/><path fill="#000000" fill-opacity="0.0" d="m263.58005 297.79004l-98.96063 0" fill-rule="evenodd"/><path stroke="#000000" stroke-width="1.0" stroke-linejoin="round" stroke-linecap="butt" stroke-dasharray="4.0,3.0" d="m263.58005 297.79004l-92.96063 0" fill-rule="evenodd"/><path fill="#000000" stroke="#000000" stroke-width="1.0" stroke-linecap="butt" d="m170.61942 296.1383l-4.538086 1.6517334l4.538086 1.6517334z" fill-rule="evenodd"/></g></svg>