<svg width="784" height="330" viewBox="0 0 784 330" fill="none" xmlns="http://www.w3.org/2000/svg">
<rect width="784" height="330" fill="white"/>
<path d="M188.83 19.7248C188.778 19.293 188.571 18.9578 188.207 18.7191C187.844 18.4805 187.398 18.3612 186.869 18.3612C186.483 18.3612 186.145 18.4237 185.855 18.5487C185.568 18.6737 185.344 18.8455 185.182 19.0643C185.023 19.283 184.943 19.5316 184.943 19.81C184.943 20.043 184.999 20.2433 185.109 20.4109C185.223 20.5757 185.368 20.7134 185.544 20.8242C185.72 20.9322 185.905 21.0217 186.098 21.0927C186.291 21.1609 186.469 21.2163 186.631 21.2589L187.517 21.4975C187.744 21.5572 187.997 21.6396 188.276 21.7447C188.557 21.8498 188.825 21.9933 189.081 22.1751C189.339 22.3541 189.553 22.5842 189.72 22.8654C189.888 23.1467 189.972 23.4919 189.972 23.9009C189.972 24.3725 189.848 24.7987 189.601 25.1794C189.357 25.56 188.999 25.8626 188.527 26.087C188.058 26.3115 187.489 26.4237 186.818 26.4237C186.193 26.4237 185.652 26.3228 185.195 26.1211C184.74 25.9194 184.382 25.6382 184.121 25.2774C183.862 24.9166 183.716 24.4975 183.682 24.0203H184.773C184.801 24.3498 184.912 24.6225 185.105 24.8384C185.301 25.0515 185.548 25.2106 185.847 25.3157C186.148 25.418 186.472 25.4691 186.818 25.4691C187.222 25.4691 187.584 25.4038 187.905 25.2731C188.226 25.1396 188.48 24.9549 188.668 24.7191C188.855 24.4805 188.949 24.2021 188.949 23.8839C188.949 23.5941 188.868 23.3583 188.706 23.1765C188.544 22.9947 188.331 22.847 188.067 22.7333C187.803 22.6197 187.517 22.5203 187.21 22.435L186.136 22.1282C185.455 21.9322 184.915 21.6524 184.517 21.2887C184.119 20.9251 183.92 20.4492 183.92 19.8612C183.92 19.3725 184.053 18.9464 184.317 18.5828C184.584 18.2163 184.942 17.9322 185.391 17.7305C185.842 17.5259 186.347 17.4237 186.903 17.4237C187.466 17.4237 187.966 17.5245 188.403 17.7262C188.841 17.9251 189.188 18.1978 189.443 18.5444C189.702 18.891 189.838 19.2845 189.852 19.7248H188.83ZM199.073 21.9066C199.073 22.8271 198.907 23.6225 198.574 24.293C198.242 24.9634 197.786 25.4805 197.206 25.8441C196.627 26.2078 195.965 26.3896 195.221 26.3896C194.476 26.3896 193.814 26.2078 193.235 25.8441C192.655 25.4805 192.199 24.9634 191.867 24.293C191.534 23.6225 191.368 22.8271 191.368 21.9066C191.368 20.9862 191.534 20.1907 191.867 19.5203C192.199 18.8498 192.655 18.3328 193.235 17.9691C193.814 17.6055 194.476 17.4237 195.221 17.4237C195.965 17.4237 196.627 17.6055 197.206 17.9691C197.786 18.3328 198.242 18.8498 198.574 19.5203C198.907 20.1907 199.073 20.9862 199.073 21.9066ZM198.05 21.9066C198.05 21.1509 197.924 20.5132 197.671 19.9933C197.421 19.4734 197.081 19.0799 196.652 18.8129C196.226 18.5458 195.749 18.4123 195.221 18.4123C194.692 18.4123 194.213 18.5458 193.784 18.8129C193.358 19.0799 193.019 19.4734 192.766 19.9933C192.516 20.5132 192.391 21.1509 192.391 21.9066C192.391 22.6623 192.516 23.3001 192.766 23.82C193.019 24.3399 193.358 24.7333 193.784 25.0004C194.213 25.2674 194.692 25.4009 195.221 25.4009C195.749 25.4009 196.226 25.2674 196.652 25.0004C197.081 24.7333 197.421 24.3399 197.671 23.82C197.924 23.3001 198.05 22.6623 198.05 21.9066ZM206.577 17.543H207.634V23.3214C207.634 23.918 207.493 24.4507 207.212 24.9194C206.934 25.3853 206.54 25.7532 206.032 26.0231C205.523 26.2902 204.926 26.4237 204.242 26.4237C203.557 26.4237 202.961 26.2902 202.452 26.0231C201.944 25.7532 201.549 25.3853 201.267 24.9194C200.989 24.4507 200.85 23.918 200.85 23.3214V17.543H201.907V23.2362C201.907 23.6623 202 24.0416 202.188 24.374C202.375 24.7035 202.642 24.9634 202.989 25.1538C203.338 25.3413 203.756 25.435 204.242 25.435C204.728 25.435 205.145 25.3413 205.495 25.1538C205.844 24.9634 206.111 24.7035 206.296 24.374C206.483 24.0416 206.577 23.6623 206.577 23.2362V17.543ZM209.744 26.2703V17.543H212.693C213.375 17.543 213.935 17.6595 214.372 17.8924C214.81 18.1225 215.134 18.4393 215.344 18.8427C215.554 19.2461 215.659 19.7049 215.659 20.2191C215.659 20.7333 215.554 21.1893 215.344 21.587C215.134 21.9848 214.811 22.2973 214.376 22.5245C213.942 22.749 213.386 22.8612 212.71 22.8612H210.324V21.9066H212.676C213.142 21.9066 213.517 21.8384 213.801 21.7021C214.088 21.5657 214.295 21.3725 214.423 21.1225C214.554 20.8697 214.619 20.5686 214.619 20.2191C214.619 19.8697 214.554 19.5643 214.423 19.3029C214.293 19.0416 214.084 18.8399 213.797 18.6978C213.51 18.5529 213.131 18.4805 212.659 18.4805H210.801V26.2703H209.744ZM213.852 22.3498L216 26.2703H214.773L212.659 22.3498H213.852ZM224.443 20.2703H223.386C223.324 19.9663 223.214 19.6992 223.058 19.4691C222.904 19.239 222.717 19.0458 222.495 18.8896C222.277 18.7305 222.034 18.6112 221.767 18.5316C221.5 18.4521 221.221 18.4123 220.931 18.4123C220.403 18.4123 219.924 18.5458 219.495 18.8129C219.069 19.0799 218.73 19.4734 218.477 19.9933C218.227 20.5132 218.102 21.1509 218.102 21.9066C218.102 22.6623 218.227 23.3001 218.477 23.82C218.73 24.3399 219.069 24.7333 219.495 25.0004C219.924 25.2674 220.403 25.4009 220.931 25.4009C221.221 25.4009 221.5 25.3612 221.767 25.2816C222.034 25.2021 222.277 25.0842 222.495 24.9279C222.717 24.7688 222.904 24.5742 223.058 24.3441C223.214 24.1112 223.324 23.8441 223.386 23.543H224.443C224.363 23.989 224.218 24.3882 224.008 24.7404C223.798 25.0927 223.537 25.3924 223.224 25.6396C222.912 25.8839 222.561 26.07 222.172 26.1978C221.785 26.3257 221.372 26.3896 220.931 26.3896C220.187 26.3896 219.525 26.2078 218.946 25.8441C218.366 25.4805 217.91 24.9634 217.578 24.293C217.245 23.6225 217.079 22.8271 217.079 21.9066C217.079 20.9862 217.245 20.1907 217.578 19.5203C217.91 18.8498 218.366 18.3328 218.946 17.9691C219.525 17.6055 220.187 17.4237 220.931 17.4237C221.372 17.4237 221.785 17.4876 222.172 17.6154C222.561 17.7433 222.912 17.9308 223.224 18.1779C223.537 18.4223 223.798 18.7205 224.008 19.0728C224.218 19.4223 224.363 19.8214 224.443 20.2703ZM226.151 26.2703V17.543H231.418V18.4805H227.207V21.4294H231.145V22.3669H227.207V25.3328H231.486V26.2703H226.151ZM236.22 18.4805V17.543H242.766V18.4805H240.021V26.2703H238.964V18.4805H236.22ZM244.397 26.2703V17.543H245.453V21.4294H250.107V17.543H251.164V26.2703H250.107V22.3669H245.453V26.2703H244.397ZM253.279 26.2703V17.543H256.228C256.91 17.543 257.47 17.6595 257.907 17.8924C258.345 18.1225 258.669 18.4393 258.879 18.8427C259.089 19.2461 259.194 19.7049 259.194 20.2191C259.194 20.7333 259.089 21.1893 258.879 21.587C258.669 21.9848 258.346 22.2973 257.912 22.5245C257.477 22.749 256.922 22.8612 256.245 22.8612H253.859V21.9066H256.211C256.677 21.9066 257.052 21.8384 257.336 21.7021C257.623 21.5657 257.831 21.3725 257.958 21.1225C258.089 20.8697 258.154 20.5686 258.154 20.2191C258.154 19.8697 258.089 19.5643 257.958 19.3029C257.828 19.0416 257.619 18.8399 257.332 18.6978C257.045 18.5529 256.666 18.4805 256.194 18.4805H254.336V26.2703H253.279ZM257.387 22.3498L259.535 26.2703H258.308L256.194 22.3498H257.387ZM260.955 26.2703V17.543H266.222V18.4805H262.012V21.4294H265.95V22.3669H262.012V25.3328H266.29V26.2703H260.955ZM268.485 26.2703H267.377L270.582 17.543H271.673L274.877 26.2703H273.769L271.161 18.9237H271.093L268.485 26.2703ZM268.894 22.8612H273.36V23.7987H268.894V22.8612ZM274.74 18.4805V17.543H281.285V18.4805H278.541V26.2703H277.484V18.4805H274.74ZM287.689 19.7248C287.638 19.293 287.43 18.9578 287.067 18.7191C286.703 18.4805 286.257 18.3612 285.729 18.3612C285.342 18.3612 285.004 18.4237 284.714 18.5487C284.428 18.6737 284.203 18.8455 284.041 19.0643C283.882 19.283 283.803 19.5316 283.803 19.81C283.803 20.043 283.858 20.2433 283.969 20.4109C284.082 20.5757 284.227 20.7134 284.403 20.8242C284.58 20.9322 284.764 21.0217 284.957 21.0927C285.151 21.1609 285.328 21.2163 285.49 21.2589L286.376 21.4975C286.604 21.5572 286.857 21.6396 287.135 21.7447C287.416 21.8498 287.685 21.9933 287.94 22.1751C288.199 22.3541 288.412 22.5842 288.58 22.8654C288.747 23.1467 288.831 23.4919 288.831 23.9009C288.831 24.3725 288.707 24.7987 288.46 25.1794C288.216 25.56 287.858 25.8626 287.386 26.087C286.918 26.3115 286.348 26.4237 285.678 26.4237C285.053 26.4237 284.511 26.3228 284.054 26.1211C283.599 25.9194 283.241 25.6382 282.98 25.2774C282.722 24.9166 282.575 24.4975 282.541 24.0203H283.632C283.661 24.3498 283.771 24.6225 283.964 24.8384C284.161 25.0515 284.408 25.2106 284.706 25.3157C285.007 25.418 285.331 25.4691 285.678 25.4691C286.081 25.4691 286.443 25.4038 286.764 25.2731C287.085 25.1396 287.339 24.9549 287.527 24.7191C287.714 24.4805 287.808 24.2021 287.808 23.8839C287.808 23.5941 287.727 23.3583 287.565 23.1765C287.403 22.9947 287.19 22.847 286.926 22.7333C286.662 22.6197 286.376 22.5203 286.07 22.435L284.996 22.1282C284.314 21.9322 283.774 21.6524 283.376 21.2887C282.979 20.9251 282.78 20.4492 282.78 19.8612C282.78 19.3725 282.912 18.9464 283.176 18.5828C283.443 18.2163 283.801 17.9322 284.25 17.7305C284.702 17.5259 285.206 17.4237 285.763 17.4237C286.325 17.4237 286.825 17.5245 287.263 17.7262C287.7 17.9251 288.047 18.1978 288.303 18.5444C288.561 18.891 288.697 19.2845 288.712 19.7248H287.689Z" fill="#155757"/>
<path d="M131 37.4594V35.6757C131 32.7202 135.107 30.3243 140.174 30.3243H332.826C337.893 30.3243 342 32.7202 342 35.6757V37.4594" stroke="#155757"/>
<path d="M41.1986 147.217H37.6568V135.74H41.3555C42.4688 135.74 43.4215 135.969 44.2135 136.429C45.0056 136.885 45.6127 137.54 46.0349 138.396C46.457 139.248 46.6681 140.268 46.6681 141.456C46.6681 142.651 46.4552 143.681 46.0293 144.544C45.6033 145.403 44.9832 146.064 44.1687 146.527C43.3543 146.987 42.3642 147.217 41.1986 147.217ZM39.0466 145.984H41.1089C42.0578 145.984 42.8443 145.801 43.4682 145.435C44.0921 145.069 44.5573 144.547 44.8636 143.871C45.17 143.195 45.3231 142.39 45.3231 141.456C45.3231 140.529 45.1718 139.732 44.8692 139.063C44.5666 138.39 44.1145 137.875 43.513 137.516C42.9115 137.154 42.1625 136.973 41.2658 136.973H39.0466V145.984ZM52.4291 147.396C51.5997 147.396 50.8842 147.213 50.2827 146.847C49.685 146.477 49.2236 145.961 48.8985 145.3C48.5772 144.635 48.4166 143.862 48.4166 142.98C48.4166 142.098 48.5772 141.321 48.8985 140.649C49.2236 139.973 49.6756 139.446 50.2547 139.068C50.8375 138.687 51.5175 138.497 52.2946 138.497C52.7429 138.497 53.1856 138.572 53.6227 138.721C54.0599 138.87 54.4577 139.113 54.8164 139.45C55.1751 139.782 55.4609 140.223 55.6738 140.772C55.8868 141.321 55.9932 141.997 55.9932 142.801V143.361H49.3581V142.218H54.6483C54.6483 141.732 54.5511 141.299 54.3569 140.918C54.1663 140.537 53.8936 140.236 53.5387 140.016C53.1875 139.795 52.7728 139.685 52.2946 139.685C51.7678 139.685 51.312 139.816 50.9272 140.077C50.5461 140.335 50.2528 140.671 50.0474 141.086C49.8419 141.501 49.7391 141.945 49.7391 142.42V143.182C49.7391 143.832 49.8512 144.383 50.0754 144.835C50.3033 145.283 50.619 145.625 51.0225 145.861C51.4259 146.092 51.8948 146.208 52.4291 146.208C52.7765 146.208 53.0904 146.159 53.3706 146.062C53.6545 145.961 53.8992 145.812 54.1047 145.614C54.3102 145.412 54.4689 145.162 54.581 144.863L55.8588 145.222C55.7243 145.655 55.4982 146.036 55.1807 146.365C54.8631 146.69 54.4708 146.944 54.0038 147.127C53.5368 147.306 53.0119 147.396 52.4291 147.396ZM64.7818 138.609L61.5987 147.217H60.2537L57.0706 138.609H58.5053L60.8814 145.468H60.971L63.3472 138.609H64.7818ZM69.8282 147.396C68.9988 147.396 68.2834 147.213 67.6819 146.847C67.0841 146.477 66.6227 145.961 66.2977 145.3C65.9764 144.635 65.8157 143.862 65.8157 142.98C65.8157 142.098 65.9764 141.321 66.2977 140.649C66.6227 139.973 67.0748 139.446 67.6539 139.068C68.2367 138.687 68.9167 138.497 69.6937 138.497C70.1421 138.497 70.5848 138.572 71.0219 138.721C71.459 138.87 71.8569 139.113 72.2156 139.45C72.5742 139.782 72.86 140.223 73.073 140.772C73.2859 141.321 73.3924 141.997 73.3924 142.801V143.361H66.7572V142.218H72.0474C72.0474 141.732 71.9503 141.299 71.756 140.918C71.5655 140.537 71.2928 140.236 70.9378 140.016C70.5867 139.795 70.172 139.685 69.6937 139.685C69.167 139.685 68.7112 139.816 68.3264 140.077C67.9453 140.335 67.652 140.671 67.4465 141.086C67.241 141.501 67.1383 141.945 67.1383 142.42V143.182C67.1383 143.832 67.2504 144.383 67.4745 144.835C67.7024 145.283 68.0181 145.625 68.4216 145.861C68.8251 146.092 69.294 146.208 69.8282 146.208C70.1757 146.208 70.4895 146.159 70.7697 146.062C71.0537 145.961 71.2984 145.812 71.5039 145.614C71.7093 145.412 71.8681 145.162 71.9802 144.863L73.2579 145.222C73.1234 145.655 72.8974 146.036 72.5798 146.365C72.2623 146.69 71.87 146.944 71.403 147.127C70.936 147.306 70.4111 147.396 69.8282 147.396ZM76.7268 135.74V147.217H75.4043V135.74H76.7268ZM82.6461 147.396C81.869 147.396 81.1872 147.211 80.6006 146.841C80.0178 146.471 79.562 145.954 79.2332 145.289C78.9082 144.624 78.7457 143.847 78.7457 142.958C78.7457 142.061 78.9082 141.278 79.2332 140.61C79.562 139.941 80.0178 139.421 80.6006 139.052C81.1872 138.682 81.869 138.497 82.6461 138.497C83.4232 138.497 84.1032 138.682 84.686 139.052C85.2725 139.421 85.7283 139.941 86.0534 140.61C86.3821 141.278 86.5465 142.061 86.5465 142.958C86.5465 143.847 86.3821 144.624 86.0534 145.289C85.7283 145.954 85.2725 146.471 84.686 146.841C84.1032 147.211 83.4232 147.396 82.6461 147.396ZM82.6461 146.208C83.2364 146.208 83.7221 146.057 84.1032 145.754C84.4842 145.451 84.7663 145.054 84.9494 144.56C85.1324 144.067 85.224 143.533 85.224 142.958C85.224 142.382 85.1324 141.846 84.9494 141.349C84.7663 140.852 84.4842 140.451 84.1032 140.144C83.7221 139.838 83.2364 139.685 82.6461 139.685C82.0558 139.685 81.5701 139.838 81.189 140.144C80.808 140.451 80.5259 140.852 80.3428 141.349C80.1598 141.846 80.0682 142.382 80.0682 142.958C80.0682 143.533 80.1598 144.067 80.3428 144.56C80.5259 145.054 80.808 145.451 81.189 145.754C81.5701 146.057 82.0558 146.208 82.6461 146.208ZM88.5654 150.445V138.609H89.8431V139.976H90C90.0972 139.827 90.2316 139.636 90.4035 139.405C90.5791 139.169 90.8294 138.96 91.1544 138.777C91.4832 138.59 91.9278 138.497 92.4882 138.497C93.213 138.497 93.8519 138.678 94.4048 139.04C94.9577 139.403 95.3892 139.917 95.6993 140.582C96.0094 141.247 96.1645 142.031 96.1645 142.935C96.1645 143.847 96.0094 144.637 95.6993 145.306C95.3892 145.971 94.9596 146.486 94.4104 146.852C93.8612 147.215 93.2279 147.396 92.5106 147.396C91.9577 147.396 91.515 147.305 91.1825 147.121C90.85 146.935 90.594 146.724 90.4147 146.488C90.2354 146.249 90.0972 146.051 90 145.894H89.8879V150.445H88.5654ZM89.8655 142.913C89.8655 143.563 89.9608 144.136 90.1513 144.633C90.3419 145.126 90.6202 145.513 90.9863 145.793C91.3525 146.07 91.8008 146.208 92.3313 146.208C92.8842 146.208 93.3456 146.062 93.7155 145.771C94.0891 145.476 94.3693 145.08 94.5561 144.583C94.7466 144.082 94.8419 143.526 94.8419 142.913C94.8419 142.308 94.7485 141.762 94.5617 141.276C94.3786 140.787 94.1003 140.4 93.7267 140.116C93.3568 139.829 92.8917 139.685 92.3313 139.685C91.7933 139.685 91.3413 139.821 90.9751 140.094C90.609 140.363 90.3325 140.74 90.1457 141.226C89.9589 141.708 89.8655 142.27 89.8655 142.913ZM101.791 147.396C100.962 147.396 100.246 147.213 99.6446 146.847C99.0468 146.477 98.5854 145.961 98.2604 145.3C97.9391 144.635 97.7784 143.862 97.7784 142.98C97.7784 142.098 97.9391 141.321 98.2604 140.649C98.5854 139.973 99.0375 139.446 99.6166 139.068C100.199 138.687 100.879 138.497 101.656 138.497C102.105 138.497 102.547 138.572 102.985 138.721C103.422 138.87 103.82 139.113 104.178 139.45C104.537 139.782 104.823 140.223 105.036 140.772C105.249 141.321 105.355 141.997 105.355 142.801V143.361H98.7199V142.218H104.01C104.01 141.732 103.913 141.299 103.719 140.918C103.528 140.537 103.255 140.236 102.901 140.016C102.549 139.795 102.135 139.685 101.656 139.685C101.13 139.685 100.674 139.816 100.289 140.077C99.908 140.335 99.6147 140.671 99.4092 141.086C99.2037 141.501 99.101 141.945 99.101 142.42V143.182C99.101 143.832 99.2131 144.383 99.4372 144.835C99.6651 145.283 99.9808 145.625 100.384 145.861C100.788 146.092 101.257 146.208 101.791 146.208C102.138 146.208 102.452 146.159 102.732 146.062C103.016 145.961 103.261 145.812 103.467 145.614C103.672 145.412 103.831 145.162 103.943 144.863L105.221 145.222C105.086 145.655 104.86 146.036 104.543 146.365C104.225 146.69 103.833 146.944 103.366 147.127C102.899 147.306 102.374 147.396 101.791 147.396ZM107.367 147.217V138.609H108.645V139.909H108.734C108.891 139.483 109.175 139.138 109.586 138.872C109.997 138.607 110.46 138.474 110.976 138.474C111.073 138.474 111.195 138.476 111.34 138.48C111.486 138.484 111.596 138.489 111.671 138.497V139.842C111.626 139.831 111.523 139.814 111.363 139.791C111.206 139.765 111.039 139.752 110.864 139.752C110.445 139.752 110.072 139.84 109.743 140.016C109.418 140.187 109.16 140.426 108.97 140.733C108.783 141.035 108.69 141.381 108.69 141.77V147.217H107.367Z" fill="#102B2D"/>
<path d="M161.401 77.5687C162.294 79.5915 160.854 81.8043 158.44 82.1076C149.522 83.2251 140.478 83.2251 131.56 82.1076C129.146 81.8043 127.706 79.5915 128.599 77.5687C131.992 69.8869 136.504 62.634 141.999 56.0471C143.504 54.2419 146.496 54.2419 148.001 56.0471C153.496 62.634 158.008 69.8869 161.401 77.5687Z" fill="#F03100"/>
<path d="M140.706 78.7289H139.044L143.851 65.638H145.487L150.294 78.7289H148.632L144.72 67.709H144.618L140.706 78.7289ZM141.32 73.6153H148.019V75.0215H141.32V73.6153Z" fill="white"/>
<path d="M146 81.6081C146 81.1158 145.552 80.7162 145 80.7162C144.448 80.7162 144 81.1158 144 81.6081H146ZM144 125.757C144 126.249 144.448 126.649 145 126.649C145.552 126.649 146 126.249 146 125.757H144ZM144 81.6527C144 82.1459 144.448 82.5446 145 82.5446C145.552 82.5446 146 82.1459 146 81.6527H144ZM146 85.2426C146 84.7493 145.552 84.3507 145 84.3507C144.448 84.3507 144 84.7493 144 85.2426H146ZM144 85.3318C144 85.825 144.448 86.2237 145 86.2237C145.552 86.2237 146 85.825 146 85.3318H144ZM146 88.9216C146 88.4284 145.552 88.0297 145 88.0297C144.448 88.0297 144 88.4284 144 88.9216H146ZM144 89.0108C144 89.504 144.448 89.9027 145 89.9027C145.552 89.9027 146 89.504 146 89.0108H144ZM146 92.6007C146 92.1075 145.552 91.7088 145 91.7088C144.448 91.7088 144 92.1075 144 92.6007H146ZM144 92.6899C144 93.1831 144.448 93.5818 145 93.5818C145.552 93.5818 146 93.1831 146 92.6899H144ZM146 96.2797C146 95.7865 145.552 95.3878 145 95.3878C144.448 95.3878 144 95.7865 144 96.2797H146ZM144 96.3689C144 96.8621 144.448 97.2608 145 97.2608C145.552 97.2608 146 96.8621 146 96.3689H144ZM146 99.9588C146 99.4656 145.552 99.0669 145 99.0669C144.448 99.0669 144 99.4656 144 99.9588H146ZM144 100.048C144 100.541 144.448 100.94 145 100.94C145.552 100.94 146 100.541 146 100.048H144ZM146 103.638C146 103.145 145.552 102.746 145 102.746C144.448 102.746 144 103.145 144 103.638H146ZM144 103.727C144 104.22 144.448 104.619 145 104.619C145.552 104.619 146 104.22 146 103.727H144ZM146 107.317C146 106.824 145.552 106.425 145 106.425C144.448 106.425 144 106.824 144 107.317H146ZM144 107.406C144 107.899 144.448 108.298 145 108.298C145.552 108.298 146 107.899 146 107.406H144ZM146 110.996C146 110.503 145.552 110.104 145 110.104C144.448 110.104 144 110.503 144 110.996H146ZM144 111.085C144 111.578 144.448 111.977 145 111.977C145.552 111.977 146 111.578 146 111.085H144ZM146 114.675C146 114.182 145.552 113.783 145 113.783C144.448 113.783 144 114.182 144 114.675H146ZM144 114.764C144 115.257 144.448 115.656 145 115.656C145.552 115.656 146 115.257 146 114.764H144ZM146 118.354C146 117.861 145.552 117.462 145 117.462C144.448 117.462 144 117.861 144 118.354H146ZM144 118.443C144 118.936 144.448 119.335 145 119.335C145.552 119.335 146 118.936 146 118.443H144ZM146 122.033C146 121.54 145.552 121.141 145 121.141C144.448 121.141 144 121.54 144 122.033H146ZM144 122.122C144 122.616 144.448 123.014 145 123.014C145.552 123.014 146 122.616 146 122.122H144ZM146 125.712C146 125.219 145.552 124.82 145 124.82C144.448 124.82 144 125.219 144 125.712H146ZM144 81.6081V81.6527H146V81.6081H144ZM144 85.2426V85.3318H146V85.2426H144ZM144 88.9216V89.0108H146V88.9216H144ZM144 92.6007V92.6899H146V92.6007H144ZM144 96.2797V96.3689H146V96.2797H144ZM144 99.9588V100.048H146V99.9588H144ZM144 103.638V103.727H146V103.638H144ZM144 107.317V107.406H146V107.317H144ZM144 110.996V111.085H146V110.996H144ZM144 114.675V114.764H146V114.675H144ZM144 118.354V118.443H146V118.354H144ZM144 122.033V122.122H146V122.033H144ZM144 125.712V125.757H146V125.712H144Z" fill="#F03100"/>
<path d="M131 141.811H159" stroke="#58DA95" stroke-linejoin="round"/>
<path d="M143 136.459L149 141.811L143 147.162" stroke="#58DA95" stroke-linecap="square" stroke-linejoin="round"/>
<path d="M232.401 77.5687C233.294 79.5915 231.854 81.8043 229.44 82.1076C220.522 83.2251 211.478 83.2251 202.56 82.1076C200.146 81.8043 198.706 79.5915 199.599 77.5687C202.992 69.8869 207.504 62.634 212.999 56.0471C214.504 54.2419 217.496 54.2419 219.001 56.0471C224.496 62.634 229.008 69.8869 232.401 77.5687Z" fill="#F03100"/>
<path d="M211.424 78.7289V65.638H216.001C216.913 65.638 217.665 65.7957 218.257 66.111C218.85 66.4221 219.291 66.8418 219.58 67.3702C219.87 67.8944 220.015 68.4761 220.015 69.1153C220.015 69.6778 219.915 70.1423 219.715 70.5087C219.519 70.8752 219.259 71.165 218.935 71.3781C218.615 71.5911 218.268 71.7488 217.893 71.8511V71.9789C218.294 72.0045 218.696 72.1451 219.101 72.4008C219.506 72.6565 219.845 73.0229 220.117 73.5002C220.39 73.9775 220.526 74.5613 220.526 75.2516C220.526 75.9079 220.377 76.4981 220.079 77.0222C219.781 77.5464 219.31 77.9619 218.666 78.2687C218.023 78.5755 217.186 78.7289 216.154 78.7289H211.424ZM213.009 77.3227H216.154C217.19 77.3227 217.925 77.1224 218.36 76.7218C218.799 76.317 219.018 75.8269 219.018 75.2516C219.018 74.8085 218.905 74.3994 218.679 74.0244C218.453 73.6451 218.132 73.3425 217.714 73.1167C217.296 72.8866 216.802 72.7715 216.231 72.7715H213.009V77.3227ZM213.009 71.3908H215.95C216.427 71.3908 216.857 71.2971 217.241 71.1096C217.629 70.9221 217.936 70.6579 218.161 70.317C218.392 69.9761 218.507 69.5755 218.507 69.1153C218.507 68.54 218.306 68.0521 217.906 67.6515C217.505 67.2467 216.87 67.0443 216.001 67.0443H213.009V71.3908Z" fill="white"/>
<path d="M217 81.6081C217 81.1158 216.552 80.7162 216 80.7162C215.448 80.7162 215 81.1158 215 81.6081H217ZM215 107.919C215 108.411 215.448 108.811 216 108.811C216.552 108.811 217 108.411 217 107.919H215ZM215 81.6536C215 82.1468 215.448 82.5455 216 82.5455C216.552 82.5455 217 82.1468 217 81.6536H215ZM217 85.3211C217 84.8287 216.552 84.4292 216 84.4292C215.448 84.4292 215 84.8287 215 85.3211H217ZM215 85.4129C215 85.9052 215.448 86.3048 216 86.3048C216.552 86.3048 217 85.9052 217 85.4129H215ZM217 89.0795C217 88.5872 216.552 88.1876 216 88.1876C215.448 88.1876 215 88.5872 215 89.0795H217ZM215 89.1714C215 89.6637 215.448 90.0632 216 90.0632C216.552 90.0632 217 89.6637 217 89.1714H215ZM217 92.8379C217 92.3456 216.552 91.946 216 91.946C215.448 91.946 215 92.3456 215 92.8379H217ZM215 92.9298C215 93.423 215.448 93.8217 216 93.8217C216.552 93.8217 217 93.423 217 92.9298H215ZM217 96.5972C217 96.104 216.552 95.7054 216 95.7054C215.448 95.7054 215 96.104 215 96.5972H217ZM215 96.6891C215 97.1814 215.448 97.581 216 97.581C216.552 97.581 217 97.1814 217 96.6891H215ZM217 100.356C217 99.8634 216.552 99.4638 216 99.4638C215.448 99.4638 215 99.8634 215 100.356H217ZM215 100.448C215 100.94 215.448 101.339 216 101.339C216.552 101.339 217 100.94 217 100.448H215ZM217 104.114C217 103.622 216.552 103.222 216 103.222C215.448 103.222 215 103.622 215 104.114H217ZM215 104.206C215 104.698 215.448 105.098 216 105.098C216.552 105.098 217 104.698 217 104.206H215ZM217 107.873C217 107.38 216.552 106.982 216 106.982C215.448 106.982 215 107.38 215 107.873H217ZM215 81.6081V81.6536H217V81.6081H215ZM215 85.3211V85.4129H217V85.3211H215ZM215 89.0795V89.1714H217V89.0795H215ZM215 92.8379V92.9298H217V92.8379H215ZM215 96.5972V96.6891H217V96.5972H215ZM215 100.356V100.448H217V100.356H215ZM215 104.114V104.206H217V104.114H215ZM215 107.873V107.919H217V107.873H215Z" fill="#F03100"/>
<path d="M197.109 138.344C197.041 137.768 196.764 137.321 196.279 137.003C195.794 136.685 195.2 136.526 194.495 136.526C193.98 136.526 193.529 136.609 193.143 136.776C192.76 136.943 192.461 137.172 192.245 137.463C192.033 137.755 191.927 138.087 191.927 138.458C191.927 138.768 192.001 139.035 192.148 139.259C192.3 139.479 192.493 139.662 192.728 139.81C192.963 139.954 193.209 140.073 193.467 140.168C193.724 140.259 193.961 140.333 194.177 140.39L195.359 140.708C195.662 140.787 195.999 140.897 196.37 141.037C196.745 141.177 197.103 141.369 197.444 141.611C197.789 141.85 198.073 142.157 198.296 142.532C198.52 142.907 198.631 143.367 198.631 143.912C198.631 144.541 198.467 145.109 198.137 145.617C197.811 146.124 197.334 146.528 196.705 146.827C196.08 147.126 195.321 147.276 194.427 147.276C193.594 147.276 192.872 147.141 192.262 146.872C191.656 146.604 191.179 146.229 190.83 145.747C190.486 145.266 190.291 144.708 190.245 144.071H191.7C191.738 144.511 191.885 144.874 192.143 145.162C192.404 145.446 192.734 145.658 193.131 145.799C193.533 145.935 193.965 146.003 194.427 146.003C194.965 146.003 195.448 145.916 195.876 145.742C196.304 145.564 196.643 145.318 196.893 145.003C197.143 144.685 197.268 144.314 197.268 143.89C197.268 143.503 197.16 143.189 196.944 142.946C196.728 142.704 196.444 142.507 196.092 142.355C195.739 142.204 195.359 142.071 194.95 141.958L193.518 141.549C192.609 141.287 191.889 140.914 191.359 140.429C190.828 139.944 190.563 139.31 190.563 138.526C190.563 137.874 190.739 137.306 191.092 136.821C191.448 136.333 191.925 135.954 192.523 135.685C193.126 135.412 193.798 135.276 194.541 135.276C195.291 135.276 195.957 135.41 196.541 135.679C197.124 135.944 197.586 136.308 197.927 136.77C198.272 137.232 198.453 137.757 198.472 138.344H197.109ZM204.312 147.253C203.524 147.253 202.833 147.066 202.238 146.691C201.647 146.316 201.185 145.791 200.852 145.117C200.522 144.443 200.357 143.655 200.357 142.753C200.357 141.844 200.522 141.051 200.852 140.372C201.185 139.694 201.647 139.168 202.238 138.793C202.833 138.418 203.524 138.23 204.312 138.23C205.1 138.23 205.789 138.418 206.38 138.793C206.975 139.168 207.437 139.694 207.766 140.372C208.1 141.051 208.266 141.844 208.266 142.753C208.266 143.655 208.1 144.443 207.766 145.117C207.437 145.791 206.975 146.316 206.38 146.691C205.789 147.066 205.1 147.253 204.312 147.253ZM204.312 146.049C204.91 146.049 205.403 145.895 205.789 145.588C206.175 145.282 206.461 144.878 206.647 144.378C206.833 143.878 206.925 143.337 206.925 142.753C206.925 142.17 206.833 141.626 206.647 141.122C206.461 140.619 206.175 140.212 205.789 139.901C205.403 139.59 204.91 139.435 204.312 139.435C203.713 139.435 203.221 139.59 202.835 139.901C202.448 140.212 202.162 140.619 201.977 141.122C201.791 141.626 201.698 142.17 201.698 142.753C201.698 143.337 201.791 143.878 201.977 144.378C202.162 144.878 202.448 145.282 202.835 145.588C203.221 145.895 203.713 146.049 204.312 146.049ZM215.813 143.503V138.344H217.154V147.071H215.813V145.594H215.722C215.518 146.037 215.2 146.414 214.768 146.725C214.336 147.032 213.791 147.185 213.131 147.185C212.586 147.185 212.101 147.066 211.677 146.827C211.253 146.585 210.919 146.221 210.677 145.736C210.434 145.247 210.313 144.632 210.313 143.89V138.344H211.654V143.799C211.654 144.435 211.832 144.943 212.188 145.321C212.548 145.7 213.006 145.89 213.563 145.89C213.897 145.89 214.236 145.804 214.58 145.634C214.929 145.463 215.22 145.202 215.455 144.85C215.694 144.497 215.813 144.049 215.813 143.503ZM219.61 147.071V138.344H220.906V139.662H220.997C221.156 139.23 221.443 138.88 221.86 138.611C222.277 138.342 222.747 138.208 223.269 138.208C223.368 138.208 223.491 138.21 223.639 138.213C223.786 138.217 223.898 138.223 223.974 138.23V139.594C223.928 139.583 223.824 139.566 223.661 139.543C223.502 139.516 223.334 139.503 223.156 139.503C222.731 139.503 222.353 139.592 222.019 139.77C221.69 139.944 221.428 140.187 221.235 140.497C221.046 140.804 220.951 141.155 220.951 141.549V147.071H219.61ZM228.843 147.253C228.025 147.253 227.32 147.06 226.729 146.674C226.139 146.287 225.684 145.755 225.366 145.077C225.048 144.399 224.889 143.624 224.889 142.753C224.889 141.867 225.051 141.085 225.377 140.407C225.707 139.725 226.165 139.193 226.752 138.81C227.343 138.424 228.032 138.23 228.82 138.23C229.434 138.23 229.987 138.344 230.479 138.571C230.972 138.799 231.375 139.117 231.69 139.526C232.004 139.935 232.199 140.412 232.275 140.958H230.934C230.832 140.56 230.604 140.208 230.252 139.901C229.904 139.59 229.434 139.435 228.843 139.435C228.32 139.435 227.862 139.571 227.468 139.844C227.078 140.113 226.773 140.494 226.553 140.986C226.337 141.475 226.229 142.049 226.229 142.708C226.229 143.382 226.336 143.969 226.548 144.469C226.764 144.969 227.067 145.357 227.457 145.634C227.851 145.91 228.313 146.049 228.843 146.049C229.192 146.049 229.508 145.988 229.792 145.867C230.076 145.746 230.317 145.571 230.514 145.344C230.711 145.117 230.851 144.844 230.934 144.526H232.275C232.199 145.041 232.012 145.505 231.712 145.918C231.417 146.327 231.025 146.653 230.536 146.895C230.051 147.134 229.487 147.253 228.843 147.253ZM237.894 147.253C237.053 147.253 236.328 147.068 235.718 146.696C235.112 146.321 234.644 145.799 234.315 145.128C233.989 144.454 233.826 143.67 233.826 142.776C233.826 141.882 233.989 141.094 234.315 140.412C234.644 139.727 235.103 139.193 235.69 138.81C236.281 138.424 236.97 138.23 237.758 138.23C238.212 138.23 238.661 138.306 239.104 138.458C239.548 138.609 239.951 138.855 240.315 139.196C240.678 139.533 240.968 139.98 241.184 140.537C241.4 141.094 241.508 141.78 241.508 142.594V143.162H234.781V142.003H240.144C240.144 141.511 240.046 141.071 239.849 140.685C239.656 140.299 239.379 139.994 239.019 139.77C238.663 139.547 238.243 139.435 237.758 139.435C237.224 139.435 236.762 139.568 236.372 139.833C235.985 140.094 235.688 140.435 235.479 140.855C235.271 141.276 235.167 141.727 235.167 142.208V142.98C235.167 143.64 235.281 144.198 235.508 144.657C235.739 145.111 236.059 145.458 236.468 145.696C236.877 145.931 237.353 146.049 237.894 146.049C238.247 146.049 238.565 145.999 238.849 145.901C239.137 145.799 239.385 145.647 239.593 145.446C239.801 145.242 239.962 144.988 240.076 144.685L241.372 145.049C241.235 145.488 241.006 145.874 240.684 146.208C240.362 146.537 239.964 146.795 239.491 146.98C239.017 147.162 238.485 147.253 237.894 147.253Z" fill="#102B2D"/>
<path d="M261 108.811H171C167.134 108.811 164 111.606 164 115.054V168.568C164 172.016 167.134 174.811 171 174.811H261C264.866 174.811 268 172.016 268 168.568V115.054C268 111.606 264.866 108.811 261 108.811Z" stroke="#58DA95" stroke-width="2"/>
<path d="M450.057 26.2703V17.543H453.108C453.716 17.543 454.217 17.6481 454.612 17.8583C455.007 18.0657 455.301 18.3455 455.494 18.6978C455.688 19.0473 455.784 19.435 455.784 19.8612C455.784 20.2362 455.717 20.5458 455.584 20.7901C455.453 21.0345 455.28 21.2276 455.064 21.3697C454.851 21.5117 454.619 21.6169 454.369 21.685V21.7703C454.636 21.7873 454.905 21.8811 455.175 22.0515C455.445 22.222 455.67 22.4663 455.852 22.7845C456.034 23.1026 456.125 23.4919 456.125 23.9521C456.125 24.3896 456.026 24.783 455.827 25.1325C455.628 25.4819 455.314 25.7589 454.885 25.9634C454.456 26.168 453.898 26.2703 453.21 26.2703H450.057ZM451.114 25.3328H453.21C453.901 25.3328 454.391 25.1992 454.68 24.9322C454.973 24.6623 455.119 24.3356 455.119 23.9521C455.119 23.6566 455.044 23.3839 454.893 23.1339C454.743 22.8811 454.528 22.6794 454.25 22.5288C453.972 22.3754 453.642 22.2987 453.261 22.2987H451.114V25.3328ZM451.114 21.3782H453.074C453.392 21.3782 453.679 21.3157 453.935 21.1907C454.193 21.0657 454.398 20.8896 454.548 20.6623C454.702 20.435 454.778 20.168 454.778 19.8612C454.778 19.4776 454.645 19.1524 454.378 18.8853C454.111 18.6154 453.688 18.4805 453.108 18.4805H451.114V21.3782ZM463.589 17.543H464.646V23.3214C464.646 23.918 464.505 24.4507 464.224 24.9194C463.945 25.3853 463.552 25.7532 463.043 26.0231C462.535 26.2902 461.938 26.4237 461.254 26.4237C460.569 26.4237 459.972 26.2902 459.464 26.0231C458.955 25.7532 458.56 25.3853 458.279 24.9194C458.001 24.4507 457.862 23.918 457.862 23.3214V17.543H458.918V23.2362C458.918 23.6623 459.012 24.0416 459.2 24.374C459.387 24.7035 459.654 24.9634 460.001 25.1538C460.35 25.3413 460.768 25.435 461.254 25.435C461.739 25.435 462.157 25.3413 462.506 25.1538C462.856 24.9634 463.123 24.7035 463.308 24.374C463.495 24.0416 463.589 23.6623 463.589 23.2362V17.543ZM467.813 17.543V26.2703H466.756V17.543H467.813ZM469.932 26.2703V17.543H470.989V25.3328H475.045V26.2703H469.932ZM479.375 26.2703H476.682V17.543H479.494C480.341 17.543 481.065 17.7177 481.668 18.0671C482.27 18.4137 482.732 18.9123 483.053 19.5629C483.374 20.2106 483.534 20.9862 483.534 21.8896C483.534 22.7987 483.372 23.5813 483.048 24.2376C482.724 24.891 482.253 25.3938 481.634 25.7461C481.014 26.0955 480.261 26.2703 479.375 26.2703ZM477.739 25.3328H479.307C480.028 25.3328 480.626 25.1936 481.101 24.9151C481.575 24.6367 481.929 24.2404 482.162 23.7262C482.395 23.212 482.511 22.5998 482.511 21.8896C482.511 21.185 482.396 20.5785 482.166 20.07C481.936 19.5586 481.592 19.1666 481.135 18.8938C480.678 18.6183 480.108 18.4805 479.426 18.4805H477.739V25.3328ZM488.205 18.4805V17.543H494.75V18.4805H492.006V26.2703H490.949V18.4805H488.205ZM496.381 26.2703V17.543H497.438V21.4294H502.091V17.543H503.148V26.2703H502.091V22.3669H497.438V26.2703H496.381ZM505.264 26.2703V17.543H508.213C508.895 17.543 509.454 17.6595 509.892 17.8924C510.329 18.1225 510.653 18.4393 510.863 18.8427C511.074 19.2461 511.179 19.7049 511.179 20.2191C511.179 20.7333 511.074 21.1893 510.863 21.587C510.653 21.9848 510.331 22.2973 509.896 22.5245C509.461 22.749 508.906 22.8612 508.23 22.8612H505.843V21.9066H508.196C508.662 21.9066 509.037 21.8384 509.321 21.7021C509.608 21.5657 509.815 21.3725 509.943 21.1225C510.074 20.8697 510.139 20.5686 510.139 20.2191C510.139 19.8697 510.074 19.5643 509.943 19.3029C509.812 19.0416 509.603 18.8399 509.316 18.6978C509.029 18.5529 508.65 18.4805 508.179 18.4805H506.321V26.2703H505.264ZM509.372 22.3498L511.52 26.2703H510.292L508.179 22.3498H509.372ZM512.94 26.2703V17.543H518.207V18.4805H513.996V21.4294H517.934V22.3669H513.996V25.3328H518.275V26.2703H512.94ZM520.469 26.2703H519.362L522.566 17.543H523.657L526.862 26.2703H525.754L523.146 18.9237H523.077L520.469 26.2703ZM520.879 22.8612H525.344V23.7987H520.879V22.8612ZM526.724 18.4805V17.543H533.27V18.4805H530.525V26.2703H529.468V18.4805H526.724ZM539.673 19.7248C539.622 19.293 539.415 18.9578 539.051 18.7191C538.688 18.4805 538.241 18.3612 537.713 18.3612C537.327 18.3612 536.989 18.4237 536.699 18.5487C536.412 18.6737 536.188 18.8455 536.026 19.0643C535.866 19.283 535.787 19.5316 535.787 19.81C535.787 20.043 535.842 20.2433 535.953 20.4109C536.067 20.5757 536.212 20.7134 536.388 20.8242C536.564 20.9322 536.749 21.0217 536.942 21.0927C537.135 21.1609 537.312 21.2163 537.474 21.2589L538.361 21.4975C538.588 21.5572 538.841 21.6396 539.119 21.7447C539.401 21.8498 539.669 21.9933 539.925 22.1751C540.183 22.3541 540.396 22.5842 540.564 22.8654C540.732 23.1467 540.815 23.4919 540.815 23.9009C540.815 24.3725 540.692 24.7987 540.445 25.1794C540.2 25.56 539.842 25.8626 539.371 26.087C538.902 26.3115 538.332 26.4237 537.662 26.4237C537.037 26.4237 536.496 26.3228 536.038 26.1211C535.584 25.9194 535.226 25.6382 534.964 25.2774C534.706 24.9166 534.56 24.4975 534.526 24.0203H535.616C535.645 24.3498 535.756 24.6225 535.949 24.8384C536.145 25.0515 536.392 25.2106 536.69 25.3157C536.991 25.418 537.315 25.4691 537.662 25.4691C538.065 25.4691 538.428 25.4038 538.749 25.2731C539.07 25.1396 539.324 24.9549 539.511 24.7191C539.699 24.4805 539.793 24.2021 539.793 23.8839C539.793 23.5941 539.712 23.3583 539.55 23.1765C539.388 22.9947 539.175 22.847 538.911 22.7333C538.646 22.6197 538.361 22.5203 538.054 22.435L536.98 22.1282C536.298 21.9322 535.759 21.6524 535.361 21.2887C534.963 20.9251 534.764 20.4492 534.764 19.8612C534.764 19.3725 534.896 18.9464 535.161 18.5828C535.428 18.2163 535.786 17.9322 536.234 17.7305C536.686 17.5259 537.19 17.4237 537.747 17.4237C538.31 17.4237 538.81 17.5245 539.247 17.7262C539.685 17.9251 540.031 18.1978 540.287 18.5444C540.545 18.891 540.682 19.2845 540.696 19.7248H539.673Z" fill="#155757"/>
<path d="M342 37.4594V35.6757C342 32.7202 344.17 30.3243 346.847 30.3243H644.153C646.83 30.3243 649 32.7202 649 35.6757V37.4594" stroke="#155757"/>
<path d="M321.401 77.5687C322.294 79.5915 320.854 81.8043 318.44 82.1076C309.522 83.2251 300.478 83.2251 291.56 82.1076C289.146 81.8043 287.706 79.5915 288.599 77.5687C291.992 69.8869 296.504 62.634 301.999 56.0471C303.504 54.2419 306.496 54.2419 308.001 56.0471C313.496 62.634 318.008 69.8869 321.401 77.5687Z" fill="#F03100"/>
<path d="M310.641 69.7289H309.056C308.962 69.2729 308.798 68.8724 308.564 68.5272C308.334 68.182 308.053 67.8923 307.72 67.6579C307.392 67.4193 307.028 67.2403 306.627 67.121C306.227 67.0016 305.809 66.942 305.374 66.942C304.582 66.942 303.864 67.1423 303.22 67.5428C302.581 67.9434 302.072 68.5336 301.692 69.3134C301.317 70.0933 301.13 71.0499 301.13 72.1835C301.13 73.317 301.317 74.2737 301.692 75.0535C302.072 75.8333 302.581 76.4235 303.22 76.8241C303.864 77.2247 304.582 77.4249 305.374 77.4249C305.809 77.4249 306.227 77.3653 306.627 77.246C307.028 77.1266 307.392 76.9498 307.72 76.7154C308.053 76.4768 308.334 76.1849 308.564 75.8397C308.798 75.4903 308.962 75.0897 309.056 74.638H310.641C310.522 75.307 310.305 75.9058 309.989 76.4342C309.674 76.9626 309.282 77.4122 308.813 77.7829C308.344 78.1494 307.818 78.4285 307.234 78.6202C306.655 78.812 306.035 78.9079 305.374 78.9079C304.258 78.9079 303.265 78.6352 302.396 78.0897C301.526 77.5443 300.842 76.7687 300.344 75.763C299.845 74.7573 299.596 73.5641 299.596 72.1835C299.596 70.8028 299.845 69.6096 300.344 68.6039C300.842 67.5982 301.526 66.8227 302.396 66.2772C303.265 65.7318 304.258 65.459 305.374 65.459C306.035 65.459 306.655 65.5549 307.234 65.7467C307.818 65.9384 308.344 66.2197 308.813 66.5904C309.282 66.9569 309.674 67.4043 309.989 67.9327C310.305 68.4569 310.522 69.0556 310.641 69.7289Z" fill="white"/>
<path d="M306 81.6081C306 81.1158 305.552 80.7162 305 80.7162C304.448 80.7162 304 81.1158 304 81.6081H306ZM304 125.757C304 126.249 304.448 126.649 305 126.649C305.552 126.649 306 126.249 306 125.757H304ZM304 81.6527C304 82.1459 304.448 82.5446 305 82.5446C305.552 82.5446 306 82.1459 306 81.6527H304ZM306 85.2426C306 84.7493 305.552 84.3507 305 84.3507C304.448 84.3507 304 84.7493 304 85.2426H306ZM304 85.3318C304 85.825 304.448 86.2237 305 86.2237C305.552 86.2237 306 85.825 306 85.3318H304ZM306 88.9216C306 88.4284 305.552 88.0297 305 88.0297C304.448 88.0297 304 88.4284 304 88.9216H306ZM304 89.0108C304 89.504 304.448 89.9027 305 89.9027C305.552 89.9027 306 89.504 306 89.0108H304ZM306 92.6007C306 92.1075 305.552 91.7088 305 91.7088C304.448 91.7088 304 92.1075 304 92.6007H306ZM304 92.6899C304 93.1831 304.448 93.5818 305 93.5818C305.552 93.5818 306 93.1831 306 92.6899H304ZM306 96.2797C306 95.7865 305.552 95.3878 305 95.3878C304.448 95.3878 304 95.7865 304 96.2797H306ZM304 96.3689C304 96.8621 304.448 97.2608 305 97.2608C305.552 97.2608 306 96.8621 306 96.3689H304ZM306 99.9588C306 99.4656 305.552 99.0669 305 99.0669C304.448 99.0669 304 99.4656 304 99.9588H306ZM304 100.048C304 100.541 304.448 100.94 305 100.94C305.552 100.94 306 100.541 306 100.048H304ZM306 103.638C306 103.145 305.552 102.746 305 102.746C304.448 102.746 304 103.145 304 103.638H306ZM304 103.727C304 104.22 304.448 104.619 305 104.619C305.552 104.619 306 104.22 306 103.727H304ZM306 107.317C306 106.824 305.552 106.425 305 106.425C304.448 106.425 304 106.824 304 107.317H306ZM304 107.406C304 107.899 304.448 108.298 305 108.298C305.552 108.298 306 107.899 306 107.406H304ZM306 110.996C306 110.503 305.552 110.104 305 110.104C304.448 110.104 304 110.503 304 110.996H306ZM304 111.085C304 111.578 304.448 111.977 305 111.977C305.552 111.977 306 111.578 306 111.085H304ZM306 114.675C306 114.182 305.552 113.783 305 113.783C304.448 113.783 304 114.182 304 114.675H306ZM304 114.764C304 115.257 304.448 115.656 305 115.656C305.552 115.656 306 115.257 306 114.764H304ZM306 118.354C306 117.861 305.552 117.462 305 117.462C304.448 117.462 304 117.861 304 118.354H306ZM304 118.443C304 118.936 304.448 119.335 305 119.335C305.552 119.335 306 118.936 306 118.443H304ZM306 122.033C306 121.54 305.552 121.141 305 121.141C304.448 121.141 304 121.54 304 122.033H306ZM304 122.122C304 122.616 304.448 123.014 305 123.014C305.552 123.014 306 122.616 306 122.122H304ZM306 125.712C306 125.219 305.552 124.82 305 124.82C304.448 124.82 304 125.219 304 125.712H306ZM304 81.6081V81.6527H306V81.6081H304ZM304 85.2426V85.3318H306V85.2426H304ZM304 88.9216V89.0108H306V88.9216H304ZM304 92.6007V92.6899H306V92.6007H304ZM304 96.2797V96.3689H306V96.2797H304ZM304 99.9588V100.048H306V99.9588H304ZM304 103.638V103.727H306V103.638H304ZM304 107.317V107.406H306V107.317H304ZM304 110.996V111.085H306V110.996H304ZM304 114.675V114.764H306V114.675H304ZM304 118.354V118.443H306V118.354H304ZM304 122.033V122.122H306V122.033H304ZM304 125.712V125.757H306V125.712H304Z" fill="#F03100"/>
<path d="M273 141.811H337" stroke="#58DA95" stroke-linejoin="round"/>
<path d="M303 136.459L309 141.811L303 147.162" stroke="#58DA95" stroke-linecap="square" stroke-linejoin="round"/>
<path d="M403.401 77.5687C404.294 79.5915 402.854 81.8043 400.44 82.1076C391.522 83.2251 382.478 83.2251 373.56 82.1076C371.146 81.8043 369.706 79.5915 370.599 77.5687C373.992 69.8869 378.504 62.634 383.999 56.0471C385.504 54.2419 388.496 54.2419 390.001 56.0471C395.496 62.634 400.008 69.8869 403.401 77.5687Z" fill="#F03100"/>
<path d="M381.914 78.7289V65.638H389.815V67.0443H383.499V71.4675H389.406V72.8738H383.499V77.3227H389.917V78.7289H381.914Z" fill="white"/>
<path d="M388 81.6081C388 81.1158 387.552 80.7162 387 80.7162C386.448 80.7162 386 81.1158 386 81.6081H388ZM386 107.919C386 108.411 386.448 108.811 387 108.811C387.552 108.811 388 108.411 388 107.919H386ZM386 81.6536C386 82.1468 386.448 82.5455 387 82.5455C387.552 82.5455 388 82.1468 388 81.6536H386ZM388 85.3211C388 84.8287 387.552 84.4292 387 84.4292C386.448 84.4292 386 84.8287 386 85.3211H388ZM386 85.4129C386 85.9052 386.448 86.3048 387 86.3048C387.552 86.3048 388 85.9052 388 85.4129H386ZM388 89.0795C388 88.5872 387.552 88.1876 387 88.1876C386.448 88.1876 386 88.5872 386 89.0795H388ZM386 89.1714C386 89.6637 386.448 90.0632 387 90.0632C387.552 90.0632 388 89.6637 388 89.1714H386ZM388 92.8379C388 92.3456 387.552 91.946 387 91.946C386.448 91.946 386 92.3456 386 92.8379H388ZM386 92.9298C386 93.423 386.448 93.8217 387 93.8217C387.552 93.8217 388 93.423 388 92.9298H386ZM388 96.5972C388 96.104 387.552 95.7054 387 95.7054C386.448 95.7054 386 96.104 386 96.5972H388ZM386 96.6891C386 97.1814 386.448 97.581 387 97.581C387.552 97.581 388 97.1814 388 96.6891H386ZM388 100.356C388 99.8634 387.552 99.4638 387 99.4638C386.448 99.4638 386 99.8634 386 100.356H388ZM386 100.448C386 100.94 386.448 101.339 387 101.339C387.552 101.339 388 100.94 388 100.448H386ZM388 104.114C388 103.622 387.552 103.222 387 103.222C386.448 103.222 386 103.622 386 104.114H388ZM386 104.206C386 104.698 386.448 105.098 387 105.098C387.552 105.098 388 104.698 388 104.206H386ZM388 107.873C388 107.38 387.552 106.982 387 106.982C386.448 106.982 386 107.38 386 107.873H388ZM386 81.6081V81.6536H388V81.6081H386ZM386 85.3211V85.4129H388V85.3211H386ZM386 89.0795V89.1714H388V89.0795H386ZM386 92.8379V92.9298H388V92.8379H386ZM386 96.5972V96.6891H388V96.5972H386ZM386 100.356V100.448H388V100.356H386ZM386 104.114V104.206H388V104.114H386ZM386 107.873V107.919H388V107.873H386Z" fill="#F03100"/>
<path d="M368.628 147.071V135.435H372.696C373.507 135.435 374.175 135.575 374.702 135.855C375.228 136.132 375.621 136.505 375.878 136.975C376.136 137.441 376.264 137.958 376.264 138.526C376.264 139.026 376.175 139.439 375.997 139.765C375.823 140.09 375.592 140.348 375.304 140.537C375.02 140.727 374.711 140.867 374.378 140.958V141.071C374.734 141.094 375.092 141.219 375.452 141.446C375.812 141.674 376.113 141.999 376.355 142.424C376.598 142.848 376.719 143.367 376.719 143.98C376.719 144.564 376.586 145.088 376.321 145.554C376.056 146.02 375.638 146.39 375.066 146.662C374.494 146.935 373.749 147.071 372.833 147.071H368.628ZM370.037 145.821H372.833C373.753 145.821 374.406 145.643 374.793 145.287C375.183 144.927 375.378 144.492 375.378 143.98C375.378 143.587 375.278 143.223 375.077 142.89C374.876 142.552 374.59 142.283 374.219 142.083C373.848 141.878 373.408 141.776 372.901 141.776H370.037V145.821ZM370.037 140.549H372.651C373.075 140.549 373.458 140.465 373.799 140.299C374.143 140.132 374.416 139.897 374.617 139.594C374.821 139.291 374.924 138.935 374.924 138.526C374.924 138.015 374.746 137.581 374.389 137.225C374.033 136.865 373.469 136.685 372.696 136.685H370.037V140.549ZM384.353 143.503V138.344H385.693V147.071H384.353V145.594H384.262C384.057 146.037 383.739 146.414 383.307 146.725C382.875 147.032 382.33 147.185 381.671 147.185C381.125 147.185 380.64 147.066 380.216 146.827C379.792 146.585 379.459 146.221 379.216 145.736C378.974 145.247 378.853 144.632 378.853 143.89V138.344H380.193V143.799C380.193 144.435 380.371 144.943 380.728 145.321C381.087 145.7 381.546 145.89 382.103 145.89C382.436 145.89 382.775 145.804 383.12 145.634C383.468 145.463 383.76 145.202 383.995 144.85C384.233 144.497 384.353 144.049 384.353 143.503ZM388.149 147.071V138.344H389.49V147.071H388.149ZM388.831 136.89C388.57 136.89 388.344 136.801 388.155 136.622C387.969 136.444 387.877 136.23 387.877 135.98C387.877 135.73 387.969 135.516 388.155 135.338C388.344 135.16 388.57 135.071 388.831 135.071C389.093 135.071 389.316 135.16 389.502 135.338C389.691 135.516 389.786 135.73 389.786 135.98C389.786 136.23 389.691 136.444 389.502 136.622C389.316 136.801 389.093 136.89 388.831 136.89ZM393.287 135.435V147.071H391.946V135.435H393.287ZM399.039 147.253C398.311 147.253 397.669 147.069 397.112 146.702C396.556 146.331 396.12 145.808 395.806 145.134C395.491 144.456 395.334 143.655 395.334 142.73C395.334 141.814 395.491 141.018 395.806 140.344C396.12 139.67 396.558 139.149 397.118 138.782C397.679 138.414 398.326 138.23 399.061 138.23C399.63 138.23 400.078 138.325 400.408 138.515C400.741 138.7 400.995 138.912 401.169 139.151C401.347 139.386 401.486 139.579 401.584 139.73H401.698V135.435H403.039V147.071H401.743V145.73H401.584C401.486 145.89 401.345 146.09 401.164 146.333C400.982 146.571 400.722 146.785 400.385 146.975C400.048 147.16 399.599 147.253 399.039 147.253ZM399.22 146.049C399.758 146.049 400.213 145.908 400.584 145.628C400.955 145.344 401.237 144.952 401.431 144.452C401.624 143.948 401.72 143.367 401.72 142.708C401.72 142.056 401.626 141.486 401.436 140.997C401.247 140.505 400.967 140.122 400.595 139.85C400.224 139.573 399.766 139.435 399.22 139.435C398.652 139.435 398.179 139.581 397.8 139.872C397.425 140.16 397.143 140.552 396.953 141.049C396.768 141.541 396.675 142.094 396.675 142.708C396.675 143.329 396.77 143.893 396.959 144.401C397.152 144.905 397.436 145.306 397.811 145.605C398.19 145.901 398.66 146.049 399.22 146.049Z" fill="#102B2D"/>
<path d="M395 108.811H379C358.565 108.811 342 123.585 342 141.811C342 160.036 358.565 174.811 379 174.811H395C415.435 174.811 432 160.036 432 141.811C432 123.585 415.435 108.811 395 108.811Z" stroke="#58DA95" stroke-width="2"/>
<path d="M387 204.243V179.27" stroke="#58DA95" stroke-linejoin="round"/>
<path d="M381 193.541L387 188.189L393 193.541" stroke="#58DA95" stroke-linecap="square" stroke-linejoin="round"/>
<path d="M485.401 77.5687C486.294 79.5915 484.854 81.8043 482.44 82.1076C473.522 83.2251 464.478 83.2251 455.56 82.1076C453.146 81.8043 451.706 79.5915 452.599 77.5687C455.992 69.8869 460.504 62.634 465.999 56.0471C467.504 54.2419 470.496 54.2419 472.001 56.0471C477.496 62.634 482.008 69.8869 485.401 77.5687Z" fill="#F03100"/>
<path d="M464.925 78.7289V65.638H472.775V67.0443H466.51V71.4675H472.187V72.8738H466.51V78.7289H464.925Z" fill="white"/>
<path d="M470 81.6081C470 81.1158 469.552 80.7162 469 80.7162C468.448 80.7162 468 81.1158 468 81.6081H470ZM468 125.757C468 126.249 468.448 126.649 469 126.649C469.552 126.649 470 126.249 470 125.757H468ZM468 81.6527C468 82.1459 468.448 82.5446 469 82.5446C469.552 82.5446 470 82.1459 470 81.6527H468ZM470 85.2426C470 84.7493 469.552 84.3507 469 84.3507C468.448 84.3507 468 84.7493 468 85.2426H470ZM468 85.3318C468 85.825 468.448 86.2237 469 86.2237C469.552 86.2237 470 85.825 470 85.3318H468ZM470 88.9216C470 88.4284 469.552 88.0297 469 88.0297C468.448 88.0297 468 88.4284 468 88.9216H470ZM468 89.0108C468 89.504 468.448 89.9027 469 89.9027C469.552 89.9027 470 89.504 470 89.0108H468ZM470 92.6007C470 92.1075 469.552 91.7088 469 91.7088C468.448 91.7088 468 92.1075 468 92.6007H470ZM468 92.6899C468 93.1831 468.448 93.5818 469 93.5818C469.552 93.5818 470 93.1831 470 92.6899H468ZM470 96.2797C470 95.7865 469.552 95.3878 469 95.3878C468.448 95.3878 468 95.7865 468 96.2797H470ZM468 96.3689C468 96.8621 468.448 97.2608 469 97.2608C469.552 97.2608 470 96.8621 470 96.3689H468ZM470 99.9588C470 99.4656 469.552 99.0669 469 99.0669C468.448 99.0669 468 99.4656 468 99.9588H470ZM468 100.048C468 100.541 468.448 100.94 469 100.94C469.552 100.94 470 100.541 470 100.048H468ZM470 103.638C470 103.145 469.552 102.746 469 102.746C468.448 102.746 468 103.145 468 103.638H470ZM468 103.727C468 104.22 468.448 104.619 469 104.619C469.552 104.619 470 104.22 470 103.727H468ZM470 107.317C470 106.824 469.552 106.425 469 106.425C468.448 106.425 468 106.824 468 107.317H470ZM468 107.406C468 107.899 468.448 108.298 469 108.298C469.552 108.298 470 107.899 470 107.406H468ZM470 110.996C470 110.503 469.552 110.104 469 110.104C468.448 110.104 468 110.503 468 110.996H470ZM468 111.085C468 111.578 468.448 111.977 469 111.977C469.552 111.977 470 111.578 470 111.085H468ZM470 114.675C470 114.182 469.552 113.783 469 113.783C468.448 113.783 468 114.182 468 114.675H470ZM468 114.764C468 115.257 468.448 115.656 469 115.656C469.552 115.656 470 115.257 470 114.764H468ZM470 118.354C470 117.861 469.552 117.462 469 117.462C468.448 117.462 468 117.861 468 118.354H470ZM468 118.443C468 118.936 468.448 119.335 469 119.335C469.552 119.335 470 118.936 470 118.443H468ZM470 122.033C470 121.54 469.552 121.141 469 121.141C468.448 121.141 468 121.54 468 122.033H470ZM468 122.122C468 122.616 468.448 123.014 469 123.014C469.552 123.014 470 122.616 470 122.122H468ZM470 125.712C470 125.219 469.552 124.82 469 124.82C468.448 124.82 468 125.219 468 125.712H470ZM468 81.6081V81.6527H470V81.6081H468ZM468 85.2426V85.3318H470V85.2426H468ZM468 88.9216V89.0108H470V88.9216H468ZM468 92.6007V92.6899H470V92.6007H468ZM468 96.2797V96.3689H470V96.2797H468ZM468 99.9588V100.048H470V99.9588H468ZM468 103.638V103.727H470V103.638H468ZM468 107.317V107.406H470V107.317H468ZM468 110.996V111.085H470V110.996H468ZM468 114.675V114.764H470V114.675H468ZM468 118.354V118.443H470V118.354H468ZM468 122.033V122.122H470V122.033H468ZM468 125.712V125.757H470V125.712H468Z" fill="#F03100"/>
<path d="M437 141.811H501" stroke="#58DA95" stroke-linejoin="round"/>
<path d="M467 136.459L473 141.811L467 147.162" stroke="#58DA95" stroke-linecap="square" stroke-linejoin="round"/>
<path d="M310.932 242.595C311.484 242.595 311.932 242.195 311.932 241.703C311.932 241.21 311.484 240.811 310.932 240.811V242.595ZM285.932 240.811C285.38 240.811 284.932 241.21 284.932 241.703C284.932 242.195 285.38 242.595 285.932 242.595V240.811ZM310.881 240.811C310.329 240.811 309.881 241.21 309.881 241.703C309.881 242.195 310.329 242.595 310.881 242.595V240.811ZM306.816 242.595C307.369 242.595 307.816 242.195 307.816 241.703C307.816 241.21 307.369 240.811 306.816 240.811V242.595ZM306.715 240.811C306.162 240.811 305.715 241.21 305.715 241.703C305.715 242.195 306.162 242.595 306.715 242.595V240.811ZM302.65 242.595C303.202 242.595 303.65 242.195 303.65 241.703C303.65 241.21 303.202 240.811 302.65 240.811V242.595ZM302.548 240.811C301.996 240.811 301.548 241.21 301.548 241.703C301.548 242.195 301.996 242.595 302.548 242.595V240.811ZM298.483 242.595C299.035 242.595 299.483 242.195 299.483 241.703C299.483 241.21 299.035 240.811 298.483 240.811V242.595ZM298.381 240.811C297.829 240.811 297.381 241.21 297.381 241.703C297.381 242.195 297.829 242.595 298.381 242.595V240.811ZM294.316 242.595C294.869 242.595 295.316 242.195 295.316 241.703C295.316 241.21 294.869 240.811 294.316 240.811V242.595ZM294.215 240.811C293.662 240.811 293.215 241.21 293.215 241.703C293.215 242.195 293.662 242.595 294.215 242.595V240.811ZM290.15 242.595C290.702 242.595 291.15 242.195 291.15 241.703C291.15 241.21 290.702 240.811 290.15 240.811V242.595ZM290.048 240.811C289.496 240.811 289.048 241.21 289.048 241.703C289.048 242.195 289.496 242.595 290.048 242.595V240.811ZM285.983 242.595C286.535 242.595 286.983 242.195 286.983 241.703C286.983 241.21 286.535 240.811 285.983 240.811V242.595ZM310.932 240.811H310.881V242.595H310.932V240.811ZM306.816 240.811H306.715V242.595H306.816V240.811ZM302.65 240.811H302.548V242.595H302.65V240.811ZM298.483 240.811H298.381V242.595H298.483V240.811ZM294.316 240.811H294.215V242.595H294.316V240.811ZM290.15 240.811H290.048V242.595H290.15V240.811ZM285.983 240.811H285.932V242.595H285.983V240.811Z" fill="#F03100"/>
<path d="M303.401 250.596C304.294 252.619 302.854 254.831 300.44 255.135C291.522 256.252 282.478 256.252 273.56 255.135C271.146 254.831 269.706 252.619 270.599 250.596C273.992 242.914 278.504 235.661 283.999 229.074C285.504 227.269 288.496 227.269 290.001 229.074C295.496 235.661 300.008 242.914 303.401 250.596Z" fill="#F03100"/>
<path d="M286.736 251.756H282.696V238.665H286.915C288.185 238.665 289.272 238.927 290.175 239.451C291.078 239.971 291.771 240.719 292.252 241.695C292.734 242.666 292.975 243.83 292.975 245.185C292.975 246.549 292.732 247.723 292.246 248.707C291.76 249.687 291.053 250.441 290.124 250.97C289.195 251.494 288.066 251.756 286.736 251.756ZM284.281 250.35H286.634C287.716 250.35 288.613 250.141 289.325 249.723C290.036 249.306 290.567 248.711 290.916 247.94C291.266 247.169 291.441 246.25 291.441 245.185C291.441 244.128 291.268 243.218 290.923 242.456C290.578 241.688 290.062 241.1 289.376 240.691C288.69 240.278 287.835 240.071 286.813 240.071H284.281V250.35Z" fill="white"/>
<path d="M343.672 247.109H340.13V235.632H343.828C344.942 235.632 345.894 235.861 346.687 236.321C347.479 236.777 348.086 237.432 348.508 238.288C348.93 239.14 349.141 240.16 349.141 241.348C349.141 242.543 348.928 243.572 348.502 244.435C348.076 245.295 347.456 245.956 346.642 246.419C345.827 246.879 344.837 247.109 343.672 247.109ZM341.52 245.876H343.582C344.531 245.876 345.317 245.693 345.941 245.327C346.565 244.96 347.03 244.439 347.337 243.763C347.643 243.087 347.796 242.282 347.796 241.348C347.796 240.421 347.645 239.623 347.342 238.955C347.04 238.282 346.588 237.767 345.986 237.408C345.385 237.046 344.635 236.864 343.739 236.864H341.52V245.876ZM354.902 247.288C354.073 247.288 353.357 247.105 352.756 246.739C352.158 246.369 351.697 245.853 351.372 245.192C351.05 244.527 350.89 243.754 350.89 242.872C350.89 241.99 351.05 241.213 351.372 240.541C351.697 239.864 352.149 239.338 352.728 238.96C353.311 238.579 353.99 238.389 354.768 238.389C355.216 238.389 355.659 238.463 356.096 238.613C356.533 238.762 356.931 239.005 357.289 239.341C357.648 239.674 357.934 240.115 358.147 240.664C358.36 241.213 358.466 241.889 358.466 242.693V243.253H351.831V242.11H357.121C357.121 241.624 357.024 241.191 356.83 240.81C356.639 240.429 356.367 240.128 356.012 239.907C355.66 239.687 355.246 239.577 354.768 239.577C354.241 239.577 353.785 239.708 353.4 239.969C353.019 240.227 352.726 240.563 352.52 240.978C352.315 241.392 352.212 241.837 352.212 242.312V243.074C352.212 243.724 352.324 244.275 352.548 244.727C352.776 245.175 353.092 245.517 353.495 245.752C353.899 245.984 354.368 246.1 354.902 246.1C355.25 246.1 355.563 246.051 355.844 245.954C356.127 245.853 356.372 245.704 356.578 245.506C356.783 245.304 356.942 245.054 357.054 244.755L358.332 245.114C358.197 245.547 357.971 245.928 357.654 246.257C357.336 246.582 356.944 246.836 356.477 247.019C356.01 247.198 355.485 247.288 354.902 247.288ZM360.478 250.337V238.501H361.756V239.868H361.913C362.01 239.719 362.144 239.528 362.316 239.297C362.492 239.061 362.742 238.852 363.067 238.669C363.396 238.482 363.841 238.389 364.401 238.389C365.126 238.389 365.765 238.57 366.318 238.932C366.87 239.295 367.302 239.808 367.612 240.473C367.922 241.138 368.077 241.923 368.077 242.827C368.077 243.739 367.922 244.529 367.612 245.198C367.302 245.863 366.872 246.378 366.323 246.744C365.774 247.107 365.141 247.288 364.423 247.288C363.87 247.288 363.428 247.196 363.095 247.013C362.763 246.827 362.507 246.615 362.327 246.38C362.148 246.141 362.01 245.943 361.913 245.786H361.801V250.337H360.478ZM361.778 242.805C361.778 243.455 361.874 244.028 362.064 244.525C362.255 245.018 362.533 245.405 362.899 245.685C363.265 245.962 363.713 246.1 364.244 246.1C364.797 246.1 365.258 245.954 365.628 245.663C366.002 245.368 366.282 244.972 366.469 244.475C366.659 243.974 366.755 243.417 366.755 242.805C366.755 242.199 366.661 241.654 366.474 241.168C366.291 240.679 366.013 240.292 365.639 240.008C365.27 239.721 364.804 239.577 364.244 239.577C363.706 239.577 363.254 239.713 362.888 239.986C362.522 240.255 362.245 240.632 362.058 241.118C361.872 241.6 361.778 242.162 361.778 242.805ZM373.704 247.288C372.874 247.288 372.159 247.105 371.557 246.739C370.96 246.369 370.498 245.853 370.173 245.192C369.852 244.527 369.691 243.754 369.691 242.872C369.691 241.99 369.852 241.213 370.173 240.541C370.498 239.864 370.95 239.338 371.529 238.96C372.112 238.579 372.792 238.389 373.569 238.389C374.017 238.389 374.46 238.463 374.897 238.613C375.334 238.762 375.732 239.005 376.091 239.341C376.45 239.674 376.735 240.115 376.948 240.664C377.161 241.213 377.268 241.889 377.268 242.693V243.253H370.633V242.11H375.923C375.923 241.624 375.826 241.191 375.631 240.81C375.441 240.429 375.168 240.128 374.813 239.907C374.462 239.687 374.047 239.577 373.569 239.577C373.042 239.577 372.587 239.708 372.202 239.969C371.821 240.227 371.527 240.563 371.322 240.978C371.116 241.392 371.014 241.837 371.014 242.312V243.074C371.014 243.724 371.126 244.275 371.35 244.727C371.578 245.175 371.894 245.517 372.297 245.752C372.701 245.984 373.169 246.1 373.704 246.1C374.051 246.1 374.365 246.051 374.645 245.954C374.929 245.853 375.174 245.704 375.379 245.506C375.585 245.304 375.744 245.054 375.856 244.755L377.133 245.114C376.999 245.547 376.773 245.928 376.455 246.257C376.138 246.582 375.745 246.836 375.278 247.019C374.811 247.198 374.286 247.288 373.704 247.288ZM382.53 247.288C381.813 247.288 381.179 247.107 380.63 246.744C380.081 246.378 379.651 245.863 379.341 245.198C379.031 244.529 378.876 243.739 378.876 242.827C378.876 241.923 379.031 241.138 379.341 240.473C379.651 239.808 380.083 239.295 380.636 238.932C381.189 238.57 381.828 238.389 382.552 238.389C383.113 238.389 383.556 238.482 383.881 238.669C384.209 238.852 384.46 239.061 384.632 239.297C384.807 239.528 384.944 239.719 385.041 239.868H385.153V235.632H386.475V247.109H385.198V245.786H385.041C384.944 245.943 384.805 246.141 384.626 246.38C384.447 246.615 384.191 246.827 383.858 247.013C383.526 247.196 383.083 247.288 382.53 247.288ZM382.709 246.1C383.24 246.1 383.688 245.962 384.054 245.685C384.42 245.405 384.699 245.018 384.889 244.525C385.08 244.028 385.175 243.455 385.175 242.805C385.175 242.162 385.082 241.6 384.895 241.118C384.708 240.632 384.432 240.255 384.066 239.986C383.699 239.713 383.247 239.577 382.709 239.577C382.149 239.577 381.682 239.721 381.308 240.008C380.938 240.292 380.66 240.679 380.473 241.168C380.29 241.654 380.199 242.199 380.199 242.805C380.199 243.417 380.292 243.974 380.479 244.475C380.669 244.972 380.95 245.368 381.32 245.663C381.693 245.954 382.156 246.1 382.709 246.1ZM392.69 247.288C391.861 247.288 391.145 247.105 390.544 246.739C389.946 246.369 389.485 245.853 389.16 245.192C388.838 244.527 388.678 243.754 388.678 242.872C388.678 241.99 388.838 241.213 389.16 240.541C389.485 239.864 389.937 239.338 390.516 238.96C391.099 238.579 391.779 238.389 392.556 238.389C393.004 238.389 393.447 238.463 393.884 238.613C394.321 238.762 394.719 239.005 395.077 239.341C395.436 239.674 395.722 240.115 395.935 240.664C396.148 241.213 396.254 241.889 396.254 242.693V243.253H389.619V242.11H394.909C394.909 241.624 394.812 241.191 394.618 240.81C394.427 240.429 394.155 240.128 393.8 239.907C393.449 239.687 393.034 239.577 392.556 239.577C392.029 239.577 391.573 239.708 391.188 239.969C390.807 240.227 390.514 240.563 390.308 240.978C390.103 241.392 390 241.837 390 242.312V243.074C390 243.724 390.112 244.275 390.336 244.727C390.564 245.175 390.88 245.517 391.284 245.752C391.687 245.984 392.156 246.1 392.69 246.1C393.038 246.1 393.351 246.051 393.632 245.954C393.916 245.853 394.16 245.704 394.366 245.506C394.571 245.304 394.73 245.054 394.842 244.755L396.12 245.114C395.985 245.547 395.759 245.928 395.442 246.257C395.124 246.582 394.732 246.836 394.265 247.019C393.798 247.198 393.273 247.288 392.69 247.288ZM399.589 241.93V247.109H398.266V238.501H399.544V239.846H399.656C399.858 239.409 400.164 239.057 400.575 238.792C400.986 238.523 401.517 238.389 402.167 238.389C402.749 238.389 403.259 238.508 403.697 238.747C404.134 238.983 404.474 239.341 404.716 239.823C404.959 240.302 405.081 240.907 405.081 241.639V247.109H403.758V241.729C403.758 241.053 403.583 240.526 403.231 240.148C402.88 239.767 402.398 239.577 401.786 239.577C401.363 239.577 400.986 239.668 400.654 239.851C400.325 240.034 400.065 240.302 399.875 240.653C399.684 241.004 399.589 241.43 399.589 241.93ZM410.994 247.288C410.187 247.288 409.493 247.097 408.91 246.716C408.327 246.335 407.879 245.81 407.565 245.142C407.251 244.473 407.094 243.709 407.094 242.85C407.094 241.975 407.255 241.204 407.576 240.535C407.901 239.863 408.353 239.338 408.932 238.96C409.515 238.579 410.195 238.389 410.972 238.389C411.577 238.389 412.123 238.501 412.608 238.725C413.094 238.949 413.492 239.263 413.802 239.666C414.112 240.07 414.305 240.541 414.379 241.079H413.057C412.956 240.686 412.732 240.339 412.384 240.036C412.04 239.73 411.577 239.577 410.994 239.577C410.479 239.577 410.027 239.711 409.638 239.98C409.253 240.246 408.953 240.621 408.736 241.107C408.523 241.589 408.417 242.155 408.417 242.805C408.417 243.47 408.521 244.049 408.73 244.542C408.943 245.035 409.242 245.418 409.627 245.691C410.016 245.964 410.471 246.1 410.994 246.1C411.338 246.1 411.65 246.04 411.93 245.921C412.21 245.801 412.448 245.629 412.642 245.405C412.836 245.181 412.974 244.912 413.057 244.598H414.379C414.305 245.106 414.12 245.564 413.824 245.971C413.533 246.374 413.146 246.696 412.664 246.935C412.186 247.17 411.63 247.288 410.994 247.288ZM416.313 247.109V238.501H417.635V247.109H416.313ZM416.985 237.066C416.727 237.066 416.505 236.978 416.318 236.803C416.135 236.627 416.044 236.416 416.044 236.17C416.044 235.923 416.135 235.712 416.318 235.536C416.505 235.361 416.727 235.273 416.985 235.273C417.243 235.273 417.463 235.361 417.646 235.536C417.833 235.712 417.927 235.923 417.927 236.17C417.927 236.416 417.833 236.627 417.646 236.803C417.463 236.978 417.243 237.066 416.985 237.066ZM423.667 247.288C422.837 247.288 422.122 247.105 421.52 246.739C420.922 246.369 420.461 245.853 420.136 245.192C419.815 244.527 419.654 243.754 419.654 242.872C419.654 241.99 419.815 241.213 420.136 240.541C420.461 239.864 420.913 239.338 421.492 238.96C422.075 238.579 422.755 238.389 423.532 238.389C423.98 238.389 424.423 238.463 424.86 238.613C425.297 238.762 425.695 239.005 426.054 239.341C426.413 239.674 426.698 240.115 426.911 240.664C427.124 241.213 427.231 241.889 427.231 242.693V243.253H420.596V242.11H425.886C425.886 241.624 425.789 241.191 425.594 240.81C425.404 240.429 425.131 240.128 424.776 239.907C424.425 239.687 424.01 239.577 423.532 239.577C423.005 239.577 422.549 239.708 422.165 239.969C421.784 240.227 421.49 240.563 421.285 240.978C421.079 241.392 420.977 241.837 420.977 242.312V243.074C420.977 243.724 421.089 244.275 421.313 244.727C421.541 245.175 421.856 245.517 422.26 245.752C422.663 245.984 423.132 246.1 423.667 246.1C424.014 246.1 424.328 246.051 424.608 245.954C424.892 245.853 425.137 245.704 425.342 245.506C425.548 245.304 425.706 245.054 425.818 244.755L427.096 245.114C426.962 245.547 426.736 245.928 426.418 246.257C426.101 246.582 425.708 246.836 425.241 247.019C424.774 247.198 424.249 247.288 423.667 247.288ZM435.34 240.429L434.152 240.765C434.077 240.567 433.967 240.374 433.821 240.188C433.679 239.997 433.485 239.84 433.238 239.717C432.992 239.594 432.676 239.532 432.291 239.532C431.764 239.532 431.325 239.653 430.974 239.896C430.627 240.135 430.453 240.44 430.453 240.81C430.453 241.138 430.573 241.398 430.812 241.589C431.051 241.779 431.424 241.938 431.933 242.065L433.21 242.379C433.98 242.566 434.553 242.851 434.931 243.236C435.308 243.617 435.497 244.109 435.497 244.71C435.497 245.203 435.355 245.644 435.071 246.033C434.791 246.421 434.398 246.728 433.894 246.952C433.39 247.176 432.803 247.288 432.134 247.288C431.256 247.288 430.53 247.097 429.954 246.716C429.379 246.335 429.015 245.779 428.861 245.046L430.117 244.733C430.236 245.196 430.462 245.543 430.795 245.775C431.131 246.006 431.57 246.122 432.112 246.122C432.728 246.122 433.218 245.992 433.58 245.73C433.946 245.465 434.129 245.147 434.129 244.777C434.129 244.478 434.025 244.228 433.815 244.026C433.606 243.821 433.285 243.668 432.852 243.567L431.417 243.231C430.629 243.044 430.05 242.754 429.68 242.362C429.314 241.966 429.13 241.471 429.13 240.877C429.13 240.391 429.267 239.962 429.54 239.588C429.816 239.214 430.192 238.921 430.666 238.708C431.144 238.495 431.686 238.389 432.291 238.389C433.143 238.389 433.812 238.576 434.297 238.949C434.787 239.323 435.134 239.816 435.34 240.429Z" fill="#102B2D"/>
<path d="M453.5 207.811H320.5C316.082 207.811 312.5 211.005 312.5 214.946V268.459C312.5 272.4 316.082 275.595 320.5 275.595H453.5C457.918 275.595 461.5 272.4 461.5 268.459V214.946C461.5 211.005 457.918 207.811 453.5 207.811Z" stroke="#58DA95" stroke-width="2" stroke-linecap="square" stroke-dasharray="5 5"/>
<mask id="mask0_3_254" style="mask-type:luminance" maskUnits="userSpaceOnUse" x="461" y="235" width="44" height="13">
<path d="M505 235.459H461.5V247.946H505V235.459Z" fill="white"/>
</mask>
<g mask="url(#mask0_3_254)">
<path d="M512.568 179.27V234.568C512.568 238.508 508.986 241.703 504.568 241.703H466.568" stroke="#58DA95" stroke-linejoin="round" stroke-dasharray="6 6"/>
</g>
<path d="M269 293.432V295.216C269 298.172 271.686 300.568 275 300.568H499C502.314 300.568 505 298.172 505 295.216V293.432" stroke="#155757"/>
<path d="M321.328 315.297H318.635V306.569H321.447C322.294 306.569 323.018 306.744 323.621 307.094C324.223 307.44 324.685 307.939 325.006 308.589C325.327 309.237 325.487 310.013 325.487 310.916C325.487 311.825 325.325 312.608 325.001 313.264C324.677 313.917 324.206 314.42 323.587 314.773C322.967 315.122 322.214 315.297 321.328 315.297ZM319.692 314.359H321.26C321.981 314.359 322.579 314.22 323.054 313.942C323.528 313.663 323.882 313.267 324.115 312.753C324.348 312.239 324.464 311.626 324.464 310.916C324.464 310.212 324.349 309.605 324.119 309.096C323.889 308.585 323.545 308.193 323.088 307.92C322.631 307.645 322.061 307.507 321.379 307.507H319.692V314.359ZM327.26 315.297V306.569H332.527V307.507H328.317V310.456H332.254V311.393H328.317V314.359H332.595V315.297H327.26ZM334.432 315.297V306.569H337.381C338.065 306.569 338.625 306.693 339.06 306.94C339.497 307.185 339.821 307.516 340.031 307.933C340.241 308.351 340.346 308.817 340.346 309.331C340.346 309.845 340.241 310.312 340.031 310.733C339.824 311.153 339.503 311.489 339.068 311.739C338.633 311.986 338.077 312.109 337.398 312.109H335.284V311.172H337.364C337.832 311.172 338.209 311.091 338.493 310.929C338.777 310.767 338.983 310.548 339.111 310.273C339.241 309.994 339.307 309.68 339.307 309.331C339.307 308.981 339.241 308.669 339.111 308.393C338.983 308.118 338.775 307.902 338.489 307.746C338.202 307.587 337.821 307.507 337.346 307.507H335.489V315.297H334.432ZM342.049 315.297V306.569H347.316V307.507H343.106V310.456H347.043V311.393H343.106V314.359H347.384V315.297H342.049ZM356.141 306.569V315.297H355.118L350.363 308.444H350.278V315.297H349.221V306.569H350.243L355.016 313.439H355.101V306.569H356.141ZM360.949 315.297H358.256V306.569H361.068C361.915 306.569 362.639 306.744 363.242 307.094C363.844 307.44 364.306 307.939 364.627 308.589C364.948 309.237 365.108 310.013 365.108 310.916C365.108 311.825 364.946 312.608 364.622 313.264C364.299 313.917 363.827 314.42 363.208 314.773C362.588 315.122 361.835 315.297 360.949 315.297ZM359.313 314.359H360.881C361.603 314.359 362.201 314.22 362.675 313.942C363.149 313.663 363.503 313.267 363.736 312.753C363.969 312.239 364.085 311.626 364.085 310.916C364.085 310.212 363.97 309.605 363.74 309.096C363.51 308.585 363.166 308.193 362.709 307.92C362.252 307.645 361.682 307.507 361 307.507H359.313V314.359ZM366.881 315.297V306.569H372.148V307.507H367.938V310.456H371.875V311.393H367.938V314.359H372.216V315.297H366.881ZM380.973 306.569V315.297H379.951L375.195 308.444H375.11V315.297H374.053V306.569H375.076L379.848 313.439H379.933V306.569H380.973ZM390.111 309.297H389.054C388.991 308.993 388.882 308.726 388.726 308.496C388.572 308.266 388.385 308.072 388.163 307.916C387.944 307.757 387.702 307.638 387.435 307.558C387.167 307.479 386.889 307.439 386.599 307.439C386.071 307.439 385.592 307.572 385.163 307.839C384.737 308.106 384.398 308.5 384.145 309.02C383.895 309.54 383.77 310.177 383.77 310.933C383.77 311.689 383.895 312.327 384.145 312.846C384.398 313.366 384.737 313.76 385.163 314.027C385.592 314.294 386.071 314.427 386.599 314.427C386.889 314.427 387.167 314.388 387.435 314.308C387.702 314.229 387.944 314.111 388.163 313.954C388.385 313.795 388.572 313.601 388.726 313.371C388.882 313.138 388.991 312.871 389.054 312.569H390.111C390.031 313.016 389.886 313.415 389.676 313.767C389.466 314.119 389.204 314.419 388.892 314.666C388.579 314.91 388.229 315.096 387.839 315.224C387.453 315.352 387.04 315.416 386.599 315.416C385.855 315.416 385.193 315.234 384.614 314.871C384.034 314.507 383.578 313.99 383.246 313.319C382.913 312.649 382.747 311.854 382.747 310.933C382.747 310.013 382.913 309.217 383.246 308.547C383.578 307.876 384.034 307.359 384.614 306.996C385.193 306.632 385.855 306.45 386.599 306.45C387.04 306.45 387.453 306.514 387.839 306.642C388.229 306.77 388.579 306.957 388.892 307.204C389.204 307.449 389.466 307.747 389.676 308.099C389.886 308.449 390.031 308.848 390.111 309.297ZM391.068 306.569H392.279L394.699 310.643H394.801L397.222 306.569H398.432L395.279 311.7V315.297H394.222V311.7L391.068 306.569ZM402.697 307.507V306.569H409.242V307.507H406.498V315.297H405.441V307.507H402.697ZM410.873 315.297V306.569H411.93V310.456H416.583V306.569H417.64V315.297H416.583V311.393H411.93V315.297H410.873ZM419.756 315.297V306.569H422.705C423.387 306.569 423.946 306.686 424.384 306.919C424.821 307.149 425.145 307.466 425.355 307.869C425.566 308.273 425.671 308.731 425.671 309.246C425.671 309.76 425.566 310.216 425.355 310.614C425.145 311.011 424.823 311.324 424.388 311.551C423.953 311.775 423.398 311.888 422.722 311.888H420.335V310.933H422.688C423.154 310.933 423.529 310.865 423.813 310.729C424.1 310.592 424.307 310.399 424.435 310.149C424.566 309.896 424.631 309.595 424.631 309.246C424.631 308.896 424.566 308.591 424.435 308.329C424.304 308.068 424.095 307.866 423.808 307.724C423.522 307.579 423.142 307.507 422.671 307.507H420.813V315.297H419.756ZM423.864 311.376L426.012 315.297H424.784L422.671 311.376H423.864ZM427.432 315.297V306.569H432.699V307.507H428.489V310.456H432.426V311.393H428.489V314.359H432.767V315.297H427.432ZM434.962 315.297H433.854L437.058 306.569H438.149L441.354 315.297H440.246L437.638 307.95H437.569L434.962 315.297ZM435.371 311.888H439.837V312.825H435.371V311.888ZM441.216 307.507V306.569H447.762V307.507H445.017V315.297H443.96V307.507H441.216ZM454.165 308.751C454.114 308.319 453.907 307.984 453.543 307.746C453.18 307.507 452.734 307.388 452.205 307.388C451.819 307.388 451.481 307.45 451.191 307.575C450.904 307.7 450.68 307.872 450.518 308.091C450.359 308.31 450.279 308.558 450.279 308.837C450.279 309.069 450.334 309.27 450.445 309.437C450.559 309.602 450.704 309.74 450.88 309.851C451.056 309.959 451.241 310.048 451.434 310.119C451.627 310.187 451.805 310.243 451.966 310.285L452.853 310.524C453.08 310.584 453.333 310.666 453.611 310.771C453.893 310.876 454.161 311.02 454.417 311.202C454.675 311.381 454.888 311.611 455.056 311.892C455.224 312.173 455.307 312.518 455.307 312.927C455.307 313.399 455.184 313.825 454.937 314.206C454.692 314.587 454.334 314.889 453.863 315.114C453.394 315.338 452.824 315.45 452.154 315.45C451.529 315.45 450.988 315.349 450.53 315.148C450.076 314.946 449.718 314.665 449.457 314.304C449.198 313.943 449.052 313.524 449.018 313.047H450.109C450.137 313.376 450.248 313.649 450.441 313.865C450.637 314.078 450.884 314.237 451.182 314.342C451.484 314.444 451.807 314.496 452.154 314.496C452.557 314.496 452.92 314.43 453.241 314.3C453.562 314.166 453.816 313.981 454.003 313.746C454.191 313.507 454.285 313.229 454.285 312.91C454.285 312.621 454.204 312.385 454.042 312.203C453.88 312.021 453.667 311.873 453.403 311.76C453.138 311.646 452.853 311.547 452.546 311.462L451.472 311.155C450.79 310.959 450.251 310.679 449.853 310.315C449.455 309.952 449.256 309.476 449.256 308.888C449.256 308.399 449.388 307.973 449.653 307.609C449.92 307.243 450.278 306.959 450.726 306.757C451.178 306.552 451.682 306.45 452.239 306.45C452.802 306.45 453.302 306.551 453.739 306.753C454.177 306.952 454.523 307.224 454.779 307.571C455.038 307.917 455.174 308.311 455.188 308.751H454.165Z" fill="#155757"/>
<path d="M579.401 77.5687C580.294 79.5915 578.854 81.8043 576.44 82.1076C567.522 83.2251 558.478 83.2251 549.56 82.1076C547.146 81.8043 545.706 79.5915 546.599 77.5687C549.992 69.8869 554.504 62.634 559.999 56.0471C561.504 54.2419 564.496 54.2419 566.002 56.0471C571.496 62.634 576.008 69.8869 579.401 77.5687Z" fill="#F03100"/>
<path d="M566.846 69.7289C566.705 69.2985 566.52 68.9129 566.29 68.572C566.064 68.2268 565.794 67.9327 565.478 67.6898C565.167 67.447 564.813 67.2616 564.417 67.1337C564.021 67.0059 563.586 66.942 563.113 66.942C562.338 66.942 561.632 67.1423 560.997 67.5428C560.362 67.9434 559.857 68.5336 559.482 69.3134C559.107 70.0933 558.92 71.0499 558.92 72.1835C558.92 73.317 559.11 74.2737 559.489 75.0535C559.868 75.8333 560.382 76.4235 561.029 76.8241C561.677 77.2247 562.406 77.4249 563.215 77.4249C563.965 77.4249 564.626 77.2651 565.197 76.9455C565.772 76.6217 566.22 76.1657 566.539 75.5776C566.863 74.9853 567.025 74.2886 567.025 73.4874L567.511 73.5897H563.573V72.1835H568.559V73.5897C568.559 74.6678 568.329 75.6053 567.869 76.4022C567.413 77.1991 566.782 77.817 565.977 78.2559C565.176 78.6906 564.255 78.9079 563.215 78.9079C562.056 78.9079 561.038 78.6352 560.16 78.0897C559.286 77.5443 558.605 76.7687 558.115 75.763C557.629 74.7573 557.386 73.5641 557.386 72.1835C557.386 71.1479 557.524 70.2168 557.801 69.3901C558.083 68.5592 558.479 67.8518 558.99 67.268C559.502 66.6842 560.107 66.2367 560.806 65.9256C561.504 65.6146 562.274 65.459 563.113 65.459C563.803 65.459 564.447 65.5634 565.044 65.7722C565.644 65.9768 566.179 66.2687 566.648 66.6479C567.121 67.0229 567.515 67.4725 567.83 67.9967C568.146 68.5166 568.363 69.094 568.482 69.7289H566.846Z" fill="white"/>
<path d="M564 81.6081C564 81.1158 563.552 80.7162 563 80.7162C562.448 80.7162 562 81.1158 562 81.6081H564ZM562 107.919C562 108.411 562.448 108.811 563 108.811C563.552 108.811 564 108.411 564 107.919H562ZM562 81.6536C562 82.1468 562.448 82.5455 563 82.5455C563.552 82.5455 564 82.1468 564 81.6536H562ZM564 85.3211C564 84.8287 563.552 84.4292 563 84.4292C562.448 84.4292 562 84.8287 562 85.3211H564ZM562 85.4129C562 85.9052 562.448 86.3048 563 86.3048C563.552 86.3048 564 85.9052 564 85.4129H562ZM564 89.0795C564 88.5872 563.552 88.1876 563 88.1876C562.448 88.1876 562 88.5872 562 89.0795H564ZM562 89.1714C562 89.6637 562.448 90.0632 563 90.0632C563.552 90.0632 564 89.6637 564 89.1714H562ZM564 92.8379C564 92.3456 563.552 91.946 563 91.946C562.448 91.946 562 92.3456 562 92.8379H564ZM562 92.9298C562 93.423 562.448 93.8217 563 93.8217C563.552 93.8217 564 93.423 564 92.9298H562ZM564 96.5972C564 96.104 563.552 95.7054 563 95.7054C562.448 95.7054 562 96.104 562 96.5972H564ZM562 96.6891C562 97.1814 562.448 97.581 563 97.581C563.552 97.581 564 97.1814 564 96.6891H562ZM564 100.356C564 99.8634 563.552 99.4638 563 99.4638C562.448 99.4638 562 99.8634 562 100.356H564ZM562 100.448C562 100.94 562.448 101.339 563 101.339C563.552 101.339 564 100.94 564 100.448H562ZM564 104.114C564 103.622 563.552 103.222 563 103.222C562.448 103.222 562 103.622 562 104.114H564ZM562 104.206C562 104.698 562.448 105.098 563 105.098C563.552 105.098 564 104.698 564 104.206H562ZM564 107.873C564 107.38 563.552 106.982 563 106.982C562.448 106.982 562 107.38 562 107.873H564ZM562 81.6081V81.6536H564V81.6081H562ZM562 85.3211V85.4129H564V85.3211H562ZM562 89.0795V89.1714H564V89.0795H562ZM562 92.8379V92.9298H564V92.8379H562ZM562 96.5972V96.6891H564V96.5972H562ZM562 100.356V100.448H564V100.356H562ZM562 104.114V104.206H564V104.114H562ZM562 107.873V107.919H564V107.873H562Z" fill="#F03100"/>
<path d="M532.458 147.217V135.74H536.336C537.236 135.74 537.972 135.902 538.544 136.227C539.119 136.548 539.545 136.984 539.822 137.533C540.098 138.082 540.236 138.695 540.236 139.371C540.236 140.047 540.098 140.662 539.822 141.215C539.549 141.768 539.127 142.209 538.555 142.537C537.983 142.862 537.251 143.025 536.358 143.025H533.579V141.792H536.313C536.93 141.792 537.425 141.686 537.798 141.473C538.172 141.26 538.443 140.972 538.611 140.61C538.783 140.243 538.869 139.831 538.869 139.371C538.869 138.912 538.783 138.501 538.611 138.138C538.443 137.776 538.17 137.492 537.793 137.286C537.416 137.077 536.915 136.973 536.291 136.973H533.848V147.217H532.458ZM544.829 147.418C544.283 147.418 543.788 147.316 543.344 147.11C542.899 146.901 542.546 146.6 542.284 146.208C542.023 145.812 541.892 145.334 541.892 144.773C541.892 144.28 541.989 143.88 542.184 143.574C542.378 143.264 542.638 143.021 542.963 142.846C543.288 142.67 543.646 142.539 544.039 142.453C544.435 142.364 544.832 142.293 545.232 142.24C545.755 142.173 546.179 142.123 546.504 142.089C546.833 142.052 547.072 141.99 547.222 141.904C547.375 141.818 547.451 141.669 547.451 141.456V141.411C547.451 140.858 547.3 140.428 546.998 140.122C546.699 139.816 546.245 139.662 545.636 139.662C545.004 139.662 544.509 139.801 544.151 140.077C543.792 140.354 543.54 140.649 543.394 140.963L542.139 140.514C542.363 139.991 542.662 139.584 543.035 139.293C543.413 138.997 543.824 138.792 544.268 138.676C544.717 138.557 545.158 138.497 545.591 138.497C545.867 138.497 546.185 138.53 546.544 138.598C546.906 138.661 547.255 138.794 547.592 138.996C547.932 139.197 548.214 139.502 548.438 139.909C548.662 140.316 548.774 140.862 548.774 141.545V147.217H547.451V146.051H547.384C547.295 146.238 547.145 146.438 546.936 146.651C546.727 146.864 546.448 147.045 546.101 147.194C545.753 147.344 545.329 147.418 544.829 147.418ZM545.03 146.23C545.554 146.23 545.994 146.128 546.353 145.922C546.715 145.717 546.988 145.451 547.171 145.126C547.358 144.801 547.451 144.46 547.451 144.101V142.89C547.395 142.958 547.272 143.019 547.082 143.075C546.895 143.128 546.678 143.174 546.431 143.215C546.189 143.253 545.951 143.286 545.72 143.316C545.492 143.342 545.307 143.365 545.165 143.384C544.821 143.428 544.5 143.501 544.201 143.602C543.906 143.699 543.667 143.847 543.484 144.045C543.304 144.239 543.215 144.504 543.215 144.841C543.215 145.3 543.385 145.648 543.725 145.883C544.068 146.115 544.504 146.23 545.03 146.23ZM554.685 147.396C553.878 147.396 553.183 147.206 552.6 146.824C552.017 146.443 551.569 145.918 551.255 145.25C550.941 144.581 550.784 143.817 550.784 142.958C550.784 142.083 550.945 141.312 551.266 140.643C551.591 139.971 552.043 139.446 552.623 139.068C553.205 138.687 553.885 138.497 554.662 138.497C555.268 138.497 555.813 138.609 556.299 138.833C556.785 139.057 557.182 139.371 557.492 139.775C557.803 140.178 557.995 140.649 558.07 141.187H556.747C556.646 140.794 556.422 140.447 556.075 140.144C555.731 139.838 555.268 139.685 554.685 139.685C554.169 139.685 553.717 139.819 553.329 140.088C552.944 140.354 552.643 140.729 552.426 141.215C552.213 141.697 552.107 142.263 552.107 142.913C552.107 143.578 552.212 144.157 552.421 144.65C552.634 145.143 552.933 145.526 553.317 145.799C553.706 146.072 554.162 146.208 554.685 146.208C555.029 146.208 555.341 146.148 555.621 146.029C555.901 145.909 556.138 145.737 556.332 145.513C556.527 145.289 556.665 145.02 556.747 144.706H558.07C557.995 145.214 557.81 145.672 557.515 146.079C557.223 146.483 556.837 146.804 556.355 147.043C555.877 147.278 555.32 147.396 554.685 147.396ZM561.236 144.078L561.214 142.442H561.483L565.248 138.609H566.885L562.872 142.666H562.76L561.236 144.078ZM560.003 147.217V135.74H561.326V147.217H560.003ZM565.473 147.217L562.11 142.958L563.052 142.039L567.154 147.217H565.473ZM571.12 147.418C570.575 147.418 570.08 147.316 569.635 147.11C569.19 146.901 568.837 146.6 568.576 146.208C568.314 145.812 568.184 145.334 568.184 144.773C568.184 144.28 568.281 143.88 568.475 143.574C568.669 143.264 568.929 143.021 569.254 142.846C569.579 142.67 569.938 142.539 570.33 142.453C570.726 142.364 571.124 142.293 571.524 142.24C572.047 142.173 572.471 142.123 572.796 142.089C573.125 142.052 573.364 141.99 573.513 141.904C573.666 141.818 573.743 141.669 573.743 141.456V141.411C573.743 140.858 573.592 140.428 573.289 140.122C572.99 139.816 572.536 139.662 571.927 139.662C571.296 139.662 570.801 139.801 570.442 140.077C570.083 140.354 569.831 140.649 569.685 140.963L568.43 140.514C568.654 139.991 568.953 139.584 569.327 139.293C569.704 138.997 570.115 138.792 570.56 138.676C571.008 138.557 571.449 138.497 571.882 138.497C572.159 138.497 572.476 138.53 572.835 138.598C573.197 138.661 573.547 138.794 573.883 138.996C574.223 139.197 574.505 139.502 574.729 139.909C574.953 140.316 575.065 140.862 575.065 141.545V147.217H573.743V146.051H573.676C573.586 146.238 573.436 146.438 573.227 146.651C573.018 146.864 572.74 147.045 572.392 147.194C572.045 147.344 571.621 147.418 571.12 147.418ZM571.322 146.23C571.845 146.23 572.286 146.128 572.644 145.922C573.007 145.717 573.28 145.451 573.463 145.126C573.649 144.801 573.743 144.46 573.743 144.101V142.89C573.687 142.958 573.563 143.019 573.373 143.075C573.186 143.128 572.969 143.174 572.723 143.215C572.48 143.253 572.243 143.286 572.011 143.316C571.783 143.342 571.598 143.365 571.456 143.384C571.113 143.428 570.791 143.501 570.492 143.602C570.197 143.699 569.958 143.847 569.775 144.045C569.596 144.239 569.506 144.504 569.506 144.841C569.506 145.3 569.676 145.648 570.016 145.883C570.36 146.115 570.795 146.23 571.322 146.23ZM580.954 150.624C580.315 150.624 579.766 150.542 579.306 150.377C578.847 150.217 578.464 150.004 578.157 149.739C577.855 149.477 577.614 149.197 577.434 148.898L578.488 148.158C578.608 148.315 578.759 148.494 578.942 148.696C579.125 148.902 579.375 149.079 579.693 149.229C580.014 149.382 580.435 149.458 580.954 149.458C581.649 149.458 582.222 149.29 582.674 148.954C583.126 148.618 583.352 148.091 583.352 147.374V145.625H583.24C583.143 145.782 583.005 145.976 582.826 146.208C582.65 146.436 582.396 146.64 582.063 146.819C581.735 146.994 581.29 147.082 580.73 147.082C580.035 147.082 579.411 146.918 578.858 146.589C578.309 146.26 577.873 145.782 577.552 145.154C577.235 144.527 577.076 143.765 577.076 142.868C577.076 141.986 577.231 141.219 577.541 140.565C577.851 139.907 578.283 139.399 578.835 139.04C579.388 138.678 580.027 138.497 580.752 138.497C581.312 138.497 581.757 138.59 582.086 138.777C582.418 138.96 582.672 139.169 582.848 139.405C583.027 139.636 583.166 139.827 583.263 139.976H583.397V138.609H584.675V147.463C584.675 148.203 584.507 148.805 584.171 149.268C583.838 149.735 583.39 150.077 582.826 150.293C582.265 150.514 581.641 150.624 580.954 150.624ZM580.909 145.894C581.44 145.894 581.888 145.773 582.254 145.53C582.62 145.287 582.898 144.938 583.089 144.482C583.28 144.026 583.375 143.481 583.375 142.846C583.375 142.225 583.281 141.678 583.095 141.204C582.908 140.729 582.631 140.357 582.265 140.088C581.899 139.819 581.447 139.685 580.909 139.685C580.349 139.685 579.882 139.827 579.508 140.111C579.138 140.395 578.86 140.776 578.673 141.254C578.49 141.732 578.398 142.263 578.398 142.846C578.398 143.443 578.492 143.972 578.679 144.432C578.869 144.887 579.149 145.246 579.519 145.507C579.893 145.765 580.356 145.894 580.909 145.894ZM590.705 147.396C589.875 147.396 589.16 147.213 588.559 146.847C587.961 146.477 587.499 145.961 587.174 145.3C586.853 144.635 586.692 143.862 586.692 142.98C586.692 142.098 586.853 141.321 587.174 140.649C587.499 139.973 587.951 139.446 588.531 139.068C589.113 138.687 589.793 138.497 590.57 138.497C591.019 138.497 591.461 138.572 591.899 138.721C592.336 138.87 592.734 139.113 593.092 139.45C593.451 139.782 593.737 140.223 593.95 140.772C594.163 141.321 594.269 141.997 594.269 142.801V143.361H587.634V142.218H592.924C592.924 141.732 592.827 141.299 592.633 140.918C592.442 140.537 592.169 140.236 591.814 140.016C591.463 139.795 591.049 139.685 590.57 139.685C590.044 139.685 589.588 139.816 589.203 140.077C588.822 140.335 588.529 140.671 588.323 141.086C588.118 141.501 588.015 141.945 588.015 142.42V143.182C588.015 143.832 588.127 144.383 588.351 144.835C588.579 145.283 588.895 145.625 589.298 145.861C589.702 146.092 590.171 146.208 590.705 146.208C591.052 146.208 591.366 146.159 591.646 146.062C591.93 145.961 592.175 145.812 592.38 145.614C592.586 145.412 592.745 145.162 592.857 144.863L594.135 145.222C594 145.655 593.774 146.036 593.456 146.365C593.139 146.69 592.747 146.944 592.28 147.127C591.813 147.306 591.288 147.396 590.705 147.396Z" fill="#102B2D"/>
<path d="M613 108.811H513C509.134 108.811 506 111.606 506 115.054V168.568C506 172.016 509.134 174.811 513 174.811H613C616.866 174.811 620 172.016 620 168.568V115.054C620 111.606 616.866 108.811 613 108.811Z" stroke="#58DA95" stroke-width="2"/>
<mask id="mask1_3_254" style="mask-type:luminance" maskUnits="userSpaceOnUse" x="505" y="175" width="116" height="73">
<path d="M621 175.703H505V247.946H621V175.703Z" fill="white"/>
</mask>
<g mask="url(#mask1_3_254)">
<path d="M569 208.703L563 214.054L557 208.703" stroke="#58DA95" stroke-linecap="round" stroke-linejoin="round" stroke-dasharray="6 6"/>
<path d="M563 179.27V234.568C563 238.508 559.418 241.703 555 241.703H275" stroke="#58DA95" stroke-linejoin="round" stroke-dasharray="6 6"/>
</g>
<path d="M655.401 77.5687C656.294 79.5915 654.854 81.8043 652.44 82.1076C643.522 83.2251 634.478 83.2251 625.56 82.1076C623.146 81.8043 621.706 79.5915 622.599 77.5687C625.992 69.8869 630.504 62.634 635.999 56.0471C637.504 54.2419 640.496 54.2419 642.001 56.0471C647.496 62.634 652.008 69.8869 655.401 77.5687Z" fill="#F03100"/>
<path d="M633.773 78.7289V65.638H635.358V71.4675H642.339V65.638H643.924V78.7289H642.339V72.8738H635.358V78.7289H633.773Z" fill="white"/>
<path d="M640 81.6081C640 81.1158 639.552 80.7162 639 80.7162C638.448 80.7162 638 81.1158 638 81.6081H640ZM638 125.757C638 126.249 638.448 126.649 639 126.649C639.552 126.649 640 126.249 640 125.757H638ZM638 81.6527C638 82.1459 638.448 82.5446 639 82.5446C639.552 82.5446 640 82.1459 640 81.6527H638ZM640 85.2426C640 84.7493 639.552 84.3507 639 84.3507C638.448 84.3507 638 84.7493 638 85.2426H640ZM638 85.3318C638 85.825 638.448 86.2237 639 86.2237C639.552 86.2237 640 85.825 640 85.3318H638ZM640 88.9216C640 88.4284 639.552 88.0297 639 88.0297C638.448 88.0297 638 88.4284 638 88.9216H640ZM638 89.0108C638 89.504 638.448 89.9027 639 89.9027C639.552 89.9027 640 89.504 640 89.0108H638ZM640 92.6007C640 92.1075 639.552 91.7088 639 91.7088C638.448 91.7088 638 92.1075 638 92.6007H640ZM638 92.6899C638 93.1831 638.448 93.5818 639 93.5818C639.552 93.5818 640 93.1831 640 92.6899H638ZM640 96.2797C640 95.7865 639.552 95.3878 639 95.3878C638.448 95.3878 638 95.7865 638 96.2797H640ZM638 96.3689C638 96.8621 638.448 97.2608 639 97.2608C639.552 97.2608 640 96.8621 640 96.3689H638ZM640 99.9588C640 99.4656 639.552 99.0669 639 99.0669C638.448 99.0669 638 99.4656 638 99.9588H640ZM638 100.048C638 100.541 638.448 100.94 639 100.94C639.552 100.94 640 100.541 640 100.048H638ZM640 103.638C640 103.145 639.552 102.746 639 102.746C638.448 102.746 638 103.145 638 103.638H640ZM638 103.727C638 104.22 638.448 104.619 639 104.619C639.552 104.619 640 104.22 640 103.727H638ZM640 107.317C640 106.824 639.552 106.425 639 106.425C638.448 106.425 638 106.824 638 107.317H640ZM638 107.406C638 107.899 638.448 108.298 639 108.298C639.552 108.298 640 107.899 640 107.406H638ZM640 110.996C640 110.503 639.552 110.104 639 110.104C638.448 110.104 638 110.503 638 110.996H640ZM638 111.085C638 111.578 638.448 111.977 639 111.977C639.552 111.977 640 111.578 640 111.085H638ZM640 114.675C640 114.182 639.552 113.783 639 113.783C638.448 113.783 638 114.182 638 114.675H640ZM638 114.764C638 115.257 638.448 115.656 639 115.656C639.552 115.656 640 115.257 640 114.764H638ZM640 118.354C640 117.861 639.552 117.462 639 117.462C638.448 117.462 638 117.861 638 118.354H640ZM638 118.443C638 118.936 638.448 119.335 639 119.335C639.552 119.335 640 118.936 640 118.443H638ZM640 122.033C640 121.54 639.552 121.141 639 121.141C638.448 121.141 638 121.54 638 122.033H640ZM638 122.122C638 122.616 638.448 123.014 639 123.014C639.552 123.014 640 122.616 640 122.122H638ZM640 125.712C640 125.219 639.552 124.82 639 124.82C638.448 124.82 638 125.219 638 125.712H640ZM638 81.6081V81.6527H640V81.6081H638ZM638 85.2426V85.3318H640V85.2426H638ZM638 88.9216V89.0108H640V88.9216H638ZM638 92.6007V92.6899H640V92.6007H638ZM638 96.2797V96.3689H640V96.2797H638ZM638 99.9588V100.048H640V99.9588H638ZM638 103.638V103.727H640V103.638H638ZM638 107.317V107.406H640V107.317H638ZM638 110.996V111.085H640V110.996H638ZM638 114.675V114.764H640V114.675H638ZM638 118.354V118.443H640V118.354H638ZM638 122.033V122.122H640V122.033H638ZM638 125.712V125.757H640V125.712H638Z" fill="#F03100"/>
<path d="M625 141.811H653" stroke="#58DA95" stroke-linejoin="round"/>
<path d="M637 136.459L643 141.811L637 147.162" stroke="#58DA95" stroke-linecap="square" stroke-linejoin="round"/>
<path d="M683.814 139.326H682.424C682.342 138.926 682.198 138.575 681.993 138.273C681.791 137.97 681.545 137.716 681.253 137.511C680.966 137.301 680.646 137.144 680.295 137.04C679.944 136.935 679.578 136.883 679.197 136.883C678.502 136.883 677.872 137.058 677.308 137.41C676.748 137.761 676.301 138.278 675.969 138.962C675.64 139.646 675.475 140.484 675.475 141.478C675.475 142.472 675.64 143.311 675.969 143.994C676.301 144.678 676.748 145.196 677.308 145.547C677.872 145.898 678.502 146.073 679.197 146.073C679.578 146.073 679.944 146.021 680.295 145.917C680.646 145.812 680.966 145.657 681.253 145.451C681.545 145.242 681.791 144.986 681.993 144.684C682.198 144.377 682.342 144.026 682.424 143.63H683.814C683.71 144.217 683.519 144.742 683.243 145.205C682.966 145.668 682.623 146.062 682.212 146.387C681.801 146.709 681.339 146.953 680.827 147.121C680.319 147.29 679.776 147.374 679.197 147.374C678.218 147.374 677.347 147.135 676.585 146.656C675.823 146.178 675.223 145.498 674.786 144.616C674.349 143.735 674.131 142.689 674.131 141.478C674.131 140.268 674.349 139.222 674.786 138.34C675.223 137.458 675.823 136.778 676.585 136.3C677.347 135.822 678.218 135.583 679.197 135.583C679.776 135.583 680.319 135.667 680.827 135.835C681.339 136.003 681.801 136.25 682.212 136.575C682.623 136.896 682.966 137.288 683.243 137.751C683.519 138.211 683.71 138.736 683.814 139.326ZM689.378 147.396C688.601 147.396 687.919 147.211 687.332 146.841C686.749 146.471 686.294 145.954 685.965 145.289C685.64 144.624 685.477 143.847 685.477 142.958C685.477 142.061 685.64 141.278 685.965 140.61C686.294 139.941 686.749 139.421 687.332 139.052C687.919 138.682 688.601 138.497 689.378 138.497C690.155 138.497 690.835 138.682 691.418 139.052C692.004 139.421 692.46 139.941 692.785 140.61C693.114 141.278 693.278 142.061 693.278 142.958C693.278 143.847 693.114 144.624 692.785 145.289C692.46 145.954 692.004 146.471 691.418 146.841C690.835 147.211 690.155 147.396 689.378 147.396ZM689.378 146.208C689.968 146.208 690.454 146.057 690.835 145.754C691.216 145.451 691.498 145.054 691.681 144.56C691.864 144.067 691.956 143.533 691.956 142.958C691.956 142.382 691.864 141.846 691.681 141.349C691.498 140.852 691.216 140.451 690.835 140.144C690.454 139.838 689.968 139.685 689.378 139.685C688.787 139.685 688.302 139.838 687.921 140.144C687.54 140.451 687.258 140.852 687.074 141.349C686.891 141.846 686.8 142.382 686.8 142.958C686.8 143.533 686.891 144.067 687.074 144.56C687.258 145.054 687.54 145.451 687.921 145.754C688.302 146.057 688.787 146.208 689.378 146.208ZM696.62 142.039V147.217H695.297V138.609H696.575V139.954H696.687C696.889 139.517 697.195 139.166 697.606 138.9C698.017 138.631 698.547 138.497 699.197 138.497C699.78 138.497 700.29 138.616 700.727 138.855C701.164 139.091 701.504 139.45 701.747 139.931C701.99 140.41 702.112 141.015 702.112 141.747V147.217H700.789V141.837C700.789 141.161 700.613 140.634 700.262 140.256C699.911 139.875 699.429 139.685 698.816 139.685C698.394 139.685 698.017 139.776 697.684 139.959C697.356 140.143 697.096 140.41 696.905 140.761C696.715 141.112 696.62 141.538 696.62 142.039ZM710.625 140.537L709.437 140.873C709.363 140.675 709.252 140.483 709.107 140.296C708.965 140.105 708.771 139.948 708.524 139.825C708.277 139.702 707.962 139.64 707.577 139.64C707.05 139.64 706.611 139.761 706.26 140.004C705.912 140.243 705.739 140.548 705.739 140.918C705.739 141.247 705.858 141.506 706.097 141.697C706.337 141.887 706.71 142.046 707.218 142.173L708.496 142.487C709.266 142.674 709.839 142.96 710.216 143.344C710.594 143.725 710.782 144.217 710.782 144.818C710.782 145.311 710.64 145.752 710.356 146.141C710.076 146.529 709.684 146.836 709.18 147.06C708.675 147.284 708.089 147.396 707.42 147.396C706.542 147.396 705.815 147.206 705.24 146.824C704.665 146.443 704.3 145.887 704.147 145.154L705.402 144.841C705.522 145.304 705.748 145.651 706.081 145.883C706.417 146.115 706.856 146.23 707.398 146.23C708.014 146.23 708.503 146.1 708.866 145.838C709.232 145.573 709.415 145.255 709.415 144.885C709.415 144.587 709.31 144.336 709.101 144.134C708.892 143.929 708.571 143.776 708.137 143.675L706.703 143.339C705.914 143.152 705.335 142.862 704.965 142.47C704.599 142.074 704.416 141.579 704.416 140.985C704.416 140.499 704.553 140.07 704.825 139.696C705.102 139.322 705.477 139.029 705.952 138.816C706.43 138.603 706.972 138.497 707.577 138.497C708.429 138.497 709.097 138.684 709.583 139.057C710.073 139.431 710.42 139.924 710.625 140.537ZM718.198 143.697V138.609H719.52V147.217H718.198V145.76H718.108C717.907 146.197 717.593 146.569 717.167 146.875C716.741 147.177 716.203 147.329 715.553 147.329C715.015 147.329 714.537 147.211 714.118 146.976C713.7 146.737 713.371 146.378 713.132 145.9C712.893 145.418 712.773 144.811 712.773 144.078V138.609H714.096V143.989C714.096 144.616 714.271 145.117 714.623 145.491C714.977 145.864 715.43 146.051 715.979 146.051C716.308 146.051 716.642 145.967 716.982 145.799C717.326 145.631 717.613 145.373 717.845 145.026C718.08 144.678 718.198 144.235 718.198 143.697ZM721.943 147.217V138.609H723.221V139.954H723.333C723.512 139.494 723.802 139.138 724.201 138.884C724.601 138.626 725.081 138.497 725.642 138.497C726.209 138.497 726.682 138.626 727.059 138.884C727.44 139.138 727.737 139.494 727.95 139.954H728.04C728.26 139.509 728.591 139.156 729.032 138.895C729.473 138.629 730.001 138.497 730.618 138.497C731.388 138.497 732.017 138.738 732.506 139.22C732.996 139.698 733.241 140.443 733.241 141.456V147.217H731.918V141.456C731.918 140.821 731.744 140.367 731.397 140.094C731.049 139.821 730.64 139.685 730.17 139.685C729.564 139.685 729.095 139.868 728.763 140.234C728.43 140.596 728.264 141.056 728.264 141.613V147.217H726.919V141.321C726.919 140.832 726.76 140.438 726.443 140.139C726.125 139.836 725.716 139.685 725.216 139.685C724.872 139.685 724.551 139.776 724.252 139.959C723.957 140.143 723.717 140.397 723.534 140.722C723.355 141.043 723.265 141.415 723.265 141.837V147.217H721.943ZM739.268 147.396C738.438 147.396 737.723 147.213 737.121 146.847C736.524 146.477 736.062 145.961 735.737 145.3C735.416 144.635 735.255 143.862 735.255 142.98C735.255 142.098 735.416 141.321 735.737 140.649C736.062 139.973 736.514 139.446 737.093 139.068C737.676 138.687 738.356 138.497 739.133 138.497C739.582 138.497 740.024 138.572 740.461 138.721C740.899 138.87 741.296 139.113 741.655 139.45C742.014 139.782 742.3 140.223 742.513 140.772C742.725 141.321 742.832 141.997 742.832 142.801V143.361H736.197V142.218H741.487C741.487 141.732 741.39 141.299 741.196 140.918C741.005 140.537 740.732 140.236 740.377 140.016C740.026 139.795 739.611 139.685 739.133 139.685C738.606 139.685 738.151 139.816 737.766 140.077C737.385 140.335 737.092 140.671 736.886 141.086C736.681 141.501 736.578 141.945 736.578 142.42V143.182C736.578 143.832 736.69 144.383 736.914 144.835C737.142 145.283 737.458 145.625 737.861 145.861C738.265 146.092 738.734 146.208 739.268 146.208C739.615 146.208 739.929 146.159 740.209 146.062C740.493 145.961 740.738 145.812 740.943 145.614C741.149 145.412 741.308 145.162 741.42 144.863L742.697 145.222C742.563 145.655 742.337 146.036 742.019 146.365C741.702 146.69 741.31 146.944 740.842 147.127C740.375 147.306 739.851 147.396 739.268 147.396ZM744.844 147.217V138.609H746.122V139.909H746.211C746.368 139.483 746.652 139.138 747.063 138.872C747.474 138.607 747.937 138.474 748.453 138.474C748.55 138.474 748.671 138.476 748.817 138.48C748.963 138.484 749.073 138.489 749.148 138.497V139.842C749.103 139.831 749 139.814 748.839 139.791C748.683 139.765 748.516 139.752 748.341 139.752C747.922 139.752 747.549 139.84 747.22 140.016C746.895 140.187 746.637 140.426 746.447 140.733C746.26 141.035 746.166 141.381 746.166 141.77V147.217H744.844Z" fill="#102B2D"/>
</svg>
