<?xml version="1.0" encoding="UTF-8" standalone="no"?>
<!DOCTYPE svg PUBLIC "-//W3C//DTD SVG 1.1//EN"
 "http://www.w3.org/Graphics/SVG/1.1/DTD/svg11.dtd">
<!-- Generated by graphviz version 2.47.2 (20210527.0053)
 -->
<!-- Pages: 1 -->
<svg width="473pt" height="299pt"
 viewBox="0.00 0.00 473.00 299.00" xmlns="http://www.w3.org/2000/svg" xmlns:xlink="http://www.w3.org/1999/xlink">
<g id="graph0" class="graph" transform="scale(1 1) rotate(0) translate(4 295)">
<polygon fill="white" stroke="transparent" points="-4,4 -4,-295 469,-295 469,4 -4,4"/>
<g id="clust1" class="cluster">
<title>cluster_external</title>
<polygon fill="none" stroke="black" points="8,-208 8,-283 275,-283 275,-208 8,-208"/>
<text text-anchor="middle" x="141.5" y="-267.8" font-family="Times,serif" font-size="14.00">External Inputs</text>
</g>
<g id="clust2" class="cluster">
<title>cluster_system</title>
<polygon fill="none" stroke="black" points="283,-208 283,-283 457,-283 457,-208 283,-208"/>
<text text-anchor="middle" x="370" y="-267.8" font-family="Times,serif" font-size="14.00">System Inputs</text>
</g>
<!-- materials -->
<g id="node1" class="node">
<title>materials</title>
<polygon fill="none" stroke="black" points="83.5,-252 16.5,-252 16.5,-216 83.5,-216 83.5,-252"/>
<text text-anchor="middle" x="50" y="-230.3" font-family="Times,serif" font-size="14.00">materials</text>
</g>
<!-- BuildExecution -->
<g id="node6" class="node">
<title>BuildExecution</title>
<ellipse fill="none" stroke="black" cx="184" cy="-90" rx="65.79" ry="18"/>
<text text-anchor="middle" x="184" y="-86.3" font-family="Times,serif" font-size="14.00">BuildExecution</text>
</g>
<!-- materials&#45;&gt;BuildExecution -->
<g id="edge5" class="edge">
<title>materials&#45;&gt;BuildExecution</title>
<path fill="none" stroke="black" d="M66.16,-215.87C89.83,-190.79 134.04,-143.95 161.06,-115.31"/>
<polygon fill="black" stroke="black" points="163.88,-117.42 168.2,-107.75 158.79,-112.62 163.88,-117.42"/>
</g>
<!-- recipe -->
<g id="node7" class="node">
<title>recipe</title>
<polygon fill="none" stroke="black" points="211,-180 157,-180 157,-144 211,-144 211,-180"/>
<text text-anchor="middle" x="184" y="-158.3" font-family="Times,serif" font-size="14.00">recipe</text>
</g>
<!-- materials&#45;&gt;recipe -->
<g id="edge1" class="edge">
<title>materials&#45;&gt;recipe</title>
<path fill="none" stroke="black" d="M78.99,-215.79C83.65,-213.13 88.44,-210.45 93,-208 110.65,-198.52 130.57,-188.58 147.27,-180.47"/>
<polygon fill="black" stroke="black" points="149.2,-183.42 156.68,-175.92 146.15,-177.12 149.2,-183.42"/>
</g>
<!-- entryPoint -->
<g id="node2" class="node">
<title>entryPoint</title>
<polygon fill="none" stroke="black" points="174.5,-252 101.5,-252 101.5,-216 174.5,-216 174.5,-252"/>
<text text-anchor="middle" x="138" y="-230.3" font-family="Times,serif" font-size="14.00">entryPoint</text>
</g>
<!-- entryPoint&#45;&gt;recipe -->
<g id="edge2" class="edge">
<title>entryPoint&#45;&gt;recipe</title>
<path fill="none" stroke="black" d="M149.37,-215.7C154.72,-207.56 161.2,-197.69 167.11,-188.7"/>
<polygon fill="black" stroke="black" points="170.19,-190.38 172.76,-180.1 164.34,-186.54 170.19,-190.38"/>
</g>
<!-- arguments -->
<g id="node3" class="node">
<title>arguments</title>
<polygon fill="none" stroke="black" points="267,-252 193,-252 193,-216 267,-216 267,-252"/>
<text text-anchor="middle" x="230" y="-230.3" font-family="Times,serif" font-size="14.00">arguments</text>
</g>
<!-- arguments&#45;&gt;recipe -->
<g id="edge3" class="edge">
<title>arguments&#45;&gt;recipe</title>
<path fill="none" stroke="black" d="M218.63,-215.7C213.28,-207.56 206.8,-197.69 200.89,-188.7"/>
<polygon fill="black" stroke="black" points="203.66,-186.54 195.24,-180.1 197.81,-190.38 203.66,-186.54"/>
</g>
<!-- environment -->
<g id="node4" class="node">
<title>environment</title>
<polygon fill="none" stroke="black" points="449,-252 363,-252 363,-216 449,-216 449,-252"/>
<text text-anchor="middle" x="406" y="-230.3" font-family="Times,serif" font-size="14.00">environment</text>
</g>
<!-- environment&#45;&gt;BuildExecution -->
<g id="edge6" class="edge">
<title>environment&#45;&gt;BuildExecution</title>
<path fill="none" stroke="black" d="M379.22,-215.87C338.66,-189.92 261.68,-140.69 217.47,-112.41"/>
<polygon fill="black" stroke="black" points="219.14,-109.32 208.83,-106.88 215.36,-115.22 219.14,-109.32"/>
</g>
<!-- type -->
<g id="node5" class="node">
<title>type</title>
<polygon fill="none" stroke="black" points="345,-252 291,-252 291,-216 345,-216 345,-252"/>
<text text-anchor="middle" x="318" y="-230.3" font-family="Times,serif" font-size="14.00">type</text>
</g>
<!-- type&#45;&gt;recipe -->
<g id="edge4" class="edge">
<title>type&#45;&gt;recipe</title>
<path fill="none" stroke="black" d="M292.27,-215.85C287.9,-213.13 283.36,-210.42 279,-208 260.15,-197.55 238.46,-187.16 220.58,-179"/>
<polygon fill="black" stroke="black" points="221.63,-175.64 211.08,-174.71 218.75,-182.02 221.63,-175.64"/>
</g>
<!-- subject -->
<g id="node8" class="node">
<title>subject</title>
<polygon fill="none" stroke="black" points="211.5,-36 156.5,-36 156.5,0 211.5,0 211.5,-36"/>
<text text-anchor="middle" x="184" y="-14.3" font-family="Times,serif" font-size="14.00">subject</text>
</g>
<!-- BuildExecution&#45;&gt;subject -->
<g id="edge8" class="edge">
<title>BuildExecution&#45;&gt;subject</title>
<path fill="none" stroke="black" d="M184,-71.7C184,-63.98 184,-54.71 184,-46.11"/>
<polygon fill="black" stroke="black" points="187.5,-46.1 184,-36.1 180.5,-46.1 187.5,-46.1"/>
</g>
<!-- recipe&#45;&gt;BuildExecution -->
<g id="edge7" class="edge">
<title>recipe&#45;&gt;BuildExecution</title>
<path fill="none" stroke="black" d="M184,-143.7C184,-135.98 184,-126.71 184,-118.11"/>
<polygon fill="black" stroke="black" points="187.5,-118.1 184,-108.1 180.5,-118.1 187.5,-118.1"/>
</g>
</g>
</svg>
