<svg width="784" height="370" viewBox="0 0 784 370" fill="none" xmlns="http://www.w3.org/2000/svg">
<path d="M188.83 21.4545C188.778 21.0227 188.571 20.6875 188.207 20.4489C187.844 20.2102 187.398 20.0909 186.869 20.0909C186.483 20.0909 186.145 20.1534 185.855 20.2784C185.568 20.4034 185.344 20.5753 185.182 20.794C185.023 21.0128 184.943 21.2614 184.943 21.5398C184.943 21.7727 184.999 21.973 185.109 22.1406C185.223 22.3054 185.368 22.4432 185.544 22.554C185.72 22.6619 185.905 22.7514 186.098 22.8224C186.291 22.8906 186.469 22.946 186.631 22.9886L187.517 23.2273C187.744 23.2869 187.997 23.3693 188.276 23.4744C188.557 23.5795 188.825 23.723 189.081 23.9048C189.339 24.0838 189.553 24.3139 189.72 24.5952C189.888 24.8764 189.972 25.2216 189.972 25.6307C189.972 26.1023 189.848 26.5284 189.601 26.9091C189.357 27.2898 188.999 27.5923 188.527 27.8168C188.058 28.0412 187.489 28.1534 186.818 28.1534C186.193 28.1534 185.652 28.0526 185.195 27.8509C184.74 27.6491 184.382 27.3679 184.121 27.0071C183.862 26.6463 183.716 26.2273 183.682 25.75H184.773C184.801 26.0795 184.912 26.3523 185.105 26.5682C185.301 26.7812 185.548 26.9403 185.847 27.0455C186.148 27.1477 186.472 27.1989 186.818 27.1989C187.222 27.1989 187.584 27.1335 187.905 27.0028C188.226 26.8693 188.48 26.6847 188.668 26.4489C188.855 26.2102 188.949 25.9318 188.949 25.6136C188.949 25.3239 188.868 25.0881 188.706 24.9062C188.544 24.7244 188.331 24.5767 188.067 24.4631C187.803 24.3494 187.517 24.25 187.21 24.1648L186.136 23.858C185.455 23.6619 184.915 23.3821 184.517 23.0185C184.119 22.6548 183.92 22.179 183.92 21.5909C183.92 21.1023 184.053 20.6761 184.317 20.3125C184.584 19.946 184.942 19.6619 185.391 19.4602C185.842 19.2557 186.347 19.1534 186.903 19.1534C187.466 19.1534 187.966 19.2543 188.403 19.456C188.841 19.6548 189.188 19.9276 189.443 20.2741C189.702 20.6207 189.838 21.0142 189.852 21.4545H188.83ZM199.073 23.6364C199.073 24.5568 198.907 25.3523 198.574 26.0227C198.242 26.6932 197.786 27.2102 197.206 27.5739C196.627 27.9375 195.965 28.1193 195.221 28.1193C194.476 28.1193 193.814 27.9375 193.235 27.5739C192.655 27.2102 192.199 26.6932 191.867 26.0227C191.534 25.3523 191.368 24.5568 191.368 23.6364C191.368 22.7159 191.534 21.9205 191.867 21.25C192.199 20.5795 192.655 20.0625 193.235 19.6989C193.814 19.3352 194.476 19.1534 195.221 19.1534C195.965 19.1534 196.627 19.3352 197.206 19.6989C197.786 20.0625 198.242 20.5795 198.574 21.25C198.907 21.9205 199.073 22.7159 199.073 23.6364ZM198.05 23.6364C198.05 22.8807 197.924 22.2429 197.671 21.723C197.421 21.2031 197.081 20.8097 196.652 20.5426C196.226 20.2756 195.749 20.142 195.221 20.142C194.692 20.142 194.213 20.2756 193.784 20.5426C193.358 20.8097 193.019 21.2031 192.766 21.723C192.516 22.2429 192.391 22.8807 192.391 23.6364C192.391 24.392 192.516 25.0298 192.766 25.5497C193.019 26.0696 193.358 26.4631 193.784 26.7301C194.213 26.9972 194.692 27.1307 195.221 27.1307C195.749 27.1307 196.226 26.9972 196.652 26.7301C197.081 26.4631 197.421 26.0696 197.671 25.5497C197.924 25.0298 198.05 24.392 198.05 23.6364ZM206.577 19.2727H207.634V25.0511C207.634 25.6477 207.493 26.1804 207.212 26.6491C206.934 27.1151 206.54 27.483 206.032 27.7528C205.523 28.0199 204.926 28.1534 204.242 28.1534C203.557 28.1534 202.961 28.0199 202.452 27.7528C201.944 27.483 201.549 27.1151 201.267 26.6491C200.989 26.1804 200.85 25.6477 200.85 25.0511V19.2727H201.907V24.9659C201.907 25.392 202 25.7713 202.188 26.1037C202.375 26.4332 202.642 26.6932 202.989 26.8835C203.338 27.071 203.756 27.1648 204.242 27.1648C204.728 27.1648 205.145 27.071 205.495 26.8835C205.844 26.6932 206.111 26.4332 206.296 26.1037C206.483 25.7713 206.577 25.392 206.577 24.9659V19.2727ZM209.744 28V19.2727H212.693C213.375 19.2727 213.935 19.3892 214.372 19.6222C214.81 19.8523 215.134 20.169 215.344 20.5724C215.554 20.9759 215.659 21.4347 215.659 21.9489C215.659 22.4631 215.554 22.919 215.344 23.3168C215.134 23.7145 214.811 24.027 214.376 24.2543C213.942 24.4787 213.386 24.5909 212.71 24.5909H210.324V23.6364H212.676C213.142 23.6364 213.517 23.5682 213.801 23.4318C214.088 23.2955 214.295 23.1023 214.423 22.8523C214.554 22.5994 214.619 22.2983 214.619 21.9489C214.619 21.5994 214.554 21.294 214.423 21.0327C214.293 20.7713 214.084 20.5696 213.797 20.4276C213.51 20.2827 213.131 20.2102 212.659 20.2102H210.801V28H209.744ZM213.852 24.0795L216 28H214.773L212.659 24.0795H213.852ZM224.443 22H223.386C223.324 21.696 223.214 21.429 223.058 21.1989C222.904 20.9688 222.717 20.7756 222.495 20.6193C222.277 20.4602 222.034 20.3409 221.767 20.2614C221.5 20.1818 221.221 20.142 220.931 20.142C220.403 20.142 219.924 20.2756 219.495 20.5426C219.069 20.8097 218.73 21.2031 218.477 21.723C218.227 22.2429 218.102 22.8807 218.102 23.6364C218.102 24.392 218.227 25.0298 218.477 25.5497C218.73 26.0696 219.069 26.4631 219.495 26.7301C219.924 26.9972 220.403 27.1307 220.931 27.1307C221.221 27.1307 221.5 27.0909 221.767 27.0114C222.034 26.9318 222.277 26.8139 222.495 26.6577C222.717 26.4986 222.904 26.304 223.058 26.0739C223.214 25.8409 223.324 25.5739 223.386 25.2727H224.443C224.363 25.7187 224.218 26.1179 224.008 26.4702C223.798 26.8224 223.537 27.1222 223.224 27.3693C222.912 27.6136 222.561 27.7997 222.172 27.9276C221.785 28.0554 221.372 28.1193 220.931 28.1193C220.187 28.1193 219.525 27.9375 218.946 27.5739C218.366 27.2102 217.91 26.6932 217.578 26.0227C217.245 25.3523 217.079 24.5568 217.079 23.6364C217.079 22.7159 217.245 21.9205 217.578 21.25C217.91 20.5795 218.366 20.0625 218.946 19.6989C219.525 19.3352 220.187 19.1534 220.931 19.1534C221.372 19.1534 221.785 19.2173 222.172 19.3452C222.561 19.473 222.912 19.6605 223.224 19.9077C223.537 20.152 223.798 20.4503 224.008 20.8026C224.218 21.152 224.363 21.5511 224.443 22ZM226.151 28V19.2727H231.418V20.2102H227.207V23.1591H231.145V24.0966H227.207V27.0625H231.486V28H226.151ZM236.22 20.2102V19.2727H242.766V20.2102H240.021V28H238.964V20.2102H236.22ZM244.397 28V19.2727H245.453V23.1591H250.107V19.2727H251.164V28H250.107V24.0966H245.453V28H244.397ZM253.279 28V19.2727H256.228C256.91 19.2727 257.47 19.3892 257.907 19.6222C258.345 19.8523 258.669 20.169 258.879 20.5724C259.089 20.9759 259.194 21.4347 259.194 21.9489C259.194 22.4631 259.089 22.919 258.879 23.3168C258.669 23.7145 258.346 24.027 257.912 24.2543C257.477 24.4787 256.922 24.5909 256.245 24.5909H253.859V23.6364H256.211C256.677 23.6364 257.052 23.5682 257.336 23.4318C257.623 23.2955 257.831 23.1023 257.958 22.8523C258.089 22.5994 258.154 22.2983 258.154 21.9489C258.154 21.5994 258.089 21.294 257.958 21.0327C257.828 20.7713 257.619 20.5696 257.332 20.4276C257.045 20.2827 256.666 20.2102 256.194 20.2102H254.336V28H253.279ZM257.387 24.0795L259.535 28H258.308L256.194 24.0795H257.387ZM260.955 28V19.2727H266.222V20.2102H262.012V23.1591H265.95V24.0966H262.012V27.0625H266.29V28H260.955ZM268.485 28H267.377L270.582 19.2727H271.673L274.877 28H273.769L271.161 20.6534H271.093L268.485 28ZM268.894 24.5909H273.36V25.5284H268.894V24.5909ZM274.74 20.2102V19.2727H281.285V20.2102H278.541V28H277.484V20.2102H274.74ZM287.689 21.4545C287.638 21.0227 287.43 20.6875 287.067 20.4489C286.703 20.2102 286.257 20.0909 285.729 20.0909C285.342 20.0909 285.004 20.1534 284.714 20.2784C284.428 20.4034 284.203 20.5753 284.041 20.794C283.882 21.0128 283.803 21.2614 283.803 21.5398C283.803 21.7727 283.858 21.973 283.969 22.1406C284.082 22.3054 284.227 22.4432 284.403 22.554C284.58 22.6619 284.764 22.7514 284.957 22.8224C285.151 22.8906 285.328 22.946 285.49 22.9886L286.376 23.2273C286.604 23.2869 286.857 23.3693 287.135 23.4744C287.416 23.5795 287.685 23.723 287.94 23.9048C288.199 24.0838 288.412 24.3139 288.58 24.5952C288.747 24.8764 288.831 25.2216 288.831 25.6307C288.831 26.1023 288.707 26.5284 288.46 26.9091C288.216 27.2898 287.858 27.5923 287.386 27.8168C286.918 28.0412 286.348 28.1534 285.678 28.1534C285.053 28.1534 284.511 28.0526 284.054 27.8509C283.599 27.6491 283.241 27.3679 282.98 27.0071C282.722 26.6463 282.575 26.2273 282.541 25.75H283.632C283.661 26.0795 283.771 26.3523 283.964 26.5682C284.161 26.7812 284.408 26.9403 284.706 27.0455C285.007 27.1477 285.331 27.1989 285.678 27.1989C286.081 27.1989 286.443 27.1335 286.764 27.0028C287.085 26.8693 287.339 26.6847 287.527 26.4489C287.714 26.2102 287.808 25.9318 287.808 25.6136C287.808 25.3239 287.727 25.0881 287.565 24.9062C287.403 24.7244 287.19 24.5767 286.926 24.4631C286.662 24.3494 286.376 24.25 286.07 24.1648L284.996 23.858C284.314 23.6619 283.774 23.3821 283.376 23.0185C282.979 22.6548 282.78 22.179 282.78 21.5909C282.78 21.1023 282.912 20.6761 283.176 20.3125C283.443 19.946 283.801 19.6619 284.25 19.4602C284.702 19.2557 285.206 19.1534 285.763 19.1534C286.325 19.1534 286.825 19.2543 287.263 19.456C287.7 19.6548 288.047 19.9276 288.303 20.2741C288.561 20.6207 288.697 21.0142 288.712 21.4545H287.689Z" fill="#155757"/>
<path d="M131 42V40C131 36.6863 135.107 34 140.174 34H332.826C337.893 34 342 36.6863 342 40V42" stroke="#155757"/>
<path d="M41.1986 163.243H37.6568V151.766H41.3555C42.4688 151.766 43.4215 151.996 44.2135 152.455C45.0056 152.911 45.6127 153.567 46.0349 154.422C46.457 155.274 46.6681 156.294 46.6681 157.482C46.6681 158.678 46.4552 159.707 46.0293 160.57C45.6033 161.429 44.9832 162.09 44.1687 162.554C43.3543 163.013 42.3642 163.243 41.1986 163.243ZM39.0466 162.01H41.1089C42.0578 162.01 42.8443 161.827 43.4682 161.461C44.0921 161.095 44.5573 160.574 44.8636 159.897C45.17 159.221 45.3231 158.416 45.3231 157.482C45.3231 156.555 45.1718 155.758 44.8692 155.089C44.5666 154.417 44.1145 153.901 43.513 153.542C42.9115 153.18 42.1625 152.999 41.2658 152.999H39.0466V162.01ZM52.4291 163.422C51.5997 163.422 50.8842 163.239 50.2827 162.873C49.685 162.503 49.2236 161.988 48.8985 161.326C48.5772 160.661 48.4166 159.888 48.4166 159.006C48.4166 158.125 48.5772 157.348 48.8985 156.675C49.2236 155.999 49.6756 155.472 50.2547 155.095C50.8375 154.714 51.5175 154.523 52.2946 154.523C52.7429 154.523 53.1856 154.598 53.6227 154.747C54.0599 154.897 54.4577 155.14 54.8164 155.476C55.1751 155.808 55.4609 156.249 55.6738 156.798C55.8868 157.348 55.9932 158.024 55.9932 158.827V159.387H49.3581V158.244H54.6483C54.6483 157.759 54.5511 157.325 54.3569 156.944C54.1663 156.563 53.8936 156.262 53.5387 156.042C53.1875 155.821 52.7728 155.711 52.2946 155.711C51.7678 155.711 51.312 155.842 50.9272 156.103C50.5461 156.361 50.2528 156.697 50.0474 157.112C49.8419 157.527 49.7391 157.971 49.7391 158.446V159.208C49.7391 159.858 49.8512 160.409 50.0754 160.861C50.3033 161.31 50.619 161.651 51.0225 161.887C51.4259 162.118 51.8948 162.234 52.4291 162.234C52.7765 162.234 53.0904 162.186 53.3706 162.089C53.6545 161.988 53.8992 161.838 54.1047 161.64C54.3102 161.438 54.4689 161.188 54.581 160.889L55.8588 161.248C55.7243 161.681 55.4982 162.062 55.1807 162.391C54.8631 162.716 54.4708 162.97 54.0038 163.153C53.5368 163.333 53.0119 163.422 52.4291 163.422ZM64.7818 154.635L61.5987 163.243H60.2537L57.0706 154.635H58.5053L60.8814 161.495H60.971L63.3472 154.635H64.7818ZM69.8282 163.422C68.9988 163.422 68.2834 163.239 67.6819 162.873C67.0841 162.503 66.6227 161.988 66.2977 161.326C65.9764 160.661 65.8157 159.888 65.8157 159.006C65.8157 158.125 65.9764 157.348 66.2977 156.675C66.6227 155.999 67.0748 155.472 67.6539 155.095C68.2367 154.714 68.9167 154.523 69.6937 154.523C70.1421 154.523 70.5848 154.598 71.0219 154.747C71.459 154.897 71.8569 155.14 72.2156 155.476C72.5742 155.808 72.86 156.249 73.073 156.798C73.2859 157.348 73.3924 158.024 73.3924 158.827V159.387H66.7572V158.244H72.0474C72.0474 157.759 71.9503 157.325 71.756 156.944C71.5655 156.563 71.2928 156.262 70.9378 156.042C70.5867 155.821 70.172 155.711 69.6937 155.711C69.167 155.711 68.7112 155.842 68.3264 156.103C67.9453 156.361 67.652 156.697 67.4465 157.112C67.241 157.527 67.1383 157.971 67.1383 158.446V159.208C67.1383 159.858 67.2504 160.409 67.4745 160.861C67.7024 161.31 68.0181 161.651 68.4216 161.887C68.8251 162.118 69.294 162.234 69.8282 162.234C70.1757 162.234 70.4895 162.186 70.7697 162.089C71.0537 161.988 71.2984 161.838 71.5039 161.64C71.7093 161.438 71.8681 161.188 71.9802 160.889L73.2579 161.248C73.1234 161.681 72.8974 162.062 72.5798 162.391C72.2623 162.716 71.87 162.97 71.403 163.153C70.936 163.333 70.4111 163.422 69.8282 163.422ZM76.7268 151.766V163.243H75.4043V151.766H76.7268ZM82.6461 163.422C81.869 163.422 81.1872 163.237 80.6006 162.868C80.0178 162.498 79.562 161.98 79.2332 161.315C78.9082 160.65 78.7457 159.873 78.7457 158.984C78.7457 158.087 78.9082 157.305 79.2332 156.636C79.562 155.967 80.0178 155.448 80.6006 155.078C81.1872 154.708 81.869 154.523 82.6461 154.523C83.4232 154.523 84.1032 154.708 84.686 155.078C85.2725 155.448 85.7283 155.967 86.0534 156.636C86.3821 157.305 86.5465 158.087 86.5465 158.984C86.5465 159.873 86.3821 160.65 86.0534 161.315C85.7283 161.98 85.2725 162.498 84.686 162.868C84.1032 163.237 83.4232 163.422 82.6461 163.422ZM82.6461 162.234C83.2364 162.234 83.7221 162.083 84.1032 161.78C84.4842 161.478 84.7663 161.08 84.9494 160.587C85.1324 160.094 85.224 159.559 85.224 158.984C85.224 158.409 85.1324 157.872 84.9494 157.376C84.7663 156.879 84.4842 156.477 84.1032 156.171C83.7221 155.864 83.2364 155.711 82.6461 155.711C82.0558 155.711 81.5701 155.864 81.189 156.171C80.808 156.477 80.5259 156.879 80.3428 157.376C80.1598 157.872 80.0682 158.409 80.0682 158.984C80.0682 159.559 80.1598 160.094 80.3428 160.587C80.5259 161.08 80.808 161.478 81.189 161.78C81.5701 162.083 82.0558 162.234 82.6461 162.234ZM88.5654 166.471V154.635H89.8431V156.003H90C90.0972 155.853 90.2316 155.663 90.4035 155.431C90.5791 155.196 90.8294 154.986 91.1544 154.803C91.4832 154.616 91.9278 154.523 92.4882 154.523C93.213 154.523 93.8519 154.704 94.4048 155.067C94.9577 155.429 95.3892 155.943 95.6993 156.608C96.0094 157.273 96.1645 158.057 96.1645 158.962C96.1645 159.873 96.0094 160.663 95.6993 161.332C95.3892 161.997 94.9596 162.513 94.4104 162.879C93.8612 163.241 93.2279 163.422 92.5106 163.422C91.9577 163.422 91.515 163.331 91.1825 163.148C90.85 162.961 90.594 162.75 90.4147 162.514C90.2354 162.275 90.0972 162.077 90 161.92H89.8879V166.471H88.5654ZM89.8655 158.939C89.8655 159.589 89.9608 160.163 90.1513 160.66C90.3419 161.153 90.6202 161.539 90.9863 161.82C91.3525 162.096 91.8008 162.234 92.3313 162.234C92.8842 162.234 93.3456 162.089 93.7155 161.797C94.0891 161.502 94.3693 161.106 94.5561 160.609C94.7466 160.108 94.8419 159.552 94.8419 158.939C94.8419 158.334 94.7485 157.788 94.5617 157.303C94.3786 156.813 94.1003 156.427 93.7267 156.143C93.3568 155.855 92.8917 155.711 92.3313 155.711C91.7933 155.711 91.3413 155.848 90.9751 156.12C90.609 156.389 90.3325 156.767 90.1457 157.252C89.9589 157.734 89.8655 158.296 89.8655 158.939ZM101.791 163.422C100.962 163.422 100.246 163.239 99.6446 162.873C99.0468 162.503 98.5854 161.988 98.2604 161.326C97.9391 160.661 97.7784 159.888 97.7784 159.006C97.7784 158.125 97.9391 157.348 98.2604 156.675C98.5854 155.999 99.0375 155.472 99.6166 155.095C100.199 154.714 100.879 154.523 101.656 154.523C102.105 154.523 102.547 154.598 102.985 154.747C103.422 154.897 103.82 155.14 104.178 155.476C104.537 155.808 104.823 156.249 105.036 156.798C105.249 157.348 105.355 158.024 105.355 158.827V159.387H98.7199V158.244H104.01C104.01 157.759 103.913 157.325 103.719 156.944C103.528 156.563 103.255 156.262 102.901 156.042C102.549 155.821 102.135 155.711 101.656 155.711C101.13 155.711 100.674 155.842 100.289 156.103C99.908 156.361 99.6147 156.697 99.4092 157.112C99.2037 157.527 99.101 157.971 99.101 158.446V159.208C99.101 159.858 99.2131 160.409 99.4372 160.861C99.6651 161.31 99.9808 161.651 100.384 161.887C100.788 162.118 101.257 162.234 101.791 162.234C102.138 162.234 102.452 162.186 102.732 162.089C103.016 161.988 103.261 161.838 103.467 161.64C103.672 161.438 103.831 161.188 103.943 160.889L105.221 161.248C105.086 161.681 104.86 162.062 104.543 162.391C104.225 162.716 103.833 162.97 103.366 163.153C102.899 163.333 102.374 163.422 101.791 163.422ZM107.367 163.243V154.635H108.645V155.935H108.734C108.891 155.509 109.175 155.164 109.586 154.899C109.997 154.633 110.46 154.501 110.976 154.501C111.073 154.501 111.195 154.503 111.34 154.506C111.486 154.51 111.596 154.516 111.671 154.523V155.868C111.626 155.857 111.523 155.84 111.363 155.818C111.206 155.791 111.039 155.778 110.864 155.778C110.445 155.778 110.072 155.866 109.743 156.042C109.418 156.214 109.16 156.453 108.97 156.759C108.783 157.062 108.69 157.407 108.69 157.796V163.243H107.367Z" fill="#102B2D"/>
<path d="M161.401 86.971C162.294 89.239 160.854 91.72 158.44 92.06C149.522 93.313 140.478 93.313 131.56 92.06C129.146 91.72 127.706 89.239 128.599 86.971C131.992 78.358 136.504 70.226 141.999 62.8407C143.504 60.8167 146.496 60.8167 148.001 62.8407C153.496 70.226 158.008 78.358 161.401 86.971Z" fill="#F03100"/>
<path d="M140.706 86.09H139.044L143.851 72.9991H145.487L150.294 86.09H148.632L144.72 75.0701H144.618L140.706 86.09ZM141.32 80.9764H148.019V82.3826H141.32V80.9764Z" fill="white"/>
<path d="M146 91.5C146 90.948 145.552 90.5 145 90.5C144.448 90.5 144 90.948 144 91.5H146ZM144 141C144 141.552 144.448 142 145 142C145.552 142 146 141.552 146 141H144ZM144 91.55C144 92.103 144.448 92.55 145 92.55C145.552 92.55 146 92.103 146 91.55H144ZM146 95.575C146 95.022 145.552 94.575 145 94.575C144.448 94.575 144 95.022 144 95.575H146ZM144 95.675C144 96.228 144.448 96.675 145 96.675C145.552 96.675 146 96.228 146 95.675H144ZM146 99.7C146 99.147 145.552 98.7 145 98.7C144.448 98.7 144 99.147 144 99.7H146ZM144 99.8C144 100.353 144.448 100.8 145 100.8C145.552 100.8 146 100.353 146 99.8H144ZM146 103.825C146 103.272 145.552 102.825 145 102.825C144.448 102.825 144 103.272 144 103.825H146ZM144 103.925C144 104.478 144.448 104.925 145 104.925C145.552 104.925 146 104.478 146 103.925H144ZM146 107.95C146 107.397 145.552 106.95 145 106.95C144.448 106.95 144 107.397 144 107.95H146ZM144 108.05C144 108.603 144.448 109.05 145 109.05C145.552 109.05 146 108.603 146 108.05H144ZM146 112.075C146 111.522 145.552 111.075 145 111.075C144.448 111.075 144 111.522 144 112.075H146ZM144 112.175C144 112.728 144.448 113.175 145 113.175C145.552 113.175 146 112.728 146 112.175H144ZM146 116.2C146 115.647 145.552 115.2 145 115.2C144.448 115.2 144 115.647 144 116.2H146ZM144 116.3C144 116.853 144.448 117.3 145 117.3C145.552 117.3 146 116.853 146 116.3H144ZM146 120.325C146 119.772 145.552 119.325 145 119.325C144.448 119.325 144 119.772 144 120.325H146ZM144 120.425C144 120.978 144.448 121.425 145 121.425C145.552 121.425 146 120.978 146 120.425H144ZM146 124.45C146 123.897 145.552 123.45 145 123.45C144.448 123.45 144 123.897 144 124.45H146ZM144 124.55C144 125.103 144.448 125.55 145 125.55C145.552 125.55 146 125.103 146 124.55H144ZM146 128.575C146 128.022 145.552 127.575 145 127.575C144.448 127.575 144 128.022 144 128.575H146ZM144 128.675C144 129.228 144.448 129.675 145 129.675C145.552 129.675 146 129.228 146 128.675H144ZM146 132.7C146 132.147 145.552 131.7 145 131.7C144.448 131.7 144 132.147 144 132.7H146ZM144 132.8C144 133.353 144.448 133.8 145 133.8C145.552 133.8 146 133.353 146 132.8H144ZM146 136.825C146 136.272 145.552 135.825 145 135.825C144.448 135.825 144 136.272 144 136.825H146ZM144 136.925C144 137.478 144.448 137.925 145 137.925C145.552 137.925 146 137.478 146 136.925H144ZM146 140.95C146 140.397 145.552 139.95 145 139.95C144.448 139.95 144 140.397 144 140.95H146ZM144 91.5V91.55H146V91.5H144ZM144 95.575V95.675H146V95.575H144ZM144 99.7V99.8H146V99.7H144ZM144 103.825V103.925H146V103.825H144ZM144 107.95V108.05H146V107.95H144ZM144 112.075V112.175H146V112.075H144ZM144 116.2V116.3H146V116.2H144ZM144 120.325V120.425H146V120.325H144ZM144 124.45V124.55H146V124.45H144ZM144 128.575V128.675H146V128.575H144ZM144 132.7V132.8H146V132.7H144ZM144 136.825V136.925H146V136.825H144ZM144 140.95V141H146V140.95H144Z" fill="#F03100"/>
<path d="M131 159H159" stroke="#58DA95" stroke-linejoin="round"/>
<path d="M143 153L149 159L143 165" stroke="#58DA95" stroke-linecap="square" stroke-linejoin="round"/>
<path d="M232.401 86.971C233.294 89.239 231.854 91.72 229.44 92.06C220.522 93.313 211.478 93.313 202.56 92.06C200.146 91.72 198.706 89.239 199.599 86.971C202.992 78.358 207.504 70.226 212.999 62.8407C214.504 60.8167 217.496 60.8167 219.001 62.8407C224.496 70.226 229.008 78.358 232.401 86.971Z" fill="#F03100"/>
<path d="M211.424 86.09V72.9991H216.001C216.913 72.9991 217.665 73.1568 218.257 73.4721C218.85 73.7832 219.291 74.2029 219.58 74.7313C219.87 75.2555 220.015 75.8372 220.015 76.4764C220.015 77.0389 219.915 77.5033 219.715 77.8698C219.519 78.2363 219.259 78.5261 218.935 78.7391C218.615 78.9522 218.268 79.1099 217.893 79.2122V79.34C218.294 79.3656 218.696 79.5062 219.101 79.7619C219.506 80.0176 219.845 80.384 220.117 80.8613C220.39 81.3386 220.526 81.9224 220.526 82.6127C220.526 83.269 220.377 83.8592 220.079 84.3833C219.781 84.9075 219.31 85.323 218.666 85.6298C218.023 85.9366 217.186 86.09 216.154 86.09H211.424ZM213.009 84.6837H216.154C217.19 84.6837 217.925 84.4835 218.36 84.0829C218.799 83.6781 219.018 83.188 219.018 82.6127C219.018 82.1695 218.905 81.7605 218.679 81.3855C218.453 81.0062 218.132 80.7036 217.714 80.4778C217.296 80.2477 216.802 80.1326 216.231 80.1326H213.009V84.6837ZM213.009 78.7519H215.95C216.427 78.7519 216.857 78.6582 217.241 78.4707C217.629 78.2832 217.936 78.019 218.161 77.6781C218.392 77.3372 218.507 76.9366 218.507 76.4764C218.507 75.9011 218.306 75.4131 217.906 75.0126C217.505 74.6078 216.87 74.4053 216.001 74.4053H213.009V78.7519Z" fill="white"/>
<path d="M217 91.5C217 90.948 216.552 90.5 216 90.5C215.448 90.5 215 90.948 215 91.5H217ZM215 121C215 121.552 215.448 122 216 122C216.552 122 217 121.552 217 121H215ZM215 91.551C215 92.104 215.448 92.551 216 92.551C216.552 92.551 217 92.104 217 91.551H215ZM217 95.663C217 95.111 216.552 94.663 216 94.663C215.448 94.663 215 95.111 215 95.663H217ZM215 95.766C215 96.318 215.448 96.766 216 96.766C216.552 96.766 217 96.318 217 95.766H215ZM217 99.877C217 99.325 216.552 98.877 216 98.877C215.448 98.877 215 99.325 215 99.877H217ZM215 99.98C215 100.532 215.448 100.98 216 100.98C216.552 100.98 217 100.532 217 99.98H215ZM217 104.091C217 103.539 216.552 103.091 216 103.091C215.448 103.091 215 103.539 215 104.091H217ZM215 104.194C215 104.747 215.448 105.194 216 105.194C216.552 105.194 217 104.747 217 104.194H215ZM217 108.306C217 107.753 216.552 107.306 216 107.306C215.448 107.306 215 107.753 215 108.306H217ZM215 108.409C215 108.961 215.448 109.409 216 109.409C216.552 109.409 217 108.961 217 108.409H215ZM217 112.52C217 111.968 216.552 111.52 216 111.52C215.448 111.52 215 111.968 215 112.52H217ZM215 112.623C215 113.175 215.448 113.623 216 113.623C216.552 113.623 217 113.175 217 112.623H215ZM217 116.734C217 116.182 216.552 115.734 216 115.734C215.448 115.734 215 116.182 215 116.734H217ZM215 116.837C215 117.389 215.448 117.837 216 117.837C216.552 117.837 217 117.389 217 116.837H215ZM217 120.949C217 120.396 216.552 119.949 216 119.949C215.448 119.949 215 120.396 215 120.949H217ZM215 91.5V91.551H217V91.5H215ZM215 95.663V95.766H217V95.663H215ZM215 99.877V99.98H217V99.877H215ZM215 104.091V104.194H217V104.091H215ZM215 108.306V108.409H217V108.306H215ZM215 112.52V112.623H217V112.52H215ZM215 116.734V116.837H217V116.734H215ZM215 120.949V121H217V120.949H215Z" fill="#F03100"/>
<path d="M197.109 154.353C197.041 153.777 196.764 153.33 196.279 153.012C195.794 152.694 195.2 152.535 194.495 152.535C193.98 152.535 193.529 152.618 193.143 152.785C192.76 152.951 192.461 153.18 192.245 153.472C192.033 153.764 191.927 154.095 191.927 154.466C191.927 154.777 192.001 155.044 192.148 155.268C192.3 155.487 192.493 155.671 192.728 155.819C192.963 155.963 193.209 156.082 193.467 156.177C193.724 156.268 193.961 156.341 194.177 156.398L195.359 156.716C195.662 156.796 195.999 156.906 196.37 157.046C196.745 157.186 197.103 157.377 197.444 157.62C197.789 157.858 198.073 158.165 198.296 158.54C198.52 158.915 198.631 159.375 198.631 159.921C198.631 160.55 198.467 161.118 198.137 161.625C197.811 162.133 197.334 162.536 196.705 162.836C196.08 163.135 195.321 163.285 194.427 163.285C193.594 163.285 192.872 163.15 192.262 162.881C191.656 162.612 191.179 162.237 190.83 161.756C190.486 161.275 190.291 160.716 190.245 160.08H191.7C191.738 160.519 191.885 160.883 192.143 161.171C192.404 161.455 192.734 161.667 193.131 161.807C193.533 161.944 193.965 162.012 194.427 162.012C194.965 162.012 195.448 161.925 195.876 161.75C196.304 161.572 196.643 161.326 196.893 161.012C197.143 160.694 197.268 160.322 197.268 159.898C197.268 159.512 197.16 159.197 196.944 158.955C196.728 158.713 196.444 158.516 196.092 158.364C195.739 158.213 195.359 158.08 194.95 157.966L193.518 157.557C192.609 157.296 191.889 156.923 191.359 156.438C190.828 155.953 190.563 155.319 190.563 154.535C190.563 153.883 190.739 153.315 191.092 152.83C191.448 152.341 191.925 151.963 192.523 151.694C193.126 151.421 193.798 151.285 194.541 151.285C195.291 151.285 195.957 151.419 196.541 151.688C197.124 151.953 197.586 152.317 197.927 152.779C198.272 153.241 198.453 153.766 198.472 154.353H197.109ZM204.312 163.262C203.524 163.262 202.833 163.074 202.238 162.699C201.647 162.324 201.185 161.8 200.852 161.125C200.522 160.451 200.357 159.663 200.357 158.762C200.357 157.853 200.522 157.059 200.852 156.381C201.185 155.703 201.647 155.177 202.238 154.802C202.833 154.427 203.524 154.239 204.312 154.239C205.1 154.239 205.789 154.427 206.38 154.802C206.975 155.177 207.437 155.703 207.766 156.381C208.1 157.059 208.266 157.853 208.266 158.762C208.266 159.663 208.1 160.451 207.766 161.125C207.437 161.8 206.975 162.324 206.38 162.699C205.789 163.074 205.1 163.262 204.312 163.262ZM204.312 162.057C204.91 162.057 205.403 161.904 205.789 161.597C206.175 161.29 206.461 160.887 206.647 160.387C206.833 159.887 206.925 159.345 206.925 158.762C206.925 158.178 206.833 157.635 206.647 157.131C206.461 156.627 206.175 156.22 205.789 155.91C205.403 155.599 204.91 155.444 204.312 155.444C203.713 155.444 203.221 155.599 202.835 155.91C202.448 156.22 202.162 156.627 201.977 157.131C201.791 157.635 201.698 158.178 201.698 158.762C201.698 159.345 201.791 159.887 201.977 160.387C202.162 160.887 202.448 161.29 202.835 161.597C203.221 161.904 203.713 162.057 204.312 162.057ZM215.813 159.512V154.353H217.154V163.08H215.813V161.603H215.722C215.518 162.046 215.2 162.423 214.768 162.733C214.336 163.04 213.791 163.194 213.131 163.194C212.586 163.194 212.101 163.074 211.677 162.836C211.253 162.593 210.919 162.23 210.677 161.745C210.434 161.256 210.313 160.641 210.313 159.898V154.353H211.654V159.807C211.654 160.444 211.832 160.951 212.188 161.33C212.548 161.709 213.006 161.898 213.563 161.898C213.897 161.898 214.236 161.813 214.58 161.643C214.929 161.472 215.22 161.211 215.455 160.858C215.694 160.506 215.813 160.057 215.813 159.512ZM219.61 163.08V154.353H220.906V155.671H220.997C221.156 155.239 221.443 154.889 221.86 154.62C222.277 154.351 222.747 154.216 223.269 154.216C223.368 154.216 223.491 154.218 223.639 154.222C223.786 154.226 223.898 154.232 223.974 154.239V155.603C223.928 155.591 223.824 155.574 223.661 155.552C223.502 155.525 223.334 155.512 223.156 155.512C222.731 155.512 222.353 155.601 222.019 155.779C221.69 155.953 221.428 156.196 221.235 156.506C221.046 156.813 220.951 157.163 220.951 157.557V163.08H219.61ZM228.843 163.262C228.025 163.262 227.32 163.069 226.729 162.682C226.139 162.296 225.684 161.764 225.366 161.086C225.048 160.408 224.889 159.633 224.889 158.762C224.889 157.875 225.051 157.093 225.377 156.415C225.707 155.733 226.165 155.201 226.752 154.819C227.343 154.432 228.032 154.239 228.82 154.239C229.434 154.239 229.987 154.353 230.479 154.58C230.972 154.807 231.375 155.125 231.69 155.535C232.004 155.944 232.199 156.421 232.275 156.966H230.934C230.832 156.569 230.604 156.216 230.252 155.91C229.904 155.599 229.434 155.444 228.843 155.444C228.32 155.444 227.862 155.58 227.468 155.853C227.078 156.122 226.773 156.502 226.553 156.995C226.337 157.483 226.229 158.057 226.229 158.716C226.229 159.391 226.336 159.978 226.548 160.478C226.764 160.978 227.067 161.366 227.457 161.643C227.851 161.919 228.313 162.057 228.843 162.057C229.192 162.057 229.508 161.997 229.792 161.875C230.076 161.754 230.317 161.58 230.514 161.353C230.711 161.125 230.851 160.853 230.934 160.535H232.275C232.199 161.05 232.012 161.514 231.712 161.927C231.417 162.336 231.025 162.661 230.536 162.904C230.051 163.143 229.487 163.262 228.843 163.262ZM237.894 163.262C237.053 163.262 236.328 163.076 235.718 162.705C235.112 162.33 234.644 161.807 234.315 161.137C233.989 160.463 233.826 159.678 233.826 158.785C233.826 157.891 233.989 157.103 234.315 156.421C234.644 155.735 235.103 155.201 235.69 154.819C236.281 154.432 236.97 154.239 237.758 154.239C238.212 154.239 238.661 154.315 239.104 154.466C239.548 154.618 239.951 154.864 240.315 155.205C240.678 155.542 240.968 155.989 241.184 156.546C241.4 157.103 241.508 157.788 241.508 158.603V159.171H234.781V158.012H240.144C240.144 157.519 240.046 157.08 239.849 156.694C239.656 156.307 239.379 156.002 239.019 155.779C238.663 155.555 238.243 155.444 237.758 155.444C237.224 155.444 236.762 155.576 236.372 155.841C235.985 156.103 235.688 156.444 235.479 156.864C235.271 157.285 235.167 157.735 235.167 158.216V158.989C235.167 159.648 235.281 160.207 235.508 160.665C235.739 161.12 236.059 161.466 236.468 161.705C236.877 161.94 237.353 162.057 237.894 162.057C238.247 162.057 238.565 162.008 238.849 161.91C239.137 161.807 239.385 161.656 239.593 161.455C239.801 161.25 239.962 160.997 240.076 160.694L241.372 161.057C241.235 161.497 241.006 161.883 240.684 162.216C240.362 162.546 239.964 162.803 239.491 162.989C239.017 163.171 238.485 163.262 237.894 163.262Z" fill="#102B2D"/>
<path d="M261 122H171C167.134 122 164 125.134 164 129V189C164 192.866 167.134 196 171 196H261C264.866 196 268 192.866 268 189V129C268 125.134 264.866 122 261 122Z" stroke="#58DA95" stroke-width="2"/>
<path d="M450.057 28V19.2727H453.108C453.716 19.2727 454.217 19.3778 454.612 19.5881C455.007 19.7955 455.301 20.0753 455.494 20.4276C455.688 20.777 455.784 21.1648 455.784 21.5909C455.784 21.9659 455.717 22.2756 455.584 22.5199C455.453 22.7642 455.28 22.9574 455.064 23.0994C454.851 23.2415 454.619 23.3466 454.369 23.4148V23.5C454.636 23.517 454.905 23.6108 455.175 23.7812C455.445 23.9517 455.67 24.196 455.852 24.5142C456.034 24.8324 456.125 25.2216 456.125 25.6818C456.125 26.1193 456.026 26.5128 455.827 26.8622C455.628 27.2116 455.314 27.4886 454.885 27.6932C454.456 27.8977 453.898 28 453.21 28H450.057ZM451.114 27.0625H453.21C453.901 27.0625 454.391 26.929 454.68 26.6619C454.973 26.392 455.119 26.0653 455.119 25.6818C455.119 25.3864 455.044 25.1136 454.893 24.8636C454.743 24.6108 454.528 24.4091 454.25 24.2585C453.972 24.1051 453.642 24.0284 453.261 24.0284H451.114V27.0625ZM451.114 23.108H453.074C453.392 23.108 453.679 23.0455 453.935 22.9205C454.193 22.7955 454.398 22.6193 454.548 22.392C454.702 22.1648 454.778 21.8977 454.778 21.5909C454.778 21.2074 454.645 20.8821 454.378 20.6151C454.111 20.3452 453.688 20.2102 453.108 20.2102H451.114V23.108ZM463.589 19.2727H464.646V25.0511C464.646 25.6477 464.505 26.1804 464.224 26.6491C463.945 27.1151 463.552 27.483 463.043 27.7528C462.535 28.0199 461.938 28.1534 461.254 28.1534C460.569 28.1534 459.972 28.0199 459.464 27.7528C458.955 27.483 458.56 27.1151 458.279 26.6491C458.001 26.1804 457.862 25.6477 457.862 25.0511V19.2727H458.918V24.9659C458.918 25.392 459.012 25.7713 459.2 26.1037C459.387 26.4332 459.654 26.6932 460.001 26.8835C460.35 27.071 460.768 27.1648 461.254 27.1648C461.739 27.1648 462.157 27.071 462.506 26.8835C462.856 26.6932 463.123 26.4332 463.308 26.1037C463.495 25.7713 463.589 25.392 463.589 24.9659V19.2727ZM467.813 19.2727V28H466.756V19.2727H467.813ZM469.932 28V19.2727H470.989V27.0625H475.045V28H469.932ZM479.375 28H476.682V19.2727H479.494C480.341 19.2727 481.065 19.4474 481.668 19.7969C482.27 20.1435 482.732 20.642 483.053 21.2926C483.374 21.9403 483.534 22.7159 483.534 23.6193C483.534 24.5284 483.372 25.3111 483.048 25.9673C482.724 26.6207 482.253 27.1236 481.634 27.4759C481.014 27.8253 480.261 28 479.375 28ZM477.739 27.0625H479.307C480.028 27.0625 480.626 26.9233 481.101 26.6449C481.575 26.3665 481.929 25.9702 482.162 25.456C482.395 24.9418 482.511 24.3295 482.511 23.6193C482.511 22.9148 482.396 22.3082 482.166 21.7997C481.936 21.2884 481.592 20.8963 481.135 20.6236C480.678 20.348 480.108 20.2102 479.426 20.2102H477.739V27.0625ZM488.205 20.2102V19.2727H494.75V20.2102H492.006V28H490.949V20.2102H488.205ZM496.381 28V19.2727H497.438V23.1591H502.091V19.2727H503.148V28H502.091V24.0966H497.438V28H496.381ZM505.264 28V19.2727H508.213C508.895 19.2727 509.454 19.3892 509.892 19.6222C510.329 19.8523 510.653 20.169 510.863 20.5724C511.074 20.9759 511.179 21.4347 511.179 21.9489C511.179 22.4631 511.074 22.919 510.863 23.3168C510.653 23.7145 510.331 24.027 509.896 24.2543C509.461 24.4787 508.906 24.5909 508.23 24.5909H505.843V23.6364H508.196C508.662 23.6364 509.037 23.5682 509.321 23.4318C509.608 23.2955 509.815 23.1023 509.943 22.8523C510.074 22.5994 510.139 22.2983 510.139 21.9489C510.139 21.5994 510.074 21.294 509.943 21.0327C509.812 20.7713 509.603 20.5696 509.316 20.4276C509.029 20.2827 508.65 20.2102 508.179 20.2102H506.321V28H505.264ZM509.372 24.0795L511.52 28H510.292L508.179 24.0795H509.372ZM512.94 28V19.2727H518.207V20.2102H513.996V23.1591H517.934V24.0966H513.996V27.0625H518.275V28H512.94ZM520.469 28H519.362L522.566 19.2727H523.657L526.862 28H525.754L523.146 20.6534H523.077L520.469 28ZM520.879 24.5909H525.344V25.5284H520.879V24.5909ZM526.724 20.2102V19.2727H533.27V20.2102H530.525V28H529.468V20.2102H526.724ZM539.673 21.4545C539.622 21.0227 539.415 20.6875 539.051 20.4489C538.688 20.2102 538.241 20.0909 537.713 20.0909C537.327 20.0909 536.989 20.1534 536.699 20.2784C536.412 20.4034 536.188 20.5753 536.026 20.794C535.866 21.0128 535.787 21.2614 535.787 21.5398C535.787 21.7727 535.842 21.973 535.953 22.1406C536.067 22.3054 536.212 22.4432 536.388 22.554C536.564 22.6619 536.749 22.7514 536.942 22.8224C537.135 22.8906 537.312 22.946 537.474 22.9886L538.361 23.2273C538.588 23.2869 538.841 23.3693 539.119 23.4744C539.401 23.5795 539.669 23.723 539.925 23.9048C540.183 24.0838 540.396 24.3139 540.564 24.5952C540.732 24.8764 540.815 25.2216 540.815 25.6307C540.815 26.1023 540.692 26.5284 540.445 26.9091C540.2 27.2898 539.842 27.5923 539.371 27.8168C538.902 28.0412 538.332 28.1534 537.662 28.1534C537.037 28.1534 536.496 28.0526 536.038 27.8509C535.584 27.6491 535.226 27.3679 534.964 27.0071C534.706 26.6463 534.56 26.2273 534.526 25.75H535.616C535.645 26.0795 535.756 26.3523 535.949 26.5682C536.145 26.7812 536.392 26.9403 536.69 27.0455C536.991 27.1477 537.315 27.1989 537.662 27.1989C538.065 27.1989 538.428 27.1335 538.749 27.0028C539.07 26.8693 539.324 26.6847 539.511 26.4489C539.699 26.2102 539.793 25.9318 539.793 25.6136C539.793 25.3239 539.712 25.0881 539.55 24.9062C539.388 24.7244 539.175 24.5767 538.911 24.4631C538.646 24.3494 538.361 24.25 538.054 24.1648L536.98 23.858C536.298 23.6619 535.759 23.3821 535.361 23.0185C534.963 22.6548 534.764 22.179 534.764 21.5909C534.764 21.1023 534.896 20.6761 535.161 20.3125C535.428 19.946 535.786 19.6619 536.234 19.4602C536.686 19.2557 537.19 19.1534 537.747 19.1534C538.31 19.1534 538.81 19.2543 539.247 19.456C539.685 19.6548 540.031 19.9276 540.287 20.2741C540.545 20.6207 540.682 21.0142 540.696 21.4545H539.673Z" fill="#155757"/>
<path d="M342 42V40C342 36.6863 344.17 34 346.847 34H644.153C646.83 34 649 36.6863 649 40V42" stroke="#155757"/>
<path d="M321.401 86.971C322.294 89.239 320.854 91.72 318.44 92.06C309.522 93.313 300.478 93.313 291.56 92.06C289.146 91.72 287.706 89.239 288.599 86.971C291.992 78.358 296.504 70.226 301.999 62.8407C303.504 60.8167 306.496 60.8167 308.001 62.8407C313.496 70.226 318.008 78.358 321.401 86.971Z" fill="#F03100"/>
<path d="M310.641 77.09H309.056C308.962 76.634 308.798 76.2335 308.564 75.8883C308.334 75.5431 308.053 75.2533 307.72 75.019C307.392 74.7803 307.028 74.6014 306.627 74.482C306.227 74.3627 305.809 74.3031 305.374 74.3031C304.582 74.3031 303.864 74.5033 303.22 74.9039C302.581 75.3045 302.072 75.8947 301.692 76.6745C301.317 77.4543 301.13 78.411 301.13 79.5445C301.13 80.6781 301.317 81.6347 301.692 82.4146C302.072 83.1944 302.581 83.7846 303.22 84.1852C303.864 84.5857 304.582 84.786 305.374 84.786C305.809 84.786 306.227 84.7264 306.627 84.607C307.028 84.4877 307.392 84.3109 307.72 84.0765C308.053 83.8379 308.334 83.546 308.564 83.2008C308.798 82.8514 308.962 82.4508 309.056 81.9991H310.641C310.522 82.6681 310.305 83.2668 309.989 83.7953C309.674 84.3237 309.282 84.7732 308.813 85.144C308.344 85.5105 307.818 85.7896 307.234 85.9813C306.655 86.1731 306.035 86.269 305.374 86.269C304.258 86.269 303.265 85.9962 302.396 85.4508C301.526 84.9053 300.842 84.1298 300.344 83.1241C299.845 82.1184 299.596 80.9252 299.596 79.5445C299.596 78.1639 299.845 76.9707 300.344 75.965C300.842 74.9593 301.526 74.1837 302.396 73.6383C303.265 73.0928 304.258 72.8201 305.374 72.8201C306.035 72.8201 306.655 72.916 307.234 73.1078C307.818 73.2995 308.344 73.5808 308.813 73.9515C309.282 74.318 309.674 74.7654 309.989 75.2938C310.305 75.818 310.522 76.4167 310.641 77.09Z" fill="white"/>
<path d="M306 91.5C306 90.948 305.552 90.5 305 90.5C304.448 90.5 304 90.948 304 91.5H306ZM304 141C304 141.552 304.448 142 305 142C305.552 142 306 141.552 306 141H304ZM304 91.55C304 92.103 304.448 92.55 305 92.55C305.552 92.55 306 92.103 306 91.55H304ZM306 95.575C306 95.022 305.552 94.575 305 94.575C304.448 94.575 304 95.022 304 95.575H306ZM304 95.675C304 96.228 304.448 96.675 305 96.675C305.552 96.675 306 96.228 306 95.675H304ZM306 99.7C306 99.147 305.552 98.7 305 98.7C304.448 98.7 304 99.147 304 99.7H306ZM304 99.8C304 100.353 304.448 100.8 305 100.8C305.552 100.8 306 100.353 306 99.8H304ZM306 103.825C306 103.272 305.552 102.825 305 102.825C304.448 102.825 304 103.272 304 103.825H306ZM304 103.925C304 104.478 304.448 104.925 305 104.925C305.552 104.925 306 104.478 306 103.925H304ZM306 107.95C306 107.397 305.552 106.95 305 106.95C304.448 106.95 304 107.397 304 107.95H306ZM304 108.05C304 108.603 304.448 109.05 305 109.05C305.552 109.05 306 108.603 306 108.05H304ZM306 112.075C306 111.522 305.552 111.075 305 111.075C304.448 111.075 304 111.522 304 112.075H306ZM304 112.175C304 112.728 304.448 113.175 305 113.175C305.552 113.175 306 112.728 306 112.175H304ZM306 116.2C306 115.647 305.552 115.2 305 115.2C304.448 115.2 304 115.647 304 116.2H306ZM304 116.3C304 116.853 304.448 117.3 305 117.3C305.552 117.3 306 116.853 306 116.3H304ZM306 120.325C306 119.772 305.552 119.325 305 119.325C304.448 119.325 304 119.772 304 120.325H306ZM304 120.425C304 120.978 304.448 121.425 305 121.425C305.552 121.425 306 120.978 306 120.425H304ZM306 124.45C306 123.897 305.552 123.45 305 123.45C304.448 123.45 304 123.897 304 124.45H306ZM304 124.55C304 125.103 304.448 125.55 305 125.55C305.552 125.55 306 125.103 306 124.55H304ZM306 128.575C306 128.022 305.552 127.575 305 127.575C304.448 127.575 304 128.022 304 128.575H306ZM304 128.675C304 129.228 304.448 129.675 305 129.675C305.552 129.675 306 129.228 306 128.675H304ZM306 132.7C306 132.147 305.552 131.7 305 131.7C304.448 131.7 304 132.147 304 132.7H306ZM304 132.8C304 133.353 304.448 133.8 305 133.8C305.552 133.8 306 133.353 306 132.8H304ZM306 136.825C306 136.272 305.552 135.825 305 135.825C304.448 135.825 304 136.272 304 136.825H306ZM304 136.925C304 137.478 304.448 137.925 305 137.925C305.552 137.925 306 137.478 306 136.925H304ZM306 140.95C306 140.397 305.552 139.95 305 139.95C304.448 139.95 304 140.397 304 140.95H306ZM304 91.5V91.55H306V91.5H304ZM304 95.575V95.675H306V95.575H304ZM304 99.7V99.8H306V99.7H304ZM304 103.825V103.925H306V103.825H304ZM304 107.95V108.05H306V107.95H304ZM304 112.075V112.175H306V112.075H304ZM304 116.2V116.3H306V116.2H304ZM304 120.325V120.425H306V120.325H304ZM304 124.45V124.55H306V124.45H304ZM304 128.575V128.675H306V128.575H304ZM304 132.7V132.8H306V132.7H304ZM304 136.825V136.925H306V136.825H304ZM304 140.95V141H306V140.95H304Z" fill="#F03100"/>
<path d="M273 159H337" stroke="#58DA95" stroke-linejoin="round"/>
<path d="M303 153L309 159L303 165" stroke="#58DA95" stroke-linecap="square" stroke-linejoin="round"/>
<path d="M403.401 86.971C404.294 89.239 402.854 91.72 400.44 92.06C391.522 93.313 382.478 93.313 373.56 92.06C371.146 91.72 369.706 89.239 370.599 86.971C373.992 78.358 378.504 70.226 383.999 62.8407C385.504 60.8167 388.496 60.8167 390.001 62.8407C395.496 70.226 400.008 78.358 403.401 86.971Z" fill="#F03100"/>
<path d="M381.914 86.09V72.9991H389.815V74.4053H383.499V78.8286H389.406V80.2349H383.499V84.6837H389.917V86.09H381.914Z" fill="white"/>
<path d="M388 91.5C388 90.948 387.552 90.5 387 90.5C386.448 90.5 386 90.948 386 91.5H388ZM386 121C386 121.552 386.448 122 387 122C387.552 122 388 121.552 388 121H386ZM386 91.551C386 92.104 386.448 92.551 387 92.551C387.552 92.551 388 92.104 388 91.551H386ZM388 95.663C388 95.111 387.552 94.663 387 94.663C386.448 94.663 386 95.111 386 95.663H388ZM386 95.766C386 96.318 386.448 96.766 387 96.766C387.552 96.766 388 96.318 388 95.766H386ZM388 99.877C388 99.325 387.552 98.877 387 98.877C386.448 98.877 386 99.325 386 99.877H388ZM386 99.98C386 100.532 386.448 100.98 387 100.98C387.552 100.98 388 100.532 388 99.98H386ZM388 104.091C388 103.539 387.552 103.091 387 103.091C386.448 103.091 386 103.539 386 104.091H388ZM386 104.194C386 104.747 386.448 105.194 387 105.194C387.552 105.194 388 104.747 388 104.194H386ZM388 108.306C388 107.753 387.552 107.306 387 107.306C386.448 107.306 386 107.753 386 108.306H388ZM386 108.409C386 108.961 386.448 109.409 387 109.409C387.552 109.409 388 108.961 388 108.409H386ZM388 112.52C388 111.968 387.552 111.52 387 111.52C386.448 111.52 386 111.968 386 112.52H388ZM386 112.623C386 113.175 386.448 113.623 387 113.623C387.552 113.623 388 113.175 388 112.623H386ZM388 116.734C388 116.182 387.552 115.734 387 115.734C386.448 115.734 386 116.182 386 116.734H388ZM386 116.837C386 117.389 386.448 117.837 387 117.837C387.552 117.837 388 117.389 388 116.837H386ZM388 120.949C388 120.396 387.552 119.949 387 119.949C386.448 119.949 386 120.396 386 120.949H388ZM386 91.5V91.551H388V91.5H386ZM386 95.663V95.766H388V95.663H386ZM386 99.877V99.98H388V99.877H386ZM386 104.091V104.194H388V104.091H386ZM386 108.306V108.409H388V108.306H386ZM386 112.52V112.623H388V112.52H386ZM386 116.734V116.837H388V116.734H386ZM386 120.949V121H388V120.949H386Z" fill="#F03100"/>
<path d="M368.628 163.08V151.444H372.696C373.507 151.444 374.175 151.584 374.702 151.864C375.228 152.141 375.621 152.514 375.878 152.983C376.136 153.449 376.264 153.966 376.264 154.535C376.264 155.035 376.175 155.447 375.997 155.773C375.823 156.099 375.592 156.357 375.304 156.546C375.02 156.735 374.711 156.875 374.378 156.966V157.08C374.734 157.103 375.092 157.228 375.452 157.455C375.812 157.682 376.113 158.008 376.355 158.432C376.598 158.857 376.719 159.375 376.719 159.989C376.719 160.572 376.586 161.097 376.321 161.563C376.056 162.029 375.638 162.398 375.066 162.671C374.494 162.944 373.749 163.08 372.833 163.08H368.628ZM370.037 161.83H372.833C373.753 161.83 374.406 161.652 374.793 161.296C375.183 160.936 375.378 160.5 375.378 159.989C375.378 159.595 375.278 159.232 375.077 158.898C374.876 158.561 374.59 158.292 374.219 158.091C373.848 157.887 373.408 157.785 372.901 157.785H370.037V161.83ZM370.037 156.557H372.651C373.075 156.557 373.458 156.474 373.799 156.307C374.143 156.141 374.416 155.906 374.617 155.603C374.821 155.3 374.924 154.944 374.924 154.535C374.924 154.023 374.746 153.589 374.389 153.233C374.033 152.874 373.469 152.694 372.696 152.694H370.037V156.557ZM384.353 159.512V154.353H385.693V163.08H384.353V161.603H384.262C384.057 162.046 383.739 162.423 383.307 162.733C382.875 163.04 382.33 163.194 381.671 163.194C381.125 163.194 380.64 163.074 380.216 162.836C379.792 162.593 379.459 162.23 379.216 161.745C378.974 161.256 378.853 160.641 378.853 159.898V154.353H380.193V159.807C380.193 160.444 380.371 160.951 380.728 161.33C381.087 161.709 381.546 161.898 382.103 161.898C382.436 161.898 382.775 161.813 383.12 161.643C383.468 161.472 383.76 161.211 383.995 160.858C384.233 160.506 384.353 160.057 384.353 159.512ZM388.149 163.08V154.353H389.49V163.08H388.149ZM388.831 152.898C388.57 152.898 388.344 152.809 388.155 152.631C387.969 152.453 387.877 152.239 387.877 151.989C387.877 151.739 387.969 151.525 388.155 151.347C388.344 151.169 388.57 151.08 388.831 151.08C389.093 151.08 389.316 151.169 389.502 151.347C389.691 151.525 389.786 151.739 389.786 151.989C389.786 152.239 389.691 152.453 389.502 152.631C389.316 152.809 389.093 152.898 388.831 152.898ZM393.287 151.444V163.08H391.946V151.444H393.287ZM399.039 163.262C398.311 163.262 397.669 163.078 397.112 162.711C396.556 162.339 396.12 161.817 395.806 161.143C395.491 160.464 395.334 159.663 395.334 158.739C395.334 157.822 395.491 157.027 395.806 156.353C396.12 155.678 396.558 155.158 397.118 154.79C397.679 154.423 398.326 154.239 399.061 154.239C399.63 154.239 400.078 154.334 400.408 154.523C400.741 154.709 400.995 154.921 401.169 155.16C401.347 155.394 401.486 155.588 401.584 155.739H401.698V151.444H403.039V163.08H401.743V161.739H401.584C401.486 161.898 401.345 162.099 401.164 162.341C400.982 162.58 400.722 162.794 400.385 162.983C400.048 163.169 399.599 163.262 399.039 163.262ZM399.22 162.057C399.758 162.057 400.213 161.917 400.584 161.637C400.955 161.353 401.237 160.961 401.431 160.461C401.624 159.957 401.72 159.375 401.72 158.716C401.72 158.065 401.626 157.495 401.436 157.006C401.247 156.514 400.967 156.131 400.595 155.858C400.224 155.582 399.766 155.444 399.22 155.444C398.652 155.444 398.179 155.589 397.8 155.881C397.425 156.169 397.143 156.561 396.953 157.057C396.768 157.55 396.675 158.103 396.675 158.716C396.675 159.338 396.77 159.902 396.959 160.41C397.152 160.913 397.436 161.315 397.811 161.614C398.19 161.91 398.66 162.057 399.22 162.057Z" fill="#102B2D"/>
<path d="M395 122H379C358.565 122 342 138.565 342 159C342 179.435 358.565 196 379 196H395C415.435 196 432 179.435 432 159C432 138.565 415.435 122 395 122Z" stroke="#58DA95" stroke-width="2"/>
<path d="M387 229V201" stroke="#58DA95" stroke-linejoin="round"/>
<path d="M381 217L387 211L393 217" stroke="#58DA95" stroke-linecap="square" stroke-linejoin="round"/>
<path d="M485.401 86.971C486.294 89.239 484.854 91.72 482.44 92.06C473.522 93.313 464.478 93.313 455.56 92.06C453.146 91.72 451.706 89.239 452.599 86.971C455.992 78.358 460.504 70.226 465.999 62.8407C467.504 60.8167 470.496 60.8167 472.001 62.8407C477.496 70.226 482.008 78.358 485.401 86.971Z" fill="#F03100"/>
<path d="M464.925 86.09V72.9991H472.775V74.4053H466.51V78.8286H472.187V80.2349H466.51V86.09H464.925Z" fill="white"/>
<path d="M470 91.5C470 90.948 469.552 90.5 469 90.5C468.448 90.5 468 90.948 468 91.5H470ZM468 141C468 141.552 468.448 142 469 142C469.552 142 470 141.552 470 141H468ZM468 91.55C468 92.103 468.448 92.55 469 92.55C469.552 92.55 470 92.103 470 91.55H468ZM470 95.575C470 95.022 469.552 94.575 469 94.575C468.448 94.575 468 95.022 468 95.575H470ZM468 95.675C468 96.228 468.448 96.675 469 96.675C469.552 96.675 470 96.228 470 95.675H468ZM470 99.7C470 99.147 469.552 98.7 469 98.7C468.448 98.7 468 99.147 468 99.7H470ZM468 99.8C468 100.353 468.448 100.8 469 100.8C469.552 100.8 470 100.353 470 99.8H468ZM470 103.825C470 103.272 469.552 102.825 469 102.825C468.448 102.825 468 103.272 468 103.825H470ZM468 103.925C468 104.478 468.448 104.925 469 104.925C469.552 104.925 470 104.478 470 103.925H468ZM470 107.95C470 107.397 469.552 106.95 469 106.95C468.448 106.95 468 107.397 468 107.95H470ZM468 108.05C468 108.603 468.448 109.05 469 109.05C469.552 109.05 470 108.603 470 108.05H468ZM470 112.075C470 111.522 469.552 111.075 469 111.075C468.448 111.075 468 111.522 468 112.075H470ZM468 112.175C468 112.728 468.448 113.175 469 113.175C469.552 113.175 470 112.728 470 112.175H468ZM470 116.2C470 115.647 469.552 115.2 469 115.2C468.448 115.2 468 115.647 468 116.2H470ZM468 116.3C468 116.853 468.448 117.3 469 117.3C469.552 117.3 470 116.853 470 116.3H468ZM470 120.325C470 119.772 469.552 119.325 469 119.325C468.448 119.325 468 119.772 468 120.325H470ZM468 120.425C468 120.978 468.448 121.425 469 121.425C469.552 121.425 470 120.978 470 120.425H468ZM470 124.45C470 123.897 469.552 123.45 469 123.45C468.448 123.45 468 123.897 468 124.45H470ZM468 124.55C468 125.103 468.448 125.55 469 125.55C469.552 125.55 470 125.103 470 124.55H468ZM470 128.575C470 128.022 469.552 127.575 469 127.575C468.448 127.575 468 128.022 468 128.575H470ZM468 128.675C468 129.228 468.448 129.675 469 129.675C469.552 129.675 470 129.228 470 128.675H468ZM470 132.7C470 132.147 469.552 131.7 469 131.7C468.448 131.7 468 132.147 468 132.7H470ZM468 132.8C468 133.353 468.448 133.8 469 133.8C469.552 133.8 470 133.353 470 132.8H468ZM470 136.825C470 136.272 469.552 135.825 469 135.825C468.448 135.825 468 136.272 468 136.825H470ZM468 136.925C468 137.478 468.448 137.925 469 137.925C469.552 137.925 470 137.478 470 136.925H468ZM470 140.95C470 140.397 469.552 139.95 469 139.95C468.448 139.95 468 140.397 468 140.95H470ZM468 91.5V91.55H470V91.5H468ZM468 95.575V95.675H470V95.575H468ZM468 99.7V99.8H470V99.7H468ZM468 103.825V103.925H470V103.825H468ZM468 107.95V108.05H470V107.95H468ZM468 112.075V112.175H470V112.075H468ZM468 116.2V116.3H470V116.2H468ZM468 120.325V120.425H470V120.325H468ZM468 124.45V124.55H470V124.45H468ZM468 128.575V128.675H470V128.575H468ZM468 132.7V132.8H470V132.7H468ZM468 136.825V136.925H470V136.825H468ZM468 140.95V141H470V140.95H468Z" fill="#F03100"/>
<path d="M437 159H501" stroke="#58DA95" stroke-linejoin="round"/>
<path d="M467 153L473 159L467 165" stroke="#58DA95" stroke-linecap="square" stroke-linejoin="round"/>
<path d="M310.932 272C311.484 272 311.932 271.552 311.932 271C311.932 270.448 311.484 270 310.932 270V272ZM285.932 270C285.38 270 284.932 270.448 284.932 271C284.932 271.552 285.38 272 285.932 272V270ZM310.881 270C310.329 270 309.881 270.448 309.881 271C309.881 271.552 310.329 272 310.881 272V270ZM306.816 272C307.369 272 307.816 271.552 307.816 271C307.816 270.448 307.369 270 306.816 270V272ZM306.715 270C306.162 270 305.715 270.448 305.715 271C305.715 271.552 306.162 272 306.715 272V270ZM302.65 272C303.202 272 303.65 271.552 303.65 271C303.65 270.448 303.202 270 302.65 270V272ZM302.548 270C301.996 270 301.548 270.448 301.548 271C301.548 271.552 301.996 272 302.548 272V270ZM298.483 272C299.035 272 299.483 271.552 299.483 271C299.483 270.448 299.035 270 298.483 270V272ZM298.381 270C297.829 270 297.381 270.448 297.381 271C297.381 271.552 297.829 272 298.381 272V270ZM294.316 272C294.869 272 295.316 271.552 295.316 271C295.316 270.448 294.869 270 294.316 270V272ZM294.215 270C293.662 270 293.215 270.448 293.215 271C293.215 271.552 293.662 272 294.215 272V270ZM290.15 272C290.702 272 291.15 271.552 291.15 271C291.15 270.448 290.702 270 290.15 270V272ZM290.048 270C289.496 270 289.048 270.448 289.048 271C289.048 271.552 289.496 272 290.048 272V270ZM285.983 272C286.535 272 286.983 271.552 286.983 271C286.983 270.448 286.535 270 285.983 270V272ZM310.932 270H310.881V272H310.932V270ZM306.816 270H306.715V272H306.816V270ZM302.65 270H302.548V272H302.65V270ZM298.483 270H298.381V272H298.483V270ZM294.316 270H294.215V272H294.316V270ZM290.15 270H290.048V272H290.15V270ZM285.983 270H285.932V272H285.983V270Z" fill="#F03100"/>
<path d="M303.401 280.971C304.294 283.239 302.854 285.72 300.44 286.06C291.522 287.313 282.478 287.313 273.56 286.06C271.146 285.72 269.706 283.239 270.599 280.971C273.992 272.358 278.504 264.226 283.999 256.841C285.504 254.817 288.496 254.817 290.001 256.841C295.496 264.226 300.008 272.358 303.401 280.971Z" fill="#F03100"/>
<path d="M286.736 280.09H282.696V266.999H286.915C288.185 266.999 289.272 267.261 290.175 267.785C291.078 268.305 291.771 269.053 292.252 270.029C292.734 271.001 292.975 272.164 292.975 273.519C292.975 274.883 292.732 276.057 292.246 277.041C291.76 278.021 291.053 278.775 290.124 279.304C289.195 279.828 288.066 280.09 286.736 280.09ZM284.281 278.684H286.634C287.716 278.684 288.613 278.475 289.325 278.057C290.036 277.64 290.567 277.045 290.916 276.274C291.266 275.503 291.441 274.584 291.441 273.519C291.441 272.462 291.268 271.552 290.923 270.79C290.578 270.023 290.062 269.434 289.376 269.025C288.69 268.612 287.835 268.405 286.813 268.405H284.281V278.684Z" fill="white"/>
<path d="M343.672 275.243H340.13V263.766H343.828C344.942 263.766 345.894 263.996 346.687 264.455C347.479 264.911 348.086 265.567 348.508 266.422C348.93 267.274 349.141 268.294 349.141 269.482C349.141 270.678 348.928 271.707 348.502 272.57C348.076 273.429 347.456 274.09 346.642 274.554C345.827 275.013 344.837 275.243 343.672 275.243ZM341.52 274.01H343.582C344.531 274.01 345.317 273.827 345.941 273.461C346.565 273.095 347.03 272.574 347.337 271.897C347.643 271.221 347.796 270.416 347.796 269.482C347.796 268.556 347.645 267.758 347.342 267.089C347.04 266.417 346.588 265.901 345.986 265.542C345.385 265.18 344.635 264.999 343.739 264.999H341.52V274.01ZM354.902 275.422C354.073 275.422 353.357 275.239 352.756 274.873C352.158 274.503 351.697 273.988 351.372 273.326C351.05 272.661 350.89 271.888 350.89 271.006C350.89 270.125 351.05 269.348 351.372 268.675C351.697 267.999 352.149 267.472 352.728 267.095C353.311 266.714 353.99 266.523 354.768 266.523C355.216 266.523 355.659 266.598 356.096 266.747C356.533 266.897 356.931 267.14 357.289 267.476C357.648 267.808 357.934 268.249 358.147 268.798C358.36 269.348 358.466 270.024 358.466 270.827V271.387H351.831V270.244H357.121C357.121 269.759 357.024 269.325 356.83 268.944C356.639 268.563 356.367 268.262 356.012 268.042C355.66 267.821 355.246 267.711 354.768 267.711C354.241 267.711 353.785 267.842 353.4 268.103C353.019 268.361 352.726 268.697 352.52 269.112C352.315 269.527 352.212 269.971 352.212 270.446V271.208C352.212 271.858 352.324 272.409 352.548 272.861C352.776 273.31 353.092 273.651 353.495 273.887C353.899 274.118 354.368 274.234 354.902 274.234C355.25 274.234 355.563 274.186 355.844 274.089C356.127 273.988 356.372 273.838 356.578 273.64C356.783 273.439 356.942 273.188 357.054 272.889L358.332 273.248C358.197 273.681 357.971 274.062 357.654 274.391C357.336 274.716 356.944 274.97 356.477 275.153C356.01 275.333 355.485 275.422 354.902 275.422ZM360.478 278.471V266.635H361.756V268.003H361.913C362.01 267.853 362.144 267.663 362.316 267.431C362.492 267.196 362.742 266.986 363.067 266.803C363.396 266.617 363.841 266.523 364.401 266.523C365.126 266.523 365.765 266.704 366.318 267.067C366.87 267.429 367.302 267.943 367.612 268.608C367.922 269.273 368.077 270.057 368.077 270.962C368.077 271.873 367.922 272.663 367.612 273.332C367.302 273.997 366.872 274.513 366.323 274.879C365.774 275.241 365.141 275.422 364.423 275.422C363.87 275.422 363.428 275.331 363.095 275.148C362.763 274.961 362.507 274.75 362.327 274.514C362.148 274.275 362.01 274.077 361.913 273.92H361.801V278.471H360.478ZM361.778 270.939C361.778 271.589 361.874 272.163 362.064 272.66C362.255 273.153 362.533 273.539 362.899 273.82C363.265 274.096 363.713 274.234 364.244 274.234C364.797 274.234 365.258 274.089 365.628 273.797C366.002 273.502 366.282 273.106 366.469 272.609C366.659 272.108 366.755 271.552 366.755 270.939C366.755 270.334 366.661 269.788 366.474 269.303C366.291 268.813 366.013 268.427 365.639 268.143C365.27 267.855 364.804 267.711 364.244 267.711C363.706 267.711 363.254 267.848 362.888 268.12C362.522 268.389 362.245 268.767 362.058 269.252C361.872 269.734 361.778 270.297 361.778 270.939ZM373.704 275.422C372.874 275.422 372.159 275.239 371.557 274.873C370.96 274.503 370.498 273.988 370.173 273.326C369.852 272.661 369.691 271.888 369.691 271.006C369.691 270.125 369.852 269.348 370.173 268.675C370.498 267.999 370.95 267.472 371.529 267.095C372.112 266.714 372.792 266.523 373.569 266.523C374.017 266.523 374.46 266.598 374.897 266.747C375.334 266.897 375.732 267.14 376.091 267.476C376.45 267.808 376.735 268.249 376.948 268.798C377.161 269.348 377.268 270.024 377.268 270.827V271.387H370.633V270.244H375.923C375.923 269.759 375.826 269.325 375.631 268.944C375.441 268.563 375.168 268.262 374.813 268.042C374.462 267.821 374.047 267.711 373.569 267.711C373.042 267.711 372.587 267.842 372.202 268.103C371.821 268.361 371.527 268.697 371.322 269.112C371.116 269.527 371.014 269.971 371.014 270.446V271.208C371.014 271.858 371.126 272.409 371.35 272.861C371.578 273.31 371.894 273.651 372.297 273.887C372.701 274.118 373.169 274.234 373.704 274.234C374.051 274.234 374.365 274.186 374.645 274.089C374.929 273.988 375.174 273.838 375.379 273.64C375.585 273.439 375.744 273.188 375.856 272.889L377.133 273.248C376.999 273.681 376.773 274.062 376.455 274.391C376.138 274.716 375.745 274.97 375.278 275.153C374.811 275.333 374.286 275.422 373.704 275.422ZM382.53 275.422C381.813 275.422 381.179 275.241 380.63 274.879C380.081 274.513 379.651 273.997 379.341 273.332C379.031 272.663 378.876 271.873 378.876 270.962C378.876 270.057 379.031 269.273 379.341 268.608C379.651 267.943 380.083 267.429 380.636 267.067C381.189 266.704 381.828 266.523 382.552 266.523C383.113 266.523 383.556 266.617 383.881 266.803C384.209 266.986 384.46 267.196 384.632 267.431C384.807 267.663 384.944 267.853 385.041 268.003H385.153V263.766H386.475V275.243H385.198V273.92H385.041C384.944 274.077 384.805 274.275 384.626 274.514C384.447 274.75 384.191 274.961 383.858 275.148C383.526 275.331 383.083 275.422 382.53 275.422ZM382.709 274.234C383.24 274.234 383.688 274.096 384.054 273.82C384.42 273.539 384.699 273.153 384.889 272.66C385.08 272.163 385.175 271.589 385.175 270.939C385.175 270.297 385.082 269.734 384.895 269.252C384.708 268.767 384.432 268.389 384.066 268.12C383.699 267.848 383.247 267.711 382.709 267.711C382.149 267.711 381.682 267.855 381.308 268.143C380.938 268.427 380.66 268.813 380.473 269.303C380.29 269.788 380.199 270.334 380.199 270.939C380.199 271.552 380.292 272.108 380.479 272.609C380.669 273.106 380.95 273.502 381.32 273.797C381.693 274.089 382.156 274.234 382.709 274.234ZM392.69 275.422C391.861 275.422 391.145 275.239 390.544 274.873C389.946 274.503 389.485 273.988 389.16 273.326C388.838 272.661 388.678 271.888 388.678 271.006C388.678 270.125 388.838 269.348 389.16 268.675C389.485 267.999 389.937 267.472 390.516 267.095C391.099 266.714 391.779 266.523 392.556 266.523C393.004 266.523 393.447 266.598 393.884 266.747C394.321 266.897 394.719 267.14 395.077 267.476C395.436 267.808 395.722 268.249 395.935 268.798C396.148 269.348 396.254 270.024 396.254 270.827V271.387H389.619V270.244H394.909C394.909 269.759 394.812 269.325 394.618 268.944C394.427 268.563 394.155 268.262 393.8 268.042C393.449 267.821 393.034 267.711 392.556 267.711C392.029 267.711 391.573 267.842 391.188 268.103C390.807 268.361 390.514 268.697 390.308 269.112C390.103 269.527 390 269.971 390 270.446V271.208C390 271.858 390.112 272.409 390.336 272.861C390.564 273.31 390.88 273.651 391.284 273.887C391.687 274.118 392.156 274.234 392.69 274.234C393.038 274.234 393.351 274.186 393.632 274.089C393.916 273.988 394.16 273.838 394.366 273.64C394.571 273.439 394.73 273.188 394.842 272.889L396.12 273.248C395.985 273.681 395.759 274.062 395.442 274.391C395.124 274.716 394.732 274.97 394.265 275.153C393.798 275.333 393.273 275.422 392.69 275.422ZM399.589 270.065V275.243H398.266V266.635H399.544V267.98H399.656C399.858 267.543 400.164 267.192 400.575 266.927C400.986 266.658 401.517 266.523 402.167 266.523C402.749 266.523 403.259 266.643 403.697 266.882C404.134 267.117 404.474 267.476 404.716 267.958C404.959 268.436 405.081 269.041 405.081 269.773V275.243H403.758V269.863C403.758 269.187 403.583 268.66 403.231 268.283C402.88 267.902 402.398 267.711 401.786 267.711C401.363 267.711 400.986 267.803 400.654 267.986C400.325 268.169 400.065 268.436 399.875 268.787C399.684 269.138 399.589 269.564 399.589 270.065ZM410.994 275.422C410.187 275.422 409.493 275.232 408.91 274.851C408.327 274.47 407.879 273.945 407.565 273.276C407.251 272.607 407.094 271.843 407.094 270.984C407.094 270.11 407.255 269.338 407.576 268.669C407.901 267.997 408.353 267.472 408.932 267.095C409.515 266.714 410.195 266.523 410.972 266.523C411.577 266.523 412.123 266.635 412.608 266.859C413.094 267.084 413.492 267.397 413.802 267.801C414.112 268.204 414.305 268.675 414.379 269.213H413.057C412.956 268.821 412.732 268.473 412.384 268.171C412.04 267.864 411.577 267.711 410.994 267.711C410.479 267.711 410.027 267.846 409.638 268.115C409.253 268.38 408.953 268.755 408.736 269.241C408.523 269.723 408.417 270.289 408.417 270.939C408.417 271.604 408.521 272.183 408.73 272.676C408.943 273.17 409.242 273.552 409.627 273.825C410.016 274.098 410.471 274.234 410.994 274.234C411.338 274.234 411.65 274.175 411.93 274.055C412.21 273.935 412.448 273.764 412.642 273.539C412.836 273.315 412.974 273.046 413.057 272.732H414.379C414.305 273.24 414.12 273.698 413.824 274.105C413.533 274.509 413.146 274.83 412.664 275.069C412.186 275.305 411.63 275.422 410.994 275.422ZM416.313 275.243V266.635H417.635V275.243H416.313ZM416.985 265.201C416.727 265.201 416.505 265.113 416.318 264.937C416.135 264.762 416.044 264.55 416.044 264.304C416.044 264.057 416.135 263.846 416.318 263.671C416.505 263.495 416.727 263.407 416.985 263.407C417.243 263.407 417.463 263.495 417.646 263.671C417.833 263.846 417.927 264.057 417.927 264.304C417.927 264.55 417.833 264.762 417.646 264.937C417.463 265.113 417.243 265.201 416.985 265.201ZM423.667 275.422C422.837 275.422 422.122 275.239 421.52 274.873C420.922 274.503 420.461 273.988 420.136 273.326C419.815 272.661 419.654 271.888 419.654 271.006C419.654 270.125 419.815 269.348 420.136 268.675C420.461 267.999 420.913 267.472 421.492 267.095C422.075 266.714 422.755 266.523 423.532 266.523C423.98 266.523 424.423 266.598 424.86 266.747C425.297 266.897 425.695 267.14 426.054 267.476C426.413 267.808 426.698 268.249 426.911 268.798C427.124 269.348 427.231 270.024 427.231 270.827V271.387H420.596V270.244H425.886C425.886 269.759 425.789 269.325 425.594 268.944C425.404 268.563 425.131 268.262 424.776 268.042C424.425 267.821 424.01 267.711 423.532 267.711C423.005 267.711 422.549 267.842 422.165 268.103C421.784 268.361 421.49 268.697 421.285 269.112C421.079 269.527 420.977 269.971 420.977 270.446V271.208C420.977 271.858 421.089 272.409 421.313 272.861C421.541 273.31 421.856 273.651 422.26 273.887C422.663 274.118 423.132 274.234 423.667 274.234C424.014 274.234 424.328 274.186 424.608 274.089C424.892 273.988 425.137 273.838 425.342 273.64C425.548 273.439 425.706 273.188 425.818 272.889L427.096 273.248C426.962 273.681 426.736 274.062 426.418 274.391C426.101 274.716 425.708 274.97 425.241 275.153C424.774 275.333 424.249 275.422 423.667 275.422ZM435.34 268.563L434.152 268.899C434.077 268.701 433.967 268.509 433.821 268.322C433.679 268.131 433.485 267.975 433.238 267.851C432.992 267.728 432.676 267.666 432.291 267.666C431.764 267.666 431.325 267.788 430.974 268.031C430.627 268.27 430.453 268.574 430.453 268.944C430.453 269.273 430.573 269.532 430.812 269.723C431.051 269.914 431.424 270.072 431.933 270.199L433.21 270.513C433.98 270.7 434.553 270.986 434.931 271.371C435.308 271.752 435.497 272.243 435.497 272.844C435.497 273.338 435.355 273.778 435.071 274.167C434.791 274.556 434.398 274.862 433.894 275.086C433.39 275.31 432.803 275.422 432.134 275.422C431.256 275.422 430.53 275.232 429.954 274.851C429.379 274.47 429.015 273.913 428.861 273.181L430.117 272.867C430.236 273.33 430.462 273.678 430.795 273.909C431.131 274.141 431.57 274.257 432.112 274.257C432.728 274.257 433.218 274.126 433.58 273.864C433.946 273.599 434.129 273.282 434.129 272.912C434.129 272.613 434.025 272.363 433.815 272.161C433.606 271.955 433.285 271.802 432.852 271.701L431.417 271.365C430.629 271.178 430.05 270.889 429.68 270.496C429.314 270.1 429.13 269.605 429.13 269.011C429.13 268.526 429.267 268.096 429.54 267.722C429.816 267.349 430.192 267.055 430.666 266.843C431.144 266.63 431.686 266.523 432.291 266.523C433.143 266.523 433.812 266.71 434.297 267.084C434.787 267.457 435.134 267.95 435.34 268.563Z" fill="#102B2D"/>
<path d="M453.5 233H320.5C316.082 233 312.5 236.582 312.5 241V301C312.5 305.418 316.082 309 320.5 309H453.5C457.918 309 461.5 305.418 461.5 301V241C461.5 236.582 457.918 233 453.5 233Z" stroke="#58DA95" stroke-width="2" stroke-linecap="square" stroke-dasharray="5 5"/>
<mask id="mask0_3_254" style="mask-type:luminance" maskUnits="userSpaceOnUse" x="461" y="264" width="44" height="14">
<path d="M505 264H461.5V278H505V264Z" fill="white"/>
</mask>
<g mask="url(#mask0_3_254)">
<path d="M512.568 201V263C512.568 267.418 508.986 271 504.568 271H466.568" stroke="#58DA95" stroke-linejoin="round" stroke-dasharray="6 6"/>
</g>
<path d="M269 329V331C269 334.314 271.686 337 275 337H499C502.314 337 505 334.314 505 331V329" stroke="#155757"/>
<path d="M321.328 352.06H318.635V343.333H321.447C322.294 343.333 323.018 343.507 323.621 343.857C324.223 344.203 324.685 344.702 325.006 345.353C325.327 346 325.487 346.776 325.487 347.679C325.487 348.588 325.325 349.371 325.001 350.027C324.677 350.681 324.206 351.184 323.587 351.536C322.967 351.885 322.214 352.06 321.328 352.06ZM319.692 351.122H321.26C321.981 351.122 322.579 350.983 323.054 350.705C323.528 350.426 323.882 350.03 324.115 349.516C324.348 349.002 324.464 348.39 324.464 347.679C324.464 346.975 324.349 346.368 324.119 345.86C323.889 345.348 323.545 344.956 323.088 344.684C322.631 344.408 322.061 344.27 321.379 344.27H319.692V351.122ZM327.26 352.06V343.333H332.527V344.27H328.317V347.219H332.254V348.157H328.317V351.122H332.595V352.06H327.26ZM334.432 352.06V343.333H337.381C338.065 343.333 338.625 343.456 339.06 343.703C339.497 343.948 339.821 344.279 340.031 344.696C340.241 345.114 340.346 345.58 340.346 346.094C340.346 346.608 340.241 347.076 340.031 347.496C339.824 347.917 339.503 348.252 339.068 348.502C338.633 348.749 338.077 348.872 337.398 348.872H335.284V347.935H337.364C337.832 347.935 338.209 347.854 338.493 347.692C338.777 347.53 338.983 347.311 339.111 347.036C339.241 346.757 339.307 346.444 339.307 346.094C339.307 345.745 339.241 345.432 339.111 345.157C338.983 344.881 338.775 344.665 338.489 344.509C338.202 344.35 337.821 344.27 337.346 344.27H335.489V352.06H334.432ZM342.049 352.06V343.333H347.316V344.27H343.106V347.219H347.043V348.157H343.106V351.122H347.384V352.06H342.049ZM356.141 343.333V352.06H355.118L350.363 345.208H350.278V352.06H349.221V343.333H350.243L355.016 350.202H355.101V343.333H356.141ZM360.949 352.06H358.256V343.333H361.068C361.915 343.333 362.639 343.507 363.242 343.857C363.844 344.203 364.306 344.702 364.627 345.353C364.948 346 365.108 346.776 365.108 347.679C365.108 348.588 364.946 349.371 364.622 350.027C364.299 350.681 363.827 351.184 363.208 351.536C362.588 351.885 361.835 352.06 360.949 352.06ZM359.313 351.122H360.881C361.603 351.122 362.201 350.983 362.675 350.705C363.149 350.426 363.503 350.03 363.736 349.516C363.969 349.002 364.085 348.39 364.085 347.679C364.085 346.975 363.97 346.368 363.74 345.86C363.51 345.348 363.166 344.956 362.709 344.684C362.252 344.408 361.682 344.27 361 344.27H359.313V351.122ZM366.881 352.06V343.333H372.148V344.27H367.938V347.219H371.875V348.157H367.938V351.122H372.216V352.06H366.881ZM380.973 343.333V352.06H379.951L375.195 345.208H375.11V352.06H374.053V343.333H375.076L379.848 350.202H379.933V343.333H380.973ZM390.111 346.06H389.054C388.991 345.756 388.882 345.489 388.726 345.259C388.572 345.029 388.385 344.836 388.163 344.679C387.944 344.52 387.702 344.401 387.435 344.321C387.167 344.242 386.889 344.202 386.599 344.202C386.071 344.202 385.592 344.336 385.163 344.603C384.737 344.87 384.398 345.263 384.145 345.783C383.895 346.303 383.77 346.941 383.77 347.696C383.77 348.452 383.895 349.09 384.145 349.61C384.398 350.13 384.737 350.523 385.163 350.79C385.592 351.057 386.071 351.191 386.599 351.191C386.889 351.191 387.167 351.151 387.435 351.071C387.702 350.992 387.944 350.874 388.163 350.718C388.385 350.559 388.572 350.364 388.726 350.134C388.882 349.901 388.991 349.634 389.054 349.333H390.111C390.031 349.779 389.886 350.178 389.676 350.53C389.466 350.882 389.204 351.182 388.892 351.429C388.579 351.674 388.229 351.86 387.839 351.988C387.453 352.115 387.04 352.179 386.599 352.179C385.855 352.179 385.193 351.997 384.614 351.634C384.034 351.27 383.578 350.753 383.246 350.083C382.913 349.412 382.747 348.617 382.747 347.696C382.747 346.776 382.913 345.98 383.246 345.31C383.578 344.64 384.034 344.122 384.614 343.759C385.193 343.395 385.855 343.213 386.599 343.213C387.04 343.213 387.453 343.277 387.839 343.405C388.229 343.533 388.579 343.721 388.892 343.968C389.204 344.212 389.466 344.51 389.676 344.863C389.886 345.212 390.031 345.611 390.111 346.06ZM391.068 343.333H392.279L394.699 347.407H394.801L397.222 343.333H398.432L395.279 348.463V352.06H394.222V348.463L391.068 343.333ZM402.697 344.27V343.333H409.242V344.27H406.498V352.06H405.441V344.27H402.697ZM410.873 352.06V343.333H411.93V347.219H416.583V343.333H417.64V352.06H416.583V348.157H411.93V352.06H410.873ZM419.756 352.06V343.333H422.705C423.387 343.333 423.946 343.449 424.384 343.682C424.821 343.912 425.145 344.229 425.355 344.632C425.566 345.036 425.671 345.495 425.671 346.009C425.671 346.523 425.566 346.979 425.355 347.377C425.145 347.774 424.823 348.087 424.388 348.314C423.953 348.539 423.398 348.651 422.722 348.651H420.335V347.696H422.688C423.154 347.696 423.529 347.628 423.813 347.492C424.1 347.355 424.307 347.162 424.435 346.912C424.566 346.659 424.631 346.358 424.631 346.009C424.631 345.659 424.566 345.354 424.435 345.093C424.304 344.831 424.095 344.63 423.808 344.488C423.522 344.343 423.142 344.27 422.671 344.27H420.813V352.06H419.756ZM423.864 348.14L426.012 352.06H424.784L422.671 348.14H423.864ZM427.432 352.06V343.333H432.699V344.27H428.489V347.219H432.426V348.157H428.489V351.122H432.767V352.06H427.432ZM434.962 352.06H433.854L437.058 343.333H438.149L441.354 352.06H440.246L437.638 344.713H437.569L434.962 352.06ZM435.371 348.651H439.837V349.588H435.371V348.651ZM441.216 344.27V343.333H447.762V344.27H445.017V352.06H443.96V344.27H441.216ZM454.165 345.515C454.114 345.083 453.907 344.747 453.543 344.509C453.18 344.27 452.734 344.151 452.205 344.151C451.819 344.151 451.481 344.213 451.191 344.338C450.904 344.463 450.68 344.635 450.518 344.854C450.359 345.073 450.279 345.321 450.279 345.6C450.279 345.833 450.334 346.033 450.445 346.201C450.559 346.365 450.704 346.503 450.88 346.614C451.056 346.722 451.241 346.811 451.434 346.882C451.627 346.951 451.805 347.006 451.966 347.049L452.853 347.287C453.08 347.347 453.333 347.429 453.611 347.534C453.893 347.64 454.161 347.783 454.417 347.965C454.675 348.144 454.888 348.374 455.056 348.655C455.224 348.936 455.307 349.282 455.307 349.691C455.307 350.162 455.184 350.588 454.937 350.969C454.692 351.35 454.334 351.652 453.863 351.877C453.394 352.101 452.824 352.213 452.154 352.213C451.529 352.213 450.988 352.113 450.53 351.911C450.076 351.709 449.718 351.428 449.457 351.067C449.198 350.706 449.052 350.287 449.018 349.81H450.109C450.137 350.14 450.248 350.412 450.441 350.628C450.637 350.841 450.884 351 451.182 351.105C451.484 351.208 451.807 351.259 452.154 351.259C452.557 351.259 452.92 351.194 453.241 351.063C453.562 350.929 453.816 350.745 454.003 350.509C454.191 350.27 454.285 349.992 454.285 349.674C454.285 349.384 454.204 349.148 454.042 348.966C453.88 348.784 453.667 348.637 453.403 348.523C453.138 348.409 452.853 348.31 452.546 348.225L451.472 347.918C450.79 347.722 450.251 347.442 449.853 347.078C449.455 346.715 449.256 346.239 449.256 345.651C449.256 345.162 449.388 344.736 449.653 344.372C449.92 344.006 450.278 343.722 450.726 343.52C451.178 343.316 451.682 343.213 452.239 343.213C452.802 343.213 453.302 343.314 453.739 343.516C454.177 343.715 454.523 343.988 454.779 344.334C455.038 344.681 455.174 345.074 455.188 345.515H454.165Z" fill="#155757"/>
<path d="M579.401 86.971C580.294 89.239 578.854 91.72 576.44 92.06C567.522 93.313 558.478 93.313 549.56 92.06C547.146 91.72 545.706 89.239 546.599 86.971C549.992 78.358 554.504 70.226 559.999 62.8407C561.504 60.8167 564.496 60.8167 566.002 62.8407C571.496 70.226 576.008 78.358 579.401 86.971Z" fill="#F03100"/>
<path d="M566.846 77.09C566.705 76.6596 566.52 76.2739 566.29 75.933C566.064 75.5879 565.794 75.2938 565.478 75.0509C565.167 74.808 564.813 74.6227 564.417 74.4948C564.021 74.367 563.586 74.3031 563.113 74.3031C562.338 74.3031 561.632 74.5033 560.997 74.9039C560.362 75.3045 559.857 75.8947 559.482 76.6745C559.107 77.4543 558.92 78.411 558.92 79.5445C558.92 80.6781 559.11 81.6347 559.489 82.4146C559.868 83.1944 560.382 83.7846 561.029 84.1852C561.677 84.5857 562.406 84.786 563.215 84.786C563.965 84.786 564.626 84.6262 565.197 84.3066C565.772 83.9828 566.22 83.5268 566.539 82.9387C566.863 82.3464 567.025 81.6497 567.025 80.8485L567.511 80.9508H563.573V79.5445H568.559V80.9508C568.559 82.0289 568.329 82.9664 567.869 83.7633C567.413 84.5602 566.782 85.1781 565.977 85.617C565.176 86.0516 564.255 86.269 563.215 86.269C562.056 86.269 561.038 85.9962 560.16 85.4508C559.286 84.9053 558.605 84.1298 558.115 83.1241C557.629 82.1184 557.386 80.9252 557.386 79.5445C557.386 78.509 557.524 77.5779 557.801 76.7512C558.083 75.9203 558.479 75.2129 558.99 74.6291C559.502 74.0453 560.107 73.5978 560.806 73.2867C561.504 72.9756 562.274 72.8201 563.113 72.8201C563.803 72.8201 564.447 72.9245 565.044 73.1333C565.644 73.3379 566.179 73.6298 566.648 74.009C567.121 74.384 567.515 74.8336 567.83 75.3578C568.146 75.8776 568.363 76.4551 568.482 77.09H566.846Z" fill="white"/>
<path d="M564 91.5C564 90.948 563.552 90.5 563 90.5C562.448 90.5 562 90.948 562 91.5H564ZM562 121C562 121.552 562.448 122 563 122C563.552 122 564 121.552 564 121H562ZM562 91.551C562 92.104 562.448 92.551 563 92.551C563.552 92.551 564 92.104 564 91.551H562ZM564 95.663C564 95.111 563.552 94.663 563 94.663C562.448 94.663 562 95.111 562 95.663H564ZM562 95.766C562 96.318 562.448 96.766 563 96.766C563.552 96.766 564 96.318 564 95.766H562ZM564 99.877C564 99.325 563.552 98.877 563 98.877C562.448 98.877 562 99.325 562 99.877H564ZM562 99.98C562 100.532 562.448 100.98 563 100.98C563.552 100.98 564 100.532 564 99.98H562ZM564 104.091C564 103.539 563.552 103.091 563 103.091C562.448 103.091 562 103.539 562 104.091H564ZM562 104.194C562 104.747 562.448 105.194 563 105.194C563.552 105.194 564 104.747 564 104.194H562ZM564 108.306C564 107.753 563.552 107.306 563 107.306C562.448 107.306 562 107.753 562 108.306H564ZM562 108.409C562 108.961 562.448 109.409 563 109.409C563.552 109.409 564 108.961 564 108.409H562ZM564 112.52C564 111.968 563.552 111.52 563 111.52C562.448 111.52 562 111.968 562 112.52H564ZM562 112.623C562 113.175 562.448 113.623 563 113.623C563.552 113.623 564 113.175 564 112.623H562ZM564 116.734C564 116.182 563.552 115.734 563 115.734C562.448 115.734 562 116.182 562 116.734H564ZM562 116.837C562 117.389 562.448 117.837 563 117.837C563.552 117.837 564 117.389 564 116.837H562ZM564 120.949C564 120.396 563.552 119.949 563 119.949C562.448 119.949 562 120.396 562 120.949H564ZM562 91.5V91.551H564V91.5H562ZM562 95.663V95.766H564V95.663H562ZM562 99.877V99.98H564V99.877H562ZM562 104.091V104.194H564V104.091H562ZM562 108.306V108.409H564V108.306H562ZM562 112.52V112.623H564V112.52H562ZM562 116.734V116.837H564V116.734H562ZM562 120.949V121H564V120.949H562Z" fill="#F03100"/>
<path d="M532.458 163.243V151.766H536.336C537.236 151.766 537.972 151.928 538.544 152.253C539.119 152.575 539.545 153.01 539.822 153.559C540.098 154.108 540.236 154.721 540.236 155.397C540.236 156.074 540.098 156.688 539.822 157.241C539.549 157.794 539.127 158.235 538.555 158.564C537.983 158.889 537.251 159.051 536.358 159.051H533.579V157.818H536.313C536.93 157.818 537.425 157.712 537.798 157.499C538.172 157.286 538.443 156.998 538.611 156.636C538.783 156.27 538.869 155.857 538.869 155.397C538.869 154.938 538.783 154.527 538.611 154.164C538.443 153.802 538.17 153.518 537.793 153.313C537.416 153.103 536.915 152.999 536.291 152.999H533.848V163.243H532.458ZM544.829 163.445C544.283 163.445 543.788 163.342 543.344 163.137C542.899 162.927 542.546 162.627 542.284 162.234C542.023 161.838 541.892 161.36 541.892 160.8C541.892 160.306 541.989 159.907 542.184 159.6C542.378 159.29 542.638 159.047 542.963 158.872C543.288 158.696 543.646 158.565 544.039 158.48C544.435 158.39 544.832 158.319 545.232 158.267C545.755 158.199 546.179 158.149 546.504 158.115C546.833 158.078 547.072 158.016 547.222 157.93C547.375 157.844 547.451 157.695 547.451 157.482V157.437C547.451 156.884 547.3 156.455 546.998 156.148C546.699 155.842 546.245 155.689 545.636 155.689C545.004 155.689 544.509 155.827 544.151 156.103C543.792 156.38 543.54 156.675 543.394 156.989L542.139 156.541C542.363 156.018 542.662 155.61 543.035 155.319C543.413 155.024 543.824 154.818 544.268 154.702C544.717 154.583 545.158 154.523 545.591 154.523C545.867 154.523 546.185 154.557 546.544 154.624C546.906 154.687 547.255 154.82 547.592 155.022C547.932 155.224 548.214 155.528 548.438 155.935C548.662 156.343 548.774 156.888 548.774 157.572V163.243H547.451V162.077H547.384C547.295 162.264 547.145 162.464 546.936 162.677C546.727 162.89 546.448 163.071 546.101 163.221C545.753 163.37 545.329 163.445 544.829 163.445ZM545.03 162.257C545.554 162.257 545.994 162.154 546.353 161.948C546.715 161.743 546.988 161.478 547.171 161.153C547.358 160.828 547.451 160.486 547.451 160.127V158.917C547.395 158.984 547.272 159.046 547.082 159.102C546.895 159.154 546.678 159.201 546.431 159.242C546.189 159.279 545.951 159.313 545.72 159.343C545.492 159.369 545.307 159.391 545.165 159.41C544.821 159.455 544.5 159.528 544.201 159.628C543.906 159.726 543.667 159.873 543.484 160.071C543.304 160.265 543.215 160.531 543.215 160.867C543.215 161.326 543.385 161.674 543.725 161.909C544.068 162.141 544.504 162.257 545.03 162.257ZM554.685 163.422C553.878 163.422 553.183 163.232 552.6 162.851C552.017 162.47 551.569 161.945 551.255 161.276C550.941 160.607 550.784 159.843 550.784 158.984C550.784 158.11 550.945 157.338 551.266 156.669C551.591 155.997 552.043 155.472 552.623 155.095C553.205 154.714 553.885 154.523 554.662 154.523C555.268 154.523 555.813 154.635 556.299 154.859C556.785 155.084 557.182 155.397 557.492 155.801C557.803 156.204 557.995 156.675 558.07 157.213H556.747C556.646 156.821 556.422 156.473 556.075 156.171C555.731 155.864 555.268 155.711 554.685 155.711C554.169 155.711 553.717 155.846 553.329 156.115C552.944 156.38 552.643 156.755 552.426 157.241C552.213 157.723 552.107 158.289 552.107 158.939C552.107 159.604 552.212 160.183 552.421 160.676C552.634 161.169 552.933 161.552 553.317 161.825C553.706 162.098 554.162 162.234 554.685 162.234C555.029 162.234 555.341 162.174 555.621 162.055C555.901 161.935 556.138 161.764 556.332 161.539C556.527 161.315 556.665 161.046 556.747 160.732H558.07C557.995 161.24 557.81 161.698 557.515 162.105C557.223 162.509 556.837 162.83 556.355 163.069C555.877 163.305 555.32 163.422 554.685 163.422ZM561.236 160.105L561.214 158.468H561.483L565.248 154.635H566.885L562.872 158.693H562.76L561.236 160.105ZM560.003 163.243V151.766H561.326V163.243H560.003ZM565.473 163.243L562.11 158.984L563.052 158.065L567.154 163.243H565.473ZM571.12 163.445C570.575 163.445 570.08 163.342 569.635 163.137C569.19 162.927 568.837 162.627 568.576 162.234C568.314 161.838 568.184 161.36 568.184 160.8C568.184 160.306 568.281 159.907 568.475 159.6C568.669 159.29 568.929 159.047 569.254 158.872C569.579 158.696 569.938 158.565 570.33 158.48C570.726 158.39 571.124 158.319 571.524 158.267C572.047 158.199 572.471 158.149 572.796 158.115C573.125 158.078 573.364 158.016 573.513 157.93C573.666 157.844 573.743 157.695 573.743 157.482V157.437C573.743 156.884 573.592 156.455 573.289 156.148C572.99 155.842 572.536 155.689 571.927 155.689C571.296 155.689 570.801 155.827 570.442 156.103C570.083 156.38 569.831 156.675 569.685 156.989L568.43 156.541C568.654 156.018 568.953 155.61 569.327 155.319C569.704 155.024 570.115 154.818 570.56 154.702C571.008 154.583 571.449 154.523 571.882 154.523C572.159 154.523 572.476 154.557 572.835 154.624C573.197 154.687 573.547 154.82 573.883 155.022C574.223 155.224 574.505 155.528 574.729 155.935C574.953 156.343 575.065 156.888 575.065 157.572V163.243H573.743V162.077H573.676C573.586 162.264 573.436 162.464 573.227 162.677C573.018 162.89 572.74 163.071 572.392 163.221C572.045 163.37 571.621 163.445 571.12 163.445ZM571.322 162.257C571.845 162.257 572.286 162.154 572.644 161.948C573.007 161.743 573.28 161.478 573.463 161.153C573.649 160.828 573.743 160.486 573.743 160.127V158.917C573.687 158.984 573.563 159.046 573.373 159.102C573.186 159.154 572.969 159.201 572.723 159.242C572.48 159.279 572.243 159.313 572.011 159.343C571.783 159.369 571.598 159.391 571.456 159.41C571.113 159.455 570.791 159.528 570.492 159.628C570.197 159.726 569.958 159.873 569.775 160.071C569.596 160.265 569.506 160.531 569.506 160.867C569.506 161.326 569.676 161.674 570.016 161.909C570.36 162.141 570.795 162.257 571.322 162.257ZM580.954 166.65C580.315 166.65 579.766 166.568 579.306 166.404C578.847 166.243 578.464 166.03 578.157 165.765C577.855 165.503 577.614 165.223 577.434 164.924L578.488 164.184C578.608 164.341 578.759 164.521 578.942 164.722C579.125 164.928 579.375 165.105 579.693 165.255C580.014 165.408 580.435 165.485 580.954 165.485C581.649 165.485 582.222 165.316 582.674 164.98C583.126 164.644 583.352 164.117 583.352 163.4V161.651H583.24C583.143 161.808 583.005 162.003 582.826 162.234C582.65 162.462 582.396 162.666 582.063 162.845C581.735 163.021 581.29 163.108 580.73 163.108C580.035 163.108 579.411 162.944 578.858 162.615C578.309 162.287 577.873 161.808 577.552 161.181C577.235 160.553 577.076 159.791 577.076 158.894C577.076 158.013 577.231 157.245 577.541 156.591C577.851 155.933 578.283 155.425 578.835 155.067C579.388 154.704 580.027 154.523 580.752 154.523C581.312 154.523 581.757 154.616 582.086 154.803C582.418 154.986 582.672 155.196 582.848 155.431C583.027 155.663 583.166 155.853 583.263 156.003H583.397V154.635H584.675V163.49C584.675 164.229 584.507 164.831 584.171 165.294C583.838 165.761 583.39 166.103 582.826 166.32C582.265 166.54 581.641 166.65 580.954 166.65ZM580.909 161.92C581.44 161.92 581.888 161.799 582.254 161.556C582.62 161.313 582.898 160.964 583.089 160.508C583.28 160.052 583.375 159.507 583.375 158.872C583.375 158.252 583.281 157.704 583.095 157.23C582.908 156.755 582.631 156.384 582.265 156.115C581.899 155.846 581.447 155.711 580.909 155.711C580.349 155.711 579.882 155.853 579.508 156.137C579.138 156.421 578.86 156.802 578.673 157.28C578.49 157.759 578.398 158.289 578.398 158.872C578.398 159.47 578.492 159.998 578.679 160.458C578.869 160.914 579.149 161.272 579.519 161.534C579.893 161.792 580.356 161.92 580.909 161.92ZM590.705 163.422C589.875 163.422 589.16 163.239 588.559 162.873C587.961 162.503 587.499 161.988 587.174 161.326C586.853 160.661 586.692 159.888 586.692 159.006C586.692 158.125 586.853 157.348 587.174 156.675C587.499 155.999 587.951 155.472 588.531 155.095C589.113 154.714 589.793 154.523 590.57 154.523C591.019 154.523 591.461 154.598 591.899 154.747C592.336 154.897 592.734 155.14 593.092 155.476C593.451 155.808 593.737 156.249 593.95 156.798C594.163 157.348 594.269 158.024 594.269 158.827V159.387H587.634V158.244H592.924C592.924 157.759 592.827 157.325 592.633 156.944C592.442 156.563 592.169 156.262 591.814 156.042C591.463 155.821 591.049 155.711 590.57 155.711C590.044 155.711 589.588 155.842 589.203 156.103C588.822 156.361 588.529 156.697 588.323 157.112C588.118 157.527 588.015 157.971 588.015 158.446V159.208C588.015 159.858 588.127 160.409 588.351 160.861C588.579 161.31 588.895 161.651 589.298 161.887C589.702 162.118 590.171 162.234 590.705 162.234C591.052 162.234 591.366 162.186 591.646 162.089C591.93 161.988 592.175 161.838 592.38 161.64C592.586 161.438 592.745 161.188 592.857 160.889L594.135 161.248C594 161.681 593.774 162.062 593.456 162.391C593.139 162.716 592.747 162.97 592.28 163.153C591.813 163.333 591.288 163.422 590.705 163.422Z" fill="#102B2D"/>
<path d="M613 122H513C509.134 122 506 125.134 506 129V189C506 192.866 509.134 196 513 196H613C616.866 196 620 192.866 620 189V129C620 125.134 616.866 122 613 122Z" stroke="#58DA95" stroke-width="2"/>
<mask id="mask1_3_254" style="mask-type:luminance" maskUnits="userSpaceOnUse" x="505" y="197" width="116" height="81">
<path d="M621 197H505V278H621V197Z" fill="white"/>
</mask>
<g mask="url(#mask1_3_254)">
<path d="M569 234L563 240L557 234" stroke="#58DA95" stroke-linecap="round" stroke-linejoin="round" stroke-dasharray="6 6"/>
<path d="M563 201V263C563 267.418 559.418 271 555 271H275" stroke="#58DA95" stroke-linejoin="round" stroke-dasharray="6 6"/>
</g>
<path d="M655.401 86.971C656.294 89.239 654.854 91.72 652.44 92.06C643.522 93.313 634.478 93.313 625.56 92.06C623.146 91.72 621.706 89.239 622.599 86.971C625.992 78.358 630.504 70.226 635.999 62.8407C637.504 60.8167 640.496 60.8167 642.001 62.8407C647.496 70.226 652.008 78.358 655.401 86.971Z" fill="#F03100"/>
<path d="M633.773 86.09V72.9991H635.358V78.8286H642.339V72.9991H643.924V86.09H642.339V80.2349H635.358V86.09H633.773Z" fill="white"/>
<path d="M640 91.5C640 90.948 639.552 90.5 639 90.5C638.448 90.5 638 90.948 638 91.5H640ZM638 141C638 141.552 638.448 142 639 142C639.552 142 640 141.552 640 141H638ZM638 91.55C638 92.103 638.448 92.55 639 92.55C639.552 92.55 640 92.103 640 91.55H638ZM640 95.575C640 95.022 639.552 94.575 639 94.575C638.448 94.575 638 95.022 638 95.575H640ZM638 95.675C638 96.228 638.448 96.675 639 96.675C639.552 96.675 640 96.228 640 95.675H638ZM640 99.7C640 99.147 639.552 98.7 639 98.7C638.448 98.7 638 99.147 638 99.7H640ZM638 99.8C638 100.353 638.448 100.8 639 100.8C639.552 100.8 640 100.353 640 99.8H638ZM640 103.825C640 103.272 639.552 102.825 639 102.825C638.448 102.825 638 103.272 638 103.825H640ZM638 103.925C638 104.478 638.448 104.925 639 104.925C639.552 104.925 640 104.478 640 103.925H638ZM640 107.95C640 107.397 639.552 106.95 639 106.95C638.448 106.95 638 107.397 638 107.95H640ZM638 108.05C638 108.603 638.448 109.05 639 109.05C639.552 109.05 640 108.603 640 108.05H638ZM640 112.075C640 111.522 639.552 111.075 639 111.075C638.448 111.075 638 111.522 638 112.075H640ZM638 112.175C638 112.728 638.448 113.175 639 113.175C639.552 113.175 640 112.728 640 112.175H638ZM640 116.2C640 115.647 639.552 115.2 639 115.2C638.448 115.2 638 115.647 638 116.2H640ZM638 116.3C638 116.853 638.448 117.3 639 117.3C639.552 117.3 640 116.853 640 116.3H638ZM640 120.325C640 119.772 639.552 119.325 639 119.325C638.448 119.325 638 119.772 638 120.325H640ZM638 120.425C638 120.978 638.448 121.425 639 121.425C639.552 121.425 640 120.978 640 120.425H638ZM640 124.45C640 123.897 639.552 123.45 639 123.45C638.448 123.45 638 123.897 638 124.45H640ZM638 124.55C638 125.103 638.448 125.55 639 125.55C639.552 125.55 640 125.103 640 124.55H638ZM640 128.575C640 128.022 639.552 127.575 639 127.575C638.448 127.575 638 128.022 638 128.575H640ZM638 128.675C638 129.228 638.448 129.675 639 129.675C639.552 129.675 640 129.228 640 128.675H638ZM640 132.7C640 132.147 639.552 131.7 639 131.7C638.448 131.7 638 132.147 638 132.7H640ZM638 132.8C638 133.353 638.448 133.8 639 133.8C639.552 133.8 640 133.353 640 132.8H638ZM640 136.825C640 136.272 639.552 135.825 639 135.825C638.448 135.825 638 136.272 638 136.825H640ZM638 136.925C638 137.478 638.448 137.925 639 137.925C639.552 137.925 640 137.478 640 136.925H638ZM640 140.95C640 140.397 639.552 139.95 639 139.95C638.448 139.95 638 140.397 638 140.95H640ZM638 91.5V91.55H640V91.5H638ZM638 95.575V95.675H640V95.575H638ZM638 99.7V99.8H640V99.7H638ZM638 103.825V103.925H640V103.825H638ZM638 107.95V108.05H640V107.95H638ZM638 112.075V112.175H640V112.075H638ZM638 116.2V116.3H640V116.2H638ZM638 120.325V120.425H640V120.325H638ZM638 124.45V124.55H640V124.45H638ZM638 128.575V128.675H640V128.575H638ZM638 132.7V132.8H640V132.7H638ZM638 136.825V136.925H640V136.825H638ZM638 140.95V141H640V140.95H638Z" fill="#F03100"/>
<path d="M625 159H653" stroke="#58DA95" stroke-linejoin="round"/>
<path d="M637 153L643 159L637 165" stroke="#58DA95" stroke-linecap="square" stroke-linejoin="round"/>
<path d="M683.814 155.352H682.424C682.342 154.953 682.198 154.602 681.993 154.299C681.791 153.996 681.545 153.742 681.253 153.537C680.966 153.328 680.646 153.171 680.295 153.066C679.944 152.961 679.578 152.909 679.197 152.909C678.502 152.909 677.872 153.085 677.308 153.436C676.748 153.787 676.301 154.305 675.969 154.988C675.64 155.672 675.475 156.511 675.475 157.504C675.475 158.498 675.64 159.337 675.969 160.021C676.301 160.704 676.748 161.222 677.308 161.573C677.872 161.924 678.502 162.1 679.197 162.1C679.578 162.1 679.944 162.047 680.295 161.943C680.646 161.838 680.966 161.683 681.253 161.478C681.545 161.269 681.791 161.013 681.993 160.71C682.198 160.404 682.342 160.052 682.424 159.656H683.814C683.71 160.243 683.519 160.768 683.243 161.231C682.966 161.694 682.623 162.089 682.212 162.414C681.801 162.735 681.339 162.98 680.827 163.148C680.319 163.316 679.776 163.4 679.197 163.4C678.218 163.4 677.347 163.161 676.585 162.683C675.823 162.204 675.223 161.524 674.786 160.643C674.349 159.761 674.131 158.715 674.131 157.504C674.131 156.294 674.349 155.248 674.786 154.366C675.223 153.484 675.823 152.805 676.585 152.326C677.347 151.848 678.218 151.609 679.197 151.609C679.776 151.609 680.319 151.693 680.827 151.861C681.339 152.029 681.801 152.276 682.212 152.601C682.623 152.922 682.966 153.314 683.243 153.778C683.519 154.237 683.71 154.762 683.814 155.352ZM689.378 163.422C688.601 163.422 687.919 163.237 687.332 162.868C686.749 162.498 686.294 161.98 685.965 161.315C685.64 160.65 685.477 159.873 685.477 158.984C685.477 158.087 685.64 157.305 685.965 156.636C686.294 155.967 686.749 155.448 687.332 155.078C687.919 154.708 688.601 154.523 689.378 154.523C690.155 154.523 690.835 154.708 691.418 155.078C692.004 155.448 692.46 155.967 692.785 156.636C693.114 157.305 693.278 158.087 693.278 158.984C693.278 159.873 693.114 160.65 692.785 161.315C692.46 161.98 692.004 162.498 691.418 162.868C690.835 163.237 690.155 163.422 689.378 163.422ZM689.378 162.234C689.968 162.234 690.454 162.083 690.835 161.78C691.216 161.478 691.498 161.08 691.681 160.587C691.864 160.094 691.956 159.559 691.956 158.984C691.956 158.409 691.864 157.872 691.681 157.376C691.498 156.879 691.216 156.477 690.835 156.171C690.454 155.864 689.968 155.711 689.378 155.711C688.787 155.711 688.302 155.864 687.921 156.171C687.54 156.477 687.258 156.879 687.074 157.376C686.891 157.872 686.8 158.409 686.8 158.984C686.8 159.559 686.891 160.094 687.074 160.587C687.258 161.08 687.54 161.478 687.921 161.78C688.302 162.083 688.787 162.234 689.378 162.234ZM696.62 158.065V163.243H695.297V154.635H696.575V155.98H696.687C696.889 155.543 697.195 155.192 697.606 154.927C698.017 154.658 698.547 154.523 699.197 154.523C699.78 154.523 700.29 154.643 700.727 154.882C701.164 155.117 701.504 155.476 701.747 155.958C701.99 156.436 702.112 157.041 702.112 157.773V163.243H700.789V157.863C700.789 157.187 700.613 156.66 700.262 156.283C699.911 155.902 699.429 155.711 698.816 155.711C698.394 155.711 698.017 155.803 697.684 155.986C697.356 156.169 697.096 156.436 696.905 156.787C696.715 157.138 696.62 157.564 696.62 158.065ZM710.625 156.563L709.437 156.899C709.363 156.701 709.252 156.509 709.107 156.322C708.965 156.131 708.771 155.975 708.524 155.851C708.277 155.728 707.962 155.666 707.577 155.666C707.05 155.666 706.611 155.788 706.26 156.031C705.912 156.27 705.739 156.574 705.739 156.944C705.739 157.273 705.858 157.532 706.097 157.723C706.337 157.914 706.71 158.072 707.218 158.199L708.496 158.513C709.266 158.7 709.839 158.986 710.216 159.371C710.594 159.752 710.782 160.243 710.782 160.844C710.782 161.338 710.64 161.778 710.356 162.167C710.076 162.556 709.684 162.862 709.18 163.086C708.675 163.31 708.089 163.422 707.42 163.422C706.542 163.422 705.815 163.232 705.24 162.851C704.665 162.47 704.3 161.913 704.147 161.181L705.402 160.867C705.522 161.33 705.748 161.678 706.081 161.909C706.417 162.141 706.856 162.257 707.398 162.257C708.014 162.257 708.503 162.126 708.866 161.864C709.232 161.599 709.415 161.282 709.415 160.912C709.415 160.613 709.31 160.363 709.101 160.161C708.892 159.955 708.571 159.802 708.137 159.701L706.703 159.365C705.914 159.178 705.335 158.889 704.965 158.496C704.599 158.1 704.416 157.605 704.416 157.011C704.416 156.526 704.553 156.096 704.825 155.722C705.102 155.349 705.477 155.055 705.952 154.843C706.43 154.63 706.972 154.523 707.577 154.523C708.429 154.523 709.097 154.71 709.583 155.084C710.073 155.457 710.42 155.95 710.625 156.563ZM718.198 159.724V154.635H719.52V163.243H718.198V161.786H718.108C717.907 162.223 717.593 162.595 717.167 162.901C716.741 163.204 716.203 163.355 715.553 163.355C715.015 163.355 714.537 163.237 714.118 163.002C713.7 162.763 713.371 162.404 713.132 161.926C712.893 161.444 712.773 160.837 712.773 160.105V154.635H714.096V160.015C714.096 160.643 714.271 161.143 714.623 161.517C714.977 161.891 715.43 162.077 715.979 162.077C716.308 162.077 716.642 161.993 716.982 161.825C717.326 161.657 717.613 161.399 717.845 161.052C718.08 160.704 718.198 160.262 718.198 159.724ZM721.943 163.243V154.635H723.221V155.98H723.333C723.512 155.521 723.802 155.164 724.201 154.91C724.601 154.652 725.081 154.523 725.642 154.523C726.209 154.523 726.682 154.652 727.059 154.91C727.44 155.164 727.737 155.521 727.95 155.98H728.04C728.26 155.536 728.591 155.183 729.032 154.921C729.473 154.656 730.001 154.523 730.618 154.523C731.388 154.523 732.017 154.764 732.506 155.246C732.996 155.724 733.241 156.47 733.241 157.482V163.243H731.918V157.482C731.918 156.847 731.744 156.393 731.397 156.12C731.049 155.848 730.64 155.711 730.17 155.711C729.564 155.711 729.095 155.894 728.763 156.26C728.43 156.623 728.264 157.082 728.264 157.639V163.243H726.919V157.348C726.919 156.858 726.76 156.464 726.443 156.165C726.125 155.862 725.716 155.711 725.216 155.711C724.872 155.711 724.551 155.803 724.252 155.986C723.957 156.169 723.717 156.423 723.534 156.748C723.355 157.069 723.265 157.441 723.265 157.863V163.243H721.943ZM739.268 163.422C738.438 163.422 737.723 163.239 737.121 162.873C736.524 162.503 736.062 161.988 735.737 161.326C735.416 160.661 735.255 159.888 735.255 159.006C735.255 158.125 735.416 157.348 735.737 156.675C736.062 155.999 736.514 155.472 737.093 155.095C737.676 154.714 738.356 154.523 739.133 154.523C739.582 154.523 740.024 154.598 740.461 154.747C740.899 154.897 741.296 155.14 741.655 155.476C742.014 155.808 742.3 156.249 742.513 156.798C742.725 157.348 742.832 158.024 742.832 158.827V159.387H736.197V158.244H741.487C741.487 157.759 741.39 157.325 741.196 156.944C741.005 156.563 740.732 156.262 740.377 156.042C740.026 155.821 739.611 155.711 739.133 155.711C738.606 155.711 738.151 155.842 737.766 156.103C737.385 156.361 737.092 156.697 736.886 157.112C736.681 157.527 736.578 157.971 736.578 158.446V159.208C736.578 159.858 736.69 160.409 736.914 160.861C737.142 161.31 737.458 161.651 737.861 161.887C738.265 162.118 738.734 162.234 739.268 162.234C739.615 162.234 739.929 162.186 740.209 162.089C740.493 161.988 740.738 161.838 740.943 161.64C741.149 161.438 741.308 161.188 741.42 160.889L742.697 161.248C742.563 161.681 742.337 162.062 742.019 162.391C741.702 162.716 741.31 162.97 740.842 163.153C740.375 163.333 739.851 163.422 739.268 163.422ZM744.844 163.243V154.635H746.122V155.935H746.211C746.368 155.509 746.652 155.164 747.063 154.899C747.474 154.633 747.937 154.501 748.453 154.501C748.55 154.501 748.671 154.503 748.817 154.506C748.963 154.51 749.073 154.516 749.148 154.523V155.868C749.103 155.857 749 155.84 748.839 155.818C748.683 155.791 748.516 155.778 748.341 155.778C747.922 155.778 747.549 155.866 747.22 156.042C746.895 156.214 746.637 156.453 746.447 156.759C746.26 157.062 746.166 157.407 746.166 157.796V163.243H744.844Z" fill="#102B2D"/>
</svg>
