<svg width="933" height="645" viewBox="0 0 933 645" fill="none" xmlns="http://www.w3.org/2000/svg">
<text fill="#155757" xml:space="preserve" style="white-space: pre" font-family="Prodigy Sans" font-size="12" letter-spacing="0em"><tspan x="220.539" y="51.06">SOURCE THREATS</tspan></text>
<path d="M205 66V64C205 60.6863 207.686 58 211 58H337C340.314 58 343 60.6863 343 64V66" stroke="#155757"/>
<text fill="#102B2D" xml:space="preserve" style="white-space: pre" font-family="Prodigy Sans" font-size="15.781" letter-spacing="0em"><tspan x="110.267" y="188.024">Developer</tspan></text>
<path d="M235.401 110.971C236.294 113.239 234.854 115.72 232.44 116.06C223.522 117.313 214.478 117.313 205.56 116.06C203.146 115.72 201.706 113.239 202.599 110.971C205.992 102.358 210.504 94.226 215.999 86.8407C217.504 84.8167 220.496 84.8167 222.001 86.8407C227.496 94.226 232.008 102.358 235.401 110.971Z" fill="#F03100"/>
<text fill="white" xml:space="preserve" style="white-space: pre" font-family="Prodigy Sans" font-size="18" letter-spacing="0em"><tspan x="212.584" y="110.09">A</tspan></text>
<path d="M220 115.5C220 114.948 219.552 114.5 219 114.5C218.448 114.5 218 114.948 218 115.5H220ZM218 165C218 165.552 218.448 166 219 166C219.552 166 220 165.552 220 165H218ZM218 115.55C218 116.103 218.448 116.55 219 116.55C219.552 116.55 220 116.103 220 115.55H218ZM220 119.575C220 119.022 219.552 118.575 219 118.575C218.448 118.575 218 119.022 218 119.575H220ZM218 119.675C218 120.228 218.448 120.675 219 120.675C219.552 120.675 220 120.228 220 119.675H218ZM220 123.7C220 123.147 219.552 122.7 219 122.7C218.448 122.7 218 123.147 218 123.7H220ZM218 123.8C218 124.353 218.448 124.8 219 124.8C219.552 124.8 220 124.353 220 123.8H218ZM220 127.825C220 127.272 219.552 126.825 219 126.825C218.448 126.825 218 127.272 218 127.825H220ZM218 127.925C218 128.478 218.448 128.925 219 128.925C219.552 128.925 220 128.478 220 127.925H218ZM220 131.95C220 131.397 219.552 130.95 219 130.95C218.448 130.95 218 131.397 218 131.95H220ZM218 132.05C218 132.603 218.448 133.05 219 133.05C219.552 133.05 220 132.603 220 132.05H218ZM220 136.075C220 135.522 219.552 135.075 219 135.075C218.448 135.075 218 135.522 218 136.075H220ZM218 136.175C218 136.728 218.448 137.175 219 137.175C219.552 137.175 220 136.728 220 136.175H218ZM220 140.2C220 139.647 219.552 139.2 219 139.2C218.448 139.2 218 139.647 218 140.2H220ZM218 140.3C218 140.853 218.448 141.3 219 141.3C219.552 141.3 220 140.853 220 140.3H218ZM220 144.325C220 143.772 219.552 143.325 219 143.325C218.448 143.325 218 143.772 218 144.325H220ZM218 144.425C218 144.978 218.448 145.425 219 145.425C219.552 145.425 220 144.978 220 144.425H218ZM220 148.45C220 147.897 219.552 147.45 219 147.45C218.448 147.45 218 147.897 218 148.45H220ZM218 148.55C218 149.103 218.448 149.55 219 149.55C219.552 149.55 220 149.103 220 148.55H218ZM220 152.575C220 152.022 219.552 151.575 219 151.575C218.448 151.575 218 152.022 218 152.575H220ZM218 152.675C218 153.228 218.448 153.675 219 153.675C219.552 153.675 220 153.228 220 152.675H218ZM220 156.7C220 156.147 219.552 155.7 219 155.7C218.448 155.7 218 156.147 218 156.7H220ZM218 156.8C218 157.353 218.448 157.8 219 157.8C219.552 157.8 220 157.353 220 156.8H218ZM220 160.825C220 160.272 219.552 159.825 219 159.825C218.448 159.825 218 160.272 218 160.825H220ZM218 160.925C218 161.478 218.448 161.925 219 161.925C219.552 161.925 220 161.478 220 160.925H218ZM220 164.95C220 164.397 219.552 163.95 219 163.95C218.448 163.95 218 164.397 218 164.95H220ZM218 115.5V115.55H220V115.5H218ZM218 119.575V119.675H220V119.575H218ZM218 123.7V123.8H220V123.7H218ZM218 127.825V127.925H220V127.825H218ZM218 131.95V132.05H220V131.95H218ZM218 136.075V136.175H220V136.075H218ZM218 140.2V140.3H220V140.2H218ZM218 144.325V144.425H220V144.325H218ZM218 148.45V148.55H220V148.45H218ZM218 152.575V152.675H220V152.575H218ZM218 156.7V156.8H220V156.7H218ZM218 160.825V160.925H220V160.825H218ZM218 164.95V165H220V164.95H218Z" fill="#F03100"/>
<path d="M205 183L233 183" stroke="#58DA95" stroke-linejoin="round"/>
<path d="M217 177L223 183L217 189" stroke="#58DA95" stroke-linecap="square" stroke-linejoin="round"/>
<path d="M306.401 110.971C307.294 113.239 305.854 115.72 303.44 116.06C294.522 117.313 285.478 117.313 276.56 116.06C274.146 115.72 272.706 113.239 273.599 110.971C276.992 102.358 281.504 94.226 286.999 86.8407C288.504 84.8167 291.496 84.8167 293.001 86.8407C298.496 94.226 303.008 102.358 306.401 110.971Z" fill="#F03100"/>
<text fill="white" xml:space="preserve" style="white-space: pre" font-family="Prodigy Sans" font-size="18" letter-spacing="0em"><tspan x="283.839" y="110.09">B</tspan></text>
<path d="M291 115.5C291 114.948 290.552 114.5 290 114.5C289.448 114.5 289 114.948 289 115.5H291ZM289 145C289 145.552 289.448 146 290 146C290.552 146 291 145.552 291 145H289ZM289 115.551C289 116.104 289.448 116.551 290 116.551C290.552 116.551 291 116.104 291 115.551H289ZM291 119.663C291 119.111 290.552 118.663 290 118.663C289.448 118.663 289 119.111 289 119.663H291ZM289 119.766C289 120.318 289.448 120.766 290 120.766C290.552 120.766 291 120.318 291 119.766H289ZM291 123.877C291 123.325 290.552 122.877 290 122.877C289.448 122.877 289 123.325 289 123.877H291ZM289 123.98C289 124.532 289.448 124.98 290 124.98C290.552 124.98 291 124.532 291 123.98H289ZM291 128.091C291 127.539 290.552 127.091 290 127.091C289.448 127.091 289 127.539 289 128.091H291ZM289 128.194C289 128.747 289.448 129.194 290 129.194C290.552 129.194 291 128.747 291 128.194H289ZM291 132.306C291 131.753 290.552 131.306 290 131.306C289.448 131.306 289 131.753 289 132.306H291ZM289 132.409C289 132.961 289.448 133.409 290 133.409C290.552 133.409 291 132.961 291 132.409H289ZM291 136.52C291 135.968 290.552 135.52 290 135.52C289.448 135.52 289 135.968 289 136.52H291ZM289 136.623C289 137.175 289.448 137.623 290 137.623C290.552 137.623 291 137.175 291 136.623H289ZM291 140.734C291 140.182 290.552 139.734 290 139.734C289.448 139.734 289 140.182 289 140.734H291ZM289 140.837C289 141.389 289.448 141.837 290 141.837C290.552 141.837 291 141.389 291 140.837H289ZM291 144.949C291 144.396 290.552 143.949 290 143.949C289.448 143.949 289 144.396 289 144.949H291ZM289 115.5V115.551H291V115.5H289ZM289 119.663V119.766H291V119.663H289ZM289 123.877V123.98H291V123.877H289ZM289 128.091V128.194H291V128.091H289ZM289 132.306V132.409H291V132.306H289ZM289 136.52V136.623H291V136.52H289ZM289 140.734V140.837H291V140.734H289ZM289 144.949V145H291V144.949H289Z" fill="#F03100"/>
<text fill="#102B2D" xml:space="preserve" style="white-space: pre" font-family="Prodigy Sans" font-size="16" letter-spacing="0em"><tspan x="263.336" y="188.08">Source</tspan></text>
<rect x="238" y="146" width="104" height="74" rx="7" stroke="#58DA95" stroke-width="2"/>
<text fill="#155757" xml:space="preserve" style="white-space: pre" font-family="Prodigy Sans" font-size="12" letter-spacing="0em"><tspan x="486.283" y="51.06">BUILD THREATS</tspan></text>
<path d="M343 66V64C343 60.6863 345.686 58 349 58H717C720.314 58 723 60.6863 723 64V66" stroke="#155757"/>
<path d="M395.401 110.971C396.294 113.239 394.854 115.72 392.44 116.06C383.522 117.313 374.478 117.313 365.56 116.06C363.146 115.72 361.706 113.239 362.599 110.971C365.992 102.358 370.504 94.226 375.999 86.8407C377.504 84.8167 380.496 84.8167 382.001 86.8407C387.496 94.226 392.008 102.358 395.401 110.971Z" fill="#F03100"/>
<text fill="white" xml:space="preserve" style="white-space: pre" font-family="Prodigy Sans" font-size="18" letter-spacing="0em"><tspan x="372.522" y="110.09">C</tspan></text>
<path d="M380 115.5C380 114.948 379.552 114.5 379 114.5C378.448 114.5 378 114.948 378 115.5H380ZM378 165C378 165.552 378.448 166 379 166C379.552 166 380 165.552 380 165H378ZM378 115.55C378 116.103 378.448 116.55 379 116.55C379.552 116.55 380 116.103 380 115.55H378ZM380 119.575C380 119.022 379.552 118.575 379 118.575C378.448 118.575 378 119.022 378 119.575H380ZM378 119.675C378 120.228 378.448 120.675 379 120.675C379.552 120.675 380 120.228 380 119.675H378ZM380 123.7C380 123.147 379.552 122.7 379 122.7C378.448 122.7 378 123.147 378 123.7H380ZM378 123.8C378 124.353 378.448 124.8 379 124.8C379.552 124.8 380 124.353 380 123.8H378ZM380 127.825C380 127.272 379.552 126.825 379 126.825C378.448 126.825 378 127.272 378 127.825H380ZM378 127.925C378 128.478 378.448 128.925 379 128.925C379.552 128.925 380 128.478 380 127.925H378ZM380 131.95C380 131.397 379.552 130.95 379 130.95C378.448 130.95 378 131.397 378 131.95H380ZM378 132.05C378 132.603 378.448 133.05 379 133.05C379.552 133.05 380 132.603 380 132.05H378ZM380 136.075C380 135.522 379.552 135.075 379 135.075C378.448 135.075 378 135.522 378 136.075H380ZM378 136.175C378 136.728 378.448 137.175 379 137.175C379.552 137.175 380 136.728 380 136.175H378ZM380 140.2C380 139.647 379.552 139.2 379 139.2C378.448 139.2 378 139.647 378 140.2H380ZM378 140.3C378 140.853 378.448 141.3 379 141.3C379.552 141.3 380 140.853 380 140.3H378ZM380 144.325C380 143.772 379.552 143.325 379 143.325C378.448 143.325 378 143.772 378 144.325H380ZM378 144.425C378 144.978 378.448 145.425 379 145.425C379.552 145.425 380 144.978 380 144.425H378ZM380 148.45C380 147.897 379.552 147.45 379 147.45C378.448 147.45 378 147.897 378 148.45H380ZM378 148.55C378 149.103 378.448 149.55 379 149.55C379.552 149.55 380 149.103 380 148.55H378ZM380 152.575C380 152.022 379.552 151.575 379 151.575C378.448 151.575 378 152.022 378 152.575H380ZM378 152.675C378 153.228 378.448 153.675 379 153.675C379.552 153.675 380 153.228 380 152.675H378ZM380 156.7C380 156.147 379.552 155.7 379 155.7C378.448 155.7 378 156.147 378 156.7H380ZM378 156.8C378 157.353 378.448 157.8 379 157.8C379.552 157.8 380 157.353 380 156.8H378ZM380 160.825C380 160.272 379.552 159.825 379 159.825C378.448 159.825 378 160.272 378 160.825H380ZM378 160.925C378 161.478 378.448 161.925 379 161.925C379.552 161.925 380 161.478 380 160.925H378ZM380 164.95C380 164.397 379.552 163.95 379 163.95C378.448 163.95 378 164.397 378 164.95H380ZM378 115.5V115.55H380V115.5H378ZM378 119.575V119.675H380V119.575H378ZM378 123.7V123.8H380V123.7H378ZM378 127.825V127.925H380V127.825H378ZM378 131.95V132.05H380V131.95H378ZM378 136.075V136.175H380V136.075H378ZM378 140.2V140.3H380V140.2H378ZM378 144.325V144.425H380V144.325H378ZM378 148.45V148.55H380V148.45H378ZM378 152.575V152.675H380V152.575H378ZM378 156.7V156.8H380V156.7H378ZM378 160.825V160.925H380V160.825H378ZM378 164.95V165H380V164.95H378Z" fill="#F03100"/>
<path d="M347 183L411 183" stroke="#58DA95" stroke-linejoin="round"/>
<path d="M377 177L383 183L377 189" stroke="#58DA95" stroke-linecap="square" stroke-linejoin="round"/>
<path d="M477.401 110.971C478.294 113.239 476.854 115.72 474.44 116.06C465.522 117.313 456.478 117.313 447.56 116.06C445.146 115.72 443.706 113.239 444.599 110.971C447.992 102.358 452.504 94.226 457.999 86.8407C459.504 84.8167 462.496 84.8167 464.001 86.8407C469.496 94.226 474.008 102.358 477.401 110.971Z" fill="#F03100"/>
<text fill="white" xml:space="preserve" style="white-space: pre" font-family="Prodigy Sans" font-size="18" letter-spacing="0em"><tspan x="454.329" y="110.09">D</tspan></text>
<path d="M462 115.5C462 114.948 461.552 114.5 461 114.5C460.448 114.5 460 114.948 460 115.5H462ZM460 145C460 145.552 460.448 146 461 146C461.552 146 462 145.552 462 145H460ZM460 115.551C460 116.104 460.448 116.551 461 116.551C461.552 116.551 462 116.104 462 115.551H460ZM462 119.663C462 119.111 461.552 118.663 461 118.663C460.448 118.663 460 119.111 460 119.663H462ZM460 119.766C460 120.318 460.448 120.766 461 120.766C461.552 120.766 462 120.318 462 119.766H460ZM462 123.877C462 123.325 461.552 122.877 461 122.877C460.448 122.877 460 123.325 460 123.877H462ZM460 123.98C460 124.532 460.448 124.98 461 124.98C461.552 124.98 462 124.532 462 123.98H460ZM462 128.091C462 127.539 461.552 127.091 461 127.091C460.448 127.091 460 127.539 460 128.091H462ZM460 128.194C460 128.747 460.448 129.194 461 129.194C461.552 129.194 462 128.747 462 128.194H460ZM462 132.306C462 131.753 461.552 131.306 461 131.306C460.448 131.306 460 131.753 460 132.306H462ZM460 132.409C460 132.961 460.448 133.409 461 133.409C461.552 133.409 462 132.961 462 132.409H460ZM462 136.52C462 135.968 461.552 135.52 461 135.52C460.448 135.52 460 135.968 460 136.52H462ZM460 136.623C460 137.175 460.448 137.623 461 137.623C461.552 137.623 462 137.175 462 136.623H460ZM462 140.734C462 140.182 461.552 139.734 461 139.734C460.448 139.734 460 140.182 460 140.734H462ZM460 140.837C460 141.389 460.448 141.837 461 141.837C461.552 141.837 462 141.389 462 140.837H460ZM462 144.949C462 144.396 461.552 143.949 461 143.949C460.448 143.949 460 144.396 460 144.949H462ZM460 115.5V115.551H462V115.5H460ZM460 119.663V119.766H462V119.663H460ZM460 123.877V123.98H462V123.877H460ZM460 128.091V128.194H462V128.091H460ZM460 132.306V132.409H462V132.306H460ZM460 136.52V136.623H462V136.52H460ZM460 140.734V140.837H462V140.734H460ZM460 144.949V145H462V144.949H460Z" fill="#F03100"/>
<text fill="#102B2D" xml:space="preserve" style="white-space: pre" font-family="Prodigy Sans" font-size="16" letter-spacing="0em"><tspan x="441.219" y="188.08">Build</tspan></text>
<rect x="416" y="146" width="90" height="74" rx="37" stroke="#58DA95" stroke-width="2"/>
<path d="M461 253L461 225" stroke="#58DA95" stroke-linejoin="round"/>
<path d="M455 241L461 235L467 241" stroke="#58DA95" stroke-linecap="square" stroke-linejoin="round"/>
<path d="M559.401 110.971C560.294 113.239 558.854 115.72 556.44 116.06C547.522 117.313 538.478 117.313 529.56 116.06C527.146 115.72 525.706 113.239 526.599 110.971C529.992 102.358 534.504 94.226 539.999 86.8407C541.504 84.8167 544.496 84.8167 546.001 86.8407C551.496 94.226 556.008 102.358 559.401 110.971Z" fill="#F03100"/>
<text fill="white" xml:space="preserve" style="white-space: pre" font-family="Prodigy Sans" font-size="18" letter-spacing="0em"><tspan x="537.34" y="110.09">F</tspan></text>
<path d="M544 115.5C544 114.948 543.552 114.5 543 114.5C542.448 114.5 542 114.948 542 115.5H544ZM542 165C542 165.552 542.448 166 543 166C543.552 166 544 165.552 544 165H542ZM542 115.55C542 116.103 542.448 116.55 543 116.55C543.552 116.55 544 116.103 544 115.55H542ZM544 119.575C544 119.022 543.552 118.575 543 118.575C542.448 118.575 542 119.022 542 119.575H544ZM542 119.675C542 120.228 542.448 120.675 543 120.675C543.552 120.675 544 120.228 544 119.675H542ZM544 123.7C544 123.147 543.552 122.7 543 122.7C542.448 122.7 542 123.147 542 123.7H544ZM542 123.8C542 124.353 542.448 124.8 543 124.8C543.552 124.8 544 124.353 544 123.8H542ZM544 127.825C544 127.272 543.552 126.825 543 126.825C542.448 126.825 542 127.272 542 127.825H544ZM542 127.925C542 128.478 542.448 128.925 543 128.925C543.552 128.925 544 128.478 544 127.925H542ZM544 131.95C544 131.397 543.552 130.95 543 130.95C542.448 130.95 542 131.397 542 131.95H544ZM542 132.05C542 132.603 542.448 133.05 543 133.05C543.552 133.05 544 132.603 544 132.05H542ZM544 136.075C544 135.522 543.552 135.075 543 135.075C542.448 135.075 542 135.522 542 136.075H544ZM542 136.175C542 136.728 542.448 137.175 543 137.175C543.552 137.175 544 136.728 544 136.175H542ZM544 140.2C544 139.647 543.552 139.2 543 139.2C542.448 139.2 542 139.647 542 140.2H544ZM542 140.3C542 140.853 542.448 141.3 543 141.3C543.552 141.3 544 140.853 544 140.3H542ZM544 144.325C544 143.772 543.552 143.325 543 143.325C542.448 143.325 542 143.772 542 144.325H544ZM542 144.425C542 144.978 542.448 145.425 543 145.425C543.552 145.425 544 144.978 544 144.425H542ZM544 148.45C544 147.897 543.552 147.45 543 147.45C542.448 147.45 542 147.897 542 148.45H544ZM542 148.55C542 149.103 542.448 149.55 543 149.55C543.552 149.55 544 149.103 544 148.55H542ZM544 152.575C544 152.022 543.552 151.575 543 151.575C542.448 151.575 542 152.022 542 152.575H544ZM542 152.675C542 153.228 542.448 153.675 543 153.675C543.552 153.675 544 153.228 544 152.675H542ZM544 156.7C544 156.147 543.552 155.7 543 155.7C542.448 155.7 542 156.147 542 156.7H544ZM542 156.8C542 157.353 542.448 157.8 543 157.8C543.552 157.8 544 157.353 544 156.8H542ZM544 160.825C544 160.272 543.552 159.825 543 159.825C542.448 159.825 542 160.272 542 160.825H544ZM542 160.925C542 161.478 542.448 161.925 543 161.925C543.552 161.925 544 161.478 544 160.925H542ZM544 164.95C544 164.397 543.552 163.95 543 163.95C542.448 163.95 542 164.397 542 164.95H544ZM542 115.5V115.55H544V115.5H542ZM542 119.575V119.675H544V119.575H542ZM542 123.7V123.8H544V123.7H542ZM542 127.825V127.925H544V127.825H542ZM542 131.95V132.05H544V131.95H542ZM542 136.075V136.175H544V136.075H542ZM542 140.2V140.3H544V140.2H542ZM542 144.325V144.425H544V144.325H542ZM542 148.45V148.55H544V148.45H542ZM542 152.575V152.675H544V152.575H542ZM542 156.7V156.8H544V156.7H542ZM542 160.825V160.925H544V160.825H542ZM542 164.95V165H544V164.95H542Z" fill="#F03100"/>
<path d="M511 183L575 183" stroke="#58DA95" stroke-linejoin="round"/>
<path d="M541 177L547 183L541 189" stroke="#58DA95" stroke-linecap="square" stroke-linejoin="round"/>
<path d="M384.932 296C385.484 296 385.932 295.552 385.932 295C385.932 294.448 385.484 294 384.932 294V296ZM359.932 294C359.38 294 358.932 294.448 358.932 295C358.932 295.552 359.38 296 359.932 296V294ZM384.881 294C384.329 294 383.881 294.448 383.881 295C383.881 295.552 384.329 296 384.881 296V294ZM380.816 296C381.369 296 381.816 295.552 381.816 295C381.816 294.448 381.369 294 380.816 294V296ZM380.715 294C380.162 294 379.715 294.448 379.715 295C379.715 295.552 380.162 296 380.715 296V294ZM376.65 296C377.202 296 377.65 295.552 377.65 295C377.65 294.448 377.202 294 376.65 294V296ZM376.548 294C375.996 294 375.548 294.448 375.548 295C375.548 295.552 375.996 296 376.548 296V294ZM372.483 296C373.035 296 373.483 295.552 373.483 295C373.483 294.448 373.035 294 372.483 294V296ZM372.381 294C371.829 294 371.381 294.448 371.381 295C371.381 295.552 371.829 296 372.381 296V294ZM368.316 296C368.869 296 369.316 295.552 369.316 295C369.316 294.448 368.869 294 368.316 294V296ZM368.215 294C367.662 294 367.215 294.448 367.215 295C367.215 295.552 367.662 296 368.215 296V294ZM364.15 296C364.702 296 365.15 295.552 365.15 295C365.15 294.448 364.702 294 364.15 294V296ZM364.048 294C363.496 294 363.048 294.448 363.048 295C363.048 295.552 363.496 296 364.048 296V294ZM359.983 296C360.535 296 360.983 295.552 360.983 295C360.983 294.448 360.535 294 359.983 294V296ZM384.932 294H384.881V296H384.932V294ZM380.816 294H380.715V296H380.816V294ZM376.65 294H376.548V296H376.65V294ZM372.483 294H372.381V296H372.483V294ZM368.316 294H368.215V296H368.316V294ZM364.15 294H364.048V296H364.15V294ZM359.983 294H359.932V296H359.983V294Z" fill="#F03100"/>
<path d="M377.401 304.971C378.294 307.239 376.854 309.72 374.44 310.06C365.522 311.313 356.478 311.313 347.56 310.06C345.146 309.72 343.706 307.239 344.599 304.971C347.992 296.358 352.504 288.226 357.999 280.841C359.504 278.817 362.496 278.817 364.001 280.841C369.496 288.226 374.008 296.358 377.401 304.971Z" fill="#F03100"/>
<text fill="white" xml:space="preserve" style="white-space: pre" font-family="Prodigy Sans" font-size="18" letter-spacing="0em"><tspan x="355.111" y="304.09">E</tspan></text>
<text fill="#102B2D" xml:space="preserve" style="white-space: pre" font-family="Prodigy Sans" font-size="15.781" letter-spacing="0em"><tspan x="412.74" y="300.024">Depedencies</tspan></text>
<rect x="386.5" y="257" width="149" height="76" rx="8" stroke="#58DA95" stroke-width="2" stroke-linecap="square" stroke-dasharray="5 5"/>
<g clip-path="url(#clip0_2_14)">
<path d="M586.568 225V287C586.568 291.418 582.986 295 578.568 295H540.568" stroke="#58DA95" stroke-linejoin="round"/>
</g>
<path d="M343 353V355C343 358.314 345.686 361 349 361H573C576.314 361 579 358.314 579 355V353" stroke="#155757"/>
<text fill="#155757" xml:space="preserve" style="white-space: pre" font-family="Prodigy Sans" font-size="12" letter-spacing="0em"><tspan x="391.578" y="376.06">DEPENDENCY THREATS</tspan></text>
<path d="M653.401 110.971C654.294 113.239 652.854 115.72 650.44 116.06C641.522 117.313 632.478 117.313 623.56 116.06C621.146 115.72 619.706 113.239 620.599 110.971C623.992 102.358 628.504 94.226 633.999 86.8407C635.504 84.8167 638.496 84.8167 640.002 86.8407C645.496 94.226 650.008 102.358 653.401 110.971Z" fill="#F03100"/>
<text fill="white" xml:space="preserve" style="white-space: pre" font-family="Prodigy Sans" font-size="18" letter-spacing="0em"><tspan x="630.312" y="110.09">G</tspan></text>
<path d="M638 115.5C638 114.948 637.552 114.5 637 114.5C636.448 114.5 636 114.948 636 115.5H638ZM636 145C636 145.552 636.448 146 637 146C637.552 146 638 145.552 638 145H636ZM636 115.551C636 116.104 636.448 116.551 637 116.551C637.552 116.551 638 116.104 638 115.551H636ZM638 119.663C638 119.111 637.552 118.663 637 118.663C636.448 118.663 636 119.111 636 119.663H638ZM636 119.766C636 120.318 636.448 120.766 637 120.766C637.552 120.766 638 120.318 638 119.766H636ZM638 123.877C638 123.325 637.552 122.877 637 122.877C636.448 122.877 636 123.325 636 123.877H638ZM636 123.98C636 124.532 636.448 124.98 637 124.98C637.552 124.98 638 124.532 638 123.98H636ZM638 128.091C638 127.539 637.552 127.091 637 127.091C636.448 127.091 636 127.539 636 128.091H638ZM636 128.194C636 128.747 636.448 129.194 637 129.194C637.552 129.194 638 128.747 638 128.194H636ZM638 132.306C638 131.753 637.552 131.306 637 131.306C636.448 131.306 636 131.753 636 132.306H638ZM636 132.409C636 132.961 636.448 133.409 637 133.409C637.552 133.409 638 132.961 638 132.409H636ZM638 136.52C638 135.968 637.552 135.52 637 135.52C636.448 135.52 636 135.968 636 136.52H638ZM636 136.623C636 137.175 636.448 137.623 637 137.623C637.552 137.623 638 137.175 638 136.623H636ZM638 140.734C638 140.182 637.552 139.734 637 139.734C636.448 139.734 636 140.182 636 140.734H638ZM636 140.837C636 141.389 636.448 141.837 637 141.837C637.552 141.837 638 141.389 638 140.837H636ZM638 144.949C638 144.396 637.552 143.949 637 143.949C636.448 143.949 636 144.396 636 144.949H638ZM636 115.5V115.551H638V115.5H636ZM636 119.663V119.766H638V119.663H636ZM636 123.877V123.98H638V123.877H636ZM636 128.091V128.194H638V128.091H636ZM636 132.306V132.409H638V132.306H636ZM636 136.52V136.623H638V136.52H636ZM636 140.734V140.837H638V140.734H636ZM636 144.949V145H638V144.949H636Z" fill="#F03100"/>
<text fill="#102B2D" xml:space="preserve" style="white-space: pre" font-family="Prodigy Sans" font-size="15.781" letter-spacing="0em"><tspan x="605.068" y="188.024">Package</tspan></text>
<rect x="580" y="146" width="114" height="74" rx="7" stroke="#58DA95" stroke-width="2"/>
<g clip-path="url(#clip1_2_14)">
<path d="M643 258L637 264L631 258" stroke="#58DA95" stroke-linecap="round" stroke-linejoin="round"/>
<path d="M637 225V287C637 291.418 633.418 295 629 295H349" stroke="#58DA95" stroke-linejoin="round"/>
</g>
<path d="M729.401 110.971C730.294 113.239 728.854 115.72 726.44 116.06C717.522 117.313 708.478 117.313 699.56 116.06C697.146 115.72 695.706 113.239 696.599 110.971C699.992 102.358 704.504 94.226 709.999 86.8407C711.504 84.8167 714.496 84.8167 716.001 86.8407C721.496 94.226 726.008 102.358 729.401 110.971Z" fill="#F03100"/>
<text fill="white" xml:space="preserve" style="white-space: pre" font-family="Prodigy Sans" font-size="18" letter-spacing="0em"><tspan x="706.188" y="110.09">H</tspan></text>
<path d="M714 115.5C714 114.948 713.552 114.5 713 114.5C712.448 114.5 712 114.948 712 115.5H714ZM712 165C712 165.552 712.448 166 713 166C713.552 166 714 165.552 714 165H712ZM712 115.55C712 116.103 712.448 116.55 713 116.55C713.552 116.55 714 116.103 714 115.55H712ZM714 119.575C714 119.022 713.552 118.575 713 118.575C712.448 118.575 712 119.022 712 119.575H714ZM712 119.675C712 120.228 712.448 120.675 713 120.675C713.552 120.675 714 120.228 714 119.675H712ZM714 123.7C714 123.147 713.552 122.7 713 122.7C712.448 122.7 712 123.147 712 123.7H714ZM712 123.8C712 124.353 712.448 124.8 713 124.8C713.552 124.8 714 124.353 714 123.8H712ZM714 127.825C714 127.272 713.552 126.825 713 126.825C712.448 126.825 712 127.272 712 127.825H714ZM712 127.925C712 128.478 712.448 128.925 713 128.925C713.552 128.925 714 128.478 714 127.925H712ZM714 131.95C714 131.397 713.552 130.95 713 130.95C712.448 130.95 712 131.397 712 131.95H714ZM712 132.05C712 132.603 712.448 133.05 713 133.05C713.552 133.05 714 132.603 714 132.05H712ZM714 136.075C714 135.522 713.552 135.075 713 135.075C712.448 135.075 712 135.522 712 136.075H714ZM712 136.175C712 136.728 712.448 137.175 713 137.175C713.552 137.175 714 136.728 714 136.175H712ZM714 140.2C714 139.647 713.552 139.2 713 139.2C712.448 139.2 712 139.647 712 140.2H714ZM712 140.3C712 140.853 712.448 141.3 713 141.3C713.552 141.3 714 140.853 714 140.3H712ZM714 144.325C714 143.772 713.552 143.325 713 143.325C712.448 143.325 712 143.772 712 144.325H714ZM712 144.425C712 144.978 712.448 145.425 713 145.425C713.552 145.425 714 144.978 714 144.425H712ZM714 148.45C714 147.897 713.552 147.45 713 147.45C712.448 147.45 712 147.897 712 148.45H714ZM712 148.55C712 149.103 712.448 149.55 713 149.55C713.552 149.55 714 149.103 714 148.55H712ZM714 152.575C714 152.022 713.552 151.575 713 151.575C712.448 151.575 712 152.022 712 152.575H714ZM712 152.675C712 153.228 712.448 153.675 713 153.675C713.552 153.675 714 153.228 714 152.675H712ZM714 156.7C714 156.147 713.552 155.7 713 155.7C712.448 155.7 712 156.147 712 156.7H714ZM712 156.8C712 157.353 712.448 157.8 713 157.8C713.552 157.8 714 157.353 714 156.8H712ZM714 160.825C714 160.272 713.552 159.825 713 159.825C712.448 159.825 712 160.272 712 160.825H714ZM712 160.925C712 161.478 712.448 161.925 713 161.925C713.552 161.925 714 161.478 714 160.925H712ZM714 164.95C714 164.397 713.552 163.95 713 163.95C712.448 163.95 712 164.397 712 164.95H714ZM712 115.5V115.55H714V115.5H712ZM712 119.575V119.675H714V119.575H712ZM712 123.7V123.8H714V123.7H712ZM712 127.825V127.925H714V127.825H712ZM712 131.95V132.05H714V131.95H712ZM712 136.075V136.175H714V136.075H712ZM712 140.2V140.3H714V140.2H712ZM712 144.325V144.425H714V144.325H712ZM712 148.45V148.55H714V148.45H712ZM712 152.575V152.675H714V152.575H712ZM712 156.7V156.8H714V156.7H712ZM712 160.825V160.925H714V160.825H712ZM712 164.95V165H714V164.95H712Z" fill="#F03100"/>
<path d="M699 183L727 183" stroke="#58DA95" stroke-linejoin="round"/>
<path d="M711 177L717 183L711 189" stroke="#58DA95" stroke-linecap="square" stroke-linejoin="round"/>
<text fill="#102B2D" xml:space="preserve" style="white-space: pre" font-family="Prodigy Sans" font-size="15.781" letter-spacing="0em"><tspan x="747.189" y="188.024">Consumer</tspan></text>
<text fill="#155757" xml:space="preserve" style="white-space: pre" font-family="Prodigy Sans" font-size="12" letter-spacing="0em"><tspan x="40.0391" y="452.06">SOURCE THREATS</tspan></text>
<text fill="#F03100" xml:space="preserve" style="white-space: pre" font-family="Prodigy Sans" font-size="14" letter-spacing="0em"><tspan x="40" y="480.317">A</tspan></text>
<text fill="#102B2D" xml:space="preserve" style="white-space: pre" font-family="Prodigy Sans" font-size="14" letter-spacing="0em"><tspan x="56.0678" y="480.07">Bypassed code review</tspan></text>
<text fill="#F03100" xml:space="preserve" style="white-space: pre" font-family="Prodigy Sans" font-size="14" letter-spacing="0em"><tspan x="40" y="509.811">B</tspan></text>
<text fill="#102B2D" xml:space="preserve" style="white-space: pre" font-family="Prodigy Sans" font-size="14" letter-spacing="0em"><tspan x="56.0678" y="509.564">Compromised source control system</tspan></text>
<text fill="#155757" xml:space="preserve" style="white-space: pre" font-family="Prodigy Sans" font-size="12" letter-spacing="0em"><tspan x="336.617" y="452.06">BUILD THREATS</tspan></text>
<text fill="#F03100" xml:space="preserve" style="white-space: pre" font-family="Prodigy Sans" font-size="14" letter-spacing="0em"><tspan x="336.333" y="480.317">C</tspan></text>
<text fill="#102B2D" xml:space="preserve" style="white-space: pre" font-family="Prodigy Sans" font-size="14" letter-spacing="0em"><tspan x="352.401" y="480.07">Modified code after source control</tspan></text>
<text fill="#F03100" xml:space="preserve" style="white-space: pre" font-family="Prodigy Sans" font-size="14" letter-spacing="0em"><tspan x="336.333" y="509.811">D</tspan></text>
<text fill="#102B2D" xml:space="preserve" style="white-space: pre" font-family="Prodigy Sans" font-size="14" letter-spacing="0em"><tspan x="352.401" y="509.564">Compromised build platform</tspan></text>
<text fill="#F03100" xml:space="preserve" style="white-space: pre" font-family="Prodigy Sans" font-size="14" letter-spacing="0em"><tspan x="336.333" y="539.305">F</tspan></text>
<text fill="#102B2D" xml:space="preserve" style="white-space: pre" font-family="Prodigy Sans" font-size="14" letter-spacing="0em"><tspan x="352.401" y="539.058">Bypassed CI/CD</tspan></text>
<text fill="#F03100" xml:space="preserve" style="white-space: pre" font-family="Prodigy Sans" font-size="14" letter-spacing="0em"><tspan x="336.333" y="568.8">G</tspan></text>
<text fill="#102B2D" xml:space="preserve" style="white-space: pre" font-family="Prodigy Sans" font-size="14" letter-spacing="0em"><tspan x="352.401" y="568.553">Compromised package repo</tspan></text>
<text fill="#F03100" xml:space="preserve" style="white-space: pre" font-family="Prodigy Sans" font-size="14" letter-spacing="0em"><tspan x="336.333" y="598.294">H</tspan></text>
<text fill="#102B2D" xml:space="preserve" style="white-space: pre" font-family="Prodigy Sans" font-size="14" letter-spacing="0em"><tspan x="352.401" y="598.047">Using a bad package</tspan></text>
<text fill="#155757" xml:space="preserve" style="white-space: pre" font-family="Prodigy Sans" font-size="12" letter-spacing="0em"><tspan x="632.745" y="452.06">DEPENDENCY THREATS</tspan></text>
<text fill="#F03100" xml:space="preserve" style="white-space: pre" font-family="Prodigy Sans" font-size="14" letter-spacing="0em"><tspan x="632.667" y="480.317">E</tspan></text>
<text fill="#102B2D" xml:space="preserve" style="white-space: pre" font-family="Prodigy Sans" font-size="14" letter-spacing="0em"><tspan x="648.735" y="480.07">Using a bad dependency</tspan></text>
<defs>
<clipPath id="clip0_2_14">
<rect width="43.5" height="14" fill="white" transform="translate(535.5 288)"/>
</clipPath>
<clipPath id="clip1_2_14">
<rect width="116" height="81" fill="white" transform="translate(579 221)"/>
</clipPath>
</defs>
</svg>
