<svg width="600" height="190" viewBox="0 0 600 190" fill="none" xmlns="http://www.w3.org/2000/svg">
<rect width="600" height="190" fill="white"/>
<path d="M130.773 147.882H139.5V148.414H130.773V147.882ZM135.256 145.019H139.5V145.539H132.955V145.032H133.99V144.981C133.652 144.827 133.381 144.582 133.176 144.244C132.972 143.906 132.869 143.504 132.869 143.038C132.869 142.597 132.963 142.211 133.151 141.879C133.338 141.543 133.605 141.282 133.952 141.094C134.295 140.904 134.706 140.809 135.183 140.809H139.5V141.329H135.205C134.648 141.329 134.2 141.495 133.862 141.827C133.521 142.157 133.351 142.593 133.351 143.136C133.351 143.499 133.43 143.823 133.589 144.107C133.749 144.391 133.972 144.614 134.259 144.776C134.543 144.938 134.875 145.019 135.256 145.019ZM132.955 136.335H133.419V139.194H132.955V136.335ZM131.386 138.227V137.711H137.953C138.22 137.711 138.439 137.66 138.609 137.558C138.777 137.452 138.902 137.316 138.984 137.148C139.064 136.978 139.104 136.796 139.104 136.603C139.104 136.509 139.097 136.428 139.082 136.36C139.068 136.289 139.05 136.222 139.027 136.16L139.5 136.032C139.528 136.112 139.553 136.2 139.572 136.296C139.595 136.393 139.607 136.506 139.607 136.637C139.607 136.91 139.545 137.168 139.423 137.413C139.301 137.654 139.124 137.85 138.891 138.001C138.658 138.151 138.376 138.227 138.047 138.227H131.386ZM139.636 131.924C139.636 132.515 139.49 133.029 139.197 133.467C138.905 133.904 138.504 134.242 137.996 134.481C137.487 134.719 136.908 134.839 136.257 134.839C135.604 134.839 135.021 134.719 134.51 134.481C133.999 134.239 133.595 133.908 133.3 133.488C133.004 133.067 132.857 132.587 132.857 132.048C132.857 131.681 132.93 131.335 133.078 131.008C133.223 130.678 133.433 130.388 133.709 130.138C133.984 129.886 134.317 129.688 134.706 129.546C135.095 129.401 135.533 129.329 136.018 129.329H136.342V134.511H135.869V129.849C135.395 129.849 134.967 129.945 134.587 130.138C134.206 130.332 133.903 130.594 133.679 130.927C133.455 131.259 133.342 131.633 133.342 132.048C133.342 132.482 133.464 132.87 133.709 133.211C133.95 133.549 134.277 133.817 134.689 134.016C135.101 134.212 135.561 134.315 136.07 134.323H136.283C136.828 134.323 137.318 134.228 137.753 134.038C138.185 133.844 138.527 133.569 138.78 133.211C139.03 132.853 139.155 132.424 139.155 131.924C139.155 131.566 139.095 131.261 138.976 131.008C138.854 130.752 138.706 130.543 138.533 130.381C138.359 130.219 138.192 130.097 138.03 130.015L138.222 129.542C138.44 129.641 138.659 129.796 138.878 130.006C139.094 130.214 139.274 130.478 139.419 130.799C139.564 131.117 139.636 131.492 139.636 131.924ZM139.5 127.539H132.955V127.032H133.977V126.985C133.642 126.843 133.374 126.603 133.172 126.265C132.967 125.927 132.865 125.542 132.865 125.11C132.865 125.065 132.865 125.019 132.865 124.974C132.865 124.928 132.866 124.886 132.869 124.846H133.393C133.391 124.88 133.386 124.921 133.381 124.969C133.372 125.015 133.368 125.072 133.368 125.14C133.368 125.504 133.446 125.827 133.602 126.112C133.759 126.393 133.974 126.614 134.25 126.776C134.523 126.938 134.835 127.019 135.188 127.019H139.5V127.539ZM132.955 120.567H133.419V123.469H132.955V120.567ZM139.5 122.515H131.936C131.607 122.515 131.325 122.44 131.092 122.289C130.859 122.138 130.682 121.941 130.56 121.697C130.437 121.45 130.376 121.184 130.376 120.9C130.376 120.749 130.389 120.621 130.415 120.516C130.437 120.408 130.464 120.315 130.496 120.235L130.956 120.388C130.933 120.454 130.913 120.525 130.896 120.602C130.879 120.675 130.871 120.763 130.871 120.866C130.871 121.195 130.972 121.467 131.173 121.68C131.375 121.893 131.656 121.999 132.017 121.999L139.5 122.004V122.515ZM139.641 117.367C139.641 117.745 139.565 118.092 139.415 118.407C139.264 118.719 139.044 118.971 138.754 119.161C138.464 119.349 138.112 119.442 137.697 119.442C137.425 119.442 137.185 119.394 136.977 119.298C136.77 119.201 136.591 119.052 136.44 118.85C136.29 118.648 136.166 118.39 136.07 118.075C135.97 117.759 135.893 117.383 135.839 116.945C135.8 116.613 135.761 116.316 135.724 116.055C135.685 115.793 135.624 115.589 135.541 115.441C135.459 115.29 135.334 115.215 135.166 115.215H134.893C134.416 115.215 134.037 115.366 133.756 115.667C133.474 115.968 133.334 116.383 133.334 116.911C133.334 117.38 133.437 117.775 133.645 118.096C133.849 118.414 134.114 118.637 134.438 118.765L134.254 119.255C133.942 119.13 133.682 118.95 133.474 118.714C133.267 118.475 133.112 118.202 133.01 117.896C132.908 117.586 132.857 117.262 132.857 116.924C132.857 116.631 132.898 116.353 132.98 116.089C133.062 115.822 133.188 115.585 133.355 115.377C133.523 115.167 133.737 115.001 133.999 114.879C134.257 114.756 134.567 114.695 134.928 114.695H139.5V115.215H138.32V115.254C138.564 115.367 138.787 115.523 138.989 115.722C139.188 115.918 139.347 116.156 139.466 116.434C139.582 116.71 139.641 117.021 139.641 117.367ZM139.159 117.316C139.159 116.907 139.06 116.545 138.861 116.229C138.659 115.911 138.384 115.663 138.034 115.484C137.685 115.305 137.288 115.215 136.845 115.215H135.882C135.939 115.281 135.99 115.376 136.036 115.501C136.078 115.623 136.116 115.762 136.151 115.918C136.182 116.072 136.21 116.234 136.236 116.404C136.259 116.572 136.28 116.735 136.3 116.894C136.357 117.371 136.445 117.761 136.564 118.062C136.68 118.36 136.834 118.579 137.024 118.718C137.214 118.854 137.445 118.923 137.714 118.923C138.161 118.923 138.513 118.769 138.771 118.462C139.03 118.156 139.159 117.773 139.159 117.316ZM139.636 110.061C139.636 110.618 139.49 111.108 139.197 111.531C138.902 111.955 138.499 112.286 137.987 112.524C137.476 112.76 136.896 112.878 136.249 112.878C135.601 112.878 135.021 112.759 134.51 112.52C133.999 112.281 133.595 111.95 133.3 111.527C133.004 111.104 132.857 110.616 132.857 110.065C132.857 109.651 132.942 109.273 133.112 108.932C133.283 108.588 133.52 108.304 133.824 108.08C134.128 107.852 134.48 107.707 134.881 107.645V108.173C134.437 108.259 134.071 108.472 133.781 108.812C133.489 109.151 133.342 109.567 133.342 110.061C133.342 110.504 133.467 110.899 133.717 111.246C133.964 111.592 134.307 111.865 134.744 112.064C135.179 112.263 135.678 112.362 136.24 112.362C136.794 112.362 137.291 112.266 137.732 112.072C138.169 111.879 138.516 111.609 138.771 111.263C139.027 110.916 139.155 110.516 139.155 110.061C139.155 109.74 139.091 109.447 138.963 109.183C138.835 108.916 138.653 108.693 138.418 108.514C138.182 108.335 137.906 108.217 137.591 108.161V107.632C137.994 107.695 138.349 107.837 138.656 108.058C138.963 108.28 139.203 108.562 139.376 108.906C139.55 109.25 139.636 109.635 139.636 110.061ZM139.636 103.307C139.636 103.898 139.49 104.412 139.197 104.849C138.905 105.287 138.504 105.625 137.996 105.864C137.487 106.102 136.908 106.222 136.257 106.222C135.604 106.222 135.021 106.102 134.51 105.864C133.999 105.622 133.595 105.291 133.3 104.871C133.004 104.45 132.857 103.97 132.857 103.43C132.857 103.064 132.93 102.717 133.078 102.391C133.223 102.061 133.433 101.771 133.709 101.521C133.984 101.268 134.317 101.071 134.706 100.929C135.095 100.784 135.533 100.712 136.018 100.712H136.342V105.893H135.869V101.232C135.395 101.232 134.967 101.328 134.587 101.521C134.206 101.714 133.903 101.977 133.679 102.31C133.455 102.642 133.342 103.016 133.342 103.43C133.342 103.865 133.464 104.253 133.709 104.594C133.95 104.932 134.277 105.2 134.689 105.399C135.101 105.595 135.561 105.697 136.07 105.706H136.283C136.828 105.706 137.318 105.611 137.753 105.42C138.185 105.227 138.527 104.952 138.78 104.594C139.03 104.236 139.155 103.807 139.155 103.307C139.155 102.949 139.095 102.643 138.976 102.391C138.854 102.135 138.706 101.926 138.533 101.764C138.359 101.602 138.192 101.48 138.03 101.398L138.222 100.925C138.44 101.024 138.659 101.179 138.878 101.389C139.094 101.597 139.274 101.861 139.419 102.182C139.564 102.5 139.636 102.875 139.636 103.307Z" fill="black"/>
<rect x="125.5" y="70.5" width="19" height="109" stroke="#D9D9D9"/>
<path d="M181.397 97V83.9091H186.191C187.12 83.9091 187.889 84.0625 188.499 84.3693C189.108 84.6719 189.564 85.0831 189.867 85.603C190.169 86.1186 190.32 86.7003 190.32 87.348C190.32 87.8935 190.22 88.3537 190.02 88.7287C189.82 89.0994 189.551 89.3977 189.215 89.6236C188.882 89.8452 188.516 90.0071 188.115 90.1094V90.2372C188.55 90.2585 188.974 90.3991 189.387 90.6591C189.805 90.9148 190.15 91.2791 190.423 91.7521C190.695 92.2251 190.832 92.8004 190.832 93.478C190.832 94.147 190.674 94.7479 190.359 95.2805C190.048 95.8089 189.566 96.2287 188.914 96.5398C188.262 96.8466 187.429 97 186.415 97H181.397ZM183.372 95.3061H186.223C187.169 95.3061 187.847 95.1229 188.256 94.7564C188.665 94.3899 188.869 93.9318 188.869 93.3821C188.869 92.9687 188.765 92.5895 188.556 92.2443C188.347 91.8991 188.049 91.6243 187.661 91.4197C187.278 91.2152 186.822 91.1129 186.294 91.1129H183.372V95.3061ZM183.372 89.5724H186.019C186.462 89.5724 186.86 89.4872 187.214 89.3168C187.572 89.1463 187.855 88.9077 188.064 88.6009C188.277 88.2898 188.384 87.9233 188.384 87.5014C188.384 86.9602 188.194 86.5064 187.815 86.1399C187.436 85.7734 186.854 85.5902 186.07 85.5902H183.372V89.5724ZM199.241 92.9283V87.1818H201.158V97H199.279V95.2997H199.177C198.951 95.8239 198.589 96.2607 198.09 96.6101C197.596 96.9553 196.98 97.1278 196.243 97.1278C195.612 97.1278 195.054 96.9893 194.568 96.7124C194.086 96.4311 193.707 96.0156 193.43 95.4659C193.157 94.9162 193.021 94.2365 193.021 93.4268V87.1818H194.932V93.1967C194.932 93.8658 195.118 94.3984 195.488 94.7947C195.859 95.1911 196.341 95.3892 196.933 95.3892C197.291 95.3892 197.647 95.2997 198.001 95.1207C198.358 94.9418 198.655 94.6712 198.889 94.3089C199.128 93.9467 199.245 93.4865 199.241 92.9283ZM203.726 97V87.1818H205.637V97H203.726ZM204.691 85.6669C204.359 85.6669 204.074 85.5561 203.835 85.3345C203.6 85.1087 203.483 84.8402 203.483 84.5291C203.483 84.2138 203.6 83.9453 203.835 83.7237C204.074 83.4979 204.359 83.3849 204.691 83.3849C205.024 83.3849 205.307 83.4979 205.542 83.7237C205.78 83.9453 205.9 84.2138 205.9 84.5291C205.9 84.8402 205.78 85.1087 205.542 85.3345C205.307 85.5561 205.024 85.6669 204.691 85.6669ZM210.12 83.9091V97H208.209V83.9091H210.12ZM216.366 97.1918C215.574 97.1918 214.866 96.9893 214.244 96.5845C213.626 96.1754 213.141 95.5937 212.787 94.8395C212.438 94.081 212.263 93.1712 212.263 92.1101C212.263 91.049 212.44 90.1413 212.793 89.3871C213.151 88.6328 213.641 88.0554 214.263 87.6548C214.886 87.2543 215.591 87.054 216.379 87.054C216.989 87.054 217.479 87.1562 217.849 87.3608C218.224 87.5611 218.514 87.7955 218.719 88.0639C218.928 88.3324 219.089 88.5689 219.205 88.7734H219.32V83.9091H221.231V97H219.364V95.4723H219.205C219.089 95.6811 218.923 95.9197 218.706 96.1882C218.493 96.4567 218.199 96.6911 217.824 96.8913C217.449 97.0916 216.963 97.1918 216.366 97.1918ZM216.788 95.5618C217.338 95.5618 217.803 95.4169 218.182 95.1271C218.565 94.8331 218.855 94.4261 219.051 93.9062C219.251 93.3864 219.352 92.7812 219.352 92.0909C219.352 91.4091 219.254 90.8125 219.058 90.3011C218.862 89.7898 218.574 89.3913 218.195 89.1058C217.815 88.8203 217.347 88.6776 216.788 88.6776C216.213 88.6776 215.734 88.8267 215.35 89.125C214.967 89.4233 214.677 89.8303 214.481 90.3459C214.289 90.8615 214.193 91.4432 214.193 92.0909C214.193 92.7472 214.291 93.3374 214.487 93.8615C214.683 94.3857 214.973 94.8011 215.357 95.108C215.744 95.4105 216.222 95.5618 216.788 95.5618ZM229.982 97H227.885L232.596 83.9091H234.878L239.589 97H237.492L233.791 86.2869H233.689L229.982 97ZM230.333 91.8736H237.134V93.5355H230.333V91.8736Z" fill="black"/>
<path d="M166.871 117.114L166.269 117.284C166.231 117.184 166.175 117.086 166.101 116.991C166.029 116.895 165.931 116.815 165.806 116.753C165.681 116.69 165.521 116.659 165.326 116.659C165.059 116.659 164.836 116.721 164.658 116.844C164.482 116.965 164.394 117.119 164.394 117.307C164.394 117.473 164.455 117.605 164.576 117.702C164.697 117.798 164.886 117.879 165.144 117.943L165.792 118.102C166.182 118.197 166.473 118.342 166.664 118.537C166.855 118.73 166.951 118.979 166.951 119.284C166.951 119.534 166.879 119.758 166.735 119.955C166.593 120.152 166.394 120.307 166.138 120.42C165.883 120.534 165.585 120.591 165.246 120.591C164.801 120.591 164.433 120.494 164.141 120.301C163.849 120.108 163.665 119.826 163.587 119.455L164.224 119.295C164.284 119.53 164.399 119.706 164.567 119.824C164.738 119.941 164.96 120 165.235 120C165.547 120 165.795 119.934 165.979 119.801C166.165 119.667 166.258 119.506 166.258 119.318C166.258 119.167 166.205 119.04 166.099 118.938C165.992 118.833 165.83 118.756 165.61 118.705L164.883 118.534C164.483 118.439 164.189 118.293 164.002 118.094C163.816 117.893 163.724 117.642 163.724 117.341C163.724 117.095 163.793 116.877 163.931 116.688C164.071 116.498 164.261 116.349 164.502 116.241C164.744 116.134 165.019 116.08 165.326 116.08C165.758 116.08 166.097 116.174 166.343 116.364C166.591 116.553 166.767 116.803 166.871 117.114ZM169.858 116.136V116.705H167.596V116.136H169.858ZM168.255 115.091H168.926V119.25C168.926 119.439 168.953 119.581 169.008 119.676C169.065 119.769 169.137 119.831 169.224 119.864C169.313 119.894 169.407 119.909 169.505 119.909C169.579 119.909 169.64 119.905 169.687 119.898C169.735 119.888 169.773 119.881 169.801 119.875L169.937 120.477C169.892 120.494 169.828 120.511 169.747 120.528C169.666 120.547 169.562 120.557 169.437 120.557C169.248 120.557 169.062 120.516 168.88 120.435C168.701 120.353 168.551 120.229 168.432 120.062C168.314 119.896 168.255 119.686 168.255 119.432V115.091ZM172.649 120.591C172.228 120.591 171.866 120.498 171.561 120.312C171.258 120.125 171.024 119.864 170.859 119.528C170.696 119.191 170.615 118.799 170.615 118.352C170.615 117.905 170.696 117.511 170.859 117.17C171.024 116.828 171.253 116.561 171.547 116.369C171.842 116.176 172.187 116.08 172.581 116.08C172.808 116.08 173.032 116.117 173.254 116.193C173.476 116.269 173.677 116.392 173.859 116.562C174.041 116.731 174.186 116.955 174.294 117.233C174.402 117.511 174.456 117.854 174.456 118.261V118.545H171.092V117.966H173.774C173.774 117.72 173.725 117.5 173.626 117.307C173.53 117.114 173.391 116.961 173.211 116.849C173.033 116.738 172.823 116.682 172.581 116.682C172.314 116.682 172.083 116.748 171.888 116.881C171.694 117.011 171.546 117.182 171.442 117.392C171.337 117.602 171.285 117.828 171.285 118.068V118.455C171.285 118.784 171.342 119.063 171.456 119.293C171.571 119.52 171.731 119.693 171.936 119.812C172.14 119.93 172.378 119.989 172.649 119.989C172.825 119.989 172.984 119.964 173.126 119.915C173.27 119.864 173.394 119.788 173.498 119.688C173.603 119.585 173.683 119.458 173.74 119.307L174.388 119.489C174.319 119.708 174.205 119.902 174.044 120.068C173.883 120.233 173.684 120.362 173.447 120.455C173.21 120.545 172.944 120.591 172.649 120.591ZM175.476 122.136V116.136H176.123V116.83H176.203C176.252 116.754 176.32 116.657 176.407 116.54C176.496 116.42 176.623 116.314 176.788 116.222C176.955 116.127 177.18 116.08 177.464 116.08C177.832 116.08 178.156 116.171 178.436 116.355C178.716 116.539 178.935 116.799 179.092 117.136C179.249 117.473 179.328 117.871 179.328 118.33C179.328 118.792 179.249 119.192 179.092 119.531C178.935 119.868 178.717 120.13 178.439 120.315C178.16 120.499 177.839 120.591 177.476 120.591C177.195 120.591 176.971 120.545 176.802 120.452C176.634 120.357 176.504 120.25 176.413 120.131C176.322 120.009 176.252 119.909 176.203 119.83H176.146V122.136H175.476ZM176.135 118.318C176.135 118.648 176.183 118.938 176.28 119.19C176.376 119.44 176.517 119.636 176.703 119.778C176.889 119.919 177.116 119.989 177.385 119.989C177.665 119.989 177.899 119.915 178.086 119.767C178.276 119.617 178.418 119.417 178.513 119.165C178.609 118.911 178.657 118.629 178.657 118.318C178.657 118.011 178.61 117.735 178.515 117.489C178.423 117.241 178.282 117.045 178.092 116.901C177.905 116.755 177.669 116.682 177.385 116.682C177.112 116.682 176.883 116.751 176.697 116.889C176.512 117.026 176.371 117.217 176.277 117.463C176.182 117.707 176.135 117.992 176.135 118.318Z" fill="#666666"/>
<rect x="155" y="110" width="33.3333" height="15" stroke="#F03100" stroke-dasharray="1 3"/>
<path d="M205.205 117.114L204.602 117.284C204.564 117.184 204.509 117.086 204.435 116.991C204.363 116.895 204.264 116.815 204.139 116.753C204.014 116.69 203.854 116.659 203.659 116.659C203.392 116.659 203.17 116.721 202.991 116.844C202.815 116.965 202.727 117.119 202.727 117.307C202.727 117.473 202.788 117.605 202.909 117.702C203.03 117.798 203.22 117.879 203.477 117.943L204.125 118.102C204.515 118.197 204.806 118.342 204.997 118.537C205.188 118.73 205.284 118.979 205.284 119.284C205.284 119.534 205.212 119.758 205.068 119.955C204.926 120.152 204.727 120.307 204.472 120.42C204.216 120.534 203.919 120.591 203.58 120.591C203.134 120.591 202.766 120.494 202.474 120.301C202.183 120.108 201.998 119.826 201.92 119.455L202.557 119.295C202.617 119.53 202.732 119.706 202.901 119.824C203.071 119.941 203.294 120 203.568 120C203.881 120 204.129 119.934 204.312 119.801C204.498 119.667 204.591 119.506 204.591 119.318C204.591 119.167 204.538 119.04 204.432 118.938C204.326 118.833 204.163 118.756 203.943 118.705L203.216 118.534C202.816 118.439 202.523 118.293 202.335 118.094C202.15 117.893 202.057 117.642 202.057 117.341C202.057 117.095 202.126 116.877 202.264 116.688C202.404 116.498 202.595 116.349 202.835 116.241C203.078 116.134 203.352 116.08 203.659 116.08C204.091 116.08 204.43 116.174 204.676 116.364C204.924 116.553 205.1 116.803 205.205 117.114ZM208.191 116.136V116.705H205.93V116.136H208.191ZM206.589 115.091H207.259V119.25C207.259 119.439 207.287 119.581 207.342 119.676C207.398 119.769 207.47 119.831 207.558 119.864C207.647 119.894 207.74 119.909 207.839 119.909C207.913 119.909 207.973 119.905 208.021 119.898C208.068 119.888 208.106 119.881 208.134 119.875L208.271 120.477C208.225 120.494 208.162 120.511 208.08 120.528C207.999 120.547 207.896 120.557 207.771 120.557C207.581 120.557 207.396 120.516 207.214 120.435C207.034 120.353 206.884 120.229 206.765 120.062C206.647 119.896 206.589 119.686 206.589 119.432V115.091ZM210.982 120.591C210.562 120.591 210.199 120.498 209.894 120.312C209.591 120.125 209.357 119.864 209.192 119.528C209.03 119.191 208.948 118.799 208.948 118.352C208.948 117.905 209.03 117.511 209.192 117.17C209.357 116.828 209.586 116.561 209.88 116.369C210.175 116.176 210.52 116.08 210.914 116.08C211.141 116.08 211.366 116.117 211.587 116.193C211.809 116.269 212.011 116.392 212.192 116.562C212.374 116.731 212.519 116.955 212.627 117.233C212.735 117.511 212.789 117.854 212.789 118.261V118.545H209.425V117.966H212.107C212.107 117.72 212.058 117.5 211.96 117.307C211.863 117.114 211.725 116.961 211.545 116.849C211.367 116.738 211.156 116.682 210.914 116.682C210.647 116.682 210.416 116.748 210.221 116.881C210.028 117.011 209.879 117.182 209.775 117.392C209.671 117.602 209.619 117.828 209.619 118.068V118.455C209.619 118.784 209.675 119.063 209.789 119.293C209.905 119.52 210.065 119.693 210.269 119.812C210.474 119.93 210.711 119.989 210.982 119.989C211.158 119.989 211.317 119.964 211.46 119.915C211.603 119.864 211.728 119.788 211.832 119.688C211.936 119.585 212.016 119.458 212.073 119.307L212.721 119.489C212.653 119.708 212.538 119.902 212.377 120.068C212.216 120.233 212.017 120.362 211.781 120.455C211.544 120.545 211.278 120.591 210.982 120.591ZM213.809 122.136V116.136H214.457V116.83H214.536C214.585 116.754 214.654 116.657 214.741 116.54C214.83 116.42 214.957 116.314 215.121 116.222C215.288 116.127 215.513 116.08 215.798 116.08C216.165 116.08 216.489 116.171 216.769 116.355C217.049 116.539 217.268 116.799 217.425 117.136C217.583 117.473 217.661 117.871 217.661 118.33C217.661 118.792 217.583 119.192 217.425 119.531C217.268 119.868 217.05 120.13 216.772 120.315C216.494 120.499 216.173 120.591 215.809 120.591C215.529 120.591 215.304 120.545 215.136 120.452C214.967 120.357 214.837 120.25 214.746 120.131C214.656 120.009 214.585 119.909 214.536 119.83H214.479V122.136H213.809ZM214.468 118.318C214.468 118.648 214.516 118.938 214.613 119.19C214.71 119.44 214.851 119.636 215.036 119.778C215.222 119.919 215.449 119.989 215.718 119.989C215.998 119.989 216.232 119.915 216.42 119.767C216.609 119.617 216.751 119.417 216.846 119.165C216.942 118.911 216.991 118.629 216.991 118.318C216.991 118.011 216.943 117.735 216.849 117.489C216.756 117.241 216.615 117.045 216.425 116.901C216.238 116.755 216.002 116.682 215.718 116.682C215.445 116.682 215.216 116.751 215.031 116.889C214.845 117.026 214.705 117.217 214.61 117.463C214.515 117.707 214.468 117.992 214.468 118.318Z" fill="#666666"/>
<rect x="193.333" y="110" width="33.3333" height="15" stroke="#F03100" stroke-dasharray="1 3"/>
<path d="M243.538 117.114L242.936 117.284C242.898 117.184 242.842 117.086 242.768 116.991C242.696 116.895 242.598 116.815 242.473 116.753C242.348 116.69 242.188 116.659 241.992 116.659C241.725 116.659 241.503 116.721 241.325 116.844C241.149 116.965 241.061 117.119 241.061 117.307C241.061 117.473 241.121 117.605 241.242 117.702C241.364 117.798 241.553 117.879 241.811 117.943L242.458 118.102C242.849 118.197 243.139 118.342 243.331 118.537C243.522 118.73 243.617 118.979 243.617 119.284C243.617 119.534 243.545 119.758 243.402 119.955C243.26 120.152 243.061 120.307 242.805 120.42C242.549 120.534 242.252 120.591 241.913 120.591C241.468 120.591 241.099 120.494 240.808 120.301C240.516 120.108 240.331 119.826 240.254 119.455L240.89 119.295C240.951 119.53 241.065 119.706 241.234 119.824C241.404 119.941 241.627 120 241.902 120C242.214 120 242.462 119.934 242.646 119.801C242.831 119.667 242.924 119.506 242.924 119.318C242.924 119.167 242.871 119.04 242.765 118.938C242.659 118.833 242.496 118.756 242.277 118.705L241.549 118.534C241.15 118.439 240.856 118.293 240.669 118.094C240.483 117.893 240.39 117.642 240.39 117.341C240.39 117.095 240.459 116.877 240.598 116.688C240.738 116.498 240.928 116.349 241.169 116.241C241.411 116.134 241.686 116.08 241.992 116.08C242.424 116.08 242.763 116.174 243.01 116.364C243.258 116.553 243.434 116.803 243.538 117.114ZM246.524 116.136V116.705H244.263V116.136H246.524ZM244.922 115.091H245.593V119.25C245.593 119.439 245.62 119.581 245.675 119.676C245.732 119.769 245.804 119.831 245.891 119.864C245.98 119.894 246.074 119.909 246.172 119.909C246.246 119.909 246.307 119.905 246.354 119.898C246.401 119.888 246.439 119.881 246.468 119.875L246.604 120.477C246.559 120.494 246.495 120.511 246.414 120.528C246.332 120.547 246.229 120.557 246.104 120.557C245.915 120.557 245.729 120.516 245.547 120.435C245.367 120.353 245.218 120.229 245.098 120.062C244.981 119.896 244.922 119.686 244.922 119.432V115.091ZM249.316 120.591C248.895 120.591 248.532 120.498 248.228 120.312C247.925 120.125 247.691 119.864 247.526 119.528C247.363 119.191 247.282 118.799 247.282 118.352C247.282 117.905 247.363 117.511 247.526 117.17C247.691 116.828 247.92 116.561 248.213 116.369C248.509 116.176 248.853 116.08 249.247 116.08C249.475 116.08 249.699 116.117 249.921 116.193C250.142 116.269 250.344 116.392 250.526 116.562C250.708 116.731 250.853 116.955 250.961 117.233C251.068 117.511 251.122 117.854 251.122 118.261V118.545H247.759V117.966H250.441C250.441 117.72 250.391 117.5 250.293 117.307C250.196 117.114 250.058 116.961 249.878 116.849C249.7 116.738 249.49 116.682 249.247 116.682C248.98 116.682 248.749 116.748 248.554 116.881C248.361 117.011 248.212 117.182 248.108 117.392C248.004 117.602 247.952 117.828 247.952 118.068V118.455C247.952 118.784 248.009 119.063 248.122 119.293C248.238 119.52 248.398 119.693 248.603 119.812C248.807 119.93 249.045 119.989 249.316 119.989C249.492 119.989 249.651 119.964 249.793 119.915C249.937 119.864 250.061 119.788 250.165 119.688C250.269 119.585 250.35 119.458 250.407 119.307L251.054 119.489C250.986 119.708 250.871 119.902 250.711 120.068C250.55 120.233 250.351 120.362 250.114 120.455C249.877 120.545 249.611 120.591 249.316 120.591ZM252.142 122.136V116.136H252.79V116.83H252.87C252.919 116.754 252.987 116.657 253.074 116.54C253.163 116.42 253.29 116.314 253.455 116.222C253.621 116.127 253.847 116.08 254.131 116.08C254.498 116.08 254.822 116.171 255.103 116.355C255.383 116.539 255.602 116.799 255.759 117.136C255.916 117.473 255.995 117.871 255.995 118.33C255.995 118.792 255.916 119.192 255.759 119.531C255.602 119.868 255.384 120.13 255.105 120.315C254.827 120.499 254.506 120.591 254.142 120.591C253.862 120.591 253.638 120.545 253.469 120.452C253.3 120.357 253.171 120.25 253.08 120.131C252.989 120.009 252.919 119.909 252.87 119.83H252.813V122.136H252.142ZM252.801 118.318C252.801 118.648 252.85 118.938 252.946 119.19C253.043 119.44 253.184 119.636 253.37 119.778C253.555 119.919 253.782 119.989 254.051 119.989C254.332 119.989 254.566 119.915 254.753 119.767C254.943 119.617 255.085 119.417 255.179 119.165C255.276 118.911 255.324 118.629 255.324 118.318C255.324 118.011 255.277 117.735 255.182 117.489C255.089 117.241 254.948 117.045 254.759 116.901C254.571 116.755 254.336 116.682 254.051 116.682C253.779 116.682 253.55 116.751 253.364 116.889C253.178 117.026 253.038 117.217 252.943 117.463C252.849 117.707 252.801 117.992 252.801 118.318Z" fill="#666666"/>
<rect x="231.667" y="110" width="33.3333" height="15" stroke="#F03100" stroke-dasharray="1 3"/>
<path d="M150 78C150 73.5817 153.582 70 158 70H262C266.418 70 270 73.5817 270 78V130H150V78Z" stroke="#F03100" stroke-width="2"/>
<line x1="326.5" y1="70" x2="326.5" y2="130" stroke="black" stroke-width="3" stroke-dasharray="4 4"/>
<path d="M411.81 97V83.9091H416.604C417.533 83.9091 418.302 84.0625 418.912 84.3693C419.521 84.6719 419.977 85.0831 420.28 85.603C420.582 86.1186 420.734 86.7003 420.734 87.348C420.734 87.8935 420.633 88.3537 420.433 88.7287C420.233 89.0994 419.964 89.3977 419.628 89.6236C419.295 89.8452 418.929 90.0071 418.528 90.1094V90.2372C418.963 90.2585 419.387 90.3991 419.8 90.6591C420.218 90.9148 420.563 91.2791 420.836 91.7521C421.109 92.2251 421.245 92.8004 421.245 93.478C421.245 94.147 421.087 94.7479 420.772 95.2805C420.461 95.8089 419.979 96.2287 419.327 96.5398C418.675 96.8466 417.842 97 416.828 97H411.81ZM413.785 95.3061H416.636C417.582 95.3061 418.26 95.1229 418.669 94.7564C419.078 94.3899 419.283 93.9318 419.283 93.3821C419.283 92.9687 419.178 92.5895 418.969 92.2443C418.761 91.8991 418.462 91.6243 418.074 91.4197C417.691 91.2152 417.235 91.1129 416.707 91.1129H413.785V95.3061ZM413.785 89.5724H416.432C416.875 89.5724 417.273 89.4872 417.627 89.3168C417.985 89.1463 418.268 88.9077 418.477 88.6009C418.69 88.2898 418.797 87.9233 418.797 87.5014C418.797 86.9602 418.607 86.5064 418.228 86.1399C417.849 85.7734 417.267 85.5902 416.483 85.5902H413.785V89.5724ZM429.654 92.9283V87.1818H431.571V97H429.692V95.2997H429.59C429.364 95.8239 429.002 96.2607 428.503 96.6101C428.009 96.9553 427.393 97.1278 426.656 97.1278C426.025 97.1278 425.467 96.9893 424.981 96.7124C424.5 96.4311 424.12 96.0156 423.843 95.4659C423.571 94.9162 423.434 94.2365 423.434 93.4268V87.1818H425.345V93.1967C425.345 93.8658 425.531 94.3984 425.902 94.7947C426.272 95.1911 426.754 95.3892 427.346 95.3892C427.704 95.3892 428.06 95.2997 428.414 95.1207C428.772 94.9418 429.068 94.6712 429.302 94.3089C429.541 93.9467 429.658 93.4865 429.654 92.9283ZM434.139 97V87.1818H436.051V97H434.139ZM435.104 85.6669C434.772 85.6669 434.487 85.5561 434.248 85.3345C434.014 85.1087 433.896 84.8402 433.896 84.5291C433.896 84.2138 434.014 83.9453 434.248 83.7237C434.487 83.4979 434.772 83.3849 435.104 83.3849C435.437 83.3849 435.72 83.4979 435.955 83.7237C436.193 83.9453 436.313 84.2138 436.313 84.5291C436.313 84.8402 436.193 85.1087 435.955 85.3345C435.72 85.5561 435.437 85.6669 435.104 85.6669ZM440.533 83.9091V97H438.622V83.9091H440.533ZM446.78 97.1918C445.987 97.1918 445.28 96.9893 444.657 96.5845C444.04 96.1754 443.554 95.5937 443.2 94.8395C442.851 94.081 442.676 93.1712 442.676 92.1101C442.676 91.049 442.853 90.1413 443.206 89.3871C443.564 88.6328 444.054 88.0554 444.677 87.6548C445.299 87.2543 446.004 87.054 446.792 87.054C447.402 87.054 447.892 87.1562 448.263 87.3608C448.638 87.5611 448.927 87.7955 449.132 88.0639C449.341 88.3324 449.503 88.5689 449.618 88.7734H449.733V83.9091H451.644V97H449.777V95.4723H449.618C449.503 95.6811 449.336 95.9197 449.119 96.1882C448.906 96.4567 448.612 96.6911 448.237 96.8913C447.862 97.0916 447.376 97.1918 446.78 97.1918ZM447.201 95.5618C447.751 95.5618 448.216 95.4169 448.595 95.1271C448.978 94.8331 449.268 94.4261 449.464 93.9062C449.665 93.3864 449.765 92.7812 449.765 92.0909C449.765 91.4091 449.667 90.8125 449.471 90.3011C449.275 89.7898 448.987 89.3913 448.608 89.1058C448.228 88.8203 447.76 88.6776 447.201 88.6776C446.626 88.6776 446.147 88.8267 445.763 89.125C445.38 89.4233 445.09 89.8303 444.894 90.3459C444.702 90.8615 444.606 91.4432 444.606 92.0909C444.606 92.7472 444.704 93.3374 444.9 93.8615C445.096 94.3857 445.386 94.8011 445.77 95.108C446.157 95.4105 446.635 95.5618 447.201 95.5618ZM459.289 97V83.9091H464.083C465.012 83.9091 465.781 84.0625 466.39 84.3693C467 84.6719 467.456 85.0831 467.758 85.603C468.061 86.1186 468.212 86.7003 468.212 87.348C468.212 87.8935 468.112 88.3537 467.912 88.7287C467.711 89.0994 467.443 89.3977 467.106 89.6236C466.774 89.8452 466.407 90.0071 466.007 90.1094V90.2372C466.441 90.2585 466.866 90.3991 467.279 90.6591C467.696 90.9148 468.042 91.2791 468.314 91.7521C468.587 92.2251 468.723 92.8004 468.723 93.478C468.723 94.147 468.566 94.7479 468.25 95.2805C467.939 95.8089 467.458 96.2287 466.806 96.5398C466.154 96.8466 465.321 97 464.307 97H459.289ZM461.264 95.3061H464.115C465.061 95.3061 465.738 95.1229 466.147 94.7564C466.557 94.3899 466.761 93.9318 466.761 93.3821C466.761 92.9687 466.657 92.5895 466.448 92.2443C466.239 91.8991 465.941 91.6243 465.553 91.4197C465.169 91.2152 464.714 91.1129 464.185 91.1129H461.264V95.3061ZM461.264 89.5724H463.91C464.353 89.5724 464.752 89.4872 465.106 89.3168C465.464 89.1463 465.747 88.9077 465.956 88.6009C466.169 88.2898 466.275 87.9233 466.275 87.5014C466.275 86.9602 466.086 86.5064 465.706 86.1399C465.327 85.7734 464.745 85.5902 463.961 85.5902H461.264V89.5724Z" fill="#CCCCCC"/>
<path d="M396.871 117.114L396.269 117.284C396.231 117.184 396.175 117.086 396.101 116.991C396.029 116.895 395.931 116.815 395.806 116.753C395.681 116.69 395.521 116.659 395.326 116.659C395.059 116.659 394.836 116.721 394.658 116.844C394.482 116.965 394.394 117.119 394.394 117.307C394.394 117.473 394.455 117.605 394.576 117.702C394.697 117.798 394.886 117.879 395.144 117.943L395.792 118.102C396.182 118.197 396.473 118.342 396.664 118.537C396.855 118.73 396.951 118.979 396.951 119.284C396.951 119.534 396.879 119.758 396.735 119.955C396.593 120.152 396.394 120.307 396.138 120.42C395.883 120.534 395.585 120.591 395.246 120.591C394.801 120.591 394.433 120.494 394.141 120.301C393.849 120.108 393.665 119.826 393.587 119.455L394.224 119.295C394.284 119.53 394.399 119.706 394.567 119.824C394.738 119.941 394.96 120 395.235 120C395.547 120 395.795 119.934 395.979 119.801C396.165 119.667 396.258 119.506 396.258 119.318C396.258 119.167 396.205 119.04 396.099 118.938C395.992 118.833 395.83 118.756 395.61 118.705L394.883 118.534C394.483 118.439 394.189 118.293 394.002 118.094C393.816 117.893 393.724 117.642 393.724 117.341C393.724 117.095 393.793 116.877 393.931 116.688C394.071 116.498 394.261 116.349 394.502 116.241C394.744 116.134 395.019 116.08 395.326 116.08C395.758 116.08 396.097 116.174 396.343 116.364C396.591 116.553 396.767 116.803 396.871 117.114ZM399.858 116.136V116.705H397.596V116.136H399.858ZM398.255 115.091H398.926V119.25C398.926 119.439 398.953 119.581 399.008 119.676C399.065 119.769 399.137 119.831 399.224 119.864C399.313 119.894 399.407 119.909 399.505 119.909C399.579 119.909 399.64 119.905 399.687 119.898C399.735 119.888 399.773 119.881 399.801 119.875L399.937 120.477C399.892 120.494 399.828 120.511 399.747 120.528C399.666 120.547 399.562 120.557 399.437 120.557C399.248 120.557 399.062 120.516 398.88 120.435C398.701 120.353 398.551 120.229 398.432 120.062C398.314 119.896 398.255 119.686 398.255 119.432V115.091ZM402.649 120.591C402.228 120.591 401.866 120.498 401.561 120.312C401.258 120.125 401.024 119.864 400.859 119.528C400.696 119.191 400.615 118.799 400.615 118.352C400.615 117.905 400.696 117.511 400.859 117.17C401.024 116.828 401.253 116.561 401.547 116.369C401.842 116.176 402.187 116.08 402.581 116.08C402.808 116.08 403.032 116.117 403.254 116.193C403.476 116.269 403.677 116.392 403.859 116.562C404.041 116.731 404.186 116.955 404.294 117.233C404.402 117.511 404.456 117.854 404.456 118.261V118.545H401.092V117.966H403.774C403.774 117.72 403.725 117.5 403.626 117.307C403.53 117.114 403.391 116.961 403.211 116.849C403.033 116.738 402.823 116.682 402.581 116.682C402.314 116.682 402.083 116.748 401.888 116.881C401.694 117.011 401.546 117.182 401.442 117.392C401.337 117.602 401.285 117.828 401.285 118.068V118.455C401.285 118.784 401.342 119.063 401.456 119.293C401.571 119.52 401.731 119.693 401.936 119.812C402.14 119.93 402.378 119.989 402.649 119.989C402.825 119.989 402.984 119.964 403.126 119.915C403.27 119.864 403.394 119.788 403.498 119.688C403.603 119.585 403.683 119.458 403.74 119.307L404.388 119.489C404.319 119.708 404.205 119.902 404.044 120.068C403.883 120.233 403.684 120.362 403.447 120.455C403.21 120.545 402.944 120.591 402.649 120.591ZM405.476 122.136V116.136H406.123V116.83H406.203C406.252 116.754 406.32 116.657 406.407 116.54C406.496 116.42 406.623 116.314 406.788 116.222C406.955 116.127 407.18 116.08 407.464 116.08C407.832 116.08 408.156 116.171 408.436 116.355C408.716 116.539 408.935 116.799 409.092 117.136C409.249 117.473 409.328 117.871 409.328 118.33C409.328 118.792 409.249 119.192 409.092 119.531C408.935 119.868 408.717 120.13 408.439 120.315C408.16 120.499 407.839 120.591 407.476 120.591C407.195 120.591 406.971 120.545 406.802 120.452C406.634 120.357 406.504 120.25 406.413 120.131C406.322 120.009 406.252 119.909 406.203 119.83H406.146V122.136H405.476ZM406.135 118.318C406.135 118.648 406.183 118.938 406.28 119.19C406.376 119.44 406.517 119.636 406.703 119.778C406.889 119.919 407.116 119.989 407.385 119.989C407.665 119.989 407.899 119.915 408.086 119.767C408.276 119.617 408.418 119.417 408.513 119.165C408.609 118.911 408.657 118.629 408.657 118.318C408.657 118.011 408.61 117.735 408.515 117.489C408.423 117.241 408.282 117.045 408.092 116.901C407.905 116.755 407.669 116.682 407.385 116.682C407.112 116.682 406.883 116.751 406.697 116.889C406.512 117.026 406.371 117.217 406.277 117.463C406.182 117.707 406.135 117.992 406.135 118.318Z" fill="#D9D9D9"/>
<rect x="385" y="110" width="33.3333" height="15" stroke="#FFE0D4" stroke-dasharray="1 3"/>
<path d="M435.205 117.114L434.602 117.284C434.564 117.184 434.509 117.086 434.435 116.991C434.363 116.895 434.264 116.815 434.139 116.753C434.014 116.69 433.854 116.659 433.659 116.659C433.392 116.659 433.17 116.721 432.991 116.844C432.815 116.965 432.727 117.119 432.727 117.307C432.727 117.473 432.788 117.605 432.909 117.702C433.03 117.798 433.22 117.879 433.477 117.943L434.125 118.102C434.515 118.197 434.806 118.342 434.997 118.537C435.188 118.73 435.284 118.979 435.284 119.284C435.284 119.534 435.212 119.758 435.068 119.955C434.926 120.152 434.727 120.307 434.472 120.42C434.216 120.534 433.919 120.591 433.58 120.591C433.134 120.591 432.766 120.494 432.474 120.301C432.183 120.108 431.998 119.826 431.92 119.455L432.557 119.295C432.617 119.53 432.732 119.706 432.901 119.824C433.071 119.941 433.294 120 433.568 120C433.881 120 434.129 119.934 434.312 119.801C434.498 119.667 434.591 119.506 434.591 119.318C434.591 119.167 434.538 119.04 434.432 118.938C434.326 118.833 434.163 118.756 433.943 118.705L433.216 118.534C432.816 118.439 432.523 118.293 432.335 118.094C432.15 117.893 432.057 117.642 432.057 117.341C432.057 117.095 432.126 116.877 432.264 116.688C432.404 116.498 432.595 116.349 432.835 116.241C433.078 116.134 433.352 116.08 433.659 116.08C434.091 116.08 434.43 116.174 434.676 116.364C434.924 116.553 435.1 116.803 435.205 117.114ZM438.191 116.136V116.705H435.93V116.136H438.191ZM436.589 115.091H437.259V119.25C437.259 119.439 437.287 119.581 437.342 119.676C437.398 119.769 437.47 119.831 437.558 119.864C437.647 119.894 437.74 119.909 437.839 119.909C437.913 119.909 437.973 119.905 438.021 119.898C438.068 119.888 438.106 119.881 438.134 119.875L438.271 120.477C438.225 120.494 438.162 120.511 438.08 120.528C437.999 120.547 437.896 120.557 437.771 120.557C437.581 120.557 437.396 120.516 437.214 120.435C437.034 120.353 436.884 120.229 436.765 120.062C436.647 119.896 436.589 119.686 436.589 119.432V115.091ZM440.982 120.591C440.562 120.591 440.199 120.498 439.894 120.312C439.591 120.125 439.357 119.864 439.192 119.528C439.03 119.191 438.948 118.799 438.948 118.352C438.948 117.905 439.03 117.511 439.192 117.17C439.357 116.828 439.586 116.561 439.88 116.369C440.175 116.176 440.52 116.08 440.914 116.08C441.141 116.08 441.366 116.117 441.587 116.193C441.809 116.269 442.011 116.392 442.192 116.562C442.374 116.731 442.519 116.955 442.627 117.233C442.735 117.511 442.789 117.854 442.789 118.261V118.545H439.425V117.966H442.107C442.107 117.72 442.058 117.5 441.96 117.307C441.863 117.114 441.725 116.961 441.545 116.849C441.367 116.738 441.156 116.682 440.914 116.682C440.647 116.682 440.416 116.748 440.221 116.881C440.028 117.011 439.879 117.182 439.775 117.392C439.671 117.602 439.619 117.828 439.619 118.068V118.455C439.619 118.784 439.675 119.063 439.789 119.293C439.905 119.52 440.065 119.693 440.269 119.812C440.474 119.93 440.711 119.989 440.982 119.989C441.158 119.989 441.317 119.964 441.46 119.915C441.603 119.864 441.728 119.788 441.832 119.688C441.936 119.585 442.016 119.458 442.073 119.307L442.721 119.489C442.653 119.708 442.538 119.902 442.377 120.068C442.216 120.233 442.017 120.362 441.781 120.455C441.544 120.545 441.278 120.591 440.982 120.591ZM443.809 122.136V116.136H444.457V116.83H444.536C444.585 116.754 444.654 116.657 444.741 116.54C444.83 116.42 444.957 116.314 445.121 116.222C445.288 116.127 445.513 116.08 445.798 116.08C446.165 116.08 446.489 116.171 446.769 116.355C447.049 116.539 447.268 116.799 447.425 117.136C447.583 117.473 447.661 117.871 447.661 118.33C447.661 118.792 447.583 119.192 447.425 119.531C447.268 119.868 447.05 120.13 446.772 120.315C446.494 120.499 446.173 120.591 445.809 120.591C445.529 120.591 445.304 120.545 445.136 120.452C444.967 120.357 444.837 120.25 444.746 120.131C444.656 120.009 444.585 119.909 444.536 119.83H444.479V122.136H443.809ZM444.468 118.318C444.468 118.648 444.516 118.938 444.613 119.19C444.71 119.44 444.851 119.636 445.036 119.778C445.222 119.919 445.449 119.989 445.718 119.989C445.998 119.989 446.232 119.915 446.42 119.767C446.609 119.617 446.751 119.417 446.846 119.165C446.942 118.911 446.991 118.629 446.991 118.318C446.991 118.011 446.943 117.735 446.849 117.489C446.756 117.241 446.615 117.045 446.425 116.901C446.238 116.755 446.002 116.682 445.718 116.682C445.445 116.682 445.216 116.751 445.031 116.889C444.845 117.026 444.705 117.217 444.61 117.463C444.515 117.707 444.468 117.992 444.468 118.318Z" fill="#D9D9D9"/>
<rect x="423.333" y="110" width="33.3333" height="15" stroke="#FFE0D4" stroke-dasharray="1 3"/>
<path d="M473.538 117.114L472.936 117.284C472.898 117.184 472.842 117.086 472.768 116.991C472.696 116.895 472.598 116.815 472.473 116.753C472.348 116.69 472.188 116.659 471.992 116.659C471.725 116.659 471.503 116.721 471.325 116.844C471.149 116.965 471.061 117.119 471.061 117.307C471.061 117.473 471.121 117.605 471.242 117.702C471.364 117.798 471.553 117.879 471.811 117.943L472.458 118.102C472.849 118.197 473.139 118.342 473.331 118.537C473.522 118.73 473.617 118.979 473.617 119.284C473.617 119.534 473.545 119.758 473.402 119.955C473.26 120.152 473.061 120.307 472.805 120.42C472.549 120.534 472.252 120.591 471.913 120.591C471.468 120.591 471.099 120.494 470.808 120.301C470.516 120.108 470.331 119.826 470.254 119.455L470.89 119.295C470.951 119.53 471.065 119.706 471.234 119.824C471.404 119.941 471.627 120 471.902 120C472.214 120 472.462 119.934 472.646 119.801C472.831 119.667 472.924 119.506 472.924 119.318C472.924 119.167 472.871 119.04 472.765 118.938C472.659 118.833 472.496 118.756 472.277 118.705L471.549 118.534C471.15 118.439 470.856 118.293 470.669 118.094C470.483 117.893 470.39 117.642 470.39 117.341C470.39 117.095 470.459 116.877 470.598 116.688C470.738 116.498 470.928 116.349 471.169 116.241C471.411 116.134 471.686 116.08 471.992 116.08C472.424 116.08 472.763 116.174 473.01 116.364C473.258 116.553 473.434 116.803 473.538 117.114ZM476.524 116.136V116.705H474.263V116.136H476.524ZM474.922 115.091H475.593V119.25C475.593 119.439 475.62 119.581 475.675 119.676C475.732 119.769 475.804 119.831 475.891 119.864C475.98 119.894 476.074 119.909 476.172 119.909C476.246 119.909 476.307 119.905 476.354 119.898C476.401 119.888 476.439 119.881 476.468 119.875L476.604 120.477C476.559 120.494 476.495 120.511 476.414 120.528C476.332 120.547 476.229 120.557 476.104 120.557C475.915 120.557 475.729 120.516 475.547 120.435C475.367 120.353 475.218 120.229 475.098 120.062C474.981 119.896 474.922 119.686 474.922 119.432V115.091ZM479.316 120.591C478.895 120.591 478.532 120.498 478.228 120.312C477.925 120.125 477.691 119.864 477.526 119.528C477.363 119.191 477.282 118.799 477.282 118.352C477.282 117.905 477.363 117.511 477.526 117.17C477.691 116.828 477.92 116.561 478.213 116.369C478.509 116.176 478.853 116.08 479.247 116.08C479.475 116.08 479.699 116.117 479.921 116.193C480.142 116.269 480.344 116.392 480.526 116.562C480.708 116.731 480.853 116.955 480.961 117.233C481.068 117.511 481.122 117.854 481.122 118.261V118.545H477.759V117.966H480.441C480.441 117.72 480.391 117.5 480.293 117.307C480.196 117.114 480.058 116.961 479.878 116.849C479.7 116.738 479.49 116.682 479.247 116.682C478.98 116.682 478.749 116.748 478.554 116.881C478.361 117.011 478.212 117.182 478.108 117.392C478.004 117.602 477.952 117.828 477.952 118.068V118.455C477.952 118.784 478.009 119.063 478.122 119.293C478.238 119.52 478.398 119.693 478.603 119.812C478.807 119.93 479.045 119.989 479.316 119.989C479.492 119.989 479.651 119.964 479.793 119.915C479.937 119.864 480.061 119.788 480.165 119.688C480.269 119.585 480.35 119.458 480.407 119.307L481.054 119.489C480.986 119.708 480.871 119.902 480.711 120.068C480.55 120.233 480.351 120.362 480.114 120.455C479.877 120.545 479.611 120.591 479.316 120.591ZM482.142 122.136V116.136H482.79V116.83H482.87C482.919 116.754 482.987 116.657 483.074 116.54C483.163 116.42 483.29 116.314 483.455 116.222C483.621 116.127 483.847 116.08 484.131 116.08C484.498 116.08 484.822 116.171 485.103 116.355C485.383 116.539 485.602 116.799 485.759 117.136C485.916 117.473 485.995 117.871 485.995 118.33C485.995 118.792 485.916 119.192 485.759 119.531C485.602 119.868 485.384 120.13 485.105 120.315C484.827 120.499 484.506 120.591 484.142 120.591C483.862 120.591 483.638 120.545 483.469 120.452C483.3 120.357 483.171 120.25 483.08 120.131C482.989 120.009 482.919 119.909 482.87 119.83H482.813V122.136H482.142ZM482.801 118.318C482.801 118.648 482.85 118.938 482.946 119.19C483.043 119.44 483.184 119.636 483.37 119.778C483.555 119.919 483.782 119.989 484.051 119.989C484.332 119.989 484.566 119.915 484.753 119.767C484.943 119.617 485.085 119.417 485.179 119.165C485.276 118.911 485.324 118.629 485.324 118.318C485.324 118.011 485.277 117.735 485.182 117.489C485.089 117.241 484.948 117.045 484.759 116.901C484.571 116.755 484.336 116.682 484.051 116.682C483.779 116.682 483.55 116.751 483.364 116.889C483.178 117.026 483.038 117.217 482.943 117.463C482.849 117.707 482.801 117.992 482.801 118.318Z" fill="#D9D9D9"/>
<rect x="461.667" y="110" width="33.3333" height="15" stroke="#FFE0D4" stroke-dasharray="1 3"/>
<path d="M380 78C380 73.5817 383.582 70 388 70H492C496.418 70 500 73.5817 500 78V130H380V78Z" stroke="#FFE0D4" stroke-width="2"/>
<path d="M290.008 167V153.909H294.674C295.692 153.909 296.536 154.094 297.205 154.465C297.874 154.836 298.375 155.343 298.707 155.987C299.04 156.626 299.206 157.346 299.206 158.147C299.206 158.952 299.037 159.677 298.701 160.32C298.368 160.96 297.866 161.467 297.192 161.842C296.523 162.212 295.682 162.398 294.667 162.398H291.459V160.723H294.488C295.132 160.723 295.654 160.612 296.054 160.391C296.455 160.165 296.749 159.858 296.937 159.47C297.124 159.082 297.218 158.641 297.218 158.147C297.218 157.653 297.124 157.214 296.937 156.83C296.749 156.447 296.453 156.146 296.048 155.929C295.647 155.712 295.119 155.603 294.463 155.603H291.983V167H290.008ZM303.279 153.909V167H301.368V153.909H303.279ZM308.707 167.217C308.085 167.217 307.523 167.102 307.02 166.872C306.517 166.638 306.119 166.299 305.825 165.856C305.535 165.413 305.39 164.869 305.39 164.226C305.39 163.672 305.497 163.216 305.71 162.858C305.923 162.5 306.21 162.217 306.573 162.008C306.935 161.799 307.34 161.641 307.787 161.535C308.234 161.428 308.69 161.347 309.155 161.292C309.743 161.224 310.22 161.168 310.587 161.126C310.953 161.079 311.22 161.004 311.386 160.902C311.552 160.8 311.635 160.634 311.635 160.403V160.359C311.635 159.8 311.477 159.368 311.162 159.061C310.851 158.754 310.386 158.601 309.769 158.601C309.125 158.601 308.618 158.744 308.247 159.029C307.881 159.31 307.627 159.624 307.487 159.969L305.69 159.56C305.903 158.963 306.215 158.482 306.624 158.115C307.037 157.744 307.512 157.476 308.049 157.31C308.586 157.139 309.151 157.054 309.743 157.054C310.135 157.054 310.551 157.101 310.989 157.195C311.433 157.284 311.846 157.45 312.229 157.693C312.617 157.936 312.935 158.283 313.182 158.735C313.429 159.183 313.553 159.764 313.553 160.48V167H311.686V165.658H311.609C311.486 165.905 311.301 166.148 311.053 166.386C310.806 166.625 310.489 166.823 310.101 166.981C309.713 167.138 309.249 167.217 308.707 167.217ZM309.123 165.683C309.651 165.683 310.103 165.579 310.478 165.37C310.857 165.161 311.145 164.888 311.341 164.552C311.541 164.211 311.641 163.847 311.641 163.459V162.193C311.573 162.261 311.441 162.325 311.245 162.385C311.053 162.44 310.834 162.489 310.587 162.532C310.34 162.57 310.099 162.607 309.864 162.641C309.63 162.67 309.434 162.696 309.276 162.717C308.906 162.764 308.567 162.843 308.26 162.954C307.957 163.065 307.715 163.224 307.531 163.433C307.352 163.638 307.263 163.911 307.263 164.251C307.263 164.724 307.438 165.082 307.787 165.325C308.136 165.564 308.582 165.683 309.123 165.683ZM320.681 157.182V158.716H315.318V157.182H320.681ZM316.757 154.83H318.668V164.117C318.668 164.488 318.723 164.767 318.834 164.955C318.945 165.138 319.088 165.263 319.262 165.332C319.441 165.396 319.635 165.428 319.844 165.428C319.997 165.428 320.132 165.417 320.247 165.396C320.362 165.374 320.451 165.357 320.515 165.344L320.86 166.923C320.75 166.966 320.592 167.009 320.387 167.051C320.183 167.098 319.927 167.124 319.62 167.128C319.117 167.136 318.649 167.047 318.214 166.859C317.779 166.672 317.428 166.382 317.159 165.99C316.891 165.598 316.757 165.106 316.757 164.513V154.83ZM327.468 157.182V158.716H321.92V157.182H327.468ZM323.441 167V156.044C323.441 155.43 323.575 154.921 323.844 154.516C324.112 154.107 324.468 153.803 324.911 153.602C325.354 153.398 325.836 153.295 326.356 153.295C326.739 153.295 327.068 153.327 327.34 153.391C327.613 153.451 327.815 153.506 327.948 153.558L327.5 155.104C327.411 155.079 327.296 155.049 327.155 155.015C327.014 154.977 326.844 154.957 326.644 154.957C326.179 154.957 325.847 155.072 325.646 155.303C325.45 155.533 325.352 155.865 325.352 156.3V167H323.441ZM333.189 167.198C332.269 167.198 331.465 166.987 330.779 166.565C330.093 166.143 329.56 165.553 329.181 164.795C328.802 164.036 328.612 163.15 328.612 162.136C328.612 161.117 328.802 160.227 329.181 159.464C329.56 158.701 330.093 158.109 330.779 157.687C331.465 157.265 332.269 157.054 333.189 157.054C334.109 157.054 334.913 157.265 335.599 157.687C336.285 158.109 336.818 158.701 337.197 159.464C337.576 160.227 337.766 161.117 337.766 162.136C337.766 163.15 337.576 164.036 337.197 164.795C336.818 165.553 336.285 166.143 335.599 166.565C334.913 166.987 334.109 167.198 333.189 167.198ZM333.195 165.594C333.792 165.594 334.286 165.436 334.678 165.121C335.07 164.805 335.36 164.386 335.548 163.862C335.739 163.337 335.835 162.76 335.835 162.129C335.835 161.503 335.739 160.928 335.548 160.403C335.36 159.875 335.07 159.451 334.678 159.131C334.286 158.812 333.792 158.652 333.195 158.652C332.595 158.652 332.096 158.812 331.7 159.131C331.308 159.451 331.016 159.875 330.824 160.403C330.636 160.928 330.543 161.503 330.543 162.129C330.543 162.76 330.636 163.337 330.824 163.862C331.016 164.386 331.308 164.805 331.7 165.121C332.096 165.436 332.595 165.594 333.195 165.594ZM339.899 167V157.182H341.746V158.741H341.849C342.028 158.213 342.343 157.798 342.795 157.495C343.251 157.188 343.766 157.035 344.342 157.035C344.461 157.035 344.601 157.039 344.763 157.048C344.93 157.056 345.06 157.067 345.153 157.08V158.908C345.077 158.886 344.94 158.863 344.744 158.837C344.548 158.808 344.352 158.793 344.156 158.793C343.704 158.793 343.302 158.888 342.948 159.08C342.599 159.268 342.322 159.53 342.117 159.866C341.913 160.199 341.81 160.578 341.81 161.004V167H339.899ZM346.807 167V157.182H348.642V158.78H348.763C348.968 158.239 349.302 157.817 349.767 157.514C350.231 157.207 350.787 157.054 351.435 157.054C352.091 157.054 352.641 157.207 353.084 157.514C353.532 157.821 353.862 158.243 354.075 158.78H354.177C354.412 158.256 354.785 157.838 355.296 157.527C355.807 157.212 356.417 157.054 357.124 157.054C358.015 157.054 358.741 157.333 359.304 157.891C359.87 158.45 360.154 159.291 360.154 160.416V167H358.243V160.595C358.243 159.93 358.062 159.449 357.699 159.151C357.337 158.852 356.905 158.703 356.402 158.703C355.78 158.703 355.296 158.895 354.951 159.278C354.606 159.658 354.433 160.146 354.433 160.742V167H352.528V160.474C352.528 159.941 352.362 159.513 352.03 159.189C351.697 158.865 351.265 158.703 350.732 158.703C350.37 158.703 350.035 158.799 349.728 158.991C349.426 159.178 349.181 159.44 348.993 159.777C348.81 160.114 348.718 160.504 348.718 160.947V167H346.807Z" fill="black"/>
<path d="M150 140H500V172C500 176.418 496.418 180 492 180H158C153.582 180 150 176.418 150 172V140Z" stroke="#58DA95" stroke-width="2"/>
<path d="M125 127L120 124.113L120 129.887L125 127ZM98 127.5L120.5 127.5L120.5 126.5L98 126.5L98 127.5Z" fill="black"/>
<path d="M14.9034 122.176C14.0436 122.176 13.303 121.992 12.6818 121.625C12.0644 121.254 11.5871 120.733 11.25 120.062C10.9167 119.388 10.75 118.598 10.75 117.693C10.75 116.799 10.9167 116.011 11.25 115.33C11.5871 114.648 12.0568 114.116 12.6591 113.733C13.2652 113.35 13.9735 113.159 14.7841 113.159C15.2765 113.159 15.7538 113.241 16.2159 113.403C16.678 113.566 17.0928 113.822 17.4602 114.17C17.8277 114.519 18.1174 114.972 18.3295 115.528C18.5417 116.081 18.6477 116.754 18.6477 117.545V118.148H11.7102V116.875H16.983C16.983 116.428 16.892 116.032 16.7102 115.688C16.5284 115.339 16.2727 115.064 15.9432 114.864C15.6174 114.663 15.2348 114.562 14.7955 114.562C14.3182 114.562 13.9015 114.68 13.5455 114.915C13.1932 115.146 12.9205 115.449 12.7273 115.824C12.5379 116.195 12.4432 116.598 12.4432 117.034V118.028C12.4432 118.612 12.5455 119.108 12.75 119.517C12.9583 119.926 13.2481 120.239 13.6193 120.455C13.9905 120.667 14.4242 120.773 14.9205 120.773C15.2424 120.773 15.536 120.727 15.8011 120.636C16.0663 120.542 16.2955 120.402 16.4886 120.216C16.6818 120.03 16.8295 119.801 16.9318 119.528L18.5398 119.818C18.411 120.292 18.1799 120.706 17.8466 121.062C17.517 121.415 17.1023 121.689 16.6023 121.886C16.1061 122.08 15.5398 122.176 14.9034 122.176ZM21.6705 113.273L23.5966 116.67L25.5398 113.273H27.3977L24.6761 117.636L27.4205 122H25.5625L23.5966 118.739L21.6364 122H19.7727L22.4886 117.636L19.8068 113.273H21.6705ZM33.2159 113.273V114.636H28.4489V113.273H33.2159ZM29.7273 111.182H31.4261V119.438C31.4261 119.767 31.4754 120.015 31.5739 120.182C31.6723 120.345 31.7992 120.456 31.9545 120.517C32.1136 120.574 32.286 120.602 32.4716 120.602C32.608 120.602 32.7273 120.593 32.8295 120.574C32.9318 120.555 33.0114 120.54 33.0682 120.528L33.375 121.932C33.2765 121.97 33.1364 122.008 32.9545 122.045C32.7727 122.087 32.5455 122.11 32.2727 122.114C31.8258 122.121 31.4091 122.042 31.0227 121.875C30.6364 121.708 30.3239 121.451 30.0852 121.102C29.8466 120.754 29.7273 120.316 29.7273 119.79V111.182ZM38.7628 122.176C37.9029 122.176 37.1624 121.992 36.5412 121.625C35.9238 121.254 35.4465 120.733 35.1094 120.062C34.776 119.388 34.6094 118.598 34.6094 117.693C34.6094 116.799 34.776 116.011 35.1094 115.33C35.4465 114.648 35.9162 114.116 36.5185 113.733C37.1245 113.35 37.8329 113.159 38.6435 113.159C39.1359 113.159 39.6132 113.241 40.0753 113.403C40.5374 113.566 40.9522 113.822 41.3196 114.17C41.687 114.519 41.9768 114.972 42.1889 115.528C42.401 116.081 42.5071 116.754 42.5071 117.545V118.148H35.5696V116.875H40.8423C40.8423 116.428 40.7514 116.032 40.5696 115.688C40.3878 115.339 40.1321 115.064 39.8026 114.864C39.4768 114.663 39.0942 114.562 38.6548 114.562C38.1776 114.562 37.7609 114.68 37.4048 114.915C37.0526 115.146 36.7798 115.449 36.5866 115.824C36.3973 116.195 36.3026 116.598 36.3026 117.034V118.028C36.3026 118.612 36.4048 119.108 36.6094 119.517C36.8177 119.926 37.1075 120.239 37.4787 120.455C37.8499 120.667 38.2836 120.773 38.7798 120.773C39.1018 120.773 39.3954 120.727 39.6605 120.636C39.9257 120.542 40.1548 120.402 40.348 120.216C40.5412 120.03 40.6889 119.801 40.7912 119.528L42.3991 119.818C42.2704 120.292 42.0393 120.706 41.706 121.062C41.3764 121.415 40.9616 121.689 40.4616 121.886C39.9654 122.08 39.3991 122.176 38.7628 122.176ZM44.392 122V113.273H46.0341V114.659H46.125C46.2841 114.189 46.5644 113.82 46.9659 113.551C47.3712 113.278 47.8295 113.142 48.3409 113.142C48.447 113.142 48.572 113.146 48.7159 113.153C48.8636 113.161 48.9792 113.17 49.0625 113.182V114.807C48.9943 114.788 48.8731 114.767 48.6989 114.744C48.5246 114.718 48.3504 114.705 48.1761 114.705C47.7746 114.705 47.4167 114.79 47.1023 114.96C46.7917 115.127 46.5455 115.36 46.3636 115.659C46.1818 115.955 46.0909 116.292 46.0909 116.67V122H44.392ZM52.2315 116.818V122H50.5327V113.273H52.1634V114.693H52.2713C52.4721 114.231 52.7865 113.86 53.2145 113.58C53.6463 113.299 54.1899 113.159 54.8452 113.159C55.4399 113.159 55.9607 113.284 56.4077 113.534C56.8546 113.78 57.2012 114.148 57.4474 114.636C57.6937 115.125 57.8168 115.729 57.8168 116.449V122H56.1179V116.653C56.1179 116.021 55.9531 115.527 55.6236 115.17C55.294 114.811 54.8414 114.631 54.2656 114.631C53.8717 114.631 53.5213 114.716 53.2145 114.886C52.9115 115.057 52.6709 115.307 52.4929 115.636C52.3187 115.962 52.2315 116.356 52.2315 116.818ZM62.6349 122.193C62.0819 122.193 61.5819 122.091 61.1349 121.886C60.688 121.678 60.3338 121.377 60.0724 120.983C59.8149 120.589 59.6861 120.106 59.6861 119.534C59.6861 119.042 59.7808 118.636 59.9702 118.318C60.1596 118 60.4152 117.748 60.7372 117.562C61.0592 117.377 61.419 117.237 61.8168 117.142C62.2145 117.047 62.6198 116.975 63.0327 116.926C63.5554 116.866 63.9796 116.816 64.3054 116.778C64.6312 116.737 64.8679 116.67 65.0156 116.58C65.1634 116.489 65.2372 116.341 65.2372 116.136V116.097C65.2372 115.6 65.0971 115.216 64.8168 114.943C64.5402 114.67 64.1274 114.534 63.5781 114.534C63.0062 114.534 62.5554 114.661 62.2259 114.915C61.9001 115.165 61.6747 115.443 61.5497 115.75L59.9531 115.386C60.1425 114.856 60.419 114.428 60.7827 114.102C61.1501 113.773 61.5724 113.534 62.0497 113.386C62.527 113.235 63.0289 113.159 63.5554 113.159C63.9039 113.159 64.2732 113.201 64.6634 113.284C65.0573 113.364 65.4247 113.511 65.7656 113.727C66.1103 113.943 66.3925 114.252 66.6122 114.653C66.8319 115.051 66.9418 115.568 66.9418 116.205V122H65.2827V120.807H65.2145C65.1046 121.027 64.9399 121.242 64.7202 121.455C64.5005 121.667 64.2183 121.843 63.8736 121.983C63.5289 122.123 63.116 122.193 62.6349 122.193ZM63.0043 120.83C63.474 120.83 63.8755 120.737 64.2088 120.551C64.5459 120.366 64.8016 120.123 64.9759 119.824C65.1539 119.521 65.2429 119.197 65.2429 118.852V117.727C65.1823 117.788 65.0649 117.845 64.8906 117.898C64.7202 117.947 64.5251 117.991 64.3054 118.028C64.0857 118.062 63.8717 118.095 63.6634 118.125C63.455 118.152 63.2808 118.174 63.1406 118.193C62.8111 118.235 62.5099 118.305 62.2372 118.403C61.9683 118.502 61.7524 118.644 61.5895 118.83C61.4304 119.011 61.3509 119.254 61.3509 119.557C61.3509 119.977 61.5062 120.295 61.8168 120.511C62.1274 120.723 62.5232 120.83 63.0043 120.83ZM70.9034 110.364V122H69.2045V110.364H70.9034ZM11.142 144.273V132.273H12.8011V133.688H12.9432C13.0417 133.506 13.1837 133.295 13.3693 133.057C13.5549 132.818 13.8125 132.61 14.142 132.432C14.4716 132.25 14.9072 132.159 15.4489 132.159C16.1534 132.159 16.7822 132.337 17.3352 132.693C17.8883 133.049 18.322 133.562 18.6364 134.233C18.9545 134.903 19.1136 135.71 19.1136 136.653C19.1136 137.597 18.9564 138.405 18.642 139.08C18.3277 139.75 17.8958 140.267 17.3466 140.631C16.7973 140.991 16.1705 141.17 15.4659 141.17C14.9356 141.17 14.5019 141.081 14.1648 140.903C13.8314 140.725 13.5701 140.517 13.3807 140.278C13.1913 140.04 13.0455 139.828 12.9432 139.642H12.8409V144.273H11.142ZM12.8068 136.636C12.8068 137.25 12.8958 137.788 13.0739 138.25C13.2519 138.712 13.5095 139.074 13.8466 139.335C14.1837 139.593 14.5966 139.722 15.0852 139.722C15.5928 139.722 16.017 139.587 16.358 139.318C16.6989 139.045 16.9564 138.676 17.1307 138.21C17.3087 137.744 17.3977 137.22 17.3977 136.636C17.3977 136.061 17.3106 135.544 17.1364 135.085C16.9659 134.627 16.7083 134.265 16.3636 134C16.0227 133.735 15.5966 133.602 15.0852 133.602C14.5928 133.602 14.1761 133.729 13.8352 133.983C13.4981 134.237 13.2424 134.591 13.0682 135.045C12.8939 135.5 12.8068 136.03 12.8068 136.636ZM23.5568 141.193C23.0038 141.193 22.5038 141.091 22.0568 140.886C21.6098 140.678 21.2557 140.377 20.9943 139.983C20.7367 139.589 20.608 139.106 20.608 138.534C20.608 138.042 20.7027 137.636 20.892 137.318C21.0814 137 21.3371 136.748 21.6591 136.562C21.9811 136.377 22.3409 136.237 22.7386 136.142C23.1364 136.047 23.5417 135.975 23.9545 135.926C24.4773 135.866 24.9015 135.816 25.2273 135.778C25.553 135.737 25.7898 135.67 25.9375 135.58C26.0852 135.489 26.1591 135.341 26.1591 135.136V135.097C26.1591 134.6 26.0189 134.216 25.7386 133.943C25.4621 133.67 25.0492 133.534 24.5 133.534C23.928 133.534 23.4773 133.661 23.1477 133.915C22.822 134.165 22.5966 134.443 22.4716 134.75L20.875 134.386C21.0644 133.856 21.3409 133.428 21.7045 133.102C22.072 132.773 22.4943 132.534 22.9716 132.386C23.4489 132.235 23.9508 132.159 24.4773 132.159C24.8258 132.159 25.1951 132.201 25.5852 132.284C25.9792 132.364 26.3466 132.511 26.6875 132.727C27.0322 132.943 27.3144 133.252 27.5341 133.653C27.7538 134.051 27.8636 134.568 27.8636 135.205V141H26.2045V139.807H26.1364C26.0265 140.027 25.8617 140.242 25.642 140.455C25.4223 140.667 25.1402 140.843 24.7955 140.983C24.4508 141.123 24.0379 141.193 23.5568 141.193ZM23.9261 139.83C24.3958 139.83 24.7973 139.737 25.1307 139.551C25.4678 139.366 25.7235 139.123 25.8977 138.824C26.0758 138.521 26.1648 138.197 26.1648 137.852V136.727C26.1042 136.788 25.9867 136.845 25.8125 136.898C25.642 136.947 25.447 136.991 25.2273 137.028C25.0076 137.062 24.7936 137.095 24.5852 137.125C24.3769 137.152 24.2027 137.174 24.0625 137.193C23.733 137.235 23.4318 137.305 23.1591 137.403C22.8902 137.502 22.6742 137.644 22.5114 137.83C22.3523 138.011 22.2727 138.254 22.2727 138.557C22.2727 138.977 22.428 139.295 22.7386 139.511C23.0492 139.723 23.4451 139.83 23.9261 139.83ZM30.1264 141V132.273H31.7685V133.659H31.8594C32.0185 133.189 32.2988 132.82 32.7003 132.551C33.1056 132.278 33.5639 132.142 34.0753 132.142C34.1813 132.142 34.3063 132.146 34.4503 132.153C34.598 132.161 34.7135 132.17 34.7969 132.182V133.807C34.7287 133.788 34.6075 133.767 34.4332 133.744C34.259 133.718 34.0848 133.705 33.9105 133.705C33.509 133.705 33.151 133.79 32.8366 133.96C32.526 134.127 32.2798 134.36 32.098 134.659C31.9162 134.955 31.8253 135.292 31.8253 135.67V141H30.1264ZM38.7287 141.193C38.1757 141.193 37.6757 141.091 37.2287 140.886C36.7817 140.678 36.4276 140.377 36.1662 139.983C35.9086 139.589 35.7798 139.106 35.7798 138.534C35.7798 138.042 35.8745 137.636 36.0639 137.318C36.2533 137 36.509 136.748 36.831 136.562C37.1529 136.377 37.5128 136.237 37.9105 136.142C38.3082 136.047 38.7135 135.975 39.1264 135.926C39.6491 135.866 40.0734 135.816 40.3991 135.778C40.7249 135.737 40.9616 135.67 41.1094 135.58C41.2571 135.489 41.331 135.341 41.331 135.136V135.097C41.331 134.6 41.1908 134.216 40.9105 133.943C40.634 133.67 40.2211 133.534 39.6719 133.534C39.0999 133.534 38.6491 133.661 38.3196 133.915C37.9938 134.165 37.7685 134.443 37.6435 134.75L36.0469 134.386C36.2363 133.856 36.5128 133.428 36.8764 133.102C37.2438 132.773 37.6662 132.534 38.1435 132.386C38.6207 132.235 39.1226 132.159 39.6491 132.159C39.9976 132.159 40.367 132.201 40.7571 132.284C41.151 132.364 41.5185 132.511 41.8594 132.727C42.2041 132.943 42.4863 133.252 42.706 133.653C42.9257 134.051 43.0355 134.568 43.0355 135.205V141H41.3764V139.807H41.3082C41.1984 140.027 41.0336 140.242 40.8139 140.455C40.5942 140.667 40.312 140.843 39.9673 140.983C39.6226 141.123 39.2098 141.193 38.7287 141.193ZM39.098 139.83C39.5677 139.83 39.9692 139.737 40.3026 139.551C40.6397 139.366 40.8954 139.123 41.0696 138.824C41.2476 138.521 41.3366 138.197 41.3366 137.852V136.727C41.276 136.788 41.1586 136.845 40.9844 136.898C40.8139 136.947 40.6188 136.991 40.3991 137.028C40.1795 137.062 39.9654 137.095 39.7571 137.125C39.5488 137.152 39.3745 137.174 39.2344 137.193C38.9048 137.235 38.6037 137.305 38.331 137.403C38.062 137.502 37.8461 137.644 37.6832 137.83C37.5241 138.011 37.4446 138.254 37.4446 138.557C37.4446 138.977 37.5999 139.295 37.9105 139.511C38.2211 139.723 38.617 139.83 39.098 139.83ZM45.2983 141V132.273H46.929V133.693H47.0369C47.2188 133.212 47.5161 132.837 47.929 132.568C48.3419 132.295 48.8362 132.159 49.4119 132.159C49.9953 132.159 50.4839 132.295 50.8778 132.568C51.2756 132.841 51.5691 133.216 51.7585 133.693H51.8494C52.0578 133.227 52.3892 132.856 52.8438 132.58C53.2983 132.299 53.84 132.159 54.4688 132.159C55.2604 132.159 55.9062 132.407 56.4062 132.903C56.91 133.4 57.1619 134.148 57.1619 135.148V141H55.4631V135.307C55.4631 134.716 55.3021 134.288 54.9801 134.023C54.6581 133.758 54.2737 133.625 53.8267 133.625C53.2737 133.625 52.8438 133.795 52.5369 134.136C52.2301 134.473 52.0767 134.907 52.0767 135.438V141H50.3835V135.199C50.3835 134.725 50.2358 134.345 49.9403 134.057C49.6449 133.769 49.2604 133.625 48.7869 133.625C48.465 133.625 48.1676 133.71 47.8949 133.881C47.6259 134.047 47.4081 134.28 47.2415 134.58C47.0786 134.879 46.9972 135.225 46.9972 135.619V141H45.2983ZM63.2003 141.176C62.3404 141.176 61.5999 140.992 60.9787 140.625C60.3613 140.254 59.884 139.733 59.5469 139.062C59.2135 138.388 59.0469 137.598 59.0469 136.693C59.0469 135.799 59.2135 135.011 59.5469 134.33C59.884 133.648 60.3537 133.116 60.956 132.733C61.562 132.35 62.2704 132.159 63.081 132.159C63.5734 132.159 64.0507 132.241 64.5128 132.403C64.9749 132.566 65.3897 132.822 65.7571 133.17C66.1245 133.519 66.4143 133.972 66.6264 134.528C66.8385 135.081 66.9446 135.754 66.9446 136.545V137.148H60.0071V135.875H65.2798C65.2798 135.428 65.1889 135.032 65.0071 134.688C64.8253 134.339 64.5696 134.064 64.2401 133.864C63.9143 133.663 63.5317 133.562 63.0923 133.562C62.6151 133.562 62.1984 133.68 61.8423 133.915C61.4901 134.146 61.2173 134.449 61.0241 134.824C60.8348 135.195 60.7401 135.598 60.7401 136.034V137.028C60.7401 137.612 60.8423 138.108 61.0469 138.517C61.2552 138.926 61.545 139.239 61.9162 139.455C62.2874 139.667 62.7211 139.773 63.2173 139.773C63.5393 139.773 63.8329 139.727 64.098 139.636C64.3632 139.542 64.5923 139.402 64.7855 139.216C64.9787 139.03 65.1264 138.801 65.2287 138.528L66.8366 138.818C66.7079 139.292 66.4768 139.706 66.1435 140.062C65.8139 140.415 65.3991 140.689 64.8991 140.886C64.4029 141.08 63.8366 141.176 63.2003 141.176ZM72.9034 132.273V133.636H68.1364V132.273H72.9034ZM69.4148 130.182H71.1136V138.438C71.1136 138.767 71.1629 139.015 71.2614 139.182C71.3598 139.345 71.4867 139.456 71.642 139.517C71.8011 139.574 71.9735 139.602 72.1591 139.602C72.2955 139.602 72.4148 139.593 72.517 139.574C72.6193 139.555 72.6989 139.54 72.7557 139.528L73.0625 140.932C72.964 140.97 72.8239 141.008 72.642 141.045C72.4602 141.087 72.233 141.11 71.9602 141.114C71.5133 141.121 71.0966 141.042 70.7102 140.875C70.3239 140.708 70.0114 140.451 69.7727 140.102C69.5341 139.754 69.4148 139.316 69.4148 138.79V130.182ZM78.4503 141.176C77.5904 141.176 76.8499 140.992 76.2287 140.625C75.6113 140.254 75.134 139.733 74.7969 139.062C74.4635 138.388 74.2969 137.598 74.2969 136.693C74.2969 135.799 74.4635 135.011 74.7969 134.33C75.134 133.648 75.6037 133.116 76.206 132.733C76.812 132.35 77.5204 132.159 78.331 132.159C78.8234 132.159 79.3007 132.241 79.7628 132.403C80.2249 132.566 80.6397 132.822 81.0071 133.17C81.3745 133.519 81.6643 133.972 81.8764 134.528C82.0885 135.081 82.1946 135.754 82.1946 136.545V137.148H75.2571V135.875H80.5298C80.5298 135.428 80.4389 135.032 80.2571 134.688C80.0753 134.339 79.8196 134.064 79.4901 133.864C79.1643 133.663 78.7817 133.562 78.3423 133.562C77.8651 133.562 77.4484 133.68 77.0923 133.915C76.7401 134.146 76.4673 134.449 76.2741 134.824C76.0848 135.195 75.9901 135.598 75.9901 136.034V137.028C75.9901 137.612 76.0923 138.108 76.2969 138.517C76.5052 138.926 76.795 139.239 77.1662 139.455C77.5374 139.667 77.9711 139.773 78.4673 139.773C78.7893 139.773 79.0829 139.727 79.348 139.636C79.6132 139.542 79.8423 139.402 80.0355 139.216C80.2287 139.03 80.3764 138.801 80.4787 138.528L82.0866 138.818C81.9579 139.292 81.7268 139.706 81.3935 140.062C81.0639 140.415 80.6491 140.689 80.1491 140.886C79.6529 141.08 79.0866 141.176 78.4503 141.176ZM84.0795 141V132.273H85.7216V133.659H85.8125C85.9716 133.189 86.2519 132.82 86.6534 132.551C87.0587 132.278 87.517 132.142 88.0284 132.142C88.1345 132.142 88.2595 132.146 88.4034 132.153C88.5511 132.161 88.6667 132.17 88.75 132.182V133.807C88.6818 133.788 88.5606 133.767 88.3864 133.744C88.2121 133.718 88.0379 133.705 87.8636 133.705C87.4621 133.705 87.1042 133.79 86.7898 133.96C86.4792 134.127 86.233 134.36 86.0511 134.659C85.8693 134.955 85.7784 135.292 85.7784 135.67V141H84.0795ZM96.7599 134.403L95.2202 134.676C95.1558 134.479 95.0535 134.292 94.9134 134.114C94.777 133.936 94.5914 133.79 94.3565 133.676C94.1217 133.562 93.8281 133.506 93.4759 133.506C92.9948 133.506 92.5933 133.614 92.2713 133.83C91.9493 134.042 91.7884 134.316 91.7884 134.653C91.7884 134.945 91.8963 135.18 92.1122 135.358C92.3281 135.536 92.6766 135.682 93.1577 135.795L94.544 136.114C95.3471 136.299 95.9455 136.585 96.3395 136.972C96.7334 137.358 96.9304 137.86 96.9304 138.477C96.9304 139 96.7789 139.466 96.4759 139.875C96.1766 140.28 95.758 140.598 95.2202 140.83C94.6861 141.061 94.0668 141.176 93.3622 141.176C92.3849 141.176 91.5876 140.968 90.9702 140.551C90.3527 140.131 89.974 139.534 89.8338 138.761L91.4759 138.511C91.5781 138.939 91.7884 139.263 92.1065 139.483C92.4247 139.699 92.8395 139.807 93.3509 139.807C93.9077 139.807 94.3527 139.691 94.6861 139.46C95.0194 139.225 95.1861 138.939 95.1861 138.602C95.1861 138.33 95.0838 138.1 94.8793 137.915C94.6785 137.729 94.3698 137.589 93.9531 137.494L92.4759 137.17C91.6615 136.985 91.0592 136.689 90.669 136.284C90.2827 135.879 90.0895 135.366 90.0895 134.744C90.0895 134.229 90.2334 133.778 90.5213 133.392C90.8092 133.006 91.2069 132.705 91.7145 132.489C92.2221 132.269 92.8035 132.159 93.4588 132.159C94.402 132.159 95.1444 132.364 95.6861 132.773C96.2277 133.178 96.5857 133.722 96.7599 134.403Z" fill="black"/>
<path d="M212 69L209.113 64L214.887 64L212 69ZM168 45.5L204 45.5L204 46.5L168 46.5L168 45.5ZM212.5 54L212.5 64.5L211.5 64.5L211.5 54L212.5 54ZM204 45.5C208.694 45.5 212.5 49.3056 212.5 54L211.5 54C211.5 49.8579 208.142 46.5 204 46.5L204 45.5Z" fill="black"/>
<path d="M61.4091 50.1705C60.7045 50.1705 60.0758 49.9905 59.5227 49.6307C58.9735 49.267 58.5417 48.75 58.2273 48.0795C57.9167 47.4053 57.7614 46.5966 57.7614 45.6534C57.7614 44.7102 57.9186 43.9034 58.233 43.233C58.5511 42.5625 58.9867 42.0492 59.5398 41.6932C60.0928 41.3371 60.7197 41.1591 61.4205 41.1591C61.9621 41.1591 62.3977 41.25 62.7273 41.4318C63.0606 41.6098 63.3182 41.8182 63.5 42.0568C63.6856 42.2955 63.8295 42.5057 63.9318 42.6875H64.0341V38.3636H65.733V50H64.0739V48.642H63.9318C63.8295 48.8277 63.6818 49.0398 63.4886 49.2784C63.2992 49.517 63.0379 49.7254 62.7045 49.9034C62.3712 50.0814 61.9394 50.1705 61.4091 50.1705ZM61.7841 48.7216C62.2727 48.7216 62.6856 48.5928 63.0227 48.3352C63.3636 48.0739 63.6212 47.7121 63.7955 47.25C63.9735 46.7879 64.0625 46.25 64.0625 45.6364C64.0625 45.0303 63.9754 44.5 63.8011 44.0455C63.6269 43.5909 63.3712 43.2367 63.0341 42.983C62.697 42.7292 62.2803 42.6023 61.7841 42.6023C61.2727 42.6023 60.8466 42.7348 60.5057 43C60.1648 43.2652 59.9072 43.6269 59.733 44.0852C59.5625 44.5436 59.4773 45.0606 59.4773 45.6364C59.4773 46.2197 59.5644 46.7443 59.7386 47.2102C59.9129 47.6761 60.1705 48.0455 60.5114 48.3182C60.8561 48.5871 61.2803 48.7216 61.7841 48.7216ZM71.919 50.1761C71.0592 50.1761 70.3187 49.9924 69.6974 49.625C69.08 49.2538 68.6027 48.733 68.2656 48.0625C67.9323 47.3883 67.7656 46.5985 67.7656 45.6932C67.7656 44.7992 67.9323 44.0114 68.2656 43.3295C68.6027 42.6477 69.0724 42.1155 69.6747 41.733C70.2808 41.3504 70.9891 41.1591 71.7997 41.1591C72.2921 41.1591 72.7694 41.2405 73.2315 41.4034C73.6937 41.5663 74.1084 41.822 74.4759 42.1705C74.8433 42.5189 75.133 42.9716 75.3452 43.5284C75.5573 44.0814 75.6634 44.7538 75.6634 45.5455V46.1477H68.7259V44.875H73.9986C73.9986 44.428 73.9077 44.0322 73.7259 43.6875C73.544 43.339 73.2884 43.0644 72.9588 42.8636C72.633 42.6629 72.2505 42.5625 71.8111 42.5625C71.3338 42.5625 70.9171 42.6799 70.5611 42.9148C70.2088 43.1458 69.9361 43.4489 69.7429 43.8239C69.5535 44.1951 69.4588 44.5985 69.4588 45.0341V46.0284C69.4588 46.6117 69.5611 47.108 69.7656 47.517C69.974 47.9261 70.2637 48.2386 70.6349 48.4545C71.0062 48.6667 71.4399 48.7727 71.9361 48.7727C72.258 48.7727 72.5516 48.7273 72.8168 48.6364C73.0819 48.5417 73.3111 48.4015 73.5043 48.2159C73.6974 48.0303 73.8452 47.8011 73.9474 47.5284L75.5554 47.8182C75.4266 48.2917 75.1955 48.7064 74.8622 49.0625C74.5327 49.4148 74.1179 49.6894 73.6179 49.8864C73.1217 50.0795 72.5554 50.1761 71.919 50.1761ZM77.5483 53.2727V41.2727H79.2074V42.6875H79.3494C79.4479 42.5057 79.59 42.2955 79.7756 42.0568C79.9612 41.8182 80.2188 41.6098 80.5483 41.4318C80.8778 41.25 81.3134 41.1591 81.8551 41.1591C82.5597 41.1591 83.1884 41.3371 83.7415 41.6932C84.2945 42.0492 84.7282 42.5625 85.0426 43.233C85.3608 43.9034 85.5199 44.7102 85.5199 45.6534C85.5199 46.5966 85.3627 47.4053 85.0483 48.0795C84.7339 48.75 84.3021 49.267 83.7528 49.6307C83.2036 49.9905 82.5767 50.1705 81.8722 50.1705C81.3419 50.1705 80.9081 50.0814 80.571 49.9034C80.2377 49.7254 79.9763 49.517 79.7869 49.2784C79.5975 49.0398 79.4517 48.8277 79.3494 48.642H79.2472V53.2727H77.5483ZM79.2131 45.6364C79.2131 46.25 79.3021 46.7879 79.4801 47.25C79.6581 47.7121 79.9157 48.0739 80.2528 48.3352C80.59 48.5928 81.0028 48.7216 81.4915 48.7216C81.9991 48.7216 82.4233 48.5871 82.7642 48.3182C83.1051 48.0455 83.3627 47.6761 83.5369 47.2102C83.715 46.7443 83.804 46.2197 83.804 45.6364C83.804 45.0606 83.7169 44.5436 83.5426 44.0852C83.3722 43.6269 83.1146 43.2652 82.7699 43C82.429 42.7348 82.0028 42.6023 81.4915 42.6023C80.9991 42.6023 80.5824 42.7292 80.2415 42.983C79.9044 43.2367 79.6487 43.5909 79.4744 44.0455C79.3002 44.5 79.2131 45.0303 79.2131 45.6364ZM91.1847 50.1761C90.3248 50.1761 89.5843 49.9924 88.9631 49.625C88.3456 49.2538 87.8684 48.733 87.5312 48.0625C87.1979 47.3883 87.0312 46.5985 87.0312 45.6932C87.0312 44.7992 87.1979 44.0114 87.5312 43.3295C87.8684 42.6477 88.3381 42.1155 88.9403 41.733C89.5464 41.3504 90.2547 41.1591 91.0653 41.1591C91.5578 41.1591 92.035 41.2405 92.4972 41.4034C92.9593 41.5663 93.3741 41.822 93.7415 42.1705C94.1089 42.5189 94.3987 42.9716 94.6108 43.5284C94.8229 44.0814 94.929 44.7538 94.929 45.5455V46.1477H87.9915V44.875H93.2642C93.2642 44.428 93.1733 44.0322 92.9915 43.6875C92.8097 43.339 92.554 43.0644 92.2244 42.8636C91.8987 42.6629 91.5161 42.5625 91.0767 42.5625C90.5994 42.5625 90.1828 42.6799 89.8267 42.9148C89.4744 43.1458 89.2017 43.4489 89.0085 43.8239C88.8191 44.1951 88.7244 44.5985 88.7244 45.0341V46.0284C88.7244 46.6117 88.8267 47.108 89.0312 47.517C89.2396 47.9261 89.5294 48.2386 89.9006 48.4545C90.2718 48.6667 90.7055 48.7727 91.2017 48.7727C91.5237 48.7727 91.8172 48.7273 92.0824 48.6364C92.3475 48.5417 92.5767 48.4015 92.7699 48.2159C92.9631 48.0303 93.1108 47.8011 93.2131 47.5284L94.821 47.8182C94.6922 48.2917 94.4612 48.7064 94.1278 49.0625C93.7983 49.4148 93.3835 49.6894 92.8835 49.8864C92.3873 50.0795 91.821 50.1761 91.1847 50.1761ZM98.5128 44.8182V50H96.8139V41.2727H98.4446V42.6932H98.5526C98.7533 42.2311 99.0677 41.8598 99.4957 41.5795C99.9276 41.2992 100.471 41.1591 101.126 41.1591C101.721 41.1591 102.242 41.2841 102.689 41.5341C103.136 41.7803 103.482 42.1477 103.729 42.6364C103.975 43.125 104.098 43.7292 104.098 44.4489V50H102.399V44.6534C102.399 44.0208 102.234 43.5265 101.905 43.1705C101.575 42.8106 101.123 42.6307 100.547 42.6307C100.153 42.6307 99.8026 42.7159 99.4957 42.8864C99.1927 43.0568 98.9522 43.3068 98.7741 43.6364C98.5999 43.9621 98.5128 44.3561 98.5128 44.8182ZM109.643 50.1705C108.939 50.1705 108.31 49.9905 107.757 49.6307C107.208 49.267 106.776 48.75 106.462 48.0795C106.151 47.4053 105.996 46.5966 105.996 45.6534C105.996 44.7102 106.153 43.9034 106.467 43.233C106.786 42.5625 107.221 42.0492 107.774 41.6932C108.327 41.3371 108.954 41.1591 109.655 41.1591C110.196 41.1591 110.632 41.25 110.962 41.4318C111.295 41.6098 111.553 41.8182 111.734 42.0568C111.92 42.2955 112.064 42.5057 112.166 42.6875H112.268V38.3636H113.967V50H112.308V48.642H112.166C112.064 48.8277 111.916 49.0398 111.723 49.2784C111.534 49.517 111.272 49.7254 110.939 49.9034C110.606 50.0814 110.174 50.1705 109.643 50.1705ZM110.018 48.7216C110.507 48.7216 110.92 48.5928 111.257 48.3352C111.598 48.0739 111.856 47.7121 112.03 47.25C112.208 46.7879 112.297 46.25 112.297 45.6364C112.297 45.0303 112.21 44.5 112.036 44.0455C111.861 43.5909 111.606 43.2367 111.268 42.983C110.931 42.7292 110.515 42.6023 110.018 42.6023C109.507 42.6023 109.081 42.7348 108.74 43C108.399 43.2652 108.142 43.6269 107.967 44.0852C107.797 44.5436 107.712 45.0606 107.712 45.6364C107.712 46.2197 107.799 46.7443 107.973 47.2102C108.147 47.6761 108.405 48.0455 108.746 48.3182C109.09 48.5871 109.515 48.7216 110.018 48.7216ZM120.153 50.1761C119.294 50.1761 118.553 49.9924 117.932 49.625C117.314 49.2538 116.837 48.733 116.5 48.0625C116.167 47.3883 116 46.5985 116 45.6932C116 44.7992 116.167 44.0114 116.5 43.3295C116.837 42.6477 117.307 42.1155 117.909 41.733C118.515 41.3504 119.223 41.1591 120.034 41.1591C120.527 41.1591 121.004 41.2405 121.466 41.4034C121.928 41.5663 122.343 41.822 122.71 42.1705C123.078 42.5189 123.367 42.9716 123.58 43.5284C123.792 44.0814 123.898 44.7538 123.898 45.5455V46.1477H116.96V44.875H122.233C122.233 44.428 122.142 44.0322 121.96 43.6875C121.778 43.339 121.523 43.0644 121.193 42.8636C120.867 42.6629 120.485 42.5625 120.045 42.5625C119.568 42.5625 119.152 42.6799 118.795 42.9148C118.443 43.1458 118.17 43.4489 117.977 43.8239C117.788 44.1951 117.693 44.5985 117.693 45.0341V46.0284C117.693 46.6117 117.795 47.108 118 47.517C118.208 47.9261 118.498 48.2386 118.869 48.4545C119.241 48.6667 119.674 48.7727 120.17 48.7727C120.492 48.7727 120.786 48.7273 121.051 48.6364C121.316 48.5417 121.545 48.4015 121.739 48.2159C121.932 48.0303 122.08 47.8011 122.182 47.5284L123.79 47.8182C123.661 48.2917 123.43 48.7064 123.097 49.0625C122.767 49.4148 122.352 49.6894 121.852 49.8864C121.356 50.0795 120.79 50.1761 120.153 50.1761ZM127.482 44.8182V50H125.783V41.2727H127.413V42.6932H127.521C127.722 42.2311 128.036 41.8598 128.464 41.5795C128.896 41.2992 129.44 41.1591 130.095 41.1591C130.69 41.1591 131.211 41.2841 131.658 41.5341C132.105 41.7803 132.451 42.1477 132.697 42.6364C132.944 43.125 133.067 43.7292 133.067 44.4489V50H131.368V44.6534C131.368 44.0208 131.203 43.5265 130.874 43.1705C130.544 42.8106 130.091 42.6307 129.516 42.6307C129.122 42.6307 128.771 42.7159 128.464 42.8864C128.161 43.0568 127.921 43.3068 127.743 43.6364C127.569 43.9621 127.482 44.3561 127.482 44.8182ZM139.021 50.1761C138.177 50.1761 137.449 49.9848 136.839 49.6023C136.233 49.2159 135.768 48.6837 135.442 48.0057C135.116 47.3277 134.953 46.5511 134.953 45.6761C134.953 44.7898 135.12 44.0076 135.453 43.3295C135.786 42.6477 136.256 42.1155 136.862 41.733C137.468 41.3504 138.182 41.1591 139.004 41.1591C139.667 41.1591 140.258 41.2822 140.777 41.5284C141.296 41.7708 141.714 42.1117 142.033 42.5511C142.355 42.9905 142.546 43.5038 142.607 44.0909H140.953C140.862 43.6818 140.654 43.3295 140.328 43.0341C140.006 42.7386 139.574 42.5909 139.033 42.5909C138.559 42.5909 138.144 42.7159 137.788 42.9659C137.436 43.2121 137.161 43.5644 136.964 44.0227C136.768 44.4773 136.669 45.0152 136.669 45.6364C136.669 46.2727 136.766 46.822 136.959 47.2841C137.152 47.7462 137.425 48.1042 137.777 48.358C138.133 48.6117 138.552 48.7386 139.033 48.7386C139.355 48.7386 139.646 48.6799 139.908 48.5625C140.173 48.4413 140.394 48.2689 140.572 48.0455C140.754 47.822 140.881 47.553 140.953 47.2386H142.607C142.546 47.803 142.362 48.3068 142.055 48.75C141.749 49.1932 141.338 49.5417 140.822 49.7955C140.311 50.0492 139.711 50.1761 139.021 50.1761ZM144.423 50V41.2727H146.122V50H144.423ZM145.281 39.9261C144.986 39.9261 144.732 39.8277 144.52 39.6307C144.312 39.4299 144.207 39.1913 144.207 38.9148C144.207 38.6345 144.312 38.3958 144.52 38.1989C144.732 37.9981 144.986 37.8977 145.281 37.8977C145.577 37.8977 145.829 37.9981 146.037 38.1989C146.249 38.3958 146.355 38.6345 146.355 38.9148C146.355 39.1913 146.249 39.4299 146.037 39.6307C145.829 39.8277 145.577 39.9261 145.281 39.9261ZM152.169 50.1761C151.309 50.1761 150.569 49.9924 149.947 49.625C149.33 49.2538 148.853 48.733 148.516 48.0625C148.182 47.3883 148.016 46.5985 148.016 45.6932C148.016 44.7992 148.182 44.0114 148.516 43.3295C148.853 42.6477 149.322 42.1155 149.925 41.733C150.531 41.3504 151.239 41.1591 152.05 41.1591C152.542 41.1591 153.019 41.2405 153.482 41.4034C153.944 41.5663 154.358 41.822 154.726 42.1705C155.093 42.5189 155.383 42.9716 155.595 43.5284C155.807 44.0814 155.913 44.7538 155.913 45.5455V46.1477H148.976V44.875H154.249C154.249 44.428 154.158 44.0322 153.976 43.6875C153.794 43.339 153.538 43.0644 153.209 42.8636C152.883 42.6629 152.5 42.5625 152.061 42.5625C151.584 42.5625 151.167 42.6799 150.811 42.9148C150.459 43.1458 150.186 43.4489 149.993 43.8239C149.804 44.1951 149.709 44.5985 149.709 45.0341V46.0284C149.709 46.6117 149.811 47.108 150.016 47.517C150.224 47.9261 150.514 48.2386 150.885 48.4545C151.256 48.6667 151.69 48.7727 152.186 48.7727C152.508 48.7727 152.802 48.7273 153.067 48.6364C153.332 48.5417 153.561 48.4015 153.754 48.2159C153.947 48.0303 154.095 47.8011 154.197 47.5284L155.805 47.8182C155.677 48.2917 155.446 48.7064 155.112 49.0625C154.783 49.4148 154.368 49.6894 153.868 49.8864C153.372 50.0795 152.805 50.1761 152.169 50.1761ZM164.338 43.4034L162.798 43.6761C162.734 43.4792 162.632 43.2917 162.491 43.1136C162.355 42.9356 162.17 42.7898 161.935 42.6761C161.7 42.5625 161.406 42.5057 161.054 42.5057C160.573 42.5057 160.171 42.6136 159.849 42.8295C159.527 43.0417 159.366 43.3163 159.366 43.6534C159.366 43.9451 159.474 44.1799 159.69 44.358C159.906 44.536 160.255 44.6818 160.736 44.7955L162.122 45.1136C162.925 45.2992 163.524 45.5852 163.918 45.9716C164.312 46.358 164.509 46.8598 164.509 47.4773C164.509 48 164.357 48.4659 164.054 48.875C163.755 49.2803 163.336 49.5985 162.798 49.8295C162.264 50.0606 161.645 50.1761 160.94 50.1761C159.963 50.1761 159.166 49.9678 158.548 49.5511C157.931 49.1307 157.552 48.5341 157.412 47.7614L159.054 47.5114C159.156 47.9394 159.366 48.2633 159.685 48.483C160.003 48.6989 160.418 48.8068 160.929 48.8068C161.486 48.8068 161.931 48.6913 162.264 48.4602C162.598 48.2254 162.764 47.9394 162.764 47.6023C162.764 47.3295 162.662 47.1004 162.457 46.9148C162.257 46.7292 161.948 46.589 161.531 46.4943L160.054 46.1705C159.24 45.9848 158.637 45.6894 158.247 45.2841C157.861 44.8788 157.668 44.3655 157.668 43.7443C157.668 43.2292 157.812 42.7784 158.099 42.392C158.387 42.0057 158.785 41.7045 159.293 41.4886C159.8 41.2689 160.382 41.1591 161.037 41.1591C161.98 41.1591 162.723 41.3636 163.264 41.7727C163.806 42.178 164.164 42.7216 164.338 43.4034Z" fill="black"/>
<path d="M309 47L304 44.1132V49.8868L309 47ZM294.5 139L294.5 55L293.5 55L293.5 139L294.5 139ZM302 47.5H304.5V46.5H302V47.5ZM294.5 55C294.5 50.8579 297.858 47.5 302 47.5V46.5C297.306 46.5 293.5 50.3056 293.5 55L294.5 55Z" fill="black"/>
<path d="M311.142 54.2727V42.2727H312.801V43.6875H312.943C313.042 43.5057 313.184 43.2955 313.369 43.0568C313.555 42.8182 313.813 42.6098 314.142 42.4318C314.472 42.25 314.907 42.1591 315.449 42.1591C316.153 42.1591 316.782 42.3371 317.335 42.6932C317.888 43.0492 318.322 43.5625 318.636 44.233C318.955 44.9034 319.114 45.7102 319.114 46.6534C319.114 47.5966 318.956 48.4053 318.642 49.0795C318.328 49.75 317.896 50.267 317.347 50.6307C316.797 50.9905 316.17 51.1705 315.466 51.1705C314.936 51.1705 314.502 51.0814 314.165 50.9034C313.831 50.7254 313.57 50.517 313.381 50.2784C313.191 50.0398 313.045 49.8277 312.943 49.642H312.841V54.2727H311.142ZM312.807 46.6364C312.807 47.25 312.896 47.7879 313.074 48.25C313.252 48.7121 313.509 49.0739 313.847 49.3352C314.184 49.5928 314.597 49.7216 315.085 49.7216C315.593 49.7216 316.017 49.5871 316.358 49.3182C316.699 49.0455 316.956 48.6761 317.131 48.2102C317.309 47.7443 317.398 47.2197 317.398 46.6364C317.398 46.0606 317.311 45.5436 317.136 45.0852C316.966 44.6269 316.708 44.2652 316.364 44C316.023 43.7348 315.597 43.6023 315.085 43.6023C314.593 43.6023 314.176 43.7292 313.835 43.983C313.498 44.2367 313.242 44.5909 313.068 45.0455C312.894 45.5 312.807 46.0303 312.807 46.6364ZM321.017 51V42.2727H322.659V43.6591H322.75C322.909 43.1894 323.189 42.8201 323.591 42.5511C323.996 42.2784 324.455 42.142 324.966 42.142C325.072 42.142 325.197 42.1458 325.341 42.1534C325.489 42.161 325.604 42.1705 325.688 42.1818V43.8068C325.619 43.7879 325.498 43.767 325.324 43.7443C325.15 43.7178 324.975 43.7045 324.801 43.7045C324.4 43.7045 324.042 43.7898 323.727 43.9602C323.417 44.1269 323.17 44.3598 322.989 44.6591C322.807 44.9545 322.716 45.2917 322.716 45.6705V51H321.017ZM330.521 51.1761C329.703 51.1761 328.989 50.9886 328.379 50.6136C327.769 50.2386 327.296 49.714 326.959 49.0398C326.622 48.3655 326.453 47.5777 326.453 46.6761C326.453 45.7708 326.622 44.9792 326.959 44.3011C327.296 43.6231 327.769 43.0966 328.379 42.7216C328.989 42.3466 329.703 42.1591 330.521 42.1591C331.339 42.1591 332.054 42.3466 332.663 42.7216C333.273 43.0966 333.747 43.6231 334.084 44.3011C334.421 44.9792 334.589 45.7708 334.589 46.6761C334.589 47.5777 334.421 48.3655 334.084 49.0398C333.747 49.714 333.273 50.2386 332.663 50.6136C332.054 50.9886 331.339 51.1761 330.521 51.1761ZM330.527 49.75C331.057 49.75 331.497 49.6098 331.845 49.3295C332.194 49.0492 332.451 48.6761 332.618 48.2102C332.788 47.7443 332.874 47.2311 332.874 46.6705C332.874 46.1136 332.788 45.6023 332.618 45.1364C332.451 44.6667 332.194 44.2898 331.845 44.0057C331.497 43.7216 331.057 43.5795 330.527 43.5795C329.993 43.5795 329.55 43.7216 329.197 44.0057C328.849 44.2898 328.589 44.6667 328.419 45.1364C328.252 45.6023 328.169 46.1136 328.169 46.6705C328.169 47.2311 328.252 47.7443 328.419 48.2102C328.589 48.6761 328.849 49.0492 329.197 49.3295C329.55 49.6098 329.993 49.75 330.527 49.75ZM343.655 42.2727L340.49 51H338.672L335.501 42.2727H337.325L339.536 48.9886H339.626L341.831 42.2727H343.655ZM348.716 51.1761C347.856 51.1761 347.116 50.9924 346.494 50.625C345.877 50.2538 345.4 49.733 345.062 49.0625C344.729 48.3883 344.562 47.5985 344.562 46.6932C344.562 45.7992 344.729 45.0114 345.062 44.3295C345.4 43.6477 345.869 43.1155 346.472 42.733C347.078 42.3504 347.786 42.1591 348.597 42.1591C349.089 42.1591 349.566 42.2405 350.028 42.4034C350.491 42.5663 350.905 42.822 351.273 43.1705C351.64 43.5189 351.93 43.9716 352.142 44.5284C352.354 45.0814 352.46 45.7538 352.46 46.5455V47.1477H345.523V45.875H350.795C350.795 45.428 350.705 45.0322 350.523 44.6875C350.341 44.339 350.085 44.0644 349.756 43.8636C349.43 43.6629 349.047 43.5625 348.608 43.5625C348.131 43.5625 347.714 43.6799 347.358 43.9148C347.006 44.1458 346.733 44.4489 346.54 44.8239C346.35 45.1951 346.256 45.5985 346.256 46.0341V47.0284C346.256 47.6117 346.358 48.108 346.562 48.517C346.771 48.9261 347.061 49.2386 347.432 49.4545C347.803 49.6667 348.237 49.7727 348.733 49.7727C349.055 49.7727 349.348 49.7273 349.614 49.6364C349.879 49.5417 350.108 49.4015 350.301 49.2159C350.494 49.0303 350.642 48.8011 350.744 48.5284L352.352 48.8182C352.223 49.2917 351.992 49.7064 351.659 50.0625C351.33 50.4148 350.915 50.6894 350.415 50.8864C349.919 51.0795 349.352 51.1761 348.716 51.1761ZM356.044 45.8182V51H354.345V42.2727H355.976V43.6932H356.084C356.285 43.2311 356.599 42.8598 357.027 42.5795C357.459 42.2992 358.002 42.1591 358.658 42.1591C359.252 42.1591 359.773 42.2841 360.22 42.5341C360.667 42.7803 361.014 43.1477 361.26 43.6364C361.506 44.125 361.629 44.7292 361.629 45.4489V51H359.93V45.6534C359.93 45.0208 359.766 44.5265 359.436 44.1705C359.107 43.8106 358.654 43.6307 358.078 43.6307C357.684 43.6307 357.334 43.7159 357.027 43.8864C356.724 44.0568 356.483 44.3068 356.305 44.6364C356.131 44.9621 356.044 45.3561 356.044 45.8182ZM366.447 51.1932C365.894 51.1932 365.394 51.0909 364.947 50.8864C364.5 50.678 364.146 50.3769 363.885 49.983C363.627 49.589 363.499 49.1061 363.499 48.5341C363.499 48.0417 363.593 47.6364 363.783 47.3182C363.972 47 364.228 46.7481 364.55 46.5625C364.872 46.3769 365.232 46.2367 365.629 46.142C366.027 46.0473 366.432 45.9754 366.845 45.9261C367.368 45.8655 367.792 45.8163 368.118 45.7784C368.444 45.7367 368.68 45.6705 368.828 45.5795C368.976 45.4886 369.05 45.3409 369.05 45.1364V45.0966C369.05 44.6004 368.91 44.2159 368.629 43.9432C368.353 43.6705 367.94 43.5341 367.391 43.5341C366.819 43.5341 366.368 43.661 366.038 43.9148C365.713 44.1648 365.487 44.4432 365.362 44.75L363.766 44.3864C363.955 43.8561 364.232 43.428 364.595 43.1023C364.963 42.7727 365.385 42.5341 365.862 42.3864C366.339 42.2348 366.841 42.1591 367.368 42.1591C367.716 42.1591 368.086 42.2008 368.476 42.2841C368.87 42.3636 369.237 42.5114 369.578 42.7273C369.923 42.9432 370.205 43.2519 370.425 43.6534C370.644 44.0511 370.754 44.5682 370.754 45.2045V51H369.095V49.8068H369.027C368.917 50.0265 368.752 50.2424 368.533 50.4545C368.313 50.6667 368.031 50.8428 367.686 50.983C367.341 51.1231 366.929 51.1932 366.447 51.1932ZM366.817 49.8295C367.286 49.8295 367.688 49.7367 368.021 49.5511C368.358 49.3655 368.614 49.1231 368.788 48.8239C368.966 48.5208 369.055 48.197 369.055 47.8523V46.7273C368.995 46.7879 368.877 46.8447 368.703 46.8977C368.533 46.947 368.338 46.9905 368.118 47.0284C367.898 47.0625 367.684 47.0947 367.476 47.125C367.268 47.1515 367.093 47.1742 366.953 47.1932C366.624 47.2348 366.322 47.3049 366.05 47.4034C365.781 47.5019 365.565 47.6439 365.402 47.8295C365.243 48.0114 365.163 48.2538 365.163 48.5568C365.163 48.9773 365.319 49.2955 365.629 49.5114C365.94 49.7235 366.336 49.8295 366.817 49.8295ZM374.716 45.8182V51H373.017V42.2727H374.648V43.6932H374.756C374.956 43.2311 375.271 42.8598 375.699 42.5795C376.131 42.2992 376.674 42.1591 377.33 42.1591C377.924 42.1591 378.445 42.2841 378.892 42.5341C379.339 42.7803 379.686 43.1477 379.932 43.6364C380.178 44.125 380.301 44.7292 380.301 45.4489V51H378.602V45.6534C378.602 45.0208 378.438 44.5265 378.108 44.1705C377.778 43.8106 377.326 43.6307 376.75 43.6307C376.356 43.6307 376.006 43.7159 375.699 43.8864C375.396 44.0568 375.155 44.3068 374.977 44.6364C374.803 44.9621 374.716 45.3561 374.716 45.8182ZM386.256 51.1761C385.411 51.1761 384.684 50.9848 384.074 50.6023C383.468 50.2159 383.002 49.6837 382.676 49.0057C382.35 48.3277 382.188 47.5511 382.188 46.6761C382.188 45.7898 382.354 45.0076 382.688 44.3295C383.021 43.6477 383.491 43.1155 384.097 42.733C384.703 42.3504 385.417 42.1591 386.239 42.1591C386.902 42.1591 387.492 42.2822 388.011 42.5284C388.53 42.7708 388.949 43.1117 389.267 43.5511C389.589 43.9905 389.78 44.5038 389.841 45.0909H388.188C388.097 44.6818 387.888 44.3295 387.562 44.0341C387.241 43.7386 386.809 43.5909 386.267 43.5909C385.794 43.5909 385.379 43.7159 385.023 43.9659C384.67 44.2121 384.396 44.5644 384.199 45.0227C384.002 45.4773 383.903 46.0152 383.903 46.6364C383.903 47.2727 384 47.822 384.193 48.2841C384.386 48.7462 384.659 49.1042 385.011 49.358C385.367 49.6117 385.786 49.7386 386.267 49.7386C386.589 49.7386 386.881 49.6799 387.142 49.5625C387.407 49.4413 387.629 49.2689 387.807 49.0455C387.989 48.822 388.116 48.553 388.188 48.2386H389.841C389.78 48.803 389.597 49.3068 389.29 49.75C388.983 50.1932 388.572 50.5417 388.057 50.7955C387.545 51.0492 386.945 51.1761 386.256 51.1761ZM395.419 51.1761C394.559 51.1761 393.819 50.9924 393.197 50.625C392.58 50.2538 392.103 49.733 391.766 49.0625C391.432 48.3883 391.266 47.5985 391.266 46.6932C391.266 45.7992 391.432 45.0114 391.766 44.3295C392.103 43.6477 392.572 43.1155 393.175 42.733C393.781 42.3504 394.489 42.1591 395.3 42.1591C395.792 42.1591 396.269 42.2405 396.732 42.4034C397.194 42.5663 397.608 42.822 397.976 43.1705C398.343 43.5189 398.633 43.9716 398.845 44.5284C399.057 45.0814 399.163 45.7538 399.163 46.5455V47.1477H392.226V45.875H397.499C397.499 45.428 397.408 45.0322 397.226 44.6875C397.044 44.339 396.788 44.0644 396.459 43.8636C396.133 43.6629 395.75 43.5625 395.311 43.5625C394.834 43.5625 394.417 43.6799 394.061 43.9148C393.709 44.1458 393.436 44.4489 393.243 44.8239C393.054 45.1951 392.959 45.5985 392.959 46.0341V47.0284C392.959 47.6117 393.061 48.108 393.266 48.517C393.474 48.9261 393.764 49.2386 394.135 49.4545C394.506 49.6667 394.94 49.7727 395.436 49.7727C395.758 49.7727 396.052 49.7273 396.317 49.6364C396.582 49.5417 396.811 49.4015 397.004 49.2159C397.197 49.0303 397.345 48.8011 397.447 48.5284L399.055 48.8182C398.927 49.2917 398.696 49.7064 398.362 50.0625C398.033 50.4148 397.618 50.6894 397.118 50.8864C396.622 51.0795 396.055 51.1761 395.419 51.1761Z" fill="black"/>
<path d="M297 27L292 24.1132L292 29.8868L297 27ZM271 102.5L274 102.5L274 101.5L271 101.5L271 102.5ZM282.5 94L282.5 35L281.5 35L281.5 94L282.5 94ZM290 27.5L292.5 27.5L292.5 26.5L290 26.5L290 27.5ZM282.5 35C282.5 30.8579 285.858 27.5 290 27.5L290 26.5C285.306 26.5 281.5 30.3056 281.5 35L282.5 35ZM274 102.5C278.694 102.5 282.5 98.6944 282.5 94L281.5 94C281.5 98.1421 278.142 101.5 274 101.5L274 102.5Z" fill="black"/>
<path d="M302.928 31.1761C302.109 31.1761 301.395 30.9886 300.786 30.6136C300.176 30.2386 299.702 29.714 299.365 29.0398C299.028 28.3655 298.859 27.5777 298.859 26.6761C298.859 25.7708 299.028 24.9792 299.365 24.3011C299.702 23.6231 300.176 23.0966 300.786 22.7216C301.395 22.3466 302.109 22.1591 302.928 22.1591C303.746 22.1591 304.46 22.3466 305.07 22.7216C305.679 23.0966 306.153 23.6231 306.49 24.3011C306.827 24.9792 306.996 25.7708 306.996 26.6761C306.996 27.5777 306.827 28.3655 306.49 29.0398C306.153 29.714 305.679 30.2386 305.07 30.6136C304.46 30.9886 303.746 31.1761 302.928 31.1761ZM302.933 29.75C303.464 29.75 303.903 29.6098 304.251 29.3295C304.6 29.0492 304.857 28.6761 305.024 28.2102C305.195 27.7443 305.28 27.2311 305.28 26.6705C305.28 26.1136 305.195 25.6023 305.024 25.1364C304.857 24.6667 304.6 24.2898 304.251 24.0057C303.903 23.7216 303.464 23.5795 302.933 23.5795C302.399 23.5795 301.956 23.7216 301.604 24.0057C301.255 24.2898 300.996 24.6667 300.825 25.1364C300.659 25.6023 300.575 26.1136 300.575 26.6705C300.575 27.2311 300.659 27.7443 300.825 28.2102C300.996 28.6761 301.255 29.0492 301.604 29.3295C301.956 29.6098 302.399 29.75 302.933 29.75ZM314.42 27.3807V22.2727H316.125V31H314.455V29.4886H314.364C314.163 29.9545 313.841 30.3428 313.398 30.6534C312.958 30.9602 312.411 31.1136 311.756 31.1136C311.195 31.1136 310.699 30.9905 310.267 30.7443C309.839 30.4943 309.502 30.125 309.256 29.6364C309.013 29.1477 308.892 28.5436 308.892 27.8239V22.2727H310.591V27.6193C310.591 28.214 310.756 28.6875 311.085 29.0398C311.415 29.392 311.843 29.5682 312.369 29.5682C312.688 29.5682 313.004 29.4886 313.318 29.3295C313.636 29.1705 313.9 28.9299 314.108 28.608C314.32 28.286 314.424 27.8769 314.42 27.3807ZM322.482 22.2727V23.6364H317.714V22.2727H322.482ZM318.993 20.1818H320.692V28.4375C320.692 28.767 320.741 29.0152 320.839 29.1818C320.938 29.3447 321.065 29.4564 321.22 29.517C321.379 29.5739 321.552 29.6023 321.737 29.6023C321.874 29.6023 321.993 29.5928 322.095 29.5739C322.197 29.5549 322.277 29.5398 322.334 29.5284L322.641 30.9318C322.542 30.9697 322.402 31.0076 322.22 31.0455C322.038 31.0871 321.811 31.1098 321.538 31.1136C321.091 31.1212 320.675 31.0417 320.288 30.875C319.902 30.7083 319.589 30.4508 319.351 30.1023C319.112 29.7538 318.993 29.3163 318.993 28.7898V20.1818ZM324.361 34.2727V22.2727H326.02V23.6875H326.162C326.26 23.5057 326.402 23.2955 326.588 23.0568C326.774 22.8182 327.031 22.6098 327.361 22.4318C327.69 22.25 328.126 22.1591 328.668 22.1591C329.372 22.1591 330.001 22.3371 330.554 22.6932C331.107 23.0492 331.541 23.5625 331.855 24.233C332.173 24.9034 332.332 25.7102 332.332 26.6534C332.332 27.5966 332.175 28.4053 331.861 29.0795C331.546 29.75 331.115 30.267 330.565 30.6307C330.016 30.9905 329.389 31.1705 328.685 31.1705C328.154 31.1705 327.721 31.0814 327.384 30.9034C327.05 30.7254 326.789 30.517 326.599 30.2784C326.41 30.0398 326.264 29.8277 326.162 29.642H326.06V34.2727H324.361ZM326.026 26.6364C326.026 27.25 326.115 27.7879 326.293 28.25C326.471 28.7121 326.728 29.0739 327.065 29.3352C327.402 29.5928 327.815 29.7216 328.304 29.7216C328.812 29.7216 329.236 29.5871 329.577 29.3182C329.918 29.0455 330.175 28.6761 330.349 28.2102C330.527 27.7443 330.616 27.2197 330.616 26.6364C330.616 26.0606 330.529 25.5436 330.355 25.0852C330.185 24.6269 329.927 24.2652 329.582 24C329.241 23.7348 328.815 23.6023 328.304 23.6023C327.812 23.6023 327.395 23.7292 327.054 23.983C326.717 24.2367 326.461 24.5909 326.287 25.0455C326.113 25.5 326.026 26.0303 326.026 26.6364ZM339.764 27.3807V22.2727H341.469V31H339.798V29.4886H339.707C339.507 29.9545 339.185 30.3428 338.741 30.6534C338.302 30.9602 337.755 31.1136 337.099 31.1136C336.539 31.1136 336.043 30.9905 335.611 30.7443C335.183 30.4943 334.846 30.125 334.599 29.6364C334.357 29.1477 334.236 28.5436 334.236 27.8239V22.2727H335.935V27.6193C335.935 28.214 336.099 28.6875 336.429 29.0398C336.759 29.392 337.187 29.5682 337.713 29.5682C338.031 29.5682 338.348 29.4886 338.662 29.3295C338.98 29.1705 339.243 28.9299 339.452 28.608C339.664 28.286 339.768 27.8769 339.764 27.3807ZM347.825 22.2727V23.6364H343.058V22.2727H347.825ZM344.337 20.1818H346.036V28.4375C346.036 28.767 346.085 29.0152 346.183 29.1818C346.282 29.3447 346.409 29.4564 346.564 29.517C346.723 29.5739 346.895 29.6023 347.081 29.6023C347.217 29.6023 347.337 29.5928 347.439 29.5739C347.541 29.5549 347.621 29.5398 347.678 29.5284L347.984 30.9318C347.886 30.9697 347.746 31.0076 347.564 31.0455C347.382 31.0871 347.155 31.1098 346.882 31.1136C346.435 31.1212 346.018 31.0417 345.632 30.875C345.246 30.7083 344.933 30.4508 344.695 30.1023C344.456 29.7538 344.337 29.3163 344.337 28.7898V20.1818ZM356.104 24.4034L354.564 24.6761C354.5 24.4792 354.397 24.2917 354.257 24.1136C354.121 23.9356 353.935 23.7898 353.7 23.6761C353.465 23.5625 353.172 23.5057 352.82 23.5057C352.339 23.5057 351.937 23.6136 351.615 23.8295C351.293 24.0417 351.132 24.3163 351.132 24.6534C351.132 24.9451 351.24 25.1799 351.456 25.358C351.672 25.536 352.02 25.6818 352.501 25.7955L353.888 26.1136C354.691 26.2992 355.289 26.5852 355.683 26.9716C356.077 27.358 356.274 27.8598 356.274 28.4773C356.274 29 356.123 29.4659 355.82 29.875C355.52 30.2803 355.102 30.5985 354.564 30.8295C354.03 31.0606 353.411 31.1761 352.706 31.1761C351.729 31.1761 350.931 30.9678 350.314 30.5511C349.696 30.1307 349.318 29.5341 349.178 28.7614L350.82 28.5114C350.922 28.9394 351.132 29.2633 351.45 29.483C351.768 29.6989 352.183 29.8068 352.695 29.8068C353.251 29.8068 353.696 29.6913 354.03 29.4602C354.363 29.2254 354.53 28.9394 354.53 28.6023C354.53 28.3295 354.428 28.1004 354.223 27.9148C354.022 27.7292 353.714 27.589 353.297 27.4943L351.82 27.1705C351.005 26.9848 350.403 26.6894 350.013 26.2841C349.626 25.8788 349.433 25.3655 349.433 24.7443C349.433 24.2292 349.577 23.7784 349.865 23.392C350.153 23.0057 350.551 22.7045 351.058 22.4886C351.566 22.2689 352.147 22.1591 352.803 22.1591C353.746 22.1591 354.488 22.3636 355.03 22.7727C355.571 23.178 355.929 23.7216 356.104 24.4034Z" fill="black"/>
</svg>
