<svg version="1.1" viewBox="0.0 0.0 806.3490813648294 436.3569553805774" fill="none" stroke="none" stroke-linecap="square" stroke-miterlimit="10" xmlns:xlink="http://www.w3.org/1999/xlink" xmlns="http://www.w3.org/2000/svg"><clipPath id="p.0"><path d="m0 0l806.34906 0l0 436.35696l-806.34906 0l0 -436.35696z" clip-rule="nonzero"/></clipPath><g clip-path="url(#p.0)"><path fill="#ffffff" d="m0 0l806.34906 0l0 436.35696l-806.34906 0z" fill-rule="evenodd"/><path fill="#f1f6f3" d="m211.30708 165.62836l0 0c0 -29.093384 23.584839 -52.678223 52.678207 -52.678223l324.02942 0c13.97113 0 27.370056 5.5500107 37.249084 15.429092c9.879089 9.879074 15.429138 23.277985 15.429138 37.24913l0 210.70654c0 29.093384 -23.584839 52.678223 -52.678223 52.678223l-324.02942 0c-29.093369 0 -52.678207 -23.584839 -52.678207 -52.678223z" fill-rule="evenodd"/><path stroke="#58da95" stroke-width="1.0" stroke-linejoin="round" stroke-linecap="butt" d="m211.30708 165.62836l0 0c0 -29.093384 23.584839 -52.678223 52.678207 -52.678223l324.02942 0c13.97113 0 27.370056 5.5500107 37.249084 15.429092c9.879089 9.879074 15.429138 23.277985 15.429138 37.24913l0 210.70654c0 29.093384 -23.584839 52.678223 -52.678223 52.678223l-324.02942 0c-29.093369 0 -52.678207 -23.584839 -52.678207 -52.678223z" fill-rule="evenodd"/><path fill="#ffffff" d="m343.979 163.78505l0 0c0 -7.3755493 5.979065 -13.354599 13.354584 -13.354599l138.10971 0c3.54187 0 6.9386597 1.4069977 9.443146 3.9114685c2.5044556 2.5044708 3.9114685 5.9012604 3.9114685 9.4431305l0 53.41678c0 7.3755493 -5.979065 13.354599 -13.354614 13.354599l-138.10971 0l0 0c-7.375519 0 -13.354584 -5.9790497 -13.354584 -13.354599z" fill-rule="evenodd"/><path stroke="#102b2d" stroke-width="2.0" stroke-linejoin="round" stroke-linecap="butt" d="m343.979 163.78505l0 0c0 -7.3755493 5.979065 -13.354599 13.354584 -13.354599l138.10971 0c3.54187 0 6.9386597 1.4069977 9.443146 3.9114685c2.5044556 2.5044708 3.9114685 5.9012604 3.9114685 9.4431305l0 53.41678c0 7.3755493 -5.979065 13.354599 -13.354614 13.354599l-138.10971 0l0 0c-7.375519 0 -13.354584 -5.9790497 -13.354584 -13.354599z" fill-rule="evenodd"/><path fill="#102b2d" d="m406.325 186.41344l0 -13.5625l4.75 0q1.40625 0 2.328125 0.484375q0.921875 0.484375 1.375 1.3125q0.453125 0.8125 0.453125 1.796875q0 0.875 -0.3125 1.453125q-0.296875 0.5625 -0.796875 0.90625q-0.5 0.328125 -1.09375 0.484375l0 0.125q0.625 0.046875 1.25 0.453125q0.640625 0.390625 1.0625 1.140625q0.421875 0.734375 0.421875 1.796875q0 1.03125 -0.46875 1.84375q-0.453125 0.8125 -1.453125 1.296875q-1.0 0.46875 -2.609375 0.46875l-4.90625 0zm1.640625 -1.453125l3.265625 0q1.609375 0 2.28125 -0.625q0.6875 -0.625 0.6875 -1.53125q0 -0.6875 -0.359375 -1.265625q-0.34375 -0.59375 -1.0 -0.9375q-0.640625 -0.359375 -1.53125 -0.359375l-3.34375 0l0 4.71875zm0 -6.15625l3.046875 0q0.75 0 1.34375 -0.28125q0.609375 -0.296875 0.953125 -0.828125q0.359375 -0.53125 0.359375 -1.25q0 -0.890625 -0.625 -1.515625q-0.625 -0.625 -1.96875 -0.625l-3.109375 0l0 4.5zm16.69983 3.453125l0 -6.015625l1.5625 0l0 10.171875l-1.5625 0l0 -1.71875l-0.109375 0q-0.359375 0.765625 -1.109375 1.3125q-0.75 0.53125 -1.90625 0.53125q-0.953125 0 -1.703125 -0.40625q-0.734375 -0.421875 -1.15625 -1.265625q-0.421875 -0.859375 -0.421875 -2.15625l0 -6.46875l1.5625 0l0 6.359375q0 1.109375 0.625 1.78125q0.625 0.65625 1.59375 0.65625q0.578125 0 1.1875 -0.296875q0.609375 -0.296875 1.015625 -0.90625q0.421875 -0.625 0.421875 -1.578125zm4.4325256 4.15625l0 -10.171875l1.5625 0l0 10.171875l-1.5625 0zm0.78125 -11.875q-0.453125 0 -0.78125 -0.3125q-0.328125 -0.3125 -0.328125 -0.75q0 -0.4375 0.328125 -0.75q0.328125 -0.3125 0.78125 -0.3125q0.46875 0 0.796875 0.3125q0.328125 0.3125 0.328125 0.75q0 0.4375 -0.328125 0.75q-0.328125 0.3125 -0.796875 0.3125zm5.2068787 -1.6875l0 13.5625l-1.5625 0l0 -13.5625l1.5625 0zm6.706848 13.78125q-1.28125 0 -2.265625 -0.640625q-0.96875 -0.65625 -1.515625 -1.828125q-0.546875 -1.1875 -0.546875 -2.8125q0 -1.609375 0.546875 -2.78125q0.546875 -1.1875 1.53125 -1.828125q0.984375 -0.640625 2.265625 -0.640625q1.0 0 1.578125 0.328125q0.578125 0.328125 0.875 0.75q0.3125 0.40625 0.484375 0.671875l0.140625 0l0 -5.0l1.5625 0l0 13.5625l-1.515625 0l0 -1.5625l-0.1875 0q-0.171875 0.28125 -0.484375 0.703125q-0.3125 0.421875 -0.90625 0.75q-0.59375 0.328125 -1.5625 0.328125zm0.203125 -1.40625q0.9375 0 1.578125 -0.484375q0.65625 -0.5 1.0 -1.375q0.34375 -0.890625 0.34375 -2.046875q0 -1.140625 -0.34375 -1.984375q-0.328125 -0.859375 -0.984375 -1.34375q-0.640625 -0.484375 -1.59375 -0.484375q-1.0 0 -1.65625 0.515625q-0.65625 0.5 -0.984375 1.375q-0.328125 0.859375 -0.328125 1.921875q0 1.09375 0.328125 1.984375q0.34375 0.875 1.0 1.40625q0.65625 0.515625 1.640625 0.515625z" fill-rule="nonzero"/><path fill="#102b2d" d="m373.0403 208.41344l0 -13.5625l8.1875 0l0 1.453125l-6.546875 0l0 4.578125l6.125 0l0 1.46875l-6.125 0l0 4.609375l6.65625 0l0 1.453125l-8.296875 0zm12.516174 -6.125l0 6.125l-1.5625 0l0 -10.171875l1.5 0l0 1.578125l0.140625 0q0.359375 -0.765625 1.078125 -1.234375q0.734375 -0.484375 1.890625 -0.484375q1.03125 0 1.796875 0.421875q0.78125 0.421875 1.203125 1.28125q0.4375 0.84375 0.4375 2.140625l0 6.46875l-1.5625 0l0 -6.359375q0 -1.203125 -0.625 -1.875q-0.625 -0.671875 -1.703125 -0.671875q-0.75 0 -1.34375 0.328125q-0.578125 0.328125 -0.921875 0.953125q-0.328125 0.609375 -0.328125 1.5zm17.297058 -4.046875l-3.765625 10.171875l-1.578125 0l-3.765625 -10.171875l1.6875 0l2.8125 8.109375l0.109375 0l2.8125 -8.109375l1.6875 0zm2.0757751 10.171875l0 -10.171875l1.5625 0l0 10.171875l-1.5625 0zm0.78125 -11.875q-0.453125 0 -0.78125 -0.3125q-0.328125 -0.3125 -0.328125 -0.75q0 -0.4375 0.328125 -0.75q0.328125 -0.3125 0.78125 -0.3125q0.46875 0 0.796875 0.3125q0.328125 0.3125 0.328125 0.75q0 0.4375 -0.328125 0.75q-0.328125 0.3125 -0.796875 0.3125zm3.6443787 11.875l0 -10.171875l1.5 0l0 1.53125l0.109375 0q0.28125 -0.75 1.0 -1.21875q0.734375 -0.46875 1.65625 -0.46875q0.171875 0 0.421875 0q0.265625 0 0.390625 0.015625l0 1.59375q-0.078125 -0.015625 -0.359375 -0.0625q-0.28125 -0.046875 -0.59375 -0.046875q-0.734375 0 -1.328125 0.3125q-0.578125 0.3125 -0.90625 0.859375q-0.328125 0.53125 -0.328125 1.21875l0 6.4375l-1.5625 0zm10.75 0.21875q-1.375 0 -2.421875 -0.65625q-1.03125 -0.65625 -1.609375 -1.828125q-0.578125 -1.1875 -0.578125 -2.765625q0 -1.59375 0.578125 -2.78125q0.578125 -1.1875 1.609375 -1.84375q1.046875 -0.65625 2.421875 -0.65625q1.375 0 2.40625 0.65625q1.046875 0.65625 1.625 1.84375q0.578125 1.1875 0.578125 2.78125q0 1.578125 -0.578125 2.765625q-0.578125 1.171875 -1.625 1.828125q-1.03125 0.65625 -2.40625 0.65625zm0 -1.40625q1.046875 0 1.71875 -0.53125q0.6875 -0.546875 1.0 -1.421875q0.328125 -0.875 0.328125 -1.890625q0 -1.03125 -0.328125 -1.90625q-0.3125 -0.875 -1.0 -1.421875q-0.671875 -0.546875 -1.71875 -0.546875q-1.046875 0 -1.71875 0.546875q-0.671875 0.546875 -1.0 1.421875q-0.328125 0.875 -0.328125 1.90625q0 1.015625 0.328125 1.890625q0.328125 0.875 1.0 1.421875q0.671875 0.53125 1.71875 0.53125zm8.56781 -4.9375l0 6.125l-1.5625 0l0 -10.171875l1.5 0l0 1.578125l0.140625 0q0.359375 -0.765625 1.078125 -1.234375q0.734375 -0.484375 1.890625 -0.484375q1.03125 0 1.796875 0.421875q0.78125 0.421875 1.203125 1.28125q0.4375 0.84375 0.4375 2.140625l0 6.46875l-1.5625 0l0 -6.359375q0 -1.203125 -0.625 -1.875q-0.625 -0.671875 -1.703125 -0.671875q-0.75 0 -1.34375 0.328125q-0.578125 0.328125 -0.921875 0.953125q-0.328125 0.609375 -0.328125 1.5zm9.355774 6.125l0 -10.171875l1.5 0l0 1.578125l0.140625 0q0.3125 -0.8125 1.015625 -1.265625q0.71875 -0.453125 1.703125 -0.453125q1.015625 0 1.6875 0.453125q0.671875 0.453125 1.046875 1.265625l0.109375 0q0.390625 -0.78125 1.171875 -1.25q0.78125 -0.46875 1.875 -0.46875q1.359375 0 2.21875 0.859375q0.875 0.84375 0.875 2.640625l0 6.8125l-1.5625 0l0 -6.8125q0 -1.125 -0.625 -1.609375q-0.609375 -0.484375 -1.4375 -0.484375q-1.078125 0 -1.671875 0.65625q-0.578125 0.640625 -0.578125 1.625l0 6.625l-1.59375 0l0 -6.96875q0 -0.875 -0.5625 -1.40625q-0.5625 -0.53125 -1.453125 -0.53125q-0.609375 0 -1.140625 0.328125q-0.515625 0.328125 -0.84375 0.90625q-0.3125 0.5625 -0.3125 1.3125l0 6.359375l-1.5625 0zm20.48407 0.21875q-1.46875 0 -2.546875 -0.65625q-1.0625 -0.65625 -1.640625 -1.828125q-0.5625 -1.171875 -0.5625 -2.75q0 -1.5625 0.5625 -2.75q0.578125 -1.203125 1.609375 -1.875q1.03125 -0.671875 2.40625 -0.671875q0.796875 0 1.578125 0.265625q0.78125 0.265625 1.40625 0.859375q0.640625 0.59375 1.015625 1.578125q0.375 0.96875 0.375 2.390625l0 0.65625l-7.84375 0l0 -1.34375l6.265625 0q0 -0.859375 -0.34375 -1.53125q-0.34375 -0.6875 -0.96875 -1.078125q-0.625 -0.390625 -1.484375 -0.390625q-0.921875 0 -1.609375 0.46875q-0.671875 0.453125 -1.046875 1.1875q-0.359375 0.734375 -0.359375 1.578125l0 0.90625q0 1.140625 0.390625 1.953125q0.40625 0.796875 1.125 1.21875q0.71875 0.40625 1.671875 0.40625q0.609375 0 1.109375 -0.171875q0.5 -0.1875 0.859375 -0.53125q0.375 -0.359375 0.5625 -0.890625l1.515625 0.421875q-0.234375 0.765625 -0.796875 1.34375q-0.5625 0.578125 -1.390625 0.90625q-0.828125 0.328125 -1.859375 0.328125zm8.16217 -6.34375l0 6.125l-1.5625 0l0 -10.171875l1.5 0l0 1.578125l0.140625 0q0.359375 -0.765625 1.078125 -1.234375q0.734375 -0.484375 1.890625 -0.484375q1.03125 0 1.796875 0.421875q0.78125 0.421875 1.203125 1.28125q0.4375 0.84375 0.4375 2.140625l0 6.46875l-1.5625 0l0 -6.359375q0 -1.203125 -0.625 -1.875q-0.625 -0.671875 -1.703125 -0.671875q-0.75 0 -1.34375 0.328125q-0.578125 0.328125 -0.921875 0.953125q-0.328125 0.609375 -0.328125 1.5zm13.777649 -4.046875l0 1.328125l-5.28125 0l0 -1.328125l5.28125 0zm-3.734375 -2.4375l1.5625 0l0 9.6875q0 0.671875 0.1875 1.0q0.203125 0.328125 0.5 0.4375q0.3125 0.109375 0.65625 0.109375q0.265625 0 0.421875 -0.03125q0.171875 -0.03125 0.265625 -0.046875l0.328125 1.40625q-0.15625 0.046875 -0.453125 0.109375q-0.28125 0.0625 -0.71875 0.0625q-0.65625 0 -1.296875 -0.28125q-0.625 -0.28125 -1.046875 -0.859375q-0.40625 -0.59375 -0.40625 -1.46875l0 -10.125z" fill-rule="nonzero"/><path fill="#ffffff" d="m307.56955 333.197l0 0c0 -4.2676086 3.4595947 -7.727173 7.7272034 -7.727173l222.18341 0c2.0493774 0 4.0148315 0.81411743 5.463928 2.2632446c1.4491577 1.4491272 2.2632446 3.4145508 2.2632446 5.463928l0 30.907837c0 4.2676086 -3.4595947 7.7272034 -7.727173 7.7272034l-222.18341 0l0 0c-4.2676086 0 -7.7272034 -3.4595947 -7.7272034 -7.7272034z" fill-rule="evenodd"/><path stroke="#58da95" stroke-width="2.0" stroke-linejoin="round" stroke-linecap="butt" d="m307.56955 333.197l0 0c0 -4.2676086 3.4595947 -7.727173 7.7272034 -7.727173l222.18341 0c2.0493774 0 4.0148315 0.81411743 5.463928 2.2632446c1.4491577 1.4491272 2.2632446 3.4145508 2.2632446 5.463928l0 30.907837c0 4.2676086 -3.4595947 7.7272034 -7.727173 7.7272034l-222.18341 0l0 0c-4.2676086 0 -7.7272034 -3.4595947 -7.7272034 -7.7272034z" fill-rule="evenodd"/><path fill="#102b2d" d="m379.74844 346.2428l-1.640625 0q-0.15625 -0.703125 -0.515625 -1.234375q-0.359375 -0.546875 -0.875 -0.90625q-0.5 -0.375 -1.125 -0.5625q-0.625 -0.1875 -1.296875 -0.1875q-1.234375 0 -2.234375 0.625q-1.0 0.625 -1.59375 1.84375q-0.578125 1.203125 -0.578125 2.96875q0 1.765625 0.578125 2.984375q0.59375 1.203125 1.59375 1.828125q1.0 0.625 2.234375 0.625q0.671875 0 1.296875 -0.1875q0.625 -0.1875 1.125 -0.546875q0.515625 -0.375 0.875 -0.90625q0.359375 -0.546875 0.515625 -1.25l1.640625 0q-0.1875 1.03125 -0.6875 1.859375q-0.484375 0.8125 -1.21875 1.390625q-0.71875 0.578125 -1.625 0.875q-0.90625 0.296875 -1.921875 0.296875q-1.75 0 -3.109375 -0.84375q-1.34375 -0.859375 -2.125 -2.421875q-0.765625 -1.5625 -0.765625 -3.703125q0 -2.15625 0.765625 -3.71875q0.78125 -1.5625 2.125 -2.40625q1.359375 -0.84375 3.109375 -0.84375q1.015625 0 1.921875 0.296875q0.90625 0.296875 1.625 0.875q0.734375 0.5625 1.21875 1.390625q0.5 0.8125 0.6875 1.859375zm6.5683594 9.546875q-1.375 0 -2.421875 -0.65625q-1.03125 -0.65625 -1.609375 -1.828125q-0.578125 -1.1875 -0.578125 -2.765625q0 -1.59375 0.578125 -2.78125q0.578125 -1.1875 1.609375 -1.84375q1.046875 -0.65625 2.421875 -0.65625q1.375 0 2.40625 0.65625q1.046875 0.65625 1.625 1.84375q0.578125 1.1875 0.578125 2.78125q0 1.578125 -0.578125 2.765625q-0.578125 1.171875 -1.625 1.828125q-1.03125 0.65625 -2.40625 0.65625zm0 -1.40625q1.046875 0 1.71875 -0.53125q0.6875 -0.546875 1.0 -1.421875q0.328125 -0.875 0.328125 -1.890625q0 -1.03125 -0.328125 -1.90625q-0.3125 -0.875 -1.0 -1.421875q-0.671875 -0.546875 -1.71875 -0.546875q-1.046875 0 -1.71875 0.546875q-0.671875 0.546875 -1.0 1.421875q-0.328125 0.875 -0.328125 1.90625q0 1.015625 0.328125 1.890625q0.328125 0.875 1.0 1.421875q0.671875 0.53125 1.71875 0.53125zm8.56781 -4.9375l0 6.125l-1.5625 0l0 -10.171875l1.5 0l0 1.578125l0.140625 0q0.359375 -0.765625 1.078125 -1.234375q0.734375 -0.484375 1.890625 -0.484375q1.03125 0 1.796875 0.421875q0.78125 0.421875 1.203125 1.28125q0.4375 0.84375 0.4375 2.140625l0 6.46875l-1.5625 0l0 -6.359375q0 -1.203125 -0.625 -1.875q-0.625 -0.671875 -1.703125 -0.671875q-0.75 0 -1.34375 0.328125q-0.578125 0.328125 -0.921875 0.953125q-0.328125 0.609375 -0.328125 1.5zm13.777649 -4.046875l0 1.328125l-5.28125 0l0 -1.328125l5.28125 0zm-3.734375 -2.4375l1.5625 0l0 9.6875q0 0.671875 0.1875 1.0q0.203125 0.328125 0.5 0.4375q0.3125 0.109375 0.65625 0.109375q0.265625 0 0.421875 -0.03125q0.171875 -0.03125 0.265625 -0.046875l0.328125 1.40625q-0.15625 0.046875 -0.453125 0.109375q-0.28125 0.0625 -0.71875 0.0625q-0.65625 0 -1.296875 -0.28125q-0.625 -0.28125 -1.046875 -0.859375q-0.40625 -0.59375 -0.40625 -1.46875l0 -10.125zm6.0966797 12.609375l0 -10.171875l1.5 0l0 1.53125l0.109375 0q0.28125 -0.75 1.0 -1.21875q0.734375 -0.46875 1.65625 -0.46875q0.171875 0 0.421875 0q0.265625 0 0.390625 0.015625l0 1.59375q-0.078125 -0.015625 -0.359375 -0.0625q-0.28125 -0.046875 -0.59375 -0.046875q-0.734375 0 -1.328125 0.3125q-0.578125 0.3125 -0.90625 0.859375q-0.328125 0.53125 -0.328125 1.21875l0 6.4375l-1.5625 0zm10.7500305 0.21875q-1.375 0 -2.421875 -0.65625q-1.03125 -0.65625 -1.609375 -1.828125q-0.578125 -1.1875 -0.578125 -2.765625q0 -1.59375 0.578125 -2.78125q0.578125 -1.1875 1.609375 -1.84375q1.046875 -0.65625 2.421875 -0.65625q1.375 0 2.40625 0.65625q1.046875 0.65625 1.625 1.84375q0.578125 1.1875 0.578125 2.78125q0 1.578125 -0.578125 2.765625q-0.578125 1.171875 -1.625 1.828125q-1.03125 0.65625 -2.40625 0.65625zm0 -1.40625q1.046875 0 1.71875 -0.53125q0.6875 -0.546875 1.0 -1.421875q0.328125 -0.875 0.328125 -1.890625q0 -1.03125 -0.328125 -1.90625q-0.3125 -0.875 -1.0 -1.421875q-0.671875 -0.546875 -1.71875 -0.546875q-1.046875 0 -1.71875 0.546875q-0.671875 0.546875 -1.0 1.421875q-0.328125 0.875 -0.328125 1.90625q0 1.015625 0.328125 1.890625q0.328125 0.875 1.0 1.421875q0.671875 0.53125 1.71875 0.53125zm8.56778 -12.375l0 13.5625l-1.5625 0l0 -13.5625l1.5625 0zm8.313385 13.5625l0 -13.5625l4.59375 0q1.59375 0 2.609375 0.578125q1.015625 0.5625 1.5 1.546875q0.5 0.96875 0.5 2.15625q0 1.203125 -0.5 2.1875q-0.484375 0.984375 -1.5 1.5625q-1.0 0.578125 -2.59375 0.578125l-3.28125 0l0 -1.453125l3.234375 0q1.09375 0 1.75 -0.375q0.671875 -0.390625 0.96875 -1.03125q0.296875 -0.640625 0.296875 -1.46875q0 -0.8125 -0.296875 -1.453125q-0.296875 -0.640625 -0.96875 -1.0q-0.671875 -0.375 -1.78125 -0.375l-2.890625 0l0 12.109375l-1.640625 0zm13.2052 -13.5625l0 13.5625l-1.5625 0l0 -13.5625l1.5625 0zm5.847473 13.796875q-0.96875 0 -1.765625 -0.359375q-0.78125 -0.375 -1.25 -1.0625q-0.453125 -0.703125 -0.453125 -1.703125q0 -0.875 0.34375 -1.421875q0.34375 -0.546875 0.921875 -0.859375q0.578125 -0.3125 1.265625 -0.46875q0.703125 -0.15625 1.421875 -0.25q0.921875 -0.109375 1.5 -0.171875q0.578125 -0.0625 0.84375 -0.21875q0.28125 -0.15625 0.28125 -0.53125l0 -0.046875q0 -0.984375 -0.546875 -1.53125q-0.53125 -0.546875 -1.609375 -0.546875q-1.109375 0 -1.75 0.5q-0.640625 0.484375 -0.890625 1.046875l-1.484375 -0.53125q0.390625 -0.921875 1.046875 -1.4375q0.671875 -0.53125 1.46875 -0.734375q0.796875 -0.21875 1.5625 -0.21875q0.484375 0 1.125 0.125q0.640625 0.109375 1.234375 0.46875q0.609375 0.359375 1.0 1.078125q0.40625 0.71875 0.40625 1.9375l0 6.703125l-1.5625 0l0 -1.375l-0.078125 0q-0.171875 0.328125 -0.546875 0.703125q-0.359375 0.375 -0.984375 0.640625q-0.609375 0.265625 -1.5 0.265625zm0.25 -1.40625q0.921875 0 1.5625 -0.359375q0.640625 -0.359375 0.96875 -0.9375q0.328125 -0.578125 0.328125 -1.21875l0 -1.421875q-0.109375 0.109375 -0.453125 0.21875q-0.328125 0.09375 -0.765625 0.15625q-0.421875 0.0625 -0.828125 0.125q-0.40625 0.046875 -0.65625 0.078125q-0.609375 0.078125 -1.140625 0.265625q-0.53125 0.171875 -0.859375 0.515625q-0.3125 0.34375 -0.3125 0.9375q0 0.8125 0.609375 1.234375q0.609375 0.40625 1.546875 0.40625zm8.848907 -4.953125l0 6.125l-1.5625 0l0 -10.171875l1.5 0l0 1.578125l0.140625 0q0.359375 -0.765625 1.078125 -1.234375q0.734375 -0.484375 1.890625 -0.484375q1.03125 0 1.796875 0.421875q0.78125 0.421875 1.203125 1.28125q0.4375 0.84375 0.4375 2.140625l0 6.46875l-1.5625 0l0 -6.359375q0 -1.203125 -0.625 -1.875q-0.625 -0.671875 -1.703125 -0.671875q-0.75 0 -1.34375 0.328125q-0.578125 0.328125 -0.921875 0.953125q-0.328125 0.609375 -0.328125 1.5zm13.621429 6.34375q-1.46875 0 -2.546875 -0.65625q-1.0625 -0.65625 -1.640625 -1.828125q-0.5625 -1.171875 -0.5625 -2.75q0 -1.5625 0.5625 -2.75q0.578125 -1.203125 1.609375 -1.875q1.03125 -0.671875 2.40625 -0.671875q0.796875 0 1.578125 0.265625q0.78125 0.265625 1.40625 0.859375q0.640625 0.59375 1.015625 1.578125q0.375 0.96875 0.375 2.390625l0 0.65625l-7.84375 0l0 -1.34375l6.265625 0q0 -0.859375 -0.34375 -1.53125q-0.34375 -0.6875 -0.96875 -1.078125q-0.625 -0.390625 -1.484375 -0.390625q-0.921875 0 -1.609375 0.46875q-0.671875 0.453125 -1.046875 1.1875q-0.359375 0.734375 -0.359375 1.578125l0 0.90625q0 1.140625 0.390625 1.953125q0.40625 0.796875 1.125 1.21875q0.71875 0.40625 1.671875 0.40625q0.609375 0 1.109375 -0.171875q0.5 -0.1875 0.859375 -0.53125q0.375 -0.359375 0.5625 -0.890625l1.515625 0.421875q-0.234375 0.765625 -0.796875 1.34375q-0.5625 0.578125 -1.390625 0.90625q-0.828125 0.328125 -1.859375 0.328125z" fill-rule="nonzero"/><path fill="#000000" fill-opacity="0.0" d="m508.7979 190.49344l175.71655 0" fill-rule="evenodd"/><path stroke="#102b2d" stroke-width="1.0" stroke-linejoin="round" stroke-linecap="butt" d="m508.7979 190.49344l169.71655 0" fill-rule="evenodd"/><path fill="#102b2d" stroke="#102b2d" stroke-width="1.0" stroke-linecap="butt" d="m678.51447 192.14517l4.538086 -1.6517334l-4.538086 -1.6517334z" fill-rule="evenodd"/><path fill="#ffffff" d="m12.383203 227.06299l132.80864 0l23.065369 23.065384l0 44.714157l0 0l-132.80864 0l-23.065372 -23.065369l0 -44.714172z" fill-rule="evenodd"/><path stroke="#ff9900" stroke-width="1.0" stroke-linejoin="round" stroke-linecap="butt" d="m12.383203 227.06299l132.80864 0l23.065369 23.065384l0 44.714157l0 0l-132.80864 0l-23.065372 -23.065369l0 -44.714172z" fill-rule="evenodd"/><path fill="#102b2d" d="m56.171658 256.87274l0 -13.562485l8.187496 0l0 1.453125l-6.546871 0l0 4.578125l6.125 0l0 1.46875l-6.125 0l0 4.609375l6.656246 0l0 1.4531097l-8.296871 0zm12.1099205 -10.17186l2.4375 4.15625l2.4375 -4.15625l1.8125 0l-3.296875 5.078125l3.296875 5.0937347l-1.8125 0l-2.4375 -3.9531097l-2.4375 3.9531097l-1.796875 0l3.234375 -5.0937347l-3.234375 -5.078125l1.796875 0zm13.335892 0l0 1.328125l-5.28125 0l0 -1.328125l5.28125 0zm-3.734375 -2.4375l1.5625 0l0 9.6875q0 0.671875 0.1875 1.0q0.203125 0.328125 0.5 0.4375q0.3125 0.109375 0.65625 0.109375q0.265625 0 0.421875 -0.03125q0.171875 -0.03125 0.265625 -0.046875l0.328125 1.4062347q-0.15625 0.046875 -0.453125 0.109375q-0.28125 0.0625 -0.71875 0.0625q-0.65625 0 -1.296875 -0.28125q-0.625 -0.28125 -1.046875 -0.85935974q-0.40625 -0.59375 -0.40625 -1.46875l0 -10.125zm10.256241 12.82811q-1.46875 0 -2.546875 -0.65625q-1.0625 -0.65623474 -1.640625 -1.8281097q-0.5625 -1.171875 -0.5625 -2.75q0 -1.5625 0.5625 -2.75q0.578125 -1.203125 1.609375 -1.875q1.03125 -0.671875 2.40625 -0.671875q0.796875 0 1.578125 0.265625q0.78125 0.265625 1.40625 0.859375q0.640625 0.59375 1.015625 1.578125q0.375 0.96875 0.375 2.390625l0 0.65625l-7.84375 0l0 -1.34375l6.265625 0q0 -0.859375 -0.34375 -1.53125q-0.34375 -0.6875 -0.96875 -1.078125q-0.625 -0.390625 -1.484375 -0.390625q-0.921875 0 -1.609375 0.46875q-0.671875 0.453125 -1.046875 1.1875q-0.359375 0.734375 -0.359375 1.578125l0 0.90625q0 1.140625 0.390625 1.953125q0.40625 0.796875 1.125 1.21875q0.71875 0.40625 1.671875 0.40625q0.609375 0 1.109375 -0.171875q0.5 -0.1875 0.859375 -0.53125q0.375 -0.359375 0.5625 -0.890625l1.515625 0.421875q-0.234375 0.765625 -0.796875 1.34375q-0.5625 0.57810974 -1.390625 0.90623474q-0.828125 0.328125 -1.859375 0.328125zm6.5996704 -0.21875l0 -10.17186l1.5 0l0 1.53125l0.109375 0q0.28125 -0.75 1.0 -1.21875q0.734375 -0.46875 1.65625 -0.46875q0.171875 0 0.421875 0q0.265625 0 0.390625 0.015625l0 1.59375q-0.078125 -0.015625 -0.359375 -0.0625q-0.28125 -0.046875 -0.59375 -0.046875q-0.734375 0 -1.328125 0.3125q-0.578125 0.3125 -0.90625 0.859375q-0.328125 0.53125 -0.328125 1.21875l0 6.4374847l-1.5625 0zm8.505692 -6.1249847l0 6.1249847l-1.5625 0l0 -10.17186l1.5 0l0 1.578125l0.140625 0q0.359375 -0.765625 1.078125 -1.234375q0.734375 -0.484375 1.890625 -0.484375q1.03125 0 1.796875 0.421875q0.78125 0.421875 1.203125 1.28125q0.4375 0.84375 0.4375 2.140625l0 6.4687347l-1.5625 0l0 -6.3593597q0 -1.203125 -0.625 -1.875q-0.625 -0.671875 -1.703125 -0.671875q-0.75 0 -1.34375 0.328125q-0.578125 0.328125 -0.921875 0.953125q-0.328125 0.609375 -0.328125 1.5zm12.340164 6.3593597q-0.96875 0 -1.765625 -0.359375q-0.78125 -0.375 -1.25 -1.0624847q-0.453125 -0.703125 -0.453125 -1.703125q0 -0.875 0.34375 -1.421875q0.34375 -0.546875 0.921875 -0.859375q0.578125 -0.3125 1.265625 -0.46875q0.703125 -0.15625 1.421875 -0.25q0.921875 -0.109375 1.5 -0.171875q0.578125 -0.0625 0.84375 -0.21875q0.28125 -0.15625 0.28125 -0.53125l0 -0.046875q0 -0.984375 -0.546875 -1.53125q-0.53125 -0.546875 -1.609375 -0.546875q-1.109375 0 -1.75 0.5q-0.640625 0.484375 -0.890625 1.046875l-1.484375 -0.53125q0.390625 -0.921875 1.046875 -1.4375q0.671875 -0.53125 1.46875 -0.734375q0.796875 -0.21875 1.5625 -0.21875q0.484375 0 1.125 0.125q0.640625 0.109375 1.234375 0.46875q0.609375 0.359375 1.0 1.078125q0.40625 0.71875 0.40625 1.9375l0 6.7031097l-1.5625 0l0 -1.3749847l-0.078125 0q-0.171875 0.328125 -0.546875 0.70310974q-0.359375 0.375 -0.984375 0.640625q-0.609375 0.265625 -1.5 0.265625zm0.25 -1.4062347q0.921875 0 1.5625 -0.359375q0.640625 -0.359375 0.96875 -0.9375q0.328125 -0.578125 0.328125 -1.21875l0 -1.421875q-0.109375 0.109375 -0.453125 0.21875q-0.328125 0.09375 -0.765625 0.15625q-0.421875 0.0625 -0.828125 0.125q-0.40625 0.046875 -0.65625 0.078125q-0.609375 0.078125 -1.140625 0.265625q-0.53125 0.171875 -0.859375 0.515625q-0.3125 0.34375 -0.3125 0.9375q0 0.8125 0.609375 1.234375q0.609375 0.40625 1.546875 0.40625zm8.848907 -12.390625l0 13.562485l-1.5625 0l0 -13.562485l1.5625 0z" fill-rule="nonzero"/><path fill="#102b2d" d="m41.38426 278.87274l0 -13.5625l4.59375 0q1.59375 0 2.609375 0.578125q1.015625 0.5625 1.5 1.546875q0.5 0.96875 0.5 2.15625q0 1.203125 -0.5 2.1875q-0.484375 0.984375 -1.5 1.5625q-1.0 0.578125 -2.59375 0.578125l-3.28125 0l0 -1.453125l3.234375 0q1.09375 0 1.75 -0.375q0.671875 -0.390625 0.96875 -1.03125q0.296875 -0.640625 0.296875 -1.46875q0 -0.8125 -0.296875 -1.453125q-0.296875 -0.640625 -0.96875 -1.0q-0.671875 -0.375 -1.78125 -0.375l-2.890625 0l0 12.109375l-1.640625 0zm14.62706 0.234375q-0.96875 0 -1.765625 -0.359375q-0.78125 -0.375 -1.25 -1.0625q-0.453125 -0.703125 -0.453125 -1.703125q0 -0.875 0.34375 -1.421875q0.34375 -0.546875 0.921875 -0.859375q0.578125 -0.3125 1.265625 -0.46875q0.703125 -0.15625 1.421875 -0.25q0.921875 -0.109375 1.5 -0.171875q0.578125 -0.0625 0.84375 -0.21875q0.28125 -0.15625 0.28125 -0.53125l0 -0.046875q0 -0.984375 -0.546875 -1.53125q-0.53125 -0.546875 -1.609375 -0.546875q-1.109375 0 -1.75 0.5q-0.640625 0.484375 -0.890625 1.046875l-1.484375 -0.53125q0.390625 -0.921875 1.046875 -1.4375q0.671875 -0.53125 1.46875 -0.734375q0.796875 -0.21875 1.5625 -0.21875q0.484375 0 1.125 0.125q0.640625 0.109375 1.234375 0.46875q0.609375 0.359375 1.0 1.078125q0.40625 0.71875 0.40625 1.9375l0 6.703125l-1.5625 0l0 -1.375l-0.078125 0q-0.171875 0.328125 -0.546875 0.703125q-0.359375 0.375 -0.984375 0.640625q-0.609375 0.265625 -1.5 0.265625zm0.25 -1.40625q0.921875 0 1.5625 -0.359375q0.640625 -0.359375 0.96875 -0.9375q0.328125 -0.578125 0.328125 -1.21875l0 -1.421875q-0.109375 0.109375 -0.453125 0.21875q-0.328125 0.09375 -0.765625 0.15625q-0.421875 0.0625 -0.828125 0.125q-0.40625 0.046875 -0.65625 0.078125q-0.609375 0.078125 -1.140625 0.265625q-0.53125 0.171875 -0.859375 0.515625q-0.3125 0.34375 -0.3125 0.9375q0 0.8125 0.609375 1.234375q0.609375 0.40625 1.546875 0.40625zm7.2864075 1.171875l0 -10.171875l1.4999962 0l0 1.53125l0.109375 0q0.28125 -0.75 1.0 -1.21875q0.734375 -0.46875 1.65625 -0.46875q0.171875 0 0.421875 0q0.265625 0 0.390625 0.015625l0 1.59375q-0.078125 -0.015625 -0.359375 -0.0625q-0.28125 -0.046875 -0.59375 -0.046875q-0.734375 0 -1.328125 0.3125q-0.578125 0.3125 -0.90625 0.859375q-0.328125 0.53125 -0.328125 1.21875l0 6.4375l-1.5624962 0zm9.927563 0.234375q-0.96875 0 -1.765625 -0.359375q-0.78125 -0.375 -1.25 -1.0625q-0.453125 -0.703125 -0.453125 -1.703125q0 -0.875 0.34375 -1.421875q0.34375 -0.546875 0.921875 -0.859375q0.578125 -0.3125 1.265625 -0.46875q0.703125 -0.15625 1.421875 -0.25q0.921875 -0.109375 1.5 -0.171875q0.578125 -0.0625 0.84375 -0.21875q0.28125 -0.15625 0.28125 -0.53125l0 -0.046875q0 -0.984375 -0.546875 -1.53125q-0.53125 -0.546875 -1.609375 -0.546875q-1.109375 0 -1.75 0.5q-0.640625 0.484375 -0.890625 1.046875l-1.484375 -0.53125q0.390625 -0.921875 1.046875 -1.4375q0.671875 -0.53125 1.46875 -0.734375q0.796875 -0.21875 1.5625 -0.21875q0.484375 0 1.125 0.125q0.640625 0.109375 1.234375 0.46875q0.609375 0.359375 1.0 1.078125q0.40625 0.71875 0.40625 1.9375l0 6.703125l-1.5625 0l0 -1.375l-0.078125 0q-0.171875 0.328125 -0.546875 0.703125q-0.359375 0.375 -0.984375 0.640625q-0.609375 0.265625 -1.5 0.265625zm0.25 -1.40625q0.921875 0 1.5625 -0.359375q0.640625 -0.359375 0.96875 -0.9375q0.328125 -0.578125 0.328125 -1.21875l0 -1.421875q-0.109375 0.109375 -0.453125 0.21875q-0.328125 0.09375 -0.765625 0.15625q-0.421875 0.0625 -0.828125 0.125q-0.40625 0.046875 -0.65625 0.078125q-0.609375 0.078125 -1.140625 0.265625q-0.53125 0.171875 -0.859375 0.515625q-0.3125 0.34375 -0.3125 0.9375q0 0.8125 0.609375 1.234375q0.609375 0.40625 1.546875 0.40625zm7.2864075 1.171875l0 -10.171875l1.5 0l0 1.578125l0.140625 0q0.3125 -0.8125 1.015625 -1.265625q0.71875 -0.453125 1.703125 -0.453125q1.015625 0 1.6875 0.453125q0.671875 0.453125 1.046875 1.265625l0.109375 0q0.390625 -0.78125 1.171875 -1.25q0.78125 -0.46875 1.875 -0.46875q1.359375 0 2.21875 0.859375q0.875 0.84375 0.875 2.640625l0 6.8125l-1.5625 0l0 -6.8125q0 -1.125 -0.625 -1.609375q-0.609375 -0.484375 -1.4375 -0.484375q-1.078125 0 -1.671875 0.65625q-0.578125 0.640625 -0.578125 1.625l0 6.625l-1.59375 0l0 -6.96875q0 -0.875 -0.5625 -1.40625q-0.5625 -0.53125 -1.453125 -0.53125q-0.609375 0 -1.140625 0.328125q-0.515625 0.328125 -0.84375 0.90625q-0.3125 0.5625 -0.3125 1.3125l0 6.359375l-1.5625 0zm20.484055 0.21875q-1.46875 0 -2.546875 -0.65625q-1.0625 -0.65625 -1.640625 -1.828125q-0.5625 -1.171875 -0.5625 -2.75q0 -1.5625 0.5625 -2.75q0.578125 -1.203125 1.609375 -1.875q1.03125 -0.671875 2.40625 -0.671875q0.796875 0 1.578125 0.265625q0.78125 0.265625 1.40625 0.859375q0.640625 0.59375 1.015625 1.578125q0.375 0.96875 0.375 2.390625l0 0.65625l-7.84375 0l0 -1.34375l6.265625 0q0 -0.859375 -0.34375 -1.53125q-0.34375 -0.6875 -0.96875 -1.078125q-0.625 -0.390625 -1.484375 -0.390625q-0.921875 0 -1.609375 0.46875q-0.671875 0.453125 -1.046875 1.1875q-0.359375 0.734375 -0.359375 1.578125l0 0.90625q0 1.140625 0.390625 1.953125q0.40625 0.796875 1.125 1.21875q0.71875 0.40625 1.671875 0.40625q0.609375 0 1.109375 -0.171875q0.5 -0.1875 0.859375 -0.53125q0.375 -0.359375 0.5625 -0.890625l1.515625 0.421875q-0.234375 0.765625 -0.796875 1.34375q-0.5625 0.578125 -1.390625 0.90625q-0.828125 0.328125 -1.859375 0.328125zm11.021545 -10.390625l0 1.328125l-5.28125 0l0 -1.328125l5.28125 0zm-3.734375 -2.4375l1.5625 0l0 9.6875q0 0.671875 0.1875 1.0q0.203125 0.328125 0.5 0.4375q0.3125 0.109375 0.65625 0.109375q0.265625 0 0.421875 -0.03125q0.171875 -0.03125 0.265625 -0.046875l0.328125 1.40625q-0.15625 0.046875 -0.453125 0.109375q-0.28125 0.0625 -0.71875 0.0625q-0.65625 0 -1.296875 -0.28125q-0.625 -0.28125 -1.046875 -0.859375q-0.40625 -0.59375 -0.40625 -1.46875l0 -10.125zm10.256241 12.828125q-1.46875 0 -2.546875 -0.65625q-1.0625 -0.65625 -1.640625 -1.828125q-0.5625 -1.171875 -0.5625 -2.75q0 -1.5625 0.5625 -2.75q0.578125 -1.203125 1.609375 -1.875q1.03125 -0.671875 2.40625 -0.671875q0.796875 0 1.578125 0.265625q0.78125 0.265625 1.40625 0.859375q0.640625 0.59375 1.015625 1.578125q0.375 0.96875 0.375 2.390625l0 0.65625l-7.84375 0l0 -1.34375l6.265625 0q0 -0.859375 -0.34375 -1.53125q-0.34375 -0.6875 -0.96875 -1.078125q-0.625 -0.390625 -1.484375 -0.390625q-0.921875 0 -1.609375 0.46875q-0.671875 0.453125 -1.046875 1.1875q-0.359375 0.734375 -0.359375 1.578125l0 0.90625q0 1.140625 0.390625 1.953125q0.40625 0.796875 1.125 1.21875q0.71875 0.40625 1.671875 0.40625q0.609375 0 1.109375 -0.171875q0.5 -0.1875 0.859375 -0.53125q0.375 -0.359375 0.5625 -0.890625l1.515625 0.421875q-0.234375 0.765625 -0.796875 1.34375q-0.5625 0.578125 -1.390625 0.90625q-0.828125 0.328125 -1.859375 0.328125zm6.5996704 -0.21875l0 -10.171875l1.5 0l0 1.53125l0.109375 0q0.28125 -0.75 1.0000076 -1.21875q0.734375 -0.46875 1.65625 -0.46875q0.171875 0 0.421875 0q0.265625 0 0.390625 0.015625l0 1.59375q-0.078125 -0.015625 -0.359375 -0.0625q-0.28125 -0.046875 -0.59375 -0.046875q-0.734375 0 -1.328125 0.3125q-0.5781326 0.3125 -0.9062576 0.859375q-0.328125 0.53125 -0.328125 1.21875l0 6.4375l-1.5625 0zm14.146324 -7.890625l-1.40625 0.390625q-0.125 -0.34375 -0.390625 -0.671875q-0.25 -0.34375 -0.6875 -0.5625q-0.4375 -0.21875 -1.125 -0.21875q-0.9375 0 -1.5625 0.421875q-0.609375 0.421875 -0.609375 1.078125q0 0.59375 0.421875 0.9375q0.421875 0.328125 1.328125 0.546875l1.515625 0.375q1.359375 0.328125 2.03125 1.015625q0.671875 0.671875 0.671875 1.75q0 0.859375 -0.5 1.5625q-0.5 0.6875 -1.40625 1.09375q-0.890625 0.390625 -2.078125 0.390625q-1.546875 0 -2.578125 -0.671875q-1.015625 -0.6875 -1.28125 -1.984375l1.484375 -0.375q0.203125 0.828125 0.796875 1.234375q0.59375 0.40625 1.5625 0.40625q1.09375 0 1.734375 -0.453125q0.640625 -0.46875 0.640625 -1.125q0 -0.53125 -0.375 -0.890625q-0.359375 -0.375 -1.125 -0.546875l-1.703125 -0.390625q-1.390625 -0.34375 -2.046875 -1.03125q-0.65625 -0.703125 -0.65625 -1.765625q0 -0.859375 0.484375 -1.515625q0.484375 -0.65625 1.328125 -1.03125q0.859375 -0.390625 1.921875 -0.390625q1.515625 0 2.375 0.671875q0.875 0.65625 1.234375 1.75z" fill-rule="nonzero"/><path fill="#000000" fill-opacity="0.0" d="m168.25722 260.95276l30.29921 0" fill-rule="evenodd"/><path stroke="#102b2d" stroke-width="1.0" stroke-linejoin="round" stroke-linecap="butt" d="m168.25722 260.95276l24.29921 0" fill-rule="evenodd"/><path fill="#102b2d" stroke="#102b2d" stroke-width="1.0" stroke-linecap="butt" d="m192.55643 262.6045l4.538101 -1.6517334l-4.538101 -1.6517334z" fill-rule="evenodd"/><path fill="#ffffff" d="m366.67194 38.472l118.77374 0l0 37.049904c-59.383667 0 -59.383667 14.254929 -118.77374 7.1274643zm9.785492 0l0 -4.8032913l117.962555 0l0 37.282326c-4.4839783 0 -8.974304 0.25823975 -8.974304 0.25823975l0 -32.737274zm9.197876 -4.8032913l0 -4.6870823l118.98453 0l0 37.166115c-5.1099243 0 -10.219849 0.19367981 -10.219849 0.19367981l0 -32.672714z" fill-rule="evenodd"/><path fill="#000000" fill-opacity="0.0" d="m366.67194 38.472l118.77374 0l0 37.049904c-59.383667 0 -59.383667 14.254929 -118.77374 7.1274643zm9.785492 0l0 -4.8032913l117.962555 0l0 37.282326c-4.4839783 0 -8.974304 0.25823975 -8.974304 0.25823975m-99.790375 -37.540565l0 -4.6870823l118.98453 0l0 37.166115c-5.1099243 0 -10.219849 0.19367981 -10.219849 0.19367981" fill-rule="evenodd"/><path fill="#000000" fill-opacity="0.0" d="m366.67194 82.64937c59.390076 7.1274643 59.390076 -7.1274643 118.77374 -7.1274643l0 -4.3126297c0 0 4.490326 -0.25823975 8.974304 -0.25823975l0 -4.6096115c0 0 5.1099243 -0.19367981 10.219849 -0.19367981l0 -37.166115l-118.98453 0l0 4.6870823l-9.197876 0l0 4.8032913l-9.785492 0z" fill-rule="evenodd"/><path stroke="#ff9900" stroke-width="1.0" stroke-linejoin="round" stroke-linecap="butt" d="m366.67194 38.472l118.77374 0l0 37.049904c-59.383667 0 -59.383667 14.254929 -118.77374 7.1274643zm9.785492 0l0 -4.8032913l117.962555 0l0 37.282326c-4.4839783 0 -8.974304 0.25823975 -8.974304 0.25823975m-99.790375 -37.540565l0 -4.6870823l118.98453 0l0 37.166115c-5.1099243 0 -10.219849 0.19367981 -10.219849 0.19367981" fill-rule="evenodd"/><path fill="#102b2d" d="m398.49146 57.360683l0 -9.6875l3.28125 0q1.125 0 1.859375 0.390625q0.734375 0.375 1.078125 1.046875q0.359375 0.671875 0.359375 1.53125q0 0.859375 -0.359375 1.53125q-0.34375 0.65625 -1.078125 1.03125q-0.71875 0.375 -1.84375 0.375l-2.65625 0l0 -1.0625l2.625 0q0.765625 0 1.234375 -0.21875q0.484375 -0.234375 0.703125 -0.65625q0.21875 -0.421875 0.21875 -1.0q0 -0.578125 -0.21875 -1.015625q-0.21875 -0.4375 -0.703125 -0.671875q-0.46875 -0.25 -1.265625 -0.25l-2.0625 0l0 8.65625l-1.171875 0zm4.5625 -4.359375l2.390625 4.359375l-1.359375 0l-2.359375 -4.359375l1.328125 0zm6.7875366 4.515625q-1.0625 0 -1.828125 -0.46875q-0.75 -0.46875 -1.15625 -1.3125q-0.40625 -0.84375 -0.40625 -1.953125q0 -1.109375 0.40625 -1.96875q0.40625 -0.859375 1.140625 -1.328125q0.734375 -0.484375 1.71875 -0.484375q0.578125 0 1.125 0.1875q0.546875 0.1875 1.0 0.609375q0.46875 0.421875 0.734375 1.125q0.265625 0.6875 0.265625 1.703125l0 0.484375l-5.59375 0l0 -0.96875l4.453125 0q0 -0.625 -0.25 -1.09375q-0.234375 -0.484375 -0.6875 -0.765625q-0.4375 -0.28125 -1.046875 -0.28125q-0.65625 0 -1.15625 0.328125q-0.484375 0.328125 -0.75 0.859375q-0.25 0.515625 -0.25 1.125l0 0.640625q0 0.828125 0.28125 1.40625q0.296875 0.5625 0.796875 0.859375q0.515625 0.28125 1.203125 0.28125q0.4375 0 0.78125 -0.125q0.359375 -0.125 0.625 -0.375q0.265625 -0.25 0.40625 -0.625l1.078125 0.296875q-0.171875 0.546875 -0.578125 0.96875q-0.40625 0.40625 -1.0 0.640625q-0.578125 0.234375 -1.3125 0.234375zm9.856018 -5.796875l-1.0 0.28125q-0.09375 -0.25 -0.28125 -0.484375q-0.1875 -0.25 -0.5 -0.40625q-0.3125 -0.15625 -0.796875 -0.15625q-0.65625 0 -1.109375 0.3125q-0.4375 0.3125 -0.4375 0.78125q0 0.40625 0.296875 0.65625q0.3125 0.234375 0.953125 0.390625l1.078125 0.265625q0.96875 0.234375 1.4375 0.734375q0.484375 0.484375 0.484375 1.234375q0 0.625 -0.359375 1.125q-0.34375 0.484375 -0.984375 0.78125q-0.640625 0.28125 -1.484375 0.28125q-1.109375 0 -1.84375 -0.484375q-0.734375 -0.484375 -0.921875 -1.40625l1.0625 -0.265625q0.140625 0.578125 0.5625 0.875q0.4375 0.296875 1.125 0.296875q0.78125 0 1.234375 -0.328125q0.46875 -0.34375 0.46875 -0.8125q0 -0.375 -0.265625 -0.625q-0.265625 -0.265625 -0.8125 -0.390625l-1.21875 -0.296875q-1.0 -0.234375 -1.46875 -0.734375q-0.46875 -0.5 -0.46875 -1.25q0 -0.609375 0.34375 -1.078125q0.359375 -0.484375 0.953125 -0.75q0.609375 -0.265625 1.375 -0.265625q1.078125 0 1.6875 0.46875q0.625 0.46875 0.890625 1.25zm4.763977 5.796875q-0.984375 0 -1.71875 -0.46875q-0.734375 -0.46875 -1.15625 -1.3125q-0.40625 -0.84375 -0.40625 -1.96875q0 -1.140625 0.40625 -1.984375q0.421875 -0.84375 1.15625 -1.3125q0.734375 -0.46875 1.71875 -0.46875q0.984375 0 1.71875 0.46875q0.75 0.46875 1.15625 1.3125q0.421875 0.84375 0.421875 1.984375q0 1.125 -0.421875 1.96875q-0.40625 0.84375 -1.15625 1.3125q-0.734375 0.46875 -1.71875 0.46875zm0 -1.015625q0.75 0 1.234375 -0.375q0.484375 -0.390625 0.71875 -1.015625q0.234375 -0.625 0.234375 -1.34375q0 -0.734375 -0.234375 -1.359375q-0.234375 -0.625 -0.71875 -1.015625q-0.484375 -0.390625 -1.234375 -0.390625q-0.734375 0 -1.21875 0.390625q-0.484375 0.390625 -0.71875 1.015625q-0.234375 0.625 -0.234375 1.359375q0 0.71875 0.234375 1.34375q0.234375 0.625 0.71875 1.015625q0.484375 0.375 1.21875 0.375zm6.123474 -8.828125l0 9.6875l-1.125 0l0 -9.6875l1.125 0zm7.989807 2.421875l-2.6875 7.265625l-1.140625 0l-2.6875 -7.265625l1.21875 0l2.0 5.78125l0.078125 0l2.0 -5.78125l1.21875 0zm4.2657166 7.421875q-1.0625 0 -1.828125 -0.46875q-0.75 -0.46875 -1.15625 -1.3125q-0.40625 -0.84375 -0.40625 -1.953125q0 -1.109375 0.40625 -1.96875q0.40625 -0.859375 1.140625 -1.328125q0.734375 -0.484375 1.71875 -0.484375q0.578125 0 1.125 0.1875q0.546875 0.1875 1.0 0.609375q0.46875 0.421875 0.734375 1.125q0.265625 0.6875 0.265625 1.703125l0 0.484375l-5.59375 0l0 -0.96875l4.453125 0q0 -0.625 -0.25 -1.09375q-0.234375 -0.484375 -0.6875 -0.765625q-0.4375 -0.28125 -1.046875 -0.28125q-0.65625 0 -1.15625 0.328125q-0.484375 0.328125 -0.75 0.859375q-0.25 0.515625 -0.25 1.125l0 0.640625q0 0.828125 0.28125 1.40625q0.296875 0.5625 0.796875 0.859375q0.515625 0.28125 1.203125 0.28125q0.4375 0 0.78125 -0.125q0.359375 -0.125 0.625 -0.375q0.265625 -0.25 0.40625 -0.625l1.078125 0.296875q-0.171875 0.546875 -0.578125 0.96875q-0.40625 0.40625 -1.0 0.640625q-0.578125 0.234375 -1.3125 0.234375zm7.449768 0q-0.90625 0 -1.609375 -0.453125q-0.6875 -0.46875 -1.078125 -1.3125q-0.390625 -0.859375 -0.390625 -2.0q0 -1.15625 0.390625 -2.0q0.390625 -0.84375 1.09375 -1.296875q0.703125 -0.453125 1.609375 -0.453125q0.71875 0 1.125 0.234375q0.421875 0.234375 0.640625 0.53125q0.21875 0.296875 0.34375 0.484375l0.09375 0l0 -3.578125l1.109375 0l0 9.6875l-1.078125 0l0 -1.109375l-0.125 0q-0.125 0.1875 -0.359375 0.5q-0.21875 0.296875 -0.640625 0.53125q-0.421875 0.234375 -1.125 0.234375zm0.15625 -1.015625q0.671875 0 1.125 -0.34375q0.46875 -0.359375 0.703125 -0.984375q0.25 -0.625 0.25 -1.453125q0 -0.8125 -0.234375 -1.421875q-0.234375 -0.609375 -0.703125 -0.953125q-0.46875 -0.34375 -1.140625 -0.34375q-0.71875 0 -1.1875 0.359375q-0.46875 0.359375 -0.703125 0.984375q-0.234375 0.609375 -0.234375 1.375q0 0.78125 0.234375 1.421875q0.25 0.625 0.71875 1.0q0.46875 0.359375 1.171875 0.359375z" fill-rule="nonzero"/><path fill="#102b2d" d="m385.13382 73.36069l-3.0 0l0 -9.687504l3.125 0q1.40625 0 2.40625 0.5781288q1.015625 0.578125 1.546875 1.65625q0.53125 1.078125 0.53125 2.59375q0 1.515625 -0.546875 2.609375q-0.53125 1.078125 -1.5625 1.671875q-1.03125 0.578125 -2.5 0.578125zm-1.828125 -1.046875l1.75 0q1.203125 0 1.984375 -0.453125q0.796875 -0.46875 1.1875 -1.328125q0.390625 -0.859375 0.390625 -2.03125q0 -1.1875 -0.390625 -2.03125q-0.390625 -0.84375 -1.15625 -1.296875q-0.75 -0.46875 -1.890625 -0.46875l-1.875 0l0 7.609375zm11.314148 1.203125q-1.0625 0 -1.828125 -0.46875q-0.75 -0.46875 -1.15625 -1.3125q-0.40625 -0.84375 -0.40625 -1.953125q0 -1.109375 0.40625 -1.96875q0.40625 -0.859375 1.140625 -1.328125q0.734375 -0.484375 1.71875 -0.484375q0.578125 0 1.125 0.1875q0.546875 0.1875 1.0 0.609375q0.46875 0.421875 0.734375 1.125q0.265625 0.6875 0.265625 1.703125l0 0.484375l-5.59375 0l0 -0.96875l4.453125 0q0 -0.625 -0.25 -1.09375q-0.234375 -0.484375 -0.6875 -0.765625q-0.4375 -0.28125 -1.046875 -0.28125q-0.65625 0 -1.15625 0.328125q-0.484375 0.328125 -0.75 0.859375q-0.25 0.515625 -0.25 1.125l0 0.640625q0 0.828125 0.28125 1.40625q0.296875 0.5625 0.796875 0.859375q0.515625 0.28125 1.203125 0.28125q0.4375 0 0.78125 -0.125q0.359375 -0.125 0.625 -0.375q0.265625 -0.25 0.40625 -0.625l1.078125 0.296875q-0.171875 0.546875 -0.578125 0.96875q-0.40625 0.40625 -1.0 0.640625q-0.578125 0.234375 -1.3125 0.234375zm4.699768 2.5625l0 -9.984375l1.078125 0l0 1.15625l0.140625 0q0.125 -0.1875 0.34375 -0.484375q0.21875 -0.296875 0.625 -0.53125q0.421875 -0.234375 1.125 -0.234375q0.921875 0 1.625 0.453125q0.703125 0.453125 1.09375 1.296875q0.390625 0.84375 0.390625 2.0q0 1.140625 -0.390625 2.0q-0.390625 0.84375 -1.09375 1.3125q-0.6875 0.453125 -1.59375 0.453125q-0.703125 0 -1.125 -0.234375q-0.421875 -0.234375 -0.65625 -0.53125q-0.21875 -0.3125 -0.34375 -0.5l-0.09375 0l0 3.828125l-1.125 0zm1.109375 -6.359375q0 0.828125 0.234375 1.453125q0.25 0.625 0.703125 0.984375q0.46875 0.34375 1.140625 0.34375q0.703125 0 1.171875 -0.359375q0.46875 -0.375 0.703125 -1.0q0.25 -0.640625 0.25 -1.421875q0 -0.765625 -0.234375 -1.375q-0.234375 -0.625 -0.71875 -0.984375q-0.46875 -0.359375 -1.171875 -0.359375q-0.6875 0 -1.15625 0.34375q-0.453125 0.34375 -0.6875 0.953125q-0.234375 0.609375 -0.234375 1.421875zm10.075104 3.796875q-1.0625 0 -1.828125 -0.46875q-0.75 -0.46875 -1.15625 -1.3125q-0.40625 -0.84375 -0.40625 -1.953125q0 -1.109375 0.40625 -1.96875q0.40625 -0.859375 1.140625 -1.328125q0.734375 -0.484375 1.71875 -0.484375q0.578125 0 1.125 0.1875q0.546875 0.1875 1.0 0.609375q0.46875 0.421875 0.734375 1.125q0.265625 0.6875 0.265625 1.703125l0 0.484375l-5.59375 0l0 -0.96875l4.453125 0q0 -0.625 -0.25 -1.09375q-0.234375 -0.484375 -0.6875 -0.765625q-0.4375 -0.28125 -1.046875 -0.28125q-0.65625 0 -1.15625 0.328125q-0.484375 0.328125 -0.75 0.859375q-0.25 0.515625 -0.25 1.125l0 0.640625q0 0.828125 0.28125 1.40625q0.296875 0.5625 0.796875 0.859375q0.515625 0.28125 1.203125 0.28125q0.4375 0 0.78125 -0.125q0.359375 -0.125 0.625 -0.375q0.265625 -0.25 0.40625 -0.625l1.078125 0.296875q-0.171875 0.546875 -0.578125 0.96875q-0.40625 0.40625 -1.0 0.640625q-0.578125 0.234375 -1.3125 0.234375zm5.824768 -4.53125l0 4.375l-1.125 0l0 -7.265625l1.078125 0l0 1.125l0.109375 0q0.25 -0.546875 0.765625 -0.875q0.53125 -0.34375 1.34375 -0.34375q0.75 0 1.296875 0.296875q0.546875 0.296875 0.859375 0.90625q0.3125 0.609375 0.3125 1.53125l0 4.625l-1.125 0l0 -4.546875q0 -0.859375 -0.453125 -1.328125q-0.4375 -0.484375 -1.203125 -0.484375q-0.546875 0 -0.96875 0.234375q-0.40625 0.234375 -0.65625 0.6875q-0.234375 0.4375 -0.234375 1.0625zm9.42514 4.53125q-0.90625 0 -1.609375 -0.453125q-0.6875 -0.46875 -1.078125 -1.3125q-0.390625 -0.859375 -0.390625 -2.0q0 -1.15625 0.390625 -2.0q0.390625 -0.84375 1.09375 -1.296875q0.703125 -0.453125 1.609375 -0.453125q0.71875 0 1.125 0.234375q0.421875 0.234375 0.640625 0.53125q0.21875 0.296875 0.34375 0.484375l0.09375 0l0 -3.5781288l1.109375 0l0 9.687504l-1.078125 0l0 -1.109375l-0.125 0q-0.125 0.1875 -0.359375 0.5q-0.21875 0.296875 -0.640625 0.53125q-0.421875 0.234375 -1.125 0.234375zm0.15625 -1.015625q0.671875 0 1.125 -0.34375q0.46875 -0.359375 0.703125 -0.984375q0.25 -0.625 0.25 -1.453125q0 -0.8125 -0.234375 -1.421875q-0.234375 -0.609375 -0.703125 -0.953125q-0.46875 -0.34375 -1.140625 -0.34375q-0.71875 0 -1.1875 0.359375q-0.46875 0.359375 -0.703125 0.984375q-0.234375 0.609375 -0.234375 1.375q0 0.78125 0.234375 1.421875q0.25 0.625 0.71875 1.0q0.46875 0.359375 1.171875 0.359375zm8.4296875 1.015625q-1.0625 0 -1.828125 -0.46875q-0.75 -0.46875 -1.15625 -1.3125q-0.40625 -0.84375 -0.40625 -1.953125q0 -1.109375 0.40625 -1.96875q0.40625 -0.859375 1.140625 -1.328125q0.734375 -0.484375 1.71875 -0.484375q0.578125 0 1.125 0.1875q0.546875 0.1875 1.0 0.609375q0.46875 0.421875 0.734375 1.125q0.265625 0.6875 0.265625 1.703125l0 0.484375l-5.59375 0l0 -0.96875l4.453125 0q0 -0.625 -0.25 -1.09375q-0.234375 -0.484375 -0.6875 -0.765625q-0.4375 -0.28125 -1.046875 -0.28125q-0.65625 0 -1.15625 0.328125q-0.484375 0.328125 -0.75 0.859375q-0.25 0.515625 -0.25 1.125l0 0.640625q0 0.828125 0.28125 1.40625q0.296875 0.5625 0.796875 0.859375q0.515625 0.28125 1.203125 0.28125q0.4375 0 0.78125 -0.125q0.359375 -0.125 0.625 -0.375q0.265625 -0.25 0.40625 -0.625l1.078125 0.296875q-0.171875 0.546875 -0.578125 0.96875q-0.40625 0.40625 -1.0 0.640625q-0.578125 0.234375 -1.3125 0.234375zm5.824768 -4.53125l0 4.375l-1.125 0l0 -7.265625l1.078125 0l0 1.125l0.109375 0q0.25 -0.546875 0.765625 -0.875q0.53125 -0.34375 1.34375 -0.34375q0.75 0 1.296875 0.296875q0.546875 0.296875 0.859375 0.90625q0.3125 0.609375 0.3125 1.53125l0 4.625l-1.125 0l0 -4.546875q0 -0.859375 -0.453125 -1.328125q-0.4375 -0.484375 -1.203125 -0.484375q-0.546875 0 -0.96875 0.234375q-0.40625 0.234375 -0.65625 0.6875q-0.234375 0.4375 -0.234375 1.0625zm9.628235 4.53125q-1.015625 0 -1.75 -0.484375q-0.734375 -0.484375 -1.140625 -1.328125q-0.390625 -0.859375 -0.390625 -1.9375q0 -1.109375 0.40625 -1.953125q0.40625 -0.859375 1.140625 -1.328125q0.734375 -0.484375 1.71875 -0.484375q0.765625 0 1.375 0.28125q0.625 0.28125 1.015625 0.796875q0.390625 0.5 0.484375 1.1875l-1.109375 0q-0.125 -0.5 -0.5625 -0.875q-0.4375 -0.390625 -1.1875 -0.390625q-0.640625 0 -1.140625 0.34375q-0.484375 0.328125 -0.765625 0.953125q-0.265625 0.609375 -0.265625 1.421875q0 0.84375 0.265625 1.46875q0.265625 0.625 0.75 0.96875q0.5 0.34375 1.15625 0.34375q0.4375 0 0.796875 -0.140625q0.359375 -0.15625 0.59375 -0.4375q0.25 -0.28125 0.359375 -0.6875l1.109375 0q-0.09375 0.640625 -0.46875 1.15625q-0.359375 0.515625 -0.96875 0.828125q-0.609375 0.296875 -1.421875 0.296875zm4.4873047 -0.15625l0 -7.265625l1.125 0l0 7.265625l-1.125 0zm0.578125 -8.484375q-0.328125 0 -0.5625 -0.21875q-0.234375 -0.21875 -0.234375 -0.53125q0 -0.3125038 0.234375 -0.5312538q0.234375 -0.234375 0.5625 -0.234375q0.328125 0 0.5625 0.234375q0.234375 0.21875 0.234375 0.5312538q0 0.3125 -0.234375 0.53125q-0.234375 0.21875 -0.5625 0.21875zm5.646057 8.640625q-1.0625 0 -1.828125 -0.46875q-0.75 -0.46875 -1.15625 -1.3125q-0.40625 -0.84375 -0.40625 -1.953125q0 -1.109375 0.40625 -1.96875q0.40625 -0.859375 1.140625 -1.328125q0.734375 -0.484375 1.71875 -0.484375q0.578125 0 1.125 0.1875q0.546875 0.1875 1.0 0.609375q0.46875 0.421875 0.734375 1.125q0.265625 0.6875 0.265625 1.703125l0 0.484375l-5.59375 0l0 -0.96875l4.453125 0q0 -0.625 -0.25 -1.09375q-0.234375 -0.484375 -0.6875 -0.765625q-0.4375 -0.28125 -1.046875 -0.28125q-0.65625 0 -1.15625 0.328125q-0.484375 0.328125 -0.75 0.859375q-0.25 0.515625 -0.25 1.125l0 0.640625q0 0.828125 0.28125 1.40625q0.296875 0.5625 0.796875 0.859375q0.515625 0.28125 1.203125 0.28125q0.4375 0 0.78125 -0.125q0.359375 -0.125 0.625 -0.375q0.265625 -0.25 0.40625 -0.625l1.078125 0.296875q-0.171875 0.546875 -0.578125 0.96875q-0.40625 0.40625 -1.0 0.640625q-0.578125 0.234375 -1.3125 0.234375zm9.856018 -5.796875l-1.0 0.28125q-0.09375 -0.25 -0.28125 -0.484375q-0.1875 -0.25 -0.5 -0.40625q-0.3125 -0.15625 -0.796875 -0.15625q-0.65625 0 -1.109375 0.3125q-0.4375 0.3125 -0.4375 0.78125q0 0.40625 0.296875 0.65625q0.3125 0.234375 0.953125 0.390625l1.078125 0.265625q0.96875 0.234375 1.4375 0.734375q0.484375 0.484375 0.484375 1.234375q0 0.625 -0.359375 1.125q-0.34375 0.484375 -0.984375 0.78125q-0.640625 0.28125 -1.484375 0.28125q-1.109375 0 -1.84375 -0.484375q-0.734375 -0.484375 -0.921875 -1.40625l1.0625 -0.265625q0.140625 0.578125 0.5625 0.875q0.4375 0.296875 1.125 0.296875q0.78125 0 1.234375 -0.328125q0.46875 -0.34375 0.46875 -0.8125q0 -0.375 -0.265625 -0.625q-0.265625 -0.265625 -0.8125 -0.390625l-1.21875 -0.296875q-1.0 -0.234375 -1.46875 -0.734375q-0.46875 -0.5 -0.46875 -1.25q0 -0.609375 0.34375 -1.078125q0.359375 -0.484375 0.953125 -0.75q0.609375 -0.265625 1.375 -0.265625q1.078125 0 1.6875 0.46875q0.625 0.46875 0.890625 1.25z" fill-rule="nonzero"/><path fill="#000000" fill-opacity="0.0" d="m504.63983 56.871708l25.000244 0l0 -52.890156l-84.49631 0l0 24.984642" fill-rule="evenodd"/><path stroke="#102b2d" stroke-width="1.0" stroke-linejoin="round" stroke-linecap="butt" stroke-dasharray="1.0,3.0" d="m504.6398 56.871704l25.000275 0l0 -52.890152l-84.49634 0l0 18.984642" fill-rule="evenodd"/><path stroke="#102b2d" stroke-width="1.0" stroke-linecap="butt" d="m443.492 22.966194l1.6517334 4.5380974l1.6517334 -4.5380974z" fill-rule="evenodd"/><path fill="#ffffff" d="m684.51996 172.09406l93.302 0l0 37.049896c-46.6485 0 -46.6485 14.254929 -93.302 7.127472zm7.6869507 0l0 -4.803299l92.664795 0l0 37.28232c-3.5224 0 -7.0497437 0.25823975 -7.0497437 0.25823975l0 -32.73726zm7.225342 -4.803299l0 -4.687088l93.46759 0l0 37.166122c-4.014099 0 -8.028137 0.19367981 -8.028137 0.19367981l0 -32.672714z" fill-rule="evenodd"/><path fill="#000000" fill-opacity="0.0" d="m684.51996 172.09406l93.302 0l0 37.049896c-46.6485 0 -46.6485 14.254929 -93.302 7.127472zm7.6869507 0l0 -4.803299l92.664795 0l0 37.28232c-3.5224 0 -7.0497437 0.25823975 -7.0497437 0.25823975m-78.38971 -37.540558l0 -4.687088l93.46759 0l0 37.166122c-4.014099 0 -8.028137 0.19367981 -8.028137 0.19367981" fill-rule="evenodd"/><path fill="#000000" fill-opacity="0.0" d="m684.51996 216.27142c46.653503 7.1274567 46.653503 -7.127472 93.302 -7.127472l0 -4.3126373c0 0 3.5273438 -0.25823975 7.0497437 -0.25823975l0 -4.609604c0 0 4.014038 -0.19367981 8.028137 -0.19367981l0 -37.166122l-93.46759 0l0 4.687088l-7.225342 0l0 4.803299l-7.6869507 0z" fill-rule="evenodd"/><path stroke="#ff9900" stroke-width="1.0" stroke-linejoin="round" stroke-linecap="butt" d="m684.51996 172.09406l93.302 0l0 37.049896c-46.6485 0 -46.6485 14.254929 -93.302 7.127472zm7.6869507 0l0 -4.803299l92.664795 0l0 37.28232c-3.5224 0 -7.0497437 0.25823975 -7.0497437 0.25823975m-78.38971 -37.540558l0 -4.687088l93.46759 0l0 37.166122c-4.014099 0 -8.028137 0.19367981 -8.028137 0.19367981" fill-rule="evenodd"/><path fill="#102b2d" d="m709.07184 194.32149q0 2.140625 -0.78125 3.703125q-0.765625 1.5625 -2.125 2.421875q-1.34375 0.84375 -3.078125 0.84375q-1.75 0 -3.109375 -0.84375q-1.34375 -0.859375 -2.125 -2.421875q-0.765625 -1.5625 -0.765625 -3.703125q0 -2.15625 0.765625 -3.71875q0.78125 -1.5625 2.125 -2.40625q1.359375 -0.84375 3.109375 -0.84375q1.734375 0 3.078125 0.84375q1.359375 0.84375 2.125 2.40625q0.78125 1.5625 0.78125 3.71875zm-1.59375 0q0 -1.765625 -0.59375 -2.96875q-0.578125 -1.21875 -1.578125 -1.84375q-1.0 -0.625 -2.21875 -0.625q-1.234375 0 -2.234375 0.625q-1.0 0.625 -1.59375 1.84375q-0.578125 1.203125 -0.578125 2.96875q0 1.765625 0.578125 2.984375q0.59375 1.203125 1.59375 1.828125q1.0 0.625 2.234375 0.625q1.21875 0 2.21875 -0.625q1.0 -0.625 1.578125 -1.828125q0.59375 -1.21875 0.59375 -2.984375zm10.548096 2.625l0 -6.015625l1.5625 0l0 10.171875l-1.5625 0l0 -1.71875l-0.109375 0q-0.359375 0.765625 -1.109375 1.3125q-0.75 0.53125 -1.90625 0.53125q-0.953125 0 -1.703125 -0.40625q-0.734375 -0.421875 -1.15625 -1.265625q-0.421875 -0.859375 -0.421875 -2.15625l0 -6.46875l1.5625 0l0 6.359375q0 1.109375 0.625 1.78125q0.625 0.65625 1.59375 0.65625q0.578125 0 1.1875 -0.296875q0.609375 -0.296875 1.015625 -0.90625q0.421875 -0.625 0.421875 -1.578125zm8.854431 -6.015625l0 1.328125l-5.28125 0l0 -1.328125l5.28125 0zm-3.734375 -2.4375l1.5625 0l0 9.6875q0 0.671875 0.1875 1.0q0.203125 0.328125 0.5 0.4375q0.3125 0.109375 0.65625 0.109375q0.265625 0 0.421875 -0.03125q0.171875 -0.03125 0.265625 -0.046875l0.328125 1.40625q-0.15625 0.046875 -0.453125 0.109375q-0.28125 0.0625 -0.71875 0.0625q-0.65625 0 -1.296875 -0.28125q-0.625 -0.28125 -1.046875 -0.859375q-0.40625 -0.59375 -0.40625 -1.46875l0 -10.125zm6.0966797 16.421875l0 -13.984375l1.5 0l0 1.609375l0.1875 0q0.171875 -0.265625 0.484375 -0.671875q0.3125 -0.421875 0.890625 -0.75q0.578125 -0.328125 1.5625 -0.328125q1.296875 0 2.265625 0.640625q0.984375 0.640625 1.53125 1.828125q0.5625 1.171875 0.5625 2.78125q0 1.625 -0.5625 2.8125q-0.546875 1.171875 -1.515625 1.828125q-0.96875 0.640625 -2.25 0.640625q-0.984375 0 -1.578125 -0.328125q-0.578125 -0.328125 -0.90625 -0.75q-0.3125 -0.421875 -0.484375 -0.703125l-0.125 0l0 5.375l-1.5625 0zm1.53125 -8.90625q0 1.15625 0.328125 2.046875q0.34375 0.875 0.984375 1.375q0.65625 0.484375 1.609375 0.484375q0.96875 0 1.625 -0.515625q0.671875 -0.53125 1.0 -1.40625q0.328125 -0.890625 0.328125 -1.984375q0 -1.0625 -0.328125 -1.921875q-0.3125 -0.875 -0.984375 -1.375q-0.65625 -0.515625 -1.640625 -0.515625q-0.96875 0 -1.625 0.484375q-0.640625 0.484375 -0.96875 1.34375q-0.328125 0.84375 -0.328125 1.984375zm16.243835 0.9375l0 -6.015625l1.5625 0l0 10.171875l-1.5625 0l0 -1.71875l-0.109375 0q-0.359375 0.765625 -1.109375 1.3125q-0.75 0.53125 -1.90625 0.53125q-0.953125 0 -1.703125 -0.40625q-0.734375 -0.421875 -1.15625 -1.265625q-0.421875 -0.859375 -0.421875 -2.15625l0 -6.46875l1.5625 0l0 6.359375q0 1.109375 0.625 1.78125q0.625 0.65625 1.59375 0.65625q0.578125 0 1.1875 -0.296875q0.609375 -0.296875 1.015625 -0.90625q0.421875 -0.625 0.421875 -1.578125zm8.85437 -6.015625l0 1.328125l-5.28125 0l0 -1.328125l5.28125 0zm-3.734375 -2.4375l1.5625 0l0 9.6875q0 0.671875 0.1875 1.0q0.203125 0.328125 0.5 0.4375q0.3125 0.109375 0.65625 0.109375q0.265625 0 0.421875 -0.03125q0.171875 -0.03125 0.265625 -0.046875l0.328125 1.40625q-0.15625 0.046875 -0.453125 0.109375q-0.28125 0.0625 -0.71875 0.0625q-0.65625 0 -1.296875 -0.28125q-0.625 -0.28125 -1.046875 -0.859375q-0.40625 -0.59375 -0.40625 -1.46875l0 -10.125zm13.114197 4.71875l-1.40625 0.390625q-0.125 -0.34375 -0.390625 -0.671875q-0.25 -0.34375 -0.6875 -0.5625q-0.4375 -0.21875 -1.125 -0.21875q-0.9375 0 -1.5625 0.421875q-0.609375 0.421875 -0.609375 1.078125q0 0.59375 0.421875 0.9375q0.421875 0.328125 1.328125 0.546875l1.515625 0.375q1.359375 0.328125 2.03125 1.015625q0.671875 0.671875 0.671875 1.75q0 0.859375 -0.5 1.5625q-0.5 0.6875 -1.40625 1.09375q-0.890625 0.390625 -2.078125 0.390625q-1.546875 0 -2.578125 -0.671875q-1.015625 -0.6875 -1.28125 -1.984375l1.484375 -0.375q0.203125 0.828125 0.796875 1.234375q0.59375 0.40625 1.5625 0.40625q1.09375 0 1.734375 -0.453125q0.640625 -0.46875 0.640625 -1.125q0 -0.53125 -0.375 -0.890625q-0.359375 -0.375 -1.125 -0.546875l-1.703125 -0.390625q-1.390625 -0.34375 -2.046875 -1.03125q-0.65625 -0.703125 -0.65625 -1.765625q0 -0.859375 0.484375 -1.515625q0.484375 -0.65625 1.328125 -1.03125q0.859375 -0.390625 1.921875 -0.390625q1.515625 0 2.375 0.671875q0.875 0.65625 1.234375 1.75z" fill-rule="nonzero"/><path fill="#000000" fill-opacity="0.0" d="m426.062 82.64937l-0.06298828 30.299217" fill-rule="evenodd"/><path stroke="#102b2d" stroke-width="1.0" stroke-linejoin="round" stroke-linecap="butt" d="m426.062 82.64937l-0.05053711 24.299225" fill-rule="evenodd"/><path fill="#102b2d" stroke="#102b2d" stroke-width="1.0" stroke-linecap="butt" d="m424.35977 106.94516l1.642273 4.541527l1.6611633 -4.5346527z" fill-rule="evenodd"/><path fill="#ffffff" d="m500.9265 271.6299l0 0c0 -4.267517 29.174316 -7.7270203 65.16272 -7.7270203c35.988403 0 65.16272 3.4595032 65.16272 7.7270203l0 30.908142c0 4.267517 -29.174316 7.727051 -65.16272 7.727051c-35.988403 0 -65.16272 -3.4595337 -65.16272 -7.727051z" fill-rule="evenodd"/><path fill="#000000" fill-opacity="0.0" d="m631.25195 271.6299l0 0c0 4.267517 -29.174316 7.727051 -65.16272 7.727051c-35.988403 0 -65.16272 -3.4595337 -65.16272 -7.727051" fill-rule="evenodd"/><path fill="#000000" fill-opacity="0.0" d="m500.9265 271.6299l0 0c0 -4.267517 29.174316 -7.7270203 65.16272 -7.7270203c35.988403 0 65.16272 3.4595032 65.16272 7.7270203l0 30.908142c0 4.267517 -29.174316 7.727051 -65.16272 7.727051c-35.988403 0 -65.16272 -3.4595337 -65.16272 -7.727051z" fill-rule="evenodd"/><path stroke="#58da95" stroke-width="2.0" stroke-linejoin="round" stroke-linecap="butt" d="m631.25195 271.6299l0 0c0 4.267517 -29.174316 7.727051 -65.16272 7.727051c-35.988403 0 -65.16272 -3.4595337 -65.16272 -7.727051" fill-rule="evenodd"/><path stroke="#58da95" stroke-width="2.0" stroke-linejoin="round" stroke-linecap="butt" d="m500.9265 271.6299l0 0c0 -4.267517 29.174316 -7.7270203 65.16272 -7.7270203c35.988403 0 65.16272 3.4595032 65.16272 7.7270203l0 30.908142c0 4.267517 -29.174316 7.727051 -65.16272 7.727051c-35.988403 0 -65.16272 -3.4595337 -65.16272 -7.727051z" fill-rule="evenodd"/><path fill="#102b2d" d="m526.25366 295.7475l0 -9.6875l3.390625 0q1.015625 0 1.671875 0.34375q0.65625 0.34375 0.96875 0.9375q0.328125 0.578125 0.328125 1.28125q0 0.625 -0.21875 1.03125q-0.21875 0.40625 -0.578125 0.65625q-0.359375 0.234375 -0.765625 0.34375l0 0.09375q0.4375 0.03125 0.890625 0.3125q0.453125 0.28125 0.75 0.8125q0.296875 0.53125 0.296875 1.296875q0 0.734375 -0.328125 1.3125q-0.328125 0.578125 -1.046875 0.921875q-0.703125 0.34375 -1.859375 0.34375l-3.5 0zm1.171875 -1.046875l2.328125 0q1.15625 0 1.640625 -0.4375q0.484375 -0.453125 0.484375 -1.09375q0 -0.484375 -0.25 -0.90625q-0.25 -0.421875 -0.71875 -0.671875q-0.453125 -0.25 -1.09375 -0.25l-2.390625 0l0 3.359375zm0 -4.390625l2.1875 0q0.53125 0 0.953125 -0.203125q0.421875 -0.203125 0.671875 -0.578125q0.265625 -0.390625 0.265625 -0.90625q0 -0.625 -0.453125 -1.078125q-0.4375 -0.453125 -1.40625 -0.453125l-2.21875 0l0 3.21875zm11.9366455 2.46875l0 -4.296875l1.109375 0l0 7.265625l-1.109375 0l0 -1.234375l-0.078125 0q-0.265625 0.5625 -0.8125 0.953125q-0.53125 0.375 -1.34375 0.375q-0.6875 0 -1.21875 -0.296875q-0.53125 -0.296875 -0.84375 -0.90625q-0.296875 -0.609375 -0.296875 -1.546875l0 -4.609375l1.125 0l0 4.546875q0 0.78125 0.4375 1.265625q0.453125 0.46875 1.15625 0.46875q0.40625 0 0.84375 -0.203125q0.4375 -0.21875 0.734375 -0.65625q0.296875 -0.453125 0.296875 -1.125zm3.1495361 2.96875l0 -7.265625l1.125 0l0 7.265625l-1.125 0zm0.578125 -8.484375q-0.328125 0 -0.5625 -0.21875q-0.234375 -0.21875 -0.234375 -0.53125q0 -0.3125 0.234375 -0.53125q0.234375 -0.234375 0.5625 -0.234375q0.328125 0 0.5625 0.234375q0.234375 0.21875 0.234375 0.53125q0 0.3125 -0.234375 0.53125q-0.234375 0.21875 -0.5625 0.21875zm3.7086182 -1.203125l0 9.6875l-1.125 0l0 -9.6875l1.125 0zm4.786682 9.84375q-0.90625 0 -1.609375 -0.453125q-0.6875 -0.46875 -1.078125 -1.3125q-0.390625 -0.859375 -0.390625 -2.0q0 -1.15625 0.390625 -2.0q0.390625 -0.84375 1.09375 -1.296875q0.703125 -0.453125 1.609375 -0.453125q0.71875 0 1.125 0.234375q0.421875 0.234375 0.640625 0.53125q0.21875 0.296875 0.34375 0.484375l0.09375 0l0 -3.578125l1.109375 0l0 9.6875l-1.078125 0l0 -1.109375l-0.125 0q-0.125 0.1875 -0.359375 0.5q-0.21875 0.296875 -0.640625 0.53125q-0.421875 0.234375 -1.125 0.234375zm0.15625 -1.015625q0.671875 0 1.125 -0.34375q0.46875 -0.359375 0.703125 -0.984375q0.25 -0.625 0.25 -1.453125q0 -0.8125 -0.234375 -1.421875q-0.234375 -0.609375 -0.703125 -0.953125q-0.46875 -0.34375 -1.140625 -0.34375q-0.71875 0 -1.1875 0.359375q-0.46875 0.359375 -0.703125 0.984375q-0.234375 0.609375 -0.234375 1.375q0 0.78125 0.234375 1.421875q0.25 0.625 0.71875 1.0q0.46875 0.359375 1.171875 0.359375zm17.068909 -5.8125l-1.171875 0q-0.09375 -0.5 -0.359375 -0.875q-0.25 -0.390625 -0.625 -0.65625q-0.359375 -0.265625 -0.8125 -0.390625q-0.4375 -0.140625 -0.921875 -0.140625q-0.890625 0 -1.609375 0.453125q-0.703125 0.4375 -1.125 1.3125q-0.40625 0.859375 -0.40625 2.125q0 1.25 0.40625 2.125q0.421875 0.859375 1.125 1.3125q0.71875 0.4375 1.609375 0.4375q0.484375 0 0.921875 -0.125q0.453125 -0.140625 0.8125 -0.390625q0.375 -0.265625 0.625 -0.65625q0.265625 -0.390625 0.359375 -0.890625l1.171875 0q-0.125 0.75 -0.484375 1.34375q-0.34375 0.578125 -0.875 0.984375q-0.515625 0.40625 -1.15625 0.625q-0.640625 0.203125 -1.375 0.203125q-1.25 0 -2.21875 -0.59375q-0.953125 -0.609375 -1.515625 -1.71875q-0.546875 -1.125 -0.546875 -2.65625q0 -1.53125 0.546875 -2.640625q0.5625 -1.125 1.515625 -1.734375q0.96875 -0.609375 2.21875 -0.609375q0.734375 0 1.375 0.21875q0.640625 0.203125 1.15625 0.625q0.53125 0.40625 0.875 1.0q0.359375 0.578125 0.484375 1.3125zm3.8808594 6.84375q-0.6875 0 -1.25 -0.265625q-0.5625 -0.265625 -0.890625 -0.765625q-0.328125 -0.5 -0.328125 -1.203125q0 -0.625 0.234375 -1.015625q0.25 -0.390625 0.65625 -0.609375q0.421875 -0.234375 0.921875 -0.34375q0.5 -0.109375 1.0 -0.171875q0.671875 -0.078125 1.078125 -0.125q0.421875 -0.046875 0.609375 -0.15625q0.1875 -0.109375 0.1875 -0.375l0 -0.046875q0 -0.703125 -0.390625 -1.078125q-0.375 -0.390625 -1.140625 -0.390625q-0.796875 0 -1.25 0.34375q-0.453125 0.34375 -0.640625 0.75l-1.0625 -0.375q0.28125 -0.671875 0.75 -1.03125q0.484375 -0.375 1.046875 -0.515625q0.5625 -0.15625 1.125 -0.15625q0.34375 0 0.796875 0.078125q0.453125 0.078125 0.875 0.34375q0.4375 0.25 0.71875 0.765625q0.296875 0.515625 0.296875 1.375l0 4.796875l-1.125 0l0 -0.984375l-0.0625 0q-0.109375 0.234375 -0.375 0.515625q-0.265625 0.265625 -0.703125 0.453125q-0.4375 0.1875 -1.078125 0.1875zm0.171875 -1.0q0.671875 0 1.125 -0.265625q0.453125 -0.265625 0.6875 -0.671875q0.234375 -0.40625 0.234375 -0.859375l0 -1.03125q-0.0625 0.09375 -0.3125 0.15625q-0.234375 0.0625 -0.546875 0.125q-0.3125 0.046875 -0.609375 0.078125q-0.28125 0.03125 -0.453125 0.0625q-0.4375 0.046875 -0.828125 0.171875q-0.375 0.125 -0.609375 0.375q-0.21875 0.25 -0.21875 0.6875q0 0.578125 0.4375 0.875q0.4375 0.296875 1.09375 0.296875zm8.156799 0.984375q-1.015625 0 -1.75 -0.484375q-0.734375 -0.484375 -1.140625 -1.328125q-0.390625 -0.859375 -0.390625 -1.9375q0 -1.109375 0.40625 -1.953125q0.40625 -0.859375 1.140625 -1.328125q0.734375 -0.484375 1.71875 -0.484375q0.765625 0 1.375 0.28125q0.625 0.28125 1.015625 0.796875q0.390625 0.5 0.484375 1.1875l-1.109375 0q-0.125 -0.5 -0.5625 -0.875q-0.4375 -0.390625 -1.1875 -0.390625q-0.640625 0 -1.140625 0.34375q-0.484375 0.328125 -0.765625 0.953125q-0.265625 0.609375 -0.265625 1.421875q0 0.84375 0.265625 1.46875q0.265625 0.625 0.75 0.96875q0.5 0.34375 1.15625 0.34375q0.4375 0 0.796875 -0.140625q0.359375 -0.15625 0.59375 -0.4375q0.25 -0.28125 0.359375 -0.6875l1.109375 0q-0.09375 0.640625 -0.46875 1.15625q-0.359375 0.515625 -0.96875 0.828125q-0.609375 0.296875 -1.421875 0.296875zm5.6122437 -4.53125l0 4.375l-1.125 0l0 -9.6875l1.125 0l0 3.546875l0.09375 0q0.25 -0.5625 0.765625 -0.890625q0.515625 -0.328125 1.375 -0.328125q0.734375 0 1.296875 0.296875q0.5625 0.296875 0.875 0.90625q0.3125 0.59375 0.3125 1.53125l0 4.625l-1.125 0l0 -4.546875q0 -0.859375 -0.453125 -1.328125q-0.4375 -0.484375 -1.234375 -0.484375q-0.546875 0 -0.984375 0.234375q-0.421875 0.234375 -0.671875 0.6875q-0.25 0.4375 -0.25 1.0625zm9.8133545 4.53125q-1.0625 0 -1.828125 -0.46875q-0.75 -0.46875 -1.15625 -1.3125q-0.40625 -0.84375 -0.40625 -1.953125q0 -1.109375 0.40625 -1.96875q0.40625 -0.859375 1.140625 -1.328125q0.734375 -0.484375 1.71875 -0.484375q0.578125 0 1.125 0.1875q0.546875 0.1875 1.0 0.609375q0.46875 0.421875 0.734375 1.125q0.265625 0.6875 0.265625 1.703125l0 0.484375l-5.59375 0l0 -0.96875l4.453125 0q0 -0.625 -0.25 -1.09375q-0.234375 -0.484375 -0.6875 -0.765625q-0.4375 -0.28125 -1.046875 -0.28125q-0.65625 0 -1.15625 0.328125q-0.484375 0.328125 -0.75 0.859375q-0.25 0.515625 -0.25 1.125l0 0.640625q0 0.828125 0.28125 1.40625q0.296875 0.5625 0.796875 0.859375q0.515625 0.28125 1.203125 0.28125q0.4375 0 0.78125 -0.125q0.359375 -0.125 0.625 -0.375q0.265625 -0.25 0.40625 -0.625l1.078125 0.296875q-0.171875 0.546875 -0.578125 0.96875q-0.40625 0.40625 -1.0 0.640625q-0.578125 0.234375 -1.3125 0.234375zm9.856018 -5.796875l-1.0 0.28125q-0.09375 -0.25 -0.28125 -0.484375q-0.1875 -0.25 -0.5 -0.40625q-0.3125 -0.15625 -0.796875 -0.15625q-0.65625 0 -1.109375 0.3125q-0.4375 0.3125 -0.4375 0.78125q0 0.40625 0.296875 0.65625q0.3125 0.234375 0.953125 0.390625l1.078125 0.265625q0.96875 0.234375 1.4375 0.734375q0.484375 0.484375 0.484375 1.234375q0 0.625 -0.359375 1.125q-0.34375 0.484375 -0.984375 0.78125q-0.640625 0.28125 -1.484375 0.28125q-1.109375 0 -1.84375 -0.484375q-0.734375 -0.484375 -0.921875 -1.40625l1.0625 -0.265625q0.140625 0.578125 0.5625 0.875q0.4375 0.296875 1.125 0.296875q0.78125 0 1.234375 -0.328125q0.46875 -0.34375 0.46875 -0.8125q0 -0.375 -0.265625 -0.625q-0.265625 -0.265625 -0.8125 -0.390625l-1.21875 -0.296875q-1.0 -0.234375 -1.46875 -0.734375q-0.46875 -0.5 -0.46875 -1.25q0 -0.609375 0.34375 -1.078125q0.359375 -0.484375 0.953125 -0.75q0.609375 -0.265625 1.375 -0.265625q1.078125 0 1.6875 0.46875q0.625 0.46875 0.890625 1.25z" fill-rule="nonzero"/><path fill="#000000" fill-opacity="0.0" d="m500.92642 232.50308l21.228363 29.35434" fill-rule="evenodd"/><path stroke="#102b2d" stroke-width="1.0" stroke-linejoin="round" stroke-linecap="butt" stroke-dasharray="4.0,3.0" d="m504.4424 237.36496l17.712372 24.492432" fill-rule="evenodd"/><path fill="#102b2d" stroke="#102b2d" stroke-width="1.0" stroke-linecap="butt" d="m505.78082 236.39703l-3.9977112 -2.7093658l1.3208923 4.6451874z" fill-rule="evenodd"/><path fill="#000000" fill-opacity="0.0" d="m492.69815 232.97658l22.362213 30.929123" fill-rule="evenodd"/><path stroke="#102b2d" stroke-width="1.0" stroke-linejoin="round" stroke-linecap="butt" stroke-dasharray="4.0,3.0" d="m492.69815 232.97658l18.84674 26.06688" fill-rule="evenodd"/><path fill="#102b2d" stroke="#102b2d" stroke-width="1.0" stroke-linecap="butt" d="m510.20636 260.01123l3.9974365 2.7098083l-1.3203735 -4.6453247z" fill-rule="evenodd"/><path fill="#000000" fill-opacity="0.0" d="m430.86353 237.32803l0 83.84253" fill-rule="evenodd"/><path stroke="#102b2d" stroke-width="1.0" stroke-linejoin="round" stroke-linecap="butt" stroke-dasharray="4.0,3.0" d="m430.86353 237.32802l0 77.842514" fill-rule="evenodd"/><path fill="#102b2d" stroke="#102b2d" stroke-width="1.0" stroke-linecap="butt" d="m429.2118 315.17053l1.6517334 4.5381165l1.6517334 -4.5381165z" fill-rule="evenodd"/><path fill="#000000" fill-opacity="0.0" d="m421.9134 237.32803l0 83.84253" fill-rule="evenodd"/><path stroke="#102b2d" stroke-width="1.0" stroke-linejoin="round" stroke-linecap="butt" stroke-dasharray="4.0,3.0" d="m421.9134 243.32802l0 77.842514" fill-rule="evenodd"/><path fill="#102b2d" stroke="#102b2d" stroke-width="1.0" stroke-linecap="butt" d="m423.56512 243.32802l-1.6517334 -4.538086l-1.6517334 4.538086z" fill-rule="evenodd"/><path fill="#000000" fill-opacity="0.0" d="m250.20998 386.99213l343.4016 0l0 42.015747l-343.4016 0z" fill-rule="evenodd"/><path fill="#434343" d="m362.1361 413.9121l0 -13.5625l4.75 0q1.40625 0 2.328125 0.484375q0.921875 0.484375 1.375 1.3125q0.453125 0.8125 0.453125 1.796875q0 0.875 -0.3125 1.453125q-0.296875 0.5625 -0.796875 0.90625q-0.5 0.328125 -1.09375 0.484375l0 0.125q0.625 0.046875 1.25 0.453125q0.640625 0.390625 1.0625 1.140625q0.421875 0.734375 0.421875 1.796875q0 1.03125 -0.46875 1.84375q-0.453125 0.8125 -1.453125 1.296875q-1.0 0.46875 -2.609375 0.46875l-4.90625 0zm1.640625 -1.453125l3.265625 0q1.609375 0 2.28125 -0.625q0.6875 -0.625 0.6875 -1.53125q0 -0.6875 -0.359375 -1.265625q-0.34375 -0.59375 -1.0 -0.9375q-0.640625 -0.359375 -1.53125 -0.359375l-3.34375 0l0 4.71875zm0 -6.15625l3.046875 0q0.75 0 1.34375 -0.28125q0.609375 -0.296875 0.953125 -0.828125q0.359375 -0.53125 0.359375 -1.25q0 -0.890625 -0.625 -1.515625q-0.625 -0.625 -1.96875 -0.625l-3.109375 0l0 4.5zm16.69983 3.453125l0 -6.015625l1.5625 0l0 10.171875l-1.5625 0l0 -1.71875l-0.109375 0q-0.359375 0.765625 -1.109375 1.3125q-0.75 0.53125 -1.90625 0.53125q-0.953125 0 -1.703125 -0.40625q-0.734375 -0.421875 -1.15625 -1.265625q-0.421875 -0.859375 -0.421875 -2.15625l0 -6.46875l1.5625 0l0 6.359375q0 1.109375 0.625 1.78125q0.625 0.65625 1.59375 0.65625q0.578125 0 1.1875 -0.296875q0.609375 -0.296875 1.015625 -0.90625q0.421875 -0.625 0.421875 -1.578125zm4.4325256 4.15625l0 -10.171875l1.5625 0l0 10.171875l-1.5625 0zm0.78125 -11.875q-0.453125 0 -0.78125 -0.3125q-0.328125 -0.3125 -0.328125 -0.75q0 -0.4375 0.328125 -0.75q0.328125 -0.3125 0.78125 -0.3125q0.46875 0 0.796875 0.3125q0.328125 0.3125 0.328125 0.75q0 0.4375 -0.328125 0.75q-0.328125 0.3125 -0.796875 0.3125zm5.2068787 -1.6875l0 13.5625l-1.5625 0l0 -13.5625l1.5625 0zm6.706848 13.78125q-1.28125 0 -2.265625 -0.640625q-0.96875 -0.65625 -1.515625 -1.828125q-0.546875 -1.1875 -0.546875 -2.8125q0 -1.609375 0.546875 -2.78125q0.546875 -1.1875 1.53125 -1.828125q0.984375 -0.640625 2.265625 -0.640625q1.0 0 1.578125 0.328125q0.578125 0.328125 0.875 0.75q0.3125 0.40625 0.484375 0.671875l0.140625 0l0 -5.0l1.5625 0l0 13.5625l-1.515625 0l0 -1.5625l-0.1875 0q-0.171875 0.28125 -0.484375 0.703125q-0.3125 0.421875 -0.90625 0.75q-0.59375 0.328125 -1.5625 0.328125zm0.203125 -1.40625q0.9375 0 1.578125 -0.484375q0.65625 -0.5 1.0 -1.375q0.34375 -0.890625 0.34375 -2.046875q0 -1.140625 -0.34375 -1.984375q-0.328125 -0.859375 -0.984375 -1.34375q-0.640625 -0.484375 -1.59375 -0.484375q-1.0 0 -1.65625 0.515625q-0.65625 0.5 -0.984375 1.375q-0.328125 0.859375 -0.328125 1.921875q0 1.09375 0.328125 1.984375q0.34375 0.875 1.0 1.40625q0.65625 0.515625 1.640625 0.515625zm12.984222 1.1875l0 -13.5625l4.59375 0q1.59375 0 2.609375 0.578125q1.015625 0.5625 1.5 1.546875q0.5 0.96875 0.5 2.15625q0 1.203125 -0.5 2.1875q-0.484375 0.984375 -1.5 1.5625q-1.0 0.578125 -2.59375 0.578125l-3.28125 0l0 -1.453125l3.234375 0q1.09375 0 1.75 -0.375q0.671875 -0.390625 0.96875 -1.03125q0.296875 -0.640625 0.296875 -1.46875q0 -0.8125 -0.296875 -1.453125q-0.296875 -0.640625 -0.96875 -1.0q-0.671875 -0.375 -1.78125 -0.375l-2.890625 0l0 12.109375l-1.640625 0zm13.20517 -13.5625l0 13.5625l-1.5625 0l0 -13.5625l1.5625 0zm5.8475037 13.796875q-0.96875 0 -1.765625 -0.359375q-0.78125 -0.375 -1.25 -1.0625q-0.453125 -0.703125 -0.453125 -1.703125q0 -0.875 0.34375 -1.421875q0.34375 -0.546875 0.921875 -0.859375q0.578125 -0.3125 1.265625 -0.46875q0.703125 -0.15625 1.421875 -0.25q0.921875 -0.109375 1.5 -0.171875q0.578125 -0.0625 0.84375 -0.21875q0.28125 -0.15625 0.28125 -0.53125l0 -0.046875q0 -0.984375 -0.546875 -1.53125q-0.53125 -0.546875 -1.609375 -0.546875q-1.109375 0 -1.75 0.5q-0.640625 0.484375 -0.890625 1.046875l-1.484375 -0.53125q0.390625 -0.921875 1.046875 -1.4375q0.671875 -0.53125 1.46875 -0.734375q0.796875 -0.21875 1.5625 -0.21875q0.484375 0 1.125 0.125q0.640625 0.109375 1.234375 0.46875q0.609375 0.359375 1.0 1.078125q0.40625 0.71875 0.40625 1.9375l0 6.703125l-1.5625 0l0 -1.375l-0.078125 0q-0.171875 0.328125 -0.546875 0.703125q-0.359375 0.375 -0.984375 0.640625q-0.609375 0.265625 -1.5 0.265625zm0.25 -1.40625q0.921875 0 1.5625 -0.359375q0.640625 -0.359375 0.96875 -0.9375q0.328125 -0.578125 0.328125 -1.21875l0 -1.421875q-0.109375 0.109375 -0.453125 0.21875q-0.328125 0.09375 -0.765625 0.15625q-0.421875 0.0625 -0.828125 0.125q-0.40625 0.046875 -0.65625 0.078125q-0.609375 0.078125 -1.140625 0.265625q-0.53125 0.171875 -0.859375 0.515625q-0.3125 0.34375 -0.3125 0.9375q0 0.8125 0.609375 1.234375q0.609375 0.40625 1.546875 0.40625zm11.708282 -9.0l0 1.328125l-5.28125 0l0 -1.328125l5.28125 0zm-3.734375 -2.4375l1.5625 0l0 9.6875q0 0.671875 0.1875 1.0q0.203125 0.328125 0.5 0.4375q0.3125 0.109375 0.65625 0.109375q0.265625 0 0.421875 -0.03125q0.171875 -0.03125 0.265625 -0.046875l0.328125 1.40625q-0.15625 0.046875 -0.453125 0.109375q-0.28125 0.0625 -0.71875 0.0625q-0.65625 0 -1.296875 -0.28125q-0.625 -0.28125 -1.046875 -0.859375q-0.40625 -0.59375 -0.40625 -1.46875l0 -10.125zm10.62793 2.4375l0 1.328125l-5.484375 0l0 -1.328125l5.484375 0zm-3.84375 10.171875l0 -11.578125q0 -0.875 0.40625 -1.453125q0.40625 -0.59375 1.0625 -0.875q0.65625 -0.296875 1.390625 -0.296875q0.578125 0 0.9375 0.09375q0.359375 0.09375 0.546875 0.171875l-0.453125 1.34375q-0.125 -0.03125 -0.328125 -0.09375q-0.203125 -0.0625 -0.546875 -0.0625q-0.78125 0 -1.125 0.390625q-0.328125 0.390625 -0.328125 1.15625l0 11.203125l-1.5625 0zm9.744446 0.21875q-1.375 0 -2.421875 -0.65625q-1.03125 -0.65625 -1.609375 -1.828125q-0.578125 -1.1875 -0.578125 -2.765625q0 -1.59375 0.578125 -2.78125q0.578125 -1.1875 1.609375 -1.84375q1.046875 -0.65625 2.421875 -0.65625q1.375 0 2.40625 0.65625q1.046875 0.65625 1.625 1.84375q0.578125 1.1875 0.578125 2.78125q0 1.578125 -0.578125 2.765625q-0.578125 1.171875 -1.625 1.828125q-1.03125 0.65625 -2.40625 0.65625zm0 -1.40625q1.046875 0 1.71875 -0.53125q0.6875 -0.546875 1.0 -1.421875q0.328125 -0.875 0.328125 -1.890625q0 -1.03125 -0.328125 -1.90625q-0.3125 -0.875 -1.0 -1.421875q-0.671875 -0.546875 -1.71875 -0.546875q-1.046875 0 -1.71875 0.546875q-0.671875 0.546875 -1.0 1.421875q-0.328125 0.875 -0.328125 1.90625q0 1.015625 0.328125 1.890625q0.328125 0.875 1.0 1.421875q0.671875 0.53125 1.71875 0.53125zm7.0052795 1.1875l0 -10.171875l1.5 0l0 1.53125l0.109375 0q0.28125 -0.75 1.0 -1.21875q0.734375 -0.46875 1.65625 -0.46875q0.171875 0 0.421875 0q0.265625 0 0.390625 0.015625l0 1.59375q-0.078125 -0.015625 -0.359375 -0.0625q-0.28125 -0.046875 -0.59375 -0.046875q-0.734375 0 -1.328125 0.3125q-0.578125 0.3125 -0.90625 0.859375q-0.328125 0.53125 -0.328125 1.21875l0 6.4375l-1.5625 0zm6.943207 0l0 -10.171875l1.5 0l0 1.578125l0.140625 0q0.3125 -0.8125 1.015625 -1.265625q0.71875 -0.453125 1.703125 -0.453125q1.015625 0 1.6875 0.453125q0.671875 0.453125 1.046875 1.265625l0.109375 0q0.390625 -0.78125 1.171875 -1.25q0.78125 -0.46875 1.875 -0.46875q1.359375 0 2.21875 0.859375q0.875 0.84375 0.875 2.640625l0 6.8125l-1.5625 0l0 -6.8125q0 -1.125 -0.625 -1.609375q-0.609375 -0.484375 -1.4375 -0.484375q-1.078125 0 -1.671875 0.65625q-0.578125 0.640625 -0.578125 1.625l0 6.625l-1.59375 0l0 -6.96875q0 -0.875 -0.5625 -1.40625q-0.5625 -0.53125 -1.453125 -0.53125q-0.609375 0 -1.140625 0.328125q-0.515625 0.328125 -0.84375 0.90625q-0.3125 0.5625 -0.3125 1.3125l0 6.359375l-1.5625 0z" fill-rule="nonzero"/><path fill="#ffffff" d="m684.51996 320.76117l108.37988 0l0 44.732574c-54.18994 0 -54.18994 17.043945 -108.37988 7.359894z" fill-rule="evenodd"/><path stroke="#ff9900" stroke-width="1.0" stroke-linejoin="round" stroke-linecap="butt" d="m684.51996 320.76117l108.37988 0l0 44.732574c-54.18994 0 -54.18994 17.043945 -108.37988 7.359894z" fill-rule="evenodd"/><path fill="#102b2d" d="m695.628 348.98746l0 -11.640625l3.9375 0q1.359375 0 2.234375 0.5q0.875 0.484375 1.296875 1.328125q0.421875 0.828125 0.421875 1.859375q0 1.03125 -0.421875 1.875q-0.421875 0.828125 -1.296875 1.328125q-0.859375 0.5 -2.21875 0.5l-2.8125 0l0 -1.25l2.765625 0q0.9375 0 1.5 -0.3125q0.578125 -0.328125 0.828125 -0.875q0.265625 -0.5625 0.265625 -1.265625q0 -0.703125 -0.265625 -1.25q-0.25 -0.546875 -0.828125 -0.859375q-0.5625 -0.328125 -1.515625 -0.328125l-2.484375 0l0 10.390625l-1.40625 0zm9.987122 0l0 -8.734375l1.28125 0l0 1.328125l0.09375 0q0.25 -0.65625 0.875 -1.046875q0.625 -0.40625 1.40625 -0.40625q0.140625 0 0.359375 0q0.234375 0 0.34375 0.015625l0 1.359375q-0.078125 -0.015625 -0.3125 -0.046875q-0.234375 -0.03125 -0.515625 -0.03125q-0.625 0 -1.125 0.265625q-0.5 0.25 -0.796875 0.71875q-0.28125 0.46875 -0.28125 1.0625l0 5.515625l-1.328125 0zm9.213013 0.1875q-1.171875 0 -2.0625 -0.5625q-0.890625 -0.5625 -1.390625 -1.578125q-0.5 -1.015625 -0.5 -2.359375q0 -1.375 0.5 -2.390625q0.5 -1.015625 1.390625 -1.578125q0.890625 -0.5625 2.0625 -0.5625q1.1875 0 2.078125 0.5625q0.890625 0.5625 1.390625 1.578125q0.5 1.015625 0.5 2.390625q0 1.34375 -0.5 2.359375q-0.5 1.015625 -1.390625 1.578125q-0.890625 0.5625 -2.078125 0.5625zm0 -1.203125q0.90625 0 1.484375 -0.453125q0.578125 -0.46875 0.859375 -1.21875q0.28125 -0.75 0.28125 -1.625q0 -0.875 -0.28125 -1.625q-0.28125 -0.765625 -0.859375 -1.234375q-0.578125 -0.46875 -1.484375 -0.46875q-0.890625 0 -1.46875 0.46875q-0.578125 0.46875 -0.859375 1.234375q-0.28125 0.75 -0.28125 1.625q0 0.875 0.28125 1.625q0.28125 0.75 0.859375 1.21875q0.578125 0.453125 1.46875 0.453125zm12.820923 -7.71875l-3.21875 8.734375l-1.375 0l-3.21875 -8.734375l1.453125 0l2.40625 6.96875l0.09375 0l2.40625 -6.96875l1.453125 0zm5.1220703 8.921875q-1.265625 0 -2.1875 -0.5625q-0.90625 -0.5625 -1.40625 -1.5625q-0.484375 -1.015625 -0.484375 -2.359375q0 -1.34375 0.484375 -2.359375q0.5 -1.03125 1.375 -1.609375q0.890625 -0.578125 2.078125 -0.578125q0.6875 0 1.34375 0.234375q0.671875 0.21875 1.21875 0.734375q0.546875 0.5 0.859375 1.34375q0.328125 0.828125 0.328125 2.046875l0 0.578125l-6.734375 0l0 -1.15625l5.375 0q0 -0.75 -0.296875 -1.328125q-0.296875 -0.578125 -0.828125 -0.90625q-0.53125 -0.34375 -1.265625 -0.34375q-0.796875 0 -1.390625 0.40625q-0.578125 0.390625 -0.890625 1.03125q-0.3125 0.625 -0.3125 1.34375l0 0.765625q0 0.984375 0.34375 1.671875q0.34375 0.6875 0.953125 1.046875q0.625 0.359375 1.4375 0.359375q0.53125 0 0.953125 -0.15625q0.421875 -0.15625 0.734375 -0.453125q0.3125 -0.3125 0.484375 -0.765625l1.296875 0.375q-0.203125 0.65625 -0.6875 1.15625q-0.484375 0.484375 -1.203125 0.765625q-0.703125 0.28125 -1.578125 0.28125zm6.989929 -5.4375l0 5.25l-1.328125 0l0 -8.734375l1.28125 0l0 1.375l0.125 0q0.296875 -0.671875 0.921875 -1.078125q0.625 -0.40625 1.625 -0.40625q0.875 0 1.53125 0.359375q0.671875 0.359375 1.046875 1.09375q0.375 0.734375 0.375 1.84375l0 5.546875l-1.34375 0l0 -5.453125q0 -1.03125 -0.53125 -1.609375q-0.53125 -0.578125 -1.46875 -0.578125q-0.640625 0 -1.15625 0.28125q-0.5 0.28125 -0.796875 0.8125q-0.28125 0.53125 -0.28125 1.296875zm10.5979 5.453125q-0.828125 0 -1.515625 -0.3125q-0.671875 -0.3125 -1.078125 -0.90625q-0.390625 -0.609375 -0.390625 -1.46875q0 -0.75 0.296875 -1.21875q0.296875 -0.46875 0.78125 -0.734375q0.5 -0.265625 1.09375 -0.390625q0.609375 -0.140625 1.21875 -0.21875q0.796875 -0.09375 1.296875 -0.140625q0.5 -0.0625 0.71875 -0.1875q0.234375 -0.140625 0.234375 -0.46875l0 -0.046875q0 -0.84375 -0.453125 -1.296875q-0.453125 -0.46875 -1.390625 -0.46875q-0.953125 0 -1.5 0.421875q-0.546875 0.421875 -0.765625 0.890625l-1.28125 -0.453125q0.34375 -0.796875 0.90625 -1.234375q0.578125 -0.453125 1.25 -0.625q0.6875 -0.1875 1.34375 -0.1875q0.421875 0 0.96875 0.109375q0.546875 0.09375 1.0625 0.40625q0.515625 0.296875 0.859375 0.921875q0.34375 0.609375 0.34375 1.65625l0 5.75l-1.34375 0l0 -1.1875l-0.0625 0q-0.140625 0.296875 -0.46875 0.625q-0.3125 0.3125 -0.84375 0.546875q-0.515625 0.21875 -1.28125 0.21875zm0.203125 -1.203125q0.796875 0 1.34375 -0.3125q0.546875 -0.3125 0.828125 -0.796875q0.28125 -0.5 0.28125 -1.046875l0 -1.234375q-0.078125 0.109375 -0.375 0.1875q-0.28125 0.078125 -0.65625 0.140625q-0.375 0.0625 -0.71875 0.109375q-0.34375 0.03125 -0.5625 0.0625q-0.53125 0.078125 -0.984375 0.234375q-0.453125 0.140625 -0.734375 0.4375q-0.265625 0.296875 -0.265625 0.8125q0 0.703125 0.515625 1.0625q0.53125 0.34375 1.328125 0.34375zm7.585144 -4.25l0 5.25l-1.328125 0l0 -8.734375l1.28125 0l0 1.375l0.125 0q0.296875 -0.671875 0.921875 -1.078125q0.625 -0.40625 1.625 -0.40625q0.875 0 1.53125 0.359375q0.671875 0.359375 1.046875 1.09375q0.375 0.734375 0.375 1.84375l0 5.546875l-1.34375 0l0 -5.453125q0 -1.03125 -0.53125 -1.609375q-0.53125 -0.578125 -1.46875 -0.578125q-0.640625 0 -1.15625 0.28125q-0.5 0.28125 -0.796875 0.8125q-0.28125 0.53125 -0.28125 1.296875zm11.56665 5.4375q-1.21875 0 -2.109375 -0.578125q-0.890625 -0.59375 -1.375 -1.609375q-0.46875 -1.015625 -0.46875 -2.3125q0 -1.328125 0.484375 -2.34375q0.5 -1.03125 1.375 -1.609375q0.890625 -0.578125 2.078125 -0.578125q0.921875 0 1.65625 0.34375q0.734375 0.34375 1.203125 0.953125q0.484375 0.609375 0.59375 1.4375l-1.34375 0q-0.15625 -0.59375 -0.6875 -1.0625q-0.515625 -0.46875 -1.40625 -0.46875q-0.78125 0 -1.375 0.40625q-0.578125 0.40625 -0.90625 1.140625q-0.328125 0.734375 -0.328125 1.734375q0 1.0 0.3125 1.75q0.328125 0.75 0.921875 1.171875q0.59375 0.421875 1.375 0.421875q0.53125 0 0.953125 -0.1875q0.421875 -0.1875 0.71875 -0.515625q0.296875 -0.34375 0.421875 -0.828125l1.34375 0q-0.109375 0.78125 -0.5625 1.390625q-0.4375 0.609375 -1.171875 0.984375q-0.734375 0.359375 -1.703125 0.359375zm9.056702 0q-1.265625 0 -2.1875 -0.5625q-0.90625 -0.5625 -1.40625 -1.5625q-0.484375 -1.015625 -0.484375 -2.359375q0 -1.34375 0.484375 -2.359375q0.5 -1.03125 1.375 -1.609375q0.890625 -0.578125 2.078125 -0.578125q0.6875 0 1.34375 0.234375q0.671875 0.21875 1.21875 0.734375q0.546875 0.5 0.859375 1.34375q0.328125 0.828125 0.328125 2.046875l0 0.578125l-6.734375 0l0 -1.15625l5.375 0q0 -0.75 -0.296875 -1.328125q-0.296875 -0.578125 -0.828125 -0.90625q-0.53125 -0.34375 -1.265625 -0.34375q-0.796875 0 -1.390625 0.40625q-0.578125 0.390625 -0.890625 1.03125q-0.3125 0.625 -0.3125 1.34375l0 0.765625q0 0.984375 0.34375 1.671875q0.34375 0.6875 0.953125 1.046875q0.625 0.359375 1.4375 0.359375q0.53125 0 0.953125 -0.15625q0.421875 -0.15625 0.734375 -0.453125q0.3125 -0.3125 0.484375 -0.765625l1.296875 0.375q-0.203125 0.65625 -0.6875 1.15625q-0.484375 0.484375 -1.203125 0.765625q-0.703125 0.28125 -1.578125 0.28125z" fill-rule="nonzero"/><path fill="#000000" fill-opacity="0.0" d="m545.20734 348.6509l139.30713 0" fill-rule="evenodd"/><path stroke="#102b2d" stroke-width="1.0" stroke-linejoin="round" stroke-linecap="butt" d="m545.20734 348.6509l133.30713 0" fill-rule="evenodd"/><path fill="#102b2d" stroke="#102b2d" stroke-width="1.0" stroke-linecap="butt" d="m678.51447 350.30264l4.538086 -1.6517334l-4.538086 -1.6517334z" fill-rule="evenodd"/><path fill="#ffffff" d="m198.5433 356.70078l0 -191.49605l24.944885 0l0 191.49605z" fill-rule="evenodd"/><path stroke="#cccccc" stroke-width="1.0" stroke-linejoin="round" stroke-linecap="butt" d="m198.5433 356.70078l0 -191.49605l24.944885 0l0 191.49605z" fill-rule="evenodd"/><path fill="#102b2d" d="m206.12825 286.90344l9.6875 0l0 1.171875l-9.6875 0l0 -1.171875zm5.3125 -3.3182983l4.375 0l0 1.125l-7.265625 0l0 -1.078125l1.125 0l0 -0.109375q-0.546875 -0.25 -0.875 -0.765625q-0.34375 -0.53125 -0.34375 -1.34375q0 -0.75 0.296875 -1.296875q0.296875 -0.546875 0.90625 -0.859375q0.609375 -0.3125 1.53125 -0.3125l4.625 0l0 1.125l-4.546875 0q-0.859375 0 -1.328125 0.453125q-0.484375 0.4375 -0.484375 1.203125q0 0.546875 0.234375 0.96875q0.234375 0.40625 0.6875 0.65625q0.4375 0.234375 1.0625 0.234375zm-2.890625 -9.846985l0.9375 0l0 3.765625l-0.9375 0l0 -3.765625zm-1.75 2.671875l0 -1.109375l6.9375 0q0.46875 0 0.703125 -0.140625q0.234375 -0.140625 0.3125 -0.359375q0.078125 -0.21875 0.078125 -0.46875q0 -0.1875 -0.015625 -0.296875q-0.03125 -0.125 -0.046875 -0.203125l1.015625 -0.21875q0.03125 0.109375 0.078125 0.3125q0.046875 0.203125 0.046875 0.515625q0 0.46875 -0.203125 0.921875q-0.203125 0.453125 -0.609375 0.75q-0.421875 0.296875 -1.0625 0.296875l-7.234375 0zm9.171875 -7.333435q0 1.0625 -0.46875 1.828125q-0.46875 0.75 -1.3125 1.15625q-0.84375 0.40625 -1.953125 0.40625q-1.109375 0 -1.96875 -0.40625q-0.859375 -0.40625 -1.328125 -1.140625q-0.484375 -0.734375 -0.484375 -1.71875q0 -0.578125 0.1875 -1.125q0.1875 -0.546875 0.609375 -1.0q0.421875 -0.46875 1.125 -0.734375q0.6875 -0.265625 1.703125 -0.265625l0.484375 0l0 5.59375l-0.96875 0l0 -4.453125q-0.625 0 -1.09375 0.25q-0.484375 0.234375 -0.765625 0.6875q-0.28125 0.4375 -0.28125 1.046875q0 0.65625 0.328125 1.15625q0.328125 0.484375 0.859375 0.75q0.515625 0.25 1.125 0.25l0.640625 0q0.828125 0 1.40625 -0.28125q0.5625 -0.296875 0.859375 -0.796875q0.28125 -0.515625 0.28125 -1.203125q0 -0.4375 -0.125 -0.78125q-0.125 -0.359375 -0.375 -0.625q-0.25 -0.265625 -0.625 -0.40625l0.296875 -1.078125q0.546875 0.171875 0.96875 0.578125q0.40625 0.40625 0.640625 1.0q0.234375 0.578125 0.234375 1.3125zm-0.15625 -4.699768l-7.265625 0l0 -1.078125l1.09375 0l0 -0.078125q-0.546875 -0.203125 -0.875 -0.71875q-0.34375 -0.53125 -0.34375 -1.1875q0 -0.109375 0.015625 -0.296875q0 -0.1875 0.015625 -0.28125l1.125 0q-0.015625 0.0625 -0.03125 0.265625q-0.03125 0.1875 -0.03125 0.421875q0 0.515625 0.21875 0.9375q0.21875 0.40625 0.609375 0.65625q0.375 0.234375 0.875 0.234375l4.59375 0l0 1.125zm-7.265625 -8.664825l0.9375 0l0 3.921875l-0.9375 0l0 -3.921875zm7.265625 2.75l-8.265625 0q-0.625 0 -1.046875 -0.28125q-0.421875 -0.296875 -0.625 -0.765625q-0.203125 -0.46875 -0.203125 -1.0q0 -0.40625 0.0625 -0.65625q0.0625 -0.265625 0.125 -0.40625l0.953125 0.328125q-0.015625 0.078125 -0.0625 0.234375q-0.046875 0.140625 -0.046875 0.390625q0 0.546875 0.28125 0.796875q0.28125 0.25 0.8125 0.25l8.015625 0l0 1.109375zm0.171875 -6.2411194q0 0.6875 -0.265625 1.25q-0.265625 0.5625 -0.765625 0.890625q-0.5 0.328125 -1.203125 0.328125q-0.625 0 -1.015625 -0.234375q-0.390625 -0.25 -0.609375 -0.65625q-0.234375 -0.421875 -0.34375 -0.921875q-0.109375 -0.5 -0.171875 -1.0q-0.078125 -0.671875 -0.125 -1.078125q-0.046875 -0.421875 -0.15625 -0.609375q-0.109375 -0.1875 -0.375 -0.1875l-0.046875 0q-0.703125 0 -1.078125 0.390625q-0.390625 0.375 -0.390625 1.140625q0 0.796875 0.34375 1.25q0.34375 0.453125 0.75 0.640625l-0.375 1.0625q-0.671875 -0.28125 -1.03125 -0.75q-0.375 -0.484375 -0.515625 -1.046875q-0.15625 -0.5625 -0.15625 -1.125q0 -0.34375 0.078125 -0.796875q0.078125 -0.453125 0.34375 -0.875q0.25 -0.4375 0.765625 -0.71875q0.515625 -0.296875 1.375 -0.296875l4.796875 0l0 1.125l-0.984375 0l0 0.0625q0.234375 0.109375 0.515625 0.375q0.265625 0.265625 0.453125 0.703125q0.1875 0.4375 0.1875 1.078125zm-1.0 -0.171875q0 -0.671875 -0.265625 -1.125q-0.265625 -0.453125 -0.671875 -0.6875q-0.40625 -0.234375 -0.859375 -0.234375l-1.03125 0q0.09375 0.0625 0.15625 0.3125q0.0625 0.234375 0.125 0.546875q0.046875 0.3125 0.078125 0.609375q0.03125 0.28125 0.0625 0.453125q0.046875 0.4375 0.171875 0.828125q0.125 0.375 0.375 0.609375q0.25 0.21875 0.6875 0.21875q0.578125 0 0.875 -0.4375q0.296875 -0.4375 0.296875 -1.09375zm0.984375 -8.156769q0 1.015625 -0.484375 1.75q-0.484375 0.734375 -1.328125 1.140625q-0.859375 0.390625 -1.9375 0.390625q-1.109375 0 -1.953125 -0.40625q-0.859375 -0.40625 -1.328125 -1.140625q-0.484375 -0.734375 -0.484375 -1.71875q0 -0.765625 0.28125 -1.375q0.28125 -0.625 0.796875 -1.015625q0.5 -0.390625 1.1875 -0.484375l0 1.109375q-0.5 0.125 -0.875 0.5625q-0.390625 0.4375 -0.390625 1.1875q0 0.640625 0.34375 1.140625q0.328125 0.484375 0.953125 0.765625q0.609375 0.265625 1.421875 0.265625q0.84375 0 1.46875 -0.265625q0.625 -0.265625 0.96875 -0.75q0.34375 -0.5 0.34375 -1.15625q0 -0.4375 -0.140625 -0.796875q-0.15625 -0.359375 -0.4375 -0.59375q-0.28125 -0.25 -0.6875 -0.359375l0 -1.109375q0.640625 0.09375 1.15625 0.46875q0.515625 0.359375 0.828125 0.96875q0.296875 0.609375 0.296875 1.421875zm0 -7.5497894q0 1.0625 -0.46875 1.828125q-0.46875 0.75 -1.3125 1.15625q-0.84375 0.40625 -1.953125 0.40625q-1.109375 0 -1.96875 -0.40625q-0.859375 -0.40625 -1.328125 -1.140625q-0.484375 -0.734375 -0.484375 -1.71875q0 -0.578125 0.1875 -1.125q0.1875 -0.546875 0.609375 -1.0q0.421875 -0.46875 1.125 -0.734375q0.6875 -0.265625 1.703125 -0.265625l0.484375 0l0 5.59375l-0.96875 0l0 -4.453125q-0.625 0 -1.09375 0.25q-0.484375 0.234375 -0.765625 0.6875q-0.28125 0.4375 -0.28125 1.046875q0 0.65625 0.328125 1.15625q0.328125 0.484375 0.859375 0.75q0.515625 0.25 1.125 0.25l0.640625 0q0.828125 0 1.40625 -0.28125q0.5625 -0.296875 0.859375 -0.796875q0.28125 -0.515625 0.28125 -1.203125q0 -0.4375 -0.125 -0.78125q-0.125 -0.359375 -0.375 -0.625q-0.25 -0.265625 -0.625 -0.40625l0.296875 -1.078125q0.546875 0.171875 0.96875 0.578125q0.40625 0.40625 0.640625 1.0q0.234375 0.578125 0.234375 1.3125z" fill-rule="nonzero"/><path fill="#000000" fill-opacity="0.0" d="m90.32021 227.06299l0 -170.20471l276.34644 0" fill-rule="evenodd"/><path stroke="#102b2d" stroke-width="1.0" stroke-linejoin="round" stroke-linecap="butt" stroke-dasharray="1.0,3.0" d="m90.32021 227.06299l0 -170.20471l270.34644 0" fill-rule="evenodd"/><path stroke="#102b2d" stroke-width="1.0" stroke-linecap="butt" d="m360.66666 58.51l4.5381165 -1.6517296l-4.5381165 -1.6517334z" fill-rule="evenodd"/><path fill="#000000" fill-opacity="0.0" d="m90.3189 28.981627l94.45669 0l0 35.55905l-94.45669 0z" fill-rule="evenodd"/><path fill="#102b2d" d="m100.334526 50.781628l1.546875 -7.265625l1.078125 0l-0.234375 1.09375l0.078125 0q0.3125 -0.546875 0.90625 -0.875q0.609375 -0.34375 1.265625 -0.34375q0.109375 0 0.28125 0.015625q0.1875 0 0.28125 0.015625l-0.234375 1.125q-0.0625 -0.015625 -0.25 -0.03125q-0.1875 -0.03125 -0.421875 -0.03125q-0.515625 0 -0.984375 0.21875q-0.453125 0.21875 -0.78125 0.609375q-0.328125 0.375 -0.4375 0.875l-0.96875 4.59375l-1.125 0zm7.7642517 0.15625q-1.0625 0 -1.71875 -0.46875q-0.65625 -0.46875 -0.890625 -1.3125q-0.21875 -0.84375 0.015625 -1.953125q0.234375 -1.109375 0.8125 -1.96875q0.59375 -0.859375 1.421875 -1.328125q0.84375 -0.484375 1.828125 -0.484375q0.578125 0 1.078125 0.1875q0.515625 0.1875 0.890625 0.609375q0.375 0.421875 0.484375 1.125q0.125 0.6875 -0.09375 1.703125l-0.109375 0.484375l-5.59375 0l0.203125 -0.96875l4.453125 0q0.140625 -0.625 0 -1.09375q-0.140625 -0.484375 -0.53125 -0.765625q-0.375 -0.28125 -0.984375 -0.28125q-0.65625 0 -1.21875 0.328125q-0.5625 0.328125 -0.9375 0.859375q-0.375 0.515625 -0.5 1.125l-0.140625 0.640625q-0.171875 0.828125 0 1.40625q0.171875 0.5625 0.609375 0.859375q0.453125 0.28125 1.140625 0.28125q0.4375 0 0.8125 -0.125q0.375 -0.125 0.6875 -0.375q0.328125 -0.25 0.546875 -0.625l1.015625 0.296875q-0.28125 0.546875 -0.78125 0.96875q-0.5 0.40625 -1.140625 0.640625q-0.625 0.234375 -1.359375 0.234375zm9.527893 -7.421875l-0.203125 0.9375l-3.921875 0l0.203125 -0.9375l3.921875 0zm-4.296875 7.265625l1.75 -8.265625q0.140625 -0.625 0.515625 -1.046875q0.375 -0.421875 0.890625 -0.625q0.515625 -0.203125 1.046875 -0.203125q0.40625 0 0.640625 0.0625q0.25 0.0625 0.375 0.125l-0.53125 0.953125q-0.0625 -0.015625 -0.203125 -0.0625q-0.140625 -0.046875 -0.390625 -0.046875q-0.546875 0 -0.859375 0.28125q-0.3125 0.28125 -0.421875 0.8125l-1.703125 8.015625l-1.109375 0zm7.0370483 0.15625q-1.0625 0 -1.71875 -0.46875q-0.65625 -0.46875 -0.890625 -1.3125q-0.21875 -0.84375 0.015625 -1.953125q0.234375 -1.109375 0.8125 -1.96875q0.59375 -0.859375 1.421875 -1.328125q0.84375 -0.484375 1.828125 -0.484375q0.578125 0 1.078125 0.1875q0.515625 0.1875 0.890625 0.609375q0.375 0.421875 0.484375 1.125q0.125 0.6875 -0.09375 1.703125l-0.109375 0.484375l-5.59375 0l0.203125 -0.96875l4.453125 0q0.140625 -0.625 0 -1.09375q-0.140625 -0.484375 -0.53125 -0.765625q-0.375 -0.28125 -0.984375 -0.28125q-0.65625 0 -1.21875 0.328125q-0.5625 0.328125 -0.9375 0.859375q-0.375 0.515625 -0.5 1.125l-0.140625 0.640625q-0.171875 0.828125 0 1.40625q0.171875 0.5625 0.609375 0.859375q0.453125 0.28125 1.140625 0.28125q0.4375 0 0.8125 -0.125q0.375 -0.125 0.6875 -0.375q0.328125 -0.25 0.546875 -0.625l1.015625 0.296875q-0.28125 0.546875 -0.78125 0.96875q-0.5 0.40625 -1.140625 0.640625q-0.625 0.234375 -1.359375 0.234375zm4.731018 -0.15625l1.546875 -7.265625l1.078125 0l-0.234375 1.09375l0.078125 0q0.3125 -0.546875 0.9062424 -0.875q0.609375 -0.34375 1.265625 -0.34375q0.109375 0 0.28125 0.015625q0.1875 0 0.28125 0.015625l-0.234375 1.125q-0.0625 -0.015625 -0.25 -0.03125q-0.1875 -0.03125 -0.421875 -0.03125q-0.515625 0 -0.984375 0.21875q-0.45311737 0.21875 -0.7812424 0.609375q-0.328125 0.375 -0.4375 0.875l-0.96875 4.59375l-1.125 0zm7.764244 0.15625q-1.0625 0 -1.71875 -0.46875q-0.65625 -0.46875 -0.890625 -1.3125q-0.21875 -0.84375 0.015625 -1.953125q0.234375 -1.109375 0.8125 -1.96875q0.59375 -0.859375 1.421875 -1.328125q0.84375 -0.484375 1.828125 -0.484375q0.578125 0 1.078125 0.1875q0.515625 0.1875 0.890625 0.609375q0.375 0.421875 0.484375 1.125q0.125 0.6875 -0.09375 1.703125l-0.109375 0.484375l-5.59375 0l0.203125 -0.96875l4.453125 0q0.140625 -0.625 0 -1.09375q-0.140625 -0.484375 -0.53125 -0.765625q-0.375 -0.28125 -0.984375 -0.28125q-0.65625 0 -1.21875 0.328125q-0.5625 0.328125 -0.9375 0.859375q-0.375 0.515625 -0.5 1.125l-0.140625 0.640625q-0.171875 0.828125 0 1.40625q0.171875 0.5625 0.609375 0.859375q0.453125 0.28125 1.140625 0.28125q0.4375 0 0.8125 -0.125q0.375 -0.125 0.6875 -0.375q0.328125 -0.25 0.546875 -0.625l1.015625 0.296875q-0.28125 0.546875 -0.78125 0.96875q-0.5 0.40625 -1.140625 0.640625q-0.625 0.234375 -1.359375 0.234375zm6.793518 -4.53125l-0.9375 4.375l-1.125 0l1.546875 -7.265625l1.078125 0l-0.234375 1.125l0.109375 0q0.359375 -0.546875 0.953125 -0.875q0.59375 -0.34375 1.40625 -0.34375q0.75 0 1.234375 0.296875q0.484375 0.296875 0.65625 0.90625q0.1875 0.609375 0 1.53125l-0.984375 4.625l-1.125 0l0.96875 -4.546875q0.1875 -0.859375 -0.15625 -1.328125q-0.34375 -0.484375 -1.109375 -0.484375q-0.546875 0 -1.015625 0.234375q-0.46875 0.234375 -0.8125 0.6875q-0.328125 0.4375 -0.453125 1.0625zm8.6595 4.53125q-1.015625 0 -1.65625 -0.484375q-0.625 -0.484375 -0.84375 -1.328125q-0.21875 -0.859375 0.015625 -1.9375q0.234375 -1.109375 0.8125 -1.953125q0.59375 -0.859375 1.421875 -1.328125q0.84375 -0.484375 1.828125 -0.484375q0.765625 0 1.3125 0.28125q0.5625 0.28125 0.84375 0.796875q0.296875 0.5 0.234375 1.1875l-1.109375 0q-0.015625 -0.5 -0.375 -0.875q-0.34375 -0.390625 -1.09375 -0.390625q-0.640625 0 -1.21875 0.34375q-0.5625 0.328125 -0.96875 0.953125q-0.390625 0.609375 -0.5625 1.421875q-0.1875 0.84375 -0.0625 1.46875q0.140625 0.625 0.5625 0.96875q0.421875 0.34375 1.078125 0.34375q0.4375 0 0.828125 -0.140625q0.390625 -0.15625 0.6875 -0.4375q0.296875 -0.28125 0.5 -0.6875l1.109375 0q-0.234375 0.640625 -0.71875 1.15625q-0.46875 0.515625 -1.140625 0.828125q-0.671875 0.296875 -1.484375 0.296875zm7.5497894 0q-1.0625 0 -1.71875 -0.46875q-0.65625 -0.46875 -0.890625 -1.3125q-0.21875 -0.84375 0.015625 -1.953125q0.234375 -1.109375 0.8125 -1.96875q0.59375 -0.859375 1.421875 -1.328125q0.84375 -0.484375 1.828125 -0.484375q0.578125 0 1.078125 0.1875q0.515625 0.1875 0.890625 0.609375q0.375 0.421875 0.484375 1.125q0.125 0.6875 -0.09375 1.703125l-0.109375 0.484375l-5.59375 0l0.203125 -0.96875l4.453125 0q0.140625 -0.625 0 -1.09375q-0.140625 -0.484375 -0.53125 -0.765625q-0.375 -0.28125 -0.984375 -0.28125q-0.65625 0 -1.21875 0.328125q-0.5625 0.328125 -0.9375 0.859375q-0.375 0.515625 -0.5 1.125l-0.140625 0.640625q-0.171875 0.828125 0 1.40625q0.171875 0.5625 0.609375 0.859375q0.453125 0.28125 1.140625 0.28125q0.4375 0 0.8125 -0.125q0.375 -0.125 0.6875 -0.375q0.328125 -0.25 0.546875 -0.625l1.015625 0.296875q-0.28125 0.546875 -0.78125 0.96875q-0.5 0.40625 -1.140625 0.640625q-0.625 0.234375 -1.359375 0.234375zm11.090393 -5.796875l-1.0625 0.28125q-0.046875 -0.25 -0.1875 -0.484375q-0.125 -0.25 -0.40625 -0.40625q-0.28125 -0.15625 -0.765625 -0.15625q-0.65625 0 -1.171875 0.3125q-0.5 0.3125 -0.609375 0.78125q-0.078125 0.40625 0.171875 0.65625q0.25 0.234375 0.859375 0.390625l1.015625 0.265625q0.921875 0.234375 1.296875 0.734375q0.375 0.484375 0.21875 1.234375q-0.140625 0.625 -0.59375 1.125q-0.453125 0.484375 -1.15625 0.78125q-0.703125 0.28125 -1.546875 0.28125q-1.109375 0 -1.75 -0.484375q-0.625 -0.484375 -0.609375 -1.40625l1.109375 -0.265625q0.015625 0.578125 0.375 0.875q0.375 0.296875 1.0625 0.296875q0.78125 0 1.3125 -0.328125q0.53125 -0.34375 0.640625 -0.8125q0.078125 -0.375 -0.140625 -0.625q-0.203125 -0.265625 -0.71875 -0.390625l-1.15625 -0.296875q-0.953125 -0.234375 -1.328125 -0.734375q-0.359375 -0.5 -0.1875 -1.25q0.125 -0.609375 0.578125 -1.078125q0.453125 -0.484375 1.109375 -0.75q0.65625 -0.265625 1.421875 -0.265625q1.078125 0 1.59375 0.46875q0.515625 0.46875 0.625 1.25z" fill-rule="nonzero"/></g></svg>