<?xml version="1.0" encoding="UTF-8" standalone="no"?>
<!DOCTYPE svg PUBLIC "-//W3C//DTD SVG 1.1//EN"
 "http://www.w3.org/Graphics/SVG/1.1/DTD/svg11.dtd">
<!-- Generated by graphviz version 2.47.2 (20210527.0053)
 -->
<!-- Pages: 1 -->
<svg width="493pt" height="407pt"
 viewBox="0.00 0.00 492.50 407.00" xmlns="http://www.w3.org/2000/svg" xmlns:xlink="http://www.w3.org/1999/xlink">
<g id="graph0" class="graph" transform="scale(1 1) rotate(0) translate(4 403)">
<polygon fill="white" stroke="transparent" points="-4,4 -4,-403 488.5,-403 488.5,4 -4,4"/>
<g id="clust2" class="cluster">
<title>cluster_invocation</title>
<polygon fill="none" stroke="black" points="8,-280 8,-355 384,-355 384,-280 8,-280"/>
<text text-anchor="middle" x="196" y="-339.8" font-family="Courier,monospace" font-size="14.00">invocation</text>
</g>
<!-- External Inputs -->
<g id="node1" class="node">
<title>External Inputs</title>
<text text-anchor="middle" x="326" y="-377.3" font-family="Times,serif" font-size="14.00">External Inputs</text>
</g>
<!-- configSource -->
<g id="node5" class="node">
<title>configSource</title>
<polygon fill="none" stroke="black" points="258,-324 142,-324 142,-288 258,-288 258,-324"/>
<text text-anchor="middle" x="200" y="-302.3" font-family="Courier,monospace" font-size="14.00">configSource</text>
</g>
<!-- External Inputs&#45;&gt;configSource -->
<g id="edge1" class="edge">
<title>External Inputs&#45;&gt;configSource</title>
<path fill="none" stroke="black" stroke-dasharray="5,2" d="M283.68,-362.99C278.32,-360.47 272.97,-357.79 268,-355 255.14,-347.79 241.74,-338.71 230.26,-330.39"/>
<polygon fill="black" stroke="black" points="232.02,-327.34 221.9,-324.22 227.87,-332.97 232.02,-327.34"/>
</g>
<!-- parameters -->
<g id="node6" class="node">
<title>parameters</title>
<polygon fill="none" stroke="black" points="375.5,-324 276.5,-324 276.5,-288 375.5,-288 375.5,-324"/>
<text text-anchor="middle" x="326" y="-302.3" font-family="Courier,monospace" font-size="14.00">parameters</text>
</g>
<!-- External Inputs&#45;&gt;parameters -->
<g id="edge2" class="edge">
<title>External Inputs&#45;&gt;parameters</title>
<path fill="none" stroke="black" stroke-dasharray="5,2" d="M326,-362.7C326,-354.25 326,-343.87 326,-334.37"/>
<polygon fill="black" stroke="black" points="329.5,-334.18 326,-324.18 322.5,-334.18 329.5,-334.18"/>
</g>
<!-- materials -->
<g id="node8" class="node">
<title>materials</title>
<polygon fill="none" stroke="black" points="484.5,-324 393.5,-324 393.5,-288 484.5,-288 484.5,-324"/>
<text text-anchor="middle" x="439" y="-302.3" font-family="Courier,monospace" font-size="14.00">materials</text>
</g>
<!-- External Inputs&#45;&gt;materials -->
<g id="edge3" class="edge">
<title>External Inputs&#45;&gt;materials</title>
<path fill="none" stroke="black" stroke-dasharray="5,2" d="M373.64,-362.94C378.62,-360.53 383.5,-357.88 388,-355 398.19,-348.48 408.17,-339.77 416.56,-331.57"/>
<polygon fill="black" stroke="black" points="419.24,-333.82 423.77,-324.25 414.26,-328.91 419.24,-333.82"/>
</g>
<!-- System Inputs -->
<g id="node2" class="node">
<title>System Inputs</title>
<text text-anchor="middle" x="70" y="-377.3" font-family="Times,serif" font-size="14.00">System Inputs</text>
</g>
<!-- environment -->
<g id="node7" class="node">
<title>environment</title>
<polygon fill="none" stroke="black" points="123.5,-324 16.5,-324 16.5,-288 123.5,-288 123.5,-324"/>
<text text-anchor="middle" x="70" y="-302.3" font-family="Courier,monospace" font-size="14.00">environment</text>
</g>
<!-- System Inputs&#45;&gt;environment -->
<g id="edge4" class="edge">
<title>System Inputs&#45;&gt;environment</title>
<path fill="none" stroke="black" stroke-dasharray="5,2" d="M70,-362.7C70,-354.25 70,-343.87 70,-334.37"/>
<polygon fill="black" stroke="black" points="73.5,-334.18 70,-324.18 66.5,-334.18 73.5,-334.18"/>
</g>
<!-- Evaluate -->
<g id="node3" class="node">
<title>Evaluate</title>
<text text-anchor="middle" x="208" y="-230.3" font-family="Times,serif" font-size="14.00">Evaluate</text>
</g>
<!-- buildConfig -->
<g id="node9" class="node">
<title>buildConfig</title>
<polygon fill="none" stroke="black" points="272.5,-180 165.5,-180 165.5,-144 272.5,-144 272.5,-180"/>
<text text-anchor="middle" x="219" y="-158.3" font-family="Courier,monospace" font-size="14.00">buildConfig</text>
</g>
<!-- Evaluate&#45;&gt;buildConfig -->
<g id="edge6" class="edge">
<title>Evaluate&#45;&gt;buildConfig</title>
<path fill="none" stroke="black" d="M210.72,-215.7C211.93,-207.98 213.39,-198.71 214.74,-190.11"/>
<polygon fill="black" stroke="black" points="218.22,-190.53 216.31,-180.1 211.3,-189.44 218.22,-190.53"/>
</g>
<!-- Execute -->
<g id="node4" class="node">
<title>Execute</title>
<text text-anchor="middle" x="260" y="-86.3" font-family="Times,serif" font-size="14.00">Execute</text>
</g>
<!-- subject -->
<g id="node10" class="node">
<title>subject</title>
<polygon fill="none" stroke="black" points="297,-36 223,-36 223,0 297,0 297,-36"/>
<text text-anchor="middle" x="260" y="-14.3" font-family="Courier,monospace" font-size="14.00">subject</text>
</g>
<!-- Execute&#45;&gt;subject -->
<g id="edge11" class="edge">
<title>Execute&#45;&gt;subject</title>
<path fill="none" stroke="black" d="M260,-71.7C260,-63.98 260,-54.71 260,-46.11"/>
<polygon fill="black" stroke="black" points="263.5,-46.1 260,-36.1 256.5,-46.1 263.5,-46.1"/>
</g>
<!-- configSource&#45;&gt;Evaluate -->
<g id="edge5" class="edge">
<title>configSource&#45;&gt;Evaluate</title>
<path fill="none" stroke="black" d="M201.98,-287.7C202.86,-279.98 203.92,-270.71 204.9,-262.11"/>
<polygon fill="black" stroke="black" points="208.39,-262.44 206.05,-252.1 201.43,-261.64 208.39,-262.44"/>
</g>
<!-- parameters&#45;&gt;Execute -->
<g id="edge7" class="edge">
<title>parameters&#45;&gt;Execute</title>
<path fill="none" stroke="black" d="M322.07,-287.86C315.11,-258.21 299.66,-195.53 282,-144 279.03,-135.33 275.35,-126.05 271.86,-117.71"/>
<polygon fill="black" stroke="black" points="275.05,-116.27 267.9,-108.45 268.62,-119.02 275.05,-116.27"/>
</g>
<!-- environment&#45;&gt;Execute -->
<g id="edge8" class="edge">
<title>environment&#45;&gt;Execute</title>
<path fill="none" stroke="black" d="M75.42,-287.85C86.28,-255.91 113.43,-186.7 157,-144 174.86,-126.5 199.66,-113.5 220.45,-104.75"/>
<polygon fill="black" stroke="black" points="222.01,-107.9 229.98,-100.92 219.4,-101.4 222.01,-107.9"/>
</g>
<!-- materials&#45;&gt;Execute -->
<g id="edge9" class="edge">
<title>materials&#45;&gt;Execute</title>
<path fill="none" stroke="black" d="M424.65,-287.85C393.17,-250.21 317.88,-160.2 281.04,-116.15"/>
<polygon fill="black" stroke="black" points="283.51,-113.66 274.41,-108.23 278.15,-118.15 283.51,-113.66"/>
</g>
<!-- buildConfig&#45;&gt;Execute -->
<g id="edge10" class="edge">
<title>buildConfig&#45;&gt;Execute</title>
<path fill="none" stroke="black" d="M229.13,-143.7C233.85,-135.64 239.56,-125.89 244.78,-116.98"/>
<polygon fill="black" stroke="black" points="247.95,-118.5 249.98,-108.1 241.91,-114.96 247.95,-118.5"/>
</g>
</g>
</svg>
