<svg width="503" height="140" viewBox="0 0 503 140" fill="none" xmlns="http://www.w3.org/2000/svg">
<path d="M220.748 25.77C198.788 25.77 185.734 36.628 185.734 52C185.734 65.664 195.006 72.618 209.524 75.546L227.824 79.206C235.754 80.792 239.048 84.208 239.048 89.332C239.048 96.286 233.436 99.824 223.066 99.824C212.208 99.824 201.472 94.944 193.298 85.306L182.684 98.604C191.59 108.242 205.254 114.342 222.09 114.342C242.708 114.342 256.006 104.46 256.006 87.258C256.006 74.204 247.71 67.128 232.582 64.078L215.502 60.662C206.718 58.954 202.814 56.148 202.814 50.292C202.814 44.07 208.914 40.288 219.528 40.288C230.02 40.288 237.828 43.582 246.49 51.878L256.494 39.556C247.222 30.528 236.242 25.77 220.748 25.77ZM287.013 27.112H270.421V113H333.007V97.994H287.013V27.112ZM376.703 25.77C354.743 25.77 341.689 36.628 341.689 52C341.689 65.664 350.961 72.618 365.479 75.546L383.779 79.206C391.709 80.792 395.003 84.208 395.003 89.332C395.003 96.286 389.391 99.824 379.021 99.824C368.163 99.824 357.427 94.944 349.253 85.306L338.639 98.604C347.545 108.242 361.209 114.342 378.045 114.342C398.663 114.342 411.961 104.46 411.961 87.258C411.961 74.204 403.665 67.128 388.537 64.078L371.457 60.662C362.673 58.954 358.769 56.148 358.769 50.292C358.769 44.07 364.869 40.288 375.483 40.288C385.975 40.288 393.783 43.582 402.445 51.878L412.449 39.556C403.177 30.528 392.197 25.77 376.703 25.77ZM449.326 27.112L416.874 113H433.588L441.396 92.26H476.654L484.462 113H501.908L469.334 27.112H449.326ZM459.208 43.46L471.896 78.352H446.154L459.208 43.46Z" fill="black"/>
<g clip-path="url(#clip0_3_582)">
<path fill-rule="evenodd" clip-rule="evenodd" d="M130.526 3.09944e-05L130.911 -0.4354L123.418 -7.05762L120.107 -3.31108C119.118 -2.19265 118.116 -1.08888 117.099 3.09944e-05H1.43051e-05V7.79192L-6.87988 12.0322L-4.25648 16.2887C-2.88301 18.5172 -1.46364 20.7083 1.43051e-05 22.8611V116.282C-0.0339093 116.283 -0.0678344 116.283 -0.101761 116.284L-5.10072 116.386L-4.89717 126.384L1.43051e-05 126.284V140H140V51.316C141.44 49.2426 142.84 47.133 144.196 44.9878C146.475 41.5586 148.167 38.6265 149.299 36.5299C149.869 35.4759 150.297 34.6313 150.589 34.0387C150.735 33.7423 150.847 33.5088 150.925 33.3434C150.964 33.2607 150.994 33.195 151.016 33.147L151.043 33.0883L151.052 33.0691L151.055 33.062L151.056 33.0591L151.057 33.0578C151.057 33.0572 151.057 33.0567 146.5 31L151.057 33.0567L153.114 28.4992L143.999 24.386L141.945 28.9378L141.945 28.9388L141.944 28.9397L141.943 28.9414L141.943 28.9423L141.943 28.9434L141.935 28.9608C141.924 28.9842 141.905 29.025 141.878 29.0824C141.824 29.1974 141.737 29.3791 141.617 29.6223C141.378 30.1089 141.006 30.8411 140.501 31.7773C140.346 32.0632 140.179 32.368 140 32.6904V3.09944e-05H130.526ZM130.526 3.09944e-05H117.099C95.0532 23.6184 66.5077 40.2462 35.1077 47.7789C23.2328 37.2382 12.8028 24.9083 4.25651 11.0419L1.63312 6.78539L1.43051e-05 7.79192V22.8611C8.70765 35.6685 18.9824 47.1199 30.4823 57.0171C47.0122 71.2433 66.0733 82.2587 86.6522 89.4778C69.2284 100.865 49.6897 108.926 29.04 113.083C19.5626 114.99 9.85041 116.075 1.43051e-05 116.282V126.284L0.101789 126.282C10.5858 126.069 20.9244 124.917 31.0132 122.886C56.416 117.773 80.2305 107.09 100.799 91.7964C115.809 80.6352 129.091 67.0173 140 51.316V32.6904C139.004 34.4812 137.62 36.8174 135.837 39.4984L135.804 39.5475L135.773 39.5973C125.261 56.2366 112.014 70.6127 96.8107 82.277C77.9296 76.568 60.2564 67.5191 44.6314 55.615C76.6133 46.4858 105.458 28.3654 127.6 3.31114L130.526 3.09944e-05Z" fill="black"/>
</g>
<defs>
<clipPath id="clip0_3_582">
<path d="M0 28C0 12.536 12.536 0 28 0H112C127.464 0 140 12.536 140 28V112C140 127.464 127.464 140 112 140H28C12.536 140 0 127.464 0 112V28Z" fill="white"/>
</clipPath>
</defs>
</svg>
