<svg width="202" height="255" viewBox="0 0 202 255" fill="none" xmlns="http://www.w3.org/2000/svg">
<g clip-path="url(#clip0_595_9758)">
<path fill-rule="evenodd" clip-rule="evenodd" d="M161.526 3.09944e-05L161.911 -0.4354L154.418 -7.05762L151.107 -3.31108C150.118 -2.19265 149.116 -1.08888 148.099 3.09944e-05H31V7.79192L24.1201 12.0322L26.7435 16.2887C28.117 18.5172 29.5364 20.7083 31 22.8611V116.282C30.9661 116.283 30.9322 116.283 30.8982 116.284L25.8993 116.386L26.1028 126.384L31 126.284V140H171V51.316C172.44 49.2426 173.84 47.133 175.196 44.9878C177.475 41.5586 179.167 38.6265 180.299 36.5299C180.869 35.4759 181.297 34.6313 181.589 34.0387C181.735 33.7423 181.847 33.5088 181.925 33.3434C181.964 33.2607 181.994 33.195 182.016 33.147L182.043 33.0883L182.052 33.0691L182.055 33.062L182.056 33.0591L182.057 33.0578C182.057 33.0572 182.057 33.0567 177.5 31L182.057 33.0567L184.114 28.4992L174.999 24.386L172.945 28.9378L172.945 28.9388L172.944 28.9397L172.943 28.9414L172.943 28.9423L172.943 28.9434L172.935 28.9608C172.924 28.9842 172.905 29.025 172.878 29.0824C172.824 29.1974 172.737 29.3791 172.617 29.6223C172.378 30.1089 172.006 30.8411 171.501 31.7773C171.346 32.0632 171.179 32.368 171 32.6904V3.09944e-05H161.526ZM161.526 3.09944e-05H148.099C126.053 23.6184 97.5077 40.2462 66.1077 47.7789C54.2328 37.2382 43.8028 24.9083 35.2565 11.0419L32.6331 6.78539L31 7.79192V22.8611C39.7076 35.6685 49.9824 47.1199 61.4823 57.0171C78.0122 71.2433 97.0733 82.2587 117.652 89.4778C100.228 100.865 80.6897 108.926 60.04 113.083C50.5626 114.99 40.8504 116.075 31 116.282V126.284L31.1018 126.282C41.5858 126.069 51.9244 124.917 62.0132 122.886C87.416 117.773 111.23 107.09 131.799 91.7964C146.809 80.6352 160.091 67.0173 171 51.316V32.6904C170.004 34.4812 168.62 36.8174 166.837 39.4984L166.804 39.5475L166.773 39.5973C156.261 56.2366 143.014 70.6127 127.811 82.277C108.93 76.568 91.2564 67.5191 75.6314 55.615C107.613 46.4858 136.458 28.3654 158.6 3.31114L161.526 3.09944e-05Z" fill="#F03100"/>
</g>
<path d="M25.384 174.66C11.704 174.66 3.572 181.424 3.572 191C3.572 199.512 9.348 203.844 18.392 205.668L29.792 207.948C34.732 208.936 36.784 211.064 36.784 214.256C36.784 218.588 33.288 220.792 26.828 220.792C20.064 220.792 13.376 217.752 8.284 211.748L1.672 220.032C7.22 226.036 15.732 229.836 26.22 229.836C39.064 229.836 47.348 223.68 47.348 212.964C47.348 204.832 42.18 200.424 32.756 198.524L22.116 196.396C16.644 195.332 14.212 193.584 14.212 189.936C14.212 186.06 18.012 183.704 24.624 183.704C31.16 183.704 36.024 185.756 41.42 190.924L47.652 183.248C41.876 177.624 35.036 174.66 25.384 174.66ZM66.6639 175.496H56.3279V229H95.3159V219.652H66.6639V175.496ZM122.536 174.66C108.856 174.66 100.724 181.424 100.724 191C100.724 199.512 106.5 203.844 115.544 205.668L126.944 207.948C131.884 208.936 133.936 211.064 133.936 214.256C133.936 218.588 130.44 220.792 123.98 220.792C117.216 220.792 110.528 217.752 105.436 211.748L98.8243 220.032C104.372 226.036 112.884 229.836 123.372 229.836C136.216 229.836 144.5 223.68 144.5 212.964C144.5 204.832 139.332 200.424 129.908 198.524L119.268 196.396C113.796 195.332 111.364 193.584 111.364 189.936C111.364 186.06 115.164 183.704 121.776 183.704C128.312 183.704 133.176 185.756 138.572 190.924L144.804 183.248C139.028 177.624 132.188 174.66 122.536 174.66ZM167.777 175.496L147.561 229H157.973L162.837 216.08H184.801L189.665 229H200.533L180.241 175.496H167.777ZM173.933 185.68L181.837 207.416H165.801L173.933 185.68Z" fill="#102B2D"/>
<defs>
<clipPath id="clip0_595_9758">
<path d="M31 28C31 12.536 43.536 0 59 0H143C158.464 0 171 12.536 171 28V112C171 127.464 158.464 140 143 140H59C43.536 140 31 127.464 31 112V28Z" fill="white"/>
</clipPath>
</defs>
</svg>
