<?xml version="1.0" encoding="UTF-8" standalone="no"?>
<svg
   xmlns:dc="http://purl.org/dc/elements/1.1/"
   xmlns:cc="http://creativecommons.org/ns#"
   xmlns:rdf="http://www.w3.org/1999/02/22-rdf-syntax-ns#"
   xmlns:svg="http://www.w3.org/2000/svg"
   xmlns="http://www.w3.org/2000/svg"
   xmlns:sodipodi="http://sodipodi.sourceforge.net/DTD/sodipodi-0.dtd"
   xmlns:inkscape="http://www.inkscape.org/namespaces/inkscape"
   version="1.1"
   id="Layer_1"
   x="0px"
   y="0px"
   viewBox="0 0 238.6516 382.42814"
   xml:space="preserve"
   sodipodi:docname="slsa-dancing-goose-logo.svg"
   width="238.6516"
   height="382.42813"
   inkscape:version="1.0 (4035a4f, 2020-05-01)"
   inkscape:export-xdpi="299.7269"
   inkscape:export-ydpi="299.7269"><metadata
   id="metadata710"><rdf:RDF><cc:Work
       rdf:about=""><dc:format>image/svg+xml</dc:format><dc:type
         rdf:resource="http://purl.org/dc/dcmitype/StillImage" /><dc:title /></cc:Work></rdf:RDF></metadata><defs
   id="defs708" /><sodipodi:namedview
   inkscape:document-rotation="0"
   pagecolor="#ffffff"
   bordercolor="#666666"
   borderopacity="1"
   objecttolerance="10"
   gridtolerance="10"
   guidetolerance="10"
   inkscape:pageopacity="0"
   inkscape:pageshadow="2"
   inkscape:window-width="1436"
   inkscape:window-height="717"
   id="namedview706"
   showgrid="false"
   inkscape:zoom="0.98149022"
   inkscape:cx="-108.3808"
   inkscape:cy="221.29752"
   inkscape:window-x="4"
   inkscape:window-y="56"
   inkscape:window-maximized="0"
   inkscape:current-layer="layer6" /> <style
   type="text/css"
   id="style379"> .st0{fill:#0C3555;} .st1{fill:#A2C9D2;} .st2{fill-rule:evenodd;clip-rule:evenodd;fill:#0C3555;} .st3{fill-rule:evenodd;clip-rule:evenodd;fill:#6898B8;} .st4{fill-rule:evenodd;clip-rule:evenodd;fill:#F8C37A;} .st5{fill-rule:evenodd;clip-rule:evenodd;fill:#A2C9D2;} .st6{fill-rule:evenodd;clip-rule:evenodd;fill:#FCE6AD;} .st7{fill-rule:evenodd;clip-rule:evenodd;fill:#FBE7AC;} .st8{fill-rule:evenodd;clip-rule:evenodd;fill:#D2E5EA;} .st9{fill-rule:evenodd;clip-rule:evenodd;fill:#FFFFFF;} .st10{fill-rule:evenodd;clip-rule:evenodd;fill:#FFF6D1;} </style> <circle
   transform="rotate(-45)"
   class="st3"
   cx="-22.688692"
   cy="100.27036"
   id="ellipse507"
   r="0"
   style="stroke-width:0.99999" /> <g
   inkscape:groupmode="layer"
   id="layer2"
   inkscape:label="Layer 2"
   transform="translate(-127.8791,-48.36684)"
   style="display:inline"><path
     style="display:inline;stroke-width:6;stroke-miterlimit:4;stroke-dasharray:none;stroke:#0c3555;stroke-opacity:1"
     id="path4361"
     d="m 191.41984,216.59194 c -14.18524,-5.61214 -33.26561,-37.7913 -39.48951,-56.00413 -6.24979,-18.09574 -9.301,-20.21652 1.02711,-35.5627 10.23152,-15.37756 31.80275,-33.347017 31.80275,-33.347017 7.23665,-9.321779 -7.73384,-9.038936 -0.0785,-11.823606 2.82892,-1.089216 7.50697,-2.58184 9.46979,-0.689107 1.96281,1.892732 8.196,10.695207 8.196,10.695207 0,0 -9.79859,40.118493 -10.14063,47.287063 -0.34204,7.16857 5.50451,68.30935 -0.78701,79.44429 z"
     class="st5" /><path
     sodipodi:nodetypes="cscsccccsssssccc"
     id="path4363"
     d="m 183.37661,204.58787 c 0.9721,21.62949 14.94419,25.05897 30.18952,15.453 13.20026,-8.31739 28.73138,-16.99124 28.73138,-16.99124 0,0 -13.14532,-25.01612 13.1208,5.18627 22.03888,25.34165 17.11342,40.39266 23.90749,51.86209 18.47345,0.69428 34.18788,-6.0454 43.79616,-16.22257 14.20137,-15.56326 19.17106,-28.95327 19.17106,-28.95327 0,0 14.43638,26.4096 7.17642,41.31085 -13.79429,18.15687 -29.38971,5.57799 -16.44595,39.35139 9.07565,23.68057 -26.44517,2.8715 -35.39924,45.48559 -5.1114,24.32609 -41.51409,14.33428 -53.16112,30.68533 -9.95379,13.97395 -35.23106,2.47315 -40.82206,-22.71181 -8.44738,-38.05162 -25.47826,-41.57877 -36.04884,-28.51798 -15.90258,19.6489 -32.77417,13.44046 -32.77417,13.44046 50.10767,-29.86466 9.74784,-46.29359 17.63541,-90.7559 3.01367,-15.82179 30.92314,-38.62221 30.92314,-38.62221 z"
     style="display:inline;fill:#eb0000;fill-opacity:1;stroke:#0c3555;stroke-width:6;stroke-linecap:butt;stroke-linejoin:miter;stroke-miterlimit:4;stroke-dasharray:none;stroke-opacity:1" /></g><g
   inkscape:groupmode="layer"
   id="layer5"
   inkscape:label="Layer 5"
   style="display:inline"
   transform="translate(-127.8791,-48.36684)"><path
     class="st2"
     d="m 206.93623,50.623396 c -5.06737,2.582378 -8.38154,9.228462 -10.23441,14.593988 -1.23108,3.708864 -2.52667,7.316608 -3.82224,10.924356 -0.6218,1.656645 -0.53314,3.487168 0.29195,5.344317 1.67617,3.567078 5.25351,5.227483 8.28796,7.164513 0.8135,0.523254 1.76943,0.706028 2.62235,0.539316 0.8529,-0.16673 1.44781,-0.737854 1.75873,-1.566135 1.89139,-5.117195 3.8473,-10.133268 5.42871,-15.360439 1.23109,-3.708851 2.33315,-7.619935 3.00879,-11.447646 0.5197,-2.9444 1.26074,-7.609327 -2.12219,-9.904699 -1.82048,-1.34989 -3.6813,-1.071501 -5.2196,-0.287564 z"
     id="path461"
     style="stroke-width:1.10107" /><path
     class="st3"
     d="m 208.80683,53.555479 c -4.16246,2.121239 -7.23024,7.837886 -8.99263,13.157296 -1.03664,3.073866 -2.75961,7.703285 -3.91273,10.970478 -1.43802,3.948304 3.90875,6.314707 6.78818,8.196765 1.95592,-5.016089 14.17069,-36.428669 6.11718,-32.324539 z"
     id="path463"
     style="stroke-width:1.10107" /><path
     style="stroke-width:1.10107"
     id="path2214"
     d="m 188.46398,49.79388 c -4.22633,3.80592 -5.70745,11.08331 -6.10848,16.745573 -0.22921,3.901111 -0.5469,7.721243 -0.86456,11.54138 -0.17184,1.761135 0.38757,3.506335 1.6652,5.086655 2.54229,3.011709 6.42748,3.689649 9.85987,4.775302 0.92121,0.294884 1.89187,0.22401 2.67258,-0.157771 0.78069,-0.381796 1.20752,-1.087438 1.29346,-1.967968 0.50251,-5.432353 1.09352,-10.783741 1.26815,-16.2421 0.22922,-3.901103 0.28147,-7.964149 -0.0566,-11.836302 -0.26007,-2.97858 -0.75165,-7.676351 -4.6134,-9.017944 -2.10782,-0.832718 -3.83319,-0.0822 -5.11617,1.073163 z"
     class="st2" /><path
     style="stroke-width:1.10107"
     id="path2216"
     d="m 191.02972,52.141905 c -3.47161,3.126282 -4.95528,9.442143 -5.28086,15.03644 -0.20573,3.237424 -0.67182,8.155037 -0.94004,11.609349 -0.36711,4.185963 5.40993,5.087882 8.67836,6.160561 0.59102,-5.3514 4.2594,-38.855038 -2.45746,-32.80635 z"
     class="st3" /><path
     class="st2"
     d="m 173.037,54.761235 c -3.09727,4.770091 -2.6444,12.182852 -1.56626,17.755972 0.78828,3.827508 1.47014,7.599696 2.15203,11.371882 0.28983,1.745601 1.28187,3.286549 2.92498,4.482346 3.23515,2.251094 7.16342,1.900373 10.75984,2.060665 0.96614,0.04641 1.88538,-0.273275 2.54068,-0.84411 0.65527,-0.570844 0.88493,-1.362913 0.74004,-2.235683 -0.92061,-5.377309 -1.73478,-10.699317 -2.97883,-16.016885 -0.78827,-3.827503 -1.78939,-7.765627 -3.11813,-11.418341 -1.02212,-2.809776 -2.71282,-7.220244 -6.79022,-7.516629 -2.25152,-0.2588 -3.72385,0.912704 -4.66408,2.360758 z"
     id="path2223"
     style="stroke-width:1.10107" /><path
     class="st3"
     d="m 176.12303,56.36519 c -2.54418,3.918276 -2.34263,10.402931 -1.2092,15.890873 0.63919,3.180359 1.46175,8.051041 2.09671,11.457071 0.72881,4.138344 6.54243,3.514323 9.97712,3.70452 C 186.1735,82.095631 181.0455,48.784155 176.12303,56.36519 Z"
     id="path2225"
     style="stroke-width:1.10107" /><path
     class="st2"
     d="m 157.81074,94.362599 c 2.98679,4.809344 10.00008,7.529521 15.63168,8.852921 5.18993,1.24544 10.32488,2.6459 15.4598,4.04637 l 2.98164,0.85566 6.49257,-15.653336 -2.83441,-0.829681 c -5.28217,-1.42643 -10.66544,-2.788349 -16.05759,-3.904786 -3.87384,-0.7661 -7.8949,-1.558193 -11.9337,-1.859304 -3.0544,-0.209715 -7.83818,-0.395288 -9.94022,3.104121 -1.11048,2.027427 -0.68484,3.914258 0.20022,5.388071 z"
     id="path457"
     style="stroke-width:1.10107" /><path
     class="st3"
     d="m 160.65059,92.311001 c 2.47954,3.813989 8.50841,6.44274 14.0389,7.830649 5.5305,1.38789 15.50594,4.13679 15.50594,4.13679 l 3.84233,-9.286105 c -5.22717,-1.581414 -38.19903,-10.283342 -33.38717,-2.681363 z"
     id="path459"
     style="stroke-width:1.10107" /><path
     class="st2"
     d="m 183.80492,87.100375 c -0.10353,0.468416 -0.72284,1.396841 -1.01955,1.802501 -2.28219,1.894382 -4.61614,4.022972 -6.82761,6.065836 -5.06121,4.631468 -10.0517,9.411408 -14.70759,14.551068 -3.69504,4.07117 -7.46773,8.49365 -10.56426,13.13577 -3.27078,4.96206 -7.21263,11.08675 -7.35455,17.81828 -0.0227,3.38145 0.73435,6.51414 1.71043,9.59247 1.30375,3.93785 2.82657,7.82135 4.22691,11.79058 6.27567,17.97863 25.62501,51.7513 41.32985,57.98259 l 2.09915,0.80742 1.21967,-2.23954 c 2.36169,-4.12776 2.88491,-12.11606 3.14744,-17.05125 0.42662,-8.01967 0.29957,-16.34472 -0.002,-24.34983 -0.29436,-8.50491 -0.7819,-17.07257 -1.26944,-25.64024 -0.15158,-3.06152 -0.39975,-6.15441 -0.52544,-9.33304 -0.0758,-1.53076 -0.1964,-3.3271 -0.1756,-4.82649 0.0139,-0.99959 0.27269,-2.17063 0.38315,-3.13884 0.29164,-1.78793 0.58328,-3.57587 0.9715,-5.33243 0.93869,-4.71554 1.97396,-9.3997 3.00924,-14.08387 1.75997,-7.96307 3.64241,-16.01187 5.59557,-23.912191 l 0.41411,-1.873664 -1.02277,-1.46185 c -1.42808,-1.970051 -2.75957,-3.908724 -4.21354,-5.761672 -1.28666,-1.673087 -2.85616,-3.940102 -4.31707,-5.293255 -3.13393,-3.151752 -8.71413,-1.324632 -12.22614,0.04473 -2.02337,0.723342 -4.36933,1.969448 -4.31435,4.99959 0.055,3.030143 2.37321,3.783213 4.00141,5.316226 0.1673,0.17986 0.33461,0.35972 0.4312,0.391098 z"
     id="path477"
     style="stroke-width:1.10107" /><path
     class="st5"
     d="m 191.41984,216.59194 c -14.18524,-5.61214 -33.26561,-37.7913 -39.48951,-56.00413 -6.24979,-18.09574 -9.301,-20.21652 1.02711,-35.5627 10.23152,-15.37756 31.80275,-33.347017 31.80275,-33.347017 7.23665,-9.321779 -7.73384,-9.038936 -0.0785,-11.823606 2.82892,-1.089216 7.50697,-2.58184 9.46979,-0.689107 1.96281,1.892732 8.196,10.695207 8.196,10.695207 0,0 -9.79859,40.118493 -10.14063,47.287063 -0.34204,7.16857 5.50451,68.30935 -0.78701,79.44429 z"
     id="path479"
     style="stroke-width:1.10107" /><path
     class="st2"
     d="m 178.64921,135.25371 c -3.59523,7.36689 -7.14191,11.23523 -14.39007,12.64603 -4.32958,0.85275 -7.44642,-0.0342 -11.60684,-0.88369 l 3.579,2.54326 c 3.6377,1.80926 8.73309,1.70732 12.50899,0.54919 6.9912,-2.12183 9.80997,-5.9756 13.59145,-12.77995 0.47789,-1.22538 0.0864,-2.73317 -0.89843,-3.42964 -0.94005,-0.43089 -2.18374,0.0437 -2.7841,1.3548 z"
     id="path481"
     style="stroke-width:1.10107" /><path
     class="st2"
     d="m 189.82969,91.693259 c 2.81878,-3.853773 3.18484,-9.257374 0.72705,-12.189481 -2.45778,-2.932106 -6.73559,-2.313559 -9.55437,1.540214 -2.81877,3.853773 -3.18483,9.257374 -0.72705,12.189481 2.45779,2.932106 6.7356,2.313559 9.55437,-1.540214 z"
     id="path593"
     style="stroke-width:1.10107" /><path
     class="st5"
     d="m 188.78105,90.348514 c -2.19947,2.925348 -5.40783,3.389258 -7.29299,1.145213 -1.88517,-2.244045 -1.58474,-6.41385 0.51813,-9.370576 2.19947,-2.925348 5.40783,-3.389258 7.29299,-1.145213 1.85929,2.361149 1.65545,6.562332 -0.51813,9.370576 z"
     id="path595"
     style="stroke-width:1.10107" /><path
     class="st2"
     d="m 189.40407,85.655944 c 0.11232,-2.850282 -1.50895,-4.883089 -3.77033,-4.48809 -2.26138,0.395 -4.19001,3.031792 -4.39893,5.850697 -0.11232,2.850282 1.50895,4.88309 3.77033,4.48809 2.35798,-0.363622 4.28661,-3.000414 4.39893,-5.850697 z"
     id="path597"
     style="stroke-width:1.10107" /><path
     class="st5"
     d="m 188.65028,85.787611 c -0.10539,2.350488 -1.68555,4.347412 -3.50879,4.633715 -1.82325,0.286304 -3.13579,-1.269679 -3.03041,-3.620168 0.10539,-2.350488 1.68554,-4.347412 3.50879,-4.633715 1.82325,-0.286304 3.13579,1.269679 3.03041,3.620168 z"
     id="path599"
     style="stroke-width:1.10107" /><path
     class="st2"
     d="m 188.65028,85.787611 c -0.0518,0.234208 -0.0328,0.616898 -0.0846,0.851106 l -6.34601,1.076303 c -0.0448,-0.265586 0.007,-0.499794 -0.0379,-0.76538 0.0518,-0.234208 0.0328,-0.616898 0.0846,-0.851106 l 6.34601,-1.076303 c 0.0448,0.265586 -0.007,0.499794 0.0379,0.76538 z"
     id="path601"
     style="stroke-width:1.10107" /><path
     class="st3"
     d="m 175.84912,191.95399 c -7.70932,-14.30246 -15.6927,-31.58072 -17.00152,-36.90085 -0.59665,-2.45303 -0.98809,-3.96082 -1.19329,-4.90606 3.45145,1.24671 7.8448,1.04223 11.15669,0.10991 1.43688,-0.41182 2.70645,-1.0035 3.85355,-1.50944 -1.63106,14.40605 -0.72483,29.51082 3.18457,43.20644 z"
     id="path643"
     style="stroke-width:1.10107" /><path
     class="st3"
     d="m 181.82538,102.14629 c -1.23675,-0.0252 -4.02778,1.82938 -7.51577,4.96371 -8.67166,7.85152 -21.98906,23.60726 -27.95985,36.10151 -0.70339,-5.24896 0.91144,-9.74486 6.51109,-18.21778 3.56749,-5.36772 8.54597,-11.03015 13.39504,-16.10706 1.35416,-1.44278 2.80491,-2.85418 4.13318,-4.17986 3.04985,-3.02563 6.04794,-5.817063 8.38189,-7.945654 1.03156,-0.920017 1.94064,-1.754307 2.72725,-2.502872 0.36049,0.242616 0.84345,0.399505 1.32642,0.556395 2.27339,0.487484 5.00572,-0.63311 6.93435,-3.269902 0.74179,-1.014151 1.31626,-2.208161 1.79415,-3.43355 1.01447,-3.184779 0.74736,-6.660368 -1.0671,-8.755931 0,0 -0.0966,-0.03138 -0.0966,-0.03138 -0.0707,-0.148482 -0.1673,-0.17986 -0.23801,-0.328342 -0.2639,-0.211238 -0.52779,-0.422476 -0.6951,-0.602336 0.21907,-0.05435 0.53473,-0.07732 0.7538,-0.131667 1.60418,-0.231955 3.10483,0.0045 3.96723,0.786702 1.00382,1.079159 3.43572,4.12837 5.24324,6.723727 0.0707,0.148482 0.1673,0.17986 0.23801,0.328342 -0.12247,0.08573 -0.27083,0.288556 -0.3933,0.374282 -1.17992,1.122847 -2.38572,2.362798 -3.59151,3.602749 -2.70831,2.885563 -5.15273,5.982363 -7.45572,9.376128 -0.17424,0.319934 -0.32259,0.522764 -0.49683,0.842699 -0.79355,1.24836 -1.6578,2.34824 -2.54794,3.56522 -0.6951,-0.60234 -1.31948,-1.05619 -1.96975,-1.39294 -0.48296,-0.15689 -0.96592,-0.31378 -1.37818,-0.32219 z"
     id="path645"
     style="stroke-width:1.10107" /><path
     class="st8"
     d="m 149.74895,151.72093 c 3.60574,14.60107 13.68134,33.18654 22.28265,44.38995 2.02659,2.54101 1.52468,2.00143 3.77727,3.9883 -8.30089,-15.37322 -18.44397,-30.84282 -22.38755,-49.06796 -0.15343,-1.17945 -1.08654,-2.11013 -2.0594,-1.92412 -1.09533,0.27175 -1.74052,1.31727 -1.61297,2.61383 z"
     id="path647"
     style="stroke-width:1.10107" /><path
     class="st8"
     d="m 176.46076,153.11853 c -1.37917,13.73481 1.02214,34.72226 6.33745,46.74089 l 2.5784,4.72845 c -2.36527,-18.34 -5.97288,-31.059 -2.89429,-50.1408 0.3434,-2.02215 -0.79491,-3.89807 -2.46286,-4.31439 -1.66796,-0.41632 -3.31189,0.93233 -3.5587,2.98585 z"
     id="path655"
     style="stroke-width:1.10107" /><path
     d="m 221.79652,343.55268 c -2.58386,-0.3041 -4.34972,-0.39071 -7.21094,-0.7793 -2.97279,-0.40374 -6.35032,-0.94891 -9.61914,-1.45508 0.65941,2.31159 1.33091,4.628 1.96484,6.91016 1.1,4.1 2.20079,8.09922 3.30079,12.19922 -0.5,0.3 -0.90118,0.70156 -1.20118,1.10156 -1.8,2.1 -1.39843,4.89844 -0.89843,7.39844 0.3,1.8 0.79961,3.50078 1.09961,5.30078 -0.3,0.4 -0.7,0.80078 -1,1.30078 -2.3,1.7 -3.50118,4.59844 -3.70118,7.39844 v 0.30078 c -0.2,0.7 -0.39961,1.50078 -0.59961,2.30078 -0.9,4.6 2.00039,9.8 4.40039,13.5 1,1.7 2.20079,3.3 3.30079,5 0.1,0.4 0.29961,0.89883 0.59961,1.29883 5.9,9 13.80039,18.00078 23.90038,22.30078 6.3,2.8 13.19843,3.49961 19.89843,1.59961 3.6,-1 6.8,-2.99961 9,-6.09961 1.4,-2 2.30118,-4.30117 2.70118,-6.70117 0.6,-3.5 -7.9e-4,-7.2 -1.30079,-10.5 -2.9,-7.5 -9.29882,-13.59922 -15.79882,-18.19922 -6,-5.8 -12.50118,-11.20078 -19.20118,-16.30078 -0.3,-3.2 -0.99921,-7.9 -2.69921,-10.5 -0.9,-1.5 -2.29961,-2.79961 -4.0996,-3.09961 z"
     style="fill:#0c3555;fill-opacity:1;stroke:#0c3555;stroke-opacity:1"
     id="path455" /><path
     id="path2285"
     style="fill:#0c3555;fill-opacity:1;stroke:#0c3555;stroke-opacity:1"
     d="m 225.83203,67.029297 c -20.5,0 -37.19999,16.698833 -37,37.298823 1e-5,1.5 0.10078,3.0004 0.30078,4.4004 -0.6,1.1 -1.7,2.40078 -2.5,3.30078 -1.4,1.5 -2.90039,2.89883 -4.40039,4.29882 -2.6,2.3 -5.20039,4.50118 -7.90039,6.70118 -0.69999,0.6 -1.39961,1.09922 -2.09961,1.69922 -3.1,2.5 -6.30117,5.00078 -9.20117,7.80078 -2,1.9 -4.39961,4.49843 -4.59961,7.39843 0,0.7 0.10078,1.50118 0.30078,2.20118 1.7,5 8.99922,4.70039 13.19922,4.40039 1.7,-0.1 3.39961,-0.30157 5.09961,-0.60157 0.2,0 0.40156,0.10157 0.60156,0.10157 9,1.4 17.4,-0.80078 26,-3.30078 3.4,-1 6.79922,-2.09922 10.19922,-3.19922 2.4,0.9 4.90001,1.49882 7.5,1.79882 -4.39999,6.1 -8.49922,12.4004 -12.19922,18.9004 -2.3,4 -4.5,7.9996 -6.5,12.0996 -1.7,3.6 -3.40077,7.3 -4.80078,11 -0.69999,-0.1 -1.39961,-3.8e-4 -2.09961,0.0996 -7.2,1.2 -9.60078,5.80039 -10.30078,12.40039 l -16.84961,115.41993 c 0.64924,-0.39319 1.32709,-0.70439 1.94922,-1.11914 1.2,5.8 3.80156,11.4 7.60156,16 1.5,1.8 3.19961,3.5 5.09961,5 0,4.3 3.59883,7.29922 7.29883,8.69921 2.4,8.2 4.90078,16.39961 7.30078,24.59961 -1.29999,1.6 -2.20078,3.60118 -2.80078,5.70118 v 0.0996 c -2.8,-0.3 -5.7,-0.49961 -8.5,-0.59961 -3.1,-0.1 -6.29844,-0.30039 -9.39844,-0.40039 -2.7,-0.1 -5.3,-0.19962 -8,-0.0996 -2.5,0 -5.00039,0.19922 -7.40039,0.69921 h -0.20117 -0.0996 -0.0996 -0.0996 -0.0996 -0.10156 -0.0996 l -0.19922,0.0996 c 0,0.1 -0.10117,0.10157 -0.20117,0.10157 -0.1,0 -0.29844,0.0996 -0.39844,0.0996 -0.1,0 -0.30039,0.0996 -0.40039,0.0996 -0.1,0 -0.30039,0.0996 -0.40039,0.0996 -0.1,0 -0.30039,0.0996 -0.40039,0.0996 -0.1,0 -0.30039,0.10157 -0.40039,0.10157 -0.1,0 -0.29844,0.0996 -0.39844,0.0996 -0.1,0 -0.30039,0.0996 -0.40039,0.0996 -0.1,0 -0.30039,0.0996 -0.40039,0.0996 -0.1,0 -0.30039,0.0996 -0.40039,0.0996 -0.1,0 -0.30039,0.10157 -0.40039,0.10157 -0.1,0 -0.29844,0.0996 -0.39844,0.0996 -0.1,0 -0.30039,0.0996 -0.40039,0.0996 -0.1,0 -0.30039,0.0996 -0.40039,0.0996 -0.1,0 -0.30039,-3.8e-4 -0.40039,0.0996 -0.1,0.1 -0.30039,0.10118 -0.40039,0.20118 -0.1,0.1 -0.29844,0.0992 -0.39844,0.19921 -0.1,0.10001 -0.30039,0.10118 -0.40039,0.20118 -0.1,0.1 -0.30039,0.0992 -0.40039,0.19922 -0.1,0.1 -0.30039,0.0992 -0.40039,0.19921 -0.1,0.1 -0.30039,0.10118 -0.40039,0.20118 -0.1,0.1 -0.29844,0.0992 -0.39844,0.19921 -0.1,0.10001 -0.30039,0.10118 -0.40039,0.20118 -0.1,0.1 -0.30039,0.0992 -0.40039,0.19922 -0.1,0.1 -0.30039,0.0992 -0.40039,0.19921 -0.2,0.1 -0.30038,0.10118 -0.40039,0.20118 -0.2,0.1 -0.29844,0.0992 -0.39844,0.19921 -0.2,0.10001 -0.30039,0.10118 -0.40039,0.20118 -0.2,0.1 -0.30039,0.0992 -0.40039,0.19922 -0.2,0.1 -0.30039,0.0992 -0.40039,0.19921 -0.2,0.1 -0.30039,0.10118 -0.40039,0.20118 -0.2,0 -0.29844,0.0992 -0.39844,0.19921 -0.2,0 -0.30039,0.10118 -0.40039,0.20118 -0.1,0 -0.20078,0.0992 -0.30078,0.19922 -0.1,0 -0.19883,0.0992 -0.29883,0.19921 -0.1,0 -0.20078,0.10118 -0.30078,0.20118 l -0.30078,0.29882 -0.29883,0.30079 -0.30078,0.30078 -0.29883,0.29882 -0.30078,0.30079 -0.30078,0.29882 -0.29883,0.30079 -0.30078,0.30078 -0.29883,0.29882 -0.30078,0.30079 -0.30078,0.29882 -0.29883,0.30079 -0.30078,0.30078 -0.29883,0.29882 c 0,0.10001 -0.10117,0.20079 -0.20117,0.30079 0,0.1 -0.0992,0.19882 -0.19922,0.29882 0,0.2 -0.10117,0.30041 -0.20117,0.40039 -0.1,0.2 -0.0992,0.3004 -0.19922,0.4004 -0.1,0.2 -0.0992,0.30039 -0.19922,0.40039 -0.1,0.1 -0.10117,0.30039 -0.20117,0.40039 -0.1,0.1 -0.0992,0.29843 -0.19922,0.39843 -0.1,0.1 -0.10117,0.3004 -0.20117,0.40039 -0.1,0.10001 -0.0992,0.3004 -0.19922,0.4004 -0.1,0.1 -0.0992,0.30039 -0.19922,0.40039 -0.1,0.1 -0.10117,0.30039 -0.20117,0.40039 -0.1,0.1 -0.19922,0.29843 -0.19922,0.39843 0,0.1 -0.0996,0.30041 -0.0996,0.40039 0,0.10001 -0.10156,0.3004 -0.10156,0.4004 0,0.1 -0.0996,0.30039 -0.0996,0.40039 -0.6,2.3 -1.19883,4.49923 -1.79883,6.69921 -0.3,1.30001 -0.10078,2.59961 0.69922,3.59961 0.8,1 2.00078,1.60157 3.30078,1.60157 h 75.59961 c 2.1,0 3.89962,-1.50157 4.09961,-3.60157 0.4,-2.8 0.50039,-5.7 0.40039,-8.5 -0.1,-2.9 -0.40039,-5.89882 -0.90039,-8.79882 -1,-5.1 -2.99961,-10.50078 -7.09961,-13.80079 -0.4,-0.3 -0.90039,-0.69998 -1.40039,-1 l -5.80078,-24 c 2.1,-1.39999 3.70156,-3.39882 4.10156,-5.79882 3.97137,0.94556 7.94807,1.40751 12.00391,1.45898 L 241.25,197.38672 c -0.35374,-0.20495 -0.65943,-0.45764 -1.01758,-0.6582 -0.1,-2.9 -1.30039,-5.69922 -3.40039,-7.69922 -1.7,-1.7 -3.90078,-2.60078 -6.30078,-2.80078 1.2,-6.9 3.2,-13.70079 5.5,-20.30079 2.6,-7.4 5.70039,-14.69882 8.90039,-21.79882 1.8,-4 3.7,-7.90078 5.5,-11.80079 8.1,-7.09999 12.70117,-17.19999 12.70117,-28 0,-20.59999 -16.70079,-37.298823 -37.30078,-37.298823 z" /><path
     id="path465"
     d="m 188.03174,311.92856 11.2,3.8 c 1,0.3 1.7,1.1 1.9,2.1 l 13.3,54.8 c 0.2,0.9 0,1.8 -0.5,2.5 -0.6,0.7 -1.4,1.1 -2.3,1.1 h -7.1 c -1.3,0 -2.4,-0.8 -2.8,-2.1 -5.8,-19.5 -11.6,-39.1 -17.3,-58.6 -0.3,-1.1 0,-2.2 0.8,-3 0.7,-0.7 1.8,-0.9 2.8,-0.6 z"
     class="st2"
     style="clip-rule:evenodd;fill:#0c3555;fill-rule:evenodd" /><path
     id="path469"
     d="m 197.13174,321.92856 c 7.2,0 13.1,4 13.1,8.9 0,4.9 -5.9,8.9 -13.1,8.9 -7.2,0 -13.1,-4 -13.1,-8.9 0.1,-4.9 5.9,-8.9 13.1,-8.9 z"
     class="st2"
     style="clip-rule:evenodd;fill:#0c3555;fill-rule:evenodd" /><path
     id="path471"
     d="m 197.13174,324.92856 c 5.6,0 10.2,2.7 10.2,6 0,3.3 -4.5,6 -10.2,6 -5.6,0 -10.2,-2.7 -10.2,-6 0.1,-3.4 4.6,-6 10.2,-6 z"
     class="st5"
     style="clip-rule:evenodd;fill:#a2c9d2;fill-rule:evenodd" /><path
     id="path473"
     d="m 192.03174,275.02856 c 0.9,0 1.7,0.1 2.6,0.2 6.6,0.8 12.3,4.8 16.4,9.8 4.6,5.6 7.4,12.6 8.1,19.8 0.6,5.8 -0.1,11.9 -2.6,17.3 -2.2,4.8 -5.7,8.9 -10.5,11.2 -2.6,1.3 -5.4,1.9 -8.3,1.9 -0.9,0 -1.7,-0.1 -2.6,-0.2 -6.6,-0.8 -12.3,-4.8 -16.4,-9.8 -4.6,-5.6 -7.4,-12.6 -8.1,-19.8 -0.6,-5.8 0.1,-11.9 2.6,-17.3 2.2,-4.8 5.7,-8.9 10.5,-11.2 2.6,-1.3 5.4,-1.9 8.3,-1.9 z"
     class="st2"
     style="clip-rule:evenodd;fill:#0c3555;fill-rule:evenodd" /><ellipse
     style="clip-rule:evenodd;fill:#6898b8;fill-rule:evenodd;stroke-width:0.999997"
     id="ellipse475"
     ry="27.499914"
     rx="20.999933"
     cy="344.83737"
     cx="110.26379"
     class="st3"
     transform="rotate(-14.826969)" /><path
     id="path483"
     d="m 213.33174,193.42856 c -31.8,0 -54.6,31.4 -52.5,70.2 4.4,80.9 118.99999,94.8 113.79999,0 -2.1,-38.8 -29.6,-70.2 -61.29999,-70.2 z"
     class="st2"
     style="clip-rule:evenodd;fill:#0c3555;fill-rule:evenodd" /><path
     id="path485"
     d="m 166.33174,277.32856 c 20.2,16.9 63.29999,12.5 86.39999,4.2 4.7,-1.7 13.2,-4.5 17.9,-1.3 1.5,1 2.4,2.5 2.9,4.2 0.1,0.3 0.2,0.7 0.2,1 0.4,0.1 0.7,0.3 1,0.5 0.9,0.7 1.3,1.8 1.1,2.9 -3.7,18.2 -13.7,33.7 -31.5,40.5 -15,5.7 -31.99999,3.7 -46.39999,-2.9 -15.8,-7.2 -28.7,-20 -35.7,-35.9 -0.7,-1.6 -1.6,-3.2 -2.3,-4.7 -0.6,-1.2 -1.2,-2.3 -1.8,-3.5 -0.4,-0.8 -1.1,-1.9 -1.1,-2.8 -0.1,-1.2 0.4,-2.5 1.1,-3.5 1.3,-2 3.8,-3.3 6,-1.8 1.4,0.8 1.6,1.9 2.2,3.1 z"
     class="st2"
     style="clip-rule:evenodd;fill:#0c3555;fill-rule:evenodd" /><path
     id="path493"
     d="m 274.43173,250.72856 c -0.1,0.1 -0.1,0.1 -0.2,0.2 -5.1,4.6 -14.7,7.5 -21.2,9.2 -5.1,1.3 -10.2,2.4 -15.4,3.2 -2,0.3 -4,0.6 -5.9,0.8 -1.3,0.1 -2.6,0.3 -3.9,0.3 -4.09999,0 -8.19999,-5 -10.49999,-8 -1.9,-2.6 -3.8,-5.4 -5.4,-8.3 l -25.4,-2.2 -10,11.3 c -0.6,0.6 -1.3,1 -2.1,1 -1.4,0 -3,-0.2 -4.3,-0.5 -3.6,-0.6 -7.1,-1.7 -10.4,-3.1 -1.2,-0.5 -1.9,-1.7 -1.8,-3 1.2,-14.6 6.3,-29.4 15.3,-40.9 5,-6.4 19.7,-11.3 28.4,-10.6 6.7,-3.3 4.2,-9.80001 11.7,-9.80001 6.3,0 12.5,1.10001 18.39999,3.30001 22.9,8.4 38.2,30.6 43.7,54.1 0.1,1.2 -0.2,2.2 -1,3 z"
     class="st2"
     style="clip-rule:evenodd;fill:#0c3555;fill-rule:evenodd" /><path
     id="path495"
     d="m 213.13174,193.42856 c -28.2,0 -49.7,25.3 -52.5,58.5 8,3.3 13.7,3.3 13.7,3.3 l 10.9,-12.4 28.4,2.5 c 0,0 8.9,16.2 14.19999,16.2 5.3,0 35.2,-4.6 44.6,-12.8 0,0 0.1,-0.1 0.1,-0.1 -7.5,-31.6 -31.2,-55.2 -59.39999,-55.2 z"
     class="st5"
     style="clip-rule:evenodd;fill:#a2c9d2;fill-rule:evenodd" /><path
     id="path497"
     d="m 256.33173,117.32855 c -12.2,27 -29.1,57.4 -27.8,84.10001 0.5,10.7 -21.09999,11.2 -28.99999,7.9 -16,-6.7 10.4,-52.90001 27.59999,-74.70001 4.9,-6.2 9.8,-10.1 11.8,-11 7.7,-3.3 17.4,-4.9 17.4,-6.3 z"
     class="st2"
     style="clip-rule:evenodd;fill:#0c3555;fill-rule:evenodd" /><path
     id="path499"
     d="m 251.43173,122.02855 c -3,0.9 -5.9,1.7 -8.8,2.8 -0.9,0.3 -1.8,0.7 -2.7,1.1 -1.3,0.6 -3.1,2.1 -4.2,3.1 -2.4,2.2 -4.7,4.6 -6.7,7.2 -6.29999,8 -12.19999,16.9 -17.29999,25.8 -2.7,4.6 -5.2,9.3 -7.5,14.1 -2,4.3 -3.9,8.7 -5.3,13.2 -1.3,4.00001 -3.6,13.00001 -0.3,16.60001 0.5,0.6 1.1,1 1.8,1.2 3.4,1.4 8.7,1.8 12.3,1.6 4,-0.2 13.6,-1.4 13.3,-7.1 -0.5,-9.9 1.39999,-19.80001 4.19999,-29.30001 3,-10.1 7.2,-20 11.5,-29.6 3.2,-6.9 6.5,-13.8 9.7,-20.7 z"
     class="st2"
     style="clip-rule:evenodd;fill:#0c3555;fill-rule:evenodd" /><path
     id="path501"
     d="m 198.53174,188.82855 c -0.4,0.8 -0.2,2.30001 0.1,3.10001 0.7,0.9 3.5,2.2 4.5,2.6 3.2,1.2 6.7,1.9 10.1,2 1.5,0.1 3.1,0 4.6,-0.1 2,-0.2 7,-1 7.9,-3.1 0.1,-0.2 0.1,-0.4 0.2,-0.6 0.1,-0.5 0.1,-1.1 0.2,-1.70001 0,-0.3 0,-0.6 0.1,-0.9 0.19999,-1.5 1.19999,-2.8 2.79999,-2.9 2.7,-0.2 5.3,0.7 7.2,2.5 2.3,2.20001 3.3,5.40001 3,8.50001 -0.3,3.6 -2.4,6.7 -5.2,8.9 -5.5,4.2 -13.09999,5.8 -19.89999,6 -5.6,0.1 -11.7,-0.7 -17,-2.8 -4.5,-1.8 -9.1,-4.9 -10.6,-9.7 -0.4,-1.3 -0.5,-2.5 -0.4,-3.8 0.5,-6.50001 2.4,-11.20001 9.5,-12.40001 1.2,-0.2 2.9,-0.3 3.6,0.7 0.6,0.9 0,2.7 -0.7,3.7 z m 0,0.1"
     class="st2"
     style="clip-rule:evenodd;fill:#0c3555;fill-rule:evenodd" /><path
     id="path503"
     d="m 196.13174,187.22855 c -5.6,0.9 -6.7,4.6 -7.1,9.70001 -1,12.9 29.8,18 43.19999,7.8 7.3,-5.5 4.1,-15.20001 -3,-14.70001 -0.3,0 0,2.6 -0.7,4.30001 -1.9,4.1 -9.59999,5.2 -15.29999,5 -8.9,-0.3 -16.6,-4 -17.3,-6.60001 -1.1,-3.6 0.2,-5.5 0.2,-5.5 z"
     class="st5"
     style="clip-rule:evenodd;fill:#a2c9d2;fill-rule:evenodd" /><circle
     id="circle505"
     r="36.299999"
     cy="104.32854"
     cx="225.83173"
     class="st2"
     style="clip-rule:evenodd;fill:#0c3555;fill-rule:evenodd" /><path
     id="path509"
     d="m 225.83174,70.92855 c -16,0 -29.3,11.2 -32.6,26.2 2.4,16.1 16.2,28.5 33,28.5 15.99999,0 29.29999,-11.2 32.59999,-26.2 -2.3,-16.1 -16.2,-28.5 -32.99999,-28.5 z"
     class="st5"
     style="clip-rule:evenodd;fill:#a2c9d2;fill-rule:evenodd" /><path
     id="path513"
     d="m 195.63174,371.12856 c 0.1,-0.3 0.2,-0.6 0.2,-0.9 2.4,-9.1 10.7,-12.2 17.8,-6.5 3.9,3.2 5.8,8.4 6.7,13.2 1,5.2 1.1,11.7 0.5,17 -0.2,1.6 -1.5,2.8 -3.1,2.8 h -75.60001 c -1,0 -1.9,-0.4 -2.5,-1.2 -0.6,-0.8 -0.8,-1.7 -0.5,-2.7 0.6,-2.2 1.2,-4.4 1.8,-6.7 2.4,-9 11.40001,-13 19.60001,-15.2 4.7,-1.3 11.4,-1.1 16.3,-0.9 5.3,0.2 13.5,0.5 18.8,1.1 z"
     class="st2"
     style="clip-rule:evenodd;fill:#0c3555;fill-rule:evenodd" /><path
     id="path515"
     d="m 198.93174,371.02856 c -1,3.6 -1,3.6 -1,3.6 0,0 -5,-0.1 -8.6,-0.5 -7.9,-0.8 -21.7,-1.9 -28,-0.2 -9.1,2.4 -15.60001,6.3 -17.40001,13 -1.8,6.7 -1.8,6.7 -1.8,6.7 h 75.70001 c 3,-25.5 -14.4,-39.6 -18.9,-22.6 z"
     class="st5"
     style="clip-rule:evenodd;fill:#a2c9d2;fill-rule:evenodd" /><path
     id="path517"
     d="m 175.53174,370.12856 c 4.2,1.4 8.4,2.9 11.9,5.7 5.3,4.2 7.4,10.2 8.3,16.6 0.1,0.4 0.1,0.9 0.1,1.3 -0.1,1.7 -1.5,3 -3.1,3 h -50.60001 c -1,0 -1.9,-0.4 -2.5,-1.2 -0.6,-0.8 -0.8,-1.7 -0.5,-2.7 0.6,-2.2 1.2,-4.4 1.8,-6.7 2.4,-9 11.40001,-13 19.60001,-15.2 4.2,-1.1 9.8,-1.1 14.1,-0.9 0.3,-0.1 0.6,0 0.9,0.1 z"
     class="st2"
     style="clip-rule:evenodd;fill:#0c3555;fill-rule:evenodd" /><path
     id="path519"
     d="m 174.53174,373.02856 c -5.2,-0.2 -10.1,0 -13.2,0.8 -9.1,2.4 -15.60001,6.3 -17.40001,13 -1.8,6.7 -1.8,6.7 -1.8,6.7 h 50.60001 c 0,-0.2 0,-0.5 0,-0.7 -2,-13.6 -8.6,-16.6 -18.2,-19.8 z"
     class="st6"
     style="clip-rule:evenodd;fill:#fce6ad;fill-rule:evenodd" /><path
     id="path521"
     d="m 170.43174,393.52856 h 22.3 c 0,-0.2 0,-0.5 0,-0.7 -0.5,-3.2 -1.2,-5.9 -2.2,-8 -3,-0.5 -6.9,-0.4 -10.5,0.8 -3.8,1.2 -7.3,3.5 -9.3,7.4 -0.1,0.2 -0.2,0.4 -0.3,0.5 z"
     class="st4"
     style="clip-rule:evenodd;fill:#f8c37a;fill-rule:evenodd" /><path
     id="path523"
     d="m 217.63174,380.32856 c -0.1,0 -0.2,0 -0.3,0 -1.6,-0.1 -2.7,-1.5 -2.7,-3.1 0,-0.3 0.1,-0.6 0.2,-0.9 -0.1,-0.7 -0.3,-1.7 -0.4,-2.2 -0.5,-2.9 -1.3,-5.9 -2,-8.7 -1.4,-5.8 -3,-11.5 -4.6,-17.2 -2.6,-9.5 -5.4,-18.9 -8.2,-28.4 -0.3,-1.1 0,-2.2 0.8,-3 0.8,-0.8 1.9,-1 3,-0.7 l 11.2,3.8 c 1,0.3 1.7,1.1 1.9,2.2 l 10.99999,54.6 c 0.2,0.9 0,1.7 -0.6,2.4 -0.59999,0.7 -1.39999,1.1 -2.29999,1.1 h -7 z"
     class="st2"
     style="clip-rule:evenodd;fill:#0c3555;fill-rule:evenodd" /><path
     id="path525"
     d="m 202.43174,318.92856 c 17.3,58.6 15.1,58.4 15.1,58.4 h 7.1 l -11,-54.6 z"
     class="st4"
     style="clip-rule:evenodd;fill:#f8c37a;fill-rule:evenodd" /><path
     id="path527"
     d="m 210.33174,374.72856 c -0.3,-1.9 -0.8,-3.8 -1.2,-5.8 -0.5,-2.2 -0.9,-4.7 0.7,-6.6 1,-1.3 2.6,-1.7 4.2,-1.7 3.5,0 4.8,5 5.5,7.6 0.3,1 0.6,2 0.8,3.1 l 1.5,-0.4 -1.6,-7.9 c -0.1,-0.6 -0.1,-1.1 0.1,-1.6 0.4,-1 1.2,-1.9 2.3,-2.3 2.3,-0.9 4.29999,0.6 5.49999,2.5 1.6,2.4 2.3,7.1 2.5,10.5 6.9,5.2 13.6,10.8 19.7,16.8 6.5,6.4 18.6,19.1 15.5,29.2 -1.4,4.7 -5.7,7.4 -10.1,8.9 -6.7,2.3 -13.5,2.6 -20,-0.4 -8.5,-3.9 -14.89999,-13 -21.19999,-19.7 -0.1,-0.2 -0.2,-0.3 -0.4,-0.5 -1.5,-2.6 -3.4,-5 -5,-7.6 -2.2,-3.4 -5.1,-8.5 -4.3,-12.7 0.9,-4.3 2.7,-8.3 5.5,-11.4 z"
     class="st2"
     style="clip-rule:evenodd;fill:#0c3555;fill-rule:evenodd" /><path
     id="path529"
     d="m 213.43174,375.72856 c -3.6,3.4 -5.1,7.9 -5.7,10.8 -1,5 6.1,13.6 8.9,18.2 11.39999,12.4 19.19999,25.7 38.09999,19.3 26.7,-9 -16.1,-42.3 -27,-50.5 0,0 -0.4,-7.7 -2.09999,-10.4 -1.8,-2.7 -2.6,-0.7 -2.6,-0.7 l 2.1,10.6 -7.1,1.9 c 0,0 -2.3,-11.3 -4.1,-11.3 -4.3,-0.1 -1.5,4.6 -0.5,12.1 z"
     class="st5"
     style="clip-rule:evenodd;fill:#a2c9d2;fill-rule:evenodd" /><path
     id="path531"
     d="m 209.83174,318.12856 c 7.2,0 13.1,4 13.1,8.9 0,4.9 -5.9,8.9 -13.1,8.9 -7.2,0 -13.1,-4 -13.1,-8.9 0,-4.9 5.8,-8.9 13.1,-8.9 z"
     class="st2"
     style="clip-rule:evenodd;fill:#0c3555;fill-rule:evenodd" /><path
     id="path533"
     d="m 209.83174,321.02856 c 5.6,0 10.2,2.7 10.2,6 0,3.3 -4.5,6 -10.2,6 -5.6,0 -10.2,-2.7 -10.2,-6 0,-3.3 4.6,-6 10.2,-6 z"
     class="st5"
     style="clip-rule:evenodd;fill:#a2c9d2;fill-rule:evenodd" /><path
     id="path535"
     d="m 249.83173,388.32856 c 6.4,4.5 12.9,10.6 15.8,18 2.1,5.4 2.2,11.4 -1.3,16.3 -2.1,2.9 -5.1,4.8 -8.5,5.7 -6.5,1.8 -13.1,1.1 -19.3,-1.5 -9.9,-4.3 -17.69999,-13.1 -23.49999,-22 -0.7,-1.1 -0.6,-2.5 0.2,-3.5 8.9,-10.5 21.79999,-17.2 35.59999,-13.5 0.4,0.2 0.7,0.3 1,0.5 z"
     class="st2"
     style="clip-rule:evenodd;fill:#0c3555;fill-rule:evenodd" /><path
     id="path537"
     d="m 215.53174,403.32856 c 15.39999,23.5 30.59999,24.8 39.49999,22.3 12.2,-3.4 14.2,-20.2 -6.9,-34.8 -12.7,-3.5 -24.49999,2.7 -32.59999,12.5 z"
     class="st4"
     style="clip-rule:evenodd;fill:#f8c37a;fill-rule:evenodd" /><path
     id="path547"
     d="m 225.53174,140.82855 c 2.19999,0.1 4.99999,0.4 7.89999,1.1 2.5,0.6 5.1,1.5 7.5,2.8 -0.3,0.6 -0.5,1.2 -0.8,1.8 -2.2,-1.3 -4.7,-2.1 -7.1,-2.7 -3.4,-0.8 -6.69999,-1.1 -8.79999,-1.1 0.4,-0.7 0.9,-1.3 1.3,-1.9 z m -6.7,9.6 c -0.4,0.7 -0.9,1.4 -1.3,2 2.5,-0.2 5.3,0 8.2,0.7 3.19999,0.8 6.49999,2.2 9.79999,4.3 0.2,-0.6 0.5,-1.2 0.7,-1.8 -3.3,-2.1 -6.7,-3.5 -10.09999,-4.3 -2.5,-0.7 -4.9,-1 -7.3,-0.9 z m -7.5,12.3 c -0.4,0.6 -0.7,1.3 -1.1,1.9 3.8,0.1 7.5,0.5 11.1,1.3 3.4,0.8 6.69999,1.9 9.89999,3.4 0.2,-0.6 0.4,-1.2 0.6,-1.9 -3.3,-1.5 -6.69999,-2.6 -10.09999,-3.4 -3.4,-0.8 -6.8,-1.2 -10.4,-1.3 z m -6.5,12.2 c -0.2,0.4 -0.4,0.7 -0.5,1.1 -0.1,0.2 -0.2,0.4 -0.3,0.6 2,0.6 4.8,1.3 7.9,1.8 5.6,1 12.1,1.9 16.19999,2.4 0.1,-0.6 0.3,-1.3 0.4,-1.9 -3.99999,-0.4 -10.59999,-1.3 -16.29999,-2.4 -2.9,-0.5 -5.6,-1.1 -7.4,-1.6 z m -4.9,11.6 c -0.2,0.6 -0.4,1.2 -0.6,1.9 2.9,1.6 7.3,2.70001 11.9,3.3 5.4,0.70001 11.1,0.6 15.1,-0.2 0.1,-0.7 0.1,-1.4 0.19999,-2 -3.79999,0.9 -9.59999,1 -15.09999,0.3 -4.6,-0.6 -9,-1.7 -11.5,-3.3 z"
     class="st5"
     style="clip-rule:evenodd;fill:#a2c9d2;fill-rule:evenodd" /><path
     id="path551"
     d="m 225.43174,119.32855 c 0.99999,0.3 3.29999,0.3 4.29999,0.4 2.7,0.2 7.4,0.3 8.3,3.5 0.2,0.8 0.2,1.6 -0.1,2.3 -1.3,3.2 -6.3,5.7 -9.2,7 -4.89999,2.3 -10.09999,4.2 -15.29999,5.9 -3.4,1.1 -6.9,2.2 -10.4,3.2 -8.5,2.4 -16.7,4.7 -25.6,3.3 -2.6,-0.4 -5.5,-1.3 -6.4,-4.1 -0.8,-2.4 0.4,-4.8 1.9,-6.6 1.8,-2.2 4.1,-4.2 6.3,-6 4,-3.3 10.1,-8.5 12.4,-13.4 1.3,-2.8 3,-5.8 5.2,-8.1 1.8,-1.9 4.3,-3.5 7,-3.2 4.5,0.5 6.7,5.4 7.8,9.3 1.5,5.2 9.7,4.3 13.8,6.5 z"
     class="st2"
     style="clip-rule:evenodd;fill:#0c3555;fill-rule:evenodd" /><path
     id="path553"
     d="m 208.93174,113.72855 c 2.1,7.2 11.6,6.1 15.2,8.2 1.8,1 11.99999,0.2 10.99999,2.5 -1.7,4.2 -19.59999,10.6 -32.99999,14.5 -8,2.3 -15.9,4.5 -24.3,3.2 -7,-1.1 -4.7,-5 3.2,-11.5 8.1,-6.7 11.6,-10.9 13.2,-14.4 5.3,-10.9 11.4,-13.6 14.7,-2.5 z"
     class="st4"
     style="clip-rule:evenodd;fill:#f8c37a;fill-rule:evenodd" /><path
     id="path555"
     d="m 226.13174,122.32855 c -0.4,1.5 -1.8,2.8 -3.1,3.7 -2.1,1.5 -4.4,2.8 -6.7,4 -6.6,3.6 -13.8,6.7 -20.9,9.4 -7.3,2.7 -16.1,5.6 -23.9,6.1 -3.6,0.2 -10.7,0.7 -12.2,-3.7 -1.1,-3.3 1.9,-6.5 4.1,-8.6 2.8,-2.7 6,-5.2 9.1,-7.7 0.7,-0.6 1.4,-1.1 2.1,-1.7 3.5,-2.9 13.2,-10.8 15.1,-14.8 1.2,-2.6 2.9,-5.3 5,-7.2 1.9,-1.7 4.2,-2.8 6.7,-2.5 1.3,0.1 2.5,0.6 3.6,1.3 2,1.3 3.7,2.9 5.4,4.6 1.2,1.2 2.4,2.6 3.8,3.7 1.5,1.3 3,2 5,2.4 3.2,0.6 6.9,0.1 9.99999,-0.4 2.1,-0.4 4.8,-0.6 5.8,1.9 0.8,2.1 -0.7,3.7 -2.2,4.9 -1.1,0.9 -2.3,1.7 -3.5,2.4 -0.8,0.6 -1.7,1.1 -2.5,1.7 -0.1,0.1 -0.4,0.3 -0.69999,0.5 z"
     class="st2"
     style="clip-rule:evenodd;fill:#0c3555;fill-rule:evenodd" /><path
     id="path557"
     d="m 222.33174,122.82855 c -5.5,4.8 -34.7,18.7 -51,19.8 -18.4,1.2 -5.4,-7.9 5.2,-16.6 8.1,-6.7 14.3,-12.3 15.9,-15.8 3.4,-7.1 7.6,-9.5 11,-7.2 8.8,5.9 8.5,14 26.29999,10.7 7.4,-1.4 -5.19999,7.2 -7.39999,9.1 z"
     class="st6"
     style="clip-rule:evenodd;fill:#fce6ad;fill-rule:evenodd" /><g
     id="g3181"><path
       style="clip-rule:evenodd;fill:#0c3555;fill-rule:evenodd"
       class="st2"
       d="m 198.63174,82.62855 c -5.2,5.9 -7.2,17 -7.2,21.6 0,4.6 1.1,1.5 1.1,2.2 7.3,-7.2 9.6,-5 13,-3 3.5,2.1 4.1,8.9 13.7,10.4 9.49999,1.5 22.19999,-13.5 15.29999,-21.1 -5.4,-6 -20.29999,-11 -31.59999,-10.7 -0.7,0 -3.6,0.6 -4.3,0.6 z"
       id="path511" /><path
       style="clip-rule:evenodd;fill:#a2c9d2;fill-rule:evenodd"
       class="st5"
       d="m 225.73174,96.22855 c -3,0 -5.4,2.4 -5.4,5.4 0,3 2.4,5.4 5.4,5.4 2.99999,0 5.39999,-2.4 5.39999,-5.4 0,-3 -2.4,-5.4 -5.39999,-5.4 z"
       id="path549" /><path
       style="clip-rule:evenodd;fill:#0c3555;fill-rule:evenodd"
       class="st2"
       d="m 232.33173,110.12855 c 4.8,0 8.7,3.9 8.7,8.7 0,4.8 -3.9,8.7 -8.7,8.7 -4.8,0 -8.69999,-3.9 -8.69999,-8.7 0,-4.8 3.89999,-8.7 8.69999,-8.7 z"
       id="path559" /><g
       id="g569"
       transform="translate(105.73173,67.028553)"><path
         class="st5"
         d="m 126.6,45.2 c -3.6,0 -6.6,3 -6.6,6.6 0,3.6 3,6.6 6.6,6.6 3.6,0 6.6,-3 6.6,-6.6 0,-3.7 -2.9,-6.6 -6.6,-6.6 z"
         id="path561" /><path
         class="st2"
         d="m 130.3,48.1 c 2,2 2,5.3 0,7.3 -2,2 -5.3,2 -7.3,0 -2,-2 -2,-5.3 0,-7.3 2,-2 5.3,-2 7.3,0 z"
         id="path563" /><path
         class="st5"
         d="m 129.6,48.8 c -1.6,-1.6 -4.3,-1.6 -5.9,0 -1.6,1.6 -1.6,4.3 0,5.9 1.6,1.6 4.3,1.6 5.9,0 1.6,-1.6 1.6,-4.3 0,-5.9 z"
         id="path565" /><path
         class="st2"
         d="m 129.6,48.8 c -0.2,-0.2 -0.4,-0.4 -0.6,-0.5 l -5.8,5.8 c 0.1,0.2 0.3,0.4 0.5,0.6 0.2,0.2 0.4,0.4 0.6,0.5 l 5.8,-5.8 c -0.2,-0.2 -0.3,-0.4 -0.5,-0.6 z"
         id="path567" /></g><path
       style="clip-rule:evenodd;fill:#0c3555;fill-rule:evenodd"
       class="st2"
       d="m 228.03173,98.12855 c -1.3,0 -2.29999,1 -2.29999,2.3 0,1.3 0.99999,2.3 2.29999,2.3 1.3,0 2.3,-1 2.3,-2.3 0,-1.3 -1,-2.3 -2.3,-2.3 z"
       id="path571" /><path
       style="clip-rule:evenodd;fill:#a2c9d2;fill-rule:evenodd"
       class="st5"
       d="m 198.53174,92.92855 c -1.2,-0.4 -2.7,1.1 -3.4,3.4 -0.7,2.2 -0.3,4.3 0.8,4.7 1.2,0.4 2.7,-1.1 3.4,-3.4 0.7,-2.2 0.4,-4.3 -0.8,-4.7 z"
       id="path573" /><path
       style="clip-rule:evenodd;fill:#0c3555;fill-rule:evenodd"
       class="st2"
       d="m 198.93174,94.62855 c -0.5,-0.2 -1.2,0.5 -1.5,1.5 -0.3,1 -0.1,1.9 0.4,2 0.5,0.2 1.2,-0.5 1.5,-1.5 0.3,-0.9 0.1,-1.8 -0.4,-2 z"
       id="path575" /></g><path
     id="path577"
     d="m 162.83174,394.22856 c 0.3,-2.1 1,-4 1.8,-5.6 2.4,-4.6 6.5,-7.4 10.9,-8.8 4.3,-1.4 8.9,-1.5 12.3,-0.8 1.7,0.3 3.1,0.9 4.1,1.5 l -1.4,2.7 c -0.8,-0.5 -1.9,-0.9 -3.2,-1.2 -3.1,-0.6 -7.2,-0.6 -11,0.7 -3.8,1.2 -7.3,3.5 -9.3,7.4 -0.7,1.3 -1.2,2.9 -1.5,4.6 z"
     class="st2"
     style="clip-rule:evenodd;fill:#0c3555;fill-rule:evenodd" /><path
     id="path579"
     d="m 147.03173,394.72856 c 0,-0.5 0.1,-0.9 0.1,-1.4 0.7,-5.5 4.10001,-10.7 9.90001,-14.4 5.6,-3.6 13.4,-5.7 22.9,-5.4 1.6,0.1 3.2,0.2 4.8,0.4 l -0.4,3.1 c -1.6,-0.2 -3.1,-0.3 -4.6,-0.4 -8.8,-0.3 -16,1.6 -21.1,4.9 -4.9,3.1 -7.9,7.5 -8.40001,12.1 0,0.4 -0.1,0.8 -0.1,1.1 z"
     class="st2"
     style="clip-rule:evenodd;fill:#0c3555;fill-rule:evenodd" /><path
     id="path581"
     d="m 241.63173,426.02856 c 1.6,-4.7 0.3,-10 -2.2,-15 -4,-8.1 -11,-15 -13.89999,-16.8 l 1.49999,-2.5 c 3.2,2 10.7,9.4 15,18 2.8,5.6 4.2,11.7 2.3,17.3 z"
     class="st2"
     style="clip-rule:evenodd;fill:#0c3555;fill-rule:evenodd" /><path
     id="path583"
     d="m 255.93173,425.42856 c 1.9,-5.8 0.4,-12 -2.4,-17.6 -4.3,-8.7 -12.7,-16.8 -16.1,-18.5 l 2.2,-1.5 c 3.8,1.8 11.9,9.4 16.5,18.7 3.1,6.2 4.7,13.2 2.5,19.8 z"
     class="st2"
     style="clip-rule:evenodd;fill:#0c3555;fill-rule:evenodd" /><path
     id="path591"
     d="m 193.33174,196.22856 c 1,0 1.9,0.9 1.8,1.9 0,1 -0.9,1.9 -1.9,1.8 -1,0 -1.9,-0.9 -1.8,-1.9 0,-1 0.9,-1.8 1.9,-1.8 z m 37.99999,1.6 c 1,0 1.9,0.9 1.8,1.9 0,1 -0.9,1.9 -1.9,1.8 -1,0 -1.9,-0.9 -1.8,-1.9 0,-1 0.9,-1.8 1.9,-1.8 z m -6.69999,3.9 c 1,0 1.89999,0.9 1.79999,1.9 0,1 -0.89999,1.9 -1.89999,1.8 -1,0 -1.9,-0.9 -1.8,-1.9 0,-1 0.9,-1.9 1.9,-1.8 z m -8.2,1.7 c 1,0 1.9,0.9 1.8,1.9 0,1 -0.9,1.9 -1.9,1.8 -1,0 -1.9,-0.9 -1.8,-1.9 0,-1 0.9,-1.8 1.9,-1.8 z m -8.8,-0.7 c 1,0 1.9,0.9 1.8,1.9 0,1 -0.9,1.9 -1.9,1.8 -1,0 -1.9,-0.9 -1.8,-1.9 0,-1 0.8,-1.8 1.9,-1.8 z m -8,-2.5 c 1,0 1.9,0.9 1.8,1.9 0,1 -0.9,1.9 -1.9,1.8 -1,0 -1.9,-0.9 -1.8,-1.9 0,-1 0.9,-1.8 1.9,-1.8 z"
     class="st2"
     style="clip-rule:evenodd;fill:#0c3555;fill-rule:evenodd" /><path
     id="path603"
     d="m 214.83174,380.42856 c 0.5,4.5 -2.7,8.5 -7.2,9.1 -4.5,0.5 -8.5,-2.7 -9.1,-7.2 -0.5,-4.5 2.7,-8.5 7.2,-9.1 4.6,-0.5 8.6,2.7 9.1,7.2 z"
     class="st2"
     style="clip-rule:evenodd;fill:#0c3555;fill-rule:evenodd" /><path
     id="path605"
     d="m 212.93174,380.72856 c -0.4,-3.4 -3.5,-5.9 -6.9,-5.5 -3.4,0.4 -5.9,3.5 -5.5,6.9 0.4,3.4 3.5,5.9 6.9,5.5 3.4,-0.4 5.9,-3.5 5.5,-6.9 z"
     class="st5"
     style="clip-rule:evenodd;fill:#a2c9d2;fill-rule:evenodd" /><path
     id="path607"
     d="m 210.53174,384.42856 c -1.7,2.1 -4.8,2.5 -6.9,0.8 -2.1,-1.7 -2.5,-4.8 -0.8,-6.9 1.7,-2.1 4.8,-2.5 6.9,-0.8 2.2,1.7 2.5,4.8 0.8,6.9 z"
     class="st2"
     style="clip-rule:evenodd;fill:#0c3555;fill-rule:evenodd" /><path
     id="path609"
     d="m 209.83174,383.82856 c 1.4,-1.7 1.1,-4.2 -0.6,-5.5 -1.7,-1.4 -4.2,-1.1 -5.5,0.6 -1.4,1.7 -1.1,4.2 0.6,5.5 1.6,1.4 4.1,1.1 5.5,-0.6 z"
     class="st5"
     style="clip-rule:evenodd;fill:#a2c9d2;fill-rule:evenodd" /><path
     id="path611"
     d="m 209.83174,383.82856 c 0.2,-0.2 0.3,-0.4 0.4,-0.6 l -6,-4.8 c -0.2,0.2 -0.4,0.3 -0.5,0.6 -0.2,0.2 -0.3,0.4 -0.4,0.6 l 6,4.8 c 0.1,-0.2 0.3,-0.4 0.5,-0.6 z"
     class="st2"
     style="clip-rule:evenodd;fill:#0c3555;fill-rule:evenodd" /><path
     id="path613"
     d="m 219.03174,384.62856 c -0.3,4.7 -3.5,8.1 -7.2,7.7 -3.7,-0.4 -6.5,-4.5 -6.2,-9.2 0.3,-4.7 3.5,-8.1 7.2,-7.7 3.6,0.4 6.4,4.6 6.2,9.2 z"
     class="st2"
     style="clip-rule:evenodd;fill:#0c3555;fill-rule:evenodd" /><path
     id="path615"
     d="m 217.33174,384.52856 c 0.2,-3.6 -1.9,-6.7 -4.8,-7 -2.8,-0.3 -5.3,2.3 -5.5,5.9 -0.2,3.6 1.9,6.7 4.8,7 2.9,0.2 5.3,-2.4 5.5,-5.9 z"
     class="st5"
     style="clip-rule:evenodd;fill:#a2c9d2;fill-rule:evenodd" /><path
     id="path617"
     d="m 213.83174,387.82856 c -1.7,1.8 -4.2,1.5 -5.7,-0.6 -1.5,-2.2 -1.3,-5.4 0.4,-7.2 1.7,-1.8 4.3,-1.5 5.7,0.6 1.5,2.2 1.3,5.4 -0.4,7.2 z"
     class="st2"
     style="clip-rule:evenodd;fill:#0c3555;fill-rule:evenodd" /><path
     id="path619"
     d="m 213.33174,387.02856 c 1.4,-1.4 1.5,-4 0.3,-5.7 -1.2,-1.7 -3.2,-2 -4.6,-0.5 -1.4,1.4 -1.5,4 -0.3,5.7 1.2,1.7 3.2,1.9 4.6,0.5 z"
     class="st5"
     style="clip-rule:evenodd;fill:#a2c9d2;fill-rule:evenodd" /><path
     id="path621"
     d="m 213.33174,387.02856 c 0.2,-0.2 0.3,-0.4 0.4,-0.6 l -4.2,-6.1 c -0.2,0.1 -0.4,0.3 -0.5,0.4 -0.2,0.2 -0.3,0.4 -0.4,0.6 l 4.2,6.1 c 0.2,-0.1 0.3,-0.2 0.5,-0.4 z"
     class="st2"
     style="clip-rule:evenodd;fill:#0c3555;fill-rule:evenodd" /><path
     id="path625"
     d="m 250.43173,102.62855 c 0,-14.4 -8.5,-23.6 -21.7,-28.1 -7.69999,-2.6 1.9,0.9 -6.09999,-2.1 4.39999,-0.7 5.29999,-0.8 9.89999,0.3 14.9,3.6 23.5,15 24.6,30 0,1.8 -1.5,3.3 -3.3,3.3 -1.9,-0.1 -3.4,-1.6 -3.4,-3.4 z"
     class="st8"
     style="clip-rule:evenodd;fill:#d2e5ea;fill-rule:evenodd" /><path
     id="path627"
     d="m 217.23174,108.32855 c -5,9.7 -7.8,10.8 -16.4,17 -5.9,4.2 -12,8.9 -18.5,12 4.2,-6.1 10.1,-10.8 15.6,-15.7 7,-6.2 9.5,-7.1 13.2,-15.9 0.7,-1.7 2.6,-2.5 4.3,-1.8 1.7,0.8 2.5,2.7 1.8,4.4 z"
     class="st9"
     style="clip-rule:evenodd;fill:#ffffff;fill-rule:evenodd" /><path
     id="path653"
     d="m 183.83174,317.82856 c -3.5,-2.7 -6.7,-5.7 -9.7,-9 1.6,7.7 5.7,14.4 11,18.6 0.8,0.6 1.6,1.2 2.4,1.7 0.3,0.2 0.7,0.4 1,0.6 1.1,0.6 2.3,1.2 3.5,1.6 1.8,0.6 3.8,0.9 5.7,0.9 0,0 0.1,0 0.1,0 -2.4,-1 -4.7,-2.5 -6.8,-4.4 -0.4,-0.4 -0.8,-0.7 -1.1,-1.1 -0.7,-0.7 -1.3,-1.4 -1.9,-2.2 -0.6,-0.7 -1.1,-1.4 -1.6,-2.2 -1,-1.4 -1.9,-2.9 -2.6,-4.5 z"
     class="st5"
     style="clip-rule:evenodd;fill:#a2c9d2;fill-rule:evenodd" /><path
     id="path657"
     d="m 154.33174,393.52856 h 8.6 c 0.4,-1.8 0.9,-3.5 1.7,-4.9 2.4,-4.6 6.5,-7.4 10.9,-8.8 3.6,-1.2 7.4,-1.4 10.6,-1 -0.2,-0.2 -0.4,-0.3 -0.6,-0.5 -0.7,-0.1 -1.3,-0.1 -2,-0.1 -8.8,-0.3 -16,1.6 -21.1,4.9 -4.3,2.7 -7.1,6.4 -8.1,10.4 z"
     class="st4"
     style="clip-rule:evenodd;fill:#f8c37a;fill-rule:evenodd" /><path
     id="path659"
     d="m 239.73173,421.32856 c -1.1,-7.5 -7.9,-16.7 -16.89999,-25 -2.6,1.9 -5,4.2 -7.1,6.8 -0.1,0.1 -0.1,0.1 -0.2,0.2 8.5,13 16.99999,19.2 24.29999,21.7 0,-0.1 0,-0.1 0,-0.2 0.1,-1 0.1,-2.2 -0.1,-3.5 z"
     class="st6"
     style="clip-rule:evenodd;fill:#fce6ad;fill-rule:evenodd" /><path
     id="path661"
     d="m 253.93173,418.12856 c -0.8,-9.3 -9,-21.5 -17.4,-27.9 -2.8,0.5 -5.4,1.4 -7.9,2.6 3.6,2.9 9.8,9.5 13.5,16.9 2.6,5.2 4,10.7 2.7,15.9 0,0.2 -0.1,0.4 -0.1,0.6 3.4,0.5 6.4,0.3 9,-0.3 0.1,-0.5 0.2,-1 0.2,-1.6 0.1,-1.7 0.2,-3.7 0,-6.2 z"
     class="st6"
     style="clip-rule:evenodd;fill:#fce6ad;fill-rule:evenodd" /><path
     id="path663"
     d="m 261.63173,414.02856 c -0.6,-9.6 -7.4,-16 -16.2,-23.9 -1,-0.2 -1.9,-0.3 -2.9,-0.3 4.2,3.2 9.9,9.5 13.6,16.7 2.4,4.7 3.8,9.9 3.5,15.1 0,0.6 -0.1,1.2 -0.2,1.9 0.5,-0.4 0.9,-0.8 1.4,-1.2 0.2,-0.7 0.4,-1.4 0.6,-2.2 0.2,-1.8 0.4,-3.7 0.2,-6.1 z"
     class="st6"
     style="clip-rule:evenodd;fill:#fce6ad;fill-rule:evenodd" /><path
     id="path665"
     d="m 214.13174,360.62856 c 2,0.1 3.3,2.1 4.1,4.1 -1.3,-5.3 -3.3,-12.7 -6.2,-23.2 -1.2,-0.6 -2.4,-1.1 -3.6,-1.7 2.6,8.8 4.4,15.6 5.7,20.8 z"
     class="st6"
     style="clip-rule:evenodd;fill:#fce6ad;fill-rule:evenodd" /><path
     id="path669"
     d="m 195.63174,190.52855 c -1,9.20001 24.1,11.90001 31.69999,6.60001 l 0.7,-0.5 c -3.49999,7.9 -36.49999,7.9 -35.59999,-6.60001 0.1,-0.9 1,-1.5 1.8,-1.3 1,0.1 1.6,1 1.4,1.8 z"
     class="st8"
     style="clip-rule:evenodd;fill:#d2e5ea;fill-rule:evenodd" /><path
     id="path671"
     d="m 200.93174,371.82856 c 0.6,-1.5 1.2,-2.7 2,-3.6 2,-2.4 2.87901,-2.51989 5.47901,-1.21989 0,0 0,0 0.22044,-2.42044 -2.6,-1.8 -4.49945,-1.45967 -6.69945,0.64033 -0.8,0.7 -1.5,1.8 -2.1,3.1 -0.4,0.8 -0.7,1.8 -1,2.8 l -1,3.6 c 0,0 -5,-0.1 -8.6,-0.5 -1.5,-0.2 -3.3,-0.3 -5.2,-0.5 1.1,0.6 2.2,1.3 3.2,2.1 0.2,0.2 0.5,0.4 0.7,0.6 1,0.1 1.9,0.2 2.8,0.3 3.5,0.4 8.6,0.5 8.6,0.5 l 1,-3.6 c 0.3,-0.7 0.4,-1.3 0.6,-1.8 z"
     class="st8"
     style="clip-rule:evenodd;fill:#d2e5ea;fill-rule:evenodd"
     sodipodi:nodetypes="sccccccccccccccs" /><path
     class="st8"
     d="m 244.23173,387.02856 c -6.5,-6 -13.1,-11 -16.5,-13.5 0,0 -0.4,-7.7 -2.09999,-10.4 -0.4,-0.6 -0.8,-1 -1.1,-1.2 -0.2,-0.1 -0.4,-0.2 -0.6,-0.2 2.2,12.6 2.2,12.6 2.2,12.6 l 0.99999,0.9 13.5,11.7 c 1.2,-0.1 2.4,0 3.6,0.1 z"
     id="path677"
     style="clip-rule:evenodd;fill:#d2e5ea;fill-rule:evenodd" /><path
     id="path3122"
     d="m 168.58203,311.24804 -9.50908,15.76822 -22.47703,8.00467 c 0,0 16.17467,34.4631 39.24698,17.92888 18.58884,-13.32125 84.08649,16.97868 84.08649,16.97868 0,0 21.72661,9.46715 36.9175,-9.04102 16.02638,-19.5261 33.36043,-14.51536 46.23925,-32.92974 17.7322,-25.35381 1.33001,-45.11531 19.74033,-78.85421 7.15859,-23.37246 -19.32252,-36.09966 -19.32252,-36.09966 l -11.90401,39.73549 z"
     style="fill:#ac0000;fill-opacity:1;stroke:#0c3555;stroke-width:5;stroke-linecap:butt;stroke-linejoin:miter;stroke-miterlimit:4;stroke-dasharray:none;stroke-opacity:1"
     sodipodi:nodetypes="cccscsscccc" /></g><g
   inkscape:groupmode="layer"
   id="layer6"
   inkscape:label="Layer 6"
   transform="translate(-127.8791,-48.36684)"
   style="display:inline"><path
     id="path667"
     d="m 203.73174,361.12856 c -1.4,-4.9 -3.5,-11.7 -6.3,-21.3 -0.1,0 -0.2,0 -0.3,0 -0.9,0 -1.8,-0.1 -2.7,-0.2 3.1,10.5 5.2,17.7 6.7,22.7 0.9,-0.5 1.7,-0.9 2.6,-1.2 z"
     class="st6"
     style="clip-rule:evenodd;display:inline;fill:#fce6ad;fill-rule:evenodd" /><path
     id="path467"
     d="m 187.13174,314.72856 14,47.6 7.89915,-0.79932 -10.79915,-43.00068 z"
     class="st4"
     style="clip-rule:evenodd;display:inline;fill:#f8c37a;fill-rule:evenodd;stroke:#0c3555;stroke-width:3;stroke-miterlimit:4;stroke-dasharray:none;stroke-opacity:1"
     sodipodi:nodetypes="ccccc" /><path
     style="display:inline;fill:#eb0000;fill-opacity:1;stroke:#0c3555;stroke-width:3;stroke-linecap:butt;stroke-linejoin:miter;stroke-miterlimit:4;stroke-dasharray:none;stroke-opacity:1"
     d="m 185.37661,202.58787 c 0.9721,21.62949 12.94419,27.05897 28.18952,17.453 13.20026,-8.31739 28.73138,-16.99124 28.73138,-16.99124 0,0 -13.14532,-25.01612 13.1208,5.18627 22.03888,25.34165 17.11342,40.39266 23.90749,51.86209 18.47345,0.69428 34.18788,-6.0454 43.79616,-16.22257 14.20137,-15.56326 19.17106,-28.95327 19.17106,-28.95327 0,0 14.43638,26.4096 7.17642,41.31085 -13.79429,18.15687 -29.38971,5.57799 -16.44595,39.35139 9.07565,23.68057 -26.44517,2.8715 -35.39924,45.48559 -5.1114,24.32609 -41.51409,14.33428 -53.16112,30.68533 -9.95379,13.97395 -35.23106,2.47315 -40.82206,-22.71181 -8.44738,-38.05162 -25.47826,-41.57877 -36.04884,-28.51798 -15.90258,19.6489 -32.77417,13.44046 -32.77417,13.44046 50.10767,-29.86466 9.74784,-46.29359 17.63541,-90.7559 1.91683,-10.06339 12.7145,-23.75914 21.77611,-32.39535 5.18516,-4.94174 11.14703,-8.22686 11.14703,-8.22686 z"
     id="path2290"
     sodipodi:nodetypes="cscsccccsssssccsc" /><g
     style="display:inline"
     id="g4089"
     transform="rotate(30,256.6174,197.1986)"><g
       transform="rotate(30,29.363915,13.01547)"
       id="g2242"><path
         class="st2"
         d="m 365.88124,146.87794 c -5.6,0.4 -11.6,4.6 -15.7,8.3 -3.8,3.4 -7.7,6.7 -11.6,10 l -2.3,1.9 9.6,10.8 2.2,-1.8 c 4,-3.4 8,-6.9 11.8,-10.5 2.7,-2.6 5.5,-5.3 7.9,-8.2 1.8,-2.2 4.5,-5.7 2.7,-8.6 -1.1,-1.6 -2.9,-2 -4.6,-1.9 z"
         id="path1544"
         style="clip-rule:evenodd;fill:#0c3555;fill-rule:evenodd" /><path
         class="st3"
         d="m 366.08124,149.77794 c -4.5,0.4 -9.9,3.9 -14,7.5 -4.1,3.6 -11.7,10 -11.7,10 l 5.7,6.4 c 4.1,-3.3 28.9,-24.6 20,-23.9 z"
         id="path1546"
         style="clip-rule:evenodd;fill:#6898b8;fill-rule:evenodd" /><path
         class="st2"
         d="m 371.58124,151.97794 c -5.6,0 -11.9,3.7 -16.3,7 -3,2.3 -6,4.5 -9,6.7 -1.4,1 -2.3,2.4 -2.6,4.1 -0.5,3.3 1.6,5.9 3.1,8.5 0.4,0.7 1.1,1.2 1.9,1.4 0.8,0.2 1.6,0 2.3,-0.5 4.3,-3.1 8.6,-6.1 12.7,-9.4 3,-2.3 6,-4.8 8.6,-7.4 2,-2 5.1,-5.2 3.5,-8.2 -0.8,-1.7 -2.5,-2.2 -4.2,-2.2 z"
         id="path1548"
         style="clip-rule:evenodd;fill:#0c3555;fill-rule:evenodd" /><path
         class="st3"
         d="m 371.58124,154.87794 c -4.6,0 -10.2,3.1 -14.5,6.4 -2.5,1.9 -6.4,4.7 -9.1,6.7 -3.3,2.4 -0.1,6.2 1.3,8.7 4.3,-3 31.2,-21.8 22.3,-21.8 z"
         id="path1550"
         style="clip-rule:evenodd;fill:#6898b8;fill-rule:evenodd" /><path
         class="st2"
         d="m 350.88124,169.27794 c 0,-0.4 0.4,-1.3 0.6,-1.7 1.8,-2.1 3.6,-4.4 5.3,-6.6 3.9,-5 7.7,-10.1 11.1,-15.4 2.7,-4.2 5.4,-8.7 7.4,-13.2 2.1,-4.8 4.6,-10.7 3.3,-16.1 -0.7,-2.7 -2.1,-5 -3.7,-7.2 -2.1,-2.8 -4.4,-5.5 -6.6,-8.3 -9.9,-12.700003 -35.8,-34.600004 -52.3,-35.500004 l -2.2,-0.1 -0.7,2.1 c -1.4,3.9 -0.2,10.4 0.6,14.4 1.3,6.500001 3.2,13.100001 5.2,19.400004 2.1,6.7 4.4,13.4 6.7,20.1 0.8,2.4 1.7,4.8 2.5,7.3 0.4,1.2 0.9,2.6 1.2,3.8 0.2,0.8 0.2,1.8 0.3,2.6 0.1,1.5 0.2,3 0.2,4.5 0.1,4 0.1,8 0.1,12 0,6.8 -0.1,13.7 -0.3,20.5 v 1.6 l 1.3,0.9 c 1.8,1.2 3.5,2.4 5.3,3.5 1.6,1 3.6,2.4 5.3,3.1 3.7,1.7 8.7,-1.2 11.8,-3.2 1.8,-1.1 3.8,-2.7 3.1,-5.1 -0.7,-2.4 -3.1,-2.4 -5,-3.2 -0.2,-0.1 -0.4,-0.2 -0.5,-0.2 z"
         id="path1552"
         style="clip-rule:evenodd;fill:#0c3555;fill-rule:evenodd" /><path
         class="st5"
         d="m 315.88124,68.077936 c 14.9,0.8 40.2,21.500001 50.1,34.400004 9.9,12.8 13.3,13.7 6.6,28.6 -6.6,14.9 -23.6,34.8 -23.6,34.8 -5,9.3 9.4,5.2 2.6,9.4 -2.5,1.6 -6.7,4 -9,3 -2.3,-1 -10.2,-6.4 -10.2,-6.4 0,0 0.9,-34.5 -0.3,-40.3 -1.2,-5.8 -19.9,-53.000004 -16.2,-63.500004 z"
         id="path1554"
         style="clip-rule:evenodd;fill:#a2c9d2;fill-rule:evenodd" /><path
         class="st2"
         d="m 344.08124,167.17794 c -1.9,3.8 -1.1,8.2 1.9,9.9 3,1.7 7,0.1 8.9,-3.7 1.9,-3.8 1.1,-8.2 -1.9,-9.9 -3,-1.7 -7,-0.1 -8.9,3.7 z"
         id="path1558"
         style="clip-rule:evenodd;fill:#0c3555;fill-rule:evenodd" /><path
         class="st5"
         d="m 345.38124,167.97794 c 1.5,-2.9 4.5,-4.1 6.8,-2.8 2.3,1.3 2.9,4.7 1.5,7.6 -1.5,2.9 -4.5,4.1 -6.8,2.8 -2.3,-1.4 -3,-4.8 -1.5,-7.6 z"
         id="path1560"
         style="clip-rule:evenodd;fill:#a2c9d2;fill-rule:evenodd" /><path
         class="st2"
         d="m 345.78124,171.87794 c 0.5,2.3 2.5,3.5 4.6,2.6 2.1,-0.9 3.4,-3.5 3,-5.8 -0.5,-2.3 -2.5,-3.5 -4.6,-2.6 -2.2,0.9 -3.5,3.5 -3,5.8 z"
         id="path1562"
         style="clip-rule:evenodd;fill:#0c3555;fill-rule:evenodd" /><path
         class="st5"
         d="m 346.48124,171.57794 c -0.4,-1.9 0.7,-3.9 2.4,-4.6 1.7,-0.7 3.3,0.2 3.7,2.1 0.4,1.9 -0.7,3.9 -2.4,4.6 -1.7,0.7 -3.3,-0.2 -3.7,-2.1 z"
         id="path1564"
         style="clip-rule:evenodd;fill:#a2c9d2;fill-rule:evenodd" /><path
         class="st2"
         d="m 346.48124,171.57794 c 0,-0.2 -0.1,-0.5 -0.1,-0.7 l 5.9,-2.5 c 0.1,0.2 0.1,0.4 0.2,0.6 0,0.2 0.1,0.5 0.1,0.7 l -5.9,2.5 c -0.1,-0.2 -0.1,-0.4 -0.2,-0.6 z"
         id="path1566"
         style="clip-rule:evenodd;fill:#0c3555;fill-rule:evenodd" /><path
         class="st3"
         d="m 336.18124,83.677936 c 10.5,9.400001 21.9,21.100004 24.3,25.000004 1.1,1.8 1.8,2.9 2.2,3.6 -3.6,-0.1 -7.8,1.2 -10.8,2.8 -1.3,0.7 -2.4,1.5 -3.4,2.2 -1.5,-11.9 -5.6,-23.700003 -12.3,-33.600004 z"
         id="path1568"
         style="clip-rule:evenodd;fill:#6898b8;fill-rule:evenodd" /><path
         class="st3"
         d="m 349.58124,156.77794 c 1.2,-0.3 3.5,-2.5 6.2,-5.9 6.7,-8.5 16.2,-24.5 19.3,-36 1.8,4 1.2,8 -2.4,16.2 -2.3,5.2 -5.9,11 -9.5,16.3 -1,1.5 -2.1,3 -3.1,4.4 -2.3,3.2 -4.6,6.2 -6.4,8.5 -0.8,1 -1.5,1.9 -2.1,2.7 -0.4,-0.1 -0.9,-0.1 -1.4,-0.1 -2.3,0.2 -4.7,1.8 -6,4.4 -0.5,1 -0.8,2.1 -1,3.2 -0.3,2.8 0.7,5.5 2.9,6.7 0,0 0.1,0 0.1,0 0.1,0.1 0.2,0.1 0.3,0.2 0.3,0.1 0.6,0.2 0.8,0.3 -0.2,0.1 -0.5,0.2 -0.7,0.3 -1.5,0.6 -3,0.8 -4,0.4 -1.2,-0.6 -4.2,-2.4 -6.5,-4 -0.1,-0.1 -0.2,-0.1 -0.3,-0.2 0.1,-0.1 0.2,-0.3 0.3,-0.4 0.9,-1.2 1.8,-2.5 2.7,-3.8 2,-3 3.7,-6.1 5.2,-9.4 0.1,-0.3 0.2,-0.5 0.3,-0.8 0.5,-1.2 1.1,-2.3 1.7,-3.5 0.8,0.3 1.5,0.5 2.2,0.6 0.5,0 1,0 1.4,-0.1 z"
         id="path1570"
         style="clip-rule:evenodd;fill:#6898b8;fill-rule:evenodd" /><path
         class="st8"
         d="m 369.98124,108.97794 c -6.6,-10.700003 -20.3,-22.900004 -31,-29.600004 -2.5,-1.5 -1.9,-1.2 -4.5,-2.2 11.3,10.1 24.4,19.800001 32.1,33.300004 0.4,0.9 1.5,1.4 2.4,1 1,-0.5 1.4,-1.5 1,-2.5 z"
         id="path1572"
         style="clip-rule:evenodd;fill:#d2e5ea;fill-rule:evenodd" /><path
         class="st8"
         d="m 343.88124,114.77794 c -1.6,-11.3 -8.4,-27.400004 -16.1,-35.600004 l -3.5,-3.1 c 6.2,14.000001 12.4,23.200001 13.5,39.200004 0.1,1.7 1.6,2.9 3.3,2.8 1.7,-0.1 3,-1.6 2.8,-3.3 z"
         id="path1574"
         style="clip-rule:evenodd;fill:#d2e5ea;fill-rule:evenodd" /></g><path
       class="st2"
       d="m 247.57642,264.7781 c 7.7514,-2.66695 12.9946,-2.8944 19.11742,1.23323 3.66446,2.4585 5.24123,5.2896 7.58241,8.83214 l -0.73238,-4.32909 c -1.29289,-3.85158 -4.96797,-7.3825 -8.45685,-9.23353 -6.44389,-3.44316 -11.16208,-2.7113 -18.6474,-0.57382 -1.2044,0.52856 -1.99374,1.87155 -1.7898,3.06043 0.36004,0.9694 1.57503,1.51324 2.92664,1.01066 z"
       id="path481-0"
       style="clip-rule:evenodd;fill:#0c3555;fill-rule:evenodd;stroke-width:1.10107" /></g><path
     id="path4185"
     d="m 254.92198,299.55171 c -25.39813,19.06998 -44.91867,7.34444 -46.39702,18.35257 -2.30441,17.15911 12.87253,25.78561 31.78588,47.90321 -5.46182,-27.7325 -2.22112,-42.13065 5.16971,-40.32628 17.29799,14.33877 21.06512,16.49299 44.94829,13.1871 -9.76286,-2.65409 -33.01587,-26.42461 -23.05414,-36.74254 29.02589,4.01307 47.42372,3.89762 56.91492,-1.44088 -17.09898,-4.829 -41.29483,-7.11264 -39.62431,-16.57017 1.23077,-6.47834 7.20441,2.16133 19.45193,-3.60221 11.12853,-2.6873 26.30843,-18.79771 26.5162,-33.01313 -15.41295,16.094 -32.01905,28.01191 -57.73985,19.67477 -9.03312,8.14441 1.53339,15.28322 -17.97161,32.57756 z"
     style="fill:#d60000;fill-opacity:1;stroke:#000000;stroke-width:0;stroke-linecap:butt;stroke-linejoin:miter;stroke-miterlimit:4;stroke-dasharray:none;stroke-opacity:1"
     sodipodi:nodetypes="cscccccccccc" /></g></svg>
