<svg fill="none" xmlns="http://www.w3.org/2000/svg" viewBox="0 0 878 299"><path d="M34.312 229l.84-2.51h3.828l.845 2.51h1.969l-3.59-10.182h-2.277L32.343 229h1.968zm1.337-3.992l1.377-4.102h.08l1.377 4.102h-2.834z" fill="red"/><path d="M47.187 229.248h3.902c2.367 0 3.436-1.179 3.436-2.74 0-1.576-1.104-2.466-2.113-2.52v-.1c.934-.238 1.715-.875 1.715-2.147 0-1.507-1.044-2.675-3.212-2.675h-3.728v10.182zm1.536-1.318v-3.261h2.272c1.233 0 2.003.795 2.003 1.765 0 .855-.581 1.496-2.058 1.496h-2.217zm0-4.459v-3.098h2.098c1.218 0 1.8.642 1.8 1.487 0 .984-.806 1.611-1.84 1.611h-2.058zM57.167 232.111c1.228 0 2.003-.641 2.446-1.844l3.157-8.641-1.606-.015-1.934 5.926h-.08l-1.933-5.926h-1.591l2.794 7.736-.184.507c-.378 1.014-.91 1.099-1.725.875l-.358 1.218c.179.08.566.164 1.014.164zM64.17 232.111h1.487v-4.052h.09c.268.488.815 1.338 2.207 1.338 1.85 0 3.192-1.482 3.192-3.953 0-2.475-1.362-3.932-3.207-3.932-1.417 0-1.929.865-2.192 1.337h-.125v-1.238h-1.451v10.5zm1.457-6.681c0-1.596.696-2.655 1.994-2.655 1.347 0 2.023 1.138 2.023 2.655 0 1.531-.696 2.699-2.023 2.699-1.278 0-1.994-1.094-1.994-2.699zM75.034 229.417c1.262 0 1.973-.642 2.257-1.213h.06v1.044h1.451v-5.071c0-2.223-1.75-2.665-2.963-2.665-1.382 0-2.655.557-3.152 1.949l1.397.318c.219-.542.776-1.064 1.775-1.064.96 0 1.452.502 1.452 1.367v.035c0 .542-.557.532-1.93.691-1.446.169-2.928.547-2.928 2.282 0 1.501 1.129 2.327 2.58 2.327zm.323-1.193c-.84 0-1.447-.378-1.447-1.114 0-.796.706-1.079 1.566-1.193.482-.065 1.626-.194 1.84-.408v.984c0 .905-.721 1.731-1.96 1.731zM86.504 223.476c-.308-1.189-1.238-1.964-2.888-1.964-1.725 0-2.948.91-2.948 2.262 0 1.084.656 1.805 2.088 2.123l1.292.283c.736.164 1.08.492 1.08.97 0 .591-.632 1.054-1.607 1.054-.89 0-1.461-.383-1.64-1.134l-1.437.219c.249 1.352 1.372 2.113 3.087 2.113 1.845 0 3.122-.98 3.122-2.362 0-1.079-.686-1.745-2.088-2.068l-1.213-.278c-.84-.199-1.203-.483-1.198-1-.005-.586.632-1.004 1.477-1.004.924 0 1.352.512 1.526 1.024l1.347-.238zM94.01 223.476c-.308-1.189-1.238-1.964-2.888-1.964-1.725 0-2.948.91-2.948 2.262 0 1.084.656 1.805 2.088 2.123l1.292.283c.736.164 1.08.492 1.08.97 0 .591-.632 1.054-1.607 1.054-.89 0-1.461-.383-1.64-1.134l-1.437.219c.248 1.352 1.372 2.113 3.087 2.113 1.845 0 3.122-.98 3.122-2.362 0-1.079-.686-1.745-2.088-2.068l-1.213-.278c-.84-.199-1.203-.483-1.198-1-.005-.586.632-1.004 1.477-1.004.924 0 1.352.512 1.526 1.024l1.347-.238zM99.085 229.402c1.665 0 2.844-.821 3.182-2.063l-1.407-.254c-.269.721-.915 1.089-1.76 1.089-1.273 0-2.128-.825-2.168-2.297h5.429v-.527c0-2.759-1.65-3.838-3.38-3.838-2.128 0-3.53 1.621-3.53 3.967 0 2.372 1.382 3.923 3.634 3.923zm-2.148-4.639c.06-1.083.845-2.023 2.053-2.023 1.154 0 1.91.855 1.915 2.023h-3.968zM106.869 229.397c1.392 0 1.939-.85 2.208-1.338h.124v1.189h1.452v-10.182h-1.487v3.783h-.089c-.269-.472-.776-1.337-2.198-1.337-1.844 0-3.202 1.457-3.202 3.932 0 2.471 1.338 3.953 3.192 3.953zm.328-1.268c-1.327 0-2.018-1.168-2.018-2.699 0-1.517.676-2.655 2.018-2.655 1.298 0 1.994 1.059 1.994 2.655 0 1.605-.711 2.699-1.994 2.699zM119.696 229.402c1.805 0 2.973-1.084 3.137-2.571h-1.447c-.189.826-.83 1.313-1.68 1.313-1.258 0-2.068-1.049-2.068-2.714 0-1.636.825-2.665 2.068-2.665.944 0 1.521.596 1.68 1.312h1.447c-.159-1.541-1.417-2.565-3.152-2.565-2.153 0-3.545 1.621-3.545 3.952 0 2.302 1.343 3.938 3.56 3.938zM127.639 229.402c2.153 0 3.56-1.576 3.56-3.938 0-2.376-1.407-3.952-3.56-3.952-2.152 0-3.559 1.576-3.559 3.952 0 2.362 1.407 3.938 3.559 3.938zm.005-1.248c-1.407 0-2.063-1.228-2.063-2.695 0-1.461.656-2.704 2.063-2.704 1.397 0 2.054 1.243 2.054 2.704 0 1.467-.657 2.695-2.054 2.695zM135.717 229.397c1.392 0 1.939-.85 2.207-1.338h.125v1.189h1.451v-10.182h-1.486v3.783h-.09c-.268-.472-.775-1.337-2.197-1.337-1.845 0-3.202 1.457-3.202 3.932 0 2.471 1.337 3.953 3.192 3.953zm.328-1.268c-1.327 0-2.018-1.168-2.018-2.699 0-1.517.676-2.655 2.018-2.655 1.298 0 1.994 1.059 1.994 2.655 0 1.605-.711 2.699-1.994 2.699zM144.913 229.402c1.666 0 2.844-.821 3.182-2.063l-1.407-.254c-.269.721-.915 1.089-1.76 1.089-1.273 0-2.128-.825-2.168-2.297h5.429v-.527c0-2.759-1.65-3.838-3.38-3.838-2.128 0-3.53 1.621-3.53 3.967 0 2.372 1.382 3.923 3.634 3.923zm-2.148-4.639c.06-1.083.846-2.023 2.054-2.023 1.153 0 1.909.855 1.914 2.023h-3.968zM153.544 229.248h1.486v-4.664c0-.999.771-1.72 1.825-1.72.308 0 .656.055.775.09v-1.422a5.992 5.992 0 00-.631-.035c-.895 0-1.66.507-1.939 1.327h-.079v-1.213h-1.437v7.637zM161.935 229.402c1.665 0 2.843-.821 3.181-2.063l-1.407-.254c-.268.721-.914 1.089-1.76 1.089-1.272 0-2.127-.825-2.167-2.297h5.429v-.527c0-2.759-1.651-3.838-3.381-3.838-2.128 0-3.53 1.621-3.53 3.967 0 2.372 1.382 3.923 3.635 3.923zm-2.148-4.639c.06-1.083.845-2.023 2.053-2.023 1.154 0 1.909.855 1.914 2.023h-3.967zM173.16 221.611h-1.595l-1.929 5.877h-.08l-1.934-5.877h-1.596l2.774 7.637h1.591l2.769-7.637zM174.557 229.248h1.487v-7.637h-1.487v7.637zm.751-8.815c.512 0 .94-.398.94-.885s-.428-.89-.94-.89c-.517 0-.939.403-.939.89s.422.885.939.885zM181.335 229.402c1.665 0 2.844-.821 3.182-2.063l-1.407-.254c-.269.721-.915 1.089-1.76 1.089-1.273 0-2.128-.825-2.168-2.297h5.429v-.527c0-2.759-1.65-3.838-3.38-3.838-2.128 0-3.53 1.621-3.53 3.967 0 2.372 1.382 3.923 3.634 3.923zm-2.148-4.639c.06-1.083.845-2.023 2.054-2.023 1.153 0 1.909.855 1.914 2.023h-3.968zM187.902 229.248h1.512l1.551-5.514h.114l1.551 5.514h1.517l2.242-7.637h-1.536l-1.487 5.583h-.074l-1.492-5.583h-1.536l-1.501 5.608h-.075l-1.497-5.608h-1.536l2.247 7.637z" fill="#000"/><path d="M259.004 229h4.121c2.332 0 3.475-1.188 3.475-2.774 0-1.541-1.093-2.446-2.177-2.501v-.099c.994-.234 1.78-.93 1.78-2.168 0-1.516-1.094-2.64-3.301-2.64h-3.898V229zm1.844-1.541v-2.983h2.034c1.138 0 1.844.696 1.844 1.606 0 .81-.557 1.377-1.894 1.377h-1.984zm0-4.31v-2.809h1.865c1.084 0 1.645.571 1.645 1.357 0 .895-.726 1.452-1.685 1.452h-1.825z" fill="red"/><path d="M281.643 222.377c-.348-2.178-2.053-3.45-4.206-3.45-2.635 0-4.579 1.973-4.579 5.23 0 3.256 1.934 5.23 4.579 5.23 2.237 0 3.873-1.402 4.206-3.416l-1.551-.005c-.263 1.303-1.357 2.019-2.645 2.019-1.745 0-3.062-1.337-3.062-3.828 0-2.471 1.312-3.828 3.067-3.828 1.298 0 2.387.73 2.64 2.048h1.551zM286.579 229.402c2.152 0 3.559-1.576 3.559-3.938 0-2.376-1.407-3.952-3.559-3.952-2.153 0-3.56 1.576-3.56 3.952 0 2.362 1.407 3.938 3.56 3.938zm.005-1.248c-1.407 0-2.063-1.228-2.063-2.695 0-1.461.656-2.704 2.063-2.704 1.397 0 2.053 1.243 2.053 2.704 0 1.467-.656 2.695-2.053 2.695zM291.798 229.248h1.486v-4.708c0-1.03.721-1.745 1.566-1.745.826 0 1.397.546 1.397 1.377v5.076h1.482v-4.867c0-.92.562-1.586 1.531-1.586.786 0 1.432.437 1.432 1.471v4.982h1.486v-5.121c0-1.745-.974-2.615-2.356-2.615-1.099 0-1.924.527-2.292 1.342h-.08c-.333-.835-1.034-1.342-2.053-1.342-1.009 0-1.76.502-2.078 1.342h-.094v-1.243h-1.427v7.637zM304.171 232.111h1.486v-4.052h.09c.268.488.815 1.338 2.207 1.338 1.85 0 3.192-1.482 3.192-3.953 0-2.475-1.362-3.932-3.207-3.932-1.417 0-1.929.865-2.192 1.337h-.125v-1.238h-1.451v10.5zm1.456-6.681c0-1.596.696-2.655 1.994-2.655 1.347 0 2.023 1.138 2.023 2.655 0 1.531-.696 2.699-2.023 2.699-1.278 0-1.994-1.094-1.994-2.699zM312.811 229.248h1.487v-4.664c0-.999.77-1.72 1.824-1.72.309 0 .657.055.776.09v-1.422a5.992 5.992 0 00-.631-.035c-.895 0-1.661.507-1.939 1.327h-.08v-1.213h-1.437v7.637zM321.128 229.402c2.152 0 3.559-1.576 3.559-3.938 0-2.376-1.407-3.952-3.559-3.952-2.153 0-3.56 1.576-3.56 3.952 0 2.362 1.407 3.938 3.56 3.938zm.005-1.248c-1.407 0-2.064-1.228-2.064-2.695 0-1.461.657-2.704 2.064-2.704 1.397 0 2.053 1.243 2.053 2.704 0 1.467-.656 2.695-2.053 2.695zM326.347 229.248h1.486v-4.708c0-1.03.721-1.745 1.566-1.745.825 0 1.397.546 1.397 1.377v5.076h1.482v-4.867c0-.92.561-1.586 1.531-1.586.785 0 1.432.437 1.432 1.471v4.982h1.486v-5.121c0-1.745-.974-2.615-2.356-2.615-1.099 0-1.924.527-2.292 1.342h-.08c-.333-.835-1.034-1.342-2.053-1.342-1.009 0-1.76.502-2.078 1.342h-.095v-1.243h-1.426v7.637zM338.72 229.248h1.486v-7.637h-1.486v7.637zm.75-8.815c.512 0 .94-.398.94-.885s-.428-.89-.94-.89c-.517 0-.939.403-.939.89s.422.885.939.885zM347.928 223.476c-.308-1.189-1.238-1.964-2.888-1.964-1.725 0-2.948.91-2.948 2.262 0 1.084.656 1.805 2.088 2.123l1.292.283c.736.164 1.079.492 1.079.97 0 .591-.631 1.054-1.606 1.054-.89 0-1.461-.383-1.64-1.134l-1.437.219c.248 1.352 1.372 2.113 3.087 2.113 1.845 0 3.122-.98 3.122-2.362 0-1.079-.686-1.745-2.088-2.068l-1.213-.278c-.84-.199-1.203-.483-1.198-1-.005-.586.631-1.004 1.477-1.004.924 0 1.352.512 1.526 1.024l1.347-.238zM353.003 229.402c1.665 0 2.844-.821 3.182-2.063l-1.407-.254c-.269.721-.915 1.089-1.76 1.089-1.273 0-2.128-.825-2.168-2.297h5.429v-.527c0-2.759-1.65-3.838-3.38-3.838-2.128 0-3.53 1.621-3.53 3.967 0 2.372 1.382 3.923 3.634 3.923zm-2.148-4.639c.06-1.083.845-2.023 2.053-2.023 1.154 0 1.91.855 1.915 2.023h-3.968zM360.787 229.397c1.392 0 1.939-.85 2.208-1.338h.124v1.189h1.452v-10.182h-1.487v3.783h-.089c-.269-.472-.776-1.337-2.198-1.337-1.844 0-3.202 1.457-3.202 3.932 0 2.471 1.338 3.953 3.192 3.953zm.328-1.268c-1.327 0-2.018-1.168-2.018-2.699 0-1.517.676-2.655 2.018-2.655 1.298 0 1.994 1.059 1.994 2.655 0 1.605-.711 2.699-1.994 2.699zM376.12 223.476c-.309-1.189-1.238-1.964-2.889-1.964-1.725 0-2.948.91-2.948 2.262 0 1.084.656 1.805 2.088 2.123l1.293.283c.735.164 1.078.492 1.078.97 0 .591-.631 1.054-1.605 1.054-.89 0-1.462-.383-1.641-1.134l-1.437.219c.249 1.352 1.372 2.113 3.088 2.113 1.844 0 3.122-.98 3.122-2.362 0-1.079-.686-1.745-2.088-2.068l-1.213-.278c-.841-.199-1.204-.483-1.199-1-.005-.586.632-1.004 1.477-1.004.925 0 1.352.512 1.526 1.024l1.348-.238zM381.12 229.402c2.152 0 3.559-1.576 3.559-3.938 0-2.376-1.407-3.952-3.559-3.952-2.153 0-3.56 1.576-3.56 3.952 0 2.362 1.407 3.938 3.56 3.938zm.005-1.248c-1.407 0-2.063-1.228-2.063-2.695 0-1.461.656-2.704 2.063-2.704 1.397 0 2.053 1.243 2.053 2.704 0 1.467-.656 2.695-2.053 2.695zM391.176 226.081c.005 1.297-.959 1.914-1.795 1.914-.919 0-1.556-.666-1.556-1.705v-4.679h-1.486v4.858c0 1.894 1.039 2.878 2.505 2.878 1.149 0 1.929-.606 2.282-1.422h.08v1.323h1.462v-7.637h-1.492v4.47zM394.665 229.248h1.486v-4.664c0-.999.771-1.72 1.825-1.72.308 0 .656.055.776.09v-1.422a6.028 6.028 0 00-.632-.035c-.895 0-1.66.507-1.939 1.327h-.079v-1.213h-1.437v7.637zM402.981 229.402c1.805 0 2.973-1.084 3.137-2.571h-1.447c-.188.826-.83 1.313-1.68 1.313-1.258 0-2.068-1.049-2.068-2.714 0-1.636.825-2.665 2.068-2.665.945 0 1.521.596 1.68 1.312h1.447c-.159-1.541-1.417-2.565-3.152-2.565-2.153 0-3.545 1.621-3.545 3.952 0 2.302 1.343 3.938 3.56 3.938zM410.999 229.402c1.666 0 2.844-.821 3.182-2.063l-1.407-.254c-.269.721-.915 1.089-1.76 1.089-1.273 0-2.128-.825-2.168-2.297h5.429v-.527c0-2.759-1.65-3.838-3.38-3.838-2.128 0-3.53 1.621-3.53 3.967 0 2.372 1.382 3.923 3.634 3.923zm-2.148-4.639c.06-1.083.845-2.023 2.054-2.023 1.153 0 1.909.855 1.914 2.023h-3.968zM422.846 229.402c1.805 0 2.973-1.084 3.137-2.571h-1.446c-.189.826-.831 1.313-1.681 1.313-1.258 0-2.068-1.049-2.068-2.714 0-1.636.825-2.665 2.068-2.665.945 0 1.522.596 1.681 1.312h1.446c-.159-1.541-1.417-2.565-3.152-2.565-2.152 0-3.544 1.621-3.544 3.952 0 2.302 1.342 3.938 3.559 3.938zM430.79 229.402c2.152 0 3.559-1.576 3.559-3.938 0-2.376-1.407-3.952-3.559-3.952-2.153 0-3.56 1.576-3.56 3.952 0 2.362 1.407 3.938 3.56 3.938zm.005-1.248c-1.407 0-2.064-1.228-2.064-2.695 0-1.461.657-2.704 2.064-2.704 1.397 0 2.053 1.243 2.053 2.704 0 1.467-.656 2.695-2.053 2.695zM437.495 224.714c0-1.218.746-1.914 1.78-1.914 1.009 0 1.621.661 1.621 1.769v4.679h1.486v-4.858c0-1.889-1.039-2.878-2.6-2.878-1.148 0-1.899.532-2.252 1.342h-.095v-1.243h-1.426v7.637h1.486v-4.534zM447.94 221.611h-1.566v-1.829h-1.486v1.829h-1.119v1.194h1.119v4.509c-.005 1.387 1.054 2.058 2.227 2.033.472-.005.791-.094.965-.159l-.269-1.228c-.099.02-.283.065-.522.065-.482 0-.915-.159-.915-1.019v-4.201h1.566v-1.194zM449.585 229.248h1.486v-4.664c0-.999.771-1.72 1.825-1.72.308 0 .656.055.775.09v-1.422a5.992 5.992 0 00-.631-.035c-.895 0-1.66.507-1.939 1.327h-.079v-1.213h-1.437v7.637zM457.901 229.402c2.153 0 3.56-1.576 3.56-3.938 0-2.376-1.407-3.952-3.56-3.952s-3.56 1.576-3.56 3.952c0 2.362 1.407 3.938 3.56 3.938zm.005-1.248c-1.407 0-2.063-1.228-2.063-2.695 0-1.461.656-2.704 2.063-2.704 1.397 0 2.053 1.243 2.053 2.704 0 1.467-.656 2.695-2.053 2.695zM464.606 219.066h-1.486v10.182h1.486v-10.182zM476.034 223.476c-.309-1.189-1.238-1.964-2.889-1.964-1.725 0-2.948.91-2.948 2.262 0 1.084.656 1.805 2.088 2.123l1.293.283c.735.164 1.079.492 1.079.97 0 .591-.632 1.054-1.606 1.054-.89 0-1.462-.383-1.641-1.134l-1.437.219c.249 1.352 1.372 2.113 3.088 2.113 1.844 0 3.122-.98 3.122-2.362 0-1.079-.686-1.745-2.088-2.068l-1.213-.278c-.841-.199-1.203-.483-1.198-1-.005-.586.631-1.004 1.476-1.004.925 0 1.352.512 1.526 1.024l1.348-.238zM478.757 232.111c1.228 0 2.003-.641 2.446-1.844l3.157-8.641-1.606-.015-1.934 5.926h-.079l-1.934-5.926h-1.591l2.794 7.736-.184.507c-.378 1.014-.91 1.099-1.725.875l-.358 1.218c.179.08.566.164 1.014.164zM491.483 223.476c-.308-1.189-1.238-1.964-2.889-1.964-1.725 0-2.948.91-2.948 2.262 0 1.084.656 1.805 2.088 2.123l1.293.283c.736.164 1.079.492 1.079.97 0 .591-.632 1.054-1.606 1.054-.89 0-1.462-.383-1.641-1.134l-1.436.219c.248 1.352 1.372 2.113 3.087 2.113 1.844 0 3.122-.98 3.122-2.362 0-1.079-.686-1.745-2.088-2.068l-1.213-.278c-.84-.199-1.203-.483-1.198-1-.005-.586.631-1.004 1.476-1.004.925 0 1.353.512 1.527 1.024l1.347-.238zM496.831 221.611h-1.566v-1.829h-1.486v1.829h-1.119v1.194h1.119v4.509c-.005 1.387 1.053 2.058 2.227 2.033.472-.005.79-.094.964-.159l-.268-1.228c-.1.02-.284.065-.522.065-.482 0-.915-.159-.915-1.019v-4.201h1.566v-1.194zM501.685 229.402c1.665 0 2.843-.821 3.181-2.063l-1.407-.254c-.268.721-.914 1.089-1.76 1.089-1.272 0-2.127-.825-2.167-2.297h5.429v-.527c0-2.759-1.651-3.838-3.381-3.838-2.128 0-3.53 1.621-3.53 3.967 0 2.372 1.382 3.923 3.635 3.923zm-2.148-4.639c.06-1.083.845-2.023 2.053-2.023 1.154 0 1.909.855 1.914 2.023h-3.967zM506.61 229.248h1.487v-4.708c0-1.03.721-1.745 1.566-1.745.825 0 1.397.546 1.397 1.377v5.076h1.481v-4.867c0-.92.562-1.586 1.532-1.586.785 0 1.431.437 1.431 1.471v4.982h1.487v-5.121c0-1.745-.975-2.615-2.357-2.615-1.098 0-1.924.527-2.292 1.342h-.079c-.333-.835-1.034-1.342-2.053-1.342-1.01 0-1.76.502-2.079 1.342h-.094v-1.243h-1.427v7.637z" fill="#000"/><path d="M543.72 222.254c-.313-2.262-2.053-3.574-4.311-3.574-2.659 0-4.663 1.939-4.663 5.23 0 3.286 1.979 5.23 4.663 5.23 2.422 0 4.027-1.566 4.311-3.51l-1.86-.01c-.233 1.193-1.208 1.864-2.426 1.864-1.65 0-2.834-1.238-2.834-3.574 0-2.297 1.174-3.575 2.839-3.575 1.238 0 2.208.701 2.421 1.919h1.86z" fill="red"/><path d="M549.187 219.065v10.182h1.461v-7.373h.095l3.002 7.358h1.214l3.002-7.353h.095v7.368h1.461v-10.182h-1.864l-3.241 7.915h-.12l-3.241-7.915h-1.864zM564.848 229.401c2.153 0 3.56-1.576 3.56-3.937 0-2.377-1.407-3.953-3.56-3.953-2.152 0-3.559 1.576-3.559 3.953 0 2.361 1.407 3.937 3.559 3.937zm.005-1.248c-1.407 0-2.063-1.228-2.063-2.694 0-1.462.656-2.705 2.063-2.705 1.397 0 2.054 1.243 2.054 2.705 0 1.466-.657 2.694-2.054 2.694zM572.926 229.396c1.392 0 1.939-.85 2.207-1.337h.125v1.188h1.451v-10.182h-1.486v3.784h-.09c-.268-.473-.775-1.338-2.197-1.338-1.845 0-3.202 1.457-3.202 3.933 0 2.471 1.337 3.952 3.192 3.952zm.328-1.268c-1.327 0-2.018-1.168-2.018-2.699 0-1.517.676-2.655 2.018-2.655 1.298 0 1.994 1.059 1.994 2.655 0 1.606-.711 2.699-1.994 2.699zM578.831 229.247h1.486v-7.636h-1.486v7.636zm.751-8.815c.512 0 .939-.397.939-.885 0-.487-.427-.89-.939-.89-.517 0-.94.403-.94.89 0 .488.423.885.94.885zM585.951 221.611h-1.645v-.686c0-.677.278-1.044 1.004-1.044.308 0 .527.069.666.114l.348-1.203a3.549 3.549 0 00-1.243-.204c-1.208 0-2.267.706-2.267 2.138v.885h-1.178v1.193h1.178v6.443h1.492v-6.443h1.645v-1.193zM587.485 229.247h1.487v-7.636h-1.487v7.636zm.751-8.815c.512 0 .94-.397.94-.885 0-.487-.428-.89-.94-.89-.517 0-.94.403-.94.89 0 .488.423.885.94.885zM594.263 229.401c1.665 0 2.843-.82 3.182-2.063l-1.407-.254c-.269.721-.915 1.089-1.76 1.089-1.273 0-2.128-.825-2.168-2.297h5.429v-.527c0-2.759-1.651-3.838-3.381-3.838-2.128 0-3.53 1.621-3.53 3.968 0 2.371 1.383 3.922 3.635 3.922zm-2.148-4.638c.06-1.084.845-2.024 2.053-2.024 1.154 0 1.909.855 1.914 2.024h-3.967zM602.047 229.396c1.392 0 1.939-.85 2.207-1.337h.125v1.188h1.451v-10.182h-1.486v3.784h-.09c-.268-.473-.775-1.338-2.197-1.338-1.845 0-3.202 1.457-3.202 3.933 0 2.471 1.338 3.952 3.192 3.952zm.328-1.268c-1.327 0-2.018-1.168-2.018-2.699 0-1.517.676-2.655 2.018-2.655 1.298 0 1.994 1.059 1.994 2.655 0 1.606-.711 2.699-1.994 2.699zM614.874 229.401c1.804 0 2.973-1.084 3.137-2.57h-1.447c-.189.825-.83 1.312-1.68 1.312-1.258 0-2.069-1.049-2.069-2.714 0-1.636.826-2.665 2.069-2.665.944 0 1.521.597 1.68 1.313h1.447c-.159-1.542-1.417-2.566-3.152-2.566-2.153 0-3.545 1.621-3.545 3.953 0 2.301 1.342 3.937 3.56 3.937zM622.817 229.401c2.153 0 3.56-1.576 3.56-3.937 0-2.377-1.407-3.953-3.56-3.953s-3.56 1.576-3.56 3.953c0 2.361 1.407 3.937 3.56 3.937zm.005-1.248c-1.407 0-2.063-1.228-2.063-2.694 0-1.462.656-2.705 2.063-2.705 1.397 0 2.053 1.243 2.053 2.705 0 1.466-.656 2.694-2.053 2.694zM630.895 229.396c1.392 0 1.939-.85 2.207-1.337h.124v1.188h1.452v-10.182h-1.487v3.784h-.089c-.268-.473-.776-1.338-2.197-1.338-1.845 0-3.202 1.457-3.202 3.933 0 2.471 1.337 3.952 3.192 3.952zm.328-1.268c-1.328 0-2.019-1.168-2.019-2.699 0-1.517.676-2.655 2.019-2.655 1.297 0 1.993 1.059 1.993 2.655 0 1.606-.711 2.699-1.993 2.699zM640.091 229.401c1.665 0 2.844-.82 3.182-2.063l-1.407-.254c-.269.721-.915 1.089-1.76 1.089-1.273 0-2.128-.825-2.168-2.297h5.429v-.527c0-2.759-1.65-3.838-3.381-3.838-2.127 0-3.529 1.621-3.529 3.968 0 2.371 1.382 3.922 3.634 3.922zm-2.148-4.638c.06-1.084.845-2.024 2.053-2.024 1.154 0 1.909.855 1.914 2.024h-3.967zM650.944 229.416c1.263 0 1.974-.641 2.257-1.213h.06v1.044h1.451v-5.071c0-2.222-1.75-2.665-2.963-2.665-1.382 0-2.655.557-3.152 1.949l1.397.318c.219-.542.776-1.064 1.775-1.064.96 0 1.452.502 1.452 1.367v.035c0 .542-.557.532-1.929.691-1.447.169-2.928.547-2.928 2.282 0 1.502 1.128 2.327 2.58 2.327zm.323-1.193c-.84 0-1.447-.378-1.447-1.114 0-.795.706-1.079 1.566-1.193.483-.065 1.626-.194 1.84-.408v.985c0 .905-.721 1.73-1.959 1.73zM660.326 221.611h-1.645v-.686c0-.677.278-1.044 1.004-1.044.308 0 .527.069.666.114l.348-1.203a3.549 3.549 0 00-1.243-.204c-1.208 0-2.267.706-2.267 2.138v.885h-1.178v1.193h1.178v6.443h1.492v-6.443h1.645v-1.193zM665.425 221.611h-1.566v-1.83h-1.487v1.83h-1.118v1.193h1.118v4.509c-.005 1.387 1.054 2.058 2.228 2.033.472-.005.79-.094.964-.159l-.268-1.228c-.1.02-.284.065-.522.065-.483 0-.915-.159-.915-1.019v-4.201h1.566v-1.193zM670.278 229.401c1.666 0 2.844-.82 3.182-2.063l-1.407-.254c-.268.721-.915 1.089-1.76 1.089-1.272 0-2.128-.825-2.167-2.297h5.429v-.527c0-2.759-1.651-3.838-3.381-3.838-2.128 0-3.53 1.621-3.53 3.968 0 2.371 1.382 3.922 3.634 3.922zm-2.147-4.638c.059-1.084.845-2.024 2.053-2.024 1.153 0 1.909.855 1.914 2.024h-3.967zM675.204 229.247h1.486v-4.663c0-1 .771-1.721 1.825-1.721.308 0 .656.055.776.09v-1.422a6.028 6.028 0 00-.632-.035c-.895 0-1.66.507-1.939 1.328h-.079v-1.213h-1.437v7.636zM690.004 223.475c-.308-1.188-1.238-1.964-2.888-1.964-1.725 0-2.948.91-2.948 2.262 0 1.084.656 1.805 2.088 2.123l1.292.284c.736.164 1.079.492 1.079.969 0 .592-.631 1.054-1.606 1.054-.89 0-1.461-.383-1.64-1.134l-1.437.219c.249 1.352 1.372 2.113 3.087 2.113 1.845 0 3.123-.979 3.123-2.361 0-1.079-.687-1.745-2.089-2.069l-1.213-.278c-.84-.199-1.203-.482-1.198-.999-.005-.587.632-1.005 1.477-1.005.924 0 1.352.513 1.526 1.025l1.347-.239zM695.005 229.401c2.152 0 3.559-1.576 3.559-3.937 0-2.377-1.407-3.953-3.559-3.953-2.153 0-3.56 1.576-3.56 3.953 0 2.361 1.407 3.937 3.56 3.937zm.005-1.248c-1.407 0-2.064-1.228-2.064-2.694 0-1.462.657-2.705 2.064-2.705 1.397 0 2.053 1.243 2.053 2.705 0 1.466-.656 2.694-2.053 2.694zM705.061 226.08c.005 1.298-.96 1.914-1.795 1.914-.92 0-1.556-.666-1.556-1.705v-4.678h-1.487v4.857c0 1.894 1.04 2.878 2.506 2.878 1.149 0 1.929-.606 2.282-1.421h.08v1.322h1.461v-7.636h-1.491v4.469zM708.55 229.247h1.486v-4.663c0-1 .771-1.721 1.825-1.721.308 0 .656.055.775.09v-1.422a5.992 5.992 0 00-.631-.035c-.895 0-1.661.507-1.939 1.328h-.08v-1.213h-1.436v7.636zM716.866 229.401c1.805 0 2.973-1.084 3.137-2.57h-1.447c-.189.825-.83 1.312-1.68 1.312-1.258 0-2.068-1.049-2.068-2.714 0-1.636.825-2.665 2.068-2.665.944 0 1.521.597 1.68 1.313h1.447c-.159-1.542-1.417-2.566-3.152-2.566-2.153 0-3.545 1.621-3.545 3.953 0 2.301 1.343 3.937 3.56 3.937zM724.884 229.401c1.665 0 2.844-.82 3.182-2.063l-1.407-.254c-.269.721-.915 1.089-1.76 1.089-1.273 0-2.128-.825-2.168-2.297h5.429v-.527c0-2.759-1.65-3.838-3.381-3.838-2.127 0-3.529 1.621-3.529 3.968 0 2.371 1.382 3.922 3.634 3.922zm-2.148-4.638c.06-1.084.845-2.024 2.053-2.024 1.154 0 1.909.855 1.914 2.024h-3.967zM736.731 229.401c1.805 0 2.973-1.084 3.137-2.57h-1.447c-.188.825-.83 1.312-1.68 1.312-1.258 0-2.068-1.049-2.068-2.714 0-1.636.825-2.665 2.068-2.665.945 0 1.521.597 1.68 1.313h1.447c-.159-1.542-1.417-2.566-3.152-2.566-2.153 0-3.545 1.621-3.545 3.953 0 2.301 1.343 3.937 3.56 3.937zM744.674 229.401c2.153 0 3.56-1.576 3.56-3.937 0-2.377-1.407-3.953-3.56-3.953-2.152 0-3.559 1.576-3.559 3.953 0 2.361 1.407 3.937 3.559 3.937zm.005-1.248c-1.407 0-2.063-1.228-2.063-2.694 0-1.462.656-2.705 2.063-2.705 1.397 0 2.054 1.243 2.054 2.705 0 1.466-.657 2.694-2.054 2.694zM751.38 224.713c0-1.218.746-1.914 1.78-1.914 1.009 0 1.62.661 1.62 1.77v4.678h1.487v-4.857c0-1.889-1.039-2.879-2.6-2.879-1.149 0-1.899.532-2.252 1.343h-.095v-1.243h-1.427v7.636h1.487v-4.534zM761.825 221.611h-1.566v-1.83h-1.486v1.83h-1.119v1.193h1.119v4.509c-.005 1.387 1.054 2.058 2.227 2.033.472-.005.79-.094.964-.159l-.268-1.228c-.099.02-.283.065-.522.065-.482 0-.915-.159-.915-1.019v-4.201h1.566v-1.193zM763.47 229.247h1.486v-4.663c0-1 .771-1.721 1.825-1.721.308 0 .656.055.775.09v-1.422a5.992 5.992 0 00-.631-.035c-.895 0-1.661.507-1.939 1.328h-.08v-1.213h-1.436v7.636zM771.786 229.401c2.152 0 3.559-1.576 3.559-3.937 0-2.377-1.407-3.953-3.559-3.953-2.153 0-3.56 1.576-3.56 3.953 0 2.361 1.407 3.937 3.56 3.937zm.005-1.248c-1.407 0-2.063-1.228-2.063-2.694 0-1.462.656-2.705 2.063-2.705 1.397 0 2.053 1.243 2.053 2.705 0 1.466-.656 2.694-2.053 2.694zM778.491 219.065h-1.486v10.182h1.486v-10.182z" fill="#000"/><path d="M36.454 258.494c3.102 0 4.942-1.919 4.942-5.101 0-3.171-1.84-5.081-4.872-5.081h-3.52v10.182h3.45zm-1.606-1.596v-6.99h1.571c2.069 0 3.147 1.154 3.147 3.485 0 2.342-1.078 3.505-3.201 3.505h-1.517z" fill="red"/><path d="M55.643 251.87c-.348-2.177-2.053-3.45-4.206-3.45-2.635 0-4.579 1.974-4.579 5.23 0 3.257 1.934 5.23 4.58 5.23 2.236 0 3.872-1.402 4.205-3.415l-1.55-.005c-.264 1.302-1.358 2.018-2.646 2.018-1.745 0-3.062-1.337-3.062-3.828 0-2.471 1.312-3.828 3.067-3.828 1.298 0 2.387.731 2.64 2.048h1.551zM60.579 258.895c2.152 0 3.56-1.576 3.56-3.937 0-2.377-1.408-3.953-3.56-3.953-2.153 0-3.56 1.576-3.56 3.953 0 2.361 1.407 3.937 3.56 3.937zm.005-1.248c-1.407 0-2.064-1.228-2.064-2.694 0-1.462.657-2.705 2.064-2.705 1.397 0 2.053 1.243 2.053 2.705 0 1.466-.656 2.694-2.053 2.694zM65.798 258.741h1.486v-4.708c0-1.029.721-1.745 1.566-1.745.826 0 1.397.547 1.397 1.377v5.076h1.482v-4.867c0-.92.562-1.586 1.531-1.586.785 0 1.432.437 1.432 1.472v4.981h1.486v-5.121c0-1.745-.974-2.615-2.356-2.615-1.099 0-1.924.527-2.292 1.343h-.08c-.333-.836-1.034-1.343-2.053-1.343-1.01 0-1.76.502-2.078 1.343h-.094v-1.243h-1.427v7.636zM78.17 261.605h1.487v-4.052h.09c.268.487.815 1.337 2.207 1.337 1.85 0 3.192-1.481 3.192-3.952 0-2.476-1.362-3.933-3.207-3.933-1.417 0-1.929.865-2.192 1.338h-.125v-1.238h-1.451v10.5zm1.457-6.682c0-1.596.696-2.655 1.994-2.655 1.347 0 2.023 1.139 2.023 2.655 0 1.531-.696 2.7-2.023 2.7-1.278 0-1.994-1.094-1.994-2.7zM86.811 258.741h1.487v-4.663c0-1 .77-1.72 1.824-1.72.309 0 .657.054.776.089v-1.422a6.005 6.005 0 00-.631-.035c-.895 0-1.66.508-1.94 1.328h-.079v-1.213h-1.437v7.636zM95.128 258.895c2.152 0 3.56-1.576 3.56-3.937 0-2.377-1.408-3.953-3.56-3.953-2.153 0-3.56 1.576-3.56 3.953 0 2.361 1.407 3.937 3.56 3.937zm.004-1.248c-1.406 0-2.063-1.228-2.063-2.694 0-1.462.657-2.705 2.063-2.705 1.398 0 2.054 1.243 2.054 2.705 0 1.466-.656 2.694-2.054 2.694zM100.347 258.741h1.486v-4.708c0-1.029.721-1.745 1.566-1.745.825 0 1.397.547 1.397 1.377v5.076h1.482v-4.867c0-.92.561-1.586 1.531-1.586.785 0 1.432.437 1.432 1.472v4.981h1.486v-5.121c0-1.745-.974-2.615-2.356-2.615-1.099 0-1.924.527-2.292 1.343h-.08c-.333-.836-1.034-1.343-2.053-1.343-1.009 0-1.76.502-2.078 1.343h-.095v-1.243h-1.426v7.636zM112.72 258.741h1.486v-7.636h-1.486v7.636zm.75-8.815c.512 0 .94-.397.94-.884 0-.488-.428-.89-.94-.89-.517 0-.939.402-.939.89 0 .487.422.884.939.884zM121.928 252.969c-.308-1.188-1.238-1.964-2.888-1.964-1.725 0-2.948.91-2.948 2.262 0 1.084.656 1.805 2.088 2.123l1.292.284c.736.164 1.079.492 1.079.969 0 .592-.631 1.054-1.606 1.054-.89 0-1.461-.383-1.64-1.133l-1.437.218c.248 1.353 1.372 2.113 3.087 2.113 1.845 0 3.122-.979 3.122-2.361 0-1.079-.686-1.745-2.088-2.068l-1.213-.279c-.84-.199-1.203-.482-1.198-.999-.005-.587.631-1.004 1.477-1.004.924 0 1.352.512 1.526 1.024l1.347-.239zM127.003 258.895c1.665 0 2.844-.82 3.182-2.063l-1.407-.254c-.269.721-.915 1.089-1.76 1.089-1.273 0-2.128-.825-2.168-2.297h5.429v-.527c0-2.759-1.65-3.838-3.38-3.838-2.128 0-3.53 1.621-3.53 3.968 0 2.371 1.382 3.922 3.634 3.922zm-2.148-4.638c.06-1.084.845-2.024 2.053-2.024 1.154 0 1.91.855 1.915 2.024h-3.968zM134.787 258.89c1.392 0 1.939-.85 2.208-1.337h.124v1.188h1.452v-10.182h-1.487v3.784h-.089c-.269-.473-.776-1.338-2.198-1.338-1.844 0-3.202 1.457-3.202 3.933 0 2.471 1.338 3.952 3.192 3.952zm.328-1.267c-1.327 0-2.018-1.169-2.018-2.7 0-1.516.676-2.655 2.018-2.655 1.298 0 1.994 1.059 1.994 2.655 0 1.606-.711 2.7-1.994 2.7zM144.517 258.741h1.451v-1.188h.125c.268.487.815 1.337 2.207 1.337 1.849 0 3.192-1.481 3.192-3.952 0-2.476-1.362-3.933-3.207-3.933-1.417 0-1.929.865-2.192 1.338h-.09v-3.784h-1.486v10.182zm1.456-3.818c0-1.596.696-2.655 1.994-2.655 1.347 0 2.023 1.139 2.023 2.655 0 1.531-.696 2.7-2.023 2.7-1.278 0-1.994-1.094-1.994-2.7zM157.998 255.574c.005 1.298-.959 1.914-1.794 1.914-.92 0-1.557-.666-1.557-1.705v-4.678h-1.486v4.857c0 1.894 1.039 2.879 2.506 2.879 1.148 0 1.929-.607 2.282-1.422h.079v1.322h1.462v-7.636h-1.492v4.469zM161.487 258.741h1.487v-7.636h-1.487v7.636zm.751-8.815c.512 0 .939-.397.939-.884 0-.488-.427-.89-.939-.89-.517 0-.94.402-.94.89 0 .487.423.884.94.884zM166.46 248.559h-1.487v10.182h1.487v-10.182zM171.318 258.89c1.392 0 1.939-.85 2.208-1.337h.124v1.188h1.452v-10.182h-1.487v3.784h-.089c-.269-.473-.776-1.338-2.198-1.338-1.844 0-3.201 1.457-3.201 3.933 0 2.471 1.337 3.952 3.191 3.952zm.329-1.267c-1.328 0-2.019-1.169-2.019-2.7 0-1.516.676-2.655 2.019-2.655 1.297 0 1.993 1.059 1.993 2.655 0 1.606-.711 2.7-1.993 2.7zM180.929 261.605h1.486v-4.052h.09c.268.487.815 1.337 2.207 1.337 1.849 0 3.192-1.481 3.192-3.952 0-2.476-1.363-3.933-3.207-3.933-1.417 0-1.929.865-2.192 1.338h-.125v-1.238h-1.451v10.5zm1.456-6.682c0-1.596.696-2.655 1.994-2.655 1.347 0 2.023 1.139 2.023 2.655 0 1.531-.696 2.7-2.023 2.7-1.278 0-1.994-1.094-1.994-2.7zM191.056 248.559h-1.487v10.182h1.487v-10.182zM195.278 258.91c1.263 0 1.974-.641 2.257-1.213h.06v1.044h1.451v-5.071c0-2.222-1.75-2.665-2.963-2.665-1.382 0-2.655.557-3.152 1.949l1.397.318c.219-.542.776-1.064 1.775-1.064.96 0 1.452.503 1.452 1.368v.034c0 .542-.557.532-1.929.691-1.447.17-2.928.547-2.928 2.282 0 1.502 1.128 2.327 2.58 2.327zm.323-1.193c-.84 0-1.447-.378-1.447-1.114 0-.795.706-1.078 1.566-1.193.483-.064 1.626-.194 1.84-.408v.985c0 .905-.721 1.73-1.959 1.73zM204.591 251.105h-1.566v-1.83h-1.487v1.83h-1.118v1.193h1.118v4.509c-.005 1.387 1.054 2.058 2.228 2.034a2.83 2.83 0 00.964-.16l-.268-1.228c-.1.02-.284.065-.522.065-.483 0-.915-.159-.915-1.019v-4.201h1.566v-1.193zM209.869 251.105h-1.645v-.686c0-.676.278-1.044 1.004-1.044.308 0 .527.069.666.114l.348-1.203a3.554 3.554 0 00-1.243-.204c-1.208 0-2.267.706-2.267 2.138v.885h-1.178v1.193h1.178v6.443h1.492v-6.443h1.645v-1.193zM214.319 258.895c2.153 0 3.56-1.576 3.56-3.937 0-2.377-1.407-3.953-3.56-3.953s-3.56 1.576-3.56 3.953c0 2.361 1.407 3.937 3.56 3.937zm.005-1.248c-1.407 0-2.063-1.228-2.063-2.694 0-1.462.656-2.705 2.063-2.705 1.397 0 2.053 1.243 2.053 2.705 0 1.466-.656 2.694-2.053 2.694zM219.538 258.741h1.486v-4.663c0-1 .771-1.72 1.825-1.72.308 0 .656.054.776.089v-1.422a6.028 6.028 0 00-.632-.035c-.895 0-1.66.508-1.939 1.328h-.079v-1.213h-1.437v7.636zM224.911 258.741h1.486v-4.708c0-1.029.721-1.745 1.567-1.745.825 0 1.397.547 1.397 1.377v5.076h1.481v-4.867c0-.92.562-1.586 1.531-1.586.786 0 1.432.437 1.432 1.472v4.981h1.487v-5.121c0-1.745-.975-2.615-2.357-2.615-1.099 0-1.924.527-2.292 1.343h-.079c-.333-.836-1.034-1.343-2.054-1.343-1.009 0-1.76.502-2.078 1.343h-.094v-1.243h-1.427v7.636z" fill="#000"/><path d="M259.004 258.494h6.662v-1.546h-4.818v-2.779h4.435v-1.546h-4.435v-2.764h4.778v-1.547h-6.622v10.182z" fill="red"/><path d="M279.734 248.56v6.572c0 1.383-.954 2.377-2.506 2.377-1.546 0-2.505-.994-2.505-2.377v-6.572h-1.536v6.697c0 2.138 1.6 3.654 4.041 3.654 2.441 0 4.047-1.516 4.047-3.654v-6.697h-1.541zM289.112 252.97c-.308-1.188-1.238-1.964-2.889-1.964-1.725 0-2.948.91-2.948 2.262 0 1.084.656 1.805 2.088 2.123l1.293.283c.736.164 1.079.493 1.079.97 0 .591-.632 1.054-1.606 1.054-.89 0-1.462-.383-1.641-1.134l-1.437.219c.249 1.352 1.373 2.113 3.088 2.113 1.844 0 3.122-.979 3.122-2.362 0-1.078-.686-1.745-2.088-2.068l-1.213-.278c-.84-.199-1.203-.482-1.198-.999-.005-.587.631-1.005 1.476-1.005.925 0 1.352.512 1.526 1.024l1.348-.238zM290.895 258.742h1.487v-7.637h-1.487v7.637zm.751-8.815c.512 0 .94-.398.94-.885s-.428-.89-.94-.89c-.517 0-.94.403-.94.89s.423.885.94.885zM295.868 254.208c0-1.218.746-1.914 1.78-1.914 1.009 0 1.621.661 1.621 1.77v4.678h1.486v-4.857c0-1.89-1.039-2.879-2.6-2.879-1.148 0-1.899.532-2.252 1.342h-.094v-1.243h-1.427v7.637h1.486v-4.534zM305.951 261.765c1.943 0 3.445-.89 3.445-2.854v-7.806h-1.457v1.238h-.109c-.264-.472-.791-1.337-2.213-1.337-1.844 0-3.201 1.457-3.201 3.888 0 2.436 1.387 3.733 3.192 3.733 1.402 0 1.943-.79 2.212-1.277h.094v1.501c0 1.198-.82 1.715-1.949 1.715-1.237 0-1.72-.621-1.983-1.059l-1.278.527c.403.935 1.422 1.731 3.247 1.731zm-.015-4.37c-1.328 0-2.019-1.02-2.019-2.521 0-1.467.676-2.605 2.019-2.605 1.297 0 1.993 1.059 1.993 2.605 0 1.576-.711 2.521-1.993 2.521zM317.317 258.911c1.263 0 1.974-.641 2.257-1.213h.06v1.044h1.451v-5.071c0-2.222-1.75-2.665-2.963-2.665-1.382 0-2.655.557-3.152 1.949l1.397.318c.219-.542.776-1.064 1.775-1.064.96 0 1.452.502 1.452 1.367v.035c0 .542-.557.532-1.929.691-1.447.169-2.928.547-2.928 2.282 0 1.502 1.128 2.327 2.58 2.327zm.323-1.193c-.84 0-1.447-.378-1.447-1.114 0-.795.706-1.079 1.566-1.193.483-.065 1.626-.194 1.84-.408v.985c0 .904-.721 1.73-1.959 1.73zM326.89 258.742h1.451v-1.188h.125c.268.487.815 1.337 2.207 1.337 1.849 0 3.192-1.482 3.192-3.952 0-2.476-1.362-3.933-3.207-3.933-1.417 0-1.929.865-2.192 1.337h-.09v-3.783h-1.486v10.182zm1.456-3.818c0-1.596.696-2.655 1.994-2.655 1.347 0 2.023 1.138 2.023 2.655 0 1.531-.696 2.699-2.023 2.699-1.278 0-1.994-1.094-1.994-2.699zM337.756 258.911c1.263 0 1.974-.641 2.257-1.213h.06v1.044h1.452v-5.071c0-2.222-1.75-2.665-2.963-2.665-1.382 0-2.655.557-3.152 1.949l1.397.318c.218-.542.775-1.064 1.775-1.064.959 0 1.451.502 1.451 1.367v.035c0 .542-.557.532-1.929.691-1.446.169-2.928.547-2.928 2.282 0 1.502 1.129 2.327 2.58 2.327zm.323-1.193c-.84 0-1.446-.378-1.446-1.114 0-.795.706-1.079 1.566-1.193.482-.065 1.625-.194 1.839-.408v.985c0 .904-.721 1.73-1.959 1.73zM346.363 258.891c1.392 0 1.939-.85 2.208-1.337h.124v1.188h1.452V248.56h-1.487v3.783h-.089c-.269-.472-.776-1.337-2.198-1.337-1.844 0-3.201 1.457-3.201 3.933 0 2.47 1.337 3.952 3.191 3.952zm.328-1.268c-1.327 0-2.018-1.168-2.018-2.699 0-1.517.676-2.655 2.018-2.655 1.298 0 1.994 1.059 1.994 2.655 0 1.605-.711 2.699-1.994 2.699zM358.832 258.891c1.392 0 1.939-.85 2.208-1.337h.124v1.188h1.452V248.56h-1.487v3.783h-.089c-.269-.472-.776-1.337-2.198-1.337-1.844 0-3.202 1.457-3.202 3.933 0 2.47 1.338 3.952 3.192 3.952zm.328-1.268c-1.327 0-2.018-1.168-2.018-2.699 0-1.517.676-2.655 2.018-2.655 1.298 0 1.994 1.059 1.994 2.655 0 1.605-.711 2.699-1.994 2.699zM368.028 258.896c1.666 0 2.844-.82 3.182-2.063l-1.407-.254c-.268.721-.915 1.089-1.76 1.089-1.272 0-2.128-.825-2.167-2.297h5.429v-.527c0-2.759-1.651-3.838-3.381-3.838-2.128 0-3.53 1.621-3.53 3.967 0 2.372 1.382 3.923 3.634 3.923zm-2.147-4.639c.059-1.083.845-2.023 2.053-2.023 1.153 0 1.909.855 1.914 2.023h-3.967zM372.954 261.605h1.486v-4.051h.09c.268.487.815 1.337 2.207 1.337 1.85 0 3.192-1.482 3.192-3.952 0-2.476-1.362-3.933-3.207-3.933-1.417 0-1.929.865-2.192 1.337h-.124v-1.238h-1.452v10.5zm1.457-6.681c0-1.596.696-2.655 1.993-2.655 1.348 0 2.024 1.138 2.024 2.655 0 1.531-.696 2.699-2.024 2.699-1.277 0-1.993-1.094-1.993-2.699zM384.886 258.896c1.665 0 2.843-.82 3.182-2.063l-1.407-.254c-.269.721-.915 1.089-1.76 1.089-1.273 0-2.128-.825-2.168-2.297h5.429v-.527c0-2.759-1.651-3.838-3.381-3.838-2.127 0-3.529 1.621-3.529 3.967 0 2.372 1.382 3.923 3.634 3.923zm-2.148-4.639c.06-1.083.845-2.023 2.053-2.023 1.154 0 1.909.855 1.914 2.023h-3.967zM391.298 254.208c0-1.218.746-1.914 1.78-1.914 1.009 0 1.62.661 1.62 1.77v4.678h1.487v-4.857c0-1.89-1.039-2.879-2.6-2.879-1.149 0-1.899.532-2.252 1.342h-.095v-1.243h-1.427v7.637h1.487v-4.534zM401.037 258.891c1.392 0 1.939-.85 2.208-1.337h.124v1.188h1.452V248.56h-1.487v3.783h-.089c-.269-.472-.776-1.337-2.198-1.337-1.844 0-3.202 1.457-3.202 3.933 0 2.47 1.338 3.952 3.192 3.952zm.328-1.268c-1.327 0-2.018-1.168-2.018-2.699 0-1.517.676-2.655 2.018-2.655 1.298 0 1.994 1.059 1.994 2.655 0 1.605-.711 2.699-1.994 2.699zM410.233 258.896c1.666 0 2.844-.82 3.182-2.063l-1.407-.254c-.268.721-.915 1.089-1.76 1.089-1.272 0-2.128-.825-2.167-2.297h5.429v-.527c0-2.759-1.651-3.838-3.381-3.838-2.128 0-3.53 1.621-3.53 3.967 0 2.372 1.382 3.923 3.634 3.923zm-2.147-4.639c.059-1.083.845-2.023 2.053-2.023 1.153 0 1.909.855 1.914 2.023h-3.967zM416.646 254.208c0-1.218.745-1.914 1.779-1.914 1.01 0 1.621.661 1.621 1.77v4.678h1.487v-4.857c0-1.89-1.039-2.879-2.601-2.879-1.148 0-1.899.532-2.252 1.342h-.094v-1.243h-1.427v7.637h1.487v-4.534zM426.743 258.896c1.805 0 2.973-1.084 3.137-2.57h-1.447c-.189.825-.83 1.312-1.68 1.312-1.258 0-2.068-1.049-2.068-2.714 0-1.636.825-2.665 2.068-2.665.944 0 1.521.596 1.68 1.312h1.447c-.159-1.541-1.417-2.565-3.152-2.565-2.153 0-3.545 1.621-3.545 3.952 0 2.302 1.342 3.938 3.56 3.938zM432.409 261.605c1.228 0 2.004-.641 2.446-1.844l3.157-8.641-1.606-.015-1.934 5.927h-.079l-1.934-5.927h-1.591l2.794 7.736-.184.507c-.378 1.015-.91 1.099-1.725.875l-.358 1.218c.179.08.567.164 1.014.164z" fill="#000"/><path d="M535.004 258.494h1.844v-4.325h4.231v-1.546h-4.231v-2.764h4.679v-1.547h-6.523v10.182z" fill="red"/><path d="M549.187 258.741h3.902c2.367 0 3.436-1.178 3.436-2.739 0-1.576-1.104-2.466-2.113-2.521v-.099c.934-.239 1.715-.875 1.715-2.148 0-1.506-1.044-2.675-3.212-2.675h-3.728v10.182zm1.536-1.317v-3.262h2.272c1.233 0 2.003.796 2.003 1.765 0 .855-.581 1.497-2.058 1.497h-2.217zm0-4.46v-3.097h2.098c1.218 0 1.799.641 1.799 1.486 0 .985-.805 1.611-1.839 1.611h-2.058zM559.167 261.605c1.228 0 2.004-.642 2.446-1.845l3.157-8.64-1.606-.015-1.934 5.926h-.079l-1.934-5.926h-1.591l2.794 7.736-.184.507c-.378 1.014-.91 1.098-1.725.875l-.358 1.218c.179.079.567.164 1.014.164zM566.171 261.605h1.486v-4.052h.09c.268.487.815 1.337 2.207 1.337 1.85 0 3.192-1.481 3.192-3.952 0-2.476-1.362-3.933-3.207-3.933-1.417 0-1.929.865-2.192 1.338h-.125v-1.238h-1.451v10.5zm1.456-6.682c0-1.596.696-2.655 1.994-2.655 1.347 0 2.023 1.139 2.023 2.655 0 1.531-.696 2.7-2.023 2.7-1.278 0-1.994-1.094-1.994-2.7zM577.034 258.91c1.262 0 1.973-.641 2.257-1.213h.059v1.044h1.452v-5.071c0-2.222-1.75-2.665-2.963-2.665-1.382 0-2.655.557-3.152 1.949l1.397.318c.219-.542.776-1.064 1.775-1.064.959 0 1.452.503 1.452 1.368v.034c0 .542-.557.532-1.929.691-1.447.17-2.929.547-2.929 2.282 0 1.502 1.129 2.327 2.581 2.327zm.323-1.193c-.84 0-1.447-.378-1.447-1.114 0-.795.706-1.078 1.566-1.193.482-.064 1.626-.194 1.84-.408v.985c0 .905-.721 1.73-1.959 1.73zM588.504 252.969c-.308-1.188-1.238-1.964-2.888-1.964-1.725 0-2.948.91-2.948 2.262 0 1.084.656 1.805 2.088 2.123l1.292.284c.736.164 1.079.492 1.079.969 0 .592-.631 1.054-1.606 1.054-.89 0-1.461-.383-1.64-1.133l-1.437.218c.249 1.353 1.372 2.113 3.087 2.113 1.845 0 3.122-.979 3.122-2.361 0-1.079-.686-1.745-2.088-2.068l-1.213-.279c-.84-.199-1.203-.482-1.198-.999-.005-.587.632-1.004 1.477-1.004.924 0 1.352.512 1.526 1.024l1.347-.239zM596.01 252.969c-.308-1.188-1.238-1.964-2.888-1.964-1.725 0-2.948.91-2.948 2.262 0 1.084.656 1.805 2.088 2.123l1.292.284c.736.164 1.079.492 1.079.969 0 .592-.631 1.054-1.606 1.054-.89 0-1.461-.383-1.64-1.133l-1.437.218c.248 1.353 1.372 2.113 3.087 2.113 1.845 0 3.122-.979 3.122-2.361 0-1.079-.686-1.745-2.088-2.068l-1.213-.279c-.84-.199-1.203-.482-1.198-.999-.005-.587.631-1.004 1.477-1.004.924 0 1.352.512 1.526 1.024l1.347-.239zM601.085 258.895c1.665 0 2.844-.82 3.182-2.063l-1.407-.254c-.269.721-.915 1.089-1.76 1.089-1.273 0-2.128-.825-2.168-2.297h5.429v-.527c0-2.759-1.65-3.838-3.38-3.838-2.128 0-3.53 1.621-3.53 3.968 0 2.371 1.382 3.922 3.634 3.922zm-2.148-4.638c.06-1.084.845-2.024 2.054-2.024 1.153 0 1.909.855 1.914 2.024h-3.968zM608.869 258.89c1.392 0 1.939-.85 2.208-1.337h.124v1.188h1.452v-10.182h-1.487v3.784h-.089c-.269-.473-.776-1.338-2.198-1.338-1.844 0-3.202 1.457-3.202 3.933 0 2.471 1.338 3.952 3.192 3.952zm.328-1.267c-1.327 0-2.018-1.169-2.018-2.7 0-1.516.676-2.655 2.018-2.655 1.298 0 1.994 1.059 1.994 2.655 0 1.606-.711 2.7-1.994 2.7zM627.055 251.87c-.348-2.177-2.053-3.45-4.206-3.45-2.635 0-4.578 1.974-4.578 5.23 0 3.257 1.933 5.23 4.578 5.23 2.238 0 3.873-1.402 4.206-3.415l-1.551-.005c-.263 1.302-1.357 2.018-2.645 2.018-1.745 0-3.062-1.337-3.062-3.828 0-2.471 1.312-3.828 3.067-3.828 1.298 0 2.387.731 2.64 2.048h1.551zM630.43 248.559h-1.536v10.182h1.536v-10.182zM636.426 248.082h-1.328l-3.281 12.19h1.327l3.282-12.19zM646.264 251.87c-.348-2.177-2.053-3.45-4.206-3.45-2.635 0-4.579 1.974-4.579 5.23 0 3.257 1.934 5.23 4.579 5.23 2.238 0 3.873-1.402 4.206-3.415l-1.551-.005c-.263 1.302-1.357 2.018-2.645 2.018-1.745 0-3.062-1.337-3.062-3.828 0-2.471 1.312-3.828 3.067-3.828 1.298 0 2.387.731 2.64 2.048h1.551zM651.399 258.741c3.102 0 4.897-1.924 4.897-5.106 0-3.167-1.795-5.076-4.793-5.076h-3.4v10.182h3.296zm-1.76-1.342v-7.497h1.77c2.227 0 3.375 1.332 3.375 3.733 0 2.412-1.148 3.764-3.47 3.764h-1.675z" fill="#000"/><path d="M39.826 281.059h1.879c-.313-1.999-2.043-3.391-4.296-3.391-2.664 0-4.663 1.959-4.663 5.24 0 3.222 1.91 5.22 4.718 5.22 2.52 0 4.325-1.621 4.325-4.246v-1.223h-4.131v1.442h2.347c-.03 1.452-1 2.372-2.53 2.372-1.706 0-2.875-1.278-2.875-3.585 0-2.292 1.189-3.564 2.834-3.564 1.228 0 2.064.656 2.392 1.735z" fill="red"/><path d="M55.643 281.365c-.348-2.177-2.053-3.45-4.206-3.45-2.635 0-4.579 1.974-4.579 5.23 0 3.256 1.934 5.23 4.58 5.23 2.236 0 3.872-1.402 4.205-3.415l-1.55-.005c-.264 1.302-1.358 2.018-2.646 2.018-1.745 0-3.062-1.337-3.062-3.828 0-2.471 1.312-3.828 3.067-3.828 1.298 0 2.387.731 2.64 2.048h1.551zM60.579 288.39c2.152 0 3.56-1.576 3.56-3.937 0-2.377-1.408-3.953-3.56-3.953-2.153 0-3.56 1.576-3.56 3.953 0 2.361 1.407 3.937 3.56 3.937zm.005-1.248c-1.407 0-2.064-1.228-2.064-2.694 0-1.462.657-2.705 2.064-2.705 1.397 0 2.053 1.243 2.053 2.705 0 1.466-.656 2.694-2.053 2.694zM65.798 288.236h1.486v-4.708c0-1.029.721-1.745 1.566-1.745.826 0 1.397.547 1.397 1.377v5.076h1.482v-4.867c0-.92.562-1.586 1.531-1.586.785 0 1.432.437 1.432 1.471v4.982h1.486v-5.121c0-1.745-.974-2.615-2.356-2.615-1.099 0-1.924.527-2.292 1.343h-.08c-.333-.836-1.034-1.343-2.053-1.343-1.01 0-1.76.502-2.078 1.343h-.094V280.6h-1.427v7.636zM78.17 291.1h1.487v-4.052h.09c.268.487.815 1.337 2.207 1.337 1.85 0 3.192-1.481 3.192-3.952 0-2.476-1.362-3.933-3.207-3.933-1.417 0-1.929.865-2.192 1.338h-.125V280.6h-1.451v10.5zm1.457-6.682c0-1.596.696-2.655 1.994-2.655 1.347 0 2.023 1.138 2.023 2.655 0 1.531-.696 2.699-2.023 2.699-1.278 0-1.994-1.093-1.994-2.699zM86.811 288.236h1.487v-4.663c0-1 .77-1.721 1.824-1.721.309 0 .657.055.776.09v-1.422a6.005 6.005 0 00-.631-.035c-.895 0-1.66.507-1.94 1.328h-.079V280.6h-1.437v7.636zM95.128 288.39c2.152 0 3.56-1.576 3.56-3.937 0-2.377-1.408-3.953-3.56-3.953-2.153 0-3.56 1.576-3.56 3.953 0 2.361 1.407 3.937 3.56 3.937zm.004-1.248c-1.406 0-2.063-1.228-2.063-2.694 0-1.462.657-2.705 2.063-2.705 1.398 0 2.054 1.243 2.054 2.705 0 1.466-.656 2.694-2.054 2.694zM100.347 288.236h1.486v-4.708c0-1.029.721-1.745 1.566-1.745.825 0 1.397.547 1.397 1.377v5.076h1.482v-4.867c0-.92.561-1.586 1.531-1.586.785 0 1.432.437 1.432 1.471v4.982h1.486v-5.121c0-1.745-.974-2.615-2.356-2.615-1.099 0-1.924.527-2.292 1.343h-.08c-.333-.836-1.034-1.343-2.053-1.343-1.009 0-1.76.502-2.078 1.343h-.095V280.6h-1.426v7.636zM112.72 288.236h1.486V280.6h-1.486v7.636zm.75-8.815c.512 0 .94-.397.94-.885 0-.487-.428-.89-.94-.89-.517 0-.939.403-.939.89 0 .488.422.885.939.885zM121.928 282.464c-.308-1.188-1.238-1.964-2.888-1.964-1.725 0-2.948.91-2.948 2.262 0 1.084.656 1.805 2.088 2.123l1.292.284c.736.164 1.079.492 1.079.969 0 .592-.631 1.054-1.606 1.054-.89 0-1.461-.383-1.64-1.134l-1.437.219c.248 1.352 1.372 2.113 3.087 2.113 1.845 0 3.122-.979 3.122-2.361 0-1.079-.686-1.745-2.088-2.069l-1.213-.278c-.84-.199-1.203-.482-1.198-.999-.005-.587.631-1.005 1.477-1.005.924 0 1.352.513 1.526 1.025l1.347-.239zM127.003 288.39c1.665 0 2.844-.82 3.182-2.063l-1.407-.254c-.269.721-.915 1.089-1.76 1.089-1.273 0-2.128-.825-2.168-2.297h5.429v-.527c0-2.759-1.65-3.838-3.38-3.838-2.128 0-3.53 1.621-3.53 3.968 0 2.371 1.382 3.922 3.634 3.922zm-2.148-4.638c.06-1.084.845-2.024 2.053-2.024 1.154 0 1.91.855 1.915 2.024h-3.968zM134.787 288.385c1.392 0 1.939-.85 2.208-1.337h.124v1.188h1.452v-10.182h-1.487v3.784h-.089c-.269-.473-.776-1.338-2.198-1.338-1.844 0-3.202 1.457-3.202 3.933 0 2.471 1.338 3.952 3.192 3.952zm.328-1.268c-1.327 0-2.018-1.168-2.018-2.699 0-1.517.676-2.655 2.018-2.655 1.298 0 1.994 1.059 1.994 2.655 0 1.606-.711 2.699-1.994 2.699zM144.397 291.1h1.487v-4.052h.089c.269.487.816 1.337 2.208 1.337 1.849 0 3.191-1.481 3.191-3.952 0-2.476-1.362-3.933-3.206-3.933-1.417 0-1.929.865-2.193 1.338h-.124V280.6h-1.452v10.5zm1.457-6.682c0-1.596.696-2.655 1.994-2.655 1.347 0 2.023 1.138 2.023 2.655 0 1.531-.696 2.699-2.023 2.699-1.278 0-1.994-1.093-1.994-2.699zM155.26 288.405c1.263 0 1.974-.641 2.257-1.213h.06v1.044h1.452v-5.071c0-2.222-1.75-2.665-2.963-2.665-1.382 0-2.655.557-3.152 1.949l1.397.318c.218-.542.775-1.064 1.774-1.064.96 0 1.452.502 1.452 1.367v.035c0 .542-.557.532-1.929.691-1.447.169-2.928.547-2.928 2.282 0 1.502 1.129 2.327 2.58 2.327zm.323-1.193c-.84 0-1.446-.378-1.446-1.114 0-.795.706-1.079 1.566-1.193.482-.065 1.625-.194 1.839-.408v.985c0 .905-.721 1.73-1.959 1.73zM164.225 288.39c1.805 0 2.973-1.084 3.137-2.57h-1.446c-.189.825-.831 1.312-1.681 1.312-1.258 0-2.068-1.049-2.068-2.714 0-1.636.825-2.665 2.068-2.665.945 0 1.521.597 1.681 1.313h1.446c-.159-1.542-1.417-2.566-3.152-2.566-2.152 0-3.544 1.621-3.544 3.953 0 2.301 1.342 3.937 3.559 3.937zM168.952 288.236h1.486v-2.71l.741-.74 2.595 3.45h1.825l-3.301-4.36 3.092-3.276h-1.78l-3.042 3.231h-.13v-5.777h-1.486v10.182zM178.967 288.405c1.263 0 1.974-.641 2.257-1.213h.06v1.044h1.452v-5.071c0-2.222-1.75-2.665-2.963-2.665-1.382 0-2.655.557-3.152 1.949l1.397.318c.218-.542.775-1.064 1.775-1.064.959 0 1.451.502 1.451 1.367v.035c0 .542-.557.532-1.929.691-1.446.169-2.928.547-2.928 2.282 0 1.502 1.129 2.327 2.58 2.327zm.323-1.193c-.84 0-1.446-.378-1.446-1.114 0-.795.706-1.079 1.566-1.193.482-.065 1.625-.194 1.839-.408v.985c0 .905-.721 1.73-1.959 1.73zM187.917 291.259c1.944 0 3.446-.89 3.446-2.854V280.6h-1.457v1.238h-.109c-.264-.473-.791-1.338-2.213-1.338-1.844 0-3.201 1.457-3.201 3.888 0 2.436 1.387 3.734 3.191 3.734 1.402 0 1.944-.791 2.213-1.278h.094v1.501c0 1.199-.82 1.716-1.949 1.716-1.238 0-1.72-.622-1.983-1.059l-1.278.527c.403.934 1.422 1.73 3.246 1.73zm-.015-4.37c-1.327 0-2.018-1.02-2.018-2.521 0-1.467.676-2.605 2.018-2.605 1.298 0 1.994 1.059 1.994 2.605 0 1.576-.711 2.521-1.994 2.521zM196.647 288.39c1.666 0 2.844-.82 3.182-2.063l-1.407-.254c-.268.721-.914 1.089-1.76 1.089-1.272 0-2.127-.825-2.167-2.297h5.429v-.527c0-2.759-1.651-3.838-3.381-3.838-2.128 0-3.53 1.621-3.53 3.968 0 2.371 1.382 3.922 3.634 3.922zm-2.147-4.638c.059-1.084.845-2.024 2.053-2.024 1.153 0 1.909.855 1.914 2.024H194.5zM205.278 288.236h1.487v-4.663c0-1 .77-1.721 1.824-1.721.308 0 .656.055.776.09v-1.422a6.012 6.012 0 00-.632-.035c-.894 0-1.66.507-1.939 1.328h-.079V280.6h-1.437v7.636zM213.669 288.39c1.665 0 2.844-.82 3.182-2.063l-1.407-.254c-.269.721-.915 1.089-1.76 1.089-1.273 0-2.128-.825-2.168-2.297h5.429v-.527c0-2.759-1.65-3.838-3.38-3.838-2.128 0-3.53 1.621-3.53 3.968 0 2.371 1.382 3.922 3.634 3.922zm-2.148-4.638c.06-1.084.845-2.024 2.053-2.024 1.154 0 1.91.855 1.915 2.024h-3.968zM218.595 291.1h1.486v-4.052h.09c.268.487.815 1.337 2.207 1.337 1.849 0 3.192-1.481 3.192-3.952 0-2.476-1.363-3.933-3.207-3.933-1.417 0-1.929.865-2.192 1.338h-.125V280.6h-1.451v10.5zm1.456-6.682c0-1.596.696-2.655 1.994-2.655 1.347 0 2.023 1.138 2.023 2.655 0 1.531-.696 2.699-2.023 2.699-1.278 0-1.994-1.093-1.994-2.699zM230.452 288.39c2.152 0 3.559-1.576 3.559-3.937 0-2.377-1.407-3.953-3.559-3.953-2.153 0-3.56 1.576-3.56 3.953 0 2.361 1.407 3.937 3.56 3.937zm.005-1.248c-1.407 0-2.063-1.228-2.063-2.694 0-1.462.656-2.705 2.063-2.705 1.397 0 2.053 1.243 2.053 2.705 0 1.466-.656 2.694-2.053 2.694z" fill="#000"/><path d="M259.004 287.988h1.844v-4.325h4.718v4.325h1.85v-10.181h-1.85v4.31h-4.718v-4.31h-1.844v10.181z" fill="red"/><path d="M279.734 278.054v6.573c0 1.382-.954 2.376-2.506 2.376-1.546 0-2.505-.994-2.505-2.376v-6.573h-1.536v6.697c0 2.138 1.6 3.654 4.041 3.654 2.441 0 4.047-1.516 4.047-3.654v-6.697h-1.541zM289.112 282.464c-.308-1.188-1.238-1.964-2.889-1.964-1.725 0-2.948.91-2.948 2.262 0 1.084.656 1.805 2.088 2.123l1.293.284c.736.164 1.079.492 1.079.969 0 .592-.632 1.054-1.606 1.054-.89 0-1.462-.383-1.641-1.134l-1.437.219c.249 1.352 1.373 2.113 3.088 2.113 1.844 0 3.122-.979 3.122-2.361 0-1.079-.686-1.745-2.088-2.069l-1.213-.278c-.84-.199-1.203-.482-1.198-.999-.005-.587.631-1.005 1.476-1.005.925 0 1.352.513 1.526 1.025l1.348-.239zM290.895 288.236h1.487V280.6h-1.487v7.636zm.751-8.815c.512 0 .94-.397.94-.885 0-.487-.428-.89-.94-.89-.517 0-.94.403-.94.89 0 .488.423.885.94.885zM295.868 283.702c0-1.218.746-1.914 1.78-1.914 1.009 0 1.621.661 1.621 1.77v4.678h1.486v-4.857c0-1.889-1.039-2.879-2.6-2.879-1.148 0-1.899.532-2.252 1.343h-.094V280.6h-1.427v7.636h1.486v-4.534zM305.951 291.259c1.943 0 3.445-.89 3.445-2.854V280.6h-1.457v1.238h-.109c-.264-.473-.791-1.338-2.213-1.338-1.844 0-3.201 1.457-3.201 3.888 0 2.436 1.387 3.734 3.192 3.734 1.402 0 1.943-.791 2.212-1.278h.094v1.501c0 1.199-.82 1.716-1.949 1.716-1.237 0-1.72-.622-1.983-1.059l-1.278.527c.403.934 1.422 1.73 3.247 1.73zm-.015-4.37c-1.328 0-2.019-1.02-2.019-2.521 0-1.467.676-2.605 2.019-2.605 1.297 0 1.993 1.059 1.993 2.605 0 1.576-.711 2.521-1.993 2.521zM317.317 288.405c1.263 0 1.974-.641 2.257-1.213h.06v1.044h1.451v-5.071c0-2.222-1.75-2.665-2.963-2.665-1.382 0-2.655.557-3.152 1.949l1.397.318c.219-.542.776-1.064 1.775-1.064.96 0 1.452.502 1.452 1.367v.035c0 .542-.557.532-1.929.691-1.447.169-2.928.547-2.928 2.282 0 1.502 1.128 2.327 2.58 2.327zm.323-1.193c-.84 0-1.447-.378-1.447-1.114 0-.795.706-1.079 1.566-1.193.483-.065 1.626-.194 1.84-.408v.985c0 .905-.721 1.73-1.959 1.73zM326.89 288.236h1.451v-1.188h.125c.268.487.815 1.337 2.207 1.337 1.849 0 3.192-1.481 3.192-3.952 0-2.476-1.362-3.933-3.207-3.933-1.417 0-1.929.865-2.192 1.338h-.09v-3.784h-1.486v10.182zm1.456-3.818c0-1.596.696-2.655 1.994-2.655 1.347 0 2.023 1.138 2.023 2.655 0 1.531-.696 2.699-2.023 2.699-1.278 0-1.994-1.093-1.994-2.699zM337.756 288.405c1.263 0 1.974-.641 2.257-1.213h.06v1.044h1.452v-5.071c0-2.222-1.75-2.665-2.963-2.665-1.382 0-2.655.557-3.152 1.949l1.397.318c.218-.542.775-1.064 1.775-1.064.959 0 1.451.502 1.451 1.367v.035c0 .542-.557.532-1.929.691-1.446.169-2.928.547-2.928 2.282 0 1.502 1.129 2.327 2.58 2.327zm.323-1.193c-.84 0-1.446-.378-1.446-1.114 0-.795.706-1.079 1.566-1.193.482-.065 1.625-.194 1.839-.408v.985c0 .905-.721 1.73-1.959 1.73zM346.363 288.385c1.392 0 1.939-.85 2.208-1.337h.124v1.188h1.452v-10.182h-1.487v3.784h-.089c-.269-.473-.776-1.338-2.198-1.338-1.844 0-3.201 1.457-3.201 3.933 0 2.471 1.337 3.952 3.191 3.952zm.328-1.268c-1.327 0-2.018-1.168-2.018-2.699 0-1.517.676-2.655 2.018-2.655 1.298 0 1.994 1.059 1.994 2.655 0 1.606-.711 2.699-1.994 2.699zM355.973 291.1h1.487v-4.052h.089c.269.487.816 1.337 2.208 1.337 1.849 0 3.192-1.481 3.192-3.952 0-2.476-1.363-3.933-3.207-3.933-1.417 0-1.929.865-2.193 1.338h-.124V280.6h-1.452v10.5zm1.457-6.682c0-1.596.696-2.655 1.994-2.655 1.347 0 2.023 1.138 2.023 2.655 0 1.531-.696 2.699-2.023 2.699-1.278 0-1.994-1.093-1.994-2.699zM366.836 288.405c1.263 0 1.974-.641 2.257-1.213h.06v1.044h1.452v-5.071c0-2.222-1.75-2.665-2.963-2.665-1.382 0-2.655.557-3.152 1.949l1.397.318c.219-.542.775-1.064 1.775-1.064.959 0 1.451.502 1.451 1.367v.035c0 .542-.556.532-1.929.691-1.446.169-2.928.547-2.928 2.282 0 1.502 1.129 2.327 2.58 2.327zm.324-1.193c-.841 0-1.447-.378-1.447-1.114 0-.795.706-1.079 1.566-1.193.482-.065 1.626-.194 1.839-.408v.985c0 .905-.721 1.73-1.958 1.73zM375.801 288.39c1.805 0 2.973-1.084 3.137-2.57h-1.446c-.189.825-.831 1.312-1.681 1.312-1.257 0-2.068-1.049-2.068-2.714 0-1.636.825-2.665 2.068-2.665.945 0 1.522.597 1.681 1.313h1.446c-.159-1.542-1.416-2.566-3.152-2.566-2.152 0-3.544 1.621-3.544 3.953 0 2.301 1.342 3.937 3.559 3.937zM380.528 288.236h1.487v-2.71l.74-.74 2.596 3.45h1.824l-3.301-4.36 3.092-3.276h-1.779l-3.043 3.231h-.129v-5.777h-1.487v10.182zM390.543 288.405c1.263 0 1.974-.641 2.258-1.213h.059v1.044h1.452v-5.071c0-2.222-1.75-2.665-2.963-2.665-1.382 0-2.655.557-3.152 1.949l1.397.318c.219-.542.775-1.064 1.775-1.064.959 0 1.451.502 1.451 1.367v.035c0 .542-.556.532-1.929.691-1.446.169-2.928.547-2.928 2.282 0 1.502 1.129 2.327 2.58 2.327zm.324-1.193c-.841 0-1.447-.378-1.447-1.114 0-.795.706-1.079 1.566-1.193.482-.065 1.626-.194 1.839-.408v.985c0 .905-.721 1.73-1.958 1.73zM399.494 291.259c1.943 0 3.445-.89 3.445-2.854V280.6h-1.457v1.238h-.109c-.264-.473-.791-1.338-2.213-1.338-1.844 0-3.201 1.457-3.201 3.888 0 2.436 1.387 3.734 3.191 3.734 1.402 0 1.944-.791 2.213-1.278h.094v1.501c0 1.199-.82 1.716-1.949 1.716-1.237 0-1.72-.622-1.983-1.059l-1.278.527c.403.934 1.422 1.73 3.247 1.73zm-.015-4.37c-1.328 0-2.019-1.02-2.019-2.521 0-1.467.676-2.605 2.019-2.605 1.297 0 1.993 1.059 1.993 2.605 0 1.576-.711 2.521-1.993 2.521zM408.224 288.39c1.665 0 2.843-.82 3.181-2.063l-1.407-.254c-.268.721-.914 1.089-1.759 1.089-1.273 0-2.128-.825-2.168-2.297h5.429v-.527c0-2.759-1.651-3.838-3.381-3.838-2.128 0-3.53 1.621-3.53 3.968 0 2.371 1.383 3.922 3.635 3.922zm-2.148-4.638c.06-1.084.845-2.024 2.053-2.024 1.154 0 1.909.855 1.914 2.024h-3.967z" fill="#000"/><path d="M415.645 52.404h3.176v45.259h-3.176V52.404z" fill="#CDCDCD"/><path fill-rule="evenodd" clip-rule="evenodd" d="M419.15 60.123l-6.352 6.353-2.246-2.246 6.352-6.352 2.246 2.245z" fill="#000"/><path fill-rule="evenodd" clip-rule="evenodd" d="M415.316 60.123l6.352 6.353 2.246-2.246-6.352-6.352-2.246 2.245z" fill="#000"/><path d="M553 120h-55v3h55v-3z" fill="#CDCDCD"/><path fill-rule="evenodd" clip-rule="evenodd" d="M520.123 123.4l6.353-6.352-2.246-2.246-6.352 6.352 2.245 2.246z" fill="#000"/><path fill-rule="evenodd" clip-rule="evenodd" d="M520.123 119.567l6.353 6.352-2.246 2.246-6.352-6.352 2.245-2.246z" fill="#000"/><path fill-rule="evenodd" clip-rule="evenodd" d="M560.954 112.214v-58.81h3.176v58.81c0 6.11-4.953 11.063-11.064 11.063h-1.64v-3.176h1.64a7.887 7.887 0 007.888-7.887z" fill="#CDCDCD"/><g clip-path="url(#clip0)"><path d="M17.564 16.794a.821.821 0 00-.592.255.891.891 0 00-.245.617v20.52c.008.226.1.44.256.596a.82.82 0 00.581.244h24.6a.82.82 0 00.581-.244.89.89 0 00.256-.596v-20.52a.891.891 0 00-.245-.617.82.82 0 00-.592-.255h-24.6zm.807 1.713h22.986v4.491H18.371v-4.491zm18.302 1.39a.82.82 0 00-.571.231.887.887 0 00-.224.913.814.814 0 00.172.289.75.75 0 00.592.247h1.954a.746.746 0 00.613-.234.838.838 0 00.224-.639.892.892 0 00-.233-.606.823.823 0 00-.573-.267h-1.954v.065zM18.37 24.71h22.986v12.603H18.371V24.71zm12.19 2.456a.757.757 0 00-.48.187.815.815 0 00-.264.46l-1.489 5.816a.903.903 0 00.103.585c.1.177.255.311.44.38.184.07.387.07.57 0a.847.847 0 00.438-.384l1.49-5.88a.87.87 0 00-.218-.998.795.795 0 00-.31-.166.418.418 0 00-.28 0zm-4.311 0a.822.822 0 00-.59.258l-2.73 2.973a.842.842 0 00-.24.598.87.87 0 00.24.598l2.886 2.876a.82.82 0 00.574.237.82.82 0 00.573-.237.891.891 0 00.243-.614c0-.23-.087-.45-.243-.614L24.7 30.98l2.264-2.262a.844.844 0 00.24-.598.872.872 0 00-.24-.598.785.785 0 00-.31-.28.748.748 0 00-.403-.075zm7.197 0a.856.856 0 00-.575.287.926.926 0 00-.232.618c.029.22.127.425.28.581l2.264 2.262-2.265 2.262a.892.892 0 00-.242.614c0 .23.087.451.242.614a.805.805 0 00.574.25.778.778 0 00.574-.25l2.885-2.876a.842.842 0 00.24-.598.872.872 0 00-.24-.597l-2.885-2.876a.81.81 0 00-.62-.29v-.001z" fill="#000"/></g><path d="M60.495 33.382c3.497 0 5.52-2.168 5.52-5.755 0-3.57-2.023-5.722-5.403-5.722H56.78v11.477h3.716zM58.51 31.87v-8.45h1.995c2.51 0 3.805 1.501 3.805 4.208 0 2.718-1.294 4.242-3.912 4.242h-1.888zM71.743 33.556c1.878 0 3.206-.925 3.587-2.326l-1.586-.285c-.302.812-1.031 1.227-1.984 1.227-1.434 0-2.398-.93-2.443-2.59h6.12v-.593c0-3.11-1.861-4.326-3.811-4.326-2.399 0-3.98 1.826-3.98 4.471 0 2.674 1.559 4.422 4.097 4.422zm-2.42-5.228c.067-1.222.952-2.281 2.314-2.281 1.3 0 2.152.964 2.158 2.28h-4.472zM84.397 24.774H82.6l-2.175 6.624h-.09l-2.18-6.623h-1.798l3.127 8.607h1.793l3.121-8.607zM89.374 33.556c1.877 0 3.205-.925 3.586-2.326l-1.585-.285c-.303.812-1.032 1.227-1.984 1.227-1.435 0-2.399-.93-2.444-2.59h6.12v-.593c0-3.11-1.86-4.326-3.81-4.326-2.4 0-3.98 1.826-3.98 4.471 0 2.674 1.558 4.422 4.097 4.422zm-2.421-5.228c.067-1.222.953-2.281 2.314-2.281 1.3 0 2.152.964 2.158 2.28h-4.472zM96.602 21.905h-1.676v11.477h1.676V21.905zM102.482 33.556c2.426 0 4.012-1.776 4.012-4.438 0-2.68-1.586-4.455-4.012-4.455-2.427 0-4.013 1.776-4.013 4.455 0 2.662 1.586 4.438 4.013 4.438zm.005-1.406c-1.586 0-2.325-1.385-2.325-3.038 0-1.647.739-3.048 2.325-3.048 1.575 0 2.315 1.4 2.315 3.048 0 1.653-.74 3.038-2.315 3.038zM108.365 36.61h1.675v-4.567h.101c.303.55.919 1.508 2.488 1.508 2.085 0 3.598-1.67 3.598-4.456 0-2.79-1.535-4.432-3.615-4.432-1.597 0-2.174.975-2.471 1.507h-.14v-1.396h-1.636V36.61zm1.642-7.532c0-1.798.784-2.992 2.247-2.992 1.518 0 2.281 1.283 2.281 2.992 0 1.727-.785 3.043-2.281 3.043-1.44 0-2.247-1.232-2.247-3.043zM121.814 33.556c1.878 0 3.206-.925 3.587-2.326l-1.586-.285c-.303.812-1.031 1.227-1.984 1.227-1.435 0-2.398-.93-2.443-2.59h6.119v-.593c0-3.11-1.86-4.326-3.81-4.326-2.399 0-3.979 1.826-3.979 4.471 0 2.674 1.558 4.422 4.096 4.422zm-2.421-5.228c.068-1.222.953-2.281 2.315-2.281 1.3 0 2.152.964 2.157 2.28h-4.472zM127.367 33.382h1.675v-5.256c0-1.127.869-1.94 2.057-1.94.347 0 .74.062.874.102v-1.603a6.814 6.814 0 00-.712-.04c-1.008 0-1.871.572-2.185 1.497h-.09v-1.367h-1.619v8.607z" fill="#000"/><path d="M148.814 25.528h44.761v3.176h-44.761v-3.176z" fill="#CDCDCD"/><path fill-rule="evenodd" clip-rule="evenodd" d="M184.141 29.052l-6.843-6.843 2.419-2.419 6.843 6.843-2.419 2.42z" fill="#000"/><path fill-rule="evenodd" clip-rule="evenodd" d="M184.141 24.924l-6.843 6.842 2.419 2.42 6.843-6.843-2.419-2.42z" fill="#000"/><rect x="194.967" y="3.556" width="103.208" height="48.271" rx="8.083" fill="#fff"/><path d="M227.584 24.701h1.67c-.051-1.838-1.676-3.172-4.007-3.172-2.303 0-4.069 1.317-4.069 3.296 0 1.597 1.144 2.533 2.987 3.031l1.356.37c1.228.325 2.175.729 2.175 1.749 0 1.12-1.071 1.86-2.544 1.86-1.334 0-2.444-.594-2.545-1.844h-1.737c.112 2.08 1.721 3.363 4.293 3.363 2.695 0 4.248-1.418 4.248-3.363 0-2.067-1.844-2.869-3.301-3.227l-1.121-.292c-.897-.23-2.09-.65-2.085-1.748 0-.976.891-1.698 2.304-1.698 1.317 0 2.252.616 2.376 1.675zM234.971 33.337c2.427 0 4.013-1.777 4.013-4.438 0-2.68-1.586-4.456-4.013-4.456-2.426 0-4.012 1.777-4.012 4.456 0 2.662 1.586 4.438 4.012 4.438zm.006-1.407c-1.586 0-2.326-1.384-2.326-3.037 0-1.648.74-3.049 2.326-3.049 1.575 0 2.314 1.401 2.314 3.049 0 1.653-.739 3.037-2.314 3.037zM246.307 29.593c.005 1.463-1.082 2.158-2.023 2.158-1.037 0-1.754-.75-1.754-1.922v-5.274h-1.676v5.476c0 2.135 1.171 3.244 2.825 3.244 1.294 0 2.174-.683 2.572-1.602h.09v1.49h1.647v-8.607h-1.681v5.037zM250.24 33.163h1.675v-5.256c0-1.127.869-1.94 2.057-1.94.347 0 .74.062.874.102v-1.603a6.814 6.814 0 00-.712-.04c-1.008 0-1.871.572-2.185 1.497h-.09v-1.367h-1.619v8.607zM259.614 33.337c2.034 0 3.351-1.222 3.536-2.897h-1.631c-.213.93-.936 1.48-1.894 1.48-1.418 0-2.331-1.183-2.331-3.06 0-1.844.93-3.004 2.331-3.004 1.065 0 1.715.672 1.894 1.48h1.631c-.179-1.738-1.597-2.893-3.553-2.893-2.427 0-3.996 1.827-3.996 4.456 0 2.594 1.513 4.438 4.013 4.438zM268.652 33.337c1.877 0 3.205-.925 3.586-2.326l-1.586-.285c-.302.812-1.031 1.227-1.984 1.227-1.434 0-2.398-.93-2.443-2.59h6.12v-.593c0-3.11-1.861-4.327-3.811-4.327-2.399 0-3.979 1.827-3.979 4.472 0 2.674 1.558 4.422 4.097 4.422zm-2.421-5.229c.067-1.221.952-2.28 2.314-2.28 1.3 0 2.152.963 2.158 2.28h-4.472z" fill="#000"/><rect x="194.967" y="3.556" width="103.208" height="48.271" rx="8.083" stroke="#000" stroke-width="2.785"/><path d="M306 26h68v3h-68v-3z" fill="#CDCDCD"/><path fill-rule="evenodd" clip-rule="evenodd" d="M362.434 29.052l-6.843-6.843 2.419-2.419 6.843 6.843-2.419 2.42z" fill="#000"/><path fill-rule="evenodd" clip-rule="evenodd" d="M362.434 24.924l-6.843 6.842 2.419 2.42 6.843-6.843-2.419-2.42z" fill="#000"/><rect x="371.84" y="3.556" width="87.328" height="48.271" rx="24.136" fill="#fff"/><path d="M398.04 33.163h4.399c2.668 0 3.873-1.328 3.873-3.088 0-1.776-1.244-2.78-2.382-2.84v-.113c1.053-.269 1.933-.986 1.933-2.42 0-1.699-1.177-3.016-3.62-3.016h-4.203v11.477zm1.732-1.485v-3.676h2.561c1.39 0 2.258.896 2.258 1.99 0 .963-.656 1.686-2.32 1.686h-2.499zm0-5.027V23.16h2.365c1.373 0 2.028.723 2.028 1.676 0 1.11-.908 1.815-2.073 1.815h-2.32zM413.684 29.593c.005 1.463-1.082 2.158-2.023 2.158-1.037 0-1.754-.751-1.754-1.922v-5.274h-1.676v5.476c0 2.135 1.171 3.244 2.824 3.244 1.295 0 2.175-.683 2.573-1.602h.089v1.49h1.648v-8.608h-1.681v5.038zM417.616 33.163h1.676v-8.608h-1.676v8.608zm.847-9.936c.577 0 1.059-.448 1.059-.997 0-.55-.482-1.003-1.059-1.003-.583 0-1.06.453-1.06 1.003 0 .549.477.997 1.06.997zM423.222 21.686h-1.676v11.477h1.676V21.686zM428.698 33.331c1.57 0 2.186-.958 2.489-1.507h.14v1.34h1.636V21.685h-1.676v4.265h-.1c-.303-.533-.875-1.508-2.477-1.508-2.08 0-3.609 1.642-3.609 4.433 0 2.785 1.507 4.455 3.597 4.455zm.37-1.429c-1.496 0-2.275-1.317-2.275-3.043 0-1.709.762-2.992 2.275-2.992 1.463 0 2.247 1.193 2.247 2.992 0 1.81-.801 3.043-2.247 3.043z" fill="#000"/><rect x="371.84" y="3.556" width="87.328" height="48.271" rx="24.136" stroke="#000" stroke-width="2.785"/><path d="M458 26h79v3h-79v-3z" fill="#CDCDCD"/><path fill-rule="evenodd" clip-rule="evenodd" d="M525.514 29.052l-6.843-6.843 2.419-2.419 6.843 6.843-2.419 2.42z" fill="#000"/><path fill-rule="evenodd" clip-rule="evenodd" d="M525.514 24.924l-6.843 6.842 2.419 2.42 6.843-6.843-2.419-2.42z" fill="#000"/><rect x="537.392" y="3.556" width="115.912" height="48.271" rx="8.083" fill="#fff"/><path d="M564.246 33.163h1.732v-4.035h2.353c2.662 0 3.979-1.609 3.979-3.727 0-2.113-1.305-3.715-3.973-3.715h-4.091v11.477zm1.732-5.503v-4.49h2.174c1.715 0 2.415.93 2.415 2.231 0 1.3-.7 2.259-2.392 2.259h-2.197zM576.634 33.353c1.423 0 2.225-.723 2.544-1.367h.067v1.177h1.637v-5.716c0-2.505-1.973-3.004-3.34-3.004-1.558 0-2.993.627-3.553 2.197l1.574.358c.247-.61.875-1.2 2.001-1.2 1.082 0 1.636.567 1.636 1.542v.04c0 .61-.627.599-2.174.778-1.631.19-3.301.617-3.301 2.572 0 1.693 1.272 2.623 2.909 2.623zm.364-1.345c-.947 0-1.631-.426-1.631-1.255 0-.897.796-1.216 1.766-1.345.543-.073 1.832-.219 2.073-.46v1.11c0 1.02-.812 1.95-2.208 1.95zM586.739 33.336c2.035 0 3.352-1.221 3.537-2.897h-1.631c-.213.93-.936 1.48-1.894 1.48-1.418 0-2.332-1.183-2.332-3.06 0-1.844.931-3.004 2.332-3.004 1.064 0 1.714.672 1.894 1.48h1.631c-.18-1.738-1.598-2.892-3.553-2.892-2.427 0-3.996 1.827-3.996 4.455 0 2.595 1.513 4.438 4.012 4.438zM592.067 33.163h1.676v-3.055l.835-.835 2.925 3.89h2.057l-3.721-4.915 3.486-3.693h-2.007l-3.429 3.643h-.146v-6.512h-1.676v11.477zM603.357 33.353c1.423 0 2.225-.723 2.544-1.367h.067v1.177h1.637v-5.716c0-2.505-1.973-3.004-3.34-3.004-1.558 0-2.993.627-3.553 2.197l1.574.358c.247-.61.875-1.2 2.001-1.2 1.082 0 1.636.567 1.636 1.542v.04c0 .61-.627.599-2.174.778-1.631.19-3.301.617-3.301 2.572 0 1.693 1.272 2.623 2.909 2.623zm.364-1.345c-.947 0-1.631-.426-1.631-1.255 0-.897.796-1.216 1.766-1.345.543-.073 1.832-.219 2.073-.46v1.11c0 1.02-.813 1.95-2.208 1.95zM613.445 36.57c2.192 0 3.884-1.003 3.884-3.217v-8.798h-1.642v1.395h-.123c-.297-.532-.891-1.507-2.494-1.507-2.079 0-3.609 1.642-3.609 4.382 0 2.746 1.563 4.209 3.598 4.209 1.58 0 2.191-.891 2.494-1.44h.106v1.692c0 1.35-.925 1.933-2.197 1.933-1.395 0-1.939-.7-2.236-1.193l-1.44.594c.454 1.053 1.603 1.95 3.659 1.95zm-.016-4.926c-1.497 0-2.276-1.149-2.276-2.841 0-1.654.763-2.937 2.276-2.937 1.462 0 2.247 1.194 2.247 2.937 0 1.776-.802 2.84-2.247 2.84zM623.286 33.336c1.878 0 3.206-.924 3.587-2.325l-1.586-.286c-.303.813-1.031 1.227-1.984 1.227-1.435 0-2.399-.93-2.443-2.589h6.119v-.594c0-3.11-1.86-4.326-3.811-4.326-2.398 0-3.978 1.827-3.978 4.472 0 2.673 1.558 4.421 4.096 4.421zm-2.421-5.228c.067-1.222.953-2.281 2.315-2.281 1.3 0 2.152.964 2.157 2.28h-4.472z" fill="#000"/><rect x="537.392" y="3.556" width="115.912" height="48.271" rx="8.083" stroke="#000" stroke-width="2.785"/><path d="M662 26h70v3h-70v-3z" fill="#CDCDCD"/><path fill-rule="evenodd" clip-rule="evenodd" d="M720.509 29.052l-6.843-6.843 2.419-2.419 6.843 6.843-2.419 2.42z" fill="#000"/><path fill-rule="evenodd" clip-rule="evenodd" d="M720.509 24.924l-6.843 6.842 2.419 2.42 6.843-6.843-2.419-2.42z" fill="#000"/><g clip-path="url(#clip1)"><path d="M743.859 16a.874.874 0 00-.596.233.82.82 0 00-.262.568V33.35a.82.82 0 00.24.578.87.87 0 00.587.254h9.537V36h-2.035a2.068 2.068 0 00-1.345.543c-.364.336-.587.79-.626 1.275 0 .526.214 1.031.594 1.406.381.375.898.59 1.441.597h10.173a2.13 2.13 0 001.452-.595c.386-.374.606-.879.615-1.408a1.976 1.976 0 00-.617-1.396 2.098 2.098 0 00-1.45-.576h-2.098v-1.818h9.537a.878.878 0 00.597-.166.823.823 0 00.325-.512V16.801a.82.82 0 00-.262-.568.874.874 0 00-.596-.233h-25.211zm.827 1.633h23.557v14.76h-23.557v-14.76zm4.483 2.804a.82.82 0 00-.616.213.745.745 0 00-.243.588v3.76a.82.82 0 00.24.578.871.871 0 00.587.254h4.8c.219 0 .43-.084.585-.234a.79.79 0 00.242-.567v-3.79a.756.756 0 00-.232-.577.803.803 0 00-.595-.225h-4.768zm8.392 0a.847.847 0 00-.596.246.794.794 0 00-.23.587.79.79 0 00.253.546.84.84 0 00.573.224h6.359a.84.84 0 00.584-.235.79.79 0 00.242-.566.789.789 0 00-.242-.567.84.84 0 00-.584-.235h-6.359zm-7.566 1.603h3.179v2.065h-3.179V22.04zm7.471 2.065a.868.868 0 00-.557.285.816.816 0 00-.206.577c.016.21.114.406.273.55a.872.872 0 00.585.22h6.359a.832.832 0 00.474-.238.788.788 0 00.225-.47.74.74 0 00-.178-.66.796.796 0 00-.648-.264h-6.359.032zm-8.297 3.851a.872.872 0 00-.596.233.817.817 0 00-.263.569.745.745 0 00.209.585.805.805 0 00.586.247h14.656a.816.816 0 00.615-.213.762.762 0 00.243-.589.82.82 0 00-.24-.577.87.87 0 00-.586-.255h-14.624zm5.976 6.164h2.639v1.818h-2.639v-1.819zm-3.815 3.358h10.237a.36.36 0 01.36.022.334.334 0 01.149.318.363.363 0 01-.112.26.391.391 0 01-.27.108H751.33a.357.357 0 01-.259-.109.327.327 0 01-.09-.26.297.297 0 01.091-.25.321.321 0 01.258-.089z" fill="#000"/></g><path d="M793.593 25.637c-.392-2.454-2.315-3.889-4.741-3.889-2.97 0-5.162 2.225-5.162 5.895 0 3.671 2.18 5.896 5.162 5.896 2.522 0 4.365-1.58 4.741-3.85l-1.749-.006c-.297 1.469-1.53 2.276-2.981 2.276-1.967 0-3.452-1.508-3.452-4.316 0-2.785 1.479-4.315 3.458-4.315 1.462 0 2.69.824 2.975 2.31h1.749zM799.156 33.556c2.427 0 4.013-1.777 4.013-4.439 0-2.678-1.586-4.455-4.013-4.455-2.426 0-4.012 1.777-4.012 4.455 0 2.662 1.586 4.439 4.012 4.439zm.006-1.407c-1.586 0-2.326-1.384-2.326-3.037 0-1.648.74-3.049 2.326-3.049 1.575 0 2.314 1.401 2.314 3.049 0 1.653-.739 3.037-2.314 3.037zM806.715 28.271c0-1.373.84-2.157 2.006-2.157 1.138 0 1.827.745 1.827 1.995v5.273h1.675v-5.475c0-2.13-1.171-3.245-2.93-3.245-1.295 0-2.141.6-2.539 1.513h-.107v-1.4h-1.608v8.607h1.676v-5.11zM820.921 26.876c-.348-1.34-1.395-2.214-3.256-2.214-1.945 0-3.323 1.026-3.323 2.55 0 1.222.74 2.034 2.353 2.393l1.458.32c.829.184 1.216.554 1.216 1.092 0 .667-.712 1.188-1.81 1.188-1.004 0-1.648-.431-1.85-1.277l-1.619.246c.28 1.524 1.546 2.382 3.48 2.382 2.079 0 3.519-1.104 3.519-2.662 0-1.216-.773-1.967-2.354-2.331l-1.367-.314c-.947-.224-1.356-.544-1.351-1.127-.005-.66.712-1.132 1.665-1.132 1.042 0 1.524.578 1.72 1.155l1.519-.27zM828.384 29.812c.006 1.463-1.081 2.158-2.023 2.158-1.037 0-1.754-.751-1.754-1.922v-5.274h-1.676v5.475c0 2.136 1.172 3.245 2.825 3.245 1.294 0 2.174-.684 2.572-1.603h.09v1.491h1.647v-8.608h-1.681v5.038zM832.317 33.382h1.675v-5.307c0-1.16.813-1.967 1.766-1.967.93 0 1.574.616 1.574 1.552v5.722h1.67v-5.486c0-1.037.634-1.788 1.726-1.788.886 0 1.614.493 1.614 1.659v5.615h1.676V27.61c0-1.967-1.098-2.948-2.656-2.948-1.239 0-2.169.594-2.584 1.513h-.089c-.376-.941-1.166-1.513-2.315-1.513-1.138 0-1.984.566-2.342 1.513h-.107v-1.4h-1.608v8.607zM849.974 33.556c1.877 0 3.205-.925 3.586-2.326l-1.586-.286c-.302.813-1.031 1.228-1.983 1.228-1.435 0-2.399-.93-2.444-2.59h6.12v-.594c0-3.11-1.861-4.326-3.811-4.326-2.398 0-3.979 1.827-3.979 4.472 0 2.673 1.558 4.422 4.097 4.422zm-2.421-5.229c.067-1.222.952-2.28 2.314-2.28 1.3 0 2.152.963 2.158 2.28h-4.472zM855.526 33.382h1.676v-5.256c0-1.127.868-1.94 2.056-1.94.348 0 .74.062.874.101v-1.602a6.792 6.792 0 00-.711-.04c-1.009 0-1.872.572-2.186 1.497h-.089v-1.368h-1.62v8.608z" fill="#000"/><path d="M149.036 14c1.54-2.667 5.389-2.667 6.928 0l12.557 21.75c1.54 2.667-.384 6-3.464 6h-25.114c-3.08 0-5.004-3.333-3.464-6L149.036 14z" fill="red"/><path d="M149.396 35l.947-2.83h4.315l.953 2.83h2.219l-4.046-11.477h-2.567L147.177 35h2.219zm1.508-4.5l1.552-4.623h.09l1.552 4.623h-3.194z" fill="#fff"/><path d="M295.036 13c1.54-2.667 5.389-2.667 6.928 0l12.557 21.75c1.54 2.667-.384 6-3.464 6h-25.114c-3.08 0-5.004-3.333-3.464-6L295.036 13z" fill="red"/><path d="M294.446 34h4.646c2.628 0 3.917-1.34 3.917-3.127 0-1.737-1.233-2.757-2.454-2.819v-.112c1.12-.263 2.006-1.048 2.006-2.443 0-1.71-1.233-2.976-3.721-2.976h-4.394V34zm2.079-1.737V28.9h2.292c1.284 0 2.079.785 2.079 1.81 0 .914-.627 1.553-2.135 1.553h-2.236zm0-4.859v-3.166h2.102c1.221 0 1.855.644 1.855 1.53 0 1.008-.818 1.636-1.9 1.636h-2.057z" fill="#fff"/><path d="M333.036 13c1.54-2.667 5.389-2.667 6.928 0l12.557 21.75c1.54 2.667-.384 6-3.464 6h-25.114c-3.08 0-5.004-3.333-3.464-6L333.036 13z" fill="red"/><path d="M341.592 26.395c-.353-2.55-2.314-4.029-4.859-4.029-2.998 0-5.256 2.186-5.256 5.896 0 3.704 2.23 5.895 5.256 5.895 2.729 0 4.54-1.765 4.859-3.956l-2.096-.012c-.263 1.345-1.362 2.102-2.735 2.102-1.86 0-3.194-1.396-3.194-4.03 0-2.589 1.323-4.029 3.2-4.029 1.395 0 2.488.79 2.729 2.163h2.096z" fill="#fff"/><path d="M453.036 13c1.54-2.667 5.389-2.667 6.928 0l12.557 21.75c1.54 2.667-.384 6-3.464 6h-25.114c-3.08 0-5.004-3.333-3.464-6L453.036 13z" fill="red"/><path d="M455.804 34c3.497 0 5.57-2.163 5.57-5.75 0-3.575-2.073-5.727-5.492-5.727h-3.968V34h3.89zm-1.81-1.799v-7.88h1.77c2.332 0 3.548 1.3 3.548 3.93 0 2.639-1.216 3.95-3.609 3.95h-1.709z" fill="#fff"/><path d="M493.036 13c1.54-2.667 5.389-2.667 6.928 0l12.557 21.75c1.54 2.667-.384 6-3.464 6h-25.114c-3.08 0-5.004-3.333-3.464-6L493.036 13z" fill="red"/><path d="M493.009 34h2.079v-4.875h4.769v-1.743h-4.769v-3.116h5.273v-1.743h-7.352V34z" fill="#fff"/><path d="M650.036 13c1.54-2.667 5.389-2.667 6.928 0l12.557 21.75c1.54 2.667-.384 6-3.464 6h-25.114c-3.08 0-5.004-3.333-3.464-6L650.036 13z" fill="red"/><path d="M656.364 26.188h2.119c-.353-2.253-2.304-3.822-4.842-3.822-3.004 0-5.257 2.208-5.257 5.907 0 3.631 2.152 5.884 5.318 5.884 2.842 0 4.876-1.827 4.876-4.786v-1.378h-4.657v1.625h2.645c-.034 1.636-1.126 2.673-2.852 2.673-1.923 0-3.239-1.44-3.239-4.04 0-2.584 1.339-4.019 3.194-4.019 1.384 0 2.326.74 2.695 1.956z" fill="#fff"/><path d="M688.036 13c1.54-2.667 5.389-2.667 6.928 0l12.557 21.75c1.54 2.667-.384 6-3.464 6h-25.114c-3.08 0-5.004-3.333-3.464-6L688.036 13z" fill="red"/><path d="M686.76 34h2.079v-4.875h5.319V34h2.084V22.523h-2.084v4.859h-5.319v-4.86h-2.079V34z" fill="#fff"/><rect x="336" y="96.869" width="161.574" height="51.056" rx="9.476" fill="#fff"/><path d="M367.632 127.869c3.496 0 5.519-2.169 5.519-5.755 0-3.57-2.023-5.722-5.402-5.722h-3.833v11.477h3.716zm-1.984-1.513v-8.451h1.995c2.51 0 3.805 1.502 3.805 4.209 0 2.718-1.295 4.242-3.912 4.242h-1.888zM378.88 128.043c1.878 0 3.206-.925 3.587-2.326l-1.586-.286c-.303.813-1.031 1.228-1.984 1.228-1.435 0-2.398-.931-2.443-2.589h6.119v-.594c0-3.111-1.86-4.327-3.81-4.327-2.399 0-3.979 1.827-3.979 4.472 0 2.674 1.558 4.422 4.096 4.422zm-2.421-5.229c.068-1.221.953-2.28 2.315-2.28 1.3 0 2.152.963 2.157 2.28h-4.472zM384.432 131.097h1.676v-4.567h.101c.303.549.919 1.507 2.488 1.507 2.085 0 3.598-1.67 3.598-4.455 0-2.791-1.536-4.433-3.615-4.433-1.597 0-2.174.975-2.471 1.508h-.14v-1.396h-1.637v11.836zm1.642-7.532c0-1.799.785-2.992 2.248-2.992 1.518 0 2.28 1.283 2.28 2.992 0 1.726-.784 3.043-2.28 3.043-1.441 0-2.248-1.233-2.248-3.043zM397.882 128.043c1.878 0 3.206-.925 3.587-2.326l-1.586-.286c-.303.813-1.031 1.228-1.984 1.228-1.435 0-2.399-.931-2.443-2.589h6.119v-.594c0-3.111-1.86-4.327-3.811-4.327-2.398 0-3.978 1.827-3.978 4.472 0 2.674 1.558 4.422 4.096 4.422zm-2.421-5.229c.067-1.221.953-2.28 2.315-2.28 1.3 0 2.152.963 2.157 2.28h-4.472zM405.11 122.758c0-1.373.841-2.157 2.006-2.157 1.138 0 1.827.745 1.827 1.995v5.273h1.676v-5.475c0-2.129-1.171-3.245-2.931-3.245-1.295 0-2.141.6-2.539 1.513h-.106v-1.401h-1.609v8.608h1.676v-5.111zM416.088 128.037c1.569 0 2.186-.958 2.489-1.507h.14v1.339h1.636v-11.477h-1.676v4.265h-.1c-.303-.533-.875-1.508-2.477-1.508-2.08 0-3.609 1.642-3.609 4.433 0 2.785 1.507 4.455 3.597 4.455zm.37-1.429c-1.496 0-2.275-1.317-2.275-3.043 0-1.709.762-2.992 2.275-2.992 1.463 0 2.247 1.193 2.247 2.992 0 1.81-.801 3.043-2.247 3.043zM426.454 128.043c1.878 0 3.206-.925 3.587-2.326l-1.586-.286c-.303.813-1.031 1.228-1.984 1.228-1.434 0-2.398-.931-2.443-2.589h6.119v-.594c0-3.111-1.86-4.327-3.81-4.327-2.399 0-3.979 1.827-3.979 4.472 0 2.674 1.558 4.422 4.096 4.422zm-2.421-5.229c.068-1.221.953-2.28 2.315-2.28 1.3 0 2.152.963 2.157 2.28h-4.472zM433.682 122.758c0-1.373.841-2.157 2.006-2.157 1.138 0 1.827.745 1.827 1.995v5.273h1.676v-5.475c0-2.129-1.171-3.245-2.931-3.245-1.294 0-2.141.6-2.539 1.513h-.106v-1.401h-1.608v8.608h1.675v-5.111zM445.064 128.043c2.034 0 3.351-1.222 3.536-2.897h-1.631c-.213.93-.935 1.479-1.894 1.479-1.418 0-2.331-1.182-2.331-3.06 0-1.843.93-3.003 2.331-3.003 1.065 0 1.715.672 1.894 1.479h1.631c-.179-1.737-1.597-2.892-3.553-2.892-2.426 0-3.995 1.827-3.995 4.456 0 2.594 1.513 4.438 4.012 4.438zM450.392 127.869h1.676v-8.608h-1.676v8.608zm.846-9.936c.578 0 1.059-.448 1.059-.997 0-.549-.481-1.003-1.059-1.003-.583 0-1.059.454-1.059 1.003 0 .549.476.997 1.059.997zM458.032 128.043c1.877 0 3.205-.925 3.586-2.326l-1.586-.286c-.302.813-1.031 1.228-1.983 1.228-1.435 0-2.399-.931-2.444-2.589h6.12v-.594c0-3.111-1.861-4.327-3.811-4.327-2.398 0-3.979 1.827-3.979 4.472 0 2.674 1.558 4.422 4.097 4.422zm-2.421-5.229c.067-1.221.953-2.28 2.314-2.28 1.3 0 2.152.963 2.158 2.28h-4.472zM470.034 121.363c-.347-1.339-1.395-2.214-3.256-2.214-1.944 0-3.323 1.026-3.323 2.55 0 1.222.74 2.034 2.354 2.393l1.457.32c.829.184 1.216.554 1.216 1.092 0 .667-.712 1.188-1.81 1.188-1.003 0-1.648-.431-1.849-1.277l-1.62.246c.28 1.525 1.547 2.382 3.48 2.382 2.079 0 3.519-1.104 3.519-2.662 0-1.216-.773-1.967-2.353-2.331l-1.368-.314c-.947-.224-1.356-.544-1.35-1.126-.006-.662.711-1.132 1.664-1.132 1.043 0 1.524.577 1.721 1.154l1.518-.269z" fill="#000"/><rect x="336" y="96.869" width="161.574" height="51.056" rx="9.476" stroke="#000" stroke-width="2.785" stroke-linecap="square" stroke-dasharray="6 6"/><path d="M414.036 77c1.54-2.667 5.389-2.667 6.928 0l12.557 21.75c1.54 2.667-.384 6-3.464 6h-25.114c-3.08 0-5.004-3.333-3.464-6L414.036 77z" fill="red"/><path d="M413.839 98h7.51v-1.743h-5.431v-3.133h4.999v-1.742h-4.999v-3.116h5.386v-1.743h-7.465V98z" fill="#fff"/><defs><clipPath id="clip0"><path fill="#fff" transform="translate(16.727 16.794)" d="M0 0h26.275v22.232H0z"/></clipPath><clipPath id="clip1"><path fill="#fff" transform="translate(743 16)" d="M0 0h26.927v23.82H0z"/></clipPath></defs></svg>