<svg width="713" height="341" viewBox="0 0 713 341" fill="none" xmlns="http://www.w3.org/2000/svg">
<path d="M114.439 2.42C112.399 2.42 111.151 3.5 111.151 4.928C111.151 6.14 111.919 6.92 113.407 7.22L115.279 7.604C116.179 7.784 116.491 8.18 116.491 8.732C116.491 9.524 115.903 9.944 114.727 9.944C113.599 9.944 112.543 9.44 111.823 8.384L110.851 9.416C111.751 10.58 113.047 11.132 114.667 11.132C116.647 11.132 117.847 10.16 117.847 8.576C117.847 7.328 117.055 6.644 115.603 6.356L113.875 6.008C112.927 5.828 112.507 5.432 112.507 4.784C112.507 4.088 113.131 3.608 114.331 3.608C115.423 3.608 116.191 3.968 116.935 4.892L117.871 3.944C117.019 2.936 115.939 2.42 114.439 2.42ZM122.845 2.42C120.397 2.42 118.861 4.088 118.861 6.776C118.861 9.464 120.397 11.132 122.845 11.132C125.281 11.132 126.805 9.464 126.805 6.776C126.805 4.076 125.281 2.42 122.845 2.42ZM122.845 3.632C124.453 3.632 125.449 4.784 125.449 6.776C125.449 8.768 124.453 9.92 122.845 9.92C121.213 9.92 120.217 8.768 120.217 6.776C120.217 4.796 121.213 3.632 122.845 3.632ZM133.787 2.552V7.604C133.787 8.9 133.331 9.92 131.663 9.92C130.007 9.92 129.539 8.912 129.539 7.604V2.552H128.231V7.748C128.231 9.992 129.455 11.132 131.663 11.132C133.883 11.132 135.095 9.992 135.095 7.748V2.552H133.787ZM141.561 7.508C142.641 7.22 143.349 6.392 143.349 5.096C143.349 3.548 142.353 2.552 140.577 2.552H136.965V11H138.273V7.7H140.193L142.257 11H143.805L141.561 7.508ZM140.385 3.74C141.345 3.74 141.993 4.076 141.993 5.12C141.993 6.164 141.381 6.524 140.385 6.524H138.273V3.74H140.385ZM150.601 8.216C150.265 9.332 149.461 9.92 148.369 9.92C146.725 9.92 145.717 8.768 145.717 6.776C145.717 4.748 146.785 3.632 148.381 3.632C149.449 3.632 150.169 4.136 150.541 5.144L151.825 4.592C151.273 3.2 150.049 2.42 148.333 2.42C145.933 2.42 144.361 4.088 144.361 6.776C144.361 9.464 145.921 11.132 148.357 11.132C150.025 11.132 151.405 10.28 151.945 8.66L150.601 8.216ZM159.543 11V9.812H154.539V7.304H158.319V6.152H154.539V3.74H159.363V2.552H153.231V11H159.543ZM163.443 2.552V3.74H166.359V11H167.667V3.74H170.583V2.552H163.443ZM177.409 6.128H173.137V2.552H171.817V11H173.137V7.316H177.409V11H178.717V2.552H177.409V6.128ZM185.331 7.508C186.411 7.22 187.119 6.392 187.119 5.096C187.119 3.548 186.123 2.552 184.347 2.552H180.735V11H182.043V7.7H183.963L186.027 11H187.575L185.331 7.508ZM184.155 3.74C185.115 3.74 185.763 4.076 185.763 5.12C185.763 6.164 185.151 6.524 184.155 6.524H182.043V3.74H184.155ZM194.957 11V9.812H189.953V7.304H193.733V6.152H189.953V3.74H194.777V2.552H188.645V11H194.957ZM198.684 2.552L195.432 11H196.776L197.616 8.792H201.252L202.092 11H203.496L200.244 2.552H198.684ZM199.428 3.896L200.844 7.64H198.012L199.428 3.896ZM202.607 2.552V3.74H205.523V11H206.831V3.74H209.747V2.552H202.607ZM213.591 2.42C211.551 2.42 210.303 3.5 210.303 4.928C210.303 6.14 211.071 6.92 212.559 7.22L214.431 7.604C215.331 7.784 215.643 8.18 215.643 8.732C215.643 9.524 215.055 9.944 213.879 9.944C212.751 9.944 211.695 9.44 210.975 8.384L210.003 9.416C210.903 10.58 212.199 11.132 213.819 11.132C215.799 11.132 216.999 10.16 216.999 8.576C216.999 7.328 216.207 6.644 214.755 6.356L213.027 6.008C212.079 5.828 211.659 5.432 211.659 4.784C211.659 4.088 212.283 3.608 213.483 3.608C214.575 3.608 215.343 3.968 216.087 4.892L217.023 3.944C216.171 2.936 215.091 2.42 213.591 2.42Z" fill="#155757"/>
<path d="M95 26V24C95 20.6863 97.6863 18 101 18H227C230.314 18 233 20.6863 233 24V26" stroke="#155757"/>
<path d="M1.5923 136.89V148H5.50599C8.97781 148 11.0293 146.012 11.0293 142.429C11.0293 138.879 8.99359 136.89 5.50599 136.89H1.5923ZM3.32821 146.438V138.452H5.49021C7.88892 138.452 9.23031 139.889 9.23031 142.429C9.23031 145.002 7.88892 146.438 5.49021 146.438H3.32821ZM19.8748 143.55C19.8748 141.514 18.5335 139.952 16.2452 139.952C13.957 139.952 12.3473 141.482 12.3473 144.071C12.3473 146.627 13.957 148.158 16.3083 148.158C17.9022 148.158 19.1647 147.448 19.717 146.28L18.3599 145.601C17.9811 146.28 17.3814 146.753 16.3241 146.753C14.9669 146.753 14.1306 145.901 14.0201 144.481H19.8117C19.8433 144.244 19.8748 143.929 19.8748 143.55ZM14.0674 143.25C14.2726 142.003 15.0616 141.34 16.2136 141.34C17.3814 141.34 18.1231 142.003 18.1547 143.25H14.0674ZM24.4189 146.422L22.1307 140.109H20.2685L23.4405 148H25.3342L28.522 140.109H26.7861L24.4189 146.422ZM36.5035 143.55C36.5035 141.514 35.1621 139.952 32.8738 139.952C30.5856 139.952 28.9759 141.482 28.9759 144.071C28.9759 146.627 30.5856 148.158 32.9369 148.158C34.5308 148.158 35.7933 147.448 36.3456 146.28L34.9885 145.601C34.6097 146.28 34.0101 146.753 32.9527 146.753C31.5956 146.753 30.7592 145.901 30.6487 144.481H36.4403C36.4719 144.244 36.5035 143.929 36.5035 143.55ZM30.696 143.25C30.9012 142.003 31.6902 141.34 32.8423 141.34C34.0101 141.34 34.7518 142.003 34.7833 143.25H30.696ZM38.1104 136.89V145.933C38.1104 147.416 38.8363 148.158 40.2566 148.158C40.8247 148.158 41.3297 148.032 41.7716 147.826L41.4718 146.438C41.235 146.564 40.9825 146.643 40.6038 146.643C40.1146 146.643 39.799 146.39 39.799 145.633V136.89H38.1104ZM46.0823 139.952C43.7625 139.952 42.137 141.482 42.137 144.055C42.137 146.627 43.7625 148.158 46.0823 148.158C48.3863 148.158 50.0275 146.627 50.0275 144.055C50.0275 141.482 48.3863 139.952 46.0823 139.952ZM46.0823 141.356C47.471 141.356 48.3074 142.319 48.3074 144.055C48.3074 145.791 47.471 146.753 46.0823 146.753C44.6935 146.753 43.8572 145.791 43.8572 144.055C43.8572 142.319 44.6935 141.356 46.0823 141.356ZM56.0751 139.952C54.8126 139.952 53.8026 140.567 53.2976 141.482L53.2187 140.109H51.7195V151.062H53.4081V146.801C53.8973 147.637 54.7968 148.158 55.9489 148.158C57.9057 148.158 59.468 146.627 59.468 144.039C59.468 141.514 58.0477 139.952 56.0751 139.952ZM55.5859 146.706C54.2603 146.706 53.4081 145.68 53.4081 144.055C53.4081 142.414 54.2918 141.388 55.6175 141.388C56.9746 141.388 57.7479 142.366 57.7479 144.055C57.7479 145.743 56.9431 146.706 55.5859 146.706ZM68.1887 143.55C68.1887 141.514 66.8474 139.952 64.5591 139.952C62.2709 139.952 60.6612 141.482 60.6612 144.071C60.6612 146.627 62.2709 148.158 64.6222 148.158C66.2161 148.158 67.4786 147.448 68.0309 146.28L66.6738 145.601C66.295 146.28 65.6953 146.753 64.638 146.753C63.2809 146.753 62.4445 145.901 62.334 144.481H68.1256C68.1572 144.244 68.1887 143.929 68.1887 143.55ZM62.3813 143.25C62.5865 142.003 63.3755 141.34 64.5276 141.34C65.6953 141.34 66.4371 142.003 66.4686 143.25H62.3813ZM71.5316 148V143.881C71.5316 142.319 72.5416 141.561 73.5516 141.561C73.9461 141.561 74.1828 141.609 74.4038 141.656L74.5931 140.062C74.388 139.983 74.0881 139.952 73.8514 139.952C72.6363 139.952 71.8314 140.567 71.4369 141.482L71.3422 140.109H69.843V148H71.5316Z" fill="#102B2D"/>
<path d="M125.401 70.9712C126.294 73.2392 124.854 75.7203 122.44 76.0596C113.522 77.3135 104.478 77.3135 95.5596 76.0596C93.1458 75.7203 91.7058 73.2392 92.5991 70.9713C95.992 62.3578 100.504 54.226 105.999 46.8407C107.504 44.8167 110.496 44.8167 112.001 46.8407C117.496 54.226 122.008 62.3578 125.401 70.9712Z" fill="#F03100"/>
<path d="M107.516 57.328L102.728 70H105.194L106.346 66.94H111.548L112.7 70H115.274L110.468 57.328H107.516ZM108.974 59.74L110.846 64.888H107.048L108.974 59.74Z" fill="white"/>
<path d="M110 75.5C110 74.9477 109.552 74.5 109 74.5C108.448 74.5 108 74.9477 108 75.5H110ZM108 125C108 125.552 108.448 126 109 126C109.552 126 110 125.552 110 125H108ZM108 75.5503C108 76.1026 108.448 76.5503 109 76.5503C109.552 76.5503 110 76.1026 110 75.5503H108ZM110 79.5747C110 79.0224 109.552 78.5747 109 78.5747C108.448 78.5747 108 79.0224 108 79.5747H110ZM108 79.6753C108 80.2276 108.448 80.6753 109 80.6753C109.552 80.6753 110 80.2276 110 79.6753H108ZM110 83.6997C110 83.1474 109.552 82.6997 109 82.6997C108.448 82.6997 108 83.1474 108 83.6997H110ZM108 83.8003C108 84.3526 108.448 84.8003 109 84.8003C109.552 84.8003 110 84.3526 110 83.8003H108ZM110 87.8247C110 87.2724 109.552 86.8247 109 86.8247C108.448 86.8247 108 87.2724 108 87.8247H110ZM108 87.9253C108 88.4776 108.448 88.9253 109 88.9253C109.552 88.9253 110 88.4776 110 87.9253H108ZM110 91.9497C110 91.3974 109.552 90.9497 109 90.9497C108.448 90.9497 108 91.3974 108 91.9497H110ZM108 92.0503C108 92.6026 108.448 93.0503 109 93.0503C109.552 93.0503 110 92.6026 110 92.0503H108ZM110 96.0747C110 95.5224 109.552 95.0747 109 95.0747C108.448 95.0747 108 95.5224 108 96.0747H110ZM108 96.1753C108 96.7276 108.448 97.1753 109 97.1753C109.552 97.1753 110 96.7276 110 96.1753H108ZM110 100.2C110 99.6474 109.552 99.1997 109 99.1997C108.448 99.1997 108 99.6474 108 100.2H110ZM108 100.3C108 100.853 108.448 101.3 109 101.3C109.552 101.3 110 100.853 110 100.3H108ZM110 104.325C110 103.772 109.552 103.325 109 103.325C108.448 103.325 108 103.772 108 104.325H110ZM108 104.425C108 104.978 108.448 105.425 109 105.425C109.552 105.425 110 104.978 110 104.425H108ZM110 108.45C110 107.897 109.552 107.45 109 107.45C108.448 107.45 108 107.897 108 108.45H110ZM108 108.55C108 109.103 108.448 109.55 109 109.55C109.552 109.55 110 109.103 110 108.55H108ZM110 112.575C110 112.022 109.552 111.575 109 111.575C108.448 111.575 108 112.022 108 112.575H110ZM108 112.675C108 113.228 108.448 113.675 109 113.675C109.552 113.675 110 113.228 110 112.675H108ZM110 116.7C110 116.147 109.552 115.7 109 115.7C108.448 115.7 108 116.147 108 116.7H110ZM108 116.8C108 117.353 108.448 117.8 109 117.8C109.552 117.8 110 117.353 110 116.8H108ZM110 120.825C110 120.272 109.552 119.825 109 119.825C108.448 119.825 108 120.272 108 120.825H110ZM108 120.925C108 121.478 108.448 121.925 109 121.925C109.552 121.925 110 121.478 110 120.925H108ZM110 124.95C110 124.397 109.552 123.95 109 123.95C108.448 123.95 108 124.397 108 124.95H110ZM108 75.5V75.5503H110V75.5H108ZM108 79.5747V79.6753H110V79.5747H108ZM108 83.6997V83.8003H110V83.6997H108ZM108 87.8247V87.9253H110V87.8247H108ZM108 91.9497V92.0503H110V91.9497H108ZM108 96.0747V96.1753H110V96.0747H108ZM108 100.2V100.3H110V100.2H108ZM108 104.325V104.425H110V104.325H108ZM108 108.45V108.55H110V108.45H108ZM108 112.575V112.675H110V112.575H108ZM108 116.7V116.8H110V116.7H108ZM108 120.825V120.925H110V120.825H108ZM108 124.95V125H110V124.95H108Z" fill="#F03100"/>
<path d="M95 143L123 143" stroke="#58DA95" stroke-linejoin="round"/>
<path d="M107 137L113 143L107 149" stroke="#58DA95" stroke-linecap="square" stroke-linejoin="round"/>
<path d="M196.401 70.9712C197.294 73.2392 195.854 75.7203 193.44 76.0596C184.522 77.3135 175.478 77.3135 166.56 76.0596C164.146 75.7203 162.706 73.2392 163.599 70.9713C166.992 62.3578 171.504 54.226 176.999 46.8407C178.504 44.8167 181.496 44.8167 183.001 46.8407C188.496 54.226 193.008 62.3578 196.401 70.9712Z" fill="#F03100"/>
<path d="M180.895 70C183.901 70 185.485 68.704 185.485 66.508C185.485 65.05 184.603 63.88 183.001 63.574V63.556C184.351 63.304 185.161 62.134 185.161 60.784C185.161 58.588 183.739 57.328 180.697 57.328H175.297V70H180.895ZM177.691 59.362H180.499C181.885 59.362 182.641 59.866 182.641 60.982C182.641 62.116 181.867 62.602 180.499 62.602H177.691V59.362ZM177.691 64.654H180.805C182.209 64.654 182.965 65.176 182.965 66.274C182.965 67.408 182.191 67.966 180.733 67.966H177.691V64.654Z" fill="white"/>
<path d="M181 75.5C181 74.9477 180.552 74.5 180 74.5C179.448 74.5 179 74.9477 179 75.5H181ZM179 105C179 105.552 179.448 106 180 106C180.552 106 181 105.552 181 105H179ZM179 75.5514C179 76.1037 179.448 76.5514 180 76.5514C180.552 76.5514 181 76.1037 181 75.5514H179ZM181 79.6629C181 79.1106 180.552 78.6629 180 78.6629C179.448 78.6629 179 79.1106 179 79.6629H181ZM179 79.7657C179 80.318 179.448 80.7657 180 80.7657C180.552 80.7657 181 80.318 181 79.7657H179ZM181 83.8772C181 83.3249 180.552 82.8772 180 82.8772C179.448 82.8772 179 83.3249 179 83.8772H181ZM179 83.98C179 84.5322 179.448 84.98 180 84.98C180.552 84.98 181 84.5322 181 83.98H179ZM181 88.0915C181 87.5392 180.552 87.0915 180 87.0915C179.448 87.0915 179 87.5392 179 88.0915H181ZM179 88.1942C179 88.7465 179.448 89.1942 180 89.1942C180.552 89.1942 181 88.7465 181 88.1942H179ZM181 92.3057C181 91.7535 180.552 91.3057 180 91.3057C179.448 91.3057 179 91.7535 179 92.3057H181ZM179 92.4085C179 92.9608 179.448 93.4085 180 93.4085C180.552 93.4085 181 92.9608 181 92.4085H179ZM181 96.52C181 95.9677 180.552 95.52 180 95.52C179.448 95.52 179 95.9677 179 96.52H181ZM179 96.6228C179 97.1751 179.448 97.6228 180 97.6228C180.552 97.6228 181 97.1751 181 96.6228H179ZM181 100.734C181 100.182 180.552 99.7343 180 99.7343C179.448 99.7343 179 100.182 179 100.734H181ZM179 100.837C179 101.389 179.448 101.837 180 101.837C180.552 101.837 181 101.389 181 100.837H179ZM181 104.949C181 104.396 180.552 103.949 180 103.949C179.448 103.949 179 104.396 179 104.949H181ZM179 75.5V75.5514H181V75.5H179ZM179 79.6629V79.7657H181V79.6629H179ZM179 83.8772V83.98H181V83.8772H179ZM179 88.0915V88.1942H181V88.0915H179ZM179 92.3057V92.4085H181V92.3057H179ZM179 96.52V96.6228H181V96.52H179ZM179 100.734V100.837H181V100.734H179ZM179 104.949V105H181V104.949H179Z" fill="#F03100"/>
<path d="M158.68 136.56C155.8 136.56 154.088 137.984 154.088 140C154.088 141.792 155.304 142.704 157.208 143.088L159.608 143.568C160.648 143.776 161.08 144.224 161.08 144.896C161.08 145.808 160.344 146.272 158.984 146.272C157.56 146.272 156.152 145.632 155.08 144.368L153.688 146.112C154.856 147.376 156.648 148.176 158.856 148.176C161.56 148.176 163.304 146.88 163.304 144.624C163.304 142.912 162.216 141.984 160.232 141.584L157.992 141.136C156.84 140.912 156.328 140.544 156.328 139.776C156.328 138.96 157.128 138.464 158.52 138.464C159.896 138.464 160.92 138.896 162.056 139.984L163.368 138.368C162.152 137.184 160.712 136.56 158.68 136.56ZM168.57 139.84C166.154 139.84 164.474 141.392 164.474 144C164.474 146.608 166.154 148.16 168.57 148.16C170.986 148.16 172.666 146.608 172.666 144C172.666 141.392 170.986 139.84 168.57 139.84ZM168.57 141.584C169.77 141.584 170.49 142.4 170.49 144C170.49 145.6 169.77 146.416 168.57 146.416C167.354 146.416 166.634 145.6 166.634 144C166.634 142.4 167.354 141.584 168.57 141.584ZM177.098 148.16C178.394 148.16 179.306 147.696 179.85 146.672L179.93 148H181.834V140H179.69V144.304C179.69 145.696 178.842 146.288 177.898 146.288C176.922 146.288 176.394 145.904 176.394 144.752V140H174.25V145.328C174.25 147.264 175.498 148.16 177.098 148.16ZM186.114 148V143.968C186.114 142.608 187.058 141.92 188.05 141.92C188.466 141.92 188.722 141.968 188.93 142.032L189.17 139.968C188.978 139.872 188.69 139.84 188.434 139.84C187.17 139.84 186.37 140.528 185.97 141.488L185.89 140H183.97V148H186.114ZM193.729 139.84C191.297 139.84 189.553 141.376 189.553 144C189.553 146.624 191.169 148.16 193.633 148.16C195.633 148.16 196.945 147.184 197.393 145.696L195.377 145.008C195.121 145.888 194.641 146.416 193.697 146.416C192.465 146.416 191.713 145.68 191.713 144.016C191.713 142.384 192.449 141.584 193.681 141.584C194.545 141.584 195.041 142.064 195.297 142.992L197.313 142.224C196.849 140.784 195.649 139.84 193.729 139.84ZM206.096 143.568C206.096 141.472 204.704 139.84 202.288 139.84C199.92 139.84 198.256 141.392 198.256 144.048C198.256 146.624 199.888 148.16 202.352 148.16C204.032 148.16 205.44 147.424 205.968 146.112L204.208 145.344C203.888 145.968 203.392 146.448 202.416 146.448C201.216 146.448 200.496 145.744 200.368 144.56H206.048C206.08 144.288 206.096 143.952 206.096 143.568ZM200.4 143.184C200.56 142.064 201.264 141.52 202.272 141.52C203.296 141.52 203.936 142.112 203.968 143.184H200.4Z" fill="#102B2D"/>
<rect x="128" y="106" width="104" height="74" rx="7" stroke="#58DA95" stroke-width="2"/>
<path d="M380.723 11C382.727 11 383.747 10.112 383.747 8.66C383.747 7.7 383.135 6.92 382.103 6.716V6.704C383.003 6.536 383.543 5.744 383.543 4.856C383.543 3.404 382.607 2.552 380.615 2.552H377.291V11H380.723ZM378.599 3.692H380.555C381.611 3.692 382.175 4.088 382.175 4.928C382.175 5.78 381.623 6.176 380.555 6.176H378.599V3.692ZM378.599 7.316H380.759C381.827 7.316 382.391 7.748 382.391 8.576C382.391 9.416 381.827 9.86 380.663 9.86H378.599V7.316ZM390.625 2.552V7.604C390.625 8.9 390.169 9.92 388.501 9.92C386.845 9.92 386.377 8.912 386.377 7.604V2.552H385.069V7.748C385.069 9.992 386.293 11.132 388.501 11.132C390.721 11.132 391.933 9.992 391.933 7.748V2.552H390.625ZM393.803 2.552V11H395.123V2.552H393.803ZM398.463 2.552H397.143V11H403.155V9.8H398.463V2.552ZM404.432 2.552V11H407.408C410.048 11 411.608 9.488 411.608 6.764C411.608 4.064 410.06 2.552 407.408 2.552H404.432ZM405.752 9.812V3.74H407.396C409.22 3.74 410.24 4.832 410.24 6.764C410.24 8.72 409.22 9.812 407.396 9.812H405.752ZM415.699 2.552V3.74H418.615V11H419.923V3.74H422.839V2.552H415.699ZM429.664 6.128H425.392V2.552H424.072V11H425.392V7.316H429.664V11H430.972V2.552H429.664V6.128ZM437.586 7.508C438.666 7.22 439.374 6.392 439.374 5.096C439.374 3.548 438.378 2.552 436.602 2.552H432.99V11H434.298V7.7H436.218L438.282 11H439.83L437.586 7.508ZM436.41 3.74C437.37 3.74 438.018 4.076 438.018 5.12C438.018 6.164 437.406 6.524 436.41 6.524H434.298V3.74H436.41ZM447.213 11V9.812H442.209V7.304H445.989V6.152H442.209V3.74H447.033V2.552H440.901V11H447.213ZM450.94 2.552L447.688 11H449.032L449.872 8.792H453.508L454.348 11H455.752L452.5 2.552H450.94ZM451.684 3.896L453.1 7.64H450.268L451.684 3.896ZM454.863 2.552V3.74H457.779V11H459.087V3.74H462.003V2.552H454.863ZM465.847 2.42C463.807 2.42 462.559 3.5 462.559 4.928C462.559 6.14 463.327 6.92 464.815 7.22L466.687 7.604C467.587 7.784 467.899 8.18 467.899 8.732C467.899 9.524 467.311 9.944 466.135 9.944C465.007 9.944 463.951 9.44 463.231 8.384L462.259 9.416C463.159 10.58 464.455 11.132 466.075 11.132C468.055 11.132 469.255 10.16 469.255 8.576C469.255 7.328 468.463 6.644 467.011 6.356L465.283 6.008C464.335 5.828 463.915 5.432 463.915 4.784C463.915 4.088 464.539 3.608 465.739 3.608C466.831 3.608 467.599 3.968 468.343 4.892L469.279 3.944C468.427 2.936 467.347 2.42 465.847 2.42Z" fill="#155757"/>
<path d="M233 26V24C233 20.6863 235.686 18 239 18H607C610.314 18 613 20.6863 613 24V26" stroke="#155757"/>
<path d="M285.401 70.9712C286.294 73.2392 284.854 75.7203 282.44 76.0596C273.522 77.3135 264.478 77.3135 255.56 76.0596C253.146 75.7203 251.706 73.2392 252.599 70.9713C255.992 62.3578 260.504 54.226 265.999 46.8407C267.504 44.8167 270.496 44.8167 272.001 46.8407C277.496 54.226 282.008 62.3578 285.401 70.9712Z" fill="#F03100"/>
<path d="M272.548 65.554C272.098 67.12 271.018 67.948 269.524 67.948C267.238 67.948 265.906 66.418 265.906 63.664C265.906 60.874 267.31 59.38 269.524 59.38C270.928 59.38 272.008 60.01 272.548 61.576L274.906 60.604C274.06 58.336 272.134 57.13 269.47 57.13C265.798 57.13 263.368 59.596 263.368 63.664C263.368 67.732 265.744 70.198 269.47 70.198C272.026 70.198 274.222 68.938 275.05 66.328L272.548 65.554Z" fill="white"/>
<path d="M270 75.5C270 74.9477 269.552 74.5 269 74.5C268.448 74.5 268 74.9477 268 75.5H270ZM268 125C268 125.552 268.448 126 269 126C269.552 126 270 125.552 270 125H268ZM268 75.5503C268 76.1026 268.448 76.5503 269 76.5503C269.552 76.5503 270 76.1026 270 75.5503H268ZM270 79.5747C270 79.0224 269.552 78.5747 269 78.5747C268.448 78.5747 268 79.0224 268 79.5747H270ZM268 79.6753C268 80.2276 268.448 80.6753 269 80.6753C269.552 80.6753 270 80.2276 270 79.6753H268ZM270 83.6997C270 83.1474 269.552 82.6997 269 82.6997C268.448 82.6997 268 83.1474 268 83.6997H270ZM268 83.8003C268 84.3526 268.448 84.8003 269 84.8003C269.552 84.8003 270 84.3526 270 83.8003H268ZM270 87.8247C270 87.2724 269.552 86.8247 269 86.8247C268.448 86.8247 268 87.2724 268 87.8247H270ZM268 87.9253C268 88.4776 268.448 88.9253 269 88.9253C269.552 88.9253 270 88.4776 270 87.9253H268ZM270 91.9497C270 91.3974 269.552 90.9497 269 90.9497C268.448 90.9497 268 91.3974 268 91.9497H270ZM268 92.0503C268 92.6026 268.448 93.0503 269 93.0503C269.552 93.0503 270 92.6026 270 92.0503H268ZM270 96.0747C270 95.5224 269.552 95.0747 269 95.0747C268.448 95.0747 268 95.5224 268 96.0747H270ZM268 96.1753C268 96.7276 268.448 97.1753 269 97.1753C269.552 97.1753 270 96.7276 270 96.1753H268ZM270 100.2C270 99.6474 269.552 99.1997 269 99.1997C268.448 99.1997 268 99.6474 268 100.2H270ZM268 100.3C268 100.853 268.448 101.3 269 101.3C269.552 101.3 270 100.853 270 100.3H268ZM270 104.325C270 103.772 269.552 103.325 269 103.325C268.448 103.325 268 103.772 268 104.325H270ZM268 104.425C268 104.978 268.448 105.425 269 105.425C269.552 105.425 270 104.978 270 104.425H268ZM270 108.45C270 107.897 269.552 107.45 269 107.45C268.448 107.45 268 107.897 268 108.45H270ZM268 108.55C268 109.103 268.448 109.55 269 109.55C269.552 109.55 270 109.103 270 108.55H268ZM270 112.575C270 112.022 269.552 111.575 269 111.575C268.448 111.575 268 112.022 268 112.575H270ZM268 112.675C268 113.228 268.448 113.675 269 113.675C269.552 113.675 270 113.228 270 112.675H268ZM270 116.7C270 116.147 269.552 115.7 269 115.7C268.448 115.7 268 116.147 268 116.7H270ZM268 116.8C268 117.353 268.448 117.8 269 117.8C269.552 117.8 270 117.353 270 116.8H268ZM270 120.825C270 120.272 269.552 119.825 269 119.825C268.448 119.825 268 120.272 268 120.825H270ZM268 120.925C268 121.478 268.448 121.925 269 121.925C269.552 121.925 270 121.478 270 120.925H268ZM270 124.95C270 124.397 269.552 123.95 269 123.95C268.448 123.95 268 124.397 268 124.95H270ZM268 75.5V75.5503H270V75.5H268ZM268 79.5747V79.6753H270V79.5747H268ZM268 83.6997V83.8003H270V83.6997H268ZM268 87.8247V87.9253H270V87.8247H268ZM268 91.9497V92.0503H270V91.9497H268ZM268 96.0747V96.1753H270V96.0747H268ZM268 100.2V100.3H270V100.2H268ZM268 104.325V104.425H270V104.325H268ZM268 108.45V108.55H270V108.45H268ZM268 112.575V112.675H270V112.575H268ZM268 116.7V116.8H270V116.7H268ZM268 120.825V120.925H270V120.825H268ZM268 124.95V125H270V124.95H268Z" fill="#F03100"/>
<path d="M237 143L301 143" stroke="#58DA95" stroke-linejoin="round"/>
<path d="M267 137L273 143L267 149" stroke="#58DA95" stroke-linecap="square" stroke-linejoin="round"/>
<path d="M367.401 70.9712C368.294 73.2392 366.854 75.7203 364.44 76.0596C355.522 77.3135 346.478 77.3135 337.56 76.0596C335.146 75.7203 333.706 73.2392 334.599 70.9713C337.992 62.3578 342.504 54.226 347.999 46.8407C349.504 44.8167 352.496 44.8167 354.001 46.8407C359.496 54.226 364.008 62.3578 367.401 70.9712Z" fill="#F03100"/>
<path d="M345.787 57.328V70H350.575C354.535 70 356.803 67.714 356.803 63.664C356.803 59.596 354.535 57.328 350.575 57.328H345.787ZM348.235 67.84V59.488H350.449C352.951 59.488 354.283 60.946 354.283 63.664C354.283 66.4 352.933 67.84 350.449 67.84H348.235Z" fill="white"/>
<path d="M352 75.5C352 74.9477 351.552 74.5 351 74.5C350.448 74.5 350 74.9477 350 75.5H352ZM350 105C350 105.552 350.448 106 351 106C351.552 106 352 105.552 352 105H350ZM350 75.5514C350 76.1037 350.448 76.5514 351 76.5514C351.552 76.5514 352 76.1037 352 75.5514H350ZM352 79.6629C352 79.1106 351.552 78.6629 351 78.6629C350.448 78.6629 350 79.1106 350 79.6629H352ZM350 79.7657C350 80.318 350.448 80.7657 351 80.7657C351.552 80.7657 352 80.318 352 79.7657H350ZM352 83.8772C352 83.3249 351.552 82.8772 351 82.8772C350.448 82.8772 350 83.3249 350 83.8772H352ZM350 83.98C350 84.5322 350.448 84.98 351 84.98C351.552 84.98 352 84.5322 352 83.98H350ZM352 88.0915C352 87.5392 351.552 87.0915 351 87.0915C350.448 87.0915 350 87.5392 350 88.0915H352ZM350 88.1942C350 88.7465 350.448 89.1942 351 89.1942C351.552 89.1942 352 88.7465 352 88.1942H350ZM352 92.3057C352 91.7535 351.552 91.3057 351 91.3057C350.448 91.3057 350 91.7535 350 92.3057H352ZM350 92.4085C350 92.9608 350.448 93.4085 351 93.4085C351.552 93.4085 352 92.9608 352 92.4085H350ZM352 96.52C352 95.9677 351.552 95.52 351 95.52C350.448 95.52 350 95.9677 350 96.52H352ZM350 96.6228C350 97.1751 350.448 97.6228 351 97.6228C351.552 97.6228 352 97.1751 352 96.6228H350ZM352 100.734C352 100.182 351.552 99.7343 351 99.7343C350.448 99.7343 350 100.182 350 100.734H352ZM350 100.837C350 101.389 350.448 101.837 351 101.837C351.552 101.837 352 101.389 352 100.837H350ZM352 104.949C352 104.396 351.552 103.949 351 103.949C350.448 103.949 350 104.396 350 104.949H352ZM350 75.5V75.5514H352V75.5H350ZM350 79.6629V79.7657H352V79.6629H350ZM350 83.8772V83.98H352V83.8772H350ZM350 88.0915V88.1942H352V88.0915H350ZM350 92.3057V92.4085H352V92.3057H350ZM350 96.52V96.6228H352V96.52H350ZM350 100.734V100.837H352V100.734H350ZM350 104.949V105H352V104.949H350Z" fill="#F03100"/>
<path d="M337.491 148C340.163 148 341.571 146.848 341.571 144.896C341.571 143.6 340.787 142.56 339.363 142.288V142.272C340.563 142.048 341.283 141.008 341.283 139.808C341.283 137.856 340.019 136.736 337.315 136.736H332.515V148H337.491ZM334.643 138.544H337.139C338.371 138.544 339.043 138.992 339.043 139.984C339.043 140.992 338.355 141.424 337.139 141.424H334.643V138.544ZM334.643 143.248H337.411C338.659 143.248 339.331 143.712 339.331 144.688C339.331 145.696 338.643 146.192 337.347 146.192H334.643V143.248ZM346.028 148.16C347.324 148.16 348.236 147.696 348.78 146.672L348.86 148H350.764V140H348.62V144.304C348.62 145.696 347.772 146.288 346.828 146.288C345.852 146.288 345.324 145.904 345.324 144.752V140H343.18V145.328C343.18 147.264 344.428 148.16 346.028 148.16ZM353.972 136.608C353.188 136.608 352.692 137.104 352.692 137.856C352.692 138.608 353.188 139.104 353.972 139.104C354.74 139.104 355.252 138.608 355.252 137.856C355.252 137.104 354.74 136.608 353.972 136.608ZM352.9 140V148H355.044V140H352.9ZM357.149 136.736V145.712C357.149 147.36 357.949 148.16 359.517 148.16C360.157 148.16 360.717 148.016 361.181 147.792L360.877 146.112C360.653 146.192 360.461 146.272 360.077 146.272C359.565 146.272 359.293 146.016 359.293 145.296V136.736H357.149ZM367.56 141.184C367.128 140.368 366.344 139.84 365.208 139.84C363.08 139.84 361.592 141.44 361.592 144.016C361.592 146.544 363.032 148.16 365.112 148.16C366.264 148.16 367.208 147.568 367.704 146.608L367.784 148H369.704V136.736H367.56V141.184ZM365.656 146.352C364.44 146.352 363.768 145.52 363.768 144C363.768 142.48 364.472 141.648 365.688 141.648C366.824 141.648 367.56 142.48 367.56 143.936C367.56 145.472 366.808 146.352 365.656 146.352Z" fill="#102B2D"/>
<rect x="306" y="106" width="90" height="74" rx="37" stroke="#58DA95" stroke-width="2"/>
<path d="M351 213L351 185" stroke="#58DA95" stroke-linejoin="round"/>
<path d="M345 201L351 195L357 201" stroke="#58DA95" stroke-linecap="square" stroke-linejoin="round"/>
<path d="M449.401 70.9712C450.294 73.2392 448.854 75.7203 446.44 76.0596C437.522 77.3135 428.478 77.3135 419.56 76.0596C417.146 75.7203 415.706 73.2392 416.599 70.9713C419.992 62.3578 424.504 54.226 429.999 46.8407C431.504 44.8167 434.496 44.8167 436.001 46.8407C441.496 54.226 446.008 62.3578 449.401 70.9712Z" fill="#F03100"/>
<path d="M438.194 57.328H428.798V70H431.246V64.96H436.718V62.782H431.246V59.524H438.194V57.328Z" fill="white"/>
<path d="M434 75.5C434 74.9477 433.552 74.5 433 74.5C432.448 74.5 432 74.9477 432 75.5H434ZM432 125C432 125.552 432.448 126 433 126C433.552 126 434 125.552 434 125H432ZM432 75.5503C432 76.1026 432.448 76.5503 433 76.5503C433.552 76.5503 434 76.1026 434 75.5503H432ZM434 79.5747C434 79.0224 433.552 78.5747 433 78.5747C432.448 78.5747 432 79.0224 432 79.5747H434ZM432 79.6753C432 80.2276 432.448 80.6753 433 80.6753C433.552 80.6753 434 80.2276 434 79.6753H432ZM434 83.6997C434 83.1474 433.552 82.6997 433 82.6997C432.448 82.6997 432 83.1474 432 83.6997H434ZM432 83.8003C432 84.3526 432.448 84.8003 433 84.8003C433.552 84.8003 434 84.3526 434 83.8003H432ZM434 87.8247C434 87.2724 433.552 86.8247 433 86.8247C432.448 86.8247 432 87.2724 432 87.8247H434ZM432 87.9253C432 88.4776 432.448 88.9253 433 88.9253C433.552 88.9253 434 88.4776 434 87.9253H432ZM434 91.9497C434 91.3974 433.552 90.9497 433 90.9497C432.448 90.9497 432 91.3974 432 91.9497H434ZM432 92.0503C432 92.6026 432.448 93.0503 433 93.0503C433.552 93.0503 434 92.6026 434 92.0503H432ZM434 96.0747C434 95.5224 433.552 95.0747 433 95.0747C432.448 95.0747 432 95.5224 432 96.0747H434ZM432 96.1753C432 96.7276 432.448 97.1753 433 97.1753C433.552 97.1753 434 96.7276 434 96.1753H432ZM434 100.2C434 99.6474 433.552 99.1997 433 99.1997C432.448 99.1997 432 99.6474 432 100.2H434ZM432 100.3C432 100.853 432.448 101.3 433 101.3C433.552 101.3 434 100.853 434 100.3H432ZM434 104.325C434 103.772 433.552 103.325 433 103.325C432.448 103.325 432 103.772 432 104.325H434ZM432 104.425C432 104.978 432.448 105.425 433 105.425C433.552 105.425 434 104.978 434 104.425H432ZM434 108.45C434 107.897 433.552 107.45 433 107.45C432.448 107.45 432 107.897 432 108.45H434ZM432 108.55C432 109.103 432.448 109.55 433 109.55C433.552 109.55 434 109.103 434 108.55H432ZM434 112.575C434 112.022 433.552 111.575 433 111.575C432.448 111.575 432 112.022 432 112.575H434ZM432 112.675C432 113.228 432.448 113.675 433 113.675C433.552 113.675 434 113.228 434 112.675H432ZM434 116.7C434 116.147 433.552 115.7 433 115.7C432.448 115.7 432 116.147 432 116.7H434ZM432 116.8C432 117.353 432.448 117.8 433 117.8C433.552 117.8 434 117.353 434 116.8H432ZM434 120.825C434 120.272 433.552 119.825 433 119.825C432.448 119.825 432 120.272 432 120.825H434ZM432 120.925C432 121.478 432.448 121.925 433 121.925C433.552 121.925 434 121.478 434 120.925H432ZM434 124.95C434 124.397 433.552 123.95 433 123.95C432.448 123.95 432 124.397 432 124.95H434ZM432 75.5V75.5503H434V75.5H432ZM432 79.5747V79.6753H434V79.5747H432ZM432 83.6997V83.8003H434V83.6997H432ZM432 87.8247V87.9253H434V87.8247H432ZM432 91.9497V92.0503H434V91.9497H432ZM432 96.0747V96.1753H434V96.0747H432ZM432 100.2V100.3H434V100.2H432ZM432 104.325V104.425H434V104.325H432ZM432 108.45V108.55H434V108.45H432ZM432 112.575V112.675H434V112.575H432ZM432 116.7V116.8H434V116.7H432ZM432 120.825V120.925H434V120.825H432ZM432 124.95V125H434V124.95H432Z" fill="#F03100"/>
<path d="M401 143L465 143" stroke="#58DA95" stroke-linejoin="round"/>
<path d="M431 137L437 143L431 149" stroke="#58DA95" stroke-linecap="square" stroke-linejoin="round"/>
<path d="M274.932 256C275.484 256 275.932 255.552 275.932 255C275.932 254.448 275.484 254 274.932 254V256ZM249.932 254C249.38 254 248.932 254.448 248.932 255C248.932 255.552 249.38 256 249.932 256V254ZM274.881 254C274.329 254 273.881 254.448 273.881 255C273.881 255.552 274.329 256 274.881 256V254ZM270.816 256C271.369 256 271.816 255.552 271.816 255C271.816 254.448 271.369 254 270.816 254V256ZM270.715 254C270.162 254 269.715 254.448 269.715 255C269.715 255.552 270.162 256 270.715 256V254ZM266.65 256C267.202 256 267.65 255.552 267.65 255C267.65 254.448 267.202 254 266.65 254V256ZM266.548 254C265.996 254 265.548 254.448 265.548 255C265.548 255.552 265.996 256 266.548 256V254ZM262.483 256C263.035 256 263.483 255.552 263.483 255C263.483 254.448 263.035 254 262.483 254V256ZM262.381 254C261.829 254 261.381 254.448 261.381 255C261.381 255.552 261.829 256 262.381 256V254ZM258.316 256C258.869 256 259.316 255.552 259.316 255C259.316 254.448 258.869 254 258.316 254V256ZM258.215 254C257.662 254 257.215 254.448 257.215 255C257.215 255.552 257.662 256 258.215 256V254ZM254.15 256C254.702 256 255.15 255.552 255.15 255C255.15 254.448 254.702 254 254.15 254V256ZM254.048 254C253.496 254 253.048 254.448 253.048 255C253.048 255.552 253.496 256 254.048 256V254ZM249.983 256C250.535 256 250.983 255.552 250.983 255C250.983 254.448 250.535 254 249.983 254V256ZM274.932 254H274.881V256H274.932V254ZM270.816 254H270.715V256H270.816V254ZM266.65 254H266.548V256H266.65V254ZM262.483 254H262.381V256H262.483V254ZM258.316 254H258.215V256H258.316V254ZM254.15 254H254.048V256H254.15V254ZM249.983 254H249.932V256H249.983V254Z" fill="#F03100"/>
<path d="M267.401 264.971C268.294 267.239 266.854 269.72 264.44 270.06C255.522 271.313 246.478 271.313 237.56 270.06C235.146 269.72 233.706 267.239 234.599 264.971C237.992 256.358 242.504 248.226 247.999 240.841C249.504 238.817 252.496 238.817 254.001 240.841C259.496 248.226 264.008 256.358 267.401 264.971Z" fill="#F03100"/>
<path d="M256.307 264V261.822H248.999V258.672H254.543V256.566H248.999V253.506H256.037V251.328H246.569V264H256.307Z" fill="white"/>
<path d="M304.018 248.89V260H308.216C311.688 260 313.676 257.996 313.676 254.445C313.676 250.879 311.688 248.89 308.216 248.89H304.018ZM306.165 258.106V250.784H308.106C310.299 250.784 311.467 252.062 311.467 254.445C311.467 256.844 310.283 258.106 308.106 258.106H306.165ZM322.692 255.629C322.692 253.561 321.319 251.952 318.936 251.952C316.6 251.952 314.959 253.482 314.959 256.102C314.959 258.643 316.569 260.158 318.999 260.158C320.656 260.158 322.045 259.432 322.565 258.138L320.829 257.38C320.514 257.996 320.025 258.469 319.062 258.469C317.878 258.469 317.168 257.775 317.042 256.607H322.644C322.676 256.339 322.692 256.007 322.692 255.629ZM317.074 255.25C317.231 254.145 317.926 253.609 318.92 253.609C319.93 253.609 320.561 254.193 320.593 255.25H317.074ZM328.965 251.952C327.781 251.952 326.819 252.551 326.282 253.451L326.219 252.109H324.31V263.062H326.424V258.88C326.913 259.684 327.766 260.158 328.855 260.158C330.811 260.158 332.295 258.643 332.295 256.039C332.295 253.546 330.969 251.952 328.965 251.952ZM328.286 258.375C327.15 258.375 326.424 257.491 326.424 256.055C326.424 254.587 327.182 253.735 328.318 253.735C329.486 253.735 330.164 254.508 330.164 256.055C330.164 257.601 329.47 258.375 328.286 258.375ZM341.2 255.629C341.2 253.561 339.827 251.952 337.445 251.952C335.109 251.952 333.468 253.482 333.468 256.102C333.468 258.643 335.077 260.158 337.508 260.158C339.165 260.158 340.553 259.432 341.074 258.138L339.338 257.38C339.023 257.996 338.533 258.469 337.571 258.469C336.387 258.469 335.677 257.775 335.551 256.607H341.153C341.185 256.339 341.2 256.007 341.2 255.629ZM335.582 255.25C335.74 254.145 336.435 253.609 337.429 253.609C338.439 253.609 339.07 254.193 339.102 255.25H335.582ZM348.231 253.277C347.805 252.472 347.032 251.952 345.911 251.952C343.813 251.952 342.345 253.53 342.345 256.071C342.345 258.564 343.765 260.158 345.817 260.158C346.953 260.158 347.884 259.574 348.373 258.627L348.452 260H350.346V248.89H348.231V253.277ZM346.353 258.375C345.154 258.375 344.491 257.554 344.491 256.055C344.491 254.556 345.186 253.735 346.385 253.735C347.505 253.735 348.231 254.556 348.231 255.992C348.231 257.507 347.49 258.375 346.353 258.375ZM359.709 255.629C359.709 253.561 358.336 251.952 355.953 251.952C353.618 251.952 351.977 253.482 351.977 256.102C351.977 258.643 353.586 260.158 356.016 260.158C357.673 260.158 359.062 259.432 359.583 258.138L357.847 257.38C357.531 257.996 357.042 258.469 356.08 258.469C354.896 258.469 354.186 257.775 354.06 256.607H359.662C359.693 256.339 359.709 256.007 359.709 255.629ZM354.091 255.25C354.249 254.145 354.943 253.609 355.938 253.609C356.948 253.609 357.579 254.193 357.61 255.25H354.091ZM365.904 251.952C364.72 251.952 363.821 252.457 363.284 253.451L363.221 252.109H361.327V260H363.442V255.818C363.442 254.35 364.357 253.798 365.272 253.798C366.109 253.798 366.724 254.208 366.724 255.439V260H368.839V254.871C368.839 252.914 367.592 251.952 365.904 251.952ZM374.512 251.952C372.113 251.952 370.393 253.467 370.393 256.055C370.393 258.643 371.987 260.158 374.417 260.158C376.39 260.158 377.684 259.195 378.126 257.728L376.137 257.049C375.885 257.917 375.411 258.438 374.48 258.438C373.265 258.438 372.523 257.712 372.523 256.071C372.523 254.461 373.249 253.672 374.464 253.672C375.316 253.672 375.806 254.145 376.058 255.061L378.047 254.303C377.589 252.883 376.405 251.952 374.512 251.952ZM380.523 248.764C379.75 248.764 379.261 249.253 379.261 249.995C379.261 250.737 379.75 251.226 380.523 251.226C381.281 251.226 381.786 250.737 381.786 249.995C381.786 249.253 381.281 248.764 380.523 248.764ZM379.466 252.109V260H381.581V252.109H379.466ZM390.932 255.629C390.932 253.561 389.559 251.952 387.176 251.952C384.841 251.952 383.199 253.482 383.199 256.102C383.199 258.643 384.809 260.158 387.239 260.158C388.896 260.158 390.285 259.432 390.806 258.138L389.07 257.38C388.754 257.996 388.265 258.469 387.303 258.469C386.119 258.469 385.409 257.775 385.283 256.607H390.885C390.916 256.339 390.932 256.007 390.932 255.629ZM385.314 255.25C385.472 254.145 386.166 253.609 387.161 253.609C388.17 253.609 388.802 254.193 388.833 255.25H385.314ZM395.533 260.158C397.758 260.158 398.941 259.085 398.941 257.522C398.941 256.465 398.342 255.708 396.795 255.392L394.996 255.029C394.318 254.887 394.128 254.682 394.128 254.35C394.128 253.893 394.538 253.64 395.454 253.64C396.29 253.64 397.174 254.051 397.868 254.666L398.91 253.135C397.995 252.378 396.921 251.952 395.438 251.952C393.229 251.952 392.014 253.119 392.014 254.492C392.014 255.692 392.692 256.528 394.507 256.86L395.975 257.128C396.637 257.254 396.811 257.443 396.811 257.743C396.811 258.217 396.338 258.469 395.643 258.469C394.428 258.469 393.45 257.933 392.708 257.286L391.651 258.88C392.629 259.732 393.97 260.158 395.533 260.158Z" fill="#102B2D"/>
<rect x="276.5" y="217" width="149" height="76" rx="8" stroke="#58DA95" stroke-width="2" stroke-linecap="square" stroke-dasharray="5 5"/>
<g clip-path="url(#clip0_2_15)">
<path d="M476.568 185V247C476.568 251.418 472.986 255 468.568 255H430.568" stroke="#58DA95" stroke-linejoin="round"/>
</g>
<path d="M233 313V315C233 318.314 235.686 321 239 321H463C466.314 321 469 318.314 469 315V313" stroke="#155757"/>
<path d="M282.586 327.552V336H285.562C288.202 336 289.762 334.488 289.762 331.764C289.762 329.064 288.214 327.552 285.562 327.552H282.586ZM283.906 334.812V328.74H285.55C287.374 328.74 288.394 329.832 288.394 331.764C288.394 333.72 287.374 334.812 285.55 334.812H283.906ZM297.664 336V334.812H292.66V332.304H296.44V331.152H292.66V328.74H297.484V327.552H291.352V336H297.664ZM299.063 327.552V336H300.383V332.892H302.519C304.319 332.892 305.387 331.872 305.387 330.216C305.387 328.572 304.319 327.552 302.519 327.552H299.063ZM300.383 331.692V328.74H302.315C303.407 328.74 304.031 329.148 304.031 330.216C304.031 331.284 303.419 331.692 302.315 331.692H300.383ZM313.039 336V334.812H308.035V332.304H311.815V331.152H308.035V328.74H312.859V327.552H306.727V336H313.039ZM315.674 336V329.1L319.658 336H321.35V327.552H320.114V334.332L316.226 327.552H314.438V336H315.674ZM323.367 327.552V336H326.343C328.983 336 330.543 334.488 330.543 331.764C330.543 329.064 328.995 327.552 326.343 327.552H323.367ZM324.687 334.812V328.74H326.331C328.155 328.74 329.175 329.832 329.175 331.764C329.175 333.72 328.155 334.812 326.331 334.812H324.687ZM338.445 336V334.812H333.441V332.304H337.221V331.152H333.441V328.74H338.265V327.552H332.133V336H338.445ZM341.08 336V329.1L345.064 336H346.756V327.552H345.52V334.332L341.632 327.552H339.844V336H341.08ZM354.582 333.216C354.246 334.332 353.442 334.92 352.35 334.92C350.706 334.92 349.698 333.768 349.698 331.776C349.698 329.748 350.766 328.632 352.362 328.632C353.43 328.632 354.15 329.136 354.522 330.144L355.806 329.592C355.254 328.2 354.03 327.42 352.314 327.42C349.914 327.42 348.342 329.088 348.342 331.776C348.342 334.464 349.902 336.132 352.338 336.132C354.006 336.132 355.386 335.28 355.926 333.66L354.582 333.216ZM359.734 331.464L357.526 327.552H356.038L359.038 332.772V336H360.37V332.772L363.394 327.552H361.942L359.734 331.464ZM366.404 327.552V328.74H369.32V336H370.628V328.74H373.544V327.552H366.404ZM380.37 331.128H376.098V327.552H374.778V336H376.098V332.316H380.37V336H381.678V327.552H380.37V331.128ZM388.292 332.508C389.372 332.22 390.08 331.392 390.08 330.096C390.08 328.548 389.084 327.552 387.308 327.552H383.696V336H385.004V332.7H386.924L388.988 336H390.536L388.292 332.508ZM387.116 328.74C388.076 328.74 388.724 329.076 388.724 330.12C388.724 331.164 388.112 331.524 387.116 331.524H385.004V328.74H387.116ZM397.918 336V334.812H392.914V332.304H396.694V331.152H392.914V328.74H397.738V327.552H391.606V336H397.918ZM401.645 327.552L398.393 336H399.737L400.577 333.792H404.213L405.053 336H406.457L403.205 327.552H401.645ZM402.389 328.896L403.805 332.64H400.973L402.389 328.896ZM405.568 327.552V328.74H408.484V336H409.792V328.74H412.708V327.552H405.568ZM416.552 327.42C414.512 327.42 413.264 328.5 413.264 329.928C413.264 331.14 414.032 331.92 415.52 332.22L417.392 332.604C418.292 332.784 418.604 333.18 418.604 333.732C418.604 334.524 418.016 334.944 416.84 334.944C415.712 334.944 414.656 334.44 413.936 333.384L412.964 334.416C413.864 335.58 415.16 336.132 416.78 336.132C418.76 336.132 419.96 335.16 419.96 333.576C419.96 332.328 419.168 331.644 417.716 331.356L415.988 331.008C415.04 330.828 414.62 330.432 414.62 329.784C414.62 329.088 415.244 328.608 416.444 328.608C417.536 328.608 418.304 328.968 419.048 329.892L419.984 328.944C419.132 327.936 418.052 327.42 416.552 327.42Z" fill="#155757"/>
<path d="M543.401 70.9712C544.294 73.2392 542.854 75.7203 540.44 76.0596C531.522 77.3135 522.478 77.3135 513.56 76.0596C511.146 75.7203 509.706 73.2392 510.599 70.9713C513.992 62.3578 518.504 54.226 523.999 46.8407C525.504 44.8167 528.496 44.8167 530.002 46.8407C535.496 54.226 540.008 62.3578 543.401 70.9712Z" fill="#F03100"/>
<path d="M526.882 64.96H530.644V65.266C530.644 66.526 529.762 67.984 527.494 67.984C525.028 67.984 523.678 66.454 523.678 63.628C523.678 60.856 525.064 59.326 527.404 59.326C528.79 59.326 529.96 59.974 530.464 61.45L532.858 60.46C531.868 58.048 529.834 57.13 527.404 57.13C523.48 57.13 521.158 59.596 521.158 63.682C521.158 67.786 523.678 70.198 527.278 70.198C530.716 70.198 533.002 68.272 533.002 64.654V62.98H526.882V64.96Z" fill="white"/>
<path d="M528 75.5C528 74.9477 527.552 74.5 527 74.5C526.448 74.5 526 74.9477 526 75.5H528ZM526 105C526 105.552 526.448 106 527 106C527.552 106 528 105.552 528 105H526ZM526 75.5514C526 76.1037 526.448 76.5514 527 76.5514C527.552 76.5514 528 76.1037 528 75.5514H526ZM528 79.6629C528 79.1106 527.552 78.6629 527 78.6629C526.448 78.6629 526 79.1106 526 79.6629H528ZM526 79.7657C526 80.318 526.448 80.7657 527 80.7657C527.552 80.7657 528 80.318 528 79.7657H526ZM528 83.8772C528 83.3249 527.552 82.8772 527 82.8772C526.448 82.8772 526 83.3249 526 83.8772H528ZM526 83.98C526 84.5322 526.448 84.98 527 84.98C527.552 84.98 528 84.5322 528 83.98H526ZM528 88.0915C528 87.5392 527.552 87.0915 527 87.0915C526.448 87.0915 526 87.5392 526 88.0915H528ZM526 88.1942C526 88.7465 526.448 89.1942 527 89.1942C527.552 89.1942 528 88.7465 528 88.1942H526ZM528 92.3057C528 91.7535 527.552 91.3057 527 91.3057C526.448 91.3057 526 91.7535 526 92.3057H528ZM526 92.4085C526 92.9608 526.448 93.4085 527 93.4085C527.552 93.4085 528 92.9608 528 92.4085H526ZM528 96.52C528 95.9677 527.552 95.52 527 95.52C526.448 95.52 526 95.9677 526 96.52H528ZM526 96.6228C526 97.1751 526.448 97.6228 527 97.6228C527.552 97.6228 528 97.1751 528 96.6228H526ZM528 100.734C528 100.182 527.552 99.7343 527 99.7343C526.448 99.7343 526 100.182 526 100.734H528ZM526 100.837C526 101.389 526.448 101.837 527 101.837C527.552 101.837 528 101.389 528 100.837H526ZM528 104.949C528 104.396 527.552 103.949 527 103.949C526.448 103.949 526 104.396 526 104.949H528ZM526 75.5V75.5514H528V75.5H526ZM526 79.6629V79.7657H528V79.6629H526ZM526 83.8772V83.98H528V83.8772H526ZM526 88.0915V88.1942H528V88.0915H526ZM526 92.3057V92.4085H528V92.3057H526ZM526 96.52V96.6228H528V96.52H526ZM526 100.734V100.837H528V100.734H526ZM526 104.949V105H528V104.949H526Z" fill="#F03100"/>
<path d="M496.346 136.89V148H498.493V144.165H501.112C503.558 144.165 505.01 142.808 505.01 140.52C505.01 138.247 503.574 136.89 501.112 136.89H496.346ZM498.493 142.256V138.8H500.765C502.075 138.8 502.817 139.273 502.817 140.52C502.817 141.782 502.075 142.256 500.765 142.256H498.493ZM513.648 146.58C513.253 146.58 513.048 146.375 513.048 145.98V142.698C513.048 140.867 511.581 139.952 509.639 139.952C507.462 139.952 506.247 140.788 505.884 142.256L507.793 142.682C508.014 141.893 508.566 141.577 509.466 141.577C510.397 141.577 510.934 142.019 510.934 142.903V143.266H508.803C507.02 143.266 505.868 144.181 505.868 145.696C505.868 147.195 506.815 148.158 508.724 148.158C509.75 148.158 510.665 147.795 511.17 147.085C511.439 147.795 512.117 148.126 513.001 148.126C513.364 148.126 513.664 148.079 513.885 147.968L513.979 146.548C513.885 146.564 513.758 146.58 513.648 146.58ZM509.182 146.643C508.267 146.643 507.919 146.201 507.919 145.586C507.919 145.017 508.424 144.749 509.308 144.749H510.934V145.128C510.934 146.248 509.971 146.643 509.182 146.643ZM518.742 139.952C516.343 139.952 514.623 141.467 514.623 144.055C514.623 146.643 516.217 148.158 518.647 148.158C520.62 148.158 521.914 147.195 522.356 145.728L520.367 145.049C520.115 145.917 519.641 146.438 518.71 146.438C517.495 146.438 516.753 145.712 516.753 144.071C516.753 142.461 517.479 141.672 518.694 141.672C519.546 141.672 520.036 142.145 520.288 143.061L522.277 142.303C521.819 140.883 520.635 139.952 518.742 139.952ZM531.871 148L528.683 143.234L531.681 140.109H529.188L525.811 143.597V136.89H523.696V148H525.811V146.059L527.121 144.686L529.33 148H531.871ZM540.016 146.58C539.622 146.58 539.417 146.375 539.417 145.98V142.698C539.417 140.867 537.949 139.952 536.008 139.952C533.83 139.952 532.615 140.788 532.252 142.256L534.162 142.682C534.382 141.893 534.935 141.577 535.834 141.577C536.765 141.577 537.302 142.019 537.302 142.903V143.266H535.172C533.388 143.266 532.236 144.181 532.236 145.696C532.236 147.195 533.183 148.158 535.093 148.158C536.118 148.158 537.034 147.795 537.539 147.085C537.807 147.795 538.486 148.126 539.369 148.126C539.732 148.126 540.032 148.079 540.253 147.968L540.348 146.548C540.253 146.564 540.127 146.58 540.016 146.58ZM535.55 146.643C534.635 146.643 534.288 146.201 534.288 145.586C534.288 145.017 534.793 144.749 535.677 144.749H537.302V145.128C537.302 146.248 536.339 146.643 535.55 146.643ZM544.937 151.251C547.619 151.251 549.008 149.689 549.008 146.911V140.109H547.099L547.035 141.356C546.609 140.472 545.726 139.952 544.589 139.952C542.554 139.952 541.023 141.435 541.023 144.007C541.023 146.548 542.506 148.047 544.447 148.047C545.52 148.047 546.404 147.558 546.893 146.753V147.495C546.893 148.821 546.278 149.594 545.015 149.594C543.911 149.594 543.248 149.247 542.995 148.442L540.833 148.852C541.212 150.288 542.648 151.251 544.937 151.251ZM545.015 146.264C543.832 146.264 543.153 145.491 543.153 144.023C543.153 142.508 543.848 141.735 545.031 141.735C546.167 141.735 546.893 142.524 546.893 143.96C546.893 145.412 546.167 146.264 545.015 146.264ZM558.371 143.629C558.371 141.561 556.998 139.952 554.615 139.952C552.28 139.952 550.639 141.482 550.639 144.102C550.639 146.643 552.248 148.158 554.679 148.158C556.336 148.158 557.724 147.432 558.245 146.138L556.509 145.38C556.194 145.996 555.704 146.469 554.742 146.469C553.558 146.469 552.848 145.775 552.722 144.607H558.324C558.356 144.339 558.371 144.007 558.371 143.629ZM552.753 143.25C552.911 142.145 553.605 141.609 554.6 141.609C555.61 141.609 556.241 142.193 556.272 143.25H552.753Z" fill="#102B2D"/>
<rect x="470" y="106" width="114" height="74" rx="7" stroke="#58DA95" stroke-width="2"/>
<g clip-path="url(#clip1_2_15)">
<path d="M533 218L527 224L521 218" stroke="#58DA95" stroke-linecap="round" stroke-linejoin="round"/>
<path d="M527 185V247C527 251.418 523.418 255 519 255H239" stroke="#58DA95" stroke-linejoin="round"/>
</g>
<path d="M619.401 70.9712C620.294 73.2392 618.854 75.7203 616.44 76.0596C607.522 77.3135 598.478 77.3135 589.56 76.0596C587.146 75.7203 585.706 73.2392 586.599 70.9713C589.992 62.3578 594.504 54.226 599.999 46.8407C601.504 44.8167 604.496 44.8167 606.001 46.8407C611.496 54.226 616.008 62.3578 619.401 70.9712Z" fill="#F03100"/>
<path d="M605.926 62.494H600.094V57.328H597.646V70H600.094V64.69H605.926V70H608.374V57.328H605.926V62.494Z" fill="white"/>
<path d="M604 75.5C604 74.9477 603.552 74.5 603 74.5C602.448 74.5 602 74.9477 602 75.5H604ZM602 125C602 125.552 602.448 126 603 126C603.552 126 604 125.552 604 125H602ZM602 75.5503C602 76.1026 602.448 76.5503 603 76.5503C603.552 76.5503 604 76.1026 604 75.5503H602ZM604 79.5747C604 79.0224 603.552 78.5747 603 78.5747C602.448 78.5747 602 79.0224 602 79.5747H604ZM602 79.6753C602 80.2276 602.448 80.6753 603 80.6753C603.552 80.6753 604 80.2276 604 79.6753H602ZM604 83.6997C604 83.1474 603.552 82.6997 603 82.6997C602.448 82.6997 602 83.1474 602 83.6997H604ZM602 83.8003C602 84.3526 602.448 84.8003 603 84.8003C603.552 84.8003 604 84.3526 604 83.8003H602ZM604 87.8247C604 87.2724 603.552 86.8247 603 86.8247C602.448 86.8247 602 87.2724 602 87.8247H604ZM602 87.9253C602 88.4776 602.448 88.9253 603 88.9253C603.552 88.9253 604 88.4776 604 87.9253H602ZM604 91.9497C604 91.3974 603.552 90.9497 603 90.9497C602.448 90.9497 602 91.3974 602 91.9497H604ZM602 92.0503C602 92.6026 602.448 93.0503 603 93.0503C603.552 93.0503 604 92.6026 604 92.0503H602ZM604 96.0747C604 95.5224 603.552 95.0747 603 95.0747C602.448 95.0747 602 95.5224 602 96.0747H604ZM602 96.1753C602 96.7276 602.448 97.1753 603 97.1753C603.552 97.1753 604 96.7276 604 96.1753H602ZM604 100.2C604 99.6474 603.552 99.1997 603 99.1997C602.448 99.1997 602 99.6474 602 100.2H604ZM602 100.3C602 100.853 602.448 101.3 603 101.3C603.552 101.3 604 100.853 604 100.3H602ZM604 104.325C604 103.772 603.552 103.325 603 103.325C602.448 103.325 602 103.772 602 104.325H604ZM602 104.425C602 104.978 602.448 105.425 603 105.425C603.552 105.425 604 104.978 604 104.425H602ZM604 108.45C604 107.897 603.552 107.45 603 107.45C602.448 107.45 602 107.897 602 108.45H604ZM602 108.55C602 109.103 602.448 109.55 603 109.55C603.552 109.55 604 109.103 604 108.55H602ZM604 112.575C604 112.022 603.552 111.575 603 111.575C602.448 111.575 602 112.022 602 112.575H604ZM602 112.675C602 113.228 602.448 113.675 603 113.675C603.552 113.675 604 113.228 604 112.675H602ZM604 116.7C604 116.147 603.552 115.7 603 115.7C602.448 115.7 602 116.147 602 116.7H604ZM602 116.8C602 117.353 602.448 117.8 603 117.8C603.552 117.8 604 117.353 604 116.8H602ZM604 120.825C604 120.272 603.552 119.825 603 119.825C602.448 119.825 602 120.272 602 120.825H604ZM602 120.925C602 121.478 602.448 121.925 603 121.925C603.552 121.925 604 121.478 604 120.925H602ZM604 124.95C604 124.397 603.552 123.95 603 123.95C602.448 123.95 602 124.397 602 124.95H604ZM602 75.5V75.5503H604V75.5H602ZM602 79.5747V79.6753H604V79.5747H602ZM602 83.6997V83.8003H604V83.6997H602ZM602 87.8247V87.9253H604V87.8247H602ZM602 91.9497V92.0503H604V91.9497H602ZM602 96.0747V96.1753H604V96.0747H602ZM602 100.2V100.3H604V100.2H602ZM602 104.325V104.425H604V104.325H602ZM602 108.45V108.55H604V108.45H602ZM602 112.575V112.675H604V112.575H602ZM602 116.7V116.8H604V116.7H602ZM602 120.825V120.925H604V120.825H602ZM602 124.95V125H604V124.95H602Z" fill="#F03100"/>
<path d="M589 143L617 143" stroke="#58DA95" stroke-linejoin="round"/>
<path d="M601 137L607 143L601 149" stroke="#58DA95" stroke-linecap="square" stroke-linejoin="round"/>
<path d="M646.152 144.339C645.711 145.806 644.653 146.58 643.217 146.58C641.055 146.58 639.73 145.065 639.73 142.445C639.73 139.778 641.134 138.31 643.233 138.31C644.637 138.31 645.584 138.973 646.073 140.299L647.762 139.573C647.036 137.742 645.426 136.717 643.17 136.717C640.014 136.717 637.946 138.91 637.946 142.445C637.946 145.98 639.998 148.174 643.201 148.174C645.395 148.174 647.21 147.053 647.92 144.923L646.152 144.339ZM652.783 139.952C650.463 139.952 648.838 141.482 648.838 144.055C648.838 146.627 650.463 148.158 652.783 148.158C655.087 148.158 656.728 146.627 656.728 144.055C656.728 141.482 655.087 139.952 652.783 139.952ZM652.783 141.356C654.172 141.356 655.008 142.319 655.008 144.055C655.008 145.791 654.172 146.753 652.783 146.753C651.394 146.753 650.558 145.791 650.558 144.055C650.558 142.319 651.394 141.356 652.783 141.356ZM662.618 139.952C661.482 139.952 660.519 140.425 659.983 141.435L659.92 140.109H658.42V148H660.109V143.802C660.109 142.066 661.214 141.419 662.239 141.419C663.202 141.419 663.944 141.924 663.944 143.408V148H665.632V142.919C665.632 140.914 664.307 139.952 662.618 139.952ZM670.679 148.158C672.715 148.158 673.914 147.132 673.914 145.601C673.914 144.591 673.346 143.865 671.847 143.566L669.969 143.187C669.196 143.029 668.975 142.698 668.975 142.303C668.975 141.703 669.511 141.34 670.521 141.34C671.373 141.34 672.226 141.751 672.794 142.508L673.851 141.388C673.078 140.457 672.036 139.952 670.521 139.952C668.501 139.952 667.302 141.072 667.302 142.429C667.302 143.55 667.949 144.355 669.622 144.67L671.279 145.002C672.02 145.144 672.21 145.443 672.21 145.806C672.21 146.39 671.657 146.753 670.789 146.753C669.559 146.753 668.643 146.185 667.949 145.396L666.907 146.58C667.807 147.653 669.101 148.158 670.679 148.158ZM678.197 148.158C679.46 148.158 680.391 147.716 680.927 146.738L681.006 148H682.505V140.109H680.817V144.37C680.817 145.996 679.791 146.69 678.734 146.69C677.629 146.69 676.998 146.248 676.998 144.875V140.109H675.309V145.317C675.309 147.321 676.635 148.158 678.197 148.158ZM686.4 148V143.802C686.4 142.098 687.505 141.419 688.452 141.419C689.383 141.419 690.077 141.924 690.077 143.187V148H691.766V143.723C691.766 142.224 692.713 141.419 693.817 141.419C694.749 141.419 695.443 141.924 695.443 143.187V148H697.131V142.871C697.131 140.883 695.743 139.952 694.212 139.952C693.17 139.952 691.987 140.425 691.498 141.498C691.008 140.457 689.967 139.952 688.846 139.952C687.805 139.952 686.858 140.394 686.29 141.372L686.211 140.109H684.712V148H686.4ZM706.267 143.55C706.267 141.514 704.925 139.952 702.637 139.952C700.349 139.952 698.739 141.482 698.739 144.071C698.739 146.627 700.349 148.158 702.7 148.158C704.294 148.158 705.557 147.448 706.109 146.28L704.752 145.601C704.373 146.28 703.773 146.753 702.716 146.753C701.359 146.753 700.522 145.901 700.412 144.481H706.204C706.235 144.244 706.267 143.929 706.267 143.55ZM700.459 143.25C700.664 142.003 701.453 141.34 702.605 141.34C703.773 141.34 704.515 142.003 704.547 143.25H700.459ZM709.61 148V143.881C709.61 142.319 710.62 141.561 711.629 141.561C712.024 141.561 712.261 141.609 712.482 141.656L712.671 140.062C712.466 139.983 712.166 139.952 711.929 139.952C710.714 139.952 709.909 140.567 709.515 141.482L709.42 140.109H707.921V148H709.61Z" fill="#102B2D"/>
<defs>
<clipPath id="clip0_2_15">
<rect width="43.5" height="14" fill="white" transform="translate(425.5 248)"/>
</clipPath>
<clipPath id="clip1_2_15">
<rect width="116" height="81" fill="white" transform="translate(469 181)"/>
</clipPath>
</defs>
</svg>
