<svg width="784" height="285" viewBox="0 0 784 285" fill="none" xmlns="http://www.w3.org/2000/svg">
<rect width="784" height="285" fill="white"/>
<path d="M143.401 34.9712C144.294 37.2392 142.854 39.7203 140.44 40.0596C131.522 41.3135 122.478 41.3135 113.56 40.0596C111.146 39.7203 109.706 37.2392 110.599 34.9713C113.992 26.3578 118.504 18.226 123.999 10.8407C125.504 8.81667 128.496 8.81668 130.001 10.8407C135.496 18.226 140.008 26.3578 143.401 34.9712Z" fill="#F03100"/>
<path d="M123.46 33H120.928L125.537 19.9091H128.465L133.08 33H130.548L127.052 22.5938H126.95L123.46 33ZM123.543 27.8672H130.446V29.772H123.543V27.8672Z" fill="white"/>
<path d="M128 44C128 43.4477 127.552 43 127 43C126.448 43 126 43.4477 126 44H128ZM126 89C126 89.5523 126.448 90 127 90C127.552 90 128 89.5523 128 89H126ZM126 44.0499C126 44.6022 126.448 45.0499 127 45.0499C127.552 45.0499 128 44.6022 128 44.0499H126ZM128 48.041C128 47.4887 127.552 47.041 127 47.041C126.448 47.041 126 47.4887 126 48.041H128ZM126 48.1408C126 48.6931 126.448 49.1408 127 49.1408C127.552 49.1408 128 48.6931 128 48.1408H126ZM128 52.1319C128 51.5796 127.552 51.1319 127 51.1319C126.448 51.1319 126 51.5796 126 52.1319H128ZM126 52.2317C126 52.784 126.448 53.2317 127 53.2317C127.552 53.2317 128 52.784 128 52.2317H126ZM128 56.2228C128 55.6706 127.552 55.2228 127 55.2228C126.448 55.2228 126 55.6706 126 56.2228H128ZM126 56.3226C126 56.8749 126.448 57.3226 127 57.3226C127.552 57.3226 128 56.8749 128 56.3226H126ZM128 60.3137C128 59.7615 127.552 59.3137 127 59.3137C126.448 59.3137 126 59.7615 126 60.3137H128ZM126 60.4135C126 60.9658 126.448 61.4135 127 61.4135C127.552 61.4135 128 60.9658 128 60.4135H126ZM128 64.4047C128 63.8524 127.552 63.4047 127 63.4047C126.448 63.4047 126 63.8524 126 64.4047H128ZM126 64.5044C126 65.0567 126.448 65.5044 127 65.5044C127.552 65.5044 128 65.0567 128 64.5044H126ZM128 68.4956C128 67.9433 127.552 67.4956 127 67.4956C126.448 67.4956 126 67.9433 126 68.4956H128ZM126 68.5953C126 69.1476 126.448 69.5953 127 69.5953C127.552 69.5953 128 69.1476 128 68.5953H126ZM128 72.5865C128 72.0342 127.552 71.5865 127 71.5865C126.448 71.5865 126 72.0342 126 72.5865H128ZM126 72.6863C126 73.2385 126.448 73.6863 127 73.6863C127.552 73.6863 128 73.2385 128 72.6863H126ZM128 76.6774C128 76.1251 127.552 75.6774 127 75.6774C126.448 75.6774 126 76.1251 126 76.6774H128ZM126 76.7772C126 77.3295 126.448 77.7772 127 77.7772C127.552 77.7772 128 77.3295 128 76.7772H126ZM128 80.7683C128 80.216 127.552 79.7683 127 79.7683C126.448 79.7683 126 80.216 126 80.7683H128ZM126 80.8681C126 81.4204 126.448 81.8681 127 81.8681C127.552 81.8681 128 81.4204 128 80.8681H126ZM128 84.8592C128 84.3069 127.552 83.8592 127 83.8592C126.448 83.8592 126 84.3069 126 84.8592H128ZM126 84.959C126 85.5113 126.448 85.959 127 85.959C127.552 85.959 128 85.5113 128 84.959H126ZM128 88.9501C128 88.3978 127.552 87.9501 127 87.9501C126.448 87.9501 126 88.3978 126 88.9501H128ZM126 44V44.0499H128V44H126ZM126 48.041V48.1408H128V48.041H126ZM126 52.1319V52.2317H128V52.1319H126ZM126 56.2228V56.3226H128V56.2228H126ZM126 60.3137V60.4135H128V60.3137H126ZM126 64.4047V64.5044H128V64.4047H126ZM126 68.4956V68.5953H128V68.4956H126ZM126 72.5865V72.6863H128V72.5865H126ZM126 76.6774V76.7772H128V76.6774H126ZM126 80.7683V80.8681H128V80.7683H126ZM126 84.8592V84.959H128V84.8592H126ZM126 88.9501V89H128V88.9501H126Z" fill="#F03100"/>
<path d="M230.401 34.9712C231.294 37.2392 229.854 39.7203 227.44 40.0596C218.522 41.3135 209.478 41.3135 200.56 40.0596C198.146 39.7203 196.706 37.2392 197.599 34.9713C200.992 26.3578 205.504 18.226 210.999 10.8407C212.504 8.81667 215.496 8.81668 217.001 10.8407C222.496 18.226 227.008 26.3578 230.401 34.9712Z" fill="#F03100"/>
<path d="M209.376 33V19.9091H214.388C215.334 19.9091 216.12 20.0582 216.746 20.3565C217.377 20.6506 217.848 21.0533 218.159 21.5646C218.474 22.076 218.632 22.6555 218.632 23.3033C218.632 23.8359 218.53 24.2919 218.325 24.6712C218.12 25.0462 217.846 25.3509 217.5 25.5852C217.155 25.8196 216.77 25.9879 216.343 26.0902V26.218C216.808 26.2436 217.253 26.3864 217.679 26.6463C218.11 26.902 218.461 27.2642 218.734 27.733C219.007 28.2017 219.143 28.7685 219.143 29.4332C219.143 30.1108 218.979 30.7202 218.651 31.2614C218.323 31.7983 217.829 32.2223 217.168 32.5334C216.508 32.8445 215.677 33 214.675 33H209.376ZM211.748 31.0185H214.298C215.159 31.0185 215.779 30.8544 216.158 30.5263C216.542 30.1939 216.733 29.7678 216.733 29.2479C216.733 28.8601 216.638 28.5107 216.446 28.1996C216.254 27.8842 215.981 27.6371 215.628 27.4581C215.274 27.2749 214.852 27.1832 214.362 27.1832H211.748V31.0185ZM211.748 25.4766H214.093C214.503 25.4766 214.871 25.402 215.199 25.2528C215.527 25.0994 215.785 24.8842 215.973 24.6072C216.165 24.326 216.26 23.9936 216.26 23.6101C216.26 23.103 216.081 22.6854 215.723 22.3572C215.37 22.0291 214.843 21.8651 214.145 21.8651H211.748V25.4766Z" fill="white"/>
<path d="M215 44C215 43.4477 214.552 43 214 43C213.448 43 213 43.4477 213 44H215ZM213 65C213 65.5523 213.448 66 214 66C214.552 66 215 65.5523 215 65H213ZM213 44.0512C213 44.6035 213.448 45.0512 214 45.0512C214.552 45.0512 215 44.6035 215 44.0512H213ZM215 48.1488C215 47.5965 214.552 47.1488 214 47.1488C213.448 47.1488 213 47.5965 213 48.1488H215ZM213 48.2512C213 48.8035 213.448 49.2512 214 49.2512C214.552 49.2512 215 48.8035 215 48.2512H213ZM215 52.3488C215 51.7965 214.552 51.3488 214 51.3488C213.448 51.3488 213 51.7965 213 52.3488H215ZM213 52.4512C213 53.0035 213.448 53.4512 214 53.4512C214.552 53.4512 215 53.0035 215 52.4512H213ZM215 56.5488C215 55.9965 214.552 55.5488 214 55.5488C213.448 55.5488 213 55.9965 213 56.5488H215ZM213 56.6512C213 57.2035 213.448 57.6512 214 57.6512C214.552 57.6512 215 57.2035 215 56.6512H213ZM215 60.7488C215 60.1965 214.552 59.7488 214 59.7488C213.448 59.7488 213 60.1965 213 60.7488H215ZM213 60.8512C213 61.4035 213.448 61.8512 214 61.8512C214.552 61.8512 215 61.4035 215 60.8512H213ZM215 64.9488C215 64.3965 214.552 63.9488 214 63.9488C213.448 63.9488 213 64.3965 213 64.9488H215ZM213 44V44.0512H215V44H213ZM213 48.1488V48.2512H215V48.1488H213ZM213 52.3488V52.4512H215V52.3488H213ZM213 56.5488V56.6512H215V56.5488H213ZM213 60.7488V60.8512H215V60.7488H213ZM213 64.9488V65H215V64.9488H213Z" fill="#F03100"/>
<path d="M326.401 34.9712C327.294 37.2392 325.854 39.7203 323.44 40.0596C314.522 41.3135 305.478 41.3135 296.56 40.0596C294.146 39.7203 292.706 37.2392 293.599 34.9713C296.992 26.3578 301.504 18.226 306.999 10.8407C308.504 8.81667 311.496 8.81668 313.001 10.8407C318.496 18.226 323.008 26.3578 326.401 34.9712Z" fill="#F03100"/>
<path d="M315.808 24.326H313.417C313.349 23.9339 313.223 23.5866 313.04 23.2841C312.857 22.9773 312.629 22.7173 312.356 22.5043C312.084 22.2912 311.772 22.1314 311.423 22.0249C311.078 21.9141 310.705 21.8587 310.304 21.8587C309.593 21.8587 308.962 22.0376 308.412 22.3956C307.863 22.7493 307.432 23.2692 307.121 23.9553C306.81 24.6371 306.655 25.4702 306.655 26.4545C306.655 27.456 306.81 28.2997 307.121 28.9858C307.437 29.6676 307.867 30.1832 308.412 30.5327C308.962 30.8778 309.591 31.0504 310.298 31.0504C310.69 31.0504 311.057 30.9993 311.397 30.897C311.743 30.7905 312.052 30.6349 312.324 30.4304C312.601 30.2259 312.834 29.9744 313.021 29.6761C313.213 29.3778 313.345 29.0369 313.417 28.6534L315.808 28.6662C315.718 29.2884 315.525 29.8722 315.226 30.4176C314.932 30.9631 314.547 31.4446 314.069 31.8622C313.592 32.2756 313.034 32.5994 312.395 32.8338C311.755 33.0639 311.046 33.179 310.266 33.179C309.116 33.179 308.089 32.9126 307.185 32.38C306.282 31.8473 305.57 31.0781 305.05 30.0724C304.53 29.0668 304.27 27.8608 304.27 26.4545C304.27 25.044 304.532 23.8381 305.057 22.8366C305.581 21.831 306.294 21.0618 307.198 20.5291C308.101 19.9964 309.124 19.7301 310.266 19.7301C310.995 19.7301 311.672 19.8324 312.299 20.0369C312.925 20.2415 313.483 20.5419 313.973 20.9382C314.464 21.3303 314.866 21.8118 315.182 22.3828C315.501 22.9496 315.71 23.5973 315.808 24.326Z" fill="white"/>
<path d="M311 44C311 43.4477 310.552 43 310 43C309.448 43 309 43.4477 309 44H311ZM309 89C309 89.5523 309.448 90 310 90C310.552 90 311 89.5523 311 89H309ZM309 44.0499C309 44.6022 309.448 45.0499 310 45.0499C310.552 45.0499 311 44.6022 311 44.0499H309ZM311 48.041C311 47.4887 310.552 47.041 310 47.041C309.448 47.041 309 47.4887 309 48.041H311ZM309 48.1408C309 48.6931 309.448 49.1408 310 49.1408C310.552 49.1408 311 48.6931 311 48.1408H309ZM311 52.1319C311 51.5796 310.552 51.1319 310 51.1319C309.448 51.1319 309 51.5796 309 52.1319H311ZM309 52.2317C309 52.784 309.448 53.2317 310 53.2317C310.552 53.2317 311 52.784 311 52.2317H309ZM311 56.2228C311 55.6706 310.552 55.2228 310 55.2228C309.448 55.2228 309 55.6706 309 56.2228H311ZM309 56.3226C309 56.8749 309.448 57.3226 310 57.3226C310.552 57.3226 311 56.8749 311 56.3226H309ZM311 60.3137C311 59.7615 310.552 59.3137 310 59.3137C309.448 59.3137 309 59.7615 309 60.3137H311ZM309 60.4135C309 60.9658 309.448 61.4135 310 61.4135C310.552 61.4135 311 60.9658 311 60.4135H309ZM311 64.4047C311 63.8524 310.552 63.4047 310 63.4047C309.448 63.4047 309 63.8524 309 64.4047H311ZM309 64.5044C309 65.0567 309.448 65.5044 310 65.5044C310.552 65.5044 311 65.0567 311 64.5044H309ZM311 68.4956C311 67.9433 310.552 67.4956 310 67.4956C309.448 67.4956 309 67.9433 309 68.4956H311ZM309 68.5953C309 69.1476 309.448 69.5953 310 69.5953C310.552 69.5953 311 69.1476 311 68.5953H309ZM311 72.5865C311 72.0342 310.552 71.5865 310 71.5865C309.448 71.5865 309 72.0342 309 72.5865H311ZM309 72.6863C309 73.2385 309.448 73.6863 310 73.6863C310.552 73.6863 311 73.2385 311 72.6863H309ZM311 76.6774C311 76.1251 310.552 75.6774 310 75.6774C309.448 75.6774 309 76.1251 309 76.6774H311ZM309 76.7772C309 77.3295 309.448 77.7772 310 77.7772C310.552 77.7772 311 77.3295 311 76.7772H309ZM311 80.7683C311 80.216 310.552 79.7683 310 79.7683C309.448 79.7683 309 80.216 309 80.7683H311ZM309 80.8681C309 81.4204 309.448 81.8681 310 81.8681C310.552 81.8681 311 81.4204 311 80.8681H309ZM311 84.8592C311 84.3069 310.552 83.8592 310 83.8592C309.448 83.8592 309 84.3069 309 84.8592H311ZM309 84.959C309 85.5113 309.448 85.959 310 85.959C310.552 85.959 311 85.5113 311 84.959H309ZM311 88.9501C311 88.3978 310.552 87.9501 310 87.9501C309.448 87.9501 309 88.3978 309 88.9501H311ZM309 44V44.0499H311V44H309ZM309 48.041V48.1408H311V48.041H309ZM309 52.1319V52.2317H311V52.1319H309ZM309 56.2228V56.3226H311V56.2228H309ZM309 60.3137V60.4135H311V60.3137H309ZM309 64.4047V64.5044H311V64.4047H309ZM309 68.4956V68.5953H311V68.4956H309ZM309 72.5865V72.6863H311V72.5865H309ZM309 76.6774V76.7772H311V76.6774H309ZM309 80.7683V80.8681H311V80.7683H309ZM309 84.8592V84.959H311V84.8592H309ZM309 88.9501V89H311V88.9501H309Z" fill="#F03100"/>
<path d="M408.401 34.9712C409.294 37.2392 407.854 39.7203 405.44 40.0596C396.522 41.3135 387.478 41.3135 378.56 40.0596C376.146 39.7203 374.706 37.2392 375.599 34.9713C378.992 26.3578 383.504 18.226 388.999 10.8407C390.504 8.81667 393.496 8.81668 395.001 10.8407C400.496 18.226 405.008 26.3578 408.401 34.9712Z" fill="#F03100"/>
<path d="M391.206 33H386.77V19.9091H391.295C392.595 19.9091 393.711 20.1712 394.645 20.6953C395.582 21.2152 396.302 21.9631 396.805 22.9389C397.308 23.9148 397.559 25.0824 397.559 26.4418C397.559 27.8054 397.306 28.9773 396.799 29.9574C396.296 30.9375 395.569 31.6896 394.619 32.2138C393.673 32.7379 392.535 33 391.206 33ZM389.141 30.9482H391.091C392.003 30.9482 392.763 30.782 393.373 30.4496C393.982 30.1129 394.44 29.6122 394.747 28.9474C395.054 28.2784 395.207 27.4432 395.207 26.4418C395.207 25.4403 395.054 24.6094 394.747 23.9489C394.44 23.2841 393.986 22.7876 393.385 22.4595C392.789 22.1271 392.047 21.9609 391.161 21.9609H389.141V30.9482Z" fill="white"/>
<path d="M393 44C393 43.4477 392.552 43 392 43C391.448 43 391 43.4477 391 44H393ZM391 65C391 65.5523 391.448 66 392 66C392.552 66 393 65.5523 393 65H391ZM391 44.0512C391 44.6035 391.448 45.0512 392 45.0512C392.552 45.0512 393 44.6035 393 44.0512H391ZM393 48.1488C393 47.5965 392.552 47.1488 392 47.1488C391.448 47.1488 391 47.5965 391 48.1488H393ZM391 48.2512C391 48.8035 391.448 49.2512 392 49.2512C392.552 49.2512 393 48.8035 393 48.2512H391ZM393 52.3488C393 51.7965 392.552 51.3488 392 51.3488C391.448 51.3488 391 51.7965 391 52.3488H393ZM391 52.4512C391 53.0035 391.448 53.4512 392 53.4512C392.552 53.4512 393 53.0035 393 52.4512H391ZM393 56.5488C393 55.9965 392.552 55.5488 392 55.5488C391.448 55.5488 391 55.9965 391 56.5488H393ZM391 56.6512C391 57.2035 391.448 57.6512 392 57.6512C392.552 57.6512 393 57.2035 393 56.6512H391ZM393 60.7488C393 60.1965 392.552 59.7488 392 59.7488C391.448 59.7488 391 60.1965 391 60.7488H393ZM391 60.8512C391 61.4035 391.448 61.8512 392 61.8512C392.552 61.8512 393 61.4035 393 60.8512H391ZM393 64.9488C393 64.3965 392.552 63.9488 392 63.9488C391.448 63.9488 391 64.3965 391 64.9488H393ZM391 44V44.0512H393V44H391ZM391 48.1488V48.2512H393V48.1488H391ZM391 52.3488V52.4512H393V52.3488H391ZM391 56.5488V56.6512H393V56.5488H391ZM391 60.7488V60.8512H393V60.7488H391ZM391 64.9488V65H393V64.9488H391Z" fill="#F03100"/>
<path d="M490.401 34.9712C491.294 37.2392 489.854 39.7203 487.44 40.0596C478.522 41.3135 469.478 41.3135 460.56 40.0596C458.146 39.7203 456.706 37.2392 457.599 34.9713C460.992 26.3578 465.504 18.226 470.999 10.8407C472.504 8.81667 475.496 8.81668 477.001 10.8407C482.496 18.226 487.008 26.3578 490.401 34.9712Z" fill="#F03100"/>
<path d="M470.018 33V19.9091H478.404V21.897H472.389V25.451H477.829V27.4389H472.389V33H470.018Z" fill="white"/>
<path d="M475 44C475 43.4477 474.552 43 474 43C473.448 43 473 43.4477 473 44H475ZM473 89C473 89.5523 473.448 90 474 90C474.552 90 475 89.5523 475 89H473ZM473 44.0499C473 44.6022 473.448 45.0499 474 45.0499C474.552 45.0499 475 44.6022 475 44.0499H473ZM475 48.041C475 47.4887 474.552 47.041 474 47.041C473.448 47.041 473 47.4887 473 48.041H475ZM473 48.1408C473 48.6931 473.448 49.1408 474 49.1408C474.552 49.1408 475 48.6931 475 48.1408H473ZM475 52.1319C475 51.5796 474.552 51.1319 474 51.1319C473.448 51.1319 473 51.5796 473 52.1319H475ZM473 52.2317C473 52.784 473.448 53.2317 474 53.2317C474.552 53.2317 475 52.784 475 52.2317H473ZM475 56.2228C475 55.6706 474.552 55.2228 474 55.2228C473.448 55.2228 473 55.6706 473 56.2228H475ZM473 56.3226C473 56.8749 473.448 57.3226 474 57.3226C474.552 57.3226 475 56.8749 475 56.3226H473ZM475 60.3137C475 59.7615 474.552 59.3137 474 59.3137C473.448 59.3137 473 59.7615 473 60.3137H475ZM473 60.4135C473 60.9658 473.448 61.4135 474 61.4135C474.552 61.4135 475 60.9658 475 60.4135H473ZM475 64.4047C475 63.8524 474.552 63.4047 474 63.4047C473.448 63.4047 473 63.8524 473 64.4047H475ZM473 64.5044C473 65.0567 473.448 65.5044 474 65.5044C474.552 65.5044 475 65.0567 475 64.5044H473ZM475 68.4956C475 67.9433 474.552 67.4956 474 67.4956C473.448 67.4956 473 67.9433 473 68.4956H475ZM473 68.5953C473 69.1476 473.448 69.5953 474 69.5953C474.552 69.5953 475 69.1476 475 68.5953H473ZM475 72.5865C475 72.0342 474.552 71.5865 474 71.5865C473.448 71.5865 473 72.0342 473 72.5865H475ZM473 72.6863C473 73.2385 473.448 73.6863 474 73.6863C474.552 73.6863 475 73.2385 475 72.6863H473ZM475 76.6774C475 76.1251 474.552 75.6774 474 75.6774C473.448 75.6774 473 76.1251 473 76.6774H475ZM473 76.7772C473 77.3295 473.448 77.7772 474 77.7772C474.552 77.7772 475 77.3295 475 76.7772H473ZM475 80.7683C475 80.216 474.552 79.7683 474 79.7683C473.448 79.7683 473 80.216 473 80.7683H475ZM473 80.8681C473 81.4204 473.448 81.8681 474 81.8681C474.552 81.8681 475 81.4204 475 80.8681H473ZM475 84.8592C475 84.3069 474.552 83.8592 474 83.8592C473.448 83.8592 473 84.3069 473 84.8592H475ZM473 84.959C473 85.5113 473.448 85.959 474 85.959C474.552 85.959 475 85.5113 475 84.959H473ZM475 88.9501C475 88.3978 474.552 87.9501 474 87.9501C473.448 87.9501 473 88.3978 473 88.9501H475ZM473 44V44.0499H475V44H473ZM473 48.041V48.1408H475V48.041H473ZM473 52.1319V52.2317H475V52.1319H473ZM473 56.2228V56.3226H475V56.2228H473ZM473 60.3137V60.4135H475V60.3137H473ZM473 64.4047V64.5044H475V64.4047H473ZM473 68.4956V68.5953H475V68.4956H473ZM473 72.5865V72.6863H475V72.5865H473ZM473 76.6774V76.7772H475V76.6774H473ZM473 80.7683V80.8681H475V80.7683H473ZM473 84.8592V84.959H475V84.8592H473ZM473 88.9501V89H475V88.9501H473Z" fill="#F03100"/>
<path d="M586.401 34.9712C587.294 37.2392 585.854 39.7203 583.44 40.0596C574.522 41.3135 565.478 41.3135 556.56 40.0596C554.146 39.7203 552.706 37.2392 553.599 34.9713C556.992 26.3578 561.504 18.226 566.999 10.8407C568.504 8.81667 571.496 8.81668 573.001 10.8407C578.496 18.226 583.008 26.3578 586.401 34.9712Z" fill="#F03100"/>
<path d="M573.267 24.0895C573.161 23.7443 573.014 23.4354 572.826 23.1626C572.643 22.8857 572.421 22.6491 572.161 22.4531C571.906 22.2571 571.612 22.1101 571.279 22.0121C570.947 21.9098 570.585 21.8587 570.193 21.8587C569.489 21.8587 568.863 22.0355 568.313 22.3892C567.764 22.7429 567.331 23.2628 567.016 23.9489C566.705 24.6307 566.549 25.4616 566.549 26.4418C566.549 27.4304 566.705 28.2678 567.016 28.9538C567.327 29.6399 567.759 30.1619 568.313 30.5199C568.867 30.8736 569.511 31.0504 570.244 31.0504C570.908 31.0504 571.484 30.9226 571.97 30.6669C572.46 30.4112 572.837 30.049 573.101 29.5803C573.365 29.1072 573.497 28.5533 573.497 27.9183L574.034 28.0014H570.48V26.1477H575.792V27.7202C575.792 28.8409 575.553 29.8104 575.076 30.6286C574.599 31.4467 573.943 32.0774 573.107 32.5206C572.272 32.9595 571.313 33.179 570.231 33.179C569.025 33.179 567.966 32.9084 567.054 32.3672C566.146 31.8217 565.437 31.0483 564.926 30.0469C564.418 29.0412 564.165 27.848 564.165 26.4673C564.165 25.4105 564.314 24.4666 564.612 23.6357C564.915 22.8047 565.337 22.0994 565.878 21.5199C566.419 20.9361 567.054 20.4929 567.783 20.1903C568.511 19.8835 569.304 19.7301 570.161 19.7301C570.885 19.7301 571.56 19.8366 572.187 20.0497C572.813 20.2585 573.369 20.5568 573.855 20.9446C574.345 21.3324 574.748 21.7926 575.063 22.3253C575.379 22.858 575.585 23.446 575.683 24.0895H573.267Z" fill="white"/>
<path d="M571 44C571 43.4477 570.552 43 570 43C569.448 43 569 43.4477 569 44H571ZM569 65C569 65.5523 569.448 66 570 66C570.552 66 571 65.5523 571 65H569ZM569 44.0512C569 44.6035 569.448 45.0512 570 45.0512C570.552 45.0512 571 44.6035 571 44.0512H569ZM571 48.1488C571 47.5965 570.552 47.1488 570 47.1488C569.448 47.1488 569 47.5965 569 48.1488H571ZM569 48.2512C569 48.8035 569.448 49.2512 570 49.2512C570.552 49.2512 571 48.8035 571 48.2512H569ZM571 52.3488C571 51.7965 570.552 51.3488 570 51.3488C569.448 51.3488 569 51.7965 569 52.3488H571ZM569 52.4512C569 53.0035 569.448 53.4512 570 53.4512C570.552 53.4512 571 53.0035 571 52.4512H569ZM571 56.5488C571 55.9965 570.552 55.5488 570 55.5488C569.448 55.5488 569 55.9965 569 56.5488H571ZM569 56.6512C569 57.2035 569.448 57.6512 570 57.6512C570.552 57.6512 571 57.2035 571 56.6512H569ZM571 60.7488C571 60.1965 570.552 59.7488 570 59.7488C569.448 59.7488 569 60.1965 569 60.7488H571ZM569 60.8512C569 61.4035 569.448 61.8512 570 61.8512C570.552 61.8512 571 61.4035 571 60.8512H569ZM571 64.9488C571 64.3965 570.552 63.9488 570 63.9488C569.448 63.9488 569 64.3965 569 64.9488H571ZM569 44V44.0512H571V44H569ZM569 48.1488V48.2512H571V48.1488H569ZM569 52.3488V52.4512H571V52.3488H569ZM569 56.5488V56.6512H571V56.5488H569ZM569 60.7488V60.8512H571V60.7488H569ZM569 64.9488V65H571V64.9488H569Z" fill="#F03100"/>
<path d="M673.401 34.9712C674.294 37.2392 672.854 39.7203 670.44 40.0596C661.522 41.3135 652.478 41.3135 643.56 40.0596C641.146 39.7203 639.706 37.2392 640.599 34.9713C643.992 26.3578 648.504 18.226 653.999 10.8407C655.504 8.81667 658.496 8.81668 660.001 10.8407C665.496 18.226 670.008 26.3578 673.401 34.9712Z" fill="#F03100"/>
<path d="M651.594 33V19.9091H653.965V25.451H660.031V19.9091H662.409V33H660.031V27.4389H653.965V33H651.594Z" fill="white"/>
<path d="M658 44C658 43.4477 657.552 43 657 43C656.448 43 656 43.4477 656 44H658ZM656 89C656 89.5523 656.448 90 657 90C657.552 90 658 89.5523 658 89H656ZM656 44.0499C656 44.6022 656.448 45.0499 657 45.0499C657.552 45.0499 658 44.6022 658 44.0499H656ZM658 48.041C658 47.4887 657.552 47.041 657 47.041C656.448 47.041 656 47.4887 656 48.041H658ZM656 48.1408C656 48.6931 656.448 49.1408 657 49.1408C657.552 49.1408 658 48.6931 658 48.1408H656ZM658 52.1319C658 51.5796 657.552 51.1319 657 51.1319C656.448 51.1319 656 51.5796 656 52.1319H658ZM656 52.2317C656 52.784 656.448 53.2317 657 53.2317C657.552 53.2317 658 52.784 658 52.2317H656ZM658 56.2228C658 55.6706 657.552 55.2228 657 55.2228C656.448 55.2228 656 55.6706 656 56.2228H658ZM656 56.3226C656 56.8749 656.448 57.3226 657 57.3226C657.552 57.3226 658 56.8749 658 56.3226H656ZM658 60.3137C658 59.7615 657.552 59.3137 657 59.3137C656.448 59.3137 656 59.7615 656 60.3137H658ZM656 60.4135C656 60.9658 656.448 61.4135 657 61.4135C657.552 61.4135 658 60.9658 658 60.4135H656ZM658 64.4047C658 63.8524 657.552 63.4047 657 63.4047C656.448 63.4047 656 63.8524 656 64.4047H658ZM656 64.5044C656 65.0567 656.448 65.5044 657 65.5044C657.552 65.5044 658 65.0567 658 64.5044H656ZM658 68.4956C658 67.9433 657.552 67.4956 657 67.4956C656.448 67.4956 656 67.9433 656 68.4956H658ZM656 68.5953C656 69.1476 656.448 69.5953 657 69.5953C657.552 69.5953 658 69.1476 658 68.5953H656ZM658 72.5865C658 72.0342 657.552 71.5865 657 71.5865C656.448 71.5865 656 72.0342 656 72.5865H658ZM656 72.6863C656 73.2385 656.448 73.6863 657 73.6863C657.552 73.6863 658 73.2385 658 72.6863H656ZM658 76.6774C658 76.1251 657.552 75.6774 657 75.6774C656.448 75.6774 656 76.1251 656 76.6774H658ZM656 76.7772C656 77.3295 656.448 77.7772 657 77.7772C657.552 77.7772 658 77.3295 658 76.7772H656ZM658 80.7683C658 80.216 657.552 79.7683 657 79.7683C656.448 79.7683 656 80.216 656 80.7683H658ZM656 80.8681C656 81.4204 656.448 81.8681 657 81.8681C657.552 81.8681 658 81.4204 658 80.8681H656ZM658 84.8592C658 84.3069 657.552 83.8592 657 83.8592C656.448 83.8592 656 84.3069 656 84.8592H658ZM656 84.959C656 85.5113 656.448 85.959 657 85.959C657.552 85.959 658 85.5113 658 84.959H656ZM658 88.9501C658 88.3978 657.552 87.9501 657 87.9501C656.448 87.9501 656 88.3978 656 88.9501H658ZM656 44V44.0499H658V44H656ZM656 48.041V48.1408H658V48.041H656ZM656 52.1319V52.2317H658V52.1319H656ZM656 56.2228V56.3226H658V56.2228H656ZM656 60.3137V60.4135H658V60.3137H656ZM656 64.4047V64.5044H658V64.4047H656ZM656 68.4956V68.5953H658V68.4956H656ZM656 72.5865V72.6863H658V72.5865H656ZM656 76.6774V76.7772H658V76.6774H656ZM656 80.7683V80.8681H658V80.7683H656ZM656 84.8592V84.959H658V84.8592H656ZM656 88.9501V89H658V88.9501H656Z" fill="#F03100"/>
<path d="M331.401 181.471C332.294 183.739 330.854 186.22 328.44 186.56C319.522 187.813 310.478 187.813 301.56 186.56C299.146 186.22 297.706 183.739 298.599 181.471C301.992 172.858 306.504 164.726 311.999 157.341C313.504 155.317 316.496 155.317 318.001 157.341C323.496 164.726 328.008 172.858 331.401 181.471Z" fill="#F03100"/>
<path d="M310.824 179.5V166.409H319.339V168.397H313.196V171.951H318.898V173.939H313.196V177.512H319.39V179.5H310.824Z" fill="white"/>
<path d="M374 173C374.552 173 375 172.552 375 172C375 171.448 374.552 171 374 171V173ZM331 171C330.448 171 330 171.448 330 172C330 172.552 330.448 173 331 173V171ZM373.948 171C373.395 171 372.948 171.448 372.948 172C372.948 172.552 373.395 173 373.948 173V171ZM369.752 173C370.305 173 370.752 172.552 370.752 172C370.752 171.448 370.305 171 369.752 171V173ZM369.648 171C369.095 171 368.648 171.448 368.648 172C368.648 172.552 369.095 173 369.648 173V171ZM365.452 173C366.005 173 366.452 172.552 366.452 172C366.452 171.448 366.005 171 365.452 171V173ZM365.348 171C364.795 171 364.348 171.448 364.348 172C364.348 172.552 364.795 173 365.348 173V171ZM361.152 173C361.705 173 362.152 172.552 362.152 172C362.152 171.448 361.705 171 361.152 171V173ZM361.048 171C360.495 171 360.048 171.448 360.048 172C360.048 172.552 360.495 173 361.048 173V171ZM356.852 173C357.405 173 357.852 172.552 357.852 172C357.852 171.448 357.405 171 356.852 171V173ZM356.748 171C356.195 171 355.748 171.448 355.748 172C355.748 172.552 356.195 173 356.748 173V171ZM352.552 173C353.105 173 353.552 172.552 353.552 172C353.552 171.448 353.105 171 352.552 171V173ZM352.448 171C351.895 171 351.448 171.448 351.448 172C351.448 172.552 351.895 173 352.448 173V171ZM348.252 173C348.805 173 349.252 172.552 349.252 172C349.252 171.448 348.805 171 348.252 171V173ZM348.148 171C347.595 171 347.148 171.448 347.148 172C347.148 172.552 347.595 173 348.148 173V171ZM343.952 173C344.505 173 344.952 172.552 344.952 172C344.952 171.448 344.505 171 343.952 171V173ZM343.848 171C343.295 171 342.848 171.448 342.848 172C342.848 172.552 343.295 173 343.848 173V171ZM339.652 173C340.205 173 340.652 172.552 340.652 172C340.652 171.448 340.205 171 339.652 171V173ZM339.548 171C338.995 171 338.548 171.448 338.548 172C338.548 172.552 338.995 173 339.548 173V171ZM335.352 173C335.905 173 336.352 172.552 336.352 172C336.352 171.448 335.905 171 335.352 171V173ZM335.248 171C334.695 171 334.248 171.448 334.248 172C334.248 172.552 334.695 173 335.248 173V171ZM331.052 173C331.605 173 332.052 172.552 332.052 172C332.052 171.448 331.605 171 331.052 171V173ZM374 171H373.948V173H374V171ZM369.752 171H369.648V173H369.752V171ZM365.452 171H365.348V173H365.452V171ZM361.152 171H361.048V173H361.152V171ZM356.852 171H356.748V173H356.852V171ZM352.552 171H352.448V173H352.552V171ZM348.252 171H348.148V173H348.252V171ZM343.952 171H343.848V173H343.952V171ZM339.652 171H339.548V173H339.652V171ZM335.352 171H335.248V173H335.352V171ZM331.052 171H331V173H331.052V171Z" fill="#F03100"/>
<path d="M15.108 112.5H11.3409V100.864H15.2273C16.3674 100.864 17.3466 101.097 18.1648 101.562C18.983 102.025 19.6098 102.689 20.0455 103.557C20.4848 104.42 20.7045 105.456 20.7045 106.665C20.7045 107.877 20.483 108.919 20.0398 109.79C19.6004 110.661 18.964 111.331 18.1307 111.801C17.2973 112.267 16.2898 112.5 15.108 112.5ZM13.0966 110.966H15.0114C15.8977 110.966 16.6345 110.799 17.2216 110.466C17.8087 110.129 18.2481 109.642 18.5398 109.006C18.8314 108.366 18.9773 107.585 18.9773 106.665C18.9773 105.752 18.8314 104.977 18.5398 104.341C18.2519 103.705 17.822 103.222 17.25 102.892C16.678 102.562 15.9678 102.398 15.1193 102.398H13.0966V110.966ZM26.5128 112.676C25.6529 112.676 24.9124 112.492 24.2912 112.125C23.6738 111.754 23.1965 111.233 22.8594 110.562C22.526 109.888 22.3594 109.098 22.3594 108.193C22.3594 107.299 22.526 106.511 22.8594 105.83C23.1965 105.148 23.6662 104.616 24.2685 104.233C24.8745 103.85 25.5829 103.659 26.3935 103.659C26.8859 103.659 27.3632 103.741 27.8253 103.903C28.2874 104.066 28.7022 104.322 29.0696 104.67C29.437 105.019 29.7268 105.472 29.9389 106.028C30.151 106.581 30.2571 107.254 30.2571 108.045V108.648H23.3196V107.375H28.5923C28.5923 106.928 28.5014 106.532 28.3196 106.188C28.1378 105.839 27.8821 105.564 27.5526 105.364C27.2268 105.163 26.8442 105.062 26.4048 105.062C25.9276 105.062 25.5109 105.18 25.1548 105.415C24.8026 105.646 24.5298 105.949 24.3366 106.324C24.1473 106.695 24.0526 107.098 24.0526 107.534V108.528C24.0526 109.112 24.1548 109.608 24.3594 110.017C24.5677 110.426 24.8575 110.739 25.2287 110.955C25.5999 111.167 26.0336 111.273 26.5298 111.273C26.8518 111.273 27.1454 111.227 27.4105 111.136C27.6757 111.042 27.9048 110.902 28.098 110.716C28.2912 110.53 28.4389 110.301 28.5412 110.028L30.1491 110.318C30.0204 110.792 29.7893 111.206 29.456 111.562C29.1264 111.915 28.7116 112.189 28.2116 112.386C27.7154 112.58 27.1491 112.676 26.5128 112.676ZM39.358 103.773L36.1932 112.5H34.375L31.2045 103.773H33.0284L35.2386 110.489H35.3295L37.5341 103.773H39.358ZM44.419 112.676C43.5592 112.676 42.8187 112.492 42.1974 112.125C41.58 111.754 41.1027 111.233 40.7656 110.562C40.4323 109.888 40.2656 109.098 40.2656 108.193C40.2656 107.299 40.4323 106.511 40.7656 105.83C41.1027 105.148 41.5724 104.616 42.1747 104.233C42.7808 103.85 43.4891 103.659 44.2997 103.659C44.7921 103.659 45.2694 103.741 45.7315 103.903C46.1937 104.066 46.6084 104.322 46.9759 104.67C47.3433 105.019 47.633 105.472 47.8452 106.028C48.0573 106.581 48.1634 107.254 48.1634 108.045V108.648H41.2259V107.375H46.4986C46.4986 106.928 46.4077 106.532 46.2259 106.188C46.044 105.839 45.7884 105.564 45.4588 105.364C45.133 105.163 44.7505 105.062 44.3111 105.062C43.8338 105.062 43.4171 105.18 43.0611 105.415C42.7088 105.646 42.4361 105.949 42.2429 106.324C42.0535 106.695 41.9588 107.098 41.9588 107.534V108.528C41.9588 109.112 42.0611 109.608 42.2656 110.017C42.474 110.426 42.7637 110.739 43.1349 110.955C43.5062 111.167 43.9399 111.273 44.4361 111.273C44.758 111.273 45.0516 111.227 45.3168 111.136C45.5819 111.042 45.8111 110.902 46.0043 110.716C46.1974 110.53 46.3452 110.301 46.4474 110.028L48.0554 110.318C47.9266 110.792 47.6955 111.206 47.3622 111.562C47.0327 111.915 46.6179 112.189 46.1179 112.386C45.6217 112.58 45.0554 112.676 44.419 112.676ZM51.7472 100.864V112.5H50.0483V100.864H51.7472ZM57.7088 112.676C56.8906 112.676 56.1766 112.489 55.5668 112.114C54.9569 111.739 54.4834 111.214 54.1463 110.54C53.8092 109.866 53.6406 109.078 53.6406 108.176C53.6406 107.271 53.8092 106.479 54.1463 105.801C54.4834 105.123 54.9569 104.597 55.5668 104.222C56.1766 103.847 56.8906 103.659 57.7088 103.659C58.527 103.659 59.241 103.847 59.8509 104.222C60.4607 104.597 60.9342 105.123 61.2713 105.801C61.6084 106.479 61.777 107.271 61.777 108.176C61.777 109.078 61.6084 109.866 61.2713 110.54C60.9342 111.214 60.4607 111.739 59.8509 112.114C59.241 112.489 58.527 112.676 57.7088 112.676ZM57.7145 111.25C58.2448 111.25 58.6842 111.11 59.0327 110.83C59.3812 110.549 59.6387 110.176 59.8054 109.71C59.9759 109.244 60.0611 108.731 60.0611 108.17C60.0611 107.614 59.9759 107.102 59.8054 106.636C59.6387 106.167 59.3812 105.79 59.0327 105.506C58.6842 105.222 58.2448 105.08 57.7145 105.08C57.1804 105.08 56.7372 105.222 56.3849 105.506C56.0365 105.79 55.777 106.167 55.6065 106.636C55.4399 107.102 55.3565 107.614 55.3565 108.17C55.3565 108.731 55.4399 109.244 55.6065 109.71C55.777 110.176 56.0365 110.549 56.3849 110.83C56.7372 111.11 57.1804 111.25 57.7145 111.25ZM63.6733 115.773V103.773H65.3324V105.188H65.4744C65.5729 105.006 65.715 104.795 65.9006 104.557C66.0862 104.318 66.3438 104.11 66.6733 103.932C67.0028 103.75 67.4384 103.659 67.9801 103.659C68.6847 103.659 69.3134 103.837 69.8665 104.193C70.4195 104.549 70.8532 105.062 71.1676 105.733C71.4858 106.403 71.6449 107.21 71.6449 108.153C71.6449 109.097 71.4877 109.905 71.1733 110.58C70.8589 111.25 70.4271 111.767 69.8778 112.131C69.3286 112.491 68.7017 112.67 67.9972 112.67C67.4669 112.67 67.0331 112.581 66.696 112.403C66.3627 112.225 66.1013 112.017 65.9119 111.778C65.7225 111.54 65.5767 111.328 65.4744 111.142H65.3722V115.773H63.6733ZM65.3381 108.136C65.3381 108.75 65.4271 109.288 65.6051 109.75C65.7831 110.212 66.0407 110.574 66.3778 110.835C66.715 111.093 67.1278 111.222 67.6165 111.222C68.1241 111.222 68.5483 111.087 68.8892 110.818C69.2301 110.545 69.4877 110.176 69.6619 109.71C69.84 109.244 69.929 108.72 69.929 108.136C69.929 107.561 69.8419 107.044 69.6676 106.585C69.4972 106.127 69.2396 105.765 68.8949 105.5C68.554 105.235 68.1278 105.102 67.6165 105.102C67.1241 105.102 66.7074 105.229 66.3665 105.483C66.0294 105.737 65.7737 106.091 65.5994 106.545C65.4252 107 65.3381 107.53 65.3381 108.136ZM77.3097 112.676C76.4498 112.676 75.7093 112.492 75.0881 112.125C74.4706 111.754 73.9934 111.233 73.6562 110.562C73.3229 109.888 73.1562 109.098 73.1562 108.193C73.1562 107.299 73.3229 106.511 73.6562 105.83C73.9934 105.148 74.4631 104.616 75.0653 104.233C75.6714 103.85 76.3797 103.659 77.1903 103.659C77.6828 103.659 78.16 103.741 78.6222 103.903C79.0843 104.066 79.4991 104.322 79.8665 104.67C80.2339 105.019 80.5237 105.472 80.7358 106.028C80.9479 106.581 81.054 107.254 81.054 108.045V108.648H74.1165V107.375H79.3892C79.3892 106.928 79.2983 106.532 79.1165 106.188C78.9347 105.839 78.679 105.564 78.3494 105.364C78.0237 105.163 77.6411 105.062 77.2017 105.062C76.7244 105.062 76.3078 105.18 75.9517 105.415C75.5994 105.646 75.3267 105.949 75.1335 106.324C74.9441 106.695 74.8494 107.098 74.8494 107.534V108.528C74.8494 109.112 74.9517 109.608 75.1562 110.017C75.3646 110.426 75.6544 110.739 76.0256 110.955C76.3968 111.167 76.8305 111.273 77.3267 111.273C77.6487 111.273 77.9422 111.227 78.2074 111.136C78.4725 111.042 78.7017 110.902 78.8949 110.716C79.0881 110.53 79.2358 110.301 79.3381 110.028L80.946 110.318C80.8172 110.792 80.5862 111.206 80.2528 111.562C79.9233 111.915 79.5085 112.189 79.0085 112.386C78.5123 112.58 77.946 112.676 77.3097 112.676ZM82.9389 112.5V103.773H84.581V105.159H84.6719C84.831 104.689 85.1113 104.32 85.5128 104.051C85.9181 103.778 86.3764 103.642 86.8878 103.642C86.9938 103.642 87.1188 103.646 87.2628 103.653C87.4105 103.661 87.526 103.67 87.6094 103.682V105.307C87.5412 105.288 87.42 105.267 87.2457 105.244C87.0715 105.218 86.8973 105.205 86.723 105.205C86.3215 105.205 85.9635 105.29 85.6491 105.46C85.3385 105.627 85.0923 105.86 84.9105 106.159C84.7287 106.455 84.6378 106.792 84.6378 107.17V112.5H82.9389Z" fill="#102B2D"/>
<path d="M104 107L150 107" stroke="#10C800" stroke-linejoin="round"/>
<path d="M125 101L131 107L125 113" stroke="#10C800" stroke-linecap="square" stroke-linejoin="round"/>
<path d="M194.19 105.062C194.137 104.566 193.914 104.18 193.52 103.903C193.13 103.627 192.622 103.489 191.997 103.489C191.558 103.489 191.181 103.555 190.866 103.688C190.552 103.82 190.312 104 190.145 104.227C189.978 104.455 189.893 104.714 189.889 105.006C189.889 105.248 189.944 105.458 190.054 105.636C190.168 105.814 190.321 105.966 190.514 106.091C190.707 106.212 190.921 106.314 191.156 106.398C191.391 106.481 191.628 106.551 191.866 106.608L192.957 106.881C193.397 106.983 193.819 107.121 194.224 107.295C194.634 107.47 194.999 107.689 195.321 107.955C195.647 108.22 195.904 108.54 196.094 108.915C196.283 109.29 196.378 109.729 196.378 110.233C196.378 110.915 196.204 111.515 195.855 112.034C195.507 112.549 195.003 112.953 194.344 113.244C193.688 113.532 192.895 113.676 191.963 113.676C191.058 113.676 190.272 113.536 189.605 113.256C188.942 112.975 188.423 112.566 188.048 112.028C187.677 111.491 187.476 110.835 187.446 110.062H189.52C189.55 110.468 189.675 110.805 189.895 111.074C190.115 111.343 190.401 111.544 190.753 111.676C191.109 111.809 191.507 111.875 191.946 111.875C192.404 111.875 192.806 111.807 193.151 111.67C193.499 111.53 193.772 111.337 193.969 111.091C194.166 110.841 194.266 110.549 194.27 110.216C194.266 109.913 194.177 109.663 194.003 109.466C193.829 109.265 193.584 109.098 193.27 108.966C192.959 108.83 192.596 108.708 192.179 108.602L190.855 108.261C189.897 108.015 189.139 107.642 188.582 107.142C188.029 106.638 187.753 105.97 187.753 105.136C187.753 104.451 187.938 103.85 188.31 103.335C188.685 102.82 189.194 102.42 189.838 102.136C190.482 101.848 191.211 101.705 192.026 101.705C192.851 101.705 193.575 101.848 194.196 102.136C194.821 102.42 195.312 102.816 195.668 103.324C196.024 103.828 196.207 104.407 196.219 105.062H194.19ZM201.973 113.67C201.121 113.67 200.382 113.483 199.757 113.108C199.132 112.733 198.647 112.208 198.303 111.534C197.962 110.86 197.791 110.072 197.791 109.17C197.791 108.269 197.962 107.479 198.303 106.801C198.647 106.123 199.132 105.597 199.757 105.222C200.382 104.847 201.121 104.659 201.973 104.659C202.825 104.659 203.564 104.847 204.189 105.222C204.814 105.597 205.297 106.123 205.638 106.801C205.982 107.479 206.155 108.269 206.155 109.17C206.155 110.072 205.982 110.86 205.638 111.534C205.297 112.208 204.814 112.733 204.189 113.108C203.564 113.483 202.825 113.67 201.973 113.67ZM201.984 112.023C202.446 112.023 202.833 111.896 203.143 111.642C203.454 111.384 203.685 111.04 203.837 110.608C203.992 110.176 204.07 109.695 204.07 109.165C204.07 108.631 203.992 108.148 203.837 107.716C203.685 107.28 203.454 106.934 203.143 106.676C202.833 106.419 202.446 106.29 201.984 106.29C201.511 106.29 201.117 106.419 200.803 106.676C200.492 106.934 200.259 107.28 200.104 107.716C199.952 108.148 199.876 108.631 199.876 109.165C199.876 109.695 199.952 110.176 200.104 110.608C200.259 111.04 200.492 111.384 200.803 111.642C201.117 111.896 201.511 112.023 201.984 112.023ZM213.463 109.83V104.773H215.52V113.5H213.526V111.949H213.435C213.238 112.437 212.914 112.837 212.463 113.148C212.016 113.458 211.465 113.614 210.81 113.614C210.238 113.614 209.732 113.487 209.293 113.233C208.857 112.975 208.516 112.602 208.27 112.114C208.024 111.621 207.901 111.027 207.901 110.33V104.773H209.957V110.011C209.957 110.564 210.109 111.004 210.412 111.33C210.715 111.655 211.113 111.818 211.605 111.818C211.908 111.818 212.202 111.744 212.486 111.597C212.77 111.449 213.003 111.229 213.185 110.938C213.37 110.642 213.463 110.273 213.463 109.83ZM217.635 113.5V104.773H219.629V106.227H219.72C219.879 105.723 220.152 105.335 220.538 105.062C220.929 104.786 221.374 104.648 221.874 104.648C221.987 104.648 222.114 104.653 222.254 104.665C222.398 104.672 222.518 104.686 222.612 104.705V106.597C222.525 106.566 222.387 106.54 222.197 106.517C222.012 106.491 221.832 106.477 221.658 106.477C221.283 106.477 220.946 106.559 220.646 106.722C220.351 106.881 220.118 107.102 219.947 107.386C219.777 107.67 219.692 107.998 219.692 108.369V113.5H217.635ZM227.426 113.67C226.555 113.67 225.807 113.479 225.182 113.097C224.561 112.714 224.081 112.186 223.744 111.511C223.411 110.833 223.244 110.053 223.244 109.17C223.244 108.284 223.415 107.502 223.756 106.824C224.097 106.142 224.578 105.612 225.199 105.233C225.824 104.85 226.563 104.659 227.415 104.659C228.123 104.659 228.75 104.79 229.295 105.051C229.845 105.309 230.282 105.674 230.608 106.148C230.934 106.617 231.119 107.167 231.165 107.795H229.199C229.119 107.375 228.93 107.025 228.631 106.744C228.335 106.46 227.939 106.318 227.443 106.318C227.023 106.318 226.653 106.432 226.335 106.659C226.017 106.883 225.769 107.205 225.591 107.625C225.417 108.045 225.33 108.549 225.33 109.136C225.33 109.731 225.417 110.242 225.591 110.67C225.765 111.095 226.009 111.422 226.324 111.653C226.642 111.881 227.015 111.994 227.443 111.994C227.746 111.994 228.017 111.937 228.256 111.824C228.498 111.706 228.701 111.538 228.864 111.318C229.027 111.098 229.138 110.831 229.199 110.517H231.165C231.116 111.134 230.934 111.682 230.619 112.159C230.305 112.633 229.877 113.004 229.335 113.273C228.794 113.538 228.157 113.67 227.426 113.67ZM236.717 113.67C235.842 113.67 235.087 113.489 234.45 113.125C233.818 112.758 233.331 112.239 232.99 111.568C232.649 110.894 232.479 110.1 232.479 109.188C232.479 108.29 232.649 107.502 232.99 106.824C233.335 106.142 233.816 105.612 234.433 105.233C235.051 104.85 235.776 104.659 236.609 104.659C237.147 104.659 237.655 104.746 238.132 104.92C238.613 105.091 239.037 105.356 239.405 105.716C239.776 106.076 240.068 106.534 240.28 107.091C240.492 107.644 240.598 108.303 240.598 109.068V109.699H233.445V108.312H238.626C238.623 107.919 238.537 107.568 238.371 107.261C238.204 106.951 237.971 106.706 237.672 106.528C237.376 106.35 237.032 106.261 236.638 106.261C236.217 106.261 235.848 106.364 235.53 106.568C235.212 106.769 234.964 107.034 234.786 107.364C234.611 107.689 234.522 108.047 234.518 108.438V109.648C234.518 110.155 234.611 110.591 234.797 110.955C234.982 111.314 235.242 111.591 235.575 111.784C235.909 111.973 236.299 112.068 236.746 112.068C237.045 112.068 237.316 112.027 237.558 111.943C237.801 111.856 238.011 111.729 238.189 111.562C238.367 111.396 238.501 111.189 238.592 110.943L240.513 111.159C240.392 111.667 240.161 112.11 239.82 112.489C239.482 112.864 239.051 113.155 238.524 113.364C237.998 113.568 237.395 113.67 236.717 113.67Z" fill="#102B2D"/>
<rect x="155" y="70" width="118" height="74" rx="7" stroke="#58DA95" stroke-width="2"/>
<path d="M278 107L342 107" stroke="#10C800" stroke-linejoin="round"/>
<path d="M308 101L314 107L308 113" stroke="#10C800" stroke-linecap="square" stroke-linejoin="round"/>
<mask id="path-32-inside-1_2_425" fill="white">
<path fill-rule="evenodd" clip-rule="evenodd" d="M346.345 109.071C351.164 122.828 359.776 134.884 371.149 143.798C372.234 144.648 373.575 145.082 374.944 145.082H408.643H409.643V145.004C410.655 144.844 411.619 144.44 412.438 143.798C423.811 134.884 432.423 122.828 437.242 109.071C437.702 107.758 437.702 106.324 437.242 105.012C432.423 91.2547 423.811 79.1981 412.438 70.2845C411.619 69.6428 410.655 69.2382 409.643 69.0782V69H408.643H374.944C373.575 69 372.234 69.4341 371.149 70.2845C359.776 79.1981 351.164 91.2547 346.345 105.012C345.885 106.324 345.885 107.758 346.345 109.071Z"/>
</mask>
<path d="M371.149 143.798L372.383 142.224L372.383 142.224L371.149 143.798ZM346.345 109.071L348.232 108.409V108.409L346.345 109.071ZM409.643 145.082V147.082H411.643V145.082H409.643ZM409.643 145.004L409.33 143.029L407.643 143.295V145.004H409.643ZM412.438 143.798L411.204 142.224V142.224L412.438 143.798ZM437.242 109.071L435.355 108.409V108.409L437.242 109.071ZM437.242 105.012L435.355 105.673V105.673L437.242 105.012ZM412.438 70.2845L413.671 68.7103V68.7103L412.438 70.2845ZM409.643 69.0782H407.643V70.787L409.33 71.0537L409.643 69.0782ZM409.643 69H411.643V67H409.643V69ZM371.149 70.2845L372.383 71.8586V71.8586L371.149 70.2845ZM346.345 105.012L348.232 105.673L348.232 105.673L346.345 105.012ZM372.383 142.224C361.313 133.548 352.927 121.809 348.232 108.409L344.457 109.732C349.402 123.846 358.239 136.221 369.916 145.372L372.383 142.224ZM374.944 143.082C373.995 143.082 373.095 142.782 372.383 142.224L369.916 145.372C371.373 146.514 373.154 147.082 374.944 147.082V143.082ZM408.643 143.082H374.944V147.082H408.643V143.082ZM409.643 143.082H408.643V147.082H409.643V143.082ZM407.643 145.004V145.082H411.643V145.004H407.643ZM409.955 146.98C411.287 146.769 412.572 146.234 413.671 145.372L411.204 142.224C410.666 142.645 410.023 142.919 409.33 143.029L409.955 146.98ZM413.671 145.372C425.348 136.221 434.185 123.846 439.13 109.732L435.355 108.409C430.66 121.809 422.274 133.548 411.204 142.224L413.671 145.372ZM439.13 109.732C439.739 107.991 439.739 106.091 439.13 104.35L435.355 105.673C435.664 106.557 435.664 107.525 435.355 108.409L439.13 109.732ZM439.13 104.35C434.185 90.2363 425.348 77.8618 413.671 68.7103L411.204 71.8586C422.274 80.5344 430.66 92.2731 435.355 105.673L439.13 104.35ZM413.671 68.7103C412.572 67.8488 411.287 67.3133 409.955 67.1027L409.33 71.0537C410.023 71.1631 410.666 71.4369 411.204 71.8586L413.671 68.7103ZM407.643 69V69.0782H411.643V69H407.643ZM408.643 71H409.643V67H408.643V71ZM374.944 71H408.643V67H374.944V71ZM372.383 71.8586C373.095 71.3004 373.995 71 374.944 71V67C373.154 67 371.373 67.5679 369.916 68.7103L372.383 71.8586ZM348.232 105.673C352.927 92.2731 361.313 80.5344 372.383 71.8586L369.916 68.7103C358.239 77.8618 349.402 90.2363 344.457 104.35L348.232 105.673ZM348.232 108.409C347.923 107.525 347.923 106.557 348.232 105.673L344.457 104.35C343.848 106.091 343.848 107.991 344.457 109.732L348.232 108.409Z" fill="#58DA95" mask="url(#path-32-inside-1_2_425)"/>
<path d="M374.312 114V102.364H378.766C379.607 102.364 380.306 102.496 380.863 102.761C381.424 103.023 381.842 103.381 382.119 103.835C382.399 104.29 382.539 104.805 382.539 105.381C382.539 105.854 382.448 106.259 382.266 106.597C382.085 106.93 381.84 107.201 381.533 107.409C381.227 107.617 380.884 107.767 380.505 107.858V107.972C380.918 107.994 381.314 108.121 381.692 108.352C382.075 108.58 382.388 108.902 382.63 109.318C382.872 109.735 382.994 110.239 382.994 110.83C382.994 111.432 382.848 111.973 382.556 112.455C382.264 112.932 381.825 113.309 381.238 113.585C380.651 113.862 379.912 114 379.022 114H374.312ZM376.42 112.239H378.687C379.452 112.239 380.003 112.093 380.34 111.801C380.681 111.506 380.852 111.127 380.852 110.665C380.852 110.32 380.766 110.009 380.596 109.733C380.425 109.453 380.183 109.233 379.869 109.074C379.554 108.911 379.179 108.83 378.744 108.83H376.42V112.239ZM376.42 107.312H378.505C378.869 107.312 379.196 107.246 379.488 107.114C379.78 106.977 380.009 106.786 380.175 106.54C380.346 106.29 380.431 105.994 380.431 105.653C380.431 105.203 380.272 104.831 379.954 104.54C379.639 104.248 379.172 104.102 378.55 104.102H376.42V107.312ZM390.299 110.33V105.273H392.356V114H390.362V112.449H390.271C390.074 112.937 389.75 113.337 389.299 113.648C388.852 113.958 388.301 114.114 387.646 114.114C387.074 114.114 386.568 113.987 386.129 113.733C385.693 113.475 385.352 113.102 385.106 112.614C384.86 112.121 384.737 111.527 384.737 110.83V105.273H386.793V110.511C386.793 111.064 386.945 111.504 387.248 111.83C387.551 112.155 387.949 112.318 388.441 112.318C388.744 112.318 389.038 112.244 389.322 112.097C389.606 111.949 389.839 111.729 390.021 111.438C390.206 111.142 390.299 110.773 390.299 110.33ZM394.471 114V105.273H396.528V114H394.471ZM395.505 104.034C395.179 104.034 394.899 103.926 394.664 103.71C394.429 103.491 394.312 103.227 394.312 102.92C394.312 102.61 394.429 102.347 394.664 102.131C394.899 101.911 395.179 101.801 395.505 101.801C395.835 101.801 396.115 101.911 396.346 102.131C396.581 102.347 396.698 102.61 396.698 102.92C396.698 103.227 396.581 103.491 396.346 103.71C396.115 103.926 395.835 104.034 395.505 104.034ZM400.7 102.364V114H398.643V102.364H400.7ZM406.053 114.153C405.368 114.153 404.754 113.977 404.212 113.625C403.671 113.273 403.243 112.761 402.928 112.091C402.614 111.42 402.457 110.606 402.457 109.648C402.457 108.678 402.616 107.86 402.934 107.193C403.256 106.523 403.69 106.017 404.235 105.676C404.781 105.331 405.388 105.159 406.059 105.159C406.57 105.159 406.991 105.246 407.32 105.42C407.65 105.591 407.911 105.797 408.104 106.04C408.298 106.278 408.447 106.504 408.553 106.716H408.638V102.364H410.701V114H408.678V112.625H408.553C408.447 112.837 408.294 113.062 408.093 113.301C407.892 113.536 407.627 113.737 407.298 113.903C406.968 114.07 406.553 114.153 406.053 114.153ZM406.627 112.466C407.063 112.466 407.434 112.348 407.741 112.114C408.048 111.875 408.281 111.544 408.44 111.119C408.599 110.695 408.678 110.201 408.678 109.636C408.678 109.072 408.599 108.581 408.44 108.165C408.284 107.748 408.053 107.424 407.746 107.193C407.443 106.962 407.07 106.847 406.627 106.847C406.169 106.847 405.786 106.966 405.479 107.205C405.173 107.443 404.942 107.773 404.786 108.193C404.631 108.614 404.553 109.095 404.553 109.636C404.553 110.182 404.631 110.669 404.786 111.097C404.945 111.521 405.178 111.856 405.485 112.102C405.796 112.345 406.176 112.466 406.627 112.466Z" fill="#102B2D"/>
<path d="M442 107L506 107" stroke="#10C800" stroke-linejoin="round"/>
<path d="M472 101L478 107L472 113" stroke="#10C800" stroke-linecap="square" stroke-linejoin="round"/>
<path d="M537.476 112V100.364H541.839C542.733 100.364 543.483 100.53 544.089 100.864C544.699 101.197 545.16 101.655 545.47 102.239C545.785 102.818 545.942 103.477 545.942 104.216C545.942 104.962 545.785 105.625 545.47 106.205C545.156 106.784 544.692 107.241 544.078 107.574C543.464 107.903 542.709 108.068 541.811 108.068H538.919V106.335H541.527C542.05 106.335 542.478 106.244 542.811 106.062C543.144 105.881 543.391 105.631 543.55 105.312C543.713 104.994 543.794 104.629 543.794 104.216C543.794 103.803 543.713 103.439 543.55 103.125C543.391 102.811 543.143 102.566 542.805 102.392C542.472 102.214 542.042 102.125 541.516 102.125H539.584V112H537.476ZM550.037 112.176C549.484 112.176 548.986 112.078 548.543 111.881C548.103 111.68 547.755 111.384 547.497 110.994C547.243 110.604 547.116 110.123 547.116 109.551C547.116 109.059 547.207 108.652 547.389 108.33C547.571 108.008 547.819 107.75 548.134 107.557C548.448 107.364 548.802 107.218 549.196 107.119C549.594 107.017 550.005 106.943 550.429 106.898C550.94 106.845 551.355 106.797 551.673 106.756C551.991 106.71 552.223 106.642 552.366 106.551C552.514 106.456 552.588 106.311 552.588 106.114V106.08C552.588 105.652 552.461 105.32 552.207 105.085C551.954 104.85 551.588 104.733 551.111 104.733C550.607 104.733 550.207 104.843 549.912 105.062C549.62 105.282 549.423 105.542 549.321 105.841L547.401 105.568C547.552 105.038 547.802 104.595 548.151 104.239C548.499 103.879 548.925 103.61 549.429 103.432C549.933 103.25 550.49 103.159 551.099 103.159C551.52 103.159 551.938 103.208 552.355 103.307C552.772 103.405 553.152 103.568 553.497 103.795C553.842 104.019 554.118 104.324 554.327 104.71C554.539 105.097 554.645 105.58 554.645 106.159V112H552.668V110.801H552.599C552.474 111.044 552.298 111.271 552.071 111.483C551.848 111.691 551.565 111.86 551.224 111.989C550.887 112.114 550.491 112.176 550.037 112.176ZM550.571 110.665C550.984 110.665 551.342 110.583 551.645 110.42C551.948 110.254 552.181 110.034 552.344 109.761C552.51 109.489 552.594 109.191 552.594 108.869V107.841C552.529 107.894 552.42 107.943 552.264 107.989C552.113 108.034 551.942 108.074 551.753 108.108C551.563 108.142 551.376 108.172 551.19 108.199C551.005 108.225 550.844 108.248 550.707 108.267C550.401 108.309 550.126 108.377 549.884 108.472C549.641 108.566 549.45 108.699 549.31 108.869C549.17 109.036 549.099 109.252 549.099 109.517C549.099 109.896 549.238 110.182 549.514 110.375C549.791 110.568 550.143 110.665 550.571 110.665ZM560.52 112.17C559.649 112.17 558.901 111.979 558.276 111.597C557.654 111.214 557.175 110.686 556.838 110.011C556.505 109.333 556.338 108.553 556.338 107.67C556.338 106.784 556.509 106.002 556.849 105.324C557.19 104.642 557.671 104.112 558.293 103.733C558.918 103.35 559.656 103.159 560.509 103.159C561.217 103.159 561.844 103.29 562.389 103.551C562.938 103.809 563.376 104.174 563.702 104.648C564.027 105.117 564.213 105.667 564.259 106.295H562.293C562.213 105.875 562.024 105.525 561.724 105.244C561.429 104.96 561.033 104.818 560.537 104.818C560.116 104.818 559.747 104.932 559.429 105.159C559.111 105.383 558.863 105.705 558.685 106.125C558.51 106.545 558.423 107.049 558.423 107.636C558.423 108.231 558.51 108.742 558.685 109.17C558.859 109.595 559.103 109.922 559.418 110.153C559.736 110.381 560.109 110.494 560.537 110.494C560.84 110.494 561.111 110.437 561.349 110.324C561.592 110.206 561.795 110.038 561.957 109.818C562.12 109.598 562.232 109.331 562.293 109.017H564.259C564.209 109.634 564.027 110.182 563.713 110.659C563.399 111.133 562.971 111.504 562.429 111.773C561.887 112.038 561.251 112.17 560.52 112.17ZM567.822 109.261L567.817 106.778H568.146L571.283 103.273H573.686L569.828 107.568H569.402L567.822 109.261ZM565.947 112V100.364H568.004V112H565.947ZM571.425 112L568.584 108.028L569.97 106.58L573.885 112H571.425ZM577.568 112.176C577.015 112.176 576.517 112.078 576.074 111.881C575.634 111.68 575.286 111.384 575.028 110.994C574.775 110.604 574.648 110.123 574.648 109.551C574.648 109.059 574.739 108.652 574.92 108.33C575.102 108.008 575.35 107.75 575.665 107.557C575.979 107.364 576.333 107.218 576.727 107.119C577.125 107.017 577.536 106.943 577.96 106.898C578.472 106.845 578.886 106.797 579.205 106.756C579.523 106.71 579.754 106.642 579.898 106.551C580.045 106.456 580.119 106.311 580.119 106.114V106.08C580.119 105.652 579.992 105.32 579.739 105.085C579.485 104.85 579.119 104.733 578.642 104.733C578.138 104.733 577.739 104.843 577.443 105.062C577.152 105.282 576.955 105.542 576.852 105.841L574.932 105.568C575.083 105.038 575.333 104.595 575.682 104.239C576.03 103.879 576.456 103.61 576.96 103.432C577.464 103.25 578.021 103.159 578.631 103.159C579.051 103.159 579.47 103.208 579.886 103.307C580.303 103.405 580.684 103.568 581.028 103.795C581.373 104.019 581.65 104.324 581.858 104.71C582.07 105.097 582.176 105.58 582.176 106.159V112H580.199V110.801H580.131C580.006 111.044 579.83 111.271 579.602 111.483C579.379 111.691 579.097 111.86 578.756 111.989C578.419 112.114 578.023 112.176 577.568 112.176ZM578.102 110.665C578.515 110.665 578.873 110.583 579.176 110.42C579.479 110.254 579.712 110.034 579.875 109.761C580.042 109.489 580.125 109.191 580.125 108.869V107.841C580.061 107.894 579.951 107.943 579.795 107.989C579.644 108.034 579.473 108.074 579.284 108.108C579.095 108.142 578.907 108.172 578.722 108.199C578.536 108.225 578.375 108.248 578.239 108.267C577.932 108.309 577.657 108.377 577.415 108.472C577.172 108.566 576.981 108.699 576.841 108.869C576.701 109.036 576.631 109.252 576.631 109.517C576.631 109.896 576.769 110.182 577.045 110.375C577.322 110.568 577.674 110.665 578.102 110.665ZM588.04 115.455C587.301 115.455 586.667 115.354 586.136 115.153C585.606 114.956 585.18 114.691 584.858 114.358C584.536 114.025 584.312 113.655 584.188 113.25L586.04 112.801C586.123 112.972 586.244 113.14 586.403 113.307C586.563 113.477 586.777 113.617 587.045 113.727C587.318 113.841 587.661 113.898 588.074 113.898C588.657 113.898 589.14 113.756 589.523 113.472C589.905 113.191 590.097 112.729 590.097 112.085V110.432H589.994C589.888 110.644 589.733 110.862 589.528 111.085C589.328 111.309 589.061 111.496 588.727 111.648C588.398 111.799 587.983 111.875 587.483 111.875C586.812 111.875 586.205 111.718 585.659 111.403C585.117 111.085 584.686 110.612 584.364 109.983C584.045 109.35 583.886 108.559 583.886 107.608C583.886 106.65 584.045 105.841 584.364 105.182C584.686 104.519 585.119 104.017 585.665 103.676C586.21 103.331 586.818 103.159 587.489 103.159C588 103.159 588.42 103.246 588.75 103.42C589.083 103.591 589.348 103.797 589.545 104.04C589.742 104.278 589.892 104.504 589.994 104.716H590.108V103.273H592.136V112.142C592.136 112.888 591.958 113.506 591.602 113.994C591.246 114.483 590.759 114.848 590.142 115.091C589.525 115.333 588.824 115.455 588.04 115.455ZM588.057 110.261C588.492 110.261 588.864 110.155 589.17 109.943C589.477 109.731 589.71 109.426 589.869 109.028C590.028 108.631 590.108 108.153 590.108 107.597C590.108 107.047 590.028 106.566 589.869 106.153C589.714 105.741 589.483 105.42 589.176 105.193C588.873 104.962 588.5 104.847 588.057 104.847C587.598 104.847 587.216 104.966 586.909 105.205C586.602 105.443 586.371 105.771 586.216 106.188C586.061 106.6 585.983 107.07 585.983 107.597C585.983 108.131 586.061 108.598 586.216 109C586.375 109.398 586.608 109.708 586.915 109.932C587.225 110.152 587.606 110.261 588.057 110.261ZM598.108 112.17C597.233 112.17 596.477 111.989 595.841 111.625C595.208 111.258 594.722 110.739 594.381 110.068C594.04 109.394 593.869 108.6 593.869 107.688C593.869 106.79 594.04 106.002 594.381 105.324C594.725 104.642 595.206 104.112 595.824 103.733C596.441 103.35 597.167 103.159 598 103.159C598.538 103.159 599.045 103.246 599.523 103.42C600.004 103.591 600.428 103.856 600.795 104.216C601.167 104.576 601.458 105.034 601.67 105.591C601.883 106.144 601.989 106.803 601.989 107.568V108.199H594.835V106.812H600.017C600.013 106.419 599.928 106.068 599.761 105.761C599.595 105.451 599.362 105.206 599.062 105.028C598.767 104.85 598.422 104.761 598.028 104.761C597.608 104.761 597.239 104.864 596.92 105.068C596.602 105.269 596.354 105.534 596.176 105.864C596.002 106.189 595.913 106.547 595.909 106.938V108.148C595.909 108.655 596.002 109.091 596.188 109.455C596.373 109.814 596.633 110.091 596.966 110.284C597.299 110.473 597.689 110.568 598.136 110.568C598.436 110.568 598.706 110.527 598.949 110.443C599.191 110.356 599.402 110.229 599.58 110.062C599.758 109.896 599.892 109.689 599.983 109.443L601.903 109.659C601.782 110.167 601.551 110.61 601.21 110.989C600.873 111.364 600.441 111.655 599.915 111.864C599.388 112.068 598.786 112.17 598.108 112.17Z" fill="#102B2D"/>
<rect x="511" y="70" width="118" height="74" rx="7" stroke="#58DA95" stroke-width="2"/>
<path d="M634 107L680 107" stroke="#10C800" stroke-linejoin="round"/>
<path d="M655 101L661 107L655 113" stroke="#10C800" stroke-linecap="square" stroke-linejoin="round"/>
<path d="M706.076 104.648H704.303C704.235 104.269 704.108 103.936 703.923 103.648C703.737 103.36 703.51 103.116 703.241 102.915C702.972 102.714 702.671 102.562 702.337 102.46C702.008 102.358 701.657 102.307 701.286 102.307C700.616 102.307 700.015 102.475 699.485 102.812C698.959 103.15 698.542 103.644 698.235 104.295C697.932 104.947 697.781 105.742 697.781 106.682C697.781 107.629 697.932 108.428 698.235 109.08C698.542 109.731 698.96 110.223 699.491 110.557C700.021 110.89 700.618 111.057 701.281 111.057C701.648 111.057 701.996 111.008 702.326 110.909C702.659 110.807 702.96 110.657 703.229 110.46C703.498 110.263 703.726 110.023 703.911 109.739C704.101 109.451 704.231 109.121 704.303 108.75L706.076 108.756C705.981 109.328 705.798 109.854 705.525 110.335C705.256 110.812 704.909 111.225 704.485 111.574C704.065 111.919 703.584 112.186 703.042 112.375C702.5 112.564 701.909 112.659 701.269 112.659C700.262 112.659 699.364 112.42 698.576 111.943C697.788 111.462 697.167 110.775 696.712 109.881C696.262 108.987 696.036 107.92 696.036 106.682C696.036 105.439 696.263 104.373 696.718 103.483C697.173 102.589 697.794 101.903 698.582 101.426C699.37 100.945 700.265 100.705 701.269 100.705C701.887 100.705 702.462 100.794 702.996 100.972C703.534 101.146 704.017 101.403 704.445 101.744C704.873 102.081 705.228 102.494 705.508 102.983C705.788 103.468 705.978 104.023 706.076 104.648ZM711.717 112.676C710.898 112.676 710.184 112.489 709.575 112.114C708.965 111.739 708.491 111.214 708.154 110.54C707.817 109.866 707.648 109.078 707.648 108.176C707.648 107.271 707.817 106.479 708.154 105.801C708.491 105.123 708.965 104.597 709.575 104.222C710.184 103.847 710.898 103.659 711.717 103.659C712.535 103.659 713.249 103.847 713.859 104.222C714.469 104.597 714.942 105.123 715.279 105.801C715.616 106.479 715.785 107.271 715.785 108.176C715.785 109.078 715.616 109.866 715.279 110.54C714.942 111.214 714.469 111.739 713.859 112.114C713.249 112.489 712.535 112.676 711.717 112.676ZM711.722 111.25C712.253 111.25 712.692 111.11 713.04 110.83C713.389 110.549 713.647 110.176 713.813 109.71C713.984 109.244 714.069 108.731 714.069 108.17C714.069 107.614 713.984 107.102 713.813 106.636C713.647 106.167 713.389 105.79 713.04 105.506C712.692 105.222 712.253 105.08 711.722 105.08C711.188 105.08 710.745 105.222 710.393 105.506C710.044 105.79 709.785 106.167 709.614 106.636C709.448 107.102 709.364 107.614 709.364 108.17C709.364 108.731 709.448 109.244 709.614 109.71C709.785 110.176 710.044 110.549 710.393 110.83C710.745 111.11 711.188 111.25 711.722 111.25ZM719.38 107.318V112.5H717.681V103.773H719.312V105.193H719.42C719.621 104.731 719.935 104.36 720.363 104.08C720.795 103.799 721.338 103.659 721.994 103.659C722.588 103.659 723.109 103.784 723.556 104.034C724.003 104.28 724.35 104.648 724.596 105.136C724.842 105.625 724.965 106.229 724.965 106.949V112.5H723.266V107.153C723.266 106.521 723.102 106.027 722.772 105.67C722.442 105.311 721.99 105.131 721.414 105.131C721.02 105.131 720.67 105.216 720.363 105.386C720.06 105.557 719.819 105.807 719.641 106.136C719.467 106.462 719.38 106.856 719.38 107.318ZM733.783 105.903L732.244 106.176C732.179 105.979 732.077 105.792 731.937 105.614C731.8 105.436 731.615 105.29 731.38 105.176C731.145 105.062 730.852 105.006 730.499 105.006C730.018 105.006 729.617 105.114 729.295 105.33C728.973 105.542 728.812 105.816 728.812 106.153C728.812 106.445 728.92 106.68 729.136 106.858C729.352 107.036 729.7 107.182 730.181 107.295L731.567 107.614C732.371 107.799 732.969 108.085 733.363 108.472C733.757 108.858 733.954 109.36 733.954 109.977C733.954 110.5 733.802 110.966 733.499 111.375C733.2 111.78 732.781 112.098 732.244 112.33C731.71 112.561 731.09 112.676 730.386 112.676C729.408 112.676 728.611 112.468 727.994 112.051C727.376 111.631 726.997 111.034 726.857 110.261L728.499 110.011C728.602 110.439 728.812 110.763 729.13 110.983C729.448 111.199 729.863 111.307 730.374 111.307C730.931 111.307 731.376 111.191 731.71 110.96C732.043 110.725 732.21 110.439 732.21 110.102C732.21 109.83 732.107 109.6 731.903 109.415C731.702 109.229 731.393 109.089 730.977 108.994L729.499 108.67C728.685 108.485 728.083 108.189 727.692 107.784C727.306 107.379 727.113 106.866 727.113 106.244C727.113 105.729 727.257 105.278 727.545 104.892C727.833 104.506 728.23 104.205 728.738 103.989C729.246 103.769 729.827 103.659 730.482 103.659C731.425 103.659 732.168 103.864 732.71 104.273C733.251 104.678 733.609 105.222 733.783 105.903ZM741.35 108.881V103.773H743.055V112.5H741.384V110.989H741.293C741.093 111.455 740.771 111.843 740.327 112.153C739.888 112.46 739.341 112.614 738.685 112.614C738.125 112.614 737.629 112.491 737.197 112.244C736.769 111.994 736.432 111.625 736.185 111.136C735.943 110.648 735.822 110.044 735.822 109.324V103.773H737.521V109.119C737.521 109.714 737.685 110.187 738.015 110.54C738.344 110.892 738.772 111.068 739.299 111.068C739.617 111.068 739.933 110.989 740.248 110.83C740.566 110.67 740.829 110.43 741.038 110.108C741.25 109.786 741.354 109.377 741.35 108.881ZM745.337 112.5V103.773H746.968V105.193H747.076C747.258 104.712 747.555 104.337 747.968 104.068C748.381 103.795 748.875 103.659 749.451 103.659C750.034 103.659 750.523 103.795 750.917 104.068C751.315 104.341 751.608 104.716 751.798 105.193H751.888C752.097 104.727 752.428 104.356 752.883 104.08C753.337 103.799 753.879 103.659 754.508 103.659C755.299 103.659 755.945 103.907 756.445 104.403C756.949 104.9 757.201 105.648 757.201 106.648V112.5H755.502V106.807C755.502 106.216 755.341 105.788 755.019 105.523C754.697 105.258 754.313 105.125 753.866 105.125C753.313 105.125 752.883 105.295 752.576 105.636C752.269 105.973 752.116 106.407 752.116 106.938V112.5H750.423V106.699C750.423 106.225 750.275 105.845 749.979 105.557C749.684 105.269 749.299 105.125 748.826 105.125C748.504 105.125 748.207 105.21 747.934 105.381C747.665 105.547 747.447 105.78 747.281 106.08C747.118 106.379 747.036 106.725 747.036 107.119V112.5H745.337ZM763.239 112.676C762.379 112.676 761.639 112.492 761.018 112.125C760.4 111.754 759.923 111.233 759.586 110.562C759.253 109.888 759.086 109.098 759.086 108.193C759.086 107.299 759.253 106.511 759.586 105.83C759.923 105.148 760.393 104.616 760.995 104.233C761.601 103.85 762.309 103.659 763.12 103.659C763.612 103.659 764.09 103.741 764.552 103.903C765.014 104.066 765.429 104.322 765.796 104.67C766.164 105.019 766.453 105.472 766.665 106.028C766.878 106.581 766.984 107.254 766.984 108.045V108.648H760.046V107.375H765.319C765.319 106.928 765.228 106.532 765.046 106.188C764.864 105.839 764.609 105.564 764.279 105.364C763.953 105.163 763.571 105.062 763.131 105.062C762.654 105.062 762.237 105.18 761.881 105.415C761.529 105.646 761.256 105.949 761.063 106.324C760.874 106.695 760.779 107.098 760.779 107.534V108.528C760.779 109.112 760.881 109.608 761.086 110.017C761.294 110.426 761.584 110.739 761.955 110.955C762.326 111.167 762.76 111.273 763.256 111.273C763.578 111.273 763.872 111.227 764.137 111.136C764.402 111.042 764.631 110.902 764.825 110.716C765.018 110.53 765.165 110.301 765.268 110.028L766.876 110.318C766.747 110.792 766.516 111.206 766.183 111.562C765.853 111.915 765.438 112.189 764.938 112.386C764.442 112.58 763.876 112.676 763.239 112.676ZM768.869 112.5V103.773H770.511V105.159H770.602C770.761 104.689 771.041 104.32 771.442 104.051C771.848 103.778 772.306 103.642 772.817 103.642C772.924 103.642 773.049 103.646 773.192 103.653C773.34 103.661 773.456 103.67 773.539 103.682V105.307C773.471 105.288 773.35 105.267 773.175 105.244C773.001 105.218 772.827 105.205 772.653 105.205C772.251 105.205 771.893 105.29 771.579 105.46C771.268 105.627 771.022 105.86 770.84 106.159C770.658 106.455 770.567 106.792 770.567 107.17V112.5H768.869Z" fill="#102B2D"/>
<path d="M392.5 195L392.5 149" stroke="#10C800" stroke-linejoin="round"/>
<path d="M386.5 174L392.5 168L398.5 174" stroke="#10C800" stroke-linecap="square" stroke-linejoin="round"/>
<path d="M346.817 243.5H342.874V231.864H346.897C348.052 231.864 349.045 232.097 349.874 232.562C350.708 233.025 351.348 233.689 351.795 234.557C352.242 235.424 352.465 236.462 352.465 237.67C352.465 238.883 352.24 239.924 351.789 240.795C351.342 241.667 350.696 242.335 349.852 242.801C349.011 243.267 347.999 243.5 346.817 243.5ZM344.982 241.676H346.715C347.526 241.676 348.202 241.528 348.744 241.233C349.285 240.934 349.692 240.489 349.965 239.898C350.238 239.303 350.374 238.561 350.374 237.67C350.374 236.78 350.238 236.042 349.965 235.455C349.692 234.864 349.289 234.422 348.755 234.131C348.225 233.835 347.566 233.688 346.778 233.688H344.982V241.676ZM358.241 243.67C357.366 243.67 356.61 243.489 355.974 243.125C355.341 242.758 354.854 242.239 354.513 241.568C354.173 240.894 354.002 240.1 354.002 239.188C354.002 238.29 354.173 237.502 354.513 236.824C354.858 236.142 355.339 235.612 355.957 235.233C356.574 234.85 357.299 234.659 358.133 234.659C358.671 234.659 359.178 234.746 359.656 234.92C360.137 235.091 360.561 235.356 360.928 235.716C361.299 236.076 361.591 236.534 361.803 237.091C362.015 237.644 362.121 238.303 362.121 239.068V239.699H354.968V238.312H360.15C360.146 237.919 360.061 237.568 359.894 237.261C359.728 236.951 359.495 236.706 359.195 236.528C358.9 236.35 358.555 236.261 358.161 236.261C357.741 236.261 357.371 236.364 357.053 236.568C356.735 236.769 356.487 237.034 356.309 237.364C356.135 237.689 356.046 238.047 356.042 238.438V239.648C356.042 240.155 356.135 240.591 356.32 240.955C356.506 241.314 356.765 241.591 357.099 241.784C357.432 241.973 357.822 242.068 358.269 242.068C358.568 242.068 358.839 242.027 359.082 241.943C359.324 241.856 359.534 241.729 359.712 241.562C359.89 241.396 360.025 241.189 360.116 240.943L362.036 241.159C361.915 241.667 361.684 242.11 361.343 242.489C361.006 242.864 360.574 243.155 360.048 243.364C359.521 243.568 358.919 243.67 358.241 243.67ZM363.862 246.773V234.773H365.884V236.216H366.004C366.11 236.004 366.259 235.778 366.452 235.54C366.646 235.297 366.907 235.091 367.237 234.92C367.566 234.746 367.987 234.659 368.498 234.659C369.172 234.659 369.78 234.831 370.322 235.176C370.867 235.517 371.299 236.023 371.617 236.693C371.939 237.36 372.1 238.178 372.1 239.148C372.1 240.106 371.943 240.92 371.629 241.591C371.314 242.261 370.886 242.773 370.344 243.125C369.803 243.477 369.189 243.653 368.504 243.653C368.004 243.653 367.589 243.57 367.259 243.403C366.93 243.237 366.665 243.036 366.464 242.801C366.267 242.562 366.113 242.337 366.004 242.125H365.918V246.773H363.862ZM365.879 239.136C365.879 239.701 365.958 240.195 366.117 240.619C366.28 241.044 366.513 241.375 366.816 241.614C367.123 241.848 367.494 241.966 367.93 241.966C368.384 241.966 368.765 241.845 369.072 241.602C369.379 241.356 369.61 241.021 369.765 240.597C369.924 240.169 370.004 239.682 370.004 239.136C370.004 238.595 369.926 238.114 369.771 237.693C369.615 237.273 369.384 236.943 369.077 236.705C368.771 236.466 368.388 236.347 367.93 236.347C367.49 236.347 367.117 236.462 366.81 236.693C366.504 236.924 366.271 237.248 366.112 237.665C365.956 238.081 365.879 238.572 365.879 239.136ZM377.725 243.67C376.85 243.67 376.094 243.489 375.458 243.125C374.826 242.758 374.339 242.239 373.998 241.568C373.657 240.894 373.487 240.1 373.487 239.188C373.487 238.29 373.657 237.502 373.998 236.824C374.343 236.142 374.824 235.612 375.441 235.233C376.058 234.85 376.784 234.659 377.617 234.659C378.155 234.659 378.663 234.746 379.14 234.92C379.621 235.091 380.045 235.356 380.413 235.716C380.784 236.076 381.076 236.534 381.288 237.091C381.5 237.644 381.606 238.303 381.606 239.068V239.699H374.452V238.312H379.634C379.63 237.919 379.545 237.568 379.379 237.261C379.212 236.951 378.979 236.706 378.68 236.528C378.384 236.35 378.04 236.261 377.646 236.261C377.225 236.261 376.856 236.364 376.538 236.568C376.219 236.769 375.971 237.034 375.793 237.364C375.619 237.689 375.53 238.047 375.526 238.438V239.648C375.526 240.155 375.619 240.591 375.805 240.955C375.99 241.314 376.25 241.591 376.583 241.784C376.916 241.973 377.307 242.068 377.754 242.068C378.053 242.068 378.324 242.027 378.566 241.943C378.808 241.856 379.019 241.729 379.197 241.562C379.375 241.396 379.509 241.189 379.6 240.943L381.521 241.159C381.399 241.667 381.168 242.11 380.827 242.489C380.49 242.864 380.058 243.155 379.532 243.364C379.005 243.568 378.403 243.67 377.725 243.67ZM386.585 243.653C385.899 243.653 385.285 243.477 384.744 243.125C384.202 242.773 383.774 242.261 383.46 241.591C383.145 240.92 382.988 240.106 382.988 239.148C382.988 238.178 383.147 237.36 383.465 236.693C383.787 236.023 384.221 235.517 384.766 235.176C385.312 234.831 385.92 234.659 386.59 234.659C387.102 234.659 387.522 234.746 387.852 234.92C388.181 235.091 388.442 235.297 388.636 235.54C388.829 235.778 388.978 236.004 389.085 236.216H389.17V231.864H391.232V243.5H389.21V242.125H389.085C388.978 242.337 388.825 242.562 388.624 242.801C388.424 243.036 388.158 243.237 387.829 243.403C387.499 243.57 387.085 243.653 386.585 243.653ZM387.158 241.966C387.594 241.966 387.965 241.848 388.272 241.614C388.579 241.375 388.812 241.044 388.971 240.619C389.13 240.195 389.21 239.701 389.21 239.136C389.21 238.572 389.13 238.081 388.971 237.665C388.816 237.248 388.585 236.924 388.278 236.693C387.975 236.462 387.602 236.347 387.158 236.347C386.7 236.347 386.317 236.466 386.011 236.705C385.704 236.943 385.473 237.273 385.317 237.693C385.162 238.114 385.085 238.595 385.085 239.136C385.085 239.682 385.162 240.169 385.317 240.597C385.477 241.021 385.71 241.356 386.016 241.602C386.327 241.845 386.708 241.966 387.158 241.966ZM397.288 243.67C396.413 243.67 395.657 243.489 395.021 243.125C394.388 242.758 393.901 242.239 393.56 241.568C393.219 240.894 393.049 240.1 393.049 239.188C393.049 238.29 393.219 237.502 393.56 236.824C393.905 236.142 394.386 235.612 395.004 235.233C395.621 234.85 396.346 234.659 397.18 234.659C397.718 234.659 398.225 234.746 398.702 234.92C399.183 235.091 399.608 235.356 399.975 235.716C400.346 236.076 400.638 236.534 400.85 237.091C401.062 237.644 401.168 238.303 401.168 239.068V239.699H394.015V238.312H399.197C399.193 237.919 399.108 237.568 398.941 237.261C398.774 236.951 398.541 236.706 398.242 236.528C397.947 236.35 397.602 236.261 397.208 236.261C396.788 236.261 396.418 236.364 396.1 236.568C395.782 236.769 395.534 237.034 395.356 237.364C395.182 237.689 395.093 238.047 395.089 238.438V239.648C395.089 240.155 395.182 240.591 395.367 240.955C395.553 241.314 395.812 241.591 396.146 241.784C396.479 241.973 396.869 242.068 397.316 242.068C397.615 242.068 397.886 242.027 398.129 241.943C398.371 241.856 398.581 241.729 398.759 241.562C398.937 241.396 399.072 241.189 399.163 240.943L401.083 241.159C400.962 241.667 400.731 242.11 400.39 242.489C400.053 242.864 399.621 243.155 399.094 243.364C398.568 243.568 397.966 243.67 397.288 243.67ZM404.965 238.386V243.5H402.908V234.773H404.874V236.256H404.977C405.177 235.767 405.497 235.379 405.937 235.091C406.38 234.803 406.927 234.659 407.579 234.659C408.181 234.659 408.706 234.788 409.153 235.045C409.603 235.303 409.952 235.676 410.198 236.165C410.448 236.653 410.571 237.246 410.567 237.943V243.5H408.511V238.261C408.511 237.678 408.359 237.222 408.056 236.892C407.757 236.562 407.342 236.398 406.812 236.398C406.452 236.398 406.132 236.477 405.852 236.636C405.575 236.792 405.357 237.017 405.198 237.312C405.043 237.608 404.965 237.966 404.965 238.386ZM416.465 243.67C415.594 243.67 414.846 243.479 414.221 243.097C413.6 242.714 413.121 242.186 412.783 241.511C412.45 240.833 412.283 240.053 412.283 239.17C412.283 238.284 412.454 237.502 412.795 236.824C413.136 236.142 413.617 235.612 414.238 235.233C414.863 234.85 415.602 234.659 416.454 234.659C417.162 234.659 417.789 234.79 418.335 235.051C418.884 235.309 419.321 235.674 419.647 236.148C419.973 236.617 420.158 237.167 420.204 237.795H418.238C418.158 237.375 417.969 237.025 417.67 236.744C417.374 236.46 416.978 236.318 416.482 236.318C416.062 236.318 415.692 236.432 415.374 236.659C415.056 236.883 414.808 237.205 414.63 237.625C414.456 238.045 414.369 238.549 414.369 239.136C414.369 239.731 414.456 240.242 414.63 240.67C414.804 241.095 415.049 241.422 415.363 241.653C415.681 241.881 416.054 241.994 416.482 241.994C416.785 241.994 417.056 241.937 417.295 241.824C417.537 241.706 417.74 241.538 417.903 241.318C418.066 241.098 418.177 240.831 418.238 240.517H420.204C420.155 241.134 419.973 241.682 419.658 242.159C419.344 242.633 418.916 243.004 418.374 243.273C417.833 243.538 417.196 243.67 416.465 243.67ZM421.893 243.5V234.773H423.95V243.5H421.893ZM422.927 233.534C422.601 233.534 422.321 233.426 422.086 233.21C421.851 232.991 421.734 232.727 421.734 232.42C421.734 232.11 421.851 231.847 422.086 231.631C422.321 231.411 422.601 231.301 422.927 231.301C423.256 231.301 423.537 231.411 423.768 231.631C424.003 231.847 424.12 232.11 424.12 232.42C424.12 232.727 424.003 232.991 423.768 233.21C423.537 233.426 423.256 233.534 422.927 233.534ZM429.928 243.67C429.053 243.67 428.298 243.489 427.661 243.125C427.029 242.758 426.542 242.239 426.201 241.568C425.86 240.894 425.69 240.1 425.69 239.188C425.69 238.29 425.86 237.502 426.201 236.824C426.546 236.142 427.027 235.612 427.644 235.233C428.262 234.85 428.987 234.659 429.82 234.659C430.358 234.659 430.866 234.746 431.343 234.92C431.824 235.091 432.248 235.356 432.616 235.716C432.987 236.076 433.279 236.534 433.491 237.091C433.703 237.644 433.809 238.303 433.809 239.068V239.699H426.656V238.312H431.837C431.834 237.919 431.748 237.568 431.582 237.261C431.415 236.951 431.182 236.706 430.883 236.528C430.587 236.35 430.243 236.261 429.849 236.261C429.428 236.261 429.059 236.364 428.741 236.568C428.423 236.769 428.174 237.034 427.996 237.364C427.822 237.689 427.733 238.047 427.729 238.438V239.648C427.729 240.155 427.822 240.591 428.008 240.955C428.193 241.314 428.453 241.591 428.786 241.784C429.12 241.973 429.51 242.068 429.957 242.068C430.256 242.068 430.527 242.027 430.769 241.943C431.012 241.856 431.222 241.729 431.4 241.562C431.578 241.396 431.712 241.189 431.803 240.943L433.724 241.159C433.603 241.667 433.371 242.11 433.031 242.489C432.693 242.864 432.262 243.155 431.735 243.364C431.209 243.568 430.606 243.67 429.928 243.67ZM442.447 237.08L440.572 237.284C440.519 237.095 440.426 236.917 440.293 236.75C440.165 236.583 439.99 236.449 439.771 236.347C439.551 236.244 439.282 236.193 438.964 236.193C438.536 236.193 438.176 236.286 437.884 236.472C437.596 236.657 437.454 236.898 437.458 237.193C437.454 237.447 437.547 237.653 437.737 237.812C437.93 237.972 438.248 238.102 438.691 238.205L440.18 238.523C441.005 238.701 441.619 238.983 442.021 239.369C442.426 239.756 442.63 240.261 442.634 240.886C442.63 241.436 442.469 241.92 442.151 242.341C441.837 242.758 441.399 243.083 440.839 243.318C440.278 243.553 439.634 243.67 438.907 243.67C437.839 243.67 436.979 243.447 436.327 243C435.676 242.549 435.288 241.922 435.163 241.119L437.168 240.926C437.259 241.32 437.452 241.617 437.748 241.818C438.043 242.019 438.428 242.119 438.901 242.119C439.39 242.119 439.782 242.019 440.077 241.818C440.377 241.617 440.526 241.369 440.526 241.074C440.526 240.824 440.43 240.617 440.237 240.455C440.047 240.292 439.752 240.167 439.35 240.08L437.862 239.767C437.024 239.593 436.405 239.299 436.004 238.886C435.602 238.47 435.403 237.943 435.407 237.307C435.403 236.769 435.549 236.303 435.844 235.909C436.144 235.511 436.558 235.205 437.089 234.989C437.623 234.769 438.238 234.659 438.935 234.659C439.958 234.659 440.763 234.877 441.35 235.312C441.941 235.748 442.307 236.337 442.447 237.08Z" fill="#102B2D"/>
<rect x="315.5" y="199" width="154" height="76" rx="8" stroke="#58DA95" stroke-width="2" stroke-linecap="square" stroke-dasharray="5 5"/>
<path d="M574.5 180.5L568.5 186.5L562.5 180.5" stroke="#58DA95" stroke-linecap="round" stroke-linejoin="round"/>
<path d="M568.5 150V227C568.5 231.418 564.918 235 560.5 235H473.5" stroke="#58DA95" stroke-linejoin="round" stroke-dasharray="5 5"/>
</svg>
