<svg width="858" height="323" viewBox="0 0 858 323" fill="none" xmlns="http://www.w3.org/2000/svg">
<path d="M171.936 50.6819C172.943 53.2378 171.32 56.034 168.6 56.4164C158.549 57.8294 148.356 57.8294 138.305 56.4164C135.585 56.034 133.962 53.2378 134.969 50.6819C138.793 40.9746 143.878 31.8103 150.07 23.4872C151.767 21.2061 155.138 21.2061 156.835 23.4872C163.027 31.8103 168.112 40.9746 171.936 50.6819Z" fill="#F03100"/>
<path d="M151.872 34.4337V41.173L152.233 45.4781H154.667L155.05 41.173V34.4337H151.872ZM153.472 46.9206C152.3 46.9206 151.579 47.5968 151.579 48.7013C151.579 49.8057 152.3 50.5044 153.472 50.5044C154.622 50.5044 155.343 49.8057 155.343 48.7013C155.343 47.5968 154.622 46.9206 153.472 46.9206Z" fill="white"/>
<path d="M154.579 55.7857C154.579 55.1633 154.075 54.6587 153.452 54.6587C152.83 54.6587 152.325 55.1633 152.325 55.7857H154.579ZM152.325 111.571C152.325 112.194 152.83 112.698 153.452 112.698C154.075 112.698 154.579 112.194 154.579 111.571H152.325ZM152.325 55.8424C152.325 56.4648 152.83 56.9694 153.452 56.9694C154.075 56.9694 154.579 56.4648 154.579 55.8424H152.325ZM154.579 60.3778C154.579 59.7554 154.075 59.2508 153.452 59.2508C152.83 59.2508 152.325 59.7554 152.325 60.3778H154.579ZM152.325 60.4912C152.325 61.1136 152.83 61.6182 153.452 61.6182C154.075 61.6182 154.579 61.1136 154.579 60.4912H152.325ZM154.579 65.0266C154.579 64.4042 154.075 63.8997 153.452 63.8997C152.83 63.8997 152.325 64.4042 152.325 65.0266H154.579ZM152.325 65.14C152.325 65.7624 152.83 66.267 153.452 66.267C154.075 66.267 154.579 65.7624 154.579 65.14H152.325ZM154.579 69.6754C154.579 69.053 154.075 68.5485 153.452 68.5485C152.83 68.5485 152.325 69.053 152.325 69.6754H154.579ZM152.325 69.7888C152.325 70.4112 152.83 70.9158 153.452 70.9158C154.075 70.9158 154.579 70.4112 154.579 69.7888H152.325ZM154.579 74.3243C154.579 73.7018 154.075 73.1973 153.452 73.1973C152.83 73.1973 152.325 73.7018 152.325 74.3243H154.579ZM152.325 74.4376C152.325 75.0601 152.83 75.5646 153.452 75.5646C154.075 75.5646 154.579 75.0601 154.579 74.4376H152.325ZM154.579 78.9731C154.579 78.3507 154.075 77.8461 153.452 77.8461C152.83 77.8461 152.325 78.3507 152.325 78.9731H154.579ZM152.325 79.0865C152.325 79.7089 152.83 80.2134 153.452 80.2134C154.075 80.2134 154.579 79.7089 154.579 79.0865H152.325ZM154.579 83.6219C154.579 82.9995 154.075 82.4949 153.452 82.4949C152.83 82.4949 152.325 82.9995 152.325 83.6219H154.579ZM152.325 83.7353C152.325 84.3577 152.83 84.8622 153.452 84.8622C154.075 84.8622 154.579 84.3577 154.579 83.7353H152.325ZM154.579 88.2707C154.579 87.6483 154.075 87.1437 153.452 87.1437C152.83 87.1437 152.325 87.6483 152.325 88.2707H154.579ZM152.325 88.3841C152.325 89.0065 152.83 89.5111 153.452 89.5111C154.075 89.5111 154.579 89.0065 154.579 88.3841H152.325ZM154.579 92.9195C154.579 92.2971 154.075 91.7925 153.452 91.7925C152.83 91.7925 152.325 92.2971 152.325 92.9195H154.579ZM152.325 93.0329C152.325 93.6553 152.83 94.1599 153.452 94.1599C154.075 94.1599 154.579 93.6553 154.579 93.0329H152.325ZM154.579 97.5683C154.579 96.9459 154.075 96.4413 153.452 96.4413C152.83 96.4413 152.325 96.9459 152.325 97.5683H154.579ZM152.325 97.6817C152.325 98.3041 152.83 98.8087 153.452 98.8087C154.075 98.8087 154.579 98.3041 154.579 97.6817H152.325ZM154.579 102.217C154.579 101.595 154.075 101.09 153.452 101.09C152.83 101.09 152.325 101.595 152.325 102.217H154.579ZM152.325 102.33C152.325 102.953 152.83 103.457 153.452 103.457C154.075 103.457 154.579 102.953 154.579 102.33H152.325ZM154.579 106.866C154.579 106.243 154.075 105.739 153.452 105.739C152.83 105.739 152.325 106.243 152.325 106.866H154.579ZM152.325 106.979C152.325 107.602 152.83 108.106 153.452 108.106C154.075 108.106 154.579 107.602 154.579 106.979H152.325ZM154.579 111.515C154.579 110.892 154.075 110.388 153.452 110.388C152.83 110.388 152.325 110.892 152.325 111.515H154.579ZM152.325 55.7857V55.8424H154.579V55.7857H152.325ZM152.325 60.3778V60.4912H154.579V60.3778H152.325ZM152.325 65.0266V65.14H154.579V65.0266H152.325ZM152.325 69.6754V69.7888H154.579V69.6754H152.325ZM152.325 74.3243V74.4376H154.579V74.3243H152.325ZM152.325 78.9731V79.0865H154.579V78.9731H152.325ZM152.325 83.6219V83.7353H154.579V83.6219H152.325ZM152.325 88.2707V88.3841H154.579V88.2707H152.325ZM152.325 92.9195V93.0329H154.579V92.9195H152.325ZM152.325 97.5683V97.6817H154.579V97.5683H152.325ZM152.325 102.217V102.33H154.579V102.217H152.325ZM152.325 106.866V106.979H154.579V106.866H152.325ZM152.325 111.515V111.571H154.579V111.515H152.325Z" fill="#F03100"/>
<path d="M251.952 50.6819C252.959 53.2378 251.336 56.034 248.615 56.4164C238.564 57.8294 228.372 57.8294 218.321 56.4164C215.601 56.034 213.978 53.2378 214.985 50.6819C218.808 40.9746 223.894 31.8103 230.086 23.4872C231.783 21.2061 235.154 21.2061 236.851 23.4872C243.043 31.8103 248.128 40.9746 251.952 50.6819Z" fill="#F03100"/>
<path d="M231.888 34.4337V41.173L232.249 45.4781H234.683L235.066 41.173V34.4337H231.888ZM233.488 46.9206C232.316 46.9206 231.595 47.5968 231.595 48.7013C231.595 49.8057 232.316 50.5044 233.488 50.5044C234.638 50.5044 235.359 49.8057 235.359 48.7013C235.359 47.5968 234.638 46.9206 233.488 46.9206Z" fill="white"/>
<path d="M234.595 55.7857C234.595 55.1633 234.091 54.6587 233.468 54.6587C232.846 54.6587 232.341 55.1633 232.341 55.7857H234.595ZM232.341 89.0317C232.341 89.6542 232.846 90.1587 233.468 90.1587C234.091 90.1587 234.595 89.6542 234.595 89.0317H232.341ZM232.341 55.8436C232.341 56.466 232.846 56.9706 233.468 56.9706C234.091 56.9706 234.595 56.466 234.595 55.8436H232.341ZM234.595 60.4772C234.595 59.8548 234.091 59.3502 233.468 59.3502C232.846 59.3502 232.341 59.8548 232.341 60.4772H234.595ZM232.341 60.5931C232.341 61.2155 232.846 61.7201 233.468 61.7201C234.091 61.7201 234.595 61.2155 234.595 60.5931H232.341ZM234.595 65.2267C234.595 64.6042 234.091 64.0997 233.468 64.0997C232.846 64.0997 232.341 64.6042 232.341 65.2267H234.595ZM232.341 65.3425C232.341 65.9649 232.846 66.4695 233.468 66.4695C234.091 66.4695 234.595 65.9649 234.595 65.3425H232.341ZM234.595 69.9761C234.595 69.3537 234.091 68.8491 233.468 68.8491C232.846 68.8491 232.341 69.3537 232.341 69.9761H234.595ZM232.341 70.0919C232.341 70.7143 232.846 71.2189 233.468 71.2189C234.091 71.2189 234.595 70.7143 234.595 70.0919H232.341ZM234.595 74.7255C234.595 74.1031 234.091 73.5985 233.468 73.5985C232.846 73.5985 232.341 74.1031 232.341 74.7255H234.595ZM232.341 74.8414C232.341 75.4638 232.846 75.9683 233.468 75.9683C234.091 75.9683 234.595 75.4638 234.595 74.8414H232.341ZM234.595 79.475C234.595 78.8525 234.091 78.348 233.468 78.348C232.846 78.348 232.341 78.8525 232.341 79.475H234.595ZM232.341 79.5908C232.341 80.2132 232.846 80.7178 233.468 80.7178C234.091 80.7178 234.595 80.2132 234.595 79.5908H232.341ZM234.595 84.2244C234.595 83.602 234.091 83.0974 233.468 83.0974C232.846 83.0974 232.341 83.602 232.341 84.2244H234.595ZM232.341 84.3402C232.341 84.9626 232.846 85.4672 233.468 85.4672C234.091 85.4672 234.595 84.9626 234.595 84.3402H232.341ZM234.595 88.9738C234.595 88.3514 234.091 87.8468 233.468 87.8468C232.846 87.8468 232.341 88.3514 232.341 88.9738H234.595ZM232.341 55.7857V55.8436H234.595V55.7857H232.341ZM232.341 60.4772V60.5931H234.595V60.4772H232.341ZM232.341 65.2267V65.3425H234.595V65.2267H232.341ZM232.341 69.9761V70.0919H234.595V69.9761H232.341ZM232.341 74.7255V74.8414H234.595V74.7255H232.341ZM232.341 79.475V79.5908H234.595V79.475H232.341ZM232.341 84.2244V84.3402H234.595V84.2244H232.341ZM232.341 88.9738V89.0317H234.595V88.9738H232.341Z" fill="#F03100"/>
<path d="M352.253 50.6819C353.26 53.2378 351.637 56.034 348.917 56.4164C338.866 57.8294 328.674 57.8294 318.623 56.4164C315.902 56.034 314.28 53.2378 315.286 50.6819C319.11 40.9746 324.195 31.8103 330.387 23.4872C332.084 21.2061 335.455 21.2061 337.152 23.4872C343.344 31.8103 348.43 40.9746 352.253 50.6819Z" fill="#F03100"/>
<path d="M332.19 34.4337V41.173L332.55 45.4781H334.984L335.368 41.173V34.4337H332.19ZM333.79 46.9206C332.618 46.9206 331.896 47.5968 331.896 48.7013C331.896 49.8057 332.618 50.5044 333.79 50.5044C334.939 50.5044 335.661 49.8057 335.661 48.7013C335.661 47.5968 334.939 46.9206 333.79 46.9206Z" fill="white"/>
<path d="M334.897 55.7857C334.897 55.1633 334.392 54.6587 333.77 54.6587C333.147 54.6587 332.643 55.1633 332.643 55.7857H334.897ZM332.643 111.571C332.643 112.194 333.147 112.698 333.77 112.698C334.392 112.698 334.897 112.194 334.897 111.571H332.643ZM332.643 55.8424C332.643 56.4648 333.147 56.9694 333.77 56.9694C334.392 56.9694 334.897 56.4648 334.897 55.8424H332.643ZM334.897 60.3778C334.897 59.7554 334.392 59.2508 333.77 59.2508C333.147 59.2508 332.643 59.7554 332.643 60.3778H334.897ZM332.643 60.4912C332.643 61.1136 333.147 61.6182 333.77 61.6182C334.392 61.6182 334.897 61.1136 334.897 60.4912H332.643ZM334.897 65.0266C334.897 64.4042 334.392 63.8997 333.77 63.8997C333.147 63.8997 332.643 64.4042 332.643 65.0266H334.897ZM332.643 65.14C332.643 65.7624 333.147 66.267 333.77 66.267C334.392 66.267 334.897 65.7624 334.897 65.14H332.643ZM334.897 69.6754C334.897 69.053 334.392 68.5485 333.77 68.5485C333.147 68.5485 332.643 69.053 332.643 69.6754H334.897ZM332.643 69.7888C332.643 70.4112 333.147 70.9158 333.77 70.9158C334.392 70.9158 334.897 70.4112 334.897 69.7888H332.643ZM334.897 74.3243C334.897 73.7018 334.392 73.1973 333.77 73.1973C333.147 73.1973 332.643 73.7018 332.643 74.3243H334.897ZM332.643 74.4376C332.643 75.0601 333.147 75.5646 333.77 75.5646C334.392 75.5646 334.897 75.0601 334.897 74.4376H332.643ZM334.897 78.9731C334.897 78.3507 334.392 77.8461 333.77 77.8461C333.147 77.8461 332.643 78.3507 332.643 78.9731H334.897ZM332.643 79.0865C332.643 79.7089 333.147 80.2134 333.77 80.2134C334.392 80.2134 334.897 79.7089 334.897 79.0865H332.643ZM334.897 83.6219C334.897 82.9995 334.392 82.4949 333.77 82.4949C333.147 82.4949 332.643 82.9995 332.643 83.6219H334.897ZM332.643 83.7353C332.643 84.3577 333.147 84.8622 333.77 84.8622C334.392 84.8622 334.897 84.3577 334.897 83.7353H332.643ZM334.897 88.2707C334.897 87.6483 334.392 87.1437 333.77 87.1437C333.147 87.1437 332.643 87.6483 332.643 88.2707H334.897ZM332.643 88.3841C332.643 89.0065 333.147 89.5111 333.77 89.5111C334.392 89.5111 334.897 89.0065 334.897 88.3841H332.643ZM334.897 92.9195C334.897 92.2971 334.392 91.7925 333.77 91.7925C333.147 91.7925 332.643 92.2971 332.643 92.9195H334.897ZM332.643 93.0329C332.643 93.6553 333.147 94.1599 333.77 94.1599C334.392 94.1599 334.897 93.6553 334.897 93.0329H332.643ZM334.897 97.5683C334.897 96.9459 334.392 96.4413 333.77 96.4413C333.147 96.4413 332.643 96.9459 332.643 97.5683H334.897ZM332.643 97.6817C332.643 98.3041 333.147 98.8087 333.77 98.8087C334.392 98.8087 334.897 98.3041 334.897 97.6817H332.643ZM334.897 102.217C334.897 101.595 334.392 101.09 333.77 101.09C333.147 101.09 332.643 101.595 332.643 102.217H334.897ZM332.643 102.33C332.643 102.953 333.147 103.457 333.77 103.457C334.392 103.457 334.897 102.953 334.897 102.33H332.643ZM334.897 106.866C334.897 106.243 334.392 105.739 333.77 105.739C333.147 105.739 332.643 106.243 332.643 106.866H334.897ZM332.643 106.979C332.643 107.602 333.147 108.106 333.77 108.106C334.392 108.106 334.897 107.602 334.897 106.979H332.643ZM334.897 111.515C334.897 110.892 334.392 110.388 333.77 110.388C333.147 110.388 332.643 110.892 332.643 111.515H334.897ZM332.643 55.7857V55.8424H334.897V55.7857H332.643ZM332.643 60.3778V60.4912H334.897V60.3778H332.643ZM332.643 65.0266V65.14H334.897V65.0266H332.643ZM332.643 69.6754V69.7888H334.897V69.6754H332.643ZM332.643 74.3243V74.4376H334.897V74.3243H332.643ZM332.643 78.9731V79.0865H334.897V78.9731H332.643ZM332.643 83.6219V83.7353H334.897V83.6219H332.643ZM332.643 88.2707V88.3841H334.897V88.2707H332.643ZM332.643 92.9195V93.0329H334.897V92.9195H332.643ZM332.643 97.5683V97.6817H334.897V97.5683H332.643ZM332.643 102.217V102.33H334.897V102.217H332.643ZM332.643 106.866V106.979H334.897V106.866H332.643ZM332.643 111.515V111.571H334.897V111.515H332.643Z" fill="#F03100"/>
<path d="M444.666 50.6819C445.673 53.2378 444.05 56.034 441.33 56.4164C431.279 57.8294 421.086 57.8294 411.035 56.4164C408.315 56.034 406.692 53.2378 407.699 50.6819C411.523 40.9746 416.608 31.8103 422.8 23.4872C424.497 21.2061 427.868 21.2061 429.565 23.4872C435.757 31.8103 440.842 40.9746 444.666 50.6819Z" fill="#F03100"/>
<path d="M424.602 34.4337V41.173L424.963 45.4781H427.397L427.78 41.173V34.4337H424.602ZM426.203 46.9206C425.03 46.9206 424.309 47.5968 424.309 48.7013C424.309 49.8057 425.03 50.5044 426.203 50.5044C427.352 50.5044 428.073 49.8057 428.073 48.7013C428.073 47.5968 427.352 46.9206 426.203 46.9206Z" fill="white"/>
<path d="M427.31 55.7857C427.31 55.1633 426.805 54.6587 426.183 54.6587C425.56 54.6587 425.056 55.1633 425.056 55.7857H427.31ZM425.056 89.0317C425.056 89.6542 425.56 90.1587 426.183 90.1587C426.805 90.1587 427.31 89.6542 427.31 89.0317H425.056ZM425.056 55.8436C425.056 56.466 425.56 56.9706 426.183 56.9706C426.805 56.9706 427.31 56.466 427.31 55.8436H425.056ZM427.31 60.4772C427.31 59.8548 426.805 59.3502 426.183 59.3502C425.56 59.3502 425.056 59.8548 425.056 60.4772H427.31ZM425.056 60.5931C425.056 61.2155 425.56 61.7201 426.183 61.7201C426.805 61.7201 427.31 61.2155 427.31 60.5931H425.056ZM427.31 65.2267C427.31 64.6042 426.805 64.0997 426.183 64.0997C425.56 64.0997 425.056 64.6042 425.056 65.2267H427.31ZM425.056 65.3425C425.056 65.9649 425.56 66.4695 426.183 66.4695C426.805 66.4695 427.31 65.9649 427.31 65.3425H425.056ZM427.31 69.9761C427.31 69.3537 426.805 68.8491 426.183 68.8491C425.56 68.8491 425.056 69.3537 425.056 69.9761H427.31ZM425.056 70.0919C425.056 70.7143 425.56 71.2189 426.183 71.2189C426.805 71.2189 427.31 70.7143 427.31 70.0919H425.056ZM427.31 74.7255C427.31 74.1031 426.805 73.5985 426.183 73.5985C425.56 73.5985 425.056 74.1031 425.056 74.7255H427.31ZM425.056 74.8414C425.056 75.4638 425.56 75.9683 426.183 75.9683C426.805 75.9683 427.31 75.4638 427.31 74.8414H425.056ZM427.31 79.475C427.31 78.8525 426.805 78.348 426.183 78.348C425.56 78.348 425.056 78.8525 425.056 79.475H427.31ZM425.056 79.5908C425.056 80.2132 425.56 80.7178 426.183 80.7178C426.805 80.7178 427.31 80.2132 427.31 79.5908H425.056ZM427.31 84.2244C427.31 83.602 426.805 83.0974 426.183 83.0974C425.56 83.0974 425.056 83.602 425.056 84.2244H427.31ZM425.056 84.3402C425.056 84.9626 425.56 85.4672 426.183 85.4672C426.805 85.4672 427.31 84.9626 427.31 84.3402H425.056ZM427.31 88.9738C427.31 88.3514 426.805 87.8468 426.183 87.8468C425.56 87.8468 425.056 88.3514 425.056 88.9738H427.31ZM425.056 55.7857V55.8436H427.31V55.7857H425.056ZM425.056 60.4772V60.5931H427.31V60.4772H425.056ZM425.056 65.2267V65.3425H427.31V65.2267H425.056ZM425.056 69.9761V70.0919H427.31V69.9761H425.056ZM425.056 74.7255V74.8414H427.31V74.7255H425.056ZM425.056 79.475V79.5908H427.31V79.475H425.056ZM425.056 84.2244V84.3402H427.31V84.2244H425.056ZM425.056 88.9738V89.0317H427.31V88.9738H425.056Z" fill="#F03100"/>
<path d="M537.079 50.6819C538.086 53.2378 536.463 56.034 533.742 56.4164C523.691 57.8294 513.499 57.8294 503.448 56.4164C500.728 56.034 499.105 53.2378 500.112 50.6819C503.935 40.9746 509.021 31.8103 515.213 23.4872C516.91 21.2061 520.281 21.2061 521.978 23.4872C528.17 31.8103 533.255 40.9746 537.079 50.6819Z" fill="#F03100"/>
<path d="M517.015 34.4337V41.173L517.376 45.4781H519.81L520.193 41.173V34.4337H517.015ZM518.615 46.9206C517.443 46.9206 516.722 47.5968 516.722 48.7013C516.722 49.8057 517.443 50.5044 518.615 50.5044C519.765 50.5044 520.486 49.8057 520.486 48.7013C520.486 47.5968 519.765 46.9206 518.615 46.9206Z" fill="white"/>
<path d="M519.722 55.7857C519.722 55.1633 519.218 54.6587 518.595 54.6587C517.973 54.6587 517.468 55.1633 517.468 55.7857H519.722ZM517.468 111.571C517.468 112.194 517.973 112.698 518.595 112.698C519.218 112.698 519.722 112.194 519.722 111.571H517.468ZM517.468 55.8424C517.468 56.4648 517.973 56.9694 518.595 56.9694C519.218 56.9694 519.722 56.4648 519.722 55.8424H517.468ZM519.722 60.3778C519.722 59.7554 519.218 59.2508 518.595 59.2508C517.973 59.2508 517.468 59.7554 517.468 60.3778H519.722ZM517.468 60.4912C517.468 61.1136 517.973 61.6182 518.595 61.6182C519.218 61.6182 519.722 61.1136 519.722 60.4912H517.468ZM519.722 65.0266C519.722 64.4042 519.218 63.8997 518.595 63.8997C517.973 63.8997 517.468 64.4042 517.468 65.0266H519.722ZM517.468 65.14C517.468 65.7624 517.973 66.267 518.595 66.267C519.218 66.267 519.722 65.7624 519.722 65.14H517.468ZM519.722 69.6754C519.722 69.053 519.218 68.5485 518.595 68.5485C517.973 68.5485 517.468 69.053 517.468 69.6754H519.722ZM517.468 69.7888C517.468 70.4112 517.973 70.9158 518.595 70.9158C519.218 70.9158 519.722 70.4112 519.722 69.7888H517.468ZM519.722 74.3243C519.722 73.7018 519.218 73.1973 518.595 73.1973C517.973 73.1973 517.468 73.7018 517.468 74.3243H519.722ZM517.468 74.4376C517.468 75.0601 517.973 75.5646 518.595 75.5646C519.218 75.5646 519.722 75.0601 519.722 74.4376H517.468ZM519.722 78.9731C519.722 78.3507 519.218 77.8461 518.595 77.8461C517.973 77.8461 517.468 78.3507 517.468 78.9731H519.722ZM517.468 79.0865C517.468 79.7089 517.973 80.2134 518.595 80.2134C519.218 80.2134 519.722 79.7089 519.722 79.0865H517.468ZM519.722 83.6219C519.722 82.9995 519.218 82.4949 518.595 82.4949C517.973 82.4949 517.468 82.9995 517.468 83.6219H519.722ZM517.468 83.7353C517.468 84.3577 517.973 84.8622 518.595 84.8622C519.218 84.8622 519.722 84.3577 519.722 83.7353H517.468ZM519.722 88.2707C519.722 87.6483 519.218 87.1437 518.595 87.1437C517.973 87.1437 517.468 87.6483 517.468 88.2707H519.722ZM517.468 88.3841C517.468 89.0065 517.973 89.5111 518.595 89.5111C519.218 89.5111 519.722 89.0065 519.722 88.3841H517.468ZM519.722 92.9195C519.722 92.2971 519.218 91.7925 518.595 91.7925C517.973 91.7925 517.468 92.2971 517.468 92.9195H519.722ZM517.468 93.0329C517.468 93.6553 517.973 94.1599 518.595 94.1599C519.218 94.1599 519.722 93.6553 519.722 93.0329H517.468ZM519.722 97.5683C519.722 96.9459 519.218 96.4413 518.595 96.4413C517.973 96.4413 517.468 96.9459 517.468 97.5683H519.722ZM517.468 97.6817C517.468 98.3041 517.973 98.8087 518.595 98.8087C519.218 98.8087 519.722 98.3041 519.722 97.6817H517.468ZM519.722 102.217C519.722 101.595 519.218 101.09 518.595 101.09C517.973 101.09 517.468 101.595 517.468 102.217H519.722ZM517.468 102.33C517.468 102.953 517.973 103.457 518.595 103.457C519.218 103.457 519.722 102.953 519.722 102.33H517.468ZM519.722 106.866C519.722 106.243 519.218 105.739 518.595 105.739C517.973 105.739 517.468 106.243 517.468 106.866H519.722ZM517.468 106.979C517.468 107.602 517.973 108.106 518.595 108.106C519.218 108.106 519.722 107.602 519.722 106.979H517.468ZM519.722 111.515C519.722 110.892 519.218 110.388 518.595 110.388C517.973 110.388 517.468 110.892 517.468 111.515H519.722ZM517.468 55.7857V55.8424H519.722V55.7857H517.468ZM517.468 60.3778V60.4912H519.722V60.3778H517.468ZM517.468 65.0266V65.14H519.722V65.0266H517.468ZM517.468 69.6754V69.7888H519.722V69.6754H517.468ZM517.468 74.3243V74.4376H519.722V74.3243H517.468ZM517.468 78.9731V79.0865H519.722V78.9731H517.468ZM517.468 83.6219V83.7353H519.722V83.6219H517.468ZM517.468 88.2707V88.3841H519.722V88.2707H517.468ZM517.468 92.9195V93.0329H519.722V92.9195H517.468ZM517.468 97.5683V97.6817H519.722V97.5683H517.468ZM517.468 102.217V102.33H519.722V102.217H517.468ZM517.468 106.866V106.979H519.722V106.866H517.468ZM517.468 111.515V111.571H519.722V111.515H517.468Z" fill="#F03100"/>
<path d="M643.015 50.6819C644.022 53.2378 642.399 56.034 639.679 56.4164C629.628 57.8294 619.436 57.8294 609.385 56.4164C606.664 56.034 605.041 53.2378 606.048 50.6819C609.872 40.9746 614.957 31.8103 621.149 23.4872C622.846 21.2061 626.217 21.2061 627.914 23.4872C634.106 31.8103 639.192 40.9746 643.015 50.6819Z" fill="#F03100"/>
<path d="M622.951 34.4337V41.173L623.312 45.4781H625.746L626.13 41.173V34.4337H622.951ZM624.552 46.9206C623.38 46.9206 622.658 47.5968 622.658 48.7013C622.658 49.8057 623.38 50.5044 624.552 50.5044C625.701 50.5044 626.423 49.8057 626.423 48.7013C626.423 47.5968 625.701 46.9206 624.552 46.9206Z" fill="white"/>
<path d="M625.659 55.7857C625.659 55.1633 625.154 54.6587 624.532 54.6587C623.909 54.6587 623.405 55.1633 623.405 55.7857H625.659ZM623.405 89.0317C623.405 89.6542 623.909 90.1587 624.532 90.1587C625.154 90.1587 625.659 89.6542 625.659 89.0317H623.405ZM623.405 55.8436C623.405 56.466 623.909 56.9706 624.532 56.9706C625.154 56.9706 625.659 56.466 625.659 55.8436H623.405ZM625.659 60.4772C625.659 59.8548 625.154 59.3502 624.532 59.3502C623.909 59.3502 623.405 59.8548 623.405 60.4772H625.659ZM623.405 60.5931C623.405 61.2155 623.909 61.7201 624.532 61.7201C625.154 61.7201 625.659 61.2155 625.659 60.5931H623.405ZM625.659 65.2267C625.659 64.6042 625.154 64.0997 624.532 64.0997C623.909 64.0997 623.405 64.6042 623.405 65.2267H625.659ZM623.405 65.3425C623.405 65.9649 623.909 66.4695 624.532 66.4695C625.154 66.4695 625.659 65.9649 625.659 65.3425H623.405ZM625.659 69.9761C625.659 69.3537 625.154 68.8491 624.532 68.8491C623.909 68.8491 623.405 69.3537 623.405 69.9761H625.659ZM623.405 70.0919C623.405 70.7143 623.909 71.2189 624.532 71.2189C625.154 71.2189 625.659 70.7143 625.659 70.0919H623.405ZM625.659 74.7255C625.659 74.1031 625.154 73.5985 624.532 73.5985C623.909 73.5985 623.405 74.1031 623.405 74.7255H625.659ZM623.405 74.8414C623.405 75.4638 623.909 75.9683 624.532 75.9683C625.154 75.9683 625.659 75.4638 625.659 74.8414H623.405ZM625.659 79.475C625.659 78.8525 625.154 78.348 624.532 78.348C623.909 78.348 623.405 78.8525 623.405 79.475H625.659ZM623.405 79.5908C623.405 80.2132 623.909 80.7178 624.532 80.7178C625.154 80.7178 625.659 80.2132 625.659 79.5908H623.405ZM625.659 84.2244C625.659 83.602 625.154 83.0974 624.532 83.0974C623.909 83.0974 623.405 83.602 623.405 84.2244H625.659ZM623.405 84.3402C623.405 84.9626 623.909 85.4672 624.532 85.4672C625.154 85.4672 625.659 84.9626 625.659 84.3402H623.405ZM625.659 88.9738C625.659 88.3514 625.154 87.8468 624.532 87.8468C623.909 87.8468 623.405 88.3514 623.405 88.9738H625.659ZM623.405 55.7857V55.8436H625.659V55.7857H623.405ZM623.405 60.4772V60.5931H625.659V60.4772H623.405ZM623.405 65.2267V65.3425H625.659V65.2267H623.405ZM623.405 69.9761V70.0919H625.659V69.9761H623.405ZM623.405 74.7255V74.8414H625.659V74.7255H623.405ZM623.405 79.475V79.5908H625.659V79.475H623.405ZM623.405 84.2244V84.3402H625.659V84.2244H623.405ZM623.405 88.9738V89.0317H625.659V88.9738H623.405Z" fill="#F03100"/>
<path d="M728.666 50.6819C729.673 53.2378 728.05 56.034 725.33 56.4164C715.279 57.8294 705.086 57.8294 695.035 56.4164C692.315 56.034 690.692 53.2378 691.699 50.6819C695.523 40.9746 700.608 31.8103 706.8 23.4872C708.497 21.2061 711.868 21.2061 713.565 23.4872C719.757 31.8103 724.842 40.9746 728.666 50.6819Z" fill="#F03100"/>
<path d="M708.602 34.4337V41.173L708.963 45.4781H711.397L711.78 41.173V34.4337H708.602ZM710.203 46.9206C709.03 46.9206 708.309 47.5968 708.309 48.7013C708.309 49.8057 709.03 50.5044 710.203 50.5044C711.352 50.5044 712.073 49.8057 712.073 48.7013C712.073 47.5968 711.352 46.9206 710.203 46.9206Z" fill="white"/>
<path d="M711.31 55.7857C711.31 55.1633 710.805 54.6587 710.183 54.6587C709.56 54.6587 709.056 55.1633 709.056 55.7857H711.31ZM709.056 111.571C709.056 112.194 709.56 112.698 710.183 112.698C710.805 112.698 711.31 112.194 711.31 111.571H709.056ZM709.056 55.8424C709.056 56.4648 709.56 56.9694 710.183 56.9694C710.805 56.9694 711.31 56.4648 711.31 55.8424H709.056ZM711.31 60.3778C711.31 59.7554 710.805 59.2508 710.183 59.2508C709.56 59.2508 709.056 59.7554 709.056 60.3778H711.31ZM709.056 60.4912C709.056 61.1136 709.56 61.6182 710.183 61.6182C710.805 61.6182 711.31 61.1136 711.31 60.4912H709.056ZM711.31 65.0266C711.31 64.4042 710.805 63.8997 710.183 63.8997C709.56 63.8997 709.056 64.4042 709.056 65.0266H711.31ZM709.056 65.14C709.056 65.7624 709.56 66.267 710.183 66.267C710.805 66.267 711.31 65.7624 711.31 65.14H709.056ZM711.31 69.6754C711.31 69.053 710.805 68.5485 710.183 68.5485C709.56 68.5485 709.056 69.053 709.056 69.6754H711.31ZM709.056 69.7888C709.056 70.4112 709.56 70.9158 710.183 70.9158C710.805 70.9158 711.31 70.4112 711.31 69.7888H709.056ZM711.31 74.3243C711.31 73.7018 710.805 73.1973 710.183 73.1973C709.56 73.1973 709.056 73.7018 709.056 74.3243H711.31ZM709.056 74.4376C709.056 75.0601 709.56 75.5646 710.183 75.5646C710.805 75.5646 711.31 75.0601 711.31 74.4376H709.056ZM711.31 78.9731C711.31 78.3507 710.805 77.8461 710.183 77.8461C709.56 77.8461 709.056 78.3507 709.056 78.9731H711.31ZM709.056 79.0865C709.056 79.7089 709.56 80.2134 710.183 80.2134C710.805 80.2134 711.31 79.7089 711.31 79.0865H709.056ZM711.31 83.6219C711.31 82.9995 710.805 82.4949 710.183 82.4949C709.56 82.4949 709.056 82.9995 709.056 83.6219H711.31ZM709.056 83.7353C709.056 84.3577 709.56 84.8622 710.183 84.8622C710.805 84.8622 711.31 84.3577 711.31 83.7353H709.056ZM711.31 88.2707C711.31 87.6483 710.805 87.1437 710.183 87.1437C709.56 87.1437 709.056 87.6483 709.056 88.2707H711.31ZM709.056 88.3841C709.056 89.0065 709.56 89.5111 710.183 89.5111C710.805 89.5111 711.31 89.0065 711.31 88.3841H709.056ZM711.31 92.9195C711.31 92.2971 710.805 91.7925 710.183 91.7925C709.56 91.7925 709.056 92.2971 709.056 92.9195H711.31ZM709.056 93.0329C709.056 93.6553 709.56 94.1599 710.183 94.1599C710.805 94.1599 711.31 93.6553 711.31 93.0329H709.056ZM711.31 97.5683C711.31 96.9459 710.805 96.4413 710.183 96.4413C709.56 96.4413 709.056 96.9459 709.056 97.5683H711.31ZM709.056 97.6817C709.056 98.3041 709.56 98.8087 710.183 98.8087C710.805 98.8087 711.31 98.3041 711.31 97.6817H709.056ZM711.31 102.217C711.31 101.595 710.805 101.09 710.183 101.09C709.56 101.09 709.056 101.595 709.056 102.217H711.31ZM709.056 102.33C709.056 102.953 709.56 103.457 710.183 103.457C710.805 103.457 711.31 102.953 711.31 102.33H709.056ZM711.31 106.866C711.31 106.243 710.805 105.739 710.183 105.739C709.56 105.739 709.056 106.243 709.056 106.866H711.31ZM709.056 106.979C709.056 107.602 709.56 108.106 710.183 108.106C710.805 108.106 711.31 107.602 711.31 106.979H709.056ZM711.31 111.515C711.31 110.892 710.805 110.388 710.183 110.388C709.56 110.388 709.056 110.892 709.056 111.515H711.31ZM709.056 55.7857V55.8424H711.31V55.7857H709.056ZM709.056 60.3778V60.4912H711.31V60.3778H709.056ZM709.056 65.0266V65.14H711.31V65.0266H709.056ZM709.056 69.6754V69.7888H711.31V69.6754H709.056ZM709.056 74.3243V74.4376H711.31V74.3243H709.056ZM709.056 78.9731V79.0865H711.31V78.9731H709.056ZM709.056 83.6219V83.7353H711.31V83.6219H709.056ZM709.056 88.2707V88.3841H711.31V88.2707H709.056ZM709.056 92.9195V93.0329H711.31V92.9195H709.056ZM709.056 97.5683V97.6817H711.31V97.5683H709.056ZM709.056 102.217V102.33H711.31V102.217H709.056ZM709.056 106.866V106.979H711.31V106.866H709.056ZM709.056 111.515V111.571H711.31V111.515H709.056Z" fill="#F03100"/>
<path d="M26.2072 125.067V137.587H30.6179C34.5306 137.587 36.8426 135.346 36.8426 131.309C36.8426 127.308 34.5483 125.067 30.6179 125.067H26.2072ZM28.1635 135.827V126.827H30.6001C33.3034 126.827 34.8151 128.446 34.8151 131.309C34.8151 134.208 33.3034 135.827 30.6001 135.827H28.1635ZM46.8113 132.572C46.8113 130.278 45.2996 128.517 42.7208 128.517C40.142 128.517 38.3279 130.242 38.3279 133.159C38.3279 136.04 40.142 137.765 42.7919 137.765C44.5882 137.765 46.011 136.965 46.6335 135.649L45.104 134.884C44.6771 135.649 44.0013 136.182 42.8097 136.182C41.2802 136.182 40.3376 135.222 40.2131 133.621H46.7402C46.7758 133.354 46.8113 132.999 46.8113 132.572ZM40.2665 132.234C40.4977 130.829 41.3869 130.082 42.6852 130.082C44.0013 130.082 44.8372 130.829 44.8728 132.234H40.2665ZM51.9324 135.809L49.3536 128.695H47.255L50.8298 137.587H52.9639L56.5565 128.695H54.6002L51.9324 135.809ZM65.5515 132.572C65.5515 130.278 64.0398 128.517 61.461 128.517C58.8822 128.517 57.0681 130.242 57.0681 133.159C57.0681 136.04 58.8822 137.765 61.5321 137.765C63.3284 137.765 64.7512 136.965 65.3737 135.649L63.8442 134.884C63.4173 135.649 62.7415 136.182 61.5499 136.182C60.0204 136.182 59.0778 135.222 58.9533 133.621H65.4804C65.5159 133.354 65.5515 132.999 65.5515 132.572ZM59.0067 132.234C59.2379 130.829 60.1271 130.082 61.4254 130.082C62.7415 130.082 63.5774 130.829 63.613 132.234H59.0067ZM67.3625 125.067V135.257C67.3625 136.929 68.1806 137.765 69.7813 137.765C70.4215 137.765 70.9907 137.623 71.4886 137.392L71.1507 135.827C70.8839 135.969 70.5994 136.058 70.1725 136.058C69.6212 136.058 69.2655 135.773 69.2655 134.92V125.067H67.3625ZM76.3467 128.517C73.7323 128.517 71.9005 130.242 71.9005 133.141C71.9005 136.04 73.7323 137.765 76.3467 137.765C78.9433 137.765 80.7929 136.04 80.7929 133.141C80.7929 130.242 78.9433 128.517 76.3467 128.517ZM76.3467 130.1C77.9118 130.1 78.8544 131.185 78.8544 133.141C78.8544 135.097 77.9118 136.182 76.3467 136.182C74.7816 136.182 73.839 135.097 73.839 133.141C73.839 131.185 74.7816 130.1 76.3467 130.1ZM87.6085 128.517C86.1857 128.517 85.0474 129.211 84.4783 130.242L84.3894 128.695H82.6998V141.038H84.6028V136.236C85.1541 137.178 86.1679 137.765 87.4662 137.765C89.6715 137.765 91.4322 136.04 91.4322 133.123C91.4322 130.278 89.8316 128.517 87.6085 128.517ZM87.0571 136.129C85.5632 136.129 84.6028 134.973 84.6028 133.141C84.6028 131.291 85.5988 130.135 87.0927 130.135C88.6222 130.135 89.4937 131.238 89.4937 133.141C89.4937 135.044 88.5866 136.129 87.0571 136.129ZM101.26 132.572C101.26 130.278 99.7486 128.517 97.1698 128.517C94.591 128.517 92.7769 130.242 92.7769 133.159C92.7769 136.04 94.591 137.765 97.2409 137.765C99.0372 137.765 100.46 136.965 101.082 135.649L99.553 134.884C99.1261 135.649 98.4503 136.182 97.2587 136.182C95.7292 136.182 94.7866 135.222 94.6621 133.621H101.189C101.225 133.354 101.26 132.999 101.26 132.572ZM94.7155 132.234C94.9467 130.829 95.8359 130.082 97.1342 130.082C98.4503 130.082 99.2862 130.829 99.3218 132.234H94.7155ZM105.028 137.587V132.945C105.028 131.185 106.166 130.331 107.304 130.331C107.749 130.331 108.016 130.384 108.265 130.438L108.478 128.641C108.247 128.553 107.909 128.517 107.642 128.517C106.273 128.517 105.366 129.211 104.921 130.242L104.814 128.695H103.125V137.587H105.028Z" fill="#102B2D"/>
<path d="M209.512 124.695C206.267 124.695 204.337 126.299 204.337 128.571C204.337 130.591 205.708 131.619 207.853 132.052L210.558 132.593C211.73 132.827 212.217 133.332 212.217 134.089C212.217 135.117 211.388 135.64 209.855 135.64C208.25 135.64 206.663 134.919 205.455 133.494L203.886 135.46C205.203 136.884 207.222 137.786 209.711 137.786C212.758 137.786 214.724 136.325 214.724 133.783C214.724 131.853 213.497 130.807 211.261 130.357L208.737 129.852C207.439 129.599 206.862 129.185 206.862 128.319C206.862 127.399 207.763 126.84 209.332 126.84C210.883 126.84 212.037 127.327 213.317 128.553L214.796 126.732C213.425 125.398 211.802 124.695 209.512 124.695ZM220.659 128.391C217.936 128.391 216.043 130.14 216.043 133.079C216.043 136.019 217.936 137.768 220.659 137.768C223.382 137.768 225.275 136.019 225.275 133.079C225.275 130.14 223.382 128.391 220.659 128.391ZM220.659 130.357C222.011 130.357 222.823 131.276 222.823 133.079C222.823 134.883 222.011 135.802 220.659 135.802C219.288 135.802 218.477 134.883 218.477 133.079C218.477 131.276 219.288 130.357 220.659 130.357ZM230.269 137.768C231.73 137.768 232.758 137.245 233.371 136.091L233.461 137.587H235.607V128.571H233.191V133.422C233.191 134.991 232.235 135.658 231.171 135.658C230.071 135.658 229.476 135.225 229.476 133.927V128.571H227.06V134.576C227.06 136.758 228.466 137.768 230.269 137.768ZM240.431 137.587V133.043C240.431 131.511 241.494 130.735 242.612 130.735C243.081 130.735 243.37 130.789 243.604 130.861L243.875 128.535C243.658 128.427 243.334 128.391 243.045 128.391C241.621 128.391 240.719 129.166 240.268 130.248L240.178 128.571H238.014V137.587H240.431ZM249.012 128.391C246.271 128.391 244.305 130.122 244.305 133.079C244.305 136.037 246.127 137.768 248.903 137.768C251.157 137.768 252.636 136.668 253.141 134.991L250.869 134.215C250.58 135.207 250.039 135.802 248.976 135.802C247.587 135.802 246.74 134.973 246.74 133.097C246.74 131.258 247.569 130.357 248.957 130.357C249.931 130.357 250.49 130.898 250.779 131.943L253.051 131.078C252.528 129.455 251.175 128.391 249.012 128.391ZM262.949 132.593C262.949 130.23 261.38 128.391 258.658 128.391C255.989 128.391 254.114 130.14 254.114 133.133C254.114 136.037 255.953 137.768 258.73 137.768C260.623 137.768 262.21 136.938 262.805 135.46L260.821 134.594C260.461 135.297 259.902 135.838 258.802 135.838C257.449 135.838 256.638 135.045 256.494 133.71H262.895C262.931 133.404 262.949 133.025 262.949 132.593ZM256.53 132.16C256.71 130.898 257.504 130.284 258.64 130.284C259.794 130.284 260.515 130.952 260.551 132.16H256.53Z" fill="#102B2D"/>
<rect x="174.865" y="90.1587" width="117.349" height="83.6032" rx="7.88889" stroke="#58DA95" stroke-width="2.25397"/>
<path d="M589.922 125.067V137.587H592.341V133.266H595.293C598.05 133.266 599.686 131.736 599.686 129.157C599.686 126.596 598.068 125.067 595.293 125.067H589.922ZM592.341 131.114V127.219H594.902C596.378 127.219 597.214 127.752 597.214 129.157C597.214 130.58 596.378 131.114 594.902 131.114H592.341ZM609.421 135.987C608.976 135.987 608.745 135.755 608.745 135.311V131.612C608.745 129.549 607.091 128.517 604.903 128.517C602.449 128.517 601.079 129.46 600.67 131.114L602.822 131.594C603.071 130.705 603.694 130.349 604.708 130.349C605.757 130.349 606.362 130.847 606.362 131.843V132.252H603.961C601.951 132.252 600.653 133.283 600.653 134.991C600.653 136.68 601.72 137.765 603.872 137.765C605.028 137.765 606.059 137.356 606.628 136.556C606.931 137.356 607.695 137.73 608.691 137.73C609.1 137.73 609.438 137.676 609.687 137.552L609.794 135.951C609.687 135.969 609.545 135.987 609.421 135.987ZM604.387 136.058C603.356 136.058 602.965 135.56 602.965 134.866C602.965 134.226 603.534 133.924 604.53 133.924H606.362V134.35C606.362 135.613 605.277 136.058 604.387 136.058ZM615.161 128.517C612.458 128.517 610.519 130.224 610.519 133.141C610.519 136.058 612.316 137.765 615.054 137.765C617.278 137.765 618.736 136.68 619.234 135.026L616.993 134.262C616.708 135.24 616.175 135.827 615.126 135.827C613.756 135.827 612.92 135.008 612.92 133.159C612.92 131.345 613.738 130.456 615.108 130.456C616.068 130.456 616.62 130.989 616.904 132.021L619.145 131.167C618.629 129.566 617.295 128.517 615.161 128.517ZM629.957 137.587L626.365 132.216L629.744 128.695H626.934L623.128 132.625V125.067H620.745V137.587H623.128V135.4L624.604 133.852L627.094 137.587H629.957ZM639.137 135.987C638.693 135.987 638.462 135.755 638.462 135.311V131.612C638.462 129.549 636.808 128.517 634.62 128.517C632.166 128.517 630.796 129.46 630.387 131.114L632.539 131.594C632.788 130.705 633.411 130.349 634.424 130.349C635.474 130.349 636.078 130.847 636.078 131.843V132.252H633.677C631.668 132.252 630.369 133.283 630.369 134.991C630.369 136.68 631.436 137.765 633.588 137.765C634.744 137.765 635.776 137.356 636.345 136.556C636.647 137.356 637.412 137.73 638.408 137.73C638.817 137.73 639.155 137.676 639.404 137.552L639.511 135.951C639.404 135.969 639.262 135.987 639.137 135.987ZM634.104 136.058C633.073 136.058 632.681 135.56 632.681 134.866C632.681 134.226 633.251 133.924 634.247 133.924H636.078V134.35C636.078 135.613 634.993 136.058 634.104 136.058ZM644.682 141.251C647.706 141.251 649.271 139.49 649.271 136.36V128.695H647.119L647.048 130.1C646.568 129.104 645.572 128.517 644.291 128.517C641.997 128.517 640.272 130.189 640.272 133.088C640.272 135.951 641.943 137.641 644.131 137.641C645.34 137.641 646.336 137.089 646.888 136.182V137.018C646.888 138.512 646.194 139.384 644.771 139.384C643.526 139.384 642.779 138.992 642.495 138.085L640.058 138.548C640.485 140.166 642.104 141.251 644.682 141.251ZM644.771 135.631C643.437 135.631 642.673 134.759 642.673 133.105C642.673 131.398 643.455 130.527 644.789 130.527C646.07 130.527 646.888 131.416 646.888 133.034C646.888 134.671 646.07 135.631 644.771 135.631ZM659.823 132.661C659.823 130.331 658.276 128.517 655.59 128.517C652.958 128.517 651.109 130.242 651.109 133.194C651.109 136.058 652.923 137.765 655.662 137.765C657.529 137.765 659.094 136.947 659.681 135.489L657.725 134.635C657.369 135.329 656.818 135.862 655.733 135.862C654.399 135.862 653.598 135.08 653.456 133.764H659.77C659.805 133.461 659.823 133.088 659.823 132.661ZM653.492 132.234C653.67 130.989 654.452 130.384 655.573 130.384C656.711 130.384 657.422 131.042 657.458 132.234H653.492Z" fill="#102B2D"/>
<rect x="560.294" y="90.1587" width="128.349" height="82.6032" rx="7.88889" stroke="#58DA95" stroke-width="2.25397"/>
<path d="M758.251 133.461C757.753 135.115 756.562 135.987 754.943 135.987C752.507 135.987 751.013 134.279 751.013 131.327C751.013 128.321 752.595 126.667 754.961 126.667C756.544 126.667 757.611 127.414 758.162 128.908L760.065 128.09C759.247 126.027 757.433 124.871 754.89 124.871C751.333 124.871 749.003 127.343 749.003 131.327C749.003 135.311 751.315 137.783 754.925 137.783C757.397 137.783 759.443 136.52 760.243 134.119L758.251 133.461ZM765.724 128.517C763.109 128.517 761.278 130.242 761.278 133.141C761.278 136.04 763.109 137.765 765.724 137.765C768.32 137.765 770.17 136.04 770.17 133.141C770.17 130.242 768.32 128.517 765.724 128.517ZM765.724 130.1C767.289 130.1 768.232 131.185 768.232 133.141C768.232 135.097 767.289 136.182 765.724 136.182C764.159 136.182 763.216 135.097 763.216 133.141C763.216 131.185 764.159 130.1 765.724 130.1ZM776.808 128.517C775.527 128.517 774.442 129.051 773.838 130.189L773.767 128.695H772.077V137.587H773.98V132.857C773.98 130.9 775.225 130.171 776.381 130.171C777.466 130.171 778.302 130.74 778.302 132.412V137.587H780.205V131.861C780.205 129.602 778.711 128.517 776.808 128.517ZM785.892 137.765C788.186 137.765 789.538 136.609 789.538 134.884C789.538 133.746 788.898 132.928 787.208 132.59L785.092 132.163C784.22 131.985 783.971 131.612 783.971 131.167C783.971 130.491 784.576 130.082 785.714 130.082C786.675 130.082 787.635 130.544 788.275 131.398L789.467 130.135C788.596 129.086 787.422 128.517 785.714 128.517C783.438 128.517 782.086 129.78 782.086 131.309C782.086 132.572 782.815 133.479 784.701 133.835L786.568 134.208C787.404 134.368 787.617 134.706 787.617 135.115C787.617 135.773 786.995 136.182 786.017 136.182C784.63 136.182 783.598 135.542 782.815 134.653L781.642 135.987C782.655 137.196 784.114 137.765 785.892 137.765ZM794.365 137.765C795.788 137.765 796.837 137.267 797.442 136.165L797.531 137.587H799.22V128.695H797.317V133.497C797.317 135.329 796.161 136.111 794.97 136.111C793.725 136.111 793.013 135.613 793.013 134.066V128.695H791.11V134.564C791.11 136.823 792.604 137.765 794.365 137.765ZM803.61 137.587V132.857C803.61 130.936 804.855 130.171 805.922 130.171C806.971 130.171 807.754 130.74 807.754 132.163V137.587H809.657V132.768C809.657 131.078 810.724 130.171 811.969 130.171C813.018 130.171 813.801 130.74 813.801 132.163V137.587H815.704V131.807C815.704 129.566 814.139 128.517 812.413 128.517C811.24 128.517 809.906 129.051 809.354 130.26C808.803 129.086 807.629 128.517 806.367 128.517C805.193 128.517 804.126 129.015 803.485 130.118L803.397 128.695H801.707V137.587H803.61ZM825.999 132.572C825.999 130.278 824.487 128.517 821.908 128.517C819.33 128.517 817.516 130.242 817.516 133.159C817.516 136.04 819.33 137.765 821.98 137.765C823.776 137.765 825.199 136.965 825.821 135.649L824.292 134.884C823.865 135.649 823.189 136.182 821.997 136.182C820.468 136.182 819.525 135.222 819.401 133.621H825.928C825.963 133.354 825.999 132.999 825.999 132.572ZM819.454 132.234C819.685 130.829 820.575 130.082 821.873 130.082C823.189 130.082 824.025 130.829 824.06 132.234H819.454ZM829.766 137.587V132.945C829.766 131.185 830.905 130.331 832.043 130.331C832.487 130.331 832.754 130.384 833.003 130.438L833.217 128.641C832.985 128.553 832.647 128.517 832.381 128.517C831.011 128.517 830.104 129.211 829.66 130.242L829.553 128.695H827.863V137.587H829.766Z" fill="#102B2D"/>
<path d="M367.557 251.289V263.81H372.288C376.201 263.81 378.442 261.551 378.442 257.549C378.442 253.53 376.201 251.289 372.288 251.289H367.557ZM369.976 261.675V253.423H372.163C374.636 253.423 375.952 254.864 375.952 257.549C375.952 260.253 374.618 261.675 372.163 261.675H369.976ZM388.602 258.883C388.602 256.553 387.054 254.739 384.369 254.739C381.737 254.739 379.887 256.464 379.887 259.417C379.887 262.28 381.701 263.987 384.44 263.987C386.307 263.987 387.873 263.169 388.459 261.711L386.503 260.857C386.147 261.551 385.596 262.084 384.511 262.084C383.177 262.084 382.377 261.302 382.235 259.986H388.548C388.584 259.683 388.602 259.31 388.602 258.883ZM382.27 258.456C382.448 257.211 383.231 256.607 384.351 256.607C385.489 256.607 386.201 257.265 386.236 258.456H382.27ZM395.672 254.739C394.338 254.739 393.253 255.415 392.648 256.429L392.577 254.917H390.425V267.26H392.808V262.547C393.36 263.454 394.32 263.987 395.547 263.987C397.752 263.987 399.424 262.28 399.424 259.346C399.424 256.535 397.93 254.739 395.672 254.739ZM394.907 261.978C393.626 261.978 392.808 260.982 392.808 259.363C392.808 257.709 393.662 256.749 394.942 256.749C396.259 256.749 397.023 257.62 397.023 259.363C397.023 261.106 396.241 261.978 394.907 261.978ZM409.461 258.883C409.461 256.553 407.914 254.739 405.228 254.739C402.596 254.739 400.746 256.464 400.746 259.417C400.746 262.28 402.56 263.987 405.299 263.987C407.167 263.987 408.732 263.169 409.319 261.711L407.362 260.857C407.007 261.551 406.455 262.084 405.37 262.084C404.036 262.084 403.236 261.302 403.094 259.986H409.407C409.443 259.683 409.461 259.31 409.461 258.883ZM403.129 258.456C403.307 257.211 404.09 256.607 405.21 256.607C406.348 256.607 407.06 257.265 407.095 258.456H403.129ZM416.442 254.739C415.108 254.739 414.094 255.308 413.49 256.429L413.418 254.917H411.284V263.81H413.667V259.097C413.667 257.443 414.699 256.82 415.73 256.82C416.673 256.82 417.367 257.282 417.367 258.67V263.81H419.75V258.029C419.75 255.824 418.345 254.739 416.442 254.739ZM428.153 256.233C427.672 255.326 426.801 254.739 425.538 254.739C423.173 254.739 421.519 256.518 421.519 259.381C421.519 262.191 423.12 263.987 425.432 263.987C426.712 263.987 427.761 263.329 428.313 262.262L428.402 263.81H430.536V251.289H428.153V256.233ZM426.036 261.978C424.685 261.978 423.938 261.053 423.938 259.363C423.938 257.674 424.72 256.749 426.072 256.749C427.335 256.749 428.153 257.674 428.153 259.292C428.153 261 427.317 261.978 426.036 261.978ZM441.088 258.883C441.088 256.553 439.541 254.739 436.855 254.739C434.223 254.739 432.374 256.464 432.374 259.417C432.374 262.28 434.188 263.987 436.926 263.987C438.794 263.987 440.359 263.169 440.946 261.711L438.99 260.857C438.634 261.551 438.082 262.084 436.998 262.084C435.664 262.084 434.863 261.302 434.721 259.986H441.035C441.07 259.683 441.088 259.31 441.088 258.883ZM434.757 258.456C434.935 257.211 435.717 256.607 436.838 256.607C437.976 256.607 438.687 257.265 438.723 258.456H434.757ZM448.069 254.739C446.735 254.739 445.722 255.308 445.117 256.429L445.046 254.917H442.912V263.81H445.295V259.097C445.295 257.443 446.326 256.82 447.358 256.82C448.3 256.82 448.994 257.282 448.994 258.67V263.81H451.377V258.029C451.377 255.824 449.972 254.739 448.069 254.739ZM457.77 254.739C455.067 254.739 453.128 256.447 453.128 259.363C453.128 262.28 454.925 263.987 457.664 263.987C459.887 263.987 461.345 262.902 461.843 261.248L459.602 260.484C459.318 261.462 458.784 262.049 457.735 262.049C456.365 262.049 455.529 261.231 455.529 259.381C455.529 257.567 456.347 256.678 457.717 256.678C458.677 256.678 459.229 257.211 459.513 258.243L461.754 257.389C461.238 255.789 459.904 254.739 457.77 254.739ZM464.545 251.147C463.674 251.147 463.123 251.698 463.123 252.534C463.123 253.37 463.674 253.921 464.545 253.921C465.399 253.921 465.968 253.37 465.968 252.534C465.968 251.698 465.399 251.147 464.545 251.147ZM463.354 254.917V263.81H465.737V254.917H463.354ZM476.276 258.883C476.276 256.553 474.729 254.739 472.043 254.739C469.411 254.739 467.561 256.464 467.561 259.417C467.561 262.28 469.375 263.987 472.114 263.987C473.982 263.987 475.547 263.169 476.134 261.711L474.177 260.857C473.822 261.551 473.27 262.084 472.185 262.084C470.852 262.084 470.051 261.302 469.909 259.986H476.223C476.258 259.683 476.276 259.31 476.276 258.883ZM469.944 258.456C470.122 257.211 470.905 256.607 472.025 256.607C473.164 256.607 473.875 257.265 473.911 258.456H469.944ZM481.461 263.987C483.968 263.987 485.302 262.778 485.302 261.017C485.302 259.826 484.626 258.972 482.883 258.616L480.856 258.207C480.091 258.047 479.878 257.816 479.878 257.443C479.878 256.927 480.34 256.642 481.372 256.642C482.314 256.642 483.31 257.105 484.093 257.798L485.267 256.073C484.235 255.219 483.026 254.739 481.354 254.739C478.864 254.739 477.495 256.055 477.495 257.603C477.495 258.954 478.259 259.897 480.305 260.27L481.959 260.573C482.706 260.715 482.901 260.928 482.901 261.266C482.901 261.8 482.368 262.084 481.585 262.084C480.216 262.084 479.113 261.48 478.277 260.751L477.086 262.547C478.188 263.507 479.7 263.987 481.461 263.987Z" fill="#102B2D"/>
<rect x="336.587" y="215.254" width="178.603" height="84.8571" rx="9.01587" stroke="#58DA95" stroke-width="2.25397" stroke-linecap="square" stroke-dasharray="5.63 5.63"/>
<path d="M631.294 216.381L624.532 223.143L617.77 216.381" stroke="#58DA95" stroke-width="1.12698" stroke-linecap="round" stroke-linejoin="round"/>
<path d="M624.532 179.19V249.063C624.532 254.043 620.495 258.079 615.516 258.079H520.849" stroke="#58DA95" stroke-width="1.12698" stroke-linejoin="round"/>
<path d="M315.738 256.952C315.116 256.952 314.611 257.457 314.611 258.079C314.611 258.702 315.116 259.206 315.738 259.206L315.738 256.952ZM331.516 259.206C332.138 259.206 332.643 258.702 332.643 258.079C332.643 257.457 332.138 256.952 331.516 256.952L331.516 259.206ZM315.802 259.206C316.425 259.206 316.929 258.702 316.929 258.079C316.929 257.457 316.425 256.952 315.802 256.952L315.802 259.206ZM320.933 256.952C320.311 256.952 319.806 257.457 319.806 258.079C319.806 258.702 320.311 259.206 320.933 259.206L320.933 256.952ZM321.061 259.206C321.684 259.206 322.188 258.702 322.188 258.079C322.188 257.457 321.684 256.952 321.061 256.952L321.061 259.206ZM326.192 256.952C325.57 256.952 325.065 257.457 325.065 258.079C325.065 258.702 325.57 259.206 326.192 259.206L326.192 256.952ZM326.321 259.206C326.943 259.206 327.448 258.702 327.448 258.079C327.448 257.457 326.943 256.952 326.321 256.952L326.321 259.206ZM331.452 256.952C330.829 256.952 330.325 257.457 330.325 258.079C330.325 258.702 330.829 259.206 331.452 259.206L331.452 256.952ZM315.738 259.206L315.802 259.206L315.802 256.952L315.738 256.952L315.738 259.206ZM320.933 259.206L321.061 259.206L321.061 256.952L320.933 256.952L320.933 259.206ZM326.192 259.206L326.321 259.206L326.321 256.952L326.192 256.952L326.192 259.206ZM331.452 259.206L331.516 259.206L331.516 256.952L331.452 256.952L331.452 259.206Z" fill="#F03100"/>
<path d="M322.952 269.317C323.959 271.873 322.336 274.669 319.615 275.051C309.564 276.464 299.372 276.464 289.321 275.051C286.601 274.669 284.978 271.873 285.985 269.317C289.808 259.61 294.894 250.445 301.086 242.122C302.783 239.841 306.154 239.841 307.851 242.122C314.043 250.445 319.128 259.61 322.952 269.317Z" fill="#F03100"/>
<path d="M302.888 253.069V259.808L303.249 264.113H305.683L306.066 259.808V253.069H302.888ZM304.488 265.556C303.316 265.556 302.595 266.232 302.595 267.336C302.595 268.441 303.316 269.139 304.488 269.139C305.638 269.139 306.359 268.441 306.359 267.336C306.359 266.232 305.638 265.556 304.488 265.556Z" fill="white"/>
<path d="M297.706 131.857L369.833 131.857" stroke="#58DA95" stroke-width="1.12698" stroke-linejoin="round"/>
<path d="M331.516 125.095L338.278 131.857L331.516 138.619" stroke="#58DA95" stroke-width="1.12698" stroke-linecap="square" stroke-linejoin="round"/>
<path d="M482.532 131.857L554.659 131.857" stroke="#58DA95" stroke-width="1.12698" stroke-linejoin="round"/>
<path d="M516.341 125.095L523.103 131.857L516.341 138.619" stroke="#58DA95" stroke-width="1.12698" stroke-linecap="square" stroke-linejoin="round"/>
<path d="M694.405 131.857L725.96 131.857" stroke="#58DA95" stroke-width="1.12698" stroke-linejoin="round"/>
<path d="M707.929 125.095L714.69 131.857L707.929 138.619" stroke="#58DA95" stroke-width="1.12698" stroke-linecap="square" stroke-linejoin="round"/>
<path d="M137.675 131.857L169.23 131.857" stroke="#58DA95" stroke-width="1.12698" stroke-linejoin="round"/>
<path d="M151.198 125.095L157.96 131.857L151.198 138.619" stroke="#58DA95" stroke-width="1.12698" stroke-linecap="square" stroke-linejoin="round"/>
<path d="M426.183 210.746L426.183 179.19" stroke="#58DA95" stroke-width="1.12698" stroke-linejoin="round"/>
<path d="M419.421 197.222L426.183 190.46L432.944 197.222" stroke="#58DA95" stroke-width="1.12698" stroke-linecap="square" stroke-linejoin="round"/>
<mask id="path-45-inside-1_287_15501" fill="white">
<path fill-rule="evenodd" clip-rule="evenodd" d="M374.73 134.191C380.162 149.695 389.867 163.282 402.684 173.328C403.907 174.286 405.417 174.775 406.961 174.775H444.939H446.065V174.687C447.206 174.507 448.293 174.051 449.216 173.328C462.033 163.282 471.738 149.695 477.17 134.191C477.688 132.712 477.688 131.095 477.17 129.616C471.738 114.112 462.033 100.525 449.216 90.4794C448.293 89.7562 447.206 89.3002 446.065 89.1199V89.0317H444.939H406.961C405.417 89.0317 403.907 89.521 402.684 90.4794C389.867 100.525 380.162 114.112 374.73 129.616C374.212 131.095 374.212 132.712 374.73 134.191Z"/>
</mask>
<path d="M402.684 173.328L404.075 171.554L404.074 171.554L402.684 173.328ZM374.73 134.191L372.603 134.936H372.603L374.73 134.191ZM446.065 174.775V177.029H448.319V174.775H446.065ZM446.065 174.687L445.714 172.461L443.811 172.761V174.687H446.065ZM449.216 173.328L447.825 171.554L447.825 171.554L449.216 173.328ZM477.17 134.191L479.297 134.936V134.936L477.17 134.191ZM477.17 129.616L479.297 128.871V128.871L477.17 129.616ZM449.216 90.4794L447.825 92.2534V92.2534L449.216 90.4794ZM446.065 89.1199H443.811V91.0456L445.714 91.3462L446.065 89.1199ZM446.065 89.0317H448.319V86.7778H446.065V89.0317ZM402.684 90.4794L401.294 88.7053V88.7053L402.684 90.4794ZM374.73 129.616L376.857 130.362H376.857L374.73 129.616ZM404.074 171.554C391.599 161.776 382.148 148.547 376.857 133.446L372.603 134.936C378.175 150.842 388.134 164.788 401.294 175.102L404.074 171.554ZM406.961 172.521C405.891 172.521 404.877 172.183 404.075 171.554L401.294 175.102C402.937 176.389 404.944 177.029 406.961 177.029V172.521ZM444.939 172.521H406.961V177.029H444.939V172.521ZM446.065 172.521H444.939V177.029H446.065V172.521ZM443.811 174.687V174.775H448.319V174.687H443.811ZM446.417 176.914C447.919 176.676 449.367 176.073 450.606 175.102L447.825 171.554C447.219 172.029 446.494 172.338 445.714 172.461L446.417 176.914ZM450.606 175.102C463.765 164.788 473.724 150.842 479.297 134.936L475.043 133.446C469.752 148.547 460.301 161.776 447.825 171.554L450.606 175.102ZM479.297 134.936C479.984 132.974 479.984 130.833 479.297 128.871L475.043 130.362C475.392 131.358 475.392 132.449 475.043 133.446L479.297 134.936ZM479.297 128.871C473.724 112.965 463.765 99.0188 450.606 88.7053L447.825 92.2534C460.301 102.031 469.752 115.26 475.043 130.362L479.297 128.871ZM450.606 88.7053C449.367 87.7343 447.919 87.1308 446.417 86.8935L445.714 91.3462C446.494 91.4695 447.219 91.7781 447.825 92.2534L450.606 88.7053ZM443.811 89.0317V89.1199H448.319V89.0317H443.811ZM444.939 91.2857H446.065V86.7778H444.939V91.2857ZM406.961 91.2857H444.939V86.7778H406.961V91.2857ZM404.074 92.2534C404.877 91.6242 405.891 91.2857 406.961 91.2857V86.7778C404.944 86.7778 402.937 87.4177 401.294 88.7053L404.074 92.2534ZM376.857 130.362C382.148 115.26 391.599 102.031 404.074 92.2534L401.294 88.7053C388.134 99.0188 378.175 112.965 372.603 128.871L376.857 130.362ZM376.857 133.446C376.508 132.449 376.508 131.358 376.857 130.362L372.603 128.871C371.916 130.833 371.916 132.974 372.603 134.936L376.857 133.446Z" fill="#58DA95" mask="url(#path-45-inside-1_287_15501)"/>
<path d="M410.627 137.587C413.597 137.587 415.162 136.307 415.162 134.137C415.162 132.696 414.29 131.54 412.707 131.238V131.22C414.041 130.971 414.842 129.815 414.842 128.481C414.842 126.312 413.437 125.067 410.431 125.067H405.095V137.587H410.627ZM407.461 127.076H410.235C411.605 127.076 412.352 127.574 412.352 128.677C412.352 129.797 411.587 130.278 410.235 130.278H407.461V127.076ZM407.461 132.305H410.538C411.925 132.305 412.672 132.821 412.672 133.906C412.672 135.026 411.907 135.578 410.466 135.578H407.461V132.305ZM420.116 137.765C421.557 137.765 422.57 137.249 423.175 136.111L423.264 137.587H425.38V128.695H422.997V133.479C422.997 135.026 422.055 135.684 421.005 135.684C419.92 135.684 419.334 135.257 419.334 133.977V128.695H416.95V134.617C416.95 136.769 418.338 137.765 420.116 137.765ZM428.947 124.924C428.075 124.924 427.524 125.476 427.524 126.312C427.524 127.148 428.075 127.699 428.947 127.699C429.8 127.699 430.369 127.148 430.369 126.312C430.369 125.476 429.8 124.924 428.947 124.924ZM427.755 128.695V137.587H430.138V128.695H427.755ZM432.478 125.067V135.044C432.478 136.876 433.368 137.765 435.11 137.765C435.822 137.765 436.444 137.605 436.96 137.356L436.622 135.489C436.373 135.578 436.16 135.667 435.733 135.667C435.164 135.667 434.861 135.382 434.861 134.582V125.067H432.478ZM444.05 130.011C443.57 129.104 442.699 128.517 441.436 128.517C439.07 128.517 437.416 130.295 437.416 133.159C437.416 135.969 439.017 137.765 441.329 137.765C442.61 137.765 443.659 137.107 444.21 136.04L444.299 137.587H446.433V125.067H444.05V130.011ZM441.934 135.755C440.582 135.755 439.835 134.831 439.835 133.141C439.835 131.451 440.618 130.527 441.969 130.527C443.232 130.527 444.05 131.451 444.05 133.07C444.05 134.777 443.214 135.755 441.934 135.755Z" fill="#102B2D"/>
</svg>
