<svg width="797" height="416" viewBox="0 0 797 416" fill="none" xmlns="http://www.w3.org/2000/svg">
<rect width="797" height="416" fill="white"/>
<path d="M156.041 45.5653C155.996 45.1619 155.808 44.8494 155.479 44.6278C155.149 44.4034 154.734 44.2912 154.234 44.2912C153.876 44.2912 153.567 44.348 153.305 44.4616C153.044 44.5724 152.841 44.7259 152.696 44.9219C152.554 45.1151 152.483 45.3352 152.483 45.5824C152.483 45.7898 152.531 45.9687 152.628 46.1193C152.727 46.2699 152.856 46.3963 153.015 46.4986C153.177 46.598 153.351 46.6818 153.535 46.75C153.72 46.8153 153.898 46.8693 154.068 46.9119L154.92 47.1335C155.199 47.2017 155.484 47.294 155.777 47.4105C156.069 47.527 156.341 47.6804 156.591 47.8707C156.841 48.0611 157.042 48.2969 157.196 48.5781C157.352 48.8594 157.43 49.196 157.43 49.5881C157.43 50.0824 157.302 50.5213 157.047 50.9048C156.794 51.2884 156.426 51.5909 155.943 51.8125C155.463 52.0341 154.882 52.1449 154.2 52.1449C153.547 52.1449 152.981 52.0412 152.504 51.8338C152.027 51.6264 151.653 51.3324 151.383 50.9517C151.113 50.5682 150.964 50.1136 150.936 49.5881H152.257C152.282 49.9034 152.385 50.1662 152.564 50.3764C152.746 50.5838 152.977 50.7386 153.258 50.8409C153.542 50.9403 153.854 50.9901 154.192 50.9901C154.564 50.9901 154.895 50.9318 155.184 50.8153C155.477 50.696 155.707 50.5312 155.875 50.321C156.042 50.108 156.126 49.8594 156.126 49.5753C156.126 49.3168 156.052 49.1051 155.905 48.9403C155.76 48.7756 155.562 48.6392 155.312 48.5312C155.065 48.4233 154.785 48.3281 154.473 48.2457L153.442 47.9645C152.743 47.7741 152.189 47.4943 151.78 47.125C151.373 46.7557 151.17 46.267 151.17 45.6591C151.17 45.1562 151.307 44.7173 151.579 44.3423C151.852 43.9673 152.221 43.6761 152.687 43.4688C153.153 43.2585 153.679 43.1534 154.264 43.1534C154.855 43.1534 155.376 43.2571 155.828 43.4645C156.282 43.6719 156.64 43.9574 156.902 44.321C157.163 44.6818 157.3 45.0966 157.311 45.5653H156.041ZM166.585 47.6364C166.585 48.5682 166.414 49.3693 166.073 50.0398C165.732 50.7074 165.265 51.2216 164.671 51.5824C164.08 51.9403 163.409 52.1193 162.656 52.1193C161.9 52.1193 161.225 51.9403 160.632 51.5824C160.041 51.2216 159.575 50.706 159.234 50.0355C158.893 49.3651 158.722 48.5653 158.722 47.6364C158.722 46.7045 158.893 45.9048 159.234 45.2372C159.575 44.5668 160.041 44.0526 160.632 43.6946C161.225 43.3338 161.9 43.1534 162.656 43.1534C163.409 43.1534 164.08 43.3338 164.671 43.6946C165.265 44.0526 165.732 44.5668 166.073 45.2372C166.414 45.9048 166.585 46.7045 166.585 47.6364ZM165.281 47.6364C165.281 46.9261 165.166 46.3281 164.936 45.8423C164.708 45.3537 164.396 44.9844 163.998 44.7344C163.603 44.4815 163.156 44.3551 162.656 44.3551C162.153 44.3551 161.704 44.4815 161.309 44.7344C160.914 44.9844 160.602 45.3537 160.372 45.8423C160.144 46.3281 160.031 46.9261 160.031 47.6364C160.031 48.3466 160.144 48.946 160.372 49.4347C160.602 49.9205 160.914 50.2898 161.309 50.5426C161.704 50.7926 162.153 50.9176 162.656 50.9176C163.156 50.9176 163.603 50.7926 163.998 50.5426C164.396 50.2898 164.708 49.9205 164.936 49.4347C165.166 48.946 165.281 48.3466 165.281 47.6364ZM173.839 43.2727H175.16V49.0128C175.16 49.6236 175.016 50.1648 174.729 50.6364C174.442 51.1051 174.039 51.4744 173.519 51.7443C172.999 52.0114 172.39 52.1449 171.691 52.1449C170.995 52.1449 170.387 52.0114 169.867 51.7443C169.347 51.4744 168.944 51.1051 168.657 50.6364C168.37 50.1648 168.226 49.6236 168.226 49.0128V43.2727H169.543V48.9062C169.543 49.3011 169.63 49.652 169.803 49.9588C169.979 50.2656 170.228 50.5071 170.549 50.6832C170.87 50.8565 171.251 50.9432 171.691 50.9432C172.134 50.9432 172.516 50.8565 172.837 50.6832C173.161 50.5071 173.408 50.2656 173.579 49.9588C173.752 49.652 173.839 49.3011 173.839 48.9062V43.2727ZM177.074 52V43.2727H180.185C180.861 43.2727 181.422 43.3892 181.868 43.6222C182.317 43.8551 182.652 44.1776 182.874 44.5895C183.095 44.9986 183.206 45.4716 183.206 46.0085C183.206 46.5426 183.094 47.0128 182.869 47.419C182.648 47.8224 182.313 48.1364 181.864 48.3608C181.418 48.5852 180.857 48.6974 180.181 48.6974H177.824V47.5639H180.061C180.487 47.5639 180.834 47.5028 181.101 47.3807C181.371 47.2585 181.568 47.081 181.693 46.848C181.818 46.6151 181.881 46.3352 181.881 46.0085C181.881 45.679 181.817 45.3935 181.689 45.152C181.564 44.9105 181.367 44.7259 181.097 44.598C180.83 44.4673 180.479 44.402 180.044 44.402H178.391V52H177.074ZM181.382 48.0625L183.539 52H182.039L179.925 48.0625H181.382ZM192.057 46.1108H190.727C190.676 45.8267 190.581 45.5767 190.442 45.3608C190.303 45.1449 190.132 44.9616 189.931 44.8111C189.729 44.6605 189.503 44.5469 189.253 44.4702C189.006 44.3935 188.743 44.3551 188.465 44.3551C187.962 44.3551 187.512 44.4815 187.114 44.7344C186.719 44.9872 186.406 45.358 186.176 45.8466C185.949 46.3352 185.835 46.9318 185.835 47.6364C185.835 48.3466 185.949 48.946 186.176 49.4347C186.406 49.9233 186.72 50.2926 187.118 50.5426C187.516 50.7926 187.963 50.9176 188.46 50.9176C188.736 50.9176 188.997 50.8807 189.244 50.8068C189.494 50.7301 189.72 50.6179 189.922 50.4702C190.124 50.3224 190.294 50.142 190.433 49.929C190.575 49.7131 190.673 49.4659 190.727 49.1875L192.057 49.1918C191.986 49.6207 191.848 50.0156 191.644 50.3764C191.442 50.7344 191.182 51.044 190.864 51.3054C190.548 51.5639 190.188 51.7642 189.781 51.9062C189.375 52.0483 188.932 52.1193 188.452 52.1193C187.696 52.1193 187.023 51.9403 186.432 51.5824C185.841 51.2216 185.375 50.706 185.034 50.0355C184.696 49.3651 184.527 48.5653 184.527 47.6364C184.527 46.7045 184.698 45.9048 185.039 45.2372C185.379 44.5668 185.845 44.0526 186.436 43.6946C187.027 43.3338 187.699 43.1534 188.452 43.1534C188.915 43.1534 189.347 43.2202 189.747 43.3537C190.151 43.4844 190.513 43.6776 190.834 43.9332C191.155 44.1861 191.421 44.4957 191.631 44.8622C191.841 45.2259 191.983 45.642 192.057 46.1108ZM193.633 52V43.2727H199.104V44.4062H194.949V47.0653H198.819V48.1946H194.949V50.8665H199.155V52H193.633ZM203.608 44.4062V43.2727H210.363V44.4062H207.64V52H206.327V44.4062H203.608ZM211.855 52V43.2727H213.172V47.0653H217.523V43.2727H218.844V52H217.523V48.1946H213.172V52H211.855ZM220.762 52V43.2727H223.872C224.548 43.2727 225.11 43.3892 225.556 43.6222C226.004 43.8551 226.34 44.1776 226.561 44.5895C226.783 44.9986 226.894 45.4716 226.894 46.0085C226.894 46.5426 226.781 47.0128 226.557 47.419C226.335 47.8224 226 48.1364 225.551 48.3608C225.105 48.5852 224.544 48.6974 223.868 48.6974H221.512V47.5639H223.749C224.175 47.5639 224.521 47.5028 224.789 47.3807C225.058 47.2585 225.256 47.081 225.381 46.848C225.506 46.6151 225.568 46.3352 225.568 46.0085C225.568 45.679 225.504 45.3935 225.377 45.152C225.252 44.9105 225.054 44.7259 224.784 44.598C224.517 44.4673 224.166 44.402 223.732 44.402H222.078V52H220.762ZM225.07 48.0625L227.226 52H225.726L223.612 48.0625H225.07ZM228.496 52V43.2727H233.968V44.4062H229.813V47.0653H233.682V48.1946H229.813V50.8665H234.019V52H228.496ZM236.464 52H235.066L238.206 43.2727H239.728L242.868 52H241.471L239.003 44.858H238.935L236.464 52ZM236.698 48.5824H241.232V49.6903H236.698V48.5824ZM242.667 44.4062V43.2727H249.421V44.4062H246.698V52H245.386V44.4062H242.667ZM255.674 45.5653C255.628 45.1619 255.441 44.8494 255.111 44.6278C254.782 44.4034 254.367 44.2912 253.867 44.2912C253.509 44.2912 253.199 44.348 252.938 44.4616C252.677 44.5724 252.474 44.7259 252.329 44.9219C252.187 45.1151 252.116 45.3352 252.116 45.5824C252.116 45.7898 252.164 45.9687 252.26 46.1193C252.36 46.2699 252.489 46.3963 252.648 46.4986C252.81 46.598 252.983 46.6818 253.168 46.75C253.353 46.8153 253.53 46.8693 253.701 46.9119L254.553 47.1335C254.831 47.2017 255.117 47.294 255.41 47.4105C255.702 47.527 255.974 47.6804 256.224 47.8707C256.474 48.0611 256.675 48.2969 256.829 48.5781C256.985 48.8594 257.063 49.196 257.063 49.5881C257.063 50.0824 256.935 50.5213 256.68 50.9048C256.427 51.2884 256.059 51.5909 255.576 51.8125C255.096 52.0341 254.515 52.1449 253.833 52.1449C253.18 52.1449 252.614 52.0412 252.137 51.8338C251.66 51.6264 251.286 51.3324 251.016 50.9517C250.746 50.5682 250.597 50.1136 250.569 49.5881H251.89C251.915 49.9034 252.018 50.1662 252.197 50.3764C252.378 50.5838 252.61 50.7386 252.891 50.8409C253.175 50.9403 253.486 50.9901 253.824 50.9901C254.197 50.9901 254.528 50.9318 254.817 50.8153C255.11 50.696 255.34 50.5312 255.508 50.321C255.675 50.108 255.759 49.8594 255.759 49.5753C255.759 49.3168 255.685 49.1051 255.537 48.9403C255.393 48.7756 255.195 48.6392 254.945 48.5312C254.698 48.4233 254.418 48.3281 254.106 48.2457L253.074 47.9645C252.376 47.7741 251.822 47.4943 251.412 47.125C251.006 46.7557 250.803 46.267 250.803 45.6591C250.803 45.1562 250.939 44.7173 251.212 44.3423C251.485 43.9673 251.854 43.6761 252.32 43.4688C252.786 43.2585 253.312 43.1534 253.897 43.1534C254.488 43.1534 255.009 43.2571 255.461 43.4645C255.915 43.6719 256.273 43.9574 256.535 44.321C256.796 44.6818 256.932 45.0966 256.944 45.5653H255.674Z" fill="#155757"/>
<path d="M135 65V63C135 59.6863 137.686 57 141 57H267C270.314 57 273 59.6863 273 63V65" stroke="#155757"/>
<path d="M45.0718 187H41.3564V175.523H45.1895C46.3141 175.523 47.2798 175.753 48.0868 176.212C48.8938 176.668 49.5121 177.324 49.9418 178.179C50.3751 179.031 50.5918 180.053 50.5918 181.245C50.5918 182.44 50.3733 183.468 49.9362 184.327C49.5028 185.186 48.8751 185.847 48.0532 186.311C47.2313 186.77 46.2375 187 45.0718 187ZM43.088 185.487H44.9766C45.8508 185.487 46.5775 185.323 47.1566 184.994C47.7356 184.661 48.169 184.181 48.4567 183.554C48.7444 182.922 48.8882 182.152 48.8882 181.245C48.8882 180.344 48.7444 179.58 48.4567 178.953C48.1728 178.325 47.7487 177.849 47.1846 177.524C46.6204 177.199 45.9199 177.036 45.0831 177.036H43.088V185.487ZM56.3206 187.174C55.4725 187.174 54.7421 186.993 54.1294 186.63C53.5204 186.264 53.0497 185.75 52.7172 185.089C52.3884 184.424 52.224 183.645 52.224 182.752C52.224 181.87 52.3884 181.093 52.7172 180.421C53.0497 179.748 53.5129 179.223 54.107 178.846C54.7047 178.469 55.4034 178.28 56.2029 178.28C56.6886 178.28 57.1593 178.36 57.6151 178.521C58.0709 178.682 58.48 178.934 58.8424 179.278C59.2048 179.621 59.4906 180.068 59.6998 180.617C59.909 181.162 60.0136 181.826 60.0136 182.606V183.2H53.1711V181.945H58.3717C58.3717 181.504 58.282 181.114 58.1027 180.774C57.9233 180.43 57.6712 180.159 57.3461 179.961C57.0248 179.763 56.6475 179.664 56.2141 179.664C55.7434 179.664 55.3324 179.78 54.9812 180.012C54.6338 180.24 54.3648 180.539 54.1742 180.908C53.9874 181.275 53.894 181.672 53.894 182.102V183.083C53.894 183.658 53.9949 184.148 54.1966 184.551C54.4021 184.955 54.6879 185.263 55.0541 185.476C55.4202 185.685 55.848 185.79 56.3374 185.79C56.655 185.79 56.9445 185.745 57.206 185.655C57.4675 185.562 57.6936 185.423 57.8841 185.24C58.0746 185.057 58.2203 184.831 58.3212 184.562L59.9072 184.848C59.7801 185.315 59.5522 185.724 59.2235 186.075C58.8984 186.423 58.4893 186.694 57.9962 186.888C57.5068 187.078 56.9482 187.174 56.3206 187.174ZM68.9899 178.392L65.8685 187H64.0752L60.9481 178.392H62.747L64.927 185.016H65.0167L67.191 178.392H68.9899ZM73.9817 187.174C73.1337 187.174 72.4033 186.993 71.7906 186.63C71.1816 186.264 70.7108 185.75 70.3783 185.089C70.0496 184.424 69.8852 183.645 69.8852 182.752C69.8852 181.87 70.0496 181.093 70.3783 180.421C70.7108 179.748 71.1741 179.223 71.7681 178.846C72.3659 178.469 73.0645 178.28 73.8641 178.28C74.3497 178.28 74.8205 178.36 75.2763 178.521C75.7321 178.682 76.1412 178.934 76.5036 179.278C76.866 179.621 77.1518 180.068 77.361 180.617C77.5702 181.162 77.6748 181.826 77.6748 182.606V183.2H70.8323V181.945H76.0328C76.0328 181.504 75.9432 181.114 75.7638 180.774C75.5845 180.43 75.3323 180.159 75.0073 179.961C74.686 179.763 74.3086 179.664 73.8753 179.664C73.4045 179.664 72.9936 179.78 72.6424 180.012C72.2949 180.24 72.0259 180.539 71.8354 180.908C71.6486 181.275 71.5552 181.672 71.5552 182.102V183.083C71.5552 183.658 71.6561 184.148 71.8578 184.551C72.0633 184.955 72.3491 185.263 72.7152 185.476C73.0814 185.685 73.5091 185.79 73.9985 185.79C74.3161 185.79 74.6057 185.745 74.8672 185.655C75.1287 185.562 75.3547 185.423 75.5453 185.24C75.7358 185.057 75.8815 184.831 75.9824 184.562L77.5683 184.848C77.4413 185.315 77.2134 185.724 76.8846 186.075C76.5596 186.423 76.1505 186.694 75.6573 186.888C75.1679 187.078 74.6094 187.174 73.9817 187.174ZM81.2096 175.523V187H79.5339V175.523H81.2096ZM87.0896 187.174C86.2826 187.174 85.5784 186.989 84.9769 186.619C84.3754 186.249 83.9084 185.732 83.5759 185.067C83.2434 184.402 83.0771 183.624 83.0771 182.735C83.0771 181.842 83.2434 181.062 83.5759 180.393C83.9084 179.724 84.3754 179.205 84.9769 178.835C85.5784 178.465 86.2826 178.28 87.0896 178.28C87.8966 178.28 88.6008 178.465 89.2023 178.835C89.8038 179.205 90.2708 179.724 90.6033 180.393C90.9359 181.062 91.1021 181.842 91.1021 182.735C91.1021 183.624 90.9359 184.402 90.6033 185.067C90.2708 185.732 89.8038 186.249 89.2023 186.619C88.6008 186.989 87.8966 187.174 87.0896 187.174ZM87.0952 185.767C87.6183 185.767 88.0516 185.629 88.3954 185.352C88.7391 185.076 88.9931 184.708 89.1575 184.248C89.3256 183.789 89.4097 183.283 89.4097 182.73C89.4097 182.181 89.3256 181.676 89.1575 181.217C88.9931 180.753 88.7391 180.382 88.3954 180.101C88.0516 179.821 87.6183 179.681 87.0952 179.681C86.5684 179.681 86.1313 179.821 85.7839 180.101C85.4402 180.382 85.1842 180.753 85.0161 181.217C84.8517 181.676 84.7695 182.181 84.7695 182.73C84.7695 183.283 84.8517 183.789 85.0161 184.248C85.1842 184.708 85.4402 185.076 85.7839 185.352C86.1313 185.629 86.5684 185.767 87.0952 185.767ZM92.9725 190.228V178.392H94.6088V179.788H94.7489C94.8461 179.608 94.9862 179.401 95.1692 179.166C95.3523 178.93 95.6064 178.725 95.9314 178.549C96.2564 178.37 96.6861 178.28 97.2203 178.28C97.9152 178.28 98.5354 178.456 99.0809 178.807C99.6263 179.158 100.054 179.664 100.364 180.326C100.678 180.987 100.835 181.783 100.835 182.713C100.835 183.643 100.68 184.441 100.37 185.106C100.06 185.767 99.6338 186.277 99.0921 186.636C98.5504 186.991 97.932 187.168 97.2371 187.168C96.7141 187.168 96.2863 187.08 95.9538 186.905C95.625 186.729 95.3673 186.524 95.1805 186.288C94.9937 186.053 94.8498 185.844 94.7489 185.661H94.6481V190.228H92.9725ZM94.6144 182.696C94.6144 183.301 94.7022 183.832 94.8778 184.288C95.0534 184.743 95.3075 185.1 95.64 185.358C95.9725 185.612 96.3797 185.739 96.8617 185.739C97.3623 185.739 97.7807 185.606 98.117 185.341C98.4532 185.072 98.7073 184.708 98.8791 184.248C99.0547 183.789 99.1425 183.271 99.1425 182.696C99.1425 182.128 99.0566 181.618 98.8847 181.166C98.7166 180.714 98.4626 180.357 98.1226 180.096C97.7863 179.834 97.366 179.704 96.8617 179.704C96.376 179.704 95.965 179.829 95.6288 180.079C95.2963 180.329 95.0441 180.679 94.8722 181.127C94.7004 181.575 94.6144 182.098 94.6144 182.696ZM106.422 187.174C105.574 187.174 104.844 186.993 104.231 186.63C103.622 186.264 103.151 185.75 102.819 185.089C102.49 184.424 102.326 183.645 102.326 182.752C102.326 181.87 102.49 181.093 102.819 180.421C103.151 179.748 103.615 179.223 104.209 178.846C104.806 178.469 105.505 178.28 106.304 178.28C106.79 178.28 107.261 178.36 107.717 178.521C108.173 178.682 108.582 178.934 108.944 179.278C109.306 179.621 109.592 180.068 109.801 180.617C110.011 181.162 110.115 181.826 110.115 182.606V183.2H103.273V181.945H108.473C108.473 181.504 108.384 181.114 108.204 180.774C108.025 180.43 107.773 180.159 107.448 179.961C107.126 179.763 106.749 179.664 106.316 179.664C105.845 179.664 105.434 179.78 105.083 180.012C104.735 180.24 104.466 180.539 104.276 180.908C104.089 181.275 103.996 181.672 103.996 182.102V183.083C103.996 183.658 104.096 184.148 104.298 184.551C104.504 184.955 104.79 185.263 105.156 185.476C105.522 185.685 105.95 185.79 106.439 185.79C106.757 185.79 107.046 185.745 107.308 185.655C107.569 185.562 107.795 185.423 107.986 185.24C108.176 185.057 108.322 184.831 108.423 184.562L110.009 184.848C109.882 185.315 109.654 185.724 109.325 186.075C109 186.423 108.591 186.694 108.098 186.888C107.608 187.078 107.05 187.174 106.422 187.174ZM111.974 187V178.392H113.594V179.76H113.684C113.841 179.296 114.117 178.932 114.513 178.667C114.913 178.398 115.365 178.263 115.869 178.263C115.974 178.263 116.097 178.267 116.239 178.274C116.385 178.282 116.499 178.291 116.581 178.303V179.905C116.514 179.887 116.394 179.866 116.222 179.844C116.05 179.817 115.879 179.804 115.707 179.804C115.311 179.804 114.958 179.888 114.648 180.057C114.341 180.221 114.098 180.451 113.919 180.746C113.74 181.037 113.65 181.37 113.65 181.743V187H111.974Z" fill="#102B2D"/>
<path d="M167.401 109.971C168.294 112.239 166.854 114.72 164.44 115.06C155.522 116.313 146.478 116.313 137.56 115.06C135.146 114.72 133.706 112.239 134.599 109.971C137.992 101.358 142.504 93.226 147.999 85.8407C149.504 83.8167 152.496 83.8167 154.001 85.8407C159.496 93.226 164.008 101.358 167.401 109.971Z" fill="#F03100"/>
<path d="M147.46 111H144.928L149.537 97.9091H152.465L157.08 111H154.548L151.052 100.594H150.95L147.46 111ZM147.543 105.867H154.446V107.772H147.543V105.867Z" fill="white"/>
<path d="M152 114.5C152 113.948 151.552 113.5 151 113.5C150.448 113.5 150 113.948 150 114.5H152ZM150 164C150 164.552 150.448 165 151 165C151.552 165 152 164.552 152 164H150ZM150 114.55C150 115.103 150.448 115.55 151 115.55C151.552 115.55 152 115.103 152 114.55H150ZM152 118.575C152 118.022 151.552 117.575 151 117.575C150.448 117.575 150 118.022 150 118.575H152ZM150 118.675C150 119.228 150.448 119.675 151 119.675C151.552 119.675 152 119.228 152 118.675H150ZM152 122.7C152 122.147 151.552 121.7 151 121.7C150.448 121.7 150 122.147 150 122.7H152ZM150 122.8C150 123.353 150.448 123.8 151 123.8C151.552 123.8 152 123.353 152 122.8H150ZM152 126.825C152 126.272 151.552 125.825 151 125.825C150.448 125.825 150 126.272 150 126.825H152ZM150 126.925C150 127.478 150.448 127.925 151 127.925C151.552 127.925 152 127.478 152 126.925H150ZM152 130.95C152 130.397 151.552 129.95 151 129.95C150.448 129.95 150 130.397 150 130.95H152ZM150 131.05C150 131.603 150.448 132.05 151 132.05C151.552 132.05 152 131.603 152 131.05H150ZM152 135.075C152 134.522 151.552 134.075 151 134.075C150.448 134.075 150 134.522 150 135.075H152ZM150 135.175C150 135.728 150.448 136.175 151 136.175C151.552 136.175 152 135.728 152 135.175H150ZM152 139.2C152 138.647 151.552 138.2 151 138.2C150.448 138.2 150 138.647 150 139.2H152ZM150 139.3C150 139.853 150.448 140.3 151 140.3C151.552 140.3 152 139.853 152 139.3H150ZM152 143.325C152 142.772 151.552 142.325 151 142.325C150.448 142.325 150 142.772 150 143.325H152ZM150 143.425C150 143.978 150.448 144.425 151 144.425C151.552 144.425 152 143.978 152 143.425H150ZM152 147.45C152 146.897 151.552 146.45 151 146.45C150.448 146.45 150 146.897 150 147.45H152ZM150 147.55C150 148.103 150.448 148.55 151 148.55C151.552 148.55 152 148.103 152 147.55H150ZM152 151.575C152 151.022 151.552 150.575 151 150.575C150.448 150.575 150 151.022 150 151.575H152ZM150 151.675C150 152.228 150.448 152.675 151 152.675C151.552 152.675 152 152.228 152 151.675H150ZM152 155.7C152 155.147 151.552 154.7 151 154.7C150.448 154.7 150 155.147 150 155.7H152ZM150 155.8C150 156.353 150.448 156.8 151 156.8C151.552 156.8 152 156.353 152 155.8H150ZM152 159.825C152 159.272 151.552 158.825 151 158.825C150.448 158.825 150 159.272 150 159.825H152ZM150 159.925C150 160.478 150.448 160.925 151 160.925C151.552 160.925 152 160.478 152 159.925H150ZM152 163.95C152 163.397 151.552 162.95 151 162.95C150.448 162.95 150 163.397 150 163.95H152ZM150 114.5V114.55H152V114.5H150ZM150 118.575V118.675H152V118.575H150ZM150 122.7V122.8H152V122.7H150ZM150 126.825V126.925H152V126.825H150ZM150 130.95V131.05H152V130.95H150ZM150 135.075V135.175H152V135.075H150ZM150 139.2V139.3H152V139.2H150ZM150 143.325V143.425H152V143.325H150ZM150 147.45V147.55H152V147.45H150ZM150 151.575V151.675H152V151.575H150ZM150 155.7V155.8H152V155.7H150ZM150 159.825V159.925H152V159.825H150ZM150 163.95V164H152V163.95H150Z" fill="#F03100"/>
<path d="M137 182L165 182" stroke="#58DA95" stroke-linejoin="round"/>
<path d="M149 176L155 182L149 188" stroke="#58DA95" stroke-linecap="square" stroke-linejoin="round"/>
<path d="M237.401 109.971C238.294 112.239 236.854 114.72 234.44 115.06C225.522 116.313 216.478 116.313 207.56 115.06C205.146 114.72 203.706 112.239 204.599 109.971C207.992 101.358 212.504 93.226 217.999 85.8407C219.504 83.8167 222.496 83.8167 224.001 85.8407C229.496 93.226 234.008 101.358 237.401 109.971Z" fill="#F03100"/>
<path d="M216.376 111V97.9091H221.388C222.334 97.9091 223.12 98.0582 223.746 98.3565C224.377 98.6506 224.848 99.0533 225.159 99.5646C225.474 100.076 225.632 100.656 225.632 101.303C225.632 101.836 225.53 102.292 225.325 102.671C225.12 103.046 224.846 103.351 224.5 103.585C224.155 103.82 223.77 103.988 223.343 104.09V104.218C223.808 104.244 224.253 104.386 224.679 104.646C225.11 104.902 225.461 105.264 225.734 105.733C226.007 106.202 226.143 106.768 226.143 107.433C226.143 108.111 225.979 108.72 225.651 109.261C225.323 109.798 224.829 110.222 224.168 110.533C223.508 110.844 222.677 111 221.675 111H216.376ZM218.748 109.018H221.298C222.159 109.018 222.779 108.854 223.158 108.526C223.542 108.194 223.733 107.768 223.733 107.248C223.733 106.86 223.638 106.511 223.446 106.2C223.254 105.884 222.981 105.637 222.628 105.458C222.274 105.275 221.852 105.183 221.362 105.183H218.748V109.018ZM218.748 103.477H221.093C221.503 103.477 221.871 103.402 222.199 103.253C222.527 103.099 222.785 102.884 222.973 102.607C223.165 102.326 223.26 101.994 223.26 101.61C223.26 101.103 223.081 100.685 222.723 100.357C222.37 100.029 221.843 99.8651 221.145 99.8651H218.748V103.477Z" fill="white"/>
<path d="M222 114.5C222 113.948 221.552 113.5 221 113.5C220.448 113.5 220 113.948 220 114.5H222ZM220 144C220 144.552 220.448 145 221 145C221.552 145 222 144.552 222 144H220ZM220 114.551C220 115.104 220.448 115.551 221 115.551C221.552 115.551 222 115.104 222 114.551H220ZM222 118.663C222 118.111 221.552 117.663 221 117.663C220.448 117.663 220 118.111 220 118.663H222ZM220 118.766C220 119.318 220.448 119.766 221 119.766C221.552 119.766 222 119.318 222 118.766H220ZM222 122.877C222 122.325 221.552 121.877 221 121.877C220.448 121.877 220 122.325 220 122.877H222ZM220 122.98C220 123.532 220.448 123.98 221 123.98C221.552 123.98 222 123.532 222 122.98H220ZM222 127.091C222 126.539 221.552 126.091 221 126.091C220.448 126.091 220 126.539 220 127.091H222ZM220 127.194C220 127.747 220.448 128.194 221 128.194C221.552 128.194 222 127.747 222 127.194H220ZM222 131.306C222 130.753 221.552 130.306 221 130.306C220.448 130.306 220 130.753 220 131.306H222ZM220 131.409C220 131.961 220.448 132.409 221 132.409C221.552 132.409 222 131.961 222 131.409H220ZM222 135.52C222 134.968 221.552 134.52 221 134.52C220.448 134.52 220 134.968 220 135.52H222ZM220 135.623C220 136.175 220.448 136.623 221 136.623C221.552 136.623 222 136.175 222 135.623H220ZM222 139.734C222 139.182 221.552 138.734 221 138.734C220.448 138.734 220 139.182 220 139.734H222ZM220 139.837C220 140.389 220.448 140.837 221 140.837C221.552 140.837 222 140.389 222 139.837H220ZM222 143.949C222 143.396 221.552 142.949 221 142.949C220.448 142.949 220 143.396 220 143.949H222ZM220 114.5V114.551H222V114.5H220ZM220 118.663V118.766H222V118.663H220ZM220 122.877V122.98H222V122.877H220ZM220 127.091V127.194H222V127.091H220ZM220 131.306V131.409H222V131.306H220ZM220 135.52V135.623H222V135.52H220ZM220 139.734V139.837H222V139.734H220ZM220 143.949V144H222V143.949H220Z" fill="#F03100"/>
<path d="M201.19 178.562C201.137 178.066 200.914 177.68 200.52 177.403C200.13 177.127 199.622 176.989 198.997 176.989C198.558 176.989 198.181 177.055 197.866 177.188C197.552 177.32 197.312 177.5 197.145 177.727C196.978 177.955 196.893 178.214 196.889 178.506C196.889 178.748 196.944 178.958 197.054 179.136C197.168 179.314 197.321 179.466 197.514 179.591C197.707 179.712 197.921 179.814 198.156 179.898C198.391 179.981 198.628 180.051 198.866 180.108L199.957 180.381C200.397 180.483 200.819 180.621 201.224 180.795C201.634 180.97 201.999 181.189 202.321 181.455C202.647 181.72 202.904 182.04 203.094 182.415C203.283 182.79 203.378 183.229 203.378 183.733C203.378 184.415 203.204 185.015 202.855 185.534C202.507 186.049 202.003 186.453 201.344 186.744C200.688 187.032 199.895 187.176 198.963 187.176C198.058 187.176 197.272 187.036 196.605 186.756C195.942 186.475 195.423 186.066 195.048 185.528C194.677 184.991 194.476 184.335 194.446 183.562H196.52C196.55 183.968 196.675 184.305 196.895 184.574C197.115 184.843 197.401 185.044 197.753 185.176C198.109 185.309 198.507 185.375 198.946 185.375C199.404 185.375 199.806 185.307 200.151 185.17C200.499 185.03 200.772 184.837 200.969 184.591C201.166 184.341 201.266 184.049 201.27 183.716C201.266 183.413 201.177 183.163 201.003 182.966C200.829 182.765 200.584 182.598 200.27 182.466C199.959 182.33 199.596 182.208 199.179 182.102L197.855 181.761C196.897 181.515 196.139 181.142 195.582 180.642C195.029 180.138 194.753 179.47 194.753 178.636C194.753 177.951 194.938 177.35 195.31 176.835C195.685 176.32 196.194 175.92 196.838 175.636C197.482 175.348 198.211 175.205 199.026 175.205C199.851 175.205 200.575 175.348 201.196 175.636C201.821 175.92 202.312 176.316 202.668 176.824C203.024 177.328 203.207 177.907 203.219 178.562H201.19ZM208.973 187.17C208.121 187.17 207.382 186.983 206.757 186.608C206.132 186.233 205.647 185.708 205.303 185.034C204.962 184.36 204.791 183.572 204.791 182.67C204.791 181.769 204.962 180.979 205.303 180.301C205.647 179.623 206.132 179.097 206.757 178.722C207.382 178.347 208.121 178.159 208.973 178.159C209.825 178.159 210.564 178.347 211.189 178.722C211.814 179.097 212.297 179.623 212.638 180.301C212.982 180.979 213.155 181.769 213.155 182.67C213.155 183.572 212.982 184.36 212.638 185.034C212.297 185.708 211.814 186.233 211.189 186.608C210.564 186.983 209.825 187.17 208.973 187.17ZM208.984 185.523C209.446 185.523 209.833 185.396 210.143 185.142C210.454 184.884 210.685 184.54 210.837 184.108C210.992 183.676 211.07 183.195 211.07 182.665C211.07 182.131 210.992 181.648 210.837 181.216C210.685 180.78 210.454 180.434 210.143 180.176C209.833 179.919 209.446 179.79 208.984 179.79C208.511 179.79 208.117 179.919 207.803 180.176C207.492 180.434 207.259 180.78 207.104 181.216C206.952 181.648 206.876 182.131 206.876 182.665C206.876 183.195 206.952 183.676 207.104 184.108C207.259 184.54 207.492 184.884 207.803 185.142C208.117 185.396 208.511 185.523 208.984 185.523ZM220.463 183.33V178.273H222.52V187H220.526V185.449H220.435C220.238 185.937 219.914 186.337 219.463 186.648C219.016 186.958 218.465 187.114 217.81 187.114C217.238 187.114 216.732 186.987 216.293 186.733C215.857 186.475 215.516 186.102 215.27 185.614C215.024 185.121 214.901 184.527 214.901 183.83V178.273H216.957V183.511C216.957 184.064 217.109 184.504 217.412 184.83C217.715 185.155 218.113 185.318 218.605 185.318C218.908 185.318 219.202 185.244 219.486 185.097C219.77 184.949 220.003 184.729 220.185 184.438C220.37 184.142 220.463 183.773 220.463 183.33ZM224.635 187V178.273H226.629V179.727H226.72C226.879 179.223 227.152 178.835 227.538 178.562C227.929 178.286 228.374 178.148 228.874 178.148C228.987 178.148 229.114 178.153 229.254 178.165C229.398 178.172 229.518 178.186 229.612 178.205V180.097C229.525 180.066 229.387 180.04 229.197 180.017C229.012 179.991 228.832 179.977 228.658 179.977C228.283 179.977 227.946 180.059 227.646 180.222C227.351 180.381 227.118 180.602 226.947 180.886C226.777 181.17 226.692 181.498 226.692 181.869V187H224.635ZM234.426 187.17C233.555 187.17 232.807 186.979 232.182 186.597C231.561 186.214 231.081 185.686 230.744 185.011C230.411 184.333 230.244 183.553 230.244 182.67C230.244 181.784 230.415 181.002 230.756 180.324C231.097 179.642 231.578 179.112 232.199 178.733C232.824 178.35 233.563 178.159 234.415 178.159C235.123 178.159 235.75 178.29 236.295 178.551C236.845 178.809 237.282 179.174 237.608 179.648C237.934 180.117 238.119 180.667 238.165 181.295H236.199C236.119 180.875 235.93 180.525 235.631 180.244C235.335 179.96 234.939 179.818 234.443 179.818C234.023 179.818 233.653 179.932 233.335 180.159C233.017 180.383 232.769 180.705 232.591 181.125C232.417 181.545 232.33 182.049 232.33 182.636C232.33 183.231 232.417 183.742 232.591 184.17C232.765 184.595 233.009 184.922 233.324 185.153C233.642 185.381 234.015 185.494 234.443 185.494C234.746 185.494 235.017 185.437 235.256 185.324C235.498 185.206 235.701 185.038 235.864 184.818C236.027 184.598 236.138 184.331 236.199 184.017H238.165C238.116 184.634 237.934 185.182 237.619 185.659C237.305 186.133 236.877 186.504 236.335 186.773C235.794 187.038 235.157 187.17 234.426 187.17ZM243.717 187.17C242.842 187.17 242.087 186.989 241.45 186.625C240.818 186.258 240.331 185.739 239.99 185.068C239.649 184.394 239.479 183.6 239.479 182.688C239.479 181.79 239.649 181.002 239.99 180.324C240.335 179.642 240.816 179.112 241.433 178.733C242.051 178.35 242.776 178.159 243.609 178.159C244.147 178.159 244.655 178.246 245.132 178.42C245.613 178.591 246.037 178.856 246.405 179.216C246.776 179.576 247.068 180.034 247.28 180.591C247.492 181.144 247.598 181.803 247.598 182.568V183.199H240.445V181.812H245.626C245.623 181.419 245.537 181.068 245.371 180.761C245.204 180.451 244.971 180.206 244.672 180.028C244.376 179.85 244.032 179.761 243.638 179.761C243.217 179.761 242.848 179.864 242.53 180.068C242.212 180.269 241.964 180.534 241.786 180.864C241.611 181.189 241.522 181.547 241.518 181.938V183.148C241.518 183.655 241.611 184.091 241.797 184.455C241.982 184.814 242.242 185.091 242.575 185.284C242.909 185.473 243.299 185.568 243.746 185.568C244.045 185.568 244.316 185.527 244.558 185.443C244.801 185.356 245.011 185.229 245.189 185.062C245.367 184.896 245.501 184.689 245.592 184.443L247.513 184.659C247.392 185.167 247.161 185.61 246.82 185.989C246.482 186.364 246.051 186.655 245.524 186.864C244.998 187.068 244.395 187.17 243.717 187.17Z" fill="#102B2D"/>
<rect x="168.5" y="145" width="105" height="71" rx="7" stroke="#58DA95" stroke-width="2"/>
<path d="M417.388 52V43.2727H420.585C421.204 43.2727 421.717 43.375 422.123 43.5795C422.529 43.7812 422.833 44.0554 423.035 44.402C423.237 44.7457 423.337 45.1335 423.337 45.5653C423.337 45.929 423.271 46.2358 423.137 46.4858C423.004 46.733 422.825 46.9318 422.6 47.0824C422.379 47.2301 422.134 47.3381 421.867 47.4062V47.4915C422.157 47.5057 422.44 47.5994 422.715 47.7727C422.994 47.9432 423.224 48.1861 423.406 48.5014C423.587 48.8168 423.678 49.2003 423.678 49.652C423.678 50.098 423.573 50.4986 423.363 50.8537C423.156 51.206 422.835 51.4858 422.4 51.6932C421.965 51.8977 421.41 52 420.734 52H417.388ZM418.705 50.8707H420.606C421.237 50.8707 421.688 50.7486 421.961 50.5043C422.234 50.2599 422.37 49.9545 422.37 49.5881C422.37 49.3125 422.3 49.0597 422.161 48.8295C422.022 48.5994 421.823 48.4162 421.565 48.2798C421.309 48.1435 421.005 48.0753 420.653 48.0753H418.705V50.8707ZM418.705 47.0483H420.469C420.765 47.0483 421.031 46.9915 421.266 46.8778C421.505 46.7642 421.694 46.6051 421.833 46.4006C421.975 46.1932 422.046 45.9489 422.046 45.6676C422.046 45.3068 421.92 45.0043 421.667 44.7599C421.414 44.5156 421.026 44.3935 420.504 44.3935H418.705V47.0483ZM430.852 43.2727H432.173V49.0128C432.173 49.6236 432.03 50.1648 431.743 50.6364C431.456 51.1051 431.053 51.4744 430.533 51.7443C430.013 52.0114 429.403 52.1449 428.705 52.1449C428.009 52.1449 427.401 52.0114 426.881 51.7443C426.361 51.4744 425.957 51.1051 425.67 50.6364C425.384 50.1648 425.24 49.6236 425.24 49.0128V43.2727H426.557V48.9062C426.557 49.3011 426.643 49.652 426.817 49.9588C426.993 50.2656 427.241 50.5071 427.562 50.6832C427.884 50.8565 428.264 50.9432 428.705 50.9432C429.148 50.9432 429.53 50.8565 429.851 50.6832C430.175 50.5071 430.422 50.2656 430.592 49.9588C430.766 49.652 430.852 49.3011 430.852 48.9062V43.2727ZM435.404 43.2727V52H434.088V43.2727H435.404ZM437.322 52V43.2727H438.639V50.8665H442.593V52H437.322ZM446.921 52H444.096V43.2727H447.01C447.865 43.2727 448.6 43.4474 449.213 43.7969C449.827 44.1435 450.297 44.642 450.624 45.2926C450.953 45.9403 451.118 46.7173 451.118 47.6236C451.118 48.5327 450.952 49.3139 450.62 49.9673C450.29 50.6207 449.813 51.1236 449.188 51.4759C448.563 51.8253 447.807 52 446.921 52ZM445.412 50.8494H446.848C447.513 50.8494 448.066 50.7244 448.506 50.4744C448.946 50.2216 449.276 49.8565 449.495 49.3793C449.713 48.8991 449.823 48.3139 449.823 47.6236C449.823 46.9389 449.713 46.358 449.495 45.8807C449.279 45.4034 448.956 45.0412 448.527 44.794C448.098 44.5469 447.566 44.4233 446.929 44.4233H445.412V50.8494ZM455.501 44.4062V43.2727H462.255V44.4062H459.532V52H458.22V44.4062H455.501ZM463.748 52V43.2727H465.065V47.0653H469.415V43.2727H470.737V52H469.415V48.1946H465.065V52H463.748ZM472.654 52V43.2727H475.765C476.441 43.2727 477.002 43.3892 477.448 43.6222C477.897 43.8551 478.232 44.1776 478.454 44.5895C478.675 44.9986 478.786 45.4716 478.786 46.0085C478.786 46.5426 478.674 47.0128 478.45 47.419C478.228 47.8224 477.893 48.1364 477.444 48.3608C476.998 48.5852 476.437 48.6974 475.761 48.6974H473.404V47.5639H475.641C476.067 47.5639 476.414 47.5028 476.681 47.3807C476.951 47.2585 477.148 47.081 477.273 46.848C477.398 46.6151 477.461 46.3352 477.461 46.0085C477.461 45.679 477.397 45.3935 477.269 45.152C477.144 44.9105 476.947 44.7259 476.677 44.598C476.41 44.4673 476.059 44.402 475.624 44.402H473.971V52H472.654ZM476.962 48.0625L479.119 52H477.619L475.505 48.0625H476.962ZM480.388 52V43.2727H485.86V44.4062H481.705V47.0653H485.575V48.1946H481.705V50.8665H485.911V52H480.388ZM488.356 52H486.958L490.099 43.2727H491.62L494.761 52H493.363L490.896 44.858H490.828L488.356 52ZM488.591 48.5824H493.125V49.6903H488.591V48.5824ZM494.56 44.4062V43.2727H501.314V44.4062H498.591V52H497.278V44.4062H494.56ZM507.566 45.5653C507.521 45.1619 507.333 44.8494 507.004 44.6278C506.674 44.4034 506.26 44.2912 505.76 44.2912C505.402 44.2912 505.092 44.348 504.831 44.4616C504.569 44.5724 504.366 44.7259 504.221 44.9219C504.079 45.1151 504.008 45.3352 504.008 45.5824C504.008 45.7898 504.056 45.9687 504.153 46.1193C504.252 46.2699 504.382 46.3963 504.541 46.4986C504.703 46.598 504.876 46.6818 505.061 46.75C505.245 46.8153 505.423 46.8693 505.593 46.9119L506.446 47.1335C506.724 47.2017 507.01 47.294 507.302 47.4105C507.595 47.527 507.866 47.6804 508.116 47.8707C508.366 48.0611 508.568 48.2969 508.721 48.5781C508.877 48.8594 508.956 49.196 508.956 49.5881C508.956 50.0824 508.828 50.5213 508.572 50.9048C508.319 51.2884 507.951 51.5909 507.468 51.8125C506.988 52.0341 506.407 52.1449 505.725 52.1449C505.072 52.1449 504.507 52.0412 504.029 51.8338C503.552 51.6264 503.179 51.3324 502.909 50.9517C502.639 50.5682 502.49 50.1136 502.461 49.5881H503.782C503.808 49.9034 503.91 50.1662 504.089 50.3764C504.271 50.5838 504.502 50.7386 504.784 50.8409C505.068 50.9403 505.379 50.9901 505.717 50.9901C506.089 50.9901 506.42 50.9318 506.71 50.8153C507.002 50.696 507.233 50.5312 507.4 50.321C507.568 50.108 507.652 49.8594 507.652 49.5753C507.652 49.3168 507.578 49.1051 507.43 48.9403C507.285 48.7756 507.088 48.6392 506.838 48.5312C506.591 48.4233 506.311 48.3281 505.998 48.2457L504.967 47.9645C504.268 47.7741 503.714 47.4943 503.305 47.125C502.899 46.7557 502.696 46.267 502.696 45.6591C502.696 45.1562 502.832 44.7173 503.105 44.3423C503.377 43.9673 503.747 43.6761 504.213 43.4688C504.679 43.2585 505.204 43.1534 505.789 43.1534C506.38 43.1534 506.902 43.2571 507.353 43.4645C507.808 43.6719 508.166 43.9574 508.427 44.321C508.689 44.6818 508.825 45.0966 508.836 45.5653H507.566Z" fill="#155757"/>
<path d="M273 65V63C273 59.6863 275.686 57 279 57H647C650.314 57 653 59.6863 653 63V65" stroke="#155757"/>
<path d="M325.401 109.971C326.294 112.239 324.854 114.72 322.44 115.06C313.522 116.313 304.478 116.313 295.56 115.06C293.146 114.72 291.706 112.239 292.599 109.971C295.992 101.358 300.504 93.226 305.999 85.8407C307.504 83.8167 310.496 83.8167 312.001 85.8407C317.496 93.226 322.008 101.358 325.401 109.971Z" fill="#F03100"/>
<path d="M314.808 102.326H312.417C312.349 101.934 312.223 101.587 312.04 101.284C311.857 100.977 311.629 100.717 311.356 100.504C311.084 100.291 310.772 100.131 310.423 100.025C310.078 99.9141 309.705 99.8587 309.304 99.8587C308.593 99.8587 307.962 100.038 307.412 100.396C306.863 100.749 306.432 101.269 306.121 101.955C305.81 102.637 305.655 103.47 305.655 104.455C305.655 105.456 305.81 106.3 306.121 106.986C306.437 107.668 306.867 108.183 307.412 108.533C307.962 108.878 308.591 109.05 309.298 109.05C309.69 109.05 310.057 108.999 310.397 108.897C310.743 108.79 311.052 108.635 311.324 108.43C311.601 108.226 311.834 107.974 312.021 107.676C312.213 107.378 312.345 107.037 312.417 106.653L314.808 106.666C314.718 107.288 314.525 107.872 314.226 108.418C313.932 108.963 313.547 109.445 313.069 109.862C312.592 110.276 312.034 110.599 311.395 110.834C310.755 111.064 310.046 111.179 309.266 111.179C308.116 111.179 307.089 110.913 306.185 110.38C305.282 109.847 304.57 109.078 304.05 108.072C303.53 107.067 303.27 105.861 303.27 104.455C303.27 103.044 303.532 101.838 304.057 100.837C304.581 99.831 305.294 99.0618 306.198 98.5291C307.101 97.9964 308.124 97.7301 309.266 97.7301C309.995 97.7301 310.672 97.8324 311.299 98.0369C311.925 98.2415 312.483 98.5419 312.973 98.9382C313.464 99.3303 313.866 99.8118 314.182 100.383C314.501 100.95 314.71 101.597 314.808 102.326Z" fill="white"/>
<path d="M310 114.5C310 113.948 309.552 113.5 309 113.5C308.448 113.5 308 113.948 308 114.5H310ZM308 164C308 164.552 308.448 165 309 165C309.552 165 310 164.552 310 164H308ZM308 114.55C308 115.103 308.448 115.55 309 115.55C309.552 115.55 310 115.103 310 114.55H308ZM310 118.575C310 118.022 309.552 117.575 309 117.575C308.448 117.575 308 118.022 308 118.575H310ZM308 118.675C308 119.228 308.448 119.675 309 119.675C309.552 119.675 310 119.228 310 118.675H308ZM310 122.7C310 122.147 309.552 121.7 309 121.7C308.448 121.7 308 122.147 308 122.7H310ZM308 122.8C308 123.353 308.448 123.8 309 123.8C309.552 123.8 310 123.353 310 122.8H308ZM310 126.825C310 126.272 309.552 125.825 309 125.825C308.448 125.825 308 126.272 308 126.825H310ZM308 126.925C308 127.478 308.448 127.925 309 127.925C309.552 127.925 310 127.478 310 126.925H308ZM310 130.95C310 130.397 309.552 129.95 309 129.95C308.448 129.95 308 130.397 308 130.95H310ZM308 131.05C308 131.603 308.448 132.05 309 132.05C309.552 132.05 310 131.603 310 131.05H308ZM310 135.075C310 134.522 309.552 134.075 309 134.075C308.448 134.075 308 134.522 308 135.075H310ZM308 135.175C308 135.728 308.448 136.175 309 136.175C309.552 136.175 310 135.728 310 135.175H308ZM310 139.2C310 138.647 309.552 138.2 309 138.2C308.448 138.2 308 138.647 308 139.2H310ZM308 139.3C308 139.853 308.448 140.3 309 140.3C309.552 140.3 310 139.853 310 139.3H308ZM310 143.325C310 142.772 309.552 142.325 309 142.325C308.448 142.325 308 142.772 308 143.325H310ZM308 143.425C308 143.978 308.448 144.425 309 144.425C309.552 144.425 310 143.978 310 143.425H308ZM310 147.45C310 146.897 309.552 146.45 309 146.45C308.448 146.45 308 146.897 308 147.45H310ZM308 147.55C308 148.103 308.448 148.55 309 148.55C309.552 148.55 310 148.103 310 147.55H308ZM310 151.575C310 151.022 309.552 150.575 309 150.575C308.448 150.575 308 151.022 308 151.575H310ZM308 151.675C308 152.228 308.448 152.675 309 152.675C309.552 152.675 310 152.228 310 151.675H308ZM310 155.7C310 155.147 309.552 154.7 309 154.7C308.448 154.7 308 155.147 308 155.7H310ZM308 155.8C308 156.353 308.448 156.8 309 156.8C309.552 156.8 310 156.353 310 155.8H308ZM310 159.825C310 159.272 309.552 158.825 309 158.825C308.448 158.825 308 159.272 308 159.825H310ZM308 159.925C308 160.478 308.448 160.925 309 160.925C309.552 160.925 310 160.478 310 159.925H308ZM310 163.95C310 163.397 309.552 162.95 309 162.95C308.448 162.95 308 163.397 308 163.95H310ZM308 114.5V114.55H310V114.5H308ZM308 118.575V118.675H310V118.575H308ZM308 122.7V122.8H310V122.7H308ZM308 126.825V126.925H310V126.825H308ZM308 130.95V131.05H310V130.95H308ZM308 135.075V135.175H310V135.075H308ZM308 139.2V139.3H310V139.2H308ZM308 143.325V143.425H310V143.325H308ZM308 147.45V147.55H310V147.45H308ZM308 151.575V151.675H310V151.575H308ZM308 155.7V155.8H310V155.7H308ZM308 159.825V159.925H310V159.825H308ZM308 163.95V164H310V163.95H308Z" fill="#F03100"/>
<path d="M277 182L341 182" stroke="#58DA95" stroke-linejoin="round"/>
<path d="M307 176L313 182L307 188" stroke="#58DA95" stroke-linecap="square" stroke-linejoin="round"/>
<path d="M407.401 109.971C408.294 112.239 406.854 114.72 404.44 115.06C395.522 116.313 386.478 116.313 377.56 115.06C375.146 114.72 373.706 112.239 374.599 109.971C377.992 101.358 382.504 93.226 387.999 85.8407C389.504 83.8167 392.496 83.8167 394.001 85.8407C399.496 93.226 404.008 101.358 407.401 109.971Z" fill="#F03100"/>
<path d="M390.206 111H385.77V97.9091H390.295C391.595 97.9091 392.711 98.1712 393.645 98.6953C394.582 99.2152 395.302 99.9631 395.805 100.939C396.308 101.915 396.559 103.082 396.559 104.442C396.559 105.805 396.306 106.977 395.799 107.957C395.296 108.937 394.569 109.69 393.619 110.214C392.673 110.738 391.535 111 390.206 111ZM388.141 108.948H390.091C391.003 108.948 391.763 108.782 392.373 108.45C392.982 108.113 393.44 107.612 393.747 106.947C394.054 106.278 394.207 105.443 394.207 104.442C394.207 103.44 394.054 102.609 393.747 101.949C393.44 101.284 392.986 100.788 392.385 100.46C391.789 100.127 391.047 99.9609 390.161 99.9609H388.141V108.948Z" fill="white"/>
<path d="M392 114.5C392 113.948 391.552 113.5 391 113.5C390.448 113.5 390 113.948 390 114.5H392ZM390 144C390 144.552 390.448 145 391 145C391.552 145 392 144.552 392 144H390ZM390 114.551C390 115.104 390.448 115.551 391 115.551C391.552 115.551 392 115.104 392 114.551H390ZM392 118.663C392 118.111 391.552 117.663 391 117.663C390.448 117.663 390 118.111 390 118.663H392ZM390 118.766C390 119.318 390.448 119.766 391 119.766C391.552 119.766 392 119.318 392 118.766H390ZM392 122.877C392 122.325 391.552 121.877 391 121.877C390.448 121.877 390 122.325 390 122.877H392ZM390 122.98C390 123.532 390.448 123.98 391 123.98C391.552 123.98 392 123.532 392 122.98H390ZM392 127.091C392 126.539 391.552 126.091 391 126.091C390.448 126.091 390 126.539 390 127.091H392ZM390 127.194C390 127.747 390.448 128.194 391 128.194C391.552 128.194 392 127.747 392 127.194H390ZM392 131.306C392 130.753 391.552 130.306 391 130.306C390.448 130.306 390 130.753 390 131.306H392ZM390 131.409C390 131.961 390.448 132.409 391 132.409C391.552 132.409 392 131.961 392 131.409H390ZM392 135.52C392 134.968 391.552 134.52 391 134.52C390.448 134.52 390 134.968 390 135.52H392ZM390 135.623C390 136.175 390.448 136.623 391 136.623C391.552 136.623 392 136.175 392 135.623H390ZM392 139.734C392 139.182 391.552 138.734 391 138.734C390.448 138.734 390 139.182 390 139.734H392ZM390 139.837C390 140.389 390.448 140.837 391 140.837C391.552 140.837 392 140.389 392 139.837H390ZM392 143.949C392 143.396 391.552 142.949 391 142.949C390.448 142.949 390 143.396 390 143.949H392ZM390 114.5V114.551H392V114.5H390ZM390 118.663V118.766H392V118.663H390ZM390 122.877V122.98H392V122.877H390ZM390 127.091V127.194H392V127.091H390ZM390 131.306V131.409H392V131.306H390ZM390 135.52V135.623H392V135.52H390ZM390 139.734V139.837H392V139.734H390ZM390 143.949V144H392V143.949H390Z" fill="#F03100"/>
<mask id="path-24-inside-1_2_14" fill="white">
<path fill-rule="evenodd" clip-rule="evenodd" d="M345.345 184.071C350.164 197.828 358.776 209.884 370.149 218.798C371.234 219.648 372.575 220.082 373.944 220.082H407.643H408.643V220.004C409.655 219.844 410.619 219.44 411.438 218.798C422.811 209.884 431.423 197.828 436.242 184.071C436.702 182.758 436.702 181.324 436.242 180.012C431.423 166.255 422.811 154.198 411.438 145.284C410.619 144.643 409.655 144.238 408.643 144.078V144H407.643H373.944C372.575 144 371.234 144.434 370.149 145.284C358.776 154.198 350.164 166.255 345.345 180.012C344.885 181.324 344.885 182.758 345.345 184.071Z"/>
</mask>
<path d="M370.149 218.798L371.383 217.224L371.383 217.224L370.149 218.798ZM345.345 184.071L347.232 183.409V183.409L345.345 184.071ZM408.643 220.082V222.082H410.643V220.082H408.643ZM408.643 220.004L408.33 218.029L406.643 218.295V220.004H408.643ZM411.438 218.798L410.204 217.224V217.224L411.438 218.798ZM436.242 184.071L434.355 183.409V183.409L436.242 184.071ZM436.242 180.012L434.355 180.673V180.673L436.242 180.012ZM411.438 145.284L412.671 143.71V143.71L411.438 145.284ZM408.643 144.078H406.643V145.787L408.33 146.054L408.643 144.078ZM408.643 144H410.643V142H408.643V144ZM370.149 145.284L371.383 146.859V146.859L370.149 145.284ZM345.345 180.012L347.232 180.673L347.232 180.673L345.345 180.012ZM371.383 217.224C360.313 208.548 351.927 196.809 347.232 183.409L343.457 184.732C348.402 198.846 357.239 211.221 368.916 220.372L371.383 217.224ZM373.944 218.082C372.995 218.082 372.095 217.782 371.383 217.224L368.916 220.372C370.373 221.514 372.154 222.082 373.944 222.082V218.082ZM407.643 218.082H373.944V222.082H407.643V218.082ZM408.643 218.082H407.643V222.082H408.643V218.082ZM406.643 220.004V220.082H410.643V220.004H406.643ZM408.955 221.98C410.287 221.769 411.572 221.234 412.671 220.372L410.204 217.224C409.666 217.645 409.023 217.919 408.33 218.029L408.955 221.98ZM412.671 220.372C424.348 211.221 433.185 198.846 438.13 184.732L434.355 183.409C429.66 196.809 421.274 208.548 410.204 217.224L412.671 220.372ZM438.13 184.732C438.739 182.991 438.739 181.091 438.13 179.35L434.355 180.673C434.664 181.557 434.664 182.525 434.355 183.409L438.13 184.732ZM438.13 179.35C433.185 165.236 424.348 152.862 412.671 143.71L410.204 146.859C421.274 155.534 429.66 167.273 434.355 180.673L438.13 179.35ZM412.671 143.71C411.572 142.849 410.287 142.313 408.955 142.103L408.33 146.054C409.023 146.163 409.666 146.437 410.204 146.859L412.671 143.71ZM406.643 144V144.078H410.643V144H406.643ZM407.643 146H408.643V142H407.643V146ZM373.944 146H407.643V142H373.944V146ZM371.383 146.859C372.095 146.3 372.995 146 373.944 146V142C372.154 142 370.373 142.568 368.916 143.71L371.383 146.859ZM347.232 180.673C351.927 167.273 360.313 155.534 371.383 146.859L368.916 143.71C357.239 152.862 348.402 165.236 343.457 179.35L347.232 180.673ZM347.232 183.409C346.923 182.525 346.923 181.557 347.232 180.673L343.457 179.35C342.848 181.091 342.848 182.991 343.457 184.732L347.232 183.409Z" fill="#58DA95" mask="url(#path-24-inside-1_2_14)"/>
<path d="M373.561 189V177.523H377.954C378.784 177.523 379.473 177.654 380.022 177.915C380.575 178.173 380.988 178.526 381.261 178.974C381.537 179.423 381.675 179.931 381.675 180.499C381.675 180.966 381.586 181.365 381.406 181.698C381.227 182.027 380.986 182.294 380.683 182.499C380.381 182.705 380.043 182.852 379.669 182.942V183.054C380.076 183.077 380.467 183.202 380.84 183.43C381.218 183.654 381.526 183.971 381.765 184.382C382.004 184.793 382.124 185.29 382.124 185.873C382.124 186.467 381.98 187.001 381.692 187.476C381.405 187.946 380.971 188.318 380.392 188.591C379.813 188.864 379.084 189 378.206 189H373.561ZM375.64 187.263H377.876C378.631 187.263 379.174 187.119 379.507 186.831C379.843 186.54 380.011 186.166 380.011 185.71C380.011 185.37 379.927 185.064 379.759 184.791C379.591 184.515 379.352 184.298 379.041 184.141C378.731 183.981 378.362 183.9 377.932 183.9H375.64V187.263ZM375.64 182.404H377.697C378.055 182.404 378.378 182.339 378.666 182.208C378.954 182.073 379.18 181.885 379.344 181.642C379.512 181.395 379.596 181.104 379.596 180.768C379.596 180.323 379.439 179.957 379.126 179.669C378.815 179.382 378.354 179.238 377.741 179.238H375.64V182.404ZM389.329 185.38V180.392H391.358V189H389.391V187.47H389.301C389.107 187.952 388.787 188.346 388.343 188.653C387.902 188.959 387.358 189.112 386.712 189.112C386.148 189.112 385.649 188.987 385.216 188.737C384.786 188.483 384.45 188.115 384.207 187.633C383.964 187.147 383.843 186.56 383.843 185.873V180.392H385.871V185.559C385.871 186.105 386.021 186.538 386.32 186.859C386.619 187.181 387.011 187.341 387.497 187.341C387.795 187.341 388.085 187.268 388.365 187.123C388.645 186.977 388.875 186.76 389.055 186.473C389.238 186.181 389.329 185.817 389.329 185.38ZM393.444 189V180.392H395.473V189H393.444ZM394.464 179.17C394.143 179.17 393.866 179.064 393.634 178.851C393.403 178.634 393.287 178.375 393.287 178.072C393.287 177.766 393.403 177.506 393.634 177.293C393.866 177.076 394.143 176.968 394.464 176.968C394.789 176.968 395.065 177.076 395.293 177.293C395.525 177.506 395.641 177.766 395.641 178.072C395.641 178.375 395.525 178.634 395.293 178.851C395.065 179.064 394.789 179.17 394.464 179.17ZM399.587 177.523V189H397.559V177.523H399.587ZM404.868 189.151C404.192 189.151 403.586 188.978 403.052 188.63C402.518 188.283 402.096 187.778 401.786 187.117C401.475 186.456 401.32 185.653 401.32 184.707C401.32 183.751 401.477 182.944 401.791 182.286C402.109 181.625 402.536 181.126 403.074 180.79C403.612 180.45 404.212 180.28 404.873 180.28C405.378 180.28 405.792 180.366 406.117 180.538C406.442 180.706 406.7 180.91 406.891 181.149C407.081 181.384 407.229 181.606 407.334 181.816H407.418V177.523H409.452V189H407.457V187.644H407.334C407.229 187.853 407.078 188.075 406.88 188.311C406.682 188.542 406.42 188.74 406.095 188.905C405.77 189.069 405.361 189.151 404.868 189.151ZM405.434 187.487C405.863 187.487 406.23 187.371 406.532 187.139C406.835 186.904 407.065 186.577 407.221 186.159C407.378 185.74 407.457 185.253 407.457 184.696C407.457 184.139 407.378 183.656 407.221 183.245C407.068 182.834 406.84 182.514 406.538 182.286C406.239 182.058 405.871 181.945 405.434 181.945C404.982 181.945 404.604 182.062 404.302 182.298C403.999 182.533 403.771 182.858 403.618 183.273C403.465 183.687 403.388 184.162 403.388 184.696C403.388 185.234 403.465 185.714 403.618 186.136C403.775 186.555 404.005 186.885 404.307 187.128C404.614 187.367 404.989 187.487 405.434 187.487Z" fill="#102B2D"/>
<path d="M391 252L391 224" stroke="#58DA95" stroke-linejoin="round"/>
<path d="M385 240L391 234L397 240" stroke="#58DA95" stroke-linecap="square" stroke-linejoin="round"/>
<path d="M489.401 109.971C490.294 112.239 488.854 114.72 486.44 115.06C477.522 116.313 468.478 116.313 459.56 115.06C457.146 114.72 455.706 112.239 456.599 109.971C459.992 101.358 464.504 93.226 469.999 85.8407C471.504 83.8167 474.496 83.8167 476.001 85.8407C481.496 93.226 486.008 101.358 489.401 109.971Z" fill="#F03100"/>
<path d="M469.018 111V97.9091H477.404V99.897H471.389V103.451H476.829V105.439H471.389V111H469.018Z" fill="white"/>
<path d="M474 114.5C474 113.948 473.552 113.5 473 113.5C472.448 113.5 472 113.948 472 114.5H474ZM472 164C472 164.552 472.448 165 473 165C473.552 165 474 164.552 474 164H472ZM472 114.55C472 115.103 472.448 115.55 473 115.55C473.552 115.55 474 115.103 474 114.55H472ZM474 118.575C474 118.022 473.552 117.575 473 117.575C472.448 117.575 472 118.022 472 118.575H474ZM472 118.675C472 119.228 472.448 119.675 473 119.675C473.552 119.675 474 119.228 474 118.675H472ZM474 122.7C474 122.147 473.552 121.7 473 121.7C472.448 121.7 472 122.147 472 122.7H474ZM472 122.8C472 123.353 472.448 123.8 473 123.8C473.552 123.8 474 123.353 474 122.8H472ZM474 126.825C474 126.272 473.552 125.825 473 125.825C472.448 125.825 472 126.272 472 126.825H474ZM472 126.925C472 127.478 472.448 127.925 473 127.925C473.552 127.925 474 127.478 474 126.925H472ZM474 130.95C474 130.397 473.552 129.95 473 129.95C472.448 129.95 472 130.397 472 130.95H474ZM472 131.05C472 131.603 472.448 132.05 473 132.05C473.552 132.05 474 131.603 474 131.05H472ZM474 135.075C474 134.522 473.552 134.075 473 134.075C472.448 134.075 472 134.522 472 135.075H474ZM472 135.175C472 135.728 472.448 136.175 473 136.175C473.552 136.175 474 135.728 474 135.175H472ZM474 139.2C474 138.647 473.552 138.2 473 138.2C472.448 138.2 472 138.647 472 139.2H474ZM472 139.3C472 139.853 472.448 140.3 473 140.3C473.552 140.3 474 139.853 474 139.3H472ZM474 143.325C474 142.772 473.552 142.325 473 142.325C472.448 142.325 472 142.772 472 143.325H474ZM472 143.425C472 143.978 472.448 144.425 473 144.425C473.552 144.425 474 143.978 474 143.425H472ZM474 147.45C474 146.897 473.552 146.45 473 146.45C472.448 146.45 472 146.897 472 147.45H474ZM472 147.55C472 148.103 472.448 148.55 473 148.55C473.552 148.55 474 148.103 474 147.55H472ZM474 151.575C474 151.022 473.552 150.575 473 150.575C472.448 150.575 472 151.022 472 151.575H474ZM472 151.675C472 152.228 472.448 152.675 473 152.675C473.552 152.675 474 152.228 474 151.675H472ZM474 155.7C474 155.147 473.552 154.7 473 154.7C472.448 154.7 472 155.147 472 155.7H474ZM472 155.8C472 156.353 472.448 156.8 473 156.8C473.552 156.8 474 156.353 474 155.8H472ZM474 159.825C474 159.272 473.552 158.825 473 158.825C472.448 158.825 472 159.272 472 159.825H474ZM472 159.925C472 160.478 472.448 160.925 473 160.925C473.552 160.925 474 160.478 474 159.925H472ZM474 163.95C474 163.397 473.552 162.95 473 162.95C472.448 162.95 472 163.397 472 163.95H474ZM472 114.5V114.55H474V114.5H472ZM472 118.575V118.675H474V118.575H472ZM472 122.7V122.8H474V122.7H472ZM472 126.825V126.925H474V126.825H472ZM472 130.95V131.05H474V130.95H472ZM472 135.075V135.175H474V135.075H472ZM472 139.2V139.3H474V139.2H472ZM472 143.325V143.425H474V143.325H472ZM472 147.45V147.55H474V147.45H472ZM472 151.575V151.675H474V151.575H472ZM472 155.7V155.8H474V155.7H472ZM472 159.825V159.925H474V159.825H472ZM472 163.95V164H474V163.95H472Z" fill="#F03100"/>
<path d="M441 182L505 182" stroke="#58DA95" stroke-linejoin="round"/>
<path d="M471 176L477 182L471 188" stroke="#58DA95" stroke-linecap="square" stroke-linejoin="round"/>
<path d="M312.932 293.5C313.484 293.5 313.932 293.052 313.932 292.5C313.932 291.948 313.484 291.5 312.932 291.5V293.5ZM289.932 291.5C289.38 291.5 288.932 291.948 288.932 292.5C288.932 293.052 289.38 293.5 289.932 293.5V291.5ZM312.885 291.5C312.333 291.5 311.885 291.948 311.885 292.5C311.885 293.052 312.333 293.5 312.885 293.5V291.5ZM309.146 293.5C309.698 293.5 310.146 293.052 310.146 292.5C310.146 291.948 309.698 291.5 309.146 291.5V293.5ZM309.052 291.5C308.5 291.5 308.052 291.948 308.052 292.5C308.052 293.052 308.5 293.5 309.052 293.5V291.5ZM305.312 293.5C305.865 293.5 306.312 293.052 306.312 292.5C306.312 291.948 305.865 291.5 305.312 291.5V293.5ZM305.219 291.5C304.666 291.5 304.219 291.948 304.219 292.5C304.219 293.052 304.666 293.5 305.219 293.5V291.5ZM301.479 293.5C302.031 293.5 302.479 293.052 302.479 292.5C302.479 291.948 302.031 291.5 301.479 291.5V293.5ZM301.385 291.5C300.833 291.5 300.385 291.948 300.385 292.5C300.385 293.052 300.833 293.5 301.385 293.5V291.5ZM297.646 293.5C298.198 293.5 298.646 293.052 298.646 292.5C298.646 291.948 298.198 291.5 297.646 291.5V293.5ZM297.552 291.5C297 291.5 296.552 291.948 296.552 292.5C296.552 293.052 297 293.5 297.552 293.5V291.5ZM293.812 293.5C294.365 293.5 294.812 293.052 294.812 292.5C294.812 291.948 294.365 291.5 293.812 291.5V293.5ZM293.719 291.5C293.166 291.5 292.719 291.948 292.719 292.5C292.719 293.052 293.166 293.5 293.719 293.5V291.5ZM289.979 293.5C290.531 293.5 290.979 293.052 290.979 292.5C290.979 291.948 290.531 291.5 289.979 291.5V293.5ZM312.932 291.5H312.885V293.5H312.932V291.5ZM309.146 291.5H309.052V293.5H309.146V291.5ZM305.312 291.5H305.219V293.5H305.312V291.5ZM301.479 291.5H301.385V293.5H301.479V291.5ZM297.646 291.5H297.552V293.5H297.646V291.5ZM293.812 291.5H293.719V293.5H293.812V291.5ZM289.979 291.5H289.932V293.5H289.979V291.5Z" fill="#F03100"/>
<path d="M307.401 302.471C308.294 304.739 306.854 307.22 304.44 307.56C295.522 308.813 286.478 308.813 277.56 307.56C275.146 307.22 273.706 304.739 274.599 302.471C277.992 293.858 282.504 285.726 287.999 278.341C289.504 276.317 292.496 276.317 294.001 278.341C299.496 285.726 304.008 293.858 307.401 302.471Z" fill="#F03100"/>
<path d="M286.824 303.5V290.409H295.339V292.397H289.196V295.951H294.898V297.939H289.196V301.512H295.39V303.5H286.824Z" fill="white"/>
<path d="M345.943 299H342.054V287.523H346.021C347.161 287.523 348.14 287.753 348.958 288.212C349.78 288.668 350.411 289.324 350.852 290.179C351.293 291.035 351.513 292.058 351.513 293.25C351.513 294.446 351.291 295.473 350.846 296.332C350.405 297.192 349.768 297.851 348.935 298.311C348.106 298.77 347.108 299 345.943 299ZM344.133 297.201H345.842C346.641 297.201 347.308 297.055 347.843 296.764C348.377 296.469 348.778 296.03 349.047 295.447C349.316 294.86 349.451 294.128 349.451 293.25C349.451 292.372 349.316 291.644 349.047 291.065C348.778 290.482 348.381 290.047 347.854 289.759C347.331 289.468 346.681 289.322 345.904 289.322H344.133V297.201ZM357.21 299.168C356.347 299.168 355.601 298.989 354.974 298.63C354.35 298.268 353.87 297.756 353.533 297.095C353.197 296.43 353.029 295.647 353.029 294.747C353.029 293.861 353.197 293.084 353.533 292.415C353.873 291.743 354.348 291.22 354.957 290.846C355.566 290.469 356.281 290.28 357.103 290.28C357.634 290.28 358.134 290.366 358.605 290.538C359.08 290.706 359.498 290.968 359.86 291.322C360.227 291.677 360.514 292.129 360.723 292.679C360.933 293.224 361.037 293.874 361.037 294.629V295.251H353.982V293.884H359.093C359.089 293.495 359.005 293.149 358.84 292.847C358.676 292.54 358.446 292.299 358.151 292.124C357.86 291.948 357.52 291.86 357.131 291.86C356.717 291.86 356.352 291.961 356.038 292.163C355.725 292.361 355.48 292.623 355.304 292.948C355.132 293.269 355.045 293.622 355.041 294.007V295.2C355.041 295.701 355.132 296.131 355.316 296.489C355.499 296.844 355.755 297.117 356.083 297.308C356.412 297.494 356.797 297.588 357.238 297.588C357.533 297.588 357.8 297.547 358.039 297.464C358.278 297.379 358.486 297.253 358.661 297.089C358.837 296.925 358.969 296.721 359.059 296.478L360.953 296.691C360.834 297.192 360.606 297.629 360.269 298.002C359.937 298.372 359.511 298.66 358.992 298.866C358.472 299.067 357.878 299.168 357.21 299.168ZM362.753 302.228V290.392H364.749V291.816H364.866C364.971 291.606 365.118 291.384 365.309 291.149C365.499 290.91 365.757 290.706 366.082 290.538C366.407 290.366 366.822 290.28 367.326 290.28C367.991 290.28 368.591 290.45 369.125 290.79C369.663 291.126 370.089 291.625 370.403 292.286C370.721 292.944 370.879 293.751 370.879 294.707C370.879 295.653 370.724 296.456 370.414 297.117C370.104 297.778 369.682 298.283 369.148 298.63C368.613 298.978 368.008 299.151 367.332 299.151C366.839 299.151 366.43 299.069 366.105 298.905C365.78 298.74 365.518 298.542 365.32 298.311C365.126 298.075 364.975 297.853 364.866 297.644H364.782V302.228H362.753ZM364.743 294.696C364.743 295.253 364.821 295.74 364.978 296.159C365.139 296.577 365.369 296.904 365.668 297.139C365.97 297.371 366.336 297.487 366.766 297.487C367.214 297.487 367.59 297.367 367.892 297.128C368.195 296.885 368.423 296.555 368.576 296.136C368.733 295.714 368.811 295.234 368.811 294.696C368.811 294.162 368.735 293.687 368.582 293.273C368.429 292.858 368.201 292.533 367.898 292.298C367.595 292.062 367.218 291.945 366.766 291.945C366.333 291.945 365.965 292.058 365.662 292.286C365.359 292.514 365.13 292.834 364.973 293.245C364.82 293.656 364.743 294.139 364.743 294.696ZM376.427 299.168C375.564 299.168 374.819 298.989 374.191 298.63C373.567 298.268 373.087 297.756 372.751 297.095C372.415 296.43 372.247 295.647 372.247 294.747C372.247 293.861 372.415 293.084 372.751 292.415C373.091 291.743 373.566 291.22 374.175 290.846C374.784 290.469 375.499 290.28 376.321 290.28C376.851 290.28 377.352 290.366 377.823 290.538C378.297 290.706 378.716 290.968 379.078 291.322C379.444 291.677 379.732 292.129 379.941 292.679C380.15 293.224 380.255 293.874 380.255 294.629V295.251H373.199V293.884H378.31C378.307 293.495 378.223 293.149 378.058 292.847C377.894 292.54 377.664 292.299 377.369 292.124C377.077 291.948 376.737 291.86 376.349 291.86C375.934 291.86 375.57 291.961 375.256 292.163C374.942 292.361 374.698 292.623 374.522 292.948C374.35 293.269 374.262 293.622 374.259 294.007V295.2C374.259 295.701 374.35 296.131 374.533 296.489C374.716 296.844 374.972 297.117 375.301 297.308C375.63 297.494 376.015 297.588 376.455 297.588C376.751 297.588 377.018 297.547 377.257 297.464C377.496 297.379 377.703 297.253 377.879 297.089C378.054 296.925 378.187 296.721 378.277 296.478L380.171 296.691C380.051 297.192 379.823 297.629 379.487 298.002C379.155 298.372 378.729 298.66 378.209 298.866C377.69 299.067 377.096 299.168 376.427 299.168ZM385.165 299.151C384.489 299.151 383.884 298.978 383.35 298.63C382.816 298.283 382.393 297.778 382.083 297.117C381.773 296.456 381.618 295.653 381.618 294.707C381.618 293.751 381.775 292.944 382.089 292.286C382.406 291.625 382.834 291.126 383.372 290.79C383.91 290.45 384.51 290.28 385.171 290.28C385.675 290.28 386.09 290.366 386.415 290.538C386.74 290.706 386.998 290.91 387.189 291.149C387.379 291.384 387.527 291.606 387.631 291.816H387.715V287.523H389.75V299H387.755V297.644H387.631C387.527 297.853 387.375 298.075 387.177 298.311C386.979 298.542 386.718 298.74 386.393 298.905C386.068 299.069 385.659 299.151 385.165 299.151ZM385.731 297.487C386.161 297.487 386.527 297.371 386.83 297.139C387.133 296.904 387.362 296.577 387.519 296.159C387.676 295.74 387.755 295.253 387.755 294.696C387.755 294.139 387.676 293.656 387.519 293.245C387.366 292.834 387.138 292.514 386.835 292.286C386.537 292.058 386.169 291.945 385.731 291.945C385.279 291.945 384.902 292.062 384.599 292.298C384.297 292.533 384.069 292.858 383.916 293.273C383.763 293.687 383.686 294.162 383.686 294.696C383.686 295.234 383.763 295.714 383.916 296.136C384.073 296.555 384.302 296.885 384.605 297.128C384.911 297.367 385.287 297.487 385.731 297.487ZM395.722 299.168C394.859 299.168 394.114 298.989 393.486 298.63C392.862 298.268 392.382 297.756 392.046 297.095C391.71 296.43 391.541 295.647 391.541 294.747C391.541 293.861 391.71 293.084 392.046 292.415C392.386 291.743 392.86 291.22 393.469 290.846C394.078 290.469 394.794 290.28 395.616 290.28C396.146 290.28 396.647 290.366 397.118 290.538C397.592 290.706 398.01 290.968 398.373 291.322C398.739 291.677 399.027 292.129 399.236 292.679C399.445 293.224 399.55 293.874 399.55 294.629V295.251H392.494V293.884H397.605C397.601 293.495 397.517 293.149 397.353 292.847C397.189 292.54 396.959 292.299 396.664 292.124C396.372 291.948 396.032 291.86 395.644 291.86C395.229 291.86 394.865 291.961 394.551 292.163C394.237 292.361 393.992 292.623 393.817 292.948C393.645 293.269 393.557 293.622 393.553 294.007V295.2C393.553 295.701 393.645 296.131 393.828 296.489C394.011 296.844 394.267 297.117 394.596 297.308C394.924 297.494 395.309 297.588 395.75 297.588C396.045 297.588 396.312 297.547 396.552 297.464C396.791 297.379 396.998 297.253 397.174 297.089C397.349 296.925 397.482 296.721 397.571 296.478L399.466 296.691C399.346 297.192 399.118 297.629 398.782 298.002C398.449 298.372 398.024 298.66 397.504 298.866C396.985 299.067 396.391 299.168 395.722 299.168ZM403.295 293.956V299H401.266V290.392H403.205V291.855H403.306C403.504 291.373 403.819 290.99 404.253 290.706C404.69 290.422 405.23 290.28 405.872 290.28C406.466 290.28 406.984 290.407 407.425 290.661C407.869 290.915 408.213 291.283 408.456 291.765C408.702 292.247 408.824 292.832 408.82 293.519V299H406.792V293.833C406.792 293.258 406.642 292.808 406.343 292.482C406.048 292.157 405.639 291.995 405.116 291.995C404.761 291.995 404.445 292.073 404.169 292.23C403.896 292.383 403.681 292.606 403.524 292.897C403.371 293.189 403.295 293.542 403.295 293.956ZM414.637 299.168C413.778 299.168 413.04 298.979 412.424 298.602C411.811 298.225 411.338 297.704 411.006 297.039C410.677 296.37 410.513 295.6 410.513 294.73C410.513 293.855 410.681 293.084 411.017 292.415C411.353 291.743 411.828 291.22 412.44 290.846C413.057 290.469 413.785 290.28 414.626 290.28C415.325 290.28 415.943 290.409 416.481 290.667C417.023 290.921 417.454 291.281 417.775 291.748C418.097 292.212 418.28 292.753 418.325 293.374H416.386C416.307 292.959 416.12 292.613 415.825 292.337C415.534 292.057 415.143 291.916 414.654 291.916C414.239 291.916 413.875 292.029 413.561 292.253C413.247 292.473 413.003 292.791 412.827 293.205C412.655 293.62 412.569 294.117 412.569 294.696C412.569 295.283 412.655 295.787 412.827 296.209C412.999 296.628 413.24 296.951 413.55 297.179C413.864 297.403 414.232 297.515 414.654 297.515C414.953 297.515 415.22 297.459 415.455 297.347C415.694 297.231 415.894 297.065 416.055 296.848C416.216 296.631 416.326 296.368 416.386 296.058H418.325C418.276 296.667 418.097 297.207 417.787 297.677C417.477 298.144 417.054 298.511 416.52 298.776C415.986 299.037 415.358 299.168 414.637 299.168ZM419.99 299V290.392H422.019V299H419.99ZM421.01 289.17C420.689 289.17 420.413 289.064 420.181 288.851C419.949 288.634 419.834 288.375 419.834 288.072C419.834 287.766 419.949 287.506 420.181 287.293C420.413 287.076 420.689 286.968 421.01 286.968C421.335 286.968 421.612 287.076 421.84 287.293C422.071 287.506 422.187 287.766 422.187 288.072C422.187 288.375 422.071 288.634 421.84 288.851C421.612 289.064 421.335 289.17 421.01 289.17ZM427.916 299.168C427.053 299.168 426.308 298.989 425.68 298.63C425.056 298.268 424.576 297.756 424.24 297.095C423.903 296.43 423.735 295.647 423.735 294.747C423.735 293.861 423.903 293.084 424.24 292.415C424.58 291.743 425.054 291.22 425.663 290.846C426.272 290.469 426.988 290.28 427.809 290.28C428.34 290.28 428.841 290.366 429.311 290.538C429.786 290.706 430.204 290.968 430.567 291.322C430.933 291.677 431.22 292.129 431.43 292.679C431.639 293.224 431.744 293.874 431.744 294.629V295.251H424.688V293.884H429.799C429.795 293.495 429.711 293.149 429.547 292.847C429.382 292.54 429.153 292.299 428.857 292.124C428.566 291.948 428.226 291.86 427.838 291.86C427.423 291.86 427.059 291.961 426.745 292.163C426.431 292.361 426.186 292.623 426.011 292.948C425.839 293.269 425.751 293.622 425.747 294.007V295.2C425.747 295.701 425.839 296.131 426.022 296.489C426.205 296.844 426.461 297.117 426.79 297.308C427.118 297.494 427.503 297.588 427.944 297.588C428.239 297.588 428.506 297.547 428.745 297.464C428.984 297.379 429.192 297.253 429.367 297.089C429.543 296.925 429.676 296.721 429.765 296.478L431.659 296.691C431.54 297.192 431.312 297.629 430.976 298.002C430.643 298.372 430.217 298.66 429.698 298.866C429.179 299.067 428.585 299.168 427.916 299.168ZM440.263 292.667L438.414 292.869C438.361 292.682 438.27 292.507 438.139 292.342C438.012 292.178 437.84 292.045 437.624 291.945C437.407 291.844 437.142 291.793 436.828 291.793C436.406 291.793 436.051 291.885 435.763 292.068C435.479 292.251 435.339 292.488 435.343 292.78C435.339 293.03 435.431 293.233 435.617 293.39C435.808 293.547 436.122 293.676 436.559 293.777L438.027 294.091C438.842 294.266 439.447 294.545 439.843 294.926C440.243 295.307 440.444 295.806 440.448 296.422C440.444 296.964 440.286 297.442 439.972 297.857C439.662 298.268 439.23 298.589 438.677 298.821C438.124 299.052 437.489 299.168 436.772 299.168C435.718 299.168 434.87 298.948 434.228 298.507C433.585 298.062 433.202 297.444 433.079 296.652L435.057 296.461C435.147 296.85 435.337 297.143 435.629 297.341C435.92 297.539 436.299 297.638 436.766 297.638C437.248 297.638 437.635 297.539 437.926 297.341C438.221 297.143 438.369 296.898 438.369 296.607C438.369 296.36 438.274 296.157 438.083 295.996C437.896 295.836 437.605 295.712 437.209 295.626L435.741 295.318C434.915 295.146 434.304 294.857 433.908 294.45C433.512 294.039 433.316 293.519 433.32 292.892C433.316 292.361 433.46 291.902 433.751 291.513C434.046 291.121 434.455 290.818 434.978 290.605C435.505 290.388 436.112 290.28 436.8 290.28C437.809 290.28 438.602 290.495 439.182 290.925C439.764 291.354 440.125 291.935 440.263 292.667Z" fill="#102B2D"/>
<rect x="314.5" y="256" width="153" height="73" rx="8" stroke="#58DA95" stroke-width="2" stroke-linecap="square" stroke-dasharray="5 5"/>
<path d="M573.5 255.5L567.5 261.5L561.5 255.5" stroke="#58DA95" stroke-linecap="round" stroke-linejoin="round"/>
<path d="M567.5 222.5V284.5C567.5 288.918 563.918 292.5 559.5 292.5H472.5" stroke="#58DA95" stroke-linejoin="round"/>
<path d="M273 349V351C273 354.314 275.686 357 279 357H503C506.314 357 509 354.314 509 351V349" stroke="#155757"/>
<path d="M325.069 373H322.244V364.273H325.159C326.014 364.273 326.748 364.447 327.362 364.797C327.975 365.143 328.446 365.642 328.772 366.293C329.102 366.94 329.267 367.717 329.267 368.624C329.267 369.533 329.1 370.314 328.768 370.967C328.439 371.621 327.961 372.124 327.336 372.476C326.711 372.825 325.956 373 325.069 373ZM323.561 371.849H324.997C325.662 371.849 326.214 371.724 326.654 371.474C327.095 371.222 327.424 370.857 327.643 370.379C327.862 369.899 327.971 369.314 327.971 368.624C327.971 367.939 327.862 367.358 327.643 366.881C327.427 366.403 327.105 366.041 326.676 365.794C326.247 365.547 325.714 365.423 325.078 365.423H323.561V371.849ZM330.904 373V364.273H336.376V365.406H332.221V368.065H336.09V369.195H332.221V371.866H336.427V373H330.904ZM338.135 373V364.273H341.245C341.924 364.273 342.487 364.396 342.933 364.643C343.379 364.891 343.713 365.229 343.934 365.658C344.156 366.084 344.267 366.564 344.267 367.098C344.267 367.635 344.154 368.118 343.93 368.547C343.708 368.973 343.373 369.311 342.924 369.561C342.478 369.808 341.917 369.932 341.241 369.932H339.102V368.815H341.122C341.551 368.815 341.899 368.741 342.166 368.594C342.433 368.443 342.629 368.239 342.754 367.98C342.879 367.722 342.941 367.428 342.941 367.098C342.941 366.768 342.879 366.476 342.754 366.22C342.629 365.964 342.431 365.764 342.162 365.619C341.895 365.474 341.542 365.402 341.105 365.402H339.451V373H338.135ZM345.81 373V364.273H351.282V365.406H347.127V368.065H350.996V369.195H347.127V371.866H351.333V373H345.81ZM360.085 364.273V373H358.875L354.439 366.599H354.358V373H353.041V364.273H354.26L358.7 370.682H358.781V364.273H360.085ZM364.831 373H362.006V364.273H364.92C365.776 364.273 366.51 364.447 367.124 364.797C367.737 365.143 368.207 365.642 368.534 366.293C368.864 366.94 369.028 367.717 369.028 368.624C369.028 369.533 368.862 370.314 368.53 370.967C368.2 371.621 367.723 372.124 367.098 372.476C366.473 372.825 365.717 373 364.831 373ZM363.322 371.849H364.759C365.423 371.849 365.976 371.724 366.416 371.474C366.857 371.222 367.186 370.857 367.405 370.379C367.624 369.899 367.733 369.314 367.733 368.624C367.733 367.939 367.624 367.358 367.405 366.881C367.189 366.403 366.866 366.041 366.438 365.794C366.009 365.547 365.476 365.423 364.839 365.423H363.322V371.849ZM370.666 373V364.273H376.137V365.406H371.983V368.065H375.852V369.195H371.983V371.866H376.189V373H370.666ZM384.94 364.273V373H383.73L379.294 366.599H379.213V373H377.896V364.273H379.115L383.555 370.682H383.636V364.273H384.94ZM394.11 367.111H392.78C392.729 366.827 392.634 366.577 392.495 366.361C392.355 366.145 392.185 365.962 391.983 365.811C391.782 365.661 391.556 365.547 391.306 365.47C391.059 365.393 390.796 365.355 390.517 365.355C390.015 365.355 389.564 365.482 389.167 365.734C388.772 365.987 388.459 366.358 388.229 366.847C388.002 367.335 387.888 367.932 387.888 368.636C387.888 369.347 388.002 369.946 388.229 370.435C388.459 370.923 388.773 371.293 389.171 371.543C389.569 371.793 390.016 371.918 390.513 371.918C390.789 371.918 391.05 371.881 391.297 371.807C391.547 371.73 391.773 371.618 391.975 371.47C392.176 371.322 392.347 371.142 392.486 370.929C392.628 370.713 392.726 370.466 392.78 370.188L394.11 370.192C394.039 370.621 393.901 371.016 393.696 371.376C393.495 371.734 393.235 372.044 392.917 372.305C392.601 372.564 392.24 372.764 391.834 372.906C391.428 373.048 390.985 373.119 390.505 373.119C389.749 373.119 389.076 372.94 388.485 372.582C387.894 372.222 387.428 371.706 387.087 371.036C386.749 370.365 386.58 369.565 386.58 368.636C386.58 367.705 386.75 366.905 387.091 366.237C387.432 365.567 387.898 365.053 388.489 364.695C389.08 364.334 389.752 364.153 390.505 364.153C390.968 364.153 391.4 364.22 391.8 364.354C392.203 364.484 392.566 364.678 392.887 364.933C393.208 365.186 393.473 365.496 393.684 365.862C393.894 366.226 394.036 366.642 394.11 367.111ZM395.012 364.273H396.508L398.788 368.24H398.881L401.161 364.273H402.657L399.491 369.574V373H398.178V369.574L395.012 364.273ZM406.646 365.406V364.273H413.4V365.406H410.677V373H409.364V365.406H406.646ZM414.892 373V364.273H416.209V368.065H420.56V364.273H421.881V373H420.56V369.195H416.209V373H414.892ZM423.799 373V364.273H426.909C427.586 364.273 428.147 364.389 428.593 364.622C429.042 364.855 429.377 365.178 429.598 365.589C429.82 365.999 429.931 366.472 429.931 367.009C429.931 367.543 429.819 368.013 429.594 368.419C429.373 368.822 429.037 369.136 428.588 369.361C428.142 369.585 427.581 369.697 426.905 369.697H424.549V368.564H426.786C427.212 368.564 427.559 368.503 427.826 368.381C428.096 368.259 428.293 368.081 428.418 367.848C428.543 367.615 428.605 367.335 428.605 367.009C428.605 366.679 428.542 366.393 428.414 366.152C428.289 365.911 428.091 365.726 427.821 365.598C427.554 365.467 427.203 365.402 426.769 365.402H425.115V373H423.799ZM428.107 369.062L430.263 373H428.763L426.65 369.062H428.107ZM431.533 373V364.273H437.005V365.406H432.85V368.065H436.719V369.195H432.85V371.866H437.056V373H431.533ZM439.501 373H438.103L441.244 364.273H442.765L445.906 373H444.508L442.04 365.858H441.972L439.501 373ZM439.735 369.582H444.269V370.69H439.735V369.582ZM445.704 365.406V364.273H452.458V365.406H449.735V373H448.423V365.406H445.704ZM458.711 366.565C458.665 366.162 458.478 365.849 458.148 365.628C457.819 365.403 457.404 365.291 456.904 365.291C456.546 365.291 456.237 365.348 455.975 365.462C455.714 365.572 455.511 365.726 455.366 365.922C455.224 366.115 455.153 366.335 455.153 366.582C455.153 366.79 455.201 366.969 455.298 367.119C455.397 367.27 455.526 367.396 455.685 367.499C455.847 367.598 456.021 367.682 456.205 367.75C456.39 367.815 456.567 367.869 456.738 367.912L457.59 368.134C457.869 368.202 458.154 368.294 458.447 368.411C458.739 368.527 459.011 368.68 459.261 368.871C459.511 369.061 459.712 369.297 459.866 369.578C460.022 369.859 460.1 370.196 460.1 370.588C460.1 371.082 459.972 371.521 459.717 371.905C459.464 372.288 459.096 372.591 458.613 372.812C458.133 373.034 457.552 373.145 456.87 373.145C456.217 373.145 455.651 373.041 455.174 372.834C454.697 372.626 454.323 372.332 454.053 371.952C453.783 371.568 453.634 371.114 453.606 370.588H454.927C454.952 370.903 455.055 371.166 455.234 371.376C455.415 371.584 455.647 371.739 455.928 371.841C456.212 371.94 456.523 371.99 456.862 371.99C457.234 371.99 457.565 371.932 457.854 371.815C458.147 371.696 458.377 371.531 458.545 371.321C458.712 371.108 458.796 370.859 458.796 370.575C458.796 370.317 458.722 370.105 458.575 369.94C458.43 369.776 458.232 369.639 457.982 369.531C457.735 369.423 457.455 369.328 457.143 369.246L456.112 368.964C455.413 368.774 454.859 368.494 454.45 368.125C454.043 367.756 453.84 367.267 453.84 366.659C453.84 366.156 453.977 365.717 454.249 365.342C454.522 364.967 454.891 364.676 455.357 364.469C455.823 364.259 456.349 364.153 456.934 364.153C457.525 364.153 458.046 364.257 458.498 364.464C458.952 364.672 459.31 364.957 459.572 365.321C459.833 365.682 459.969 366.097 459.981 366.565H458.711Z" fill="#155757"/>
<path d="M584.401 109.971C585.294 112.239 583.854 114.72 581.44 115.06C572.522 116.313 563.478 116.313 554.56 115.06C552.146 114.72 550.706 112.239 551.599 109.971C554.992 101.358 559.504 93.226 564.999 85.8407C566.504 83.8167 569.496 83.8167 571.002 85.8407C576.496 93.226 581.008 101.358 584.401 109.971Z" fill="#F03100"/>
<path d="M571.267 102.089C571.161 101.744 571.014 101.435 570.826 101.163C570.643 100.886 570.421 100.649 570.161 100.453C569.906 100.257 569.612 100.11 569.279 100.012C568.947 99.9098 568.585 99.8587 568.193 99.8587C567.489 99.8587 566.863 100.036 566.313 100.389C565.764 100.743 565.331 101.263 565.016 101.949C564.705 102.631 564.549 103.462 564.549 104.442C564.549 105.43 564.705 106.268 565.016 106.954C565.327 107.64 565.759 108.162 566.313 108.52C566.867 108.874 567.511 109.05 568.244 109.05C568.909 109.05 569.484 108.923 569.97 108.667C570.46 108.411 570.837 108.049 571.101 107.58C571.365 107.107 571.497 106.553 571.497 105.918L572.034 106.001H568.48V104.148H573.792V105.72C573.792 106.841 573.553 107.81 573.076 108.629C572.599 109.447 571.943 110.077 571.107 110.521C570.272 110.96 569.313 111.179 568.231 111.179C567.025 111.179 565.966 110.908 565.054 110.367C564.146 109.822 563.437 109.048 562.926 108.047C562.418 107.041 562.165 105.848 562.165 104.467C562.165 103.411 562.314 102.467 562.612 101.636C562.915 100.805 563.337 100.099 563.878 99.5199C564.419 98.9361 565.054 98.4929 565.783 98.1903C566.512 97.8835 567.304 97.7301 568.161 97.7301C568.885 97.7301 569.561 97.8366 570.187 98.0497C570.813 98.2585 571.369 98.5568 571.855 98.9446C572.345 99.3324 572.748 99.7926 573.063 100.325C573.379 100.858 573.585 101.446 573.683 102.089H571.267Z" fill="white"/>
<path d="M569 114.5C569 113.948 568.552 113.5 568 113.5C567.448 113.5 567 113.948 567 114.5H569ZM567 144C567 144.552 567.448 145 568 145C568.552 145 569 144.552 569 144H567ZM567 114.551C567 115.104 567.448 115.551 568 115.551C568.552 115.551 569 115.104 569 114.551H567ZM569 118.663C569 118.111 568.552 117.663 568 117.663C567.448 117.663 567 118.111 567 118.663H569ZM567 118.766C567 119.318 567.448 119.766 568 119.766C568.552 119.766 569 119.318 569 118.766H567ZM569 122.877C569 122.325 568.552 121.877 568 121.877C567.448 121.877 567 122.325 567 122.877H569ZM567 122.98C567 123.532 567.448 123.98 568 123.98C568.552 123.98 569 123.532 569 122.98H567ZM569 127.091C569 126.539 568.552 126.091 568 126.091C567.448 126.091 567 126.539 567 127.091H569ZM567 127.194C567 127.747 567.448 128.194 568 128.194C568.552 128.194 569 127.747 569 127.194H567ZM569 131.306C569 130.753 568.552 130.306 568 130.306C567.448 130.306 567 130.753 567 131.306H569ZM567 131.409C567 131.961 567.448 132.409 568 132.409C568.552 132.409 569 131.961 569 131.409H567ZM569 135.52C569 134.968 568.552 134.52 568 134.52C567.448 134.52 567 134.968 567 135.52H569ZM567 135.623C567 136.175 567.448 136.623 568 136.623C568.552 136.623 569 136.175 569 135.623H567ZM569 139.734C569 139.182 568.552 138.734 568 138.734C567.448 138.734 567 139.182 567 139.734H569ZM567 139.837C567 140.389 567.448 140.837 568 140.837C568.552 140.837 569 140.389 569 139.837H567ZM569 143.949C569 143.396 568.552 142.949 568 142.949C567.448 142.949 567 143.396 567 143.949H569ZM567 114.5V114.551H569V114.5H567ZM567 118.663V118.766H569V118.663H567ZM567 122.877V122.98H569V122.877H567ZM567 127.091V127.194H569V127.091H567ZM567 131.306V131.409H569V131.306H567ZM567 135.52V135.623H569V135.52H567ZM567 139.734V139.837H569V139.734H567ZM567 143.949V144H569V143.949H567Z" fill="#F03100"/>
<path d="M536.414 187V175.523H540.718C541.6 175.523 542.34 175.687 542.937 176.016C543.539 176.345 543.993 176.797 544.299 177.372C544.609 177.944 544.764 178.594 544.764 179.322C544.764 180.058 544.609 180.712 544.299 181.284C543.989 181.855 543.531 182.306 542.926 182.634C542.321 182.959 541.576 183.122 540.69 183.122H537.838V181.413H540.41C540.925 181.413 541.348 181.323 541.676 181.144C542.005 180.964 542.248 180.718 542.405 180.404C542.566 180.09 542.646 179.73 542.646 179.322C542.646 178.915 542.566 178.557 542.405 178.246C542.248 177.936 542.003 177.695 541.671 177.524C541.342 177.348 540.918 177.26 540.399 177.26H538.493V187H536.414ZM548.803 187.174C548.258 187.174 547.767 187.077 547.33 186.882C546.896 186.684 546.552 186.393 546.298 186.008C546.048 185.623 545.923 185.149 545.923 184.585C545.923 184.099 546.013 183.697 546.192 183.38C546.371 183.062 546.616 182.808 546.926 182.618C547.236 182.427 547.585 182.283 547.974 182.186C548.366 182.085 548.772 182.012 549.19 181.968C549.694 181.915 550.104 181.869 550.417 181.827C550.731 181.783 550.959 181.715 551.101 181.626C551.247 181.532 551.32 181.388 551.32 181.194V181.161C551.32 180.738 551.194 180.412 550.944 180.18C550.694 179.948 550.333 179.832 549.863 179.832C549.366 179.832 548.972 179.941 548.68 180.157C548.392 180.374 548.198 180.63 548.097 180.925L546.203 180.656C546.353 180.133 546.599 179.696 546.943 179.345C547.287 178.99 547.707 178.725 548.204 178.549C548.701 178.37 549.25 178.28 549.851 178.28C550.266 178.28 550.679 178.329 551.09 178.426C551.501 178.523 551.876 178.684 552.216 178.908C552.556 179.128 552.829 179.429 553.034 179.81C553.244 180.191 553.348 180.667 553.348 181.239V187H551.398V185.818H551.331C551.208 186.057 551.034 186.281 550.81 186.49C550.589 186.696 550.311 186.862 549.975 186.989C549.642 187.112 549.252 187.174 548.803 187.174ZM549.33 185.683C549.737 185.683 550.09 185.603 550.389 185.442C550.688 185.278 550.918 185.061 551.079 184.792C551.243 184.523 551.325 184.23 551.325 183.912V182.898C551.262 182.95 551.153 182.999 551 183.044C550.851 183.088 550.683 183.128 550.496 183.161C550.309 183.195 550.124 183.225 549.941 183.251C549.758 183.277 549.599 183.299 549.465 183.318C549.162 183.359 548.891 183.426 548.652 183.52C548.413 183.613 548.224 183.744 548.086 183.912C547.948 184.077 547.879 184.29 547.879 184.551C547.879 184.925 548.015 185.207 548.288 185.397C548.561 185.588 548.908 185.683 549.33 185.683ZM559.143 187.168C558.284 187.168 557.546 186.979 556.929 186.602C556.317 186.225 555.844 185.704 555.511 185.039C555.183 184.37 555.018 183.6 555.018 182.73C555.018 181.855 555.186 181.084 555.523 180.415C555.859 179.743 556.333 179.22 556.946 178.846C557.563 178.469 558.291 178.28 559.132 178.28C559.83 178.28 560.449 178.409 560.987 178.667C561.528 178.921 561.96 179.281 562.281 179.748C562.602 180.212 562.785 180.753 562.83 181.374H560.891C560.813 180.959 560.626 180.613 560.331 180.337C560.04 180.057 559.649 179.916 559.16 179.916C558.745 179.916 558.381 180.029 558.067 180.253C557.753 180.473 557.508 180.791 557.333 181.205C557.161 181.62 557.075 182.117 557.075 182.696C557.075 183.283 557.161 183.787 557.333 184.209C557.505 184.628 557.746 184.951 558.056 185.179C558.37 185.403 558.738 185.515 559.16 185.515C559.459 185.515 559.726 185.459 559.961 185.347C560.2 185.231 560.4 185.065 560.561 184.848C560.721 184.631 560.832 184.368 560.891 184.058H562.83C562.782 184.667 562.602 185.207 562.292 185.677C561.982 186.144 561.56 186.511 561.026 186.776C560.492 187.037 559.864 187.168 559.143 187.168ZM566.345 184.299L566.34 181.85H566.665L569.758 178.392H572.129L568.324 182.629H567.903L566.345 184.299ZM564.496 187V175.523H566.525V187H564.496ZM569.898 187L567.096 183.083L568.464 181.654L572.325 187H569.898ZM575.958 187.174C575.412 187.174 574.921 187.077 574.484 186.882C574.051 186.684 573.707 186.393 573.453 186.008C573.202 185.623 573.077 185.149 573.077 184.585C573.077 184.099 573.167 183.697 573.346 183.38C573.526 183.062 573.77 182.808 574.08 182.618C574.391 182.427 574.74 182.283 575.128 182.186C575.521 182.085 575.926 182.012 576.344 181.968C576.849 181.915 577.258 181.869 577.572 181.827C577.886 181.783 578.114 181.715 578.255 181.626C578.401 181.532 578.474 181.388 578.474 181.194V181.161C578.474 180.738 578.349 180.412 578.099 180.18C577.848 179.948 577.488 179.832 577.017 179.832C576.52 179.832 576.126 179.941 575.835 180.157C575.547 180.374 575.353 180.63 575.252 180.925L573.358 180.656C573.507 180.133 573.754 179.696 574.097 179.345C574.441 178.99 574.861 178.725 575.358 178.549C575.855 178.37 576.404 178.28 577.006 178.28C577.42 178.28 577.833 178.329 578.244 178.426C578.655 178.523 579.031 178.684 579.371 178.908C579.711 179.128 579.983 179.429 580.189 179.81C580.398 180.191 580.503 180.667 580.503 181.239V187H578.552V185.818H578.485C578.362 186.057 578.188 186.281 577.964 186.49C577.744 186.696 577.465 186.862 577.129 186.989C576.797 187.112 576.406 187.174 575.958 187.174ZM576.485 185.683C576.892 185.683 577.245 185.603 577.544 185.442C577.843 185.278 578.072 185.061 578.233 184.792C578.397 184.523 578.48 184.23 578.48 183.912V182.898C578.416 182.95 578.308 182.999 578.155 183.044C578.005 183.088 577.837 183.128 577.65 183.161C577.463 183.195 577.278 183.225 577.095 183.251C576.912 183.277 576.754 183.299 576.619 183.318C576.316 183.359 576.046 183.426 575.807 183.52C575.567 183.613 575.379 183.744 575.24 183.912C575.102 184.077 575.033 184.29 575.033 184.551C575.033 184.925 575.17 185.207 575.442 185.397C575.715 185.588 576.062 185.683 576.485 185.683ZM586.286 190.407C585.558 190.407 584.932 190.308 584.409 190.11C583.886 189.916 583.465 189.654 583.148 189.326C582.83 188.997 582.61 188.633 582.487 188.233L584.313 187.79C584.396 187.958 584.515 188.125 584.672 188.289C584.829 188.457 585.04 188.595 585.305 188.704C585.574 188.816 585.912 188.872 586.32 188.872C586.895 188.872 587.371 188.732 587.749 188.451C588.126 188.175 588.315 187.719 588.315 187.084V185.453H588.214C588.109 185.663 587.956 185.877 587.754 186.098C587.556 186.318 587.293 186.503 586.964 186.653C586.639 186.802 586.23 186.877 585.737 186.877C585.076 186.877 584.476 186.722 583.938 186.412C583.404 186.098 582.978 185.631 582.66 185.011C582.346 184.387 582.19 183.606 582.19 182.668C582.19 181.723 582.346 180.925 582.66 180.275C582.978 179.621 583.406 179.126 583.944 178.79C584.482 178.45 585.081 178.28 585.742 178.28C586.247 178.28 586.662 178.366 586.987 178.538C587.315 178.706 587.577 178.91 587.771 179.149C587.965 179.384 588.113 179.606 588.214 179.816H588.326V178.392H590.327V187.14C590.327 187.876 590.151 188.485 589.8 188.967C589.449 189.449 588.969 189.809 588.36 190.049C587.751 190.288 587.059 190.407 586.286 190.407ZM586.303 185.285C586.733 185.285 587.099 185.181 587.401 184.971C587.704 184.762 587.934 184.461 588.091 184.069C588.247 183.677 588.326 183.206 588.326 182.657C588.326 182.115 588.247 181.641 588.091 181.233C587.937 180.826 587.71 180.511 587.407 180.286C587.108 180.058 586.74 179.945 586.303 179.945C585.851 179.945 585.473 180.062 585.171 180.298C584.868 180.533 584.64 180.856 584.487 181.267C584.334 181.674 584.257 182.138 584.257 182.657C584.257 183.184 584.334 183.645 584.487 184.041C584.644 184.433 584.874 184.74 585.176 184.96C585.483 185.177 585.858 185.285 586.303 185.285ZM596.216 187.168C595.353 187.168 594.608 186.989 593.98 186.63C593.357 186.268 592.876 185.756 592.54 185.095C592.204 184.43 592.036 183.647 592.036 182.747C592.036 181.861 592.204 181.084 592.54 180.415C592.88 179.743 593.355 179.22 593.964 178.846C594.573 178.469 595.288 178.28 596.11 178.28C596.64 178.28 597.141 178.366 597.612 178.538C598.086 178.706 598.505 178.968 598.867 179.322C599.233 179.677 599.521 180.129 599.73 180.679C599.939 181.224 600.044 181.874 600.044 182.629V183.251H592.989V181.884H598.099C598.096 181.495 598.012 181.149 597.847 180.847C597.683 180.54 597.453 180.299 597.158 180.124C596.867 179.948 596.527 179.86 596.138 179.86C595.723 179.86 595.359 179.961 595.045 180.163C594.731 180.361 594.487 180.623 594.311 180.948C594.139 181.269 594.051 181.622 594.048 182.007V183.2C594.048 183.701 594.139 184.131 594.322 184.489C594.505 184.844 594.761 185.117 595.09 185.308C595.419 185.494 595.804 185.588 596.244 185.588C596.54 185.588 596.807 185.547 597.046 185.464C597.285 185.379 597.492 185.253 597.668 185.089C597.843 184.925 597.976 184.721 598.066 184.478L599.96 184.691C599.84 185.192 599.613 185.629 599.276 186.002C598.944 186.372 598.518 186.66 597.999 186.866C597.479 187.067 596.885 187.168 596.216 187.168Z" fill="#102B2D"/>
<rect x="510" y="145" width="116" height="71" rx="7" stroke="#58DA95" stroke-width="2"/>
<path d="M661.401 109.971C662.294 112.239 660.854 114.72 658.44 115.06C649.522 116.313 640.478 116.313 631.56 115.06C629.146 114.72 627.706 112.239 628.599 109.971C631.992 101.358 636.504 93.226 641.999 85.8407C643.504 83.8167 646.496 83.8167 648.001 85.8407C653.496 93.226 658.008 101.358 661.401 109.971Z" fill="#F03100"/>
<path d="M639.594 111V97.9091H641.965V103.451H648.031V97.9091H650.409V111H648.031V105.439H641.965V111H639.594Z" fill="white"/>
<path d="M646 114.5C646 113.948 645.552 113.5 645 113.5C644.448 113.5 644 113.948 644 114.5H646ZM644 164C644 164.552 644.448 165 645 165C645.552 165 646 164.552 646 164H644ZM644 114.55C644 115.103 644.448 115.55 645 115.55C645.552 115.55 646 115.103 646 114.55H644ZM646 118.575C646 118.022 645.552 117.575 645 117.575C644.448 117.575 644 118.022 644 118.575H646ZM644 118.675C644 119.228 644.448 119.675 645 119.675C645.552 119.675 646 119.228 646 118.675H644ZM646 122.7C646 122.147 645.552 121.7 645 121.7C644.448 121.7 644 122.147 644 122.7H646ZM644 122.8C644 123.353 644.448 123.8 645 123.8C645.552 123.8 646 123.353 646 122.8H644ZM646 126.825C646 126.272 645.552 125.825 645 125.825C644.448 125.825 644 126.272 644 126.825H646ZM644 126.925C644 127.478 644.448 127.925 645 127.925C645.552 127.925 646 127.478 646 126.925H644ZM646 130.95C646 130.397 645.552 129.95 645 129.95C644.448 129.95 644 130.397 644 130.95H646ZM644 131.05C644 131.603 644.448 132.05 645 132.05C645.552 132.05 646 131.603 646 131.05H644ZM646 135.075C646 134.522 645.552 134.075 645 134.075C644.448 134.075 644 134.522 644 135.075H646ZM644 135.175C644 135.728 644.448 136.175 645 136.175C645.552 136.175 646 135.728 646 135.175H644ZM646 139.2C646 138.647 645.552 138.2 645 138.2C644.448 138.2 644 138.647 644 139.2H646ZM644 139.3C644 139.853 644.448 140.3 645 140.3C645.552 140.3 646 139.853 646 139.3H644ZM646 143.325C646 142.772 645.552 142.325 645 142.325C644.448 142.325 644 142.772 644 143.325H646ZM644 143.425C644 143.978 644.448 144.425 645 144.425C645.552 144.425 646 143.978 646 143.425H644ZM646 147.45C646 146.897 645.552 146.45 645 146.45C644.448 146.45 644 146.897 644 147.45H646ZM644 147.55C644 148.103 644.448 148.55 645 148.55C645.552 148.55 646 148.103 646 147.55H644ZM646 151.575C646 151.022 645.552 150.575 645 150.575C644.448 150.575 644 151.022 644 151.575H646ZM644 151.675C644 152.228 644.448 152.675 645 152.675C645.552 152.675 646 152.228 646 151.675H644ZM646 155.7C646 155.147 645.552 154.7 645 154.7C644.448 154.7 644 155.147 644 155.7H646ZM644 155.8C644 156.353 644.448 156.8 645 156.8C645.552 156.8 646 156.353 646 155.8H644ZM646 159.825C646 159.272 645.552 158.825 645 158.825C644.448 158.825 644 159.272 644 159.825H646ZM644 159.925C644 160.478 644.448 160.925 645 160.925C645.552 160.925 646 160.478 646 159.925H644ZM646 163.95C646 163.397 645.552 162.95 645 162.95C644.448 162.95 644 163.397 644 163.95H646ZM644 114.5V114.55H646V114.5H644ZM644 118.575V118.675H646V118.575H644ZM644 122.7V122.8H646V122.7H644ZM644 126.825V126.925H646V126.825H644ZM644 130.95V131.05H646V130.95H644ZM644 135.075V135.175H646V135.075H644ZM644 139.2V139.3H646V139.2H644ZM644 143.325V143.425H646V143.325H644ZM644 147.45V147.55H646V147.45H644ZM644 151.575V151.675H646V151.575H644ZM644 155.7V155.8H646V155.7H644ZM644 159.825V159.925H646V159.825H644ZM644 163.95V164H646V163.95H644Z" fill="#F03100"/>
<path d="M631 182L659 182" stroke="#58DA95" stroke-linejoin="round"/>
<path d="M643 176L649 182L643 188" stroke="#58DA95" stroke-linecap="square" stroke-linejoin="round"/>
<path d="M689.965 179.255H688.217C688.149 178.882 688.024 178.553 687.841 178.269C687.658 177.985 687.434 177.744 687.169 177.546C686.903 177.348 686.606 177.199 686.278 177.098C685.953 176.997 685.607 176.946 685.241 176.946C684.58 176.946 683.987 177.113 683.464 177.445C682.945 177.778 682.534 178.265 682.231 178.908C681.933 179.55 681.783 180.335 681.783 181.261C681.783 182.195 681.933 182.984 682.231 183.626C682.534 184.269 682.947 184.755 683.47 185.083C683.993 185.412 684.581 185.577 685.235 185.577C685.598 185.577 685.941 185.528 686.266 185.431C686.595 185.33 686.892 185.182 687.157 184.988C687.423 184.794 687.647 184.557 687.83 184.276C688.017 183.992 688.146 183.667 688.217 183.301L689.965 183.307C689.872 183.871 689.69 184.39 689.421 184.865C689.156 185.336 688.814 185.743 688.396 186.087C687.981 186.427 687.507 186.69 686.972 186.877C686.438 187.064 685.855 187.157 685.224 187.157C684.23 187.157 683.345 186.922 682.568 186.451C681.791 185.976 681.178 185.298 680.73 184.417C680.285 183.535 680.063 182.483 680.063 181.261C680.063 180.036 680.287 178.984 680.735 178.106C681.183 177.225 681.796 176.548 682.573 176.078C683.35 175.603 684.234 175.366 685.224 175.366C685.833 175.366 686.401 175.454 686.928 175.629C687.458 175.801 687.935 176.055 688.357 176.392C688.779 176.724 689.128 177.131 689.405 177.613C689.681 178.091 689.868 178.639 689.965 179.255ZM695.528 187.174C694.721 187.174 694.017 186.989 693.416 186.619C692.814 186.249 692.347 185.732 692.015 185.067C691.682 184.402 691.516 183.624 691.516 182.735C691.516 181.842 691.682 181.062 692.015 180.393C692.347 179.724 692.814 179.205 693.416 178.835C694.017 178.465 694.721 178.28 695.528 178.28C696.335 178.28 697.04 178.465 697.641 178.835C698.243 179.205 698.71 179.724 699.042 180.393C699.375 181.062 699.541 181.842 699.541 182.735C699.541 183.624 699.375 184.402 699.042 185.067C698.71 185.732 698.243 186.249 697.641 186.619C697.04 186.989 696.335 187.174 695.528 187.174ZM695.534 185.767C696.057 185.767 696.49 185.629 696.834 185.352C697.178 185.076 697.432 184.708 697.596 184.248C697.764 183.789 697.849 183.283 697.849 182.73C697.849 182.181 697.764 181.676 697.596 181.217C697.432 180.753 697.178 180.382 696.834 180.101C696.49 179.821 696.057 179.681 695.534 179.681C695.007 179.681 694.57 179.821 694.223 180.101C693.879 180.382 693.623 180.753 693.455 181.217C693.291 181.676 693.208 182.181 693.208 182.73C693.208 183.283 693.291 183.789 693.455 184.248C693.623 184.708 693.879 185.076 694.223 185.352C694.57 185.629 695.007 185.767 695.534 185.767ZM703.087 181.889V187H701.411V178.392H703.02V179.793H703.126C703.324 179.337 703.634 178.971 704.056 178.695C704.482 178.418 705.018 178.28 705.665 178.28C706.251 178.28 706.765 178.403 707.206 178.65C707.647 178.893 707.989 179.255 708.231 179.737C708.474 180.219 708.596 180.815 708.596 181.525V187H706.92V181.727C706.92 181.103 706.758 180.615 706.433 180.264C706.108 179.909 705.661 179.732 705.093 179.732C704.705 179.732 704.359 179.816 704.056 179.984C703.758 180.152 703.52 180.398 703.345 180.723C703.173 181.045 703.087 181.433 703.087 181.889ZM717.293 180.494L715.774 180.763C715.711 180.568 715.61 180.383 715.472 180.208C715.337 180.032 715.154 179.888 714.923 179.776C714.691 179.664 714.402 179.608 714.054 179.608C713.58 179.608 713.184 179.715 712.866 179.928C712.548 180.137 712.39 180.408 712.39 180.74C712.39 181.028 712.496 181.26 712.709 181.435C712.922 181.611 713.266 181.755 713.74 181.867L715.108 182.181C715.9 182.364 716.49 182.646 716.878 183.027C717.267 183.408 717.461 183.903 717.461 184.512C717.461 185.027 717.312 185.487 717.013 185.89C716.718 186.29 716.305 186.604 715.774 186.832C715.248 187.06 714.637 187.174 713.942 187.174C712.978 187.174 712.192 186.968 711.583 186.557C710.974 186.143 710.6 185.554 710.462 184.792L712.081 184.545C712.182 184.968 712.39 185.287 712.703 185.504C713.017 185.717 713.426 185.823 713.931 185.823C714.48 185.823 714.919 185.709 715.248 185.481C715.576 185.25 715.741 184.968 715.741 184.635C715.741 184.366 715.64 184.14 715.438 183.957C715.24 183.774 714.936 183.636 714.525 183.542L713.068 183.223C712.264 183.04 711.67 182.748 711.286 182.349C710.905 181.949 710.714 181.443 710.714 180.83C710.714 180.322 710.856 179.877 711.14 179.496C711.424 179.115 711.816 178.818 712.317 178.605C712.817 178.388 713.391 178.28 714.037 178.28C714.968 178.28 715.7 178.482 716.234 178.885C716.768 179.285 717.121 179.821 717.293 180.494ZM724.756 183.43V178.392H726.438V187H724.79V185.509H724.7C724.502 185.969 724.185 186.352 723.748 186.658C723.314 186.961 722.774 187.112 722.128 187.112C721.575 187.112 721.086 186.991 720.66 186.748C720.238 186.501 719.905 186.137 719.662 185.655C719.423 185.173 719.304 184.577 719.304 183.867V178.392H720.979V183.666C720.979 184.252 721.142 184.719 721.467 185.067C721.792 185.414 722.214 185.588 722.733 185.588C723.047 185.588 723.359 185.509 723.669 185.352C723.983 185.195 724.243 184.958 724.448 184.641C724.657 184.323 724.76 183.92 724.756 183.43ZM728.689 187V178.392H730.297V179.793H730.404C730.583 179.319 730.876 178.949 731.284 178.684C731.691 178.415 732.178 178.28 732.746 178.28C733.322 178.28 733.804 178.415 734.192 178.684C734.584 178.953 734.874 179.322 735.061 179.793H735.15C735.356 179.334 735.683 178.968 736.131 178.695C736.58 178.418 737.114 178.28 737.734 178.28C738.515 178.28 739.152 178.525 739.645 179.014C740.142 179.504 740.39 180.242 740.39 181.228V187H738.715V181.385C738.715 180.802 738.556 180.38 738.238 180.118C737.921 179.857 737.542 179.726 737.101 179.726C736.555 179.726 736.131 179.894 735.829 180.23C735.526 180.563 735.375 180.991 735.375 181.514V187H733.705V181.278C733.705 180.811 733.559 180.436 733.268 180.152C732.976 179.868 732.597 179.726 732.13 179.726C731.812 179.726 731.519 179.81 731.25 179.978C730.985 180.143 730.77 180.372 730.606 180.667C730.445 180.963 730.365 181.304 730.365 181.693V187H728.689ZM746.346 187.174C745.498 187.174 744.768 186.993 744.155 186.63C743.546 186.264 743.075 185.75 742.743 185.089C742.414 184.424 742.249 183.645 742.249 182.752C742.249 181.87 742.414 181.093 742.743 180.421C743.075 179.748 743.538 179.223 744.132 178.846C744.73 178.469 745.429 178.28 746.228 178.28C746.714 178.28 747.185 178.36 747.641 178.521C748.096 178.682 748.505 178.934 748.868 179.278C749.23 179.621 749.516 180.068 749.725 180.617C749.934 181.162 750.039 181.826 750.039 182.606V183.2H743.197V181.945H748.397C748.397 181.504 748.307 181.114 748.128 180.774C747.949 180.43 747.697 180.159 747.372 179.961C747.05 179.763 746.673 179.664 746.24 179.664C745.769 179.664 745.358 179.78 745.007 180.012C744.659 180.24 744.39 180.539 744.2 180.908C744.013 181.275 743.919 181.672 743.919 182.102V183.083C743.919 183.658 744.02 184.148 744.222 184.551C744.428 184.955 744.713 185.263 745.079 185.476C745.446 185.685 745.873 185.79 746.363 185.79C746.68 185.79 746.97 185.745 747.231 185.655C747.493 185.562 747.719 185.423 747.91 185.24C748.1 185.057 748.246 184.831 748.347 184.562L749.933 184.848C749.806 185.315 749.578 185.724 749.249 186.075C748.924 186.423 748.515 186.694 748.022 186.888C747.532 187.078 746.974 187.174 746.346 187.174ZM751.898 187V178.392H753.518V179.76H753.607C753.764 179.296 754.041 178.932 754.437 178.667C754.837 178.398 755.289 178.263 755.793 178.263C755.898 178.263 756.021 178.267 756.163 178.274C756.309 178.282 756.423 178.291 756.505 178.303V179.905C756.437 179.887 756.318 179.866 756.146 179.844C755.974 179.817 755.802 179.804 755.63 179.804C755.234 179.804 754.881 179.888 754.571 180.057C754.265 180.221 754.022 180.451 753.843 180.746C753.663 181.037 753.574 181.37 753.574 181.743V187H751.898Z" fill="#102B2D"/>
</svg>
