<svg version="1.1" viewBox="0.0 0.0 817.5774278215223 239.18372703412072" fill="none" stroke="none" stroke-linecap="square" stroke-miterlimit="10" xmlns:xlink="http://www.w3.org/1999/xlink" xmlns="http://www.w3.org/2000/svg"><clipPath id="p.0"><path d="m0 0l817.57745 0l0 239.18373l-817.57745 0l0 -239.18373z" clip-rule="nonzero"/></clipPath><g clip-path="url(#p.0)"><path fill="#ffffff" d="m0 0l817.57745 0l0 239.18373l-817.57745 0z" fill-rule="evenodd"/><path fill="#000000" fill-opacity="0.0" d="m134.63255 27.164421l0 0c0 -10.471876 8.4891205 -18.96101 18.960999 -18.96101l95.40082 0c5.028778 0 9.851578 1.9976721 13.407455 5.5535507c3.5558777 3.5558786 5.5535583 8.378686 5.5535583 13.407458l0 75.84176c0 10.471878 -8.489136 18.961014 -18.961014 18.961014l-95.40082 0c-10.471878 0 -18.960999 -8.489136 -18.960999 -18.961014z" fill-rule="evenodd"/><path stroke="#666666" stroke-width="1.0" stroke-linejoin="round" stroke-linecap="butt" stroke-dasharray="4.0,3.0" d="m134.63255 27.164421l0 0c0 -10.471876 8.4891205 -18.96101 18.960999 -18.96101l95.40082 0c5.028778 0 9.851578 1.9976721 13.407455 5.5535507c3.5558777 3.5558786 5.5535583 8.378686 5.5535583 13.407458l0 75.84176c0 10.471878 -8.489136 18.961014 -18.961014 18.961014l-95.40082 0c-10.471878 0 -18.960999 -8.489136 -18.960999 -18.961014z" fill-rule="evenodd"/><path fill="#666666" d="m186.9977 34.77065q-2.25 -0.65625 -3.28125 -1.59375q-1.03125 -0.9375 -1.03125 -2.328123q0 -1.5625 1.25 -2.59375q1.265625 -1.03125 3.265625 -1.03125q1.359375 0 2.4375 0.53125q1.078125 0.53125 1.65625 1.46875q0.59375 0.921875 0.59375 2.03125l-1.765625 0q0 -1.203125 -0.765625 -1.890625q-0.765625 -0.6875 -2.15625 -0.6875q-1.296875 0 -2.015625 0.5625q-0.71875 0.5625 -0.71875 1.578125q0 0.8125 0.6875 1.3749981q0.6875 0.5625 2.328125 1.03125q1.65625 0.453125 2.59375 1.015625q0.9375 0.5625 1.375 1.3125q0.453125 0.75 0.453125 1.75q0 1.609375 -1.25 2.59375q-1.25 0.96875 -3.359375 0.96875q-1.375 0 -2.5625 -0.515625q-1.171875 -0.53125 -1.8125 -1.4375q-0.640625 -0.921875 -0.640625 -2.078125l1.75 0q0 1.203125 0.890625 1.90625q0.890625 0.6875 2.375 0.6875q1.375 0 2.109375 -0.5625q0.75 -0.5625 0.75 -1.53125q0 -0.984375 -0.6875 -1.515625q-0.6875 -0.53125 -2.46875 -1.046875zm16.911789 1.703125q-0.25 2.09375 -1.5625 3.25q-1.296875 1.140625 -3.46875 1.140625q-2.34375 0 -3.765625 -1.6875q-1.421875 -1.6875 -1.421875 -4.515625l0 -1.265625q0 -1.8593731 0.65625 -3.249998q0.671875 -1.40625 1.875 -2.15625q1.21875 -0.765625 2.8125 -0.765625q2.109375 0 3.390625 1.1875q1.28125 1.171875 1.484375 3.265625l-1.765625 0q-0.21875 -1.578125 -0.984375 -2.28125q-0.765625 -0.71875 -2.125 -0.71875q-1.671875 0 -2.625 1.234375q-0.953125 1.234375 -0.953125 3.531248l0 1.28125q0 2.15625 0.890625 3.4375q0.90625 1.265625 2.53125 1.265625q1.453125 0 2.234375 -0.65625q0.78125 -0.65625 1.03125 -2.296875l1.765625 0zm4.6429596 -9.062498l4.34375 10.828123l4.328125 -10.828123l2.265625 0l0 13.265623l-1.75 0l0 -5.171875l0.171875 -5.562498l-4.359375 10.734373l-1.34375 0l-4.34375 -10.718748l0.171875 5.546873l0 5.171875l-1.734375 0l0 -13.265623l2.25 0z" fill-rule="nonzero"/><path fill="#000000" fill-opacity="0.0" d="m317.8707 27.164421l0 0c0 -10.471876 8.489136 -18.96101 18.960999 -18.96101l95.40082 0c5.028778 0 9.851593 1.9976721 13.407471 5.5535507c3.5558777 3.5558786 5.553528 8.378686 5.553528 13.407458l0 75.84176c0 10.471878 -8.489136 18.961014 -18.960999 18.961014l-95.40082 0c-10.471863 0 -18.960999 -8.489136 -18.960999 -18.961014z" fill-rule="evenodd"/><path stroke="#666666" stroke-width="1.0" stroke-linejoin="round" stroke-linecap="butt" stroke-dasharray="4.0,3.0" d="m317.8707 27.164421l0 0c0 -10.471876 8.489136 -18.96101 18.960999 -18.96101l95.40082 0c5.028778 0 9.851593 1.9976721 13.407471 5.5535507c3.5558777 3.5558786 5.553528 8.378686 5.553528 13.407458l0 75.84176c0 10.471878 -8.489136 18.961014 -18.960999 18.961014l-95.40082 0c-10.471863 0 -18.960999 -8.489136 -18.960999 -18.961014z" fill-rule="evenodd"/><path fill="#666666" d="m371.1878 36.473774q-0.25 2.09375 -1.5625 3.25q-1.296875 1.140625 -3.46875 1.140625q-2.34375 0 -3.765625 -1.6875q-1.421875 -1.6875 -1.421875 -4.515625l0 -1.265625q0 -1.8593731 0.65625 -3.249998q0.671875 -1.40625 1.875 -2.15625q1.21875 -0.765625 2.8125 -0.765625q2.109375 0 3.390625 1.1875q1.28125 1.171875 1.484375 3.265625l-1.765625 0q-0.21875 -1.578125 -0.984375 -2.28125q-0.765625 -0.71875 -2.125 -0.71875q-1.671875 0 -2.625 1.234375q-0.953125 1.234375 -0.953125 3.531248l0 1.28125q0 2.15625 0.890625 3.4375q0.90625 1.265625 2.53125 1.265625q1.453125 0 2.234375 -0.65625q0.78125 -0.65625 1.03125 -2.296875l1.765625 0zm4.2679443 4.203125l-1.75 0l0 -13.265623l1.75 0l0 13.265623zm3.2615051 1.140625l-1.453125 0l5.546875 -14.406248l1.4375 0l-5.53125 14.406248zm17.375885 -5.34375q-0.25 2.09375 -1.5625 3.25q-1.296875 1.140625 -3.46875 1.140625q-2.34375 0 -3.7655945 -1.6875q-1.421875 -1.6875 -1.421875 -4.515625l0 -1.265625q0 -1.8593731 0.65625 -3.249998q0.671875 -1.40625 1.8749695 -2.15625q1.21875 -0.765625 2.8125 -0.765625q2.109375 0 3.390625 1.1875q1.28125 1.171875 1.484375 3.265625l-1.765625 0q-0.21875 -1.578125 -0.984375 -2.28125q-0.765625 -0.71875 -2.125 -0.71875q-1.671875 0 -2.625 1.234375q-0.953125 1.234375 -0.953125 3.531248l0 1.28125q0 2.15625 0.890625 3.4375q0.90625 1.265625 2.53125 1.265625q1.453125 0 2.234375 -0.65625q0.78125 -0.65625 1.03125 -2.296875l1.765625 0zm2.3929749 4.203125l0 -13.265623l3.734375 0q1.734375 0 3.0625 0.765625q1.328125 0.765625 2.046875 2.1875q0.734375 1.40625 0.734375 3.234373l0 0.84375q0 1.875 -0.71875 3.296875q-0.71875 1.40625 -2.0625 2.171875q-1.34375 0.75 -3.140625 0.765625l-3.65625 0zm1.734375 -11.828123l0 10.390623l1.84375 0q2.03125 0 3.15625 -1.25q1.125 -1.25 1.125 -3.578125l0 -0.78125q0 -2.249998 -1.0625 -3.499998q-1.0625 -1.265625 -3.015625 -1.28125l-2.046875 0z" fill-rule="nonzero"/><path fill="#000000" fill-opacity="0.0" d="m501.41724 27.164421l0 0c0 -10.471876 8.489136 -18.96101 18.960999 -18.96101l95.40082 0c5.0287476 0 9.8515625 1.9976721 13.407471 5.5535507c3.5558472 3.5558786 5.553528 8.378686 5.553528 13.407458l0 75.84176c0 10.471878 -8.489136 18.961014 -18.960999 18.961014l-95.40082 0c-10.471863 0 -18.960999 -8.489136 -18.960999 -18.961014z" fill-rule="evenodd"/><path stroke="#666666" stroke-width="1.0" stroke-linejoin="round" stroke-linecap="butt" stroke-dasharray="4.0,3.0" d="m501.41724 27.164421l0 0c0 -10.471876 8.489136 -18.96101 18.960999 -18.96101l95.40082 0c5.0287476 0 9.8515625 1.9976721 13.407471 5.5535507c3.5558472 3.5558786 5.553528 8.378686 5.553528 13.407458l0 75.84176c0 10.471878 -8.489136 18.961014 -18.960999 18.961014l-95.40082 0c-10.471863 0 -18.960999 -8.489136 -18.960999 -18.961014z" fill-rule="evenodd"/><path fill="#666666" d="m521.81433 40.6769l0 -13.265623l3.734375 0q1.734375 0 3.0625 0.765625q1.328125 0.765625 2.046875 2.1875q0.734375 1.40625 0.734375 3.234373l0 0.84375q0 1.875 -0.71875 3.296875q-0.71875 1.40625 -2.0625 2.171875q-1.34375 0.75 -3.140625 0.765625l-3.65625 0zm1.734375 -11.828123l0 10.390623l1.84375 0q2.03125 0 3.15625 -1.25q1.125 -1.25 1.125 -3.578125l0 -0.78125q0 -2.249998 -1.0625 -3.499998q-1.0625 -1.265625 -3.015625 -1.28125l-2.046875 0zm12.062195 11.828123l-1.6875 0l0 -9.859373l1.6875 0l0 9.859373zm-1.828125 -12.468748q0 -0.40625 0.25 -0.6875q0.25 -0.296875 0.734375 -0.296875q0.5 0 0.75 0.296875q0.265625 0.28125 0.265625 0.6875q0 0.40625 -0.265625 0.6875q-0.25 0.265625 -0.75 0.265625q-0.484375 0 -0.734375 -0.265625q-0.25 -0.28125 -0.25 -0.6875zm10.26178 9.859373q0 -0.6875 -0.515625 -1.0625q-0.515625 -0.375 -1.796875 -0.640625q-1.28125 -0.28125 -2.03125 -0.65625q-0.75 -0.390625 -1.109375 -0.921875q-0.359375 -0.53125 -0.359375 -1.265625q0 -1.203125 1.015625 -2.031248q1.03125 -0.84375 2.625 -0.84375q1.671875 0 2.71875 0.859375q1.046875 0.8593731 1.046875 2.218748l-1.6875 0q0 -0.703125 -0.59375 -1.203125q-0.59375 -0.5 -1.484375 -0.5q-0.921875 0 -1.4375 0.40625q-0.515625 0.390625 -0.515625 1.046875q0 0.609375 0.484375 0.921875q0.484375 0.3125 1.734375 0.59375q1.265625 0.28125 2.046875 0.671875q0.78125 0.390625 1.15625 0.9375q0.390625 0.546875 0.390625 1.34375q0 1.328125 -1.0625 2.125q-1.046875 0.796875 -2.734375 0.796875q-1.1875 0 -2.109375 -0.421875q-0.90625 -0.421875 -1.421875 -1.171875q-0.515625 -0.75 -0.515625 -1.625l1.6875 0q0.046875 0.84375 0.671875 1.34375q0.640625 0.5 1.6875 0.5q0.953125 0 1.53125 -0.390625q0.578125 -0.390625 0.578125 -1.03125zm6.166504 -9.640623l0 2.390625l1.84375 0l0 1.3124981l-1.84375 0l0 6.109375q0 0.59375 0.234375 0.890625q0.25 0.296875 0.84375 0.296875q0.296875 0 0.8125 -0.109375l0 1.359375q-0.671875 0.1875 -1.296875 0.1875q-1.125 0 -1.703125 -0.6875q-0.578125 -0.6875 -0.578125 -1.9375l0 -6.109375l-1.796875 0l0 -1.3124981l1.796875 0l0 -2.390625l1.6875 0zm8.578613 3.906248q-0.390625 -0.0625 -0.84375 -0.0625q-1.65625 0 -2.25 1.40625l0 7.0l-1.671875 0l0 -9.859373l1.640625 0l0.015625 1.140625q0.828125 -1.3125 2.359375 -1.3125q0.484375 0 0.75 0.125l0 1.5624981zm3.3753662 8.34375l-1.6875 0l0 -9.859373l1.6875 0l0 9.859373zm-1.828125 -12.468748q0 -0.40625 0.25 -0.6875q0.25 -0.296875 0.734375 -0.296875q0.5 0 0.75 0.296875q0.265625 0.28125 0.265625 0.6875q0 0.40625 -0.265625 0.6875q-0.25 0.265625 -0.75 0.265625q-0.484375 0 -0.734375 -0.265625q-0.25 -0.28125 -0.25 -0.6875zm12.871216 7.656248q0 2.25 -1.046875 3.625q-1.03125 1.375 -2.78125 1.375q-1.875 0 -2.890625 -1.328125l-0.078125 1.140625l-1.546875 0l0 -13.999998l1.671875 0l0 5.234375q1.03125 -1.265625 2.8125 -1.265625q1.796875 0 2.828125 1.3593731q1.03125 1.34375 1.03125 3.703125l0 0.15625zm-1.6875 -0.203125q0 -1.71875 -0.671875 -2.65625q-0.65625 -0.9375 -1.90625 -0.9375q-1.671875 0 -2.40625 1.546875l0 4.265625q0.78125 1.546875 2.421875 1.546875q1.21875 0 1.890625 -0.9375q0.671875 -0.9375 0.671875 -2.828125zm9.888672 4.046875q-0.984375 1.15625 -2.890625 1.15625q-1.578125 0 -2.40625 -0.921875q-0.8125 -0.921875 -0.828125 -2.703125l0 -6.421873l1.6875 0l0 6.374998q0 2.234375 1.828125 2.234375q1.921875 0 2.5625 -1.4375l0 -7.171873l1.6875 0l0 9.859373l-1.609375 0l-0.03125 -0.96875zm6.487732 -11.281248l0 2.390625l1.84375 0l0 1.3124981l-1.84375 0l0 6.109375q0 0.59375 0.234375 0.890625q0.25 0.296875 0.84375 0.296875q0.296875 0 0.8125 -0.109375l0 1.359375q-0.671875 0.1875 -1.296875 0.1875q-1.125 0 -1.703125 -0.6875q-0.578125 -0.6875 -0.578125 -1.9375l0 -6.109375l-1.796875 0l0 -1.3124981l1.796875 0l0 -2.390625l1.6875 0zm5.6411743 12.249998l-1.6875 0l0 -9.859373l1.6875 0l0 9.859373zm-1.828125 -12.468748q0 -0.40625 0.25 -0.6875q0.25 -0.296875 0.734375 -0.296875q0.5 0 0.75 0.296875q0.265625 0.28125 0.265625 0.6875q0 0.40625 -0.265625 0.6875q-0.25 0.265625 -0.75 0.265625q-0.484375 0 -0.734375 -0.265625q-0.25 -0.28125 -0.25 -0.6875zm4.07428 7.453123q0 -1.453125 0.5625 -2.609375q0.578125 -1.1562481 1.59375 -1.7812481q1.015625 -0.625 2.3125 -0.625q2.015625 0 3.25 1.3906231q1.25 1.390625 1.25 3.703125l0 0.125q0 1.4375 -0.546875 2.578125q-0.546875 1.140625 -1.578125 1.78125q-1.015625 0.640625 -2.359375 0.640625q-2.0 0 -3.25 -1.390625q-1.234375 -1.40625 -1.234375 -3.703125l0 -0.109375zm1.6875 0.203125q0 1.640625 0.765625 2.640625q0.765625 0.984375 2.03125 0.984375q1.296875 0 2.046875 -1.0q0.75 -1.015625 0.75 -2.828125q0 -1.625 -0.765625 -2.625q-0.765625 -1.015625 -2.046875 -1.015625q-1.25 0 -2.015625 1.0q-0.765625 0.984375 -0.765625 2.84375zm10.999268 -5.046873l0.046875 1.2343731q1.125 -1.4062481 2.953125 -1.4062481q3.125 0 3.15625 3.515623l0 6.515625l-1.6875 0l0 -6.515625q-0.015625 -1.078125 -0.5 -1.578125q-0.46875 -0.515625 -1.484375 -0.515625q-0.8125 0 -1.4375 0.4375q-0.609375 0.4375 -0.96875 1.15625l0 7.015625l-1.671875 0l0 -9.859373l1.59375 0z" fill-rule="nonzero"/><path fill="#d9ead3" d="m143.58224 53.39501l114.80316 0l0 48.21972c-57.40158 0 -57.40158 18.372597 -114.80316 7.9336243z" fill-rule="evenodd"/><path stroke="#595959" stroke-width="1.0" stroke-linejoin="round" stroke-linecap="butt" d="m143.58224 53.39501l114.80316 0l0 48.21972c-57.40158 0 -57.40158 18.372597 -114.80316 7.9336243z" fill-rule="evenodd"/><path fill="#222222" d="m177.54622 78.51862q-2.25 -0.65625 -3.28125 -1.59375q-1.03125 -0.9375 -1.03125 -2.328125q0 -1.5625 1.25 -2.59375q1.265625 -1.03125 3.265625 -1.03125q1.359375 0 2.4375 0.53125q1.078125 0.53125 1.65625 1.46875q0.59375 0.921875 0.59375 2.03125l-1.765625 0q0 -1.203125 -0.765625 -1.890625q-0.765625 -0.6875 -2.15625 -0.6875q-1.296875 0 -2.015625 0.5625q-0.71875 0.5625 -0.71875 1.578125q0 0.8125 0.6875 1.375q0.6875 0.5625 2.328125 1.03125q1.65625 0.453125 2.59375 1.015625q0.9375 0.5625 1.375 1.3125q0.453125 0.75 0.453125 1.75q0 1.609375 -1.25 2.59375q-1.25 0.96875 -3.359375 0.96875q-1.375 0 -2.5625 -0.515625q-1.171875 -0.53125 -1.8125 -1.4375q-0.640625 -0.921875 -0.640625 -2.078125l1.75 0q0 1.203125 0.890625 1.90625q0.890625 0.6875 2.375 0.6875q1.375 0 2.109375 -0.5625q0.75 -0.5625 0.75 -1.53125q0 -0.984375 -0.6875 -1.515625q-0.6875 -0.53125 -2.46875 -1.046875zm6.443039 0.890625q0 -1.453125 0.5625 -2.609375q0.578125 -1.15625 1.59375 -1.78125q1.015625 -0.625 2.3125 -0.625q2.015625 0 3.25 1.390625q1.25 1.390625 1.25 3.703125l0 0.125q0 1.4375 -0.546875 2.578125q-0.546875 1.140625 -1.578125 1.78125q-1.015625 0.640625 -2.359375 0.640625q-2.0 0 -3.25 -1.390625q-1.234375 -1.40625 -1.234375 -3.703125l0 -0.109375zm1.6875 0.203125q0 1.640625 0.765625 2.640625q0.765625 0.984375 2.03125 0.984375q1.296875 0 2.046875 -1.0q0.75 -1.015625 0.75 -2.828125q0 -1.625 -0.765625 -2.625q-0.765625 -1.015625 -2.046875 -1.015625q-1.25 0 -2.015625 1.0q-0.765625 0.984375 -0.765625 2.84375zm15.483643 3.84375q-0.984375 1.15625 -2.890625 1.15625q-1.578125 0 -2.40625 -0.921875q-0.8125 -0.921875 -0.828125 -2.703125l0 -6.421875l1.6875 0l0 6.375q0 2.234375 1.828125 2.234375q1.921875 0 2.5625 -1.4375l0 -7.171875l1.6875 0l0 9.859375l-1.609375 0l-0.03125 -0.96875zm8.972122 -7.375q-0.390625 -0.0625 -0.84375 -0.0625q-1.65625 0 -2.25 1.40625l0 7.0l-1.671875 0l0 -9.859375l1.640625 0l0.015625 1.140625q0.828125 -1.3125 2.359375 -1.3125q0.484375 0 0.75 0.125l0 1.5625zm5.3272095 7.15625q0.890625 0 1.5625 -0.546875q0.6875 -0.546875 0.75 -1.375l1.59375 0q-0.046875 0.84375 -0.578125 1.609375q-0.53125 0.765625 -1.4375 1.234375q-0.890625 0.453125 -1.890625 0.453125q-2.015625 0 -3.203125 -1.34375q-1.1875 -1.34375 -1.1875 -3.6875l0 -0.28125q0 -1.4375 0.515625 -2.546875q0.53125 -1.125 1.515625 -1.734375q1.0 -0.625 2.34375 -0.625q1.65625 0 2.75 1.0q1.109375 0.984375 1.171875 2.5625l-1.59375 0q-0.0625 -0.953125 -0.71875 -1.5625q-0.65625 -0.625 -1.609375 -0.625q-1.28125 0 -2.0 0.921875q-0.703125 0.921875 -0.703125 2.671875l0 0.328125q0 1.703125 0.703125 2.625q0.703125 0.921875 2.015625 0.921875zm9.890381 1.375q-2.0 0 -3.265625 -1.3125q-1.25 -1.328125 -1.25 -3.53125l0 -0.3125q0 -1.46875 0.5625 -2.609375q0.5625 -1.15625 1.5625 -1.796875q1.015625 -0.65625 2.1875 -0.65625q1.921875 0 2.984375 1.265625q1.0625 1.265625 1.0625 3.625l0 0.6875l-6.671875 0q0.03125 1.46875 0.84375 2.375q0.828125 0.890625 2.078125 0.890625q0.890625 0 1.515625 -0.359375q0.625 -0.375 1.078125 -0.96875l1.03125 0.796875q-1.234375 1.90625 -3.71875 1.90625zm-0.203125 -8.84375q-1.015625 0 -1.71875 0.75q-0.6875 0.734375 -0.84375 2.078125l4.9375 0l0 -0.125q-0.078125 -1.28125 -0.703125 -1.984375q-0.609375 -0.71875 -1.671875 -0.71875z" fill-rule="nonzero"/><path fill="#c9daf8" d="m327.13007 63.42146l0 0c0 -5.5345535 4.486664 -10.021198 10.02121 -10.021198l94.76074 0c2.6578064 0 5.206726 1.0558014 7.0860596 2.9351425c1.8793335 1.8793373 2.9351501 4.4282684 2.9351501 7.0860558l0 40.08359c0 5.5345535 -4.4866333 10.021194 -10.02121 10.021194l-94.76074 0c-5.534546 0 -10.02121 -4.486641 -10.02121 -10.021194z" fill-rule="evenodd"/><path stroke="#595959" stroke-width="1.0" stroke-linejoin="round" stroke-linecap="butt" d="m327.13007 63.42146l0 0c0 -5.5345535 4.486664 -10.021198 10.02121 -10.021198l94.76074 0c2.6578064 0 5.206726 1.0558014 7.0860596 2.9351425c1.8793335 1.8793373 2.9351501 4.4282684 2.9351501 7.0860558l0 40.08359c0 5.5345535 -4.4866333 10.021194 -10.02121 10.021194l-94.76074 0c-5.534546 0 -10.02121 -4.486641 -10.02121 -10.021194z" fill-rule="evenodd"/><path fill="#222222" d="m365.34076 90.383255l0 -13.265625l4.328125 0q2.15625 0 3.25 0.890625q1.09375 0.890625 1.09375 2.640625q0 0.9375 -0.53125 1.65625q-0.53125 0.703125 -1.4375 1.09375q1.0625 0.3125 1.6875 1.15625q0.625 0.84375 0.625 2.0q0 1.78125 -1.15625 2.8125q-1.15625 1.015625 -3.265625 1.015625l-4.59375 0zm1.734375 -6.203125l0 4.765625l2.890625 0q1.21875 0 1.921875 -0.625q0.71875 -0.640625 0.71875 -1.75q0 -2.390625 -2.609375 -2.390625l-2.921875 0zm0 -1.40625l2.65625 0q1.140625 0 1.828125 -0.5625q0.6875 -0.578125 0.6875 -1.5625q0 -1.09375 -0.640625 -1.59375q-0.640625 -0.5 -1.9375 -0.5l-2.59375 0l0 4.21875zm15.6927185 6.640625q-0.984375 1.15625 -2.890625 1.15625q-1.578125 0 -2.40625 -0.921875q-0.8125 -0.921875 -0.828125 -2.703125l0 -6.421875l1.6875 0l0 6.375q0 2.234375 1.828125 2.234375q1.921875 0 2.5625 -1.4375l0 -7.171875l1.6875 0l0 9.859375l-1.609375 0l-0.03125 -0.96875zm6.0346375 0.96875l-1.6875 0l0 -9.859375l1.6875 0l0 9.859375zm-1.828125 -12.46875q0 -0.40625 0.25 -0.6875q0.25 -0.296875 0.734375 -0.296875q0.5 0 0.75 0.296875q0.265625 0.28125 0.265625 0.6875q0 0.40625 -0.265625 0.6875q-0.25 0.265625 -0.75 0.265625q-0.484375 0 -0.734375 -0.265625q-0.25 -0.28125 -0.25 -0.6875zm6.35553 12.46875l-1.6875 0l0 -14.0l1.6875 0l0 14.0zm2.2774353 -5.015625q0 -2.265625 1.078125 -3.640625q1.078125 -1.375 2.8125 -1.375q1.734375 0 2.75 1.171875l0 -5.140625l1.6875 0l0 14.0l-1.546875 0l-0.09375 -1.0625q-1.0 1.25 -2.8125 1.25q-1.703125 0 -2.796875 -1.40625q-1.078125 -1.40625 -1.078125 -3.65625l0 -0.140625zm1.6875 0.203125q0 1.671875 0.6875 2.625q0.703125 0.9375 1.921875 0.9375q1.609375 0 2.34375 -1.4375l0 -4.53125q-0.765625 -1.390625 -2.328125 -1.390625q-1.234375 0 -1.9375 0.953125q-0.6875 0.953125 -0.6875 2.84375z" fill-rule="nonzero"/><path fill="#d9ead3" d="m510.6779 53.397636l114.80313 0l0 48.21972c-57.40155 0 -57.40155 18.372604 -114.80313 7.9336243z" fill-rule="evenodd"/><path stroke="#595959" stroke-width="1.0" stroke-linejoin="round" stroke-linecap="butt" d="m510.6779 53.397636l114.80313 0l0 48.21972c-57.40155 0 -57.40155 18.372604 -114.80313 7.9336243z" fill-rule="evenodd"/><path fill="#222222" d="m535.5923 79.24l0 5.1875l-1.734375 0l0 -13.265625l4.890625 0q2.171875 0 3.40625 1.109375q1.234375 1.109375 1.234375 2.953125q0 1.921875 -1.21875 2.96875q-1.203125 1.046875 -3.453125 1.046875l-3.125 0zm0 -1.4375l3.15625 0q1.390625 0 2.140625 -0.65625q0.75 -0.65625 0.75 -1.90625q0 -1.1875 -0.75 -1.890625q-0.75 -0.71875 -2.046875 -0.75l-3.25 0l0 5.203125zm15.7473755 6.625q-0.140625 -0.296875 -0.234375 -1.03125q-1.171875 1.21875 -2.8125 1.21875q-1.453125 0 -2.390625 -0.828125q-0.921875 -0.828125 -0.921875 -2.09375q0 -1.53125 1.15625 -2.375q1.171875 -0.859375 3.296875 -0.859375l1.640625 0l0 -0.78125q0 -0.890625 -0.53125 -1.40625q-0.515625 -0.53125 -1.546875 -0.53125q-0.90625 0 -1.515625 0.46875q-0.609375 0.453125 -0.609375 1.09375l-1.703125 0q0 -0.734375 0.515625 -1.421875q0.53125 -0.6875 1.421875 -1.078125q0.90625 -0.40625 1.984375 -0.40625q1.703125 0 2.671875 0.859375q0.96875 0.84375 1.0 2.328125l0 4.53125q0 1.359375 0.34375 2.171875l0 0.140625l-1.765625 0zm-2.796875 -1.28125q0.796875 0 1.5 -0.40625q0.71875 -0.421875 1.03125 -1.078125l0 -2.015625l-1.3125 0q-3.109375 0 -3.109375 1.8125q0 0.796875 0.53125 1.25q0.53125 0.4375 1.359375 0.4375zm10.819824 0.09375q0.890625 0 1.5625 -0.546875q0.6875 -0.546875 0.75 -1.375l1.59375 0q-0.046875 0.84375 -0.578125 1.609375q-0.53125 0.765625 -1.4375 1.234375q-0.890625 0.453125 -1.890625 0.453125q-2.015625 0 -3.203125 -1.34375q-1.1875 -1.34375 -1.1875 -3.6875l0 -0.28125q0 -1.4375 0.515625 -2.546875q0.53125 -1.125 1.515625 -1.734375q1.0 -0.625 2.34375 -0.625q1.65625 0 2.75 1.0q1.109375 0.984375 1.171875 2.5625l-1.59375 0q-0.0625 -0.953125 -0.71875 -1.5625q-0.65625 -0.625 -1.609375 -0.625q-1.28125 0 -2.0 0.921875q-0.703125 0.921875 -0.703125 2.671875l0 0.328125q0 1.703125 0.703125 2.625q0.703125 0.921875 2.015625 0.921875zm8.562256 -3.375l-1.0625 1.09375l0 3.46875l-1.6875 0l0 -14.0l1.6875 0l0 8.46875l0.90625 -1.078125l3.0625 -3.25l2.046875 0l-3.828125 4.125l4.28125 5.734375l-1.984375 0l-3.421875 -4.5625zm12.783813 4.5625q-0.140625 -0.296875 -0.234375 -1.03125q-1.171875 1.21875 -2.8125 1.21875q-1.453125 0 -2.390625 -0.828125q-0.921875 -0.828125 -0.921875 -2.09375q0 -1.53125 1.15625 -2.375q1.171875 -0.859375 3.296875 -0.859375l1.640625 0l0 -0.78125q0 -0.890625 -0.53125 -1.40625q-0.515625 -0.53125 -1.546875 -0.53125q-0.90625 0 -1.515625 0.46875q-0.609375 0.453125 -0.609375 1.09375l-1.703125 0q0 -0.734375 0.515625 -1.421875q0.53125 -0.6875 1.421875 -1.078125q0.90625 -0.40625 1.984375 -0.40625q1.703125 0 2.671875 0.859375q0.96875 0.84375 1.0 2.328125l0 4.53125q0 1.359375 0.34375 2.171875l0 0.140625l-1.765625 0zm-2.796875 -1.28125q0.796875 0 1.5 -0.40625q0.71875 -0.421875 1.03125 -1.078125l0 -2.015625l-1.3125 0q-3.109375 0 -3.109375 1.8125q0 0.796875 0.53125 1.25q0.53125 0.4375 1.359375 0.4375zm6.460449 -3.734375q0 -2.296875 1.0625 -3.65625q1.0625 -1.359375 2.828125 -1.359375q1.796875 0 2.8125 1.265625l0.078125 -1.09375l1.546875 0l0 9.625q0 1.90625 -1.140625 3.0q-1.125 1.109375 -3.046875 1.109375q-1.0625 0 -2.09375 -0.453125q-1.015625 -0.453125 -1.546875 -1.25l0.875 -1.0q1.078125 1.328125 2.65625 1.328125q1.21875 0 1.90625 -0.6875q0.6875 -0.6875 0.6875 -1.953125l0 -0.84375q-1.0 1.171875 -2.75 1.171875q-1.734375 0 -2.8125 -1.390625q-1.0625 -1.40625 -1.0625 -3.8125zm1.6875 0.203125q0 1.65625 0.6875 2.609375q0.6875 0.953125 1.921875 0.953125q1.59375 0 2.328125 -1.453125l0 -4.5q-0.765625 -1.40625 -2.3125 -1.40625q-1.234375 0 -1.9375 0.953125q-0.6875 0.953125 -0.6875 2.84375zm13.263672 5.0q-2.0 0 -3.265625 -1.3125q-1.25 -1.328125 -1.25 -3.53125l0 -0.3125q0 -1.46875 0.5625 -2.609375q0.5625 -1.15625 1.5625 -1.796875q1.015625 -0.65625 2.1875 -0.65625q1.921875 0 2.984375 1.265625q1.0625 1.265625 1.0625 3.625l0 0.6875l-6.671875 0q0.03125 1.46875 0.84375 2.375q0.828125 0.890625 2.078125 0.890625q0.890625 0 1.515625 -0.359375q0.625 -0.375 1.078125 -0.96875l1.03125 0.796875q-1.234375 1.90625 -3.71875 1.90625zm-0.203125 -8.84375q-1.015625 0 -1.71875 0.75q-0.6875 0.734375 -0.84375 2.078125l4.9375 0l0 -0.125q-0.078125 -1.28125 -0.703125 -1.984375q-0.609375 -0.71875 -1.671875 -0.71875z" fill-rule="nonzero"/><path fill="#d9ead3" d="m311.4462 171.67061l146.17133 0l0 48.21971c-73.08566 0 -73.08566 18.372604 -146.17133 7.9336243z" fill-rule="evenodd"/><path stroke="#595959" stroke-width="1.0" stroke-linejoin="round" stroke-linecap="butt" d="m311.4462 171.67061l146.17133 0l0 48.21971c-73.08566 0 -73.08566 18.372604 -146.17133 7.9336243z" fill-rule="evenodd"/><path fill="#222222" d="m335.05188 202.70045l0 -13.265625l3.734375 0q1.734375 0 3.0625 0.765625q1.328125 0.765625 2.046875 2.1875q0.734375 1.40625 0.734375 3.234375l0 0.84375q0 1.875 -0.71875 3.296875q-0.71875 1.40625 -2.0625 2.171875q-1.34375 0.75 -3.140625 0.765625l-3.65625 0zm1.734375 -11.828125l0 10.390625l1.84375 0q2.03125 0 3.15625 -1.25q1.125 -1.25 1.125 -3.578125l0 -0.78125q0 -2.25 -1.0625 -3.5q-1.0625 -1.265625 -3.015625 -1.28125l-2.046875 0zm14.312195 12.015625q-2.0 0 -3.265625 -1.3125q-1.25 -1.328125 -1.25 -3.53125l0 -0.3125q0 -1.46875 0.5625 -2.609375q0.5625 -1.15625 1.5625 -1.796875q1.015625 -0.65625 2.1875 -0.65625q1.921875 0 2.984375 1.265625q1.0625 1.265625 1.0625 3.625l0 0.6875l-6.671875 0q0.03125 1.46875 0.84375 2.375q0.828125 0.890625 2.078125 0.890625q0.890625 0 1.515625 -0.359375q0.625 -0.375 1.078125 -0.96875l1.03125 0.796875q-1.234375 1.90625 -3.71875 1.90625zm-0.203125 -8.84375q-1.015625 0 -1.71875 0.75q-0.6875 0.734375 -0.84375 2.078125l4.9375 0l0 -0.125q-0.078125 -1.28125 -0.703125 -1.984375q-0.609375 -0.71875 -1.671875 -0.71875zm14.321289 3.84375q0 2.25 -1.03125 3.625q-1.015625 1.375 -2.78125 1.375q-1.796875 0 -2.828125 -1.140625l0 4.75l-1.671875 0l0 -13.65625l1.53125 0l0.078125 1.09375q1.03125 -1.265625 2.859375 -1.265625q1.78125 0 2.8125 1.34375q1.03125 1.328125 1.03125 3.71875l0 0.15625zm-1.671875 -0.203125q0 -1.65625 -0.71875 -2.625q-0.703125 -0.96875 -1.953125 -0.96875q-1.53125 0 -2.296875 1.359375l0 4.703125q0.765625 1.359375 2.328125 1.359375q1.203125 0 1.921875 -0.953125q0.71875 -0.96875 0.71875 -2.875zm7.9043274 5.203125q-2.0 0 -3.265625 -1.3125q-1.25 -1.328125 -1.25 -3.53125l0 -0.3125q0 -1.46875 0.5625 -2.609375q0.5625 -1.15625 1.5625 -1.796875q1.015625 -0.65625 2.1875 -0.65625q1.921875 0 2.984375 1.265625q1.0625 1.265625 1.0625 3.625l0 0.6875l-6.671875 0q0.03125 1.46875 0.84375 2.375q0.828125 0.890625 2.078125 0.890625q0.890625 0 1.515625 -0.359375q0.625 -0.375 1.078125 -0.96875l1.03125 0.796875q-1.234375 1.90625 -3.71875 1.90625zm-0.203125 -8.84375q-1.015625 0 -1.71875 0.75q-0.6875 0.734375 -0.84375 2.078125l4.9375 0l0 -0.125q-0.078125 -1.28125 -0.703125 -1.984375q-0.609375 -0.71875 -1.671875 -0.71875zm7.602539 -1.203125l0.046875 1.234375q1.125 -1.40625 2.953125 -1.40625q3.125 0 3.15625 3.515625l0 6.515625l-1.6875 0l0 -6.515625q-0.015625 -1.078125 -0.5 -1.578125q-0.46875 -0.515625 -1.484375 -0.515625q-0.8125 0 -1.4375 0.4375q-0.609375 0.4375 -0.96875 1.15625l0 7.015625l-1.671875 0l0 -9.859375l1.59375 0zm8.278107 4.84375q0 -2.265625 1.078125 -3.640625q1.078125 -1.375 2.8125 -1.375q1.734375 0 2.75 1.171875l0 -5.140625l1.6875 0l0 14.0l-1.546875 0l-0.09375 -1.0625q-1.0 1.25 -2.8125 1.25q-1.703125 0 -2.796875 -1.40625q-1.078125 -1.40625 -1.078125 -3.65625l0 -0.140625zm1.6875 0.203125q0 1.671875 0.6875 2.625q0.703125 0.9375 1.921875 0.9375q1.609375 0 2.34375 -1.4375l0 -4.53125q-0.765625 -1.390625 -2.328125 -1.390625q-1.234375 0 -1.9375 0.953125q-0.6875 0.953125 -0.6875 2.84375zm13.333984 5.0q-2.0 0 -3.265625 -1.3125q-1.25 -1.328125 -1.25 -3.53125l0 -0.3125q0 -1.46875 0.5625 -2.609375q0.5625 -1.15625 1.5625 -1.796875q1.015625 -0.65625 2.1875 -0.65625q1.921875 0 2.984375 1.265625q1.0625 1.265625 1.0625 3.625l0 0.6875l-6.671875 0q0.03125 1.46875 0.84375 2.375q0.828125 0.890625 2.078125 0.890625q0.890625 0 1.515625 -0.359375q0.625 -0.375 1.078125 -0.96875l1.03125 0.796875q-1.234375 1.90625 -3.71875 1.90625zm-0.203125 -8.84375q-1.015625 0 -1.71875 0.75q-0.6875 0.734375 -0.84375 2.078125l4.9375 0l0 -0.125q-0.078125 -1.28125 -0.703125 -1.984375q-0.609375 -0.71875 -1.671875 -0.71875zm7.602539 -1.203125l0.046875 1.234375q1.125 -1.40625 2.953125 -1.40625q3.125 0 3.15625 3.515625l0 6.515625l-1.6875 0l0 -6.515625q-0.015625 -1.078125 -0.5 -1.578125q-0.46875 -0.515625 -1.484375 -0.515625q-0.8125 0 -1.4375 0.4375q-0.609375 0.4375 -0.96875 1.15625l0 7.015625l-1.671875 0l0 -9.859375l1.59375 0zm12.653107 8.671875q0.890625 0 1.5625 -0.546875q0.6875 -0.546875 0.75 -1.375l1.59375 0q-0.046875 0.84375 -0.578125 1.609375q-0.53125 0.765625 -1.4375 1.234375q-0.890625 0.453125 -1.890625 0.453125q-2.015625 0 -3.203125 -1.34375q-1.1875 -1.34375 -1.1875 -3.6875l0 -0.28125q0 -1.4375 0.515625 -2.546875q0.53125 -1.125 1.515625 -1.734375q1.0 -0.625 2.34375 -0.625q1.65625 0 2.75 1.0q1.109375 0.984375 1.171875 2.5625l-1.59375 0q-0.0625 -0.953125 -0.71875 -1.5625q-0.65625 -0.625 -1.609375 -0.625q-1.28125 0 -2.0 0.921875q-0.703125 0.921875 -0.703125 2.671875l0 0.328125q0 1.703125 0.703125 2.625q0.703125 0.921875 2.015625 0.921875zm9.031006 -1.28125l2.296875 -7.390625l1.796875 0l-3.953125 11.375q-0.921875 2.46875 -2.921875 2.46875l-0.328125 -0.03125l-0.625 -0.125l0 -1.359375l0.453125 0.03125q0.859375 0 1.328125 -0.34375q0.484375 -0.34375 0.796875 -1.265625l0.375 -1.0l-3.515625 -9.75l1.84375 0l2.453125 7.390625z" fill-rule="nonzero"/><path fill="#cfe2f3" d="m94.73747 79.85171l21.716537 0l0 -3.614174l7.228348 7.228348l-7.228348 7.228348l0 -3.614174l-21.716537 0z" fill-rule="evenodd"/><path stroke="#000000" stroke-width="1.0" stroke-linejoin="round" stroke-linecap="butt" d="m94.73747 79.85171l21.716537 0l0 -3.614174l7.228348 7.228348l-7.228348 7.228348l0 -3.614174l-21.716537 0z" fill-rule="evenodd"/><path fill="#cfe2f3" d="m278.2853 79.85171l21.716522 0l0 -3.614174l7.228363 7.228348l-7.228363 7.228348l0 -3.614174l-21.716522 0z" fill-rule="evenodd"/><path stroke="#000000" stroke-width="1.0" stroke-linejoin="round" stroke-linecap="butt" d="m278.2853 79.85171l21.716522 0l0 -3.614174l7.228363 7.228348l-7.228363 7.228348l0 -3.614174l-21.716522 0z" fill-rule="evenodd"/><path fill="#cfe2f3" d="m461.83313 79.85171l21.716522 0l0 -3.614174l7.228363 7.228348l-7.228363 7.228348l0 -3.614174l-21.716522 0z" fill-rule="evenodd"/><path stroke="#000000" stroke-width="1.0" stroke-linejoin="round" stroke-linecap="butt" d="m461.83313 79.85171l21.716522 0l0 -3.614174l7.228363 7.228348l-7.228363 7.228348l0 -3.614174l-21.716522 0z" fill-rule="evenodd"/><path fill="#cfe2f3" d="m380.91864 157.07086l0 -21.716537l-3.6141663 0l7.2283325 -7.2283325l7.228363 7.2283325l-3.6141968 0l0 21.716537z" fill-rule="evenodd"/><path stroke="#000000" stroke-width="1.0" stroke-linejoin="round" stroke-linecap="butt" d="m380.91864 157.07086l0 -21.716537l-3.6141663 0l7.2283325 -7.2283325l7.228363 7.2283325l-3.6141968 0l0 21.716537z" fill-rule="evenodd"/><path fill="#d9ead3" d="m700.93176 147.01312l23.811035 0l0 17.603882c-11.905518 0 -11.905518 6.7073975 -23.811035 2.8963776z" fill-rule="evenodd"/><path stroke="#595959" stroke-width="1.0" stroke-linejoin="round" stroke-linecap="butt" d="m700.93176 147.01312l23.811035 0l0 17.603882c-11.905518 0 -11.905518 6.7073975 -23.811035 2.8963776z" fill-rule="evenodd"/><path fill="#000000" fill-opacity="0.0" d="m724.7454 146.99869l84.28345 0l0 21.952759l-84.28345 0z" fill-rule="evenodd"/><path fill="#9e9e9e" d="m741.3548 160.86632l-4.765625 0l-1.078125 2.96875l-1.546875 0l4.34375 -11.375l1.3125 0l4.359375 11.375l-1.546875 0l-1.078125 -2.96875zm-4.3125 -1.234375l3.859375 0l-1.9375 -5.328125l-1.921875 5.328125zm12.328125 -2.953125q-0.328125 -0.0625 -0.71875 -0.0625q-1.421875 0 -1.921875 1.21875l0 6.0l-1.453125 0l0 -8.453125l1.40625 0l0.03125 0.96875q0.703125 -1.125 2.015625 -1.125q0.421875 0 0.640625 0.109375l0 1.34375zm3.6796875 -3.34375l0 2.046875l1.578125 0l0 1.109375l-1.578125 0l0 5.25q0 0.5 0.203125 0.765625q0.21875 0.25 0.71875 0.25q0.25 0 0.6875 -0.09375l0 1.171875q-0.5625 0.15625 -1.109375 0.15625q-0.96875 0 -1.46875 -0.578125q-0.484375 -0.59375 -0.484375 -1.671875l0 -5.25l-1.53125 0l0 -1.109375l1.53125 0l0 -2.046875l1.453125 0zm4.8359375 10.5l-1.453125 0l0 -8.453125l1.453125 0l0 8.453125zm-1.5625 -10.703125q0 -0.34375 0.203125 -0.578125q0.21875 -0.25 0.640625 -0.25q0.421875 0 0.640625 0.25q0.21875 0.234375 0.21875 0.59375q0 0.34375 -0.21875 0.578125q-0.21875 0.234375 -0.640625 0.234375q-0.421875 0 -0.640625 -0.234375q-0.203125 -0.234375 -0.203125 -0.59375zm4.5859375 10.703125l0 -7.34375l-1.34375 0l0 -1.109375l1.34375 0l0 -0.875q0 -1.359375 0.71875 -2.09375q0.734375 -0.75 2.0625 -0.75q0.5 0 0.984375 0.140625l-0.078125 1.171875q-0.359375 -0.078125 -0.78125 -0.078125q-0.703125 0 -1.09375 0.421875q-0.375 0.40625 -0.375 1.171875l0 0.890625l1.8125 0l0 1.109375l-1.8125 0l0 7.34375l-1.4375 0zm10.0546875 0q-0.125 -0.25 -0.203125 -0.890625q-1.0 1.046875 -2.40625 1.046875q-1.25 0 -2.046875 -0.703125q-0.796875 -0.71875 -0.796875 -1.796875q0 -1.328125 1.0 -2.046875q1.0 -0.734375 2.828125 -0.734375l1.40625 0l0 -0.671875q0 -0.75 -0.453125 -1.203125q-0.453125 -0.453125 -1.34375 -0.453125q-0.765625 0 -1.296875 0.390625q-0.515625 0.390625 -0.515625 0.953125l-1.453125 0q0 -0.640625 0.4375 -1.21875q0.453125 -0.59375 1.21875 -0.9375q0.78125 -0.34375 1.703125 -0.34375q1.453125 0 2.28125 0.734375q0.828125 0.71875 0.859375 2.0l0 3.890625q0 1.171875 0.296875 1.859375l0 0.125l-1.515625 0zm-2.390625 -1.109375q0.671875 0 1.28125 -0.34375q0.609375 -0.359375 0.890625 -0.921875l0 -1.734375l-1.140625 0q-2.65625 0 -2.65625 1.5625q0 0.671875 0.453125 1.0625q0.453125 0.375 1.171875 0.375zm9.265625 0.078125q0.78125 0 1.359375 -0.46875q0.578125 -0.46875 0.640625 -1.171875l1.359375 0q-0.03125 0.734375 -0.5 1.390625q-0.453125 0.65625 -1.234375 1.046875q-0.765625 0.390625 -1.625 0.390625q-1.71875 0 -2.75 -1.15625q-1.015625 -1.15625 -1.015625 -3.15625l0 -0.234375q0 -1.234375 0.453125 -2.1875q0.453125 -0.96875 1.296875 -1.5q0.859375 -0.53125 2.015625 -0.53125q1.421875 0 2.359375 0.859375q0.9375 0.84375 1.0 2.203125l-1.359375 0q-0.0625 -0.828125 -0.625 -1.34375q-0.5625 -0.53125 -1.375 -0.53125q-1.109375 0 -1.71875 0.796875q-0.59375 0.78125 -0.59375 2.28125l0 0.28125q0 1.453125 0.59375 2.25q0.609375 0.78125 1.71875 0.78125zm6.953125 -9.46875l0 2.046875l1.578125 0l0 1.109375l-1.578125 0l0 5.25q0 0.5 0.203125 0.765625q0.21875 0.25 0.71875 0.25q0.25 0 0.6875 -0.09375l0 1.171875q-0.5625 0.15625 -1.109375 0.15625q-0.96875 0 -1.46875 -0.578125q-0.484375 -0.59375 -0.484375 -1.671875l0 -5.25l-1.53125 0l0 -1.109375l1.53125 0l0 -2.046875l1.453125 0z" fill-rule="nonzero"/><path fill="#c9daf8" d="m700.93176 176.10637l0 0c0 -2.0207367 1.6381226 -3.6588593 3.6588745 -3.6588593l16.493286 0c0.97039795 0 1.901001 0.3854828 2.5872192 1.0716553c0.6861572 0.6861725 1.0716553 1.6168213 1.0716553 2.587204l0 14.635025c0 2.0207367 -1.6381226 3.6588745 -3.6588745 3.6588745l-16.493286 0c-2.020752 0 -3.6588745 -1.6381378 -3.6588745 -3.6588745z" fill-rule="evenodd"/><path stroke="#595959" stroke-width="1.0" stroke-linejoin="round" stroke-linecap="butt" d="m700.93176 176.10637l0 0c0 -2.0207367 1.6381226 -3.6588593 3.6588745 -3.6588593l16.493286 0c0.97039795 0 1.901001 0.3854828 2.5872192 1.0716553c0.6861572 0.6861725 1.0716553 1.6168213 1.0716553 2.587204l0 14.635025c0 2.0207367 -1.6381226 3.6588745 -3.6588745 3.6588745l-16.493286 0c-2.020752 0 -3.6588745 -1.6381378 -3.6588745 -3.6588745z" fill-rule="evenodd"/><path fill="#000000" fill-opacity="0.0" d="m724.7454 172.43262l84.28345 0l0 21.952759l-84.28345 0z" fill-rule="evenodd"/><path fill="#9e9e9e" d="m736.57355 184.81587l0 4.453125l-1.5 0l0 -11.375l4.1875 0q1.875 0 2.921875 0.953125q1.0625 0.953125 1.0625 2.515625q0 1.65625 -1.03125 2.5625q-1.03125 0.890625 -2.96875 0.890625l-2.671875 0zm0 -1.234375l2.6875 0q1.203125 0 1.84375 -0.5625q0.640625 -0.5625 0.640625 -1.640625q0 -1.015625 -0.640625 -1.625q-0.640625 -0.609375 -1.75 -0.625l-2.78125 0l0 4.453125zm12.453125 -1.46875q-0.328125 -0.0625 -0.71875 -0.0625q-1.421875 0 -1.921875 1.21875l0 6.0l-1.453125 0l0 -8.453125l1.40625 0l0.03125 0.96875q0.703125 -1.125 2.015625 -1.125q0.421875 0 0.640625 0.109375l0 1.34375zm0.7890625 2.84375q0 -1.234375 0.484375 -2.21875q0.484375 -1.0 1.359375 -1.53125q0.875 -0.546875 1.984375 -0.546875q1.734375 0 2.796875 1.203125q1.0625 1.1875 1.0625 3.171875l0 0.09375q0 1.234375 -0.46875 2.21875q-0.46875 0.984375 -1.359375 1.53125q-0.875 0.546875 -2.015625 0.546875q-1.71875 0 -2.78125 -1.1875q-1.0625 -1.203125 -1.0625 -3.171875l0 -0.109375zm1.453125 0.171875q0 1.40625 0.640625 2.265625q0.65625 0.84375 1.75 0.84375q1.109375 0 1.75 -0.859375q0.65625 -0.859375 0.65625 -2.421875q0 -1.390625 -0.671875 -2.25q-0.65625 -0.859375 -1.75 -0.859375q-1.0625 0 -1.71875 0.859375q-0.65625 0.84375 -0.65625 2.421875zm11.4375 3.109375q0.78125 0 1.359375 -0.46875q0.578125 -0.46875 0.640625 -1.171875l1.359375 0q-0.03125 0.734375 -0.5 1.390625q-0.453125 0.65625 -1.234375 1.046875q-0.765625 0.390625 -1.625 0.390625q-1.71875 0 -2.75 -1.15625q-1.015625 -1.15625 -1.015625 -3.15625l0 -0.234375q0 -1.234375 0.453125 -2.1875q0.453125 -0.96875 1.296875 -1.5q0.859375 -0.53125 2.015625 -0.53125q1.421875 0 2.359375 0.859375q0.9375 0.84375 1.0 2.203125l-1.359375 0q-0.0625 -0.828125 -0.625 -1.34375q-0.5625 -0.53125 -1.375 -0.53125q-1.109375 0 -1.71875 0.796875q-0.59375 0.78125 -0.59375 2.28125l0 0.28125q0 1.453125 0.59375 2.25q0.609375 0.78125 1.71875 0.78125zm8.5 1.1875q-1.71875 0 -2.796875 -1.125q-1.078125 -1.140625 -1.078125 -3.03125l0 -0.265625q0 -1.25 0.46875 -2.234375q0.484375 -1.0 1.34375 -1.546875q0.875 -0.5625 1.875 -0.5625q1.65625 0 2.5625 1.09375q0.921875 1.078125 0.921875 3.09375l0 0.609375l-5.734375 0q0.03125 1.25 0.734375 2.015625q0.703125 0.765625 1.78125 0.765625q0.765625 0 1.296875 -0.3125q0.53125 -0.3125 0.921875 -0.828125l0.890625 0.6875q-1.0625 1.640625 -3.1875 1.640625zm-0.1875 -7.578125q-0.875 0 -1.46875 0.640625q-0.59375 0.625 -0.734375 1.78125l4.234375 0l0 -0.109375q-0.0625 -1.109375 -0.59375 -1.703125q-0.53125 -0.609375 -1.4375 -0.609375zm10.0703125 5.171875q0 -0.578125 -0.4375 -0.90625q-0.4375 -0.328125 -1.546875 -0.5625q-1.09375 -0.234375 -1.734375 -0.5625q-0.640625 -0.328125 -0.953125 -0.78125q-0.3125 -0.453125 -0.3125 -1.078125q0 -1.03125 0.875 -1.75q0.890625 -0.71875 2.25 -0.71875q1.4375 0 2.328125 0.75q0.90625 0.734375 0.90625 1.890625l-1.453125 0q0 -0.59375 -0.515625 -1.015625q-0.5 -0.4375 -1.265625 -0.4375q-0.78125 0 -1.234375 0.34375q-0.4375 0.34375 -0.4375 0.890625q0 0.53125 0.40625 0.796875q0.421875 0.265625 1.5 0.515625q1.078125 0.234375 1.75 0.578125q0.671875 0.328125 1.0 0.796875q0.328125 0.46875 0.328125 1.15625q0 1.125 -0.90625 1.8125q-0.90625 0.6875 -2.359375 0.6875q-1.015625 0 -1.796875 -0.359375q-0.78125 -0.359375 -1.21875 -1.0q-0.4375 -0.65625 -0.4375 -1.40625l1.4375 0q0.046875 0.734375 0.578125 1.15625q0.546875 0.421875 1.4375 0.421875q0.828125 0 1.3125 -0.328125q0.5 -0.328125 0.5 -0.890625zm8.25 0q0 -0.578125 -0.4375 -0.90625q-0.4375 -0.328125 -1.546875 -0.5625q-1.09375 -0.234375 -1.734375 -0.5625q-0.640625 -0.328125 -0.953125 -0.78125q-0.3125 -0.453125 -0.3125 -1.078125q0 -1.03125 0.875 -1.75q0.890625 -0.71875 2.25 -0.71875q1.4375 0 2.328125 0.75q0.90625 0.734375 0.90625 1.890625l-1.453125 0q0 -0.59375 -0.515625 -1.015625q-0.5 -0.4375 -1.265625 -0.4375q-0.78125 0 -1.234375 0.34375q-0.4375 0.34375 -0.4375 0.890625q0 0.53125 0.40625 0.796875q0.421875 0.265625 1.5 0.515625q1.078125 0.234375 1.75 0.578125q0.671875 0.328125 1.0 0.796875q0.328125 0.46875 0.328125 1.15625q0 1.125 -0.90625 1.8125q-0.90625 0.6875 -2.359375 0.6875q-1.015625 0 -1.796875 -0.359375q-0.78125 -0.359375 -1.21875 -1.0q-0.4375 -0.65625 -0.4375 -1.40625l1.4375 0q0.046875 0.734375 0.578125 1.15625q0.546875 0.421875 1.4375 0.421875q0.828125 0 1.3125 -0.328125q0.5 -0.328125 0.5 -0.890625z" fill-rule="nonzero"/><path fill="#000000" fill-opacity="0.0" d="m0 105.21391l102.58268 0l0 35.46457l-102.58268 0z" fill-rule="evenodd"/><path fill="#666666" d="m11.522152 132.13391l0 -13.265625l3.734375 0q1.734375 0 3.0625 0.765625q1.328125 0.765625 2.046875 2.1875q0.734375 1.40625 0.734375 3.234375l0 0.84375q0 1.875 -0.71875 3.296875q-0.71875 1.40625 -2.0625 2.171875q-1.34375 0.75 -3.140625 0.765625l-3.65625 0zm1.734375 -11.828125l0 10.390625l1.84375 0q2.03125 0 3.15625 -1.25q1.125 -1.25 1.125 -3.578125l0 -0.78125q0 -2.25 -1.0625 -3.5q-1.0625 -1.265625 -3.015625 -1.28125l-2.046875 0zm14.31218 12.015625q-2.0 0 -3.265625 -1.3125q-1.25 -1.328125 -1.25 -3.53125l0 -0.3125q0 -1.46875 0.5625 -2.609375q0.5625 -1.15625 1.5625 -1.796875q1.015625 -0.65625 2.1875 -0.65625q1.921875 0 2.984375 1.265625q1.0625 1.265625 1.0625 3.625l0 0.6875l-6.671875 0q0.03125 1.46875 0.84375 2.375q0.828125 0.890625 2.078125 0.890625q0.890625 0 1.515625 -0.359375q0.625 -0.375 1.078125 -0.96875l1.03125 0.796875q-1.234375 1.90625 -3.71875 1.90625zm-0.203125 -8.84375q-1.015625 0 -1.71875 0.75q-0.6875 0.734375 -0.84375 2.078125l4.9375 0l0 -0.125q-0.078125 -1.28125 -0.703125 -1.984375q-0.609375 -0.71875 -1.671875 -0.71875zm9.14032 6.375l2.4375 -7.578125l1.71875 0l-3.53125 9.859375l-1.28125 0l-3.578125 -9.859375l1.71875 0l2.515625 7.578125zm9.746262 2.46875q-2.0 0 -3.265625 -1.3125q-1.25 -1.328125 -1.25 -3.53125l0 -0.3125q0 -1.46875 0.5625 -2.609375q0.5625 -1.15625 1.5625 -1.796875q1.015625 -0.65625 2.1875 -0.65625q1.921875 0 2.984375 1.265625q1.0625 1.265625 1.0625 3.625l0 0.6875l-6.671875 0q0.03125 1.46875 0.84375 2.375q0.828125 0.890625 2.078125 0.890625q0.890625 0 1.515625 -0.359375q0.625 -0.375 1.078125 -0.96875l1.03125 0.796875q-1.234375 1.90625 -3.71875 1.90625zm-0.203125 -8.84375q-1.015625 0 -1.71875 0.75q-0.6875 0.734375 -0.84375 2.078125l4.9375 0l0 -0.125q-0.078125 -1.28125 -0.703125 -1.984375q-0.609375 -0.71875 -1.671875 -0.71875zm7.8369293 8.65625l-1.6875 0l0 -14.0l1.6875 0l0 14.0zm2.24617 -5.015625q0 -1.453125 0.5625 -2.609375q0.578125 -1.15625 1.59375 -1.78125q1.015625 -0.625 2.3125 -0.625q2.015625 0 3.25 1.390625q1.2500038 1.390625 1.2500038 3.703125l0 0.125q0 1.4375 -0.546875 2.578125q-0.546875 1.140625 -1.5781288 1.78125q-1.015625 0.640625 -2.359375 0.640625q-2.0 0 -3.25 -1.390625q-1.234375 -1.40625 -1.234375 -3.703125l0 -0.109375zm1.6875 0.203125q0 1.640625 0.765625 2.640625q0.765625 0.984375 2.03125 0.984375q1.296875 0 2.046875 -1.0q0.75 -1.015625 0.75 -2.828125q0 -1.625 -0.765625 -2.625q-0.765625 -1.015625 -2.046875 -1.015625q-1.25 0 -2.015625 1.0q-0.765625 0.984375 -0.765625 2.84375zm17.718021 0q0 2.25 -1.03125 3.625q-1.015625 1.375 -2.78125 1.375q-1.796875 0 -2.828125 -1.140625l0 4.75l-1.671875 0l0 -13.65625l1.53125 0l0.078125 1.09375q1.03125 -1.265625 2.859375 -1.265625q1.78125 0 2.8125 1.34375q1.03125 1.328125 1.03125 3.71875l0 0.15625zm-1.671875 -0.203125q0 -1.65625 -0.71875 -2.625q-0.703125 -0.96875 -1.953125 -0.96875q-1.53125 0 -2.296875 1.359375l0 4.703125q0.765625 1.359375 2.328125 1.359375q1.203125 0 1.921875 -0.953125q0.71875 -0.96875 0.71875 -2.875zm7.904312 5.203125q-2.0 0 -3.265625 -1.3125q-1.25 -1.328125 -1.25 -3.53125l0 -0.3125q0 -1.46875 0.5625 -2.609375q0.5625 -1.15625 1.5625 -1.796875q1.015625 -0.65625 2.1875 -0.65625q1.921875 0 2.984375 1.265625q1.0625 1.265625 1.0625 3.625l0 0.6875l-6.671875 0q0.03125 1.46875 0.84375 2.375q0.828125 0.890625 2.078125 0.890625q0.890625 0 1.515625 -0.359375q0.625 -0.375 1.078125 -0.96875l1.03125 0.796875q-1.234375 1.90625 -3.71875 1.90625zm-0.203125 -8.84375q-1.015625 0 -1.71875 0.75q-0.6875 0.734375 -0.84375 2.078125l4.9375 0l0 -0.125q-0.078125 -1.28125 -0.703125 -1.984375q-0.609375 -0.71875 -1.671875 -0.71875zm10.774429 0.3125q-0.390625 -0.0625 -0.84375 -0.0625q-1.65625 0 -2.25 1.40625l0 7.0l-1.671875 0l0 -9.859375l1.640625 0l0.015625 1.140625q0.828125 -1.3125 2.359375 -1.3125q0.484375 0 0.75 0.125l0 1.5625z" fill-rule="nonzero"/><path fill="#434343" d="m51.4899 83.440315c6.4915276 0 11.564735 -4.9298935 11.564735 -10.835487c0 -6.1110153 -5.236862 -10.886845 -11.564735 -10.886845c-6.273327 0 -11.510189 4.9298897 -11.510189 10.886845c-0.16365433 5.905594 5.0732117 10.835487 11.510189 10.835487zm0 5.392067c-7.6916428 0 -23.07493 3.5947113 -23.07493 10.784134l0 5.5461197l46.368057 0l0 -5.5461197c-0.16365051 -7.03537 -15.60149 -10.784134 -23.293129 -10.784134z" fill-rule="evenodd"/><path fill="#c9daf8" d="m694.2257 63.42146l0 0c0 -5.5345535 4.4866333 -10.021198 10.02124 -10.021198l94.76074 0c2.6577759 0 5.206726 1.0558014 7.0860596 2.9351425c1.8793335 1.8793373 2.9351196 4.4282684 2.9351196 7.0860558l0 40.08359c0 5.5345535 -4.4866333 10.021194 -10.021179 10.021194l-94.76074 0c-5.534607 0 -10.02124 -4.486641 -10.02124 -10.021194z" fill-rule="evenodd"/><path stroke="#595959" stroke-width="1.0" stroke-linejoin="round" stroke-linecap="butt" d="m694.2257 63.42146l0 0c0 -5.5345535 4.4866333 -10.021198 10.02124 -10.021198l94.76074 0c2.6577759 0 5.206726 1.0558014 7.0860596 2.9351425c1.8793335 1.8793373 2.9351196 4.4282684 2.9351196 7.0860558l0 40.08359c0 5.5345535 -4.4866333 10.021194 -10.021179 10.021194l-94.76074 0c-5.534607 0 -10.02124 -4.486641 -10.02124 -10.021194z" fill-rule="evenodd"/><path fill="#222222" d="m746.70184 77.11763l0 9.015625q0 1.875 -1.171875 3.078125q-1.171875 1.1875 -3.1875 1.328125l-0.453125 0.03125q-2.1875 0 -3.484375 -1.171875q-1.28125 -1.1875 -1.296875 -3.25l0 -9.03125l1.71875 0l0 8.984375q0 1.4375 0.796875 2.234375q0.796875 0.796875 2.265625 0.796875q1.484375 0 2.265625 -0.78125q0.796875 -0.796875 0.796875 -2.234375l0 -9.0l1.75 0zm8.238037 10.65625q0 -0.6875 -0.515625 -1.0625q-0.515625 -0.375 -1.796875 -0.640625q-1.28125 -0.28125 -2.03125 -0.65625q-0.75 -0.390625 -1.109375 -0.921875q-0.359375 -0.53125 -0.359375 -1.265625q0 -1.203125 1.015625 -2.03125q1.03125 -0.84375 2.625 -0.84375q1.671875 0 2.71875 0.859375q1.046875 0.859375 1.046875 2.21875l-1.6875 0q0 -0.703125 -0.59375 -1.203125q-0.59375 -0.5 -1.484375 -0.5q-0.921875 0 -1.4375 0.40625q-0.515625 0.390625 -0.515625 1.046875q0 0.609375 0.484375 0.921875q0.484375 0.3125 1.734375 0.59375q1.265625 0.28125 2.046875 0.671875q0.78125 0.390625 1.15625 0.9375q0.390625 0.546875 0.390625 1.34375q0 1.328125 -1.0625 2.125q-1.046875 0.796875 -2.734375 0.796875q-1.1875 0 -2.109375 -0.421875q-0.90625 -0.421875 -1.421875 -1.171875q-0.515625 -0.75 -0.515625 -1.625l1.6875 0q0.046875 0.84375 0.671875 1.34375q0.640625 0.5 1.6875 0.5q0.953125 0 1.53125 -0.390625q0.578125 -0.390625 0.578125 -1.03125zm7.96344 2.796875q-2.000061 0 -3.265686 -1.3125q-1.25 -1.328125 -1.25 -3.53125l0 -0.3125q0 -1.46875 0.5625 -2.609375q0.5625 -1.15625 1.5625 -1.796875q1.015686 -0.65625 2.187561 -0.65625q1.921875 0 2.984375 1.265625q1.0625 1.265625 1.0625 3.625l0 0.6875l-6.671936 0q0.03125 1.46875 0.84375 2.375q0.82818604 0.890625 2.078186 0.890625q0.890625 0 1.515625 -0.359375q0.625 -0.375 1.078125 -0.96875l1.03125 0.796875q-1.234375 1.90625 -3.71875 1.90625zm-0.203125 -8.84375q-1.015625 0 -1.718811 0.75q-0.6875 0.734375 -0.84375 2.078125l4.937561 0l0 -0.125q-0.078125 -1.28125 -0.703125 -1.984375q-0.609375 -0.71875 -1.671875 -0.71875z" fill-rule="nonzero"/><path fill="#cfe2f3" d="m645.3809 79.85171l21.716553 0l0 -3.614174l7.2283325 7.228348l-7.2283325 7.228348l0 -3.614174l-21.716553 0z" fill-rule="evenodd"/><path stroke="#000000" stroke-width="1.0" stroke-linejoin="round" stroke-linecap="butt" d="m645.3809 79.85171l21.716553 0l0 -3.614174l7.2283325 7.228348l-7.2283325 7.228348l0 -3.614174l-21.716553 0z" fill-rule="evenodd"/><path fill="#000000" fill-opacity="0.0" d="m700.93176 201.53944l0 0c0 -2.0207367 1.6381226 -3.6588593 3.6588745 -3.6588593l16.493286 0c0.97039795 0 1.901001 0.3854828 2.5872192 1.0716553c0.6861572 0.6861725 1.0716553 1.616806 1.0716553 2.587204l0 14.635025c0 2.0207367 -1.6381226 3.6588593 -3.6588745 3.6588593l-16.493286 0c-2.020752 0 -3.6588745 -1.6381226 -3.6588745 -3.6588593z" fill-rule="evenodd"/><path stroke="#666666" stroke-width="1.0" stroke-linejoin="round" stroke-linecap="butt" stroke-dasharray="4.0,3.0" d="m700.93176 201.53944l0 0c0 -2.0207367 1.6381226 -3.6588593 3.6588745 -3.6588593l16.493286 0c0.97039795 0 1.901001 0.3854828 2.5872192 1.0716553c0.6861572 0.6861725 1.0716553 1.616806 1.0716553 2.587204l0 14.635025c0 2.0207367 -1.6381226 3.6588593 -3.6588745 3.6588593l-16.493286 0c-2.020752 0 -3.6588745 -1.6381226 -3.6588745 -3.6588593z" fill-rule="evenodd"/><path fill="#000000" fill-opacity="0.0" d="m724.7454 197.86522l84.28345 0l0 21.952759l-84.28345 0z" fill-rule="evenodd"/><path fill="#9e9e9e" d="m736.57355 210.24847l0 4.453125l-1.5 0l0 -11.375l4.1875 0q1.875 0 2.921875 0.953125q1.0625 0.953125 1.0625 2.515625q0 1.65625 -1.03125 2.5625q-1.03125 0.890625 -2.96875 0.890625l-2.671875 0zm0 -1.234375l2.6875 0q1.203125 0 1.84375 -0.5625q0.640625 -0.5625 0.640625 -1.640625q0 -1.015625 -0.640625 -1.625q-0.640625 -0.609375 -1.75 -0.625l-2.78125 0l0 4.453125zm9.9375 5.6875l-1.453125 0l0 -12.0l1.453125 0l0 12.0zm7.5234375 0q-0.125 -0.25 -0.203125 -0.890625q-1.0 1.046875 -2.40625 1.046875q-1.25 0 -2.046875 -0.703125q-0.796875 -0.71875 -0.796875 -1.796875q0 -1.328125 1.0 -2.046875q1.0 -0.734375 2.828125 -0.734375l1.40625 0l0 -0.671875q0 -0.75 -0.453125 -1.203125q-0.453125 -0.453125 -1.34375 -0.453125q-0.765625 0 -1.296875 0.390625q-0.515625 0.390625 -0.515625 0.953125l-1.453125 0q0 -0.640625 0.4375 -1.21875q0.453125 -0.59375 1.21875 -0.9375q0.78125 -0.34375 1.703125 -0.34375q1.453125 0 2.28125 0.734375q0.828125 0.71875 0.859375 2.0l0 3.890625q0 1.171875 0.296875 1.859375l0 0.125l-1.515625 0zm-2.390625 -1.109375q0.671875 0 1.28125 -0.34375q0.609375 -0.359375 0.890625 -0.921875l0 -1.734375l-1.140625 0q-2.65625 0 -2.65625 1.5625q0 0.671875 0.453125 1.0625q0.453125 0.375 1.171875 0.375zm7.84375 -9.390625l0 2.046875l1.578125 0l0 1.109375l-1.578125 0l0 5.25q0 0.5 0.203125 0.765625q0.21875 0.25 0.71875 0.25q0.25 0 0.6875 -0.09375l0 1.171875q-0.5625 0.15625 -1.109375 0.15625q-0.96875 0 -1.46875 -0.578125q-0.484375 -0.59375 -0.484375 -1.671875l0 -5.25l-1.53125 0l0 -1.109375l1.53125 0l0 -2.046875l1.453125 0zm3.9765625 10.5l0 -7.34375l-1.34375 0l0 -1.109375l1.34375 0l0 -0.875q0 -1.359375 0.71875 -2.09375q0.734375 -0.75 2.0625 -0.75q0.5 0 0.984375 0.140625l-0.078125 1.171875q-0.359375 -0.078125 -0.78125 -0.078125q-0.703125 0 -1.09375 0.421875q-0.375 0.40625 -0.375 1.171875l0 0.890625l1.8125 0l0 1.109375l-1.8125 0l0 7.34375l-1.4375 0zm4.4609375 -4.3125q0 -1.234375 0.484375 -2.21875q0.484375 -1.0 1.359375 -1.53125q0.875 -0.546875 1.984375 -0.546875q1.734375 0 2.796875 1.203125q1.0625 1.1875 1.0625 3.171875l0 0.09375q0 1.234375 -0.46875 2.21875q-0.46875 0.984375 -1.359375 1.53125q-0.875 0.546875 -2.015625 0.546875q-1.71875 0 -2.78125 -1.1875q-1.0625 -1.203125 -1.0625 -3.171875l0 -0.109375zm1.453125 0.171875q0 1.40625 0.640625 2.265625q0.65625 0.84375 1.75 0.84375q1.109375 0 1.75 -0.859375q0.65625 -0.859375 0.65625 -2.421875q0 -1.390625 -0.671875 -2.25q-0.65625 -0.859375 -1.75 -0.859375q-1.0625 0 -1.71875 0.859375q-0.65625 0.84375 -0.65625 2.421875zm12.140625 -3.015625q-0.328125 -0.0625 -0.71875 -0.0625q-1.421875 0 -1.921875 1.21875l0 6.0l-1.453125 0l0 -8.453125l1.40625 0l0.03125 0.96875q0.703125 -1.125 2.015625 -1.125q0.421875 0 0.640625 0.109375l0 1.34375zm2.6796875 -1.296875l0.046875 0.9375q0.921875 -1.09375 2.5 -1.09375q1.78125 0 2.421875 1.359375q0.421875 -0.609375 1.09375 -0.984375q0.671875 -0.375 1.59375 -0.375q2.78125 0 2.828125 2.9375l0 5.671875l-1.4375 0l0 -5.578125q0 -0.90625 -0.421875 -1.359375q-0.40625 -0.453125 -1.390625 -0.453125q-0.796875 0 -1.328125 0.484375q-0.53125 0.484375 -0.625 1.296875l0 5.609375l-1.453125 0l0 -5.546875q0 -1.84375 -1.796875 -1.84375q-1.421875 0 -1.953125 1.21875l0 6.171875l-1.4375 0l0 -8.453125l1.359375 0z" fill-rule="nonzero"/><path fill="#cfe2f3" d="m570.7139 134.73097l0 35.32753l0 0c0 17.374146 -14.084534 31.458664 -31.45868 31.458664l-58.22342 0l0 5.1193237l-11.955719 -9.675613l11.955719 -9.675598l0 5.1193085l58.22342 0l0 0c12.34137 0 22.34607 -10.004684 22.34607 -22.346085l0 -35.32753z" fill-rule="evenodd"/><path stroke="#000000" stroke-width="1.0" stroke-linejoin="round" stroke-linecap="butt" d="m570.7139 134.73097l0 35.32753l0 0c0 17.374146 -14.084534 31.458664 -31.45868 31.458664l-58.22342 0l0 5.1193237l-11.955719 -9.675613l11.955719 -9.675598l0 5.1193085l58.22342 0l0 0c12.34137 0 22.34607 -10.004684 22.34607 -22.346085l0 -35.32753z" fill-rule="evenodd"/></g></svg>