<svg width="761" height="284" viewBox="0 0 761 284" fill="none" xmlns="http://www.w3.org/2000/svg">
<rect width="761" height="284" fill="white"/>
<path d="M152.401 44.9712C153.294 47.2392 151.854 49.7203 149.44 50.0596C140.522 51.3135 131.478 51.3135 122.56 50.0596C120.146 49.7203 118.706 47.2392 119.599 44.9713C122.992 36.3578 127.504 28.226 132.999 20.8407C134.504 18.8167 137.496 18.8167 139.001 20.8407C144.496 28.226 149.008 36.3578 152.401 44.9712Z" fill="#F03100"/>
<path d="M137.381 30.4545L137.147 40.7244H134.86L134.633 30.4545H137.381ZM136.004 45.1562C135.573 45.1562 135.203 45.0047 134.896 44.7017C134.593 44.3987 134.441 44.0294 134.441 43.5938C134.441 43.1676 134.593 42.803 134.896 42.5C135.203 42.197 135.573 42.0455 136.004 42.0455C136.425 42.0455 136.79 42.197 137.097 42.5C137.41 42.803 137.566 43.1676 137.566 43.5938C137.566 43.8826 137.493 44.1454 137.346 44.3821C137.204 44.6188 137.014 44.8082 136.778 44.9503C136.546 45.0876 136.288 45.1562 136.004 45.1562Z" fill="white"/>
<path d="M137 49.5C137 48.9477 136.552 48.5 136 48.5C135.448 48.5 135 48.9477 135 49.5H137ZM135 99C135 99.5523 135.448 100 136 100C136.552 100 137 99.5523 137 99H135ZM135 49.5503C135 50.1026 135.448 50.5503 136 50.5503C136.552 50.5503 137 50.1026 137 49.5503H135ZM137 53.5747C137 53.0224 136.552 52.5747 136 52.5747C135.448 52.5747 135 53.0224 135 53.5747H137ZM135 53.6753C135 54.2276 135.448 54.6753 136 54.6753C136.552 54.6753 137 54.2276 137 53.6753H135ZM137 57.6997C137 57.1474 136.552 56.6997 136 56.6997C135.448 56.6997 135 57.1474 135 57.6997H137ZM135 57.8003C135 58.3526 135.448 58.8003 136 58.8003C136.552 58.8003 137 58.3526 137 57.8003H135ZM137 61.8247C137 61.2724 136.552 60.8247 136 60.8247C135.448 60.8247 135 61.2724 135 61.8247H137ZM135 61.9253C135 62.4776 135.448 62.9253 136 62.9253C136.552 62.9253 137 62.4776 137 61.9253H135ZM137 65.9497C137 65.3974 136.552 64.9497 136 64.9497C135.448 64.9497 135 65.3974 135 65.9497H137ZM135 66.0503C135 66.6026 135.448 67.0503 136 67.0503C136.552 67.0503 137 66.6026 137 66.0503H135ZM137 70.0747C137 69.5224 136.552 69.0747 136 69.0747C135.448 69.0747 135 69.5224 135 70.0747H137ZM135 70.1753C135 70.7276 135.448 71.1753 136 71.1753C136.552 71.1753 137 70.7276 137 70.1753H135ZM137 74.1997C137 73.6474 136.552 73.1997 136 73.1997C135.448 73.1997 135 73.6474 135 74.1997H137ZM135 74.3003C135 74.8526 135.448 75.3003 136 75.3003C136.552 75.3003 137 74.8526 137 74.3003H135ZM137 78.3247C137 77.7724 136.552 77.3247 136 77.3247C135.448 77.3247 135 77.7724 135 78.3247H137ZM135 78.4253C135 78.9776 135.448 79.4253 136 79.4253C136.552 79.4253 137 78.9776 137 78.4253H135ZM137 82.4497C137 81.8974 136.552 81.4497 136 81.4497C135.448 81.4497 135 81.8974 135 82.4497H137ZM135 82.5503C135 83.1026 135.448 83.5503 136 83.5503C136.552 83.5503 137 83.1026 137 82.5503H135ZM137 86.5747C137 86.0224 136.552 85.5747 136 85.5747C135.448 85.5747 135 86.0224 135 86.5747H137ZM135 86.6753C135 87.2276 135.448 87.6753 136 87.6753C136.552 87.6753 137 87.2276 137 86.6753H135ZM137 90.6997C137 90.1474 136.552 89.6997 136 89.6997C135.448 89.6997 135 90.1474 135 90.6997H137ZM135 90.8003C135 91.3526 135.448 91.8003 136 91.8003C136.552 91.8003 137 91.3526 137 90.8003H135ZM137 94.8247C137 94.2724 136.552 93.8247 136 93.8247C135.448 93.8247 135 94.2724 135 94.8247H137ZM135 94.9253C135 95.4776 135.448 95.9253 136 95.9253C136.552 95.9253 137 95.4776 137 94.9253H135ZM137 98.9497C137 98.3974 136.552 97.9497 136 97.9497C135.448 97.9497 135 98.3974 135 98.9497H137ZM135 49.5V49.5503H137V49.5H135ZM135 53.5747V53.6753H137V53.5747H135ZM135 57.6997V57.8003H137V57.6997H135ZM135 61.8247V61.9253H137V61.8247H135ZM135 65.9497V66.0503H137V65.9497H135ZM135 70.0747V70.1753H137V70.0747H135ZM135 74.1997V74.3003H137V74.1997H135ZM135 78.3247V78.4253H137V78.3247H135ZM135 82.4497V82.5503H137V82.4497H135ZM135 86.5747V86.6753H137V86.5747H135ZM135 90.6997V90.8003H137V90.6997H135ZM135 94.8247V94.9253H137V94.8247H135ZM135 98.9497V99H137V98.9497H135Z" fill="#F03100"/>
<path d="M223.401 44.9712C224.294 47.2392 222.854 49.7203 220.44 50.0596C211.522 51.3135 202.478 51.3135 193.56 50.0596C191.146 49.7203 189.706 47.2392 190.599 44.9713C193.992 36.3578 198.504 28.226 203.999 20.8407C205.504 18.8167 208.496 18.8167 210.001 20.8407C215.496 28.226 220.008 36.3578 223.401 44.9712Z" fill="#F03100"/>
<path d="M208.381 30.4545L208.147 40.7244H205.86L205.633 30.4545H208.381ZM207.004 45.1562C206.573 45.1562 206.203 45.0047 205.896 44.7017C205.593 44.3987 205.441 44.0294 205.441 43.5938C205.441 43.1676 205.593 42.803 205.896 42.5C206.203 42.197 206.573 42.0455 207.004 42.0455C207.425 42.0455 207.79 42.197 208.097 42.5C208.41 42.803 208.566 43.1676 208.566 43.5938C208.566 43.8826 208.493 44.1454 208.346 44.3821C208.204 44.6188 208.014 44.8082 207.778 44.9503C207.546 45.0876 207.288 45.1562 207.004 45.1562Z" fill="white"/>
<path d="M208 49.5C208 48.9477 207.552 48.5 207 48.5C206.448 48.5 206 48.9477 206 49.5H208ZM206 79C206 79.5523 206.448 80 207 80C207.552 80 208 79.5523 208 79H206ZM206 49.5514C206 50.1037 206.448 50.5514 207 50.5514C207.552 50.5514 208 50.1037 208 49.5514H206ZM208 53.6629C208 53.1106 207.552 52.6629 207 52.6629C206.448 52.6629 206 53.1106 206 53.6629H208ZM206 53.7657C206 54.318 206.448 54.7657 207 54.7657C207.552 54.7657 208 54.318 208 53.7657H206ZM208 57.8772C208 57.3249 207.552 56.8772 207 56.8772C206.448 56.8772 206 57.3249 206 57.8772H208ZM206 57.98C206 58.5323 206.448 58.98 207 58.98C207.552 58.98 208 58.5323 208 57.98H206ZM208 62.0915C208 61.5392 207.552 61.0915 207 61.0915C206.448 61.0915 206 61.5392 206 62.0915H208ZM206 62.1943C206 62.7465 206.448 63.1943 207 63.1943C207.552 63.1943 208 62.7465 208 62.1943H206ZM208 66.3057C208 65.7535 207.552 65.3057 207 65.3057C206.448 65.3057 206 65.7535 206 66.3057H208ZM206 66.4085C206 66.9608 206.448 67.4085 207 67.4085C207.552 67.4085 208 66.9608 208 66.4085H206ZM208 70.52C208 69.9677 207.552 69.52 207 69.52C206.448 69.52 206 69.9677 206 70.52H208ZM206 70.6228C206 71.1751 206.448 71.6228 207 71.6228C207.552 71.6228 208 71.1751 208 70.6228H206ZM208 74.7343C208 74.182 207.552 73.7343 207 73.7343C206.448 73.7343 206 74.182 206 74.7343H208ZM206 74.8371C206 75.3894 206.448 75.8371 207 75.8371C207.552 75.8371 208 75.3894 208 74.8371H206ZM208 78.9486C208 78.3963 207.552 77.9486 207 77.9486C206.448 77.9486 206 78.3963 206 78.9486H208ZM206 49.5V49.5514H208V49.5H206ZM206 53.6629V53.7657H208V53.6629H206ZM206 57.8772V57.98H208V57.8772H206ZM206 62.0915V62.1943H208V62.0915H206ZM206 66.3057V66.4085H208V66.3057H206ZM206 70.52V70.6228H208V70.52H206ZM206 74.7343V74.8371H208V74.7343H206ZM206 78.9486V79H208V78.9486H206Z" fill="#F03100"/>
<path d="M312.401 44.9712C313.294 47.2392 311.854 49.7203 309.44 50.0596C300.522 51.3135 291.478 51.3135 282.56 50.0596C280.146 49.7203 278.706 47.2392 279.599 44.9713C282.992 36.3578 287.504 28.226 292.999 20.8407C294.504 18.8167 297.496 18.8167 299.001 20.8407C304.496 28.226 309.008 36.3578 312.401 44.9712Z" fill="#F03100"/>
<path d="M297.381 30.4545L297.147 40.7244H294.86L294.633 30.4545H297.381ZM296.004 45.1562C295.573 45.1562 295.203 45.0047 294.896 44.7017C294.593 44.3987 294.441 44.0294 294.441 43.5938C294.441 43.1676 294.593 42.803 294.896 42.5C295.203 42.197 295.573 42.0455 296.004 42.0455C296.425 42.0455 296.79 42.197 297.097 42.5C297.41 42.803 297.566 43.1676 297.566 43.5938C297.566 43.8826 297.493 44.1454 297.346 44.3821C297.204 44.6188 297.014 44.8082 296.778 44.9503C296.546 45.0876 296.288 45.1562 296.004 45.1562Z" fill="white"/>
<path d="M297 49.5C297 48.9477 296.552 48.5 296 48.5C295.448 48.5 295 48.9477 295 49.5H297ZM295 99C295 99.5523 295.448 100 296 100C296.552 100 297 99.5523 297 99H295ZM295 49.5503C295 50.1026 295.448 50.5503 296 50.5503C296.552 50.5503 297 50.1026 297 49.5503H295ZM297 53.5747C297 53.0224 296.552 52.5747 296 52.5747C295.448 52.5747 295 53.0224 295 53.5747H297ZM295 53.6753C295 54.2276 295.448 54.6753 296 54.6753C296.552 54.6753 297 54.2276 297 53.6753H295ZM297 57.6997C297 57.1474 296.552 56.6997 296 56.6997C295.448 56.6997 295 57.1474 295 57.6997H297ZM295 57.8003C295 58.3526 295.448 58.8003 296 58.8003C296.552 58.8003 297 58.3526 297 57.8003H295ZM297 61.8247C297 61.2724 296.552 60.8247 296 60.8247C295.448 60.8247 295 61.2724 295 61.8247H297ZM295 61.9253C295 62.4776 295.448 62.9253 296 62.9253C296.552 62.9253 297 62.4776 297 61.9253H295ZM297 65.9497C297 65.3974 296.552 64.9497 296 64.9497C295.448 64.9497 295 65.3974 295 65.9497H297ZM295 66.0503C295 66.6026 295.448 67.0503 296 67.0503C296.552 67.0503 297 66.6026 297 66.0503H295ZM297 70.0747C297 69.5224 296.552 69.0747 296 69.0747C295.448 69.0747 295 69.5224 295 70.0747H297ZM295 70.1753C295 70.7276 295.448 71.1753 296 71.1753C296.552 71.1753 297 70.7276 297 70.1753H295ZM297 74.1997C297 73.6474 296.552 73.1997 296 73.1997C295.448 73.1997 295 73.6474 295 74.1997H297ZM295 74.3003C295 74.8526 295.448 75.3003 296 75.3003C296.552 75.3003 297 74.8526 297 74.3003H295ZM297 78.3247C297 77.7724 296.552 77.3247 296 77.3247C295.448 77.3247 295 77.7724 295 78.3247H297ZM295 78.4253C295 78.9776 295.448 79.4253 296 79.4253C296.552 79.4253 297 78.9776 297 78.4253H295ZM297 82.4497C297 81.8974 296.552 81.4497 296 81.4497C295.448 81.4497 295 81.8974 295 82.4497H297ZM295 82.5503C295 83.1026 295.448 83.5503 296 83.5503C296.552 83.5503 297 83.1026 297 82.5503H295ZM297 86.5747C297 86.0224 296.552 85.5747 296 85.5747C295.448 85.5747 295 86.0224 295 86.5747H297ZM295 86.6753C295 87.2276 295.448 87.6753 296 87.6753C296.552 87.6753 297 87.2276 297 86.6753H295ZM297 90.6997C297 90.1474 296.552 89.6997 296 89.6997C295.448 89.6997 295 90.1474 295 90.6997H297ZM295 90.8003C295 91.3526 295.448 91.8003 296 91.8003C296.552 91.8003 297 91.3526 297 90.8003H295ZM297 94.8247C297 94.2724 296.552 93.8247 296 93.8247C295.448 93.8247 295 94.2724 295 94.8247H297ZM295 94.9253C295 95.4776 295.448 95.9253 296 95.9253C296.552 95.9253 297 95.4776 297 94.9253H295ZM297 98.9497C297 98.3974 296.552 97.9497 296 97.9497C295.448 97.9497 295 98.3974 295 98.9497H297ZM295 49.5V49.5503H297V49.5H295ZM295 53.5747V53.6753H297V53.5747H295ZM295 57.6997V57.8003H297V57.6997H295ZM295 61.8247V61.9253H297V61.8247H295ZM295 65.9497V66.0503H297V65.9497H295ZM295 70.0747V70.1753H297V70.0747H295ZM295 74.1997V74.3003H297V74.1997H295ZM295 78.3247V78.4253H297V78.3247H295ZM295 82.4497V82.5503H297V82.4497H295ZM295 86.5747V86.6753H297V86.5747H295ZM295 90.6997V90.8003H297V90.6997H295ZM295 94.8247V94.9253H297V94.8247H295ZM295 98.9497V99H297V98.9497H295Z" fill="#F03100"/>
<path d="M394.401 44.9712C395.294 47.2392 393.854 49.7203 391.44 50.0596C382.522 51.3135 373.478 51.3135 364.56 50.0596C362.146 49.7203 360.706 47.2392 361.599 44.9713C364.992 36.3578 369.504 28.226 374.999 20.8407C376.504 18.8167 379.496 18.8167 381.001 20.8407C386.496 28.226 391.008 36.3578 394.401 44.9712Z" fill="#F03100"/>
<path d="M379.381 30.4545L379.147 40.7244H376.86L376.633 30.4545H379.381ZM378.004 45.1562C377.573 45.1562 377.203 45.0047 376.896 44.7017C376.593 44.3987 376.441 44.0294 376.441 43.5938C376.441 43.1676 376.593 42.803 376.896 42.5C377.203 42.197 377.573 42.0455 378.004 42.0455C378.425 42.0455 378.79 42.197 379.097 42.5C379.41 42.803 379.566 43.1676 379.566 43.5938C379.566 43.8826 379.493 44.1454 379.346 44.3821C379.204 44.6188 379.014 44.8082 378.778 44.9503C378.546 45.0876 378.288 45.1562 378.004 45.1562Z" fill="white"/>
<path d="M379 49.5C379 48.9477 378.552 48.5 378 48.5C377.448 48.5 377 48.9477 377 49.5H379ZM377 79C377 79.5523 377.448 80 378 80C378.552 80 379 79.5523 379 79H377ZM377 49.5514C377 50.1037 377.448 50.5514 378 50.5514C378.552 50.5514 379 50.1037 379 49.5514H377ZM379 53.6629C379 53.1106 378.552 52.6629 378 52.6629C377.448 52.6629 377 53.1106 377 53.6629H379ZM377 53.7657C377 54.318 377.448 54.7657 378 54.7657C378.552 54.7657 379 54.318 379 53.7657H377ZM379 57.8772C379 57.3249 378.552 56.8772 378 56.8772C377.448 56.8772 377 57.3249 377 57.8772H379ZM377 57.98C377 58.5323 377.448 58.98 378 58.98C378.552 58.98 379 58.5323 379 57.98H377ZM379 62.0915C379 61.5392 378.552 61.0915 378 61.0915C377.448 61.0915 377 61.5392 377 62.0915H379ZM377 62.1943C377 62.7465 377.448 63.1943 378 63.1943C378.552 63.1943 379 62.7465 379 62.1943H377ZM379 66.3057C379 65.7535 378.552 65.3057 378 65.3057C377.448 65.3057 377 65.7535 377 66.3057H379ZM377 66.4085C377 66.9608 377.448 67.4085 378 67.4085C378.552 67.4085 379 66.9608 379 66.4085H377ZM379 70.52C379 69.9677 378.552 69.52 378 69.52C377.448 69.52 377 69.9677 377 70.52H379ZM377 70.6228C377 71.1751 377.448 71.6228 378 71.6228C378.552 71.6228 379 71.1751 379 70.6228H377ZM379 74.7343C379 74.182 378.552 73.7343 378 73.7343C377.448 73.7343 377 74.182 377 74.7343H379ZM377 74.8371C377 75.3894 377.448 75.8371 378 75.8371C378.552 75.8371 379 75.3894 379 74.8371H377ZM379 78.9486C379 78.3963 378.552 77.9486 378 77.9486C377.448 77.9486 377 78.3963 377 78.9486H379ZM377 49.5V49.5514H379V49.5H377ZM377 53.6629V53.7657H379V53.6629H377ZM377 57.8772V57.98H379V57.8772H377ZM377 62.0915V62.1943H379V62.0915H377ZM377 66.3057V66.4085H379V66.3057H377ZM377 70.52V70.6228H379V70.52H377ZM377 74.7343V74.8371H379V74.7343H377ZM377 78.9486V79H379V78.9486H377Z" fill="#F03100"/>
<path d="M476.401 44.9712C477.294 47.2392 475.854 49.7203 473.44 50.0596C464.522 51.3135 455.478 51.3135 446.56 50.0596C444.146 49.7203 442.706 47.2392 443.599 44.9713C446.992 36.3578 451.504 28.226 456.999 20.8407C458.504 18.8167 461.496 18.8167 463.001 20.8407C468.496 28.226 473.008 36.3578 476.401 44.9712Z" fill="#F03100"/>
<path d="M461.381 30.4545L461.147 40.7244H458.86L458.633 30.4545H461.381ZM460.004 45.1562C459.573 45.1562 459.203 45.0047 458.896 44.7017C458.593 44.3987 458.441 44.0294 458.441 43.5938C458.441 43.1676 458.593 42.803 458.896 42.5C459.203 42.197 459.573 42.0455 460.004 42.0455C460.425 42.0455 460.79 42.197 461.097 42.5C461.41 42.803 461.566 43.1676 461.566 43.5938C461.566 43.8826 461.493 44.1454 461.346 44.3821C461.204 44.6188 461.014 44.8082 460.778 44.9503C460.546 45.0876 460.288 45.1562 460.004 45.1562Z" fill="white"/>
<path d="M461 49.5C461 48.9477 460.552 48.5 460 48.5C459.448 48.5 459 48.9477 459 49.5H461ZM459 99C459 99.5523 459.448 100 460 100C460.552 100 461 99.5523 461 99H459ZM459 49.5503C459 50.1026 459.448 50.5503 460 50.5503C460.552 50.5503 461 50.1026 461 49.5503H459ZM461 53.5747C461 53.0224 460.552 52.5747 460 52.5747C459.448 52.5747 459 53.0224 459 53.5747H461ZM459 53.6753C459 54.2276 459.448 54.6753 460 54.6753C460.552 54.6753 461 54.2276 461 53.6753H459ZM461 57.6997C461 57.1474 460.552 56.6997 460 56.6997C459.448 56.6997 459 57.1474 459 57.6997H461ZM459 57.8003C459 58.3526 459.448 58.8003 460 58.8003C460.552 58.8003 461 58.3526 461 57.8003H459ZM461 61.8247C461 61.2724 460.552 60.8247 460 60.8247C459.448 60.8247 459 61.2724 459 61.8247H461ZM459 61.9253C459 62.4776 459.448 62.9253 460 62.9253C460.552 62.9253 461 62.4776 461 61.9253H459ZM461 65.9497C461 65.3974 460.552 64.9497 460 64.9497C459.448 64.9497 459 65.3974 459 65.9497H461ZM459 66.0503C459 66.6026 459.448 67.0503 460 67.0503C460.552 67.0503 461 66.6026 461 66.0503H459ZM461 70.0747C461 69.5224 460.552 69.0747 460 69.0747C459.448 69.0747 459 69.5224 459 70.0747H461ZM459 70.1753C459 70.7276 459.448 71.1753 460 71.1753C460.552 71.1753 461 70.7276 461 70.1753H459ZM461 74.1997C461 73.6474 460.552 73.1997 460 73.1997C459.448 73.1997 459 73.6474 459 74.1997H461ZM459 74.3003C459 74.8526 459.448 75.3003 460 75.3003C460.552 75.3003 461 74.8526 461 74.3003H459ZM461 78.3247C461 77.7724 460.552 77.3247 460 77.3247C459.448 77.3247 459 77.7724 459 78.3247H461ZM459 78.4253C459 78.9776 459.448 79.4253 460 79.4253C460.552 79.4253 461 78.9776 461 78.4253H459ZM461 82.4497C461 81.8974 460.552 81.4497 460 81.4497C459.448 81.4497 459 81.8974 459 82.4497H461ZM459 82.5503C459 83.1026 459.448 83.5503 460 83.5503C460.552 83.5503 461 83.1026 461 82.5503H459ZM461 86.5747C461 86.0224 460.552 85.5747 460 85.5747C459.448 85.5747 459 86.0224 459 86.5747H461ZM459 86.6753C459 87.2276 459.448 87.6753 460 87.6753C460.552 87.6753 461 87.2276 461 86.6753H459ZM461 90.6997C461 90.1474 460.552 89.6997 460 89.6997C459.448 89.6997 459 90.1474 459 90.6997H461ZM459 90.8003C459 91.3526 459.448 91.8003 460 91.8003C460.552 91.8003 461 91.3526 461 90.8003H459ZM461 94.8247C461 94.2724 460.552 93.8247 460 93.8247C459.448 93.8247 459 94.2724 459 94.8247H461ZM459 94.9253C459 95.4776 459.448 95.9253 460 95.9253C460.552 95.9253 461 95.4776 461 94.9253H459ZM461 98.9497C461 98.3974 460.552 97.9497 460 97.9497C459.448 97.9497 459 98.3974 459 98.9497H461ZM459 49.5V49.5503H461V49.5H459ZM459 53.5747V53.6753H461V53.5747H459ZM459 57.6997V57.8003H461V57.6997H459ZM459 61.8247V61.9253H461V61.8247H459ZM459 65.9497V66.0503H461V65.9497H459ZM459 70.0747V70.1753H461V70.0747H459ZM459 74.1997V74.3003H461V74.1997H459ZM459 78.3247V78.4253H461V78.3247H459ZM459 82.4497V82.5503H461V82.4497H459ZM459 86.5747V86.6753H461V86.5747H459ZM459 90.6997V90.8003H461V90.6997H459ZM459 94.8247V94.9253H461V94.8247H459ZM459 98.9497V99H461V98.9497H459Z" fill="#F03100"/>
<path d="M570.401 44.9712C571.294 47.2392 569.854 49.7203 567.44 50.0596C558.522 51.3135 549.478 51.3135 540.56 50.0596C538.146 49.7203 536.706 47.2392 537.599 44.9713C540.992 36.3578 545.504 28.226 550.999 20.8407C552.504 18.8167 555.496 18.8167 557.001 20.8407C562.496 28.226 567.008 36.3578 570.401 44.9712Z" fill="#F03100"/>
<path d="M555.381 30.4545L555.147 40.7244H552.86L552.633 30.4545H555.381ZM554.004 45.1562C553.573 45.1562 553.203 45.0047 552.896 44.7017C552.593 44.3987 552.441 44.0294 552.441 43.5938C552.441 43.1676 552.593 42.803 552.896 42.5C553.203 42.197 553.573 42.0455 554.004 42.0455C554.425 42.0455 554.79 42.197 555.097 42.5C555.41 42.803 555.566 43.1676 555.566 43.5938C555.566 43.8826 555.493 44.1454 555.346 44.3821C555.204 44.6188 555.014 44.8082 554.778 44.9503C554.546 45.0876 554.288 45.1562 554.004 45.1562Z" fill="white"/>
<path d="M555 49.5C555 48.9477 554.552 48.5 554 48.5C553.448 48.5 553 48.9477 553 49.5H555ZM553 79C553 79.5523 553.448 80 554 80C554.552 80 555 79.5523 555 79H553ZM553 49.5514C553 50.1037 553.448 50.5514 554 50.5514C554.552 50.5514 555 50.1037 555 49.5514H553ZM555 53.6629C555 53.1106 554.552 52.6629 554 52.6629C553.448 52.6629 553 53.1106 553 53.6629H555ZM553 53.7657C553 54.318 553.448 54.7657 554 54.7657C554.552 54.7657 555 54.318 555 53.7657H553ZM555 57.8772C555 57.3249 554.552 56.8772 554 56.8772C553.448 56.8772 553 57.3249 553 57.8772H555ZM553 57.98C553 58.5323 553.448 58.98 554 58.98C554.552 58.98 555 58.5323 555 57.98H553ZM555 62.0915C555 61.5392 554.552 61.0915 554 61.0915C553.448 61.0915 553 61.5392 553 62.0915H555ZM553 62.1943C553 62.7465 553.448 63.1943 554 63.1943C554.552 63.1943 555 62.7465 555 62.1943H553ZM555 66.3057C555 65.7535 554.552 65.3057 554 65.3057C553.448 65.3057 553 65.7535 553 66.3057H555ZM553 66.4085C553 66.9608 553.448 67.4085 554 67.4085C554.552 67.4085 555 66.9608 555 66.4085H553ZM555 70.52C555 69.9677 554.552 69.52 554 69.52C553.448 69.52 553 69.9677 553 70.52H555ZM553 70.6228C553 71.1751 553.448 71.6228 554 71.6228C554.552 71.6228 555 71.1751 555 70.6228H553ZM555 74.7343C555 74.182 554.552 73.7343 554 73.7343C553.448 73.7343 553 74.182 553 74.7343H555ZM553 74.8371C553 75.3894 553.448 75.8371 554 75.8371C554.552 75.8371 555 75.3894 555 74.8371H553ZM555 78.9486C555 78.3963 554.552 77.9486 554 77.9486C553.448 77.9486 553 78.3963 553 78.9486H555ZM553 49.5V49.5514H555V49.5H553ZM553 53.6629V53.7657H555V53.6629H553ZM553 57.8772V57.98H555V57.8772H553ZM553 62.0915V62.1943H555V62.0915H553ZM553 66.3057V66.4085H555V66.3057H553ZM553 70.52V70.6228H555V70.52H553ZM553 74.7343V74.8371H555V74.7343H553ZM553 78.9486V79H555V78.9486H553Z" fill="#F03100"/>
<path d="M646.401 44.9712C647.294 47.2392 645.854 49.7203 643.44 50.0596C634.522 51.3135 625.478 51.3135 616.56 50.0596C614.146 49.7203 612.706 47.2392 613.599 44.9713C616.992 36.3578 621.504 28.226 626.999 20.8407C628.504 18.8167 631.496 18.8167 633.001 20.8407C638.496 28.226 643.008 36.3578 646.401 44.9712Z" fill="#F03100"/>
<path d="M631.381 30.4545L631.147 40.7244H628.86L628.633 30.4545H631.381ZM630.004 45.1562C629.573 45.1562 629.203 45.0047 628.896 44.7017C628.593 44.3987 628.441 44.0294 628.441 43.5938C628.441 43.1676 628.593 42.803 628.896 42.5C629.203 42.197 629.573 42.0455 630.004 42.0455C630.425 42.0455 630.79 42.197 631.097 42.5C631.41 42.803 631.566 43.1676 631.566 43.5938C631.566 43.8826 631.493 44.1454 631.346 44.3821C631.204 44.6188 631.014 44.8082 630.778 44.9503C630.546 45.0876 630.288 45.1562 630.004 45.1562Z" fill="white"/>
<path d="M631 49.5C631 48.9477 630.552 48.5 630 48.5C629.448 48.5 629 48.9477 629 49.5H631ZM629 99C629 99.5523 629.448 100 630 100C630.552 100 631 99.5523 631 99H629ZM629 49.5503C629 50.1026 629.448 50.5503 630 50.5503C630.552 50.5503 631 50.1026 631 49.5503H629ZM631 53.5747C631 53.0224 630.552 52.5747 630 52.5747C629.448 52.5747 629 53.0224 629 53.5747H631ZM629 53.6753C629 54.2276 629.448 54.6753 630 54.6753C630.552 54.6753 631 54.2276 631 53.6753H629ZM631 57.6997C631 57.1474 630.552 56.6997 630 56.6997C629.448 56.6997 629 57.1474 629 57.6997H631ZM629 57.8003C629 58.3526 629.448 58.8003 630 58.8003C630.552 58.8003 631 58.3526 631 57.8003H629ZM631 61.8247C631 61.2724 630.552 60.8247 630 60.8247C629.448 60.8247 629 61.2724 629 61.8247H631ZM629 61.9253C629 62.4776 629.448 62.9253 630 62.9253C630.552 62.9253 631 62.4776 631 61.9253H629ZM631 65.9497C631 65.3974 630.552 64.9497 630 64.9497C629.448 64.9497 629 65.3974 629 65.9497H631ZM629 66.0503C629 66.6026 629.448 67.0503 630 67.0503C630.552 67.0503 631 66.6026 631 66.0503H629ZM631 70.0747C631 69.5224 630.552 69.0747 630 69.0747C629.448 69.0747 629 69.5224 629 70.0747H631ZM629 70.1753C629 70.7276 629.448 71.1753 630 71.1753C630.552 71.1753 631 70.7276 631 70.1753H629ZM631 74.1997C631 73.6474 630.552 73.1997 630 73.1997C629.448 73.1997 629 73.6474 629 74.1997H631ZM629 74.3003C629 74.8526 629.448 75.3003 630 75.3003C630.552 75.3003 631 74.8526 631 74.3003H629ZM631 78.3247C631 77.7724 630.552 77.3247 630 77.3247C629.448 77.3247 629 77.7724 629 78.3247H631ZM629 78.4253C629 78.9776 629.448 79.4253 630 79.4253C630.552 79.4253 631 78.9776 631 78.4253H629ZM631 82.4497C631 81.8974 630.552 81.4497 630 81.4497C629.448 81.4497 629 81.8974 629 82.4497H631ZM629 82.5503C629 83.1026 629.448 83.5503 630 83.5503C630.552 83.5503 631 83.1026 631 82.5503H629ZM631 86.5747C631 86.0224 630.552 85.5747 630 85.5747C629.448 85.5747 629 86.0224 629 86.5747H631ZM629 86.6753C629 87.2276 629.448 87.6753 630 87.6753C630.552 87.6753 631 87.2276 631 86.6753H629ZM631 90.6997C631 90.1474 630.552 89.6997 630 89.6997C629.448 89.6997 629 90.1474 629 90.6997H631ZM629 90.8003C629 91.3526 629.448 91.8003 630 91.8003C630.552 91.8003 631 91.3526 631 90.8003H629ZM631 94.8247C631 94.2724 630.552 93.8247 630 93.8247C629.448 93.8247 629 94.2724 629 94.8247H631ZM629 94.9253C629 95.4776 629.448 95.9253 630 95.9253C630.552 95.9253 631 95.4776 631 94.9253H629ZM631 98.9497C631 98.3974 630.552 97.9497 630 97.9497C629.448 97.9497 629 98.3974 629 98.9497H631ZM629 49.5V49.5503H631V49.5H629ZM629 53.5747V53.6753H631V53.5747H629ZM629 57.6997V57.8003H631V57.6997H629ZM629 61.8247V61.9253H631V61.8247H629ZM629 65.9497V66.0503H631V65.9497H629ZM629 70.0747V70.1753H631V70.0747H629ZM629 74.1997V74.3003H631V74.1997H629ZM629 78.3247V78.4253H631V78.3247H629ZM629 82.4497V82.5503H631V82.4497H629ZM629 86.5747V86.6753H631V86.5747H629ZM629 90.6997V90.8003H631V90.6997H629ZM629 94.8247V94.9253H631V94.8247H629ZM629 98.9497V99H631V98.9497H629Z" fill="#F03100"/>
<path d="M25.5718 122H21.8564V110.523H25.6895C26.8141 110.523 27.7798 110.753 28.5868 111.212C29.3938 111.668 30.0121 112.324 30.4418 113.179C30.8751 114.031 31.0918 115.053 31.0918 116.245C31.0918 117.44 30.8733 118.468 30.4362 119.327C30.0028 120.186 29.3751 120.847 28.5532 121.311C27.7313 121.77 26.7375 122 25.5718 122ZM23.588 120.487H25.4766C26.3508 120.487 27.0775 120.323 27.6566 119.994C28.2356 119.661 28.669 119.181 28.9567 118.554C29.2444 117.922 29.3882 117.152 29.3882 116.245C29.3882 115.344 29.2444 114.58 28.9567 113.953C28.6728 113.325 28.2487 112.849 27.6846 112.524C27.1204 112.199 26.4199 112.036 25.5831 112.036H23.588V120.487ZM36.8206 122.174C35.9725 122.174 35.2421 121.993 34.6294 121.63C34.0204 121.264 33.5497 120.75 33.2172 120.089C32.8884 119.424 32.724 118.645 32.724 117.752C32.724 116.87 32.8884 116.093 33.2172 115.421C33.5497 114.748 34.0129 114.223 34.607 113.846C35.2047 113.469 35.9034 113.28 36.7029 113.28C37.1886 113.28 37.6593 113.36 38.1151 113.521C38.5709 113.682 38.98 113.934 39.3424 114.278C39.7048 114.621 39.9906 115.068 40.1998 115.617C40.409 116.162 40.5136 116.826 40.5136 117.606V118.2H33.6711V116.945H38.8717C38.8717 116.504 38.782 116.114 38.6027 115.774C38.4233 115.43 38.1712 115.159 37.8461 114.961C37.5248 114.763 37.1475 114.664 36.7141 114.664C36.2434 114.664 35.8324 114.78 35.4812 115.012C35.1338 115.24 34.8648 115.539 34.6742 115.908C34.4874 116.275 34.394 116.672 34.394 117.102V118.083C34.394 118.658 34.4949 119.148 34.6966 119.551C34.9021 119.955 35.1879 120.263 35.5541 120.476C35.9202 120.685 36.348 120.79 36.8374 120.79C37.155 120.79 37.4445 120.745 37.706 120.655C37.9675 120.562 38.1936 120.423 38.3841 120.24C38.5746 120.057 38.7203 119.831 38.8212 119.562L40.4072 119.848C40.2801 120.315 40.0522 120.724 39.7235 121.075C39.3984 121.423 38.9893 121.694 38.4962 121.888C38.0068 122.078 37.4482 122.174 36.8206 122.174ZM49.4899 113.392L46.3685 122H44.5752L41.4481 113.392H43.247L45.427 120.016H45.5167L47.691 113.392H49.4899ZM54.4817 122.174C53.6337 122.174 52.9033 121.993 52.2906 121.63C51.6816 121.264 51.2108 120.75 50.8783 120.089C50.5496 119.424 50.3852 118.645 50.3852 117.752C50.3852 116.87 50.5496 116.093 50.8783 115.421C51.2108 114.748 51.6741 114.223 52.2681 113.846C52.8659 113.469 53.5645 113.28 54.3641 113.28C54.8497 113.28 55.3205 113.36 55.7763 113.521C56.2321 113.682 56.6412 113.934 57.0036 114.278C57.366 114.621 57.6518 115.068 57.861 115.617C58.0702 116.162 58.1748 116.826 58.1748 117.606V118.2H51.3323V116.945H56.5328C56.5328 116.504 56.4432 116.114 56.2638 115.774C56.0845 115.43 55.8323 115.159 55.5073 114.961C55.186 114.763 54.8086 114.664 54.3753 114.664C53.9045 114.664 53.4936 114.78 53.1424 115.012C52.7949 115.24 52.5259 115.539 52.3354 115.908C52.1486 116.275 52.0552 116.672 52.0552 117.102V118.083C52.0552 118.658 52.1561 119.148 52.3578 119.551C52.5633 119.955 52.8491 120.263 53.2152 120.476C53.5814 120.685 54.0091 120.79 54.4985 120.79C54.8161 120.79 55.1057 120.745 55.3672 120.655C55.6287 120.562 55.8547 120.423 56.0453 120.24C56.2358 120.057 56.3815 119.831 56.4824 119.562L58.0683 119.848C57.9413 120.315 57.7134 120.724 57.3846 121.075C57.0596 121.423 56.6505 121.694 56.1573 121.888C55.6679 122.078 55.1094 122.174 54.4817 122.174ZM61.7096 110.523V122H60.0339V110.523H61.7096ZM67.5896 122.174C66.7826 122.174 66.0784 121.989 65.4769 121.619C64.8754 121.249 64.4084 120.732 64.0759 120.067C63.7434 119.402 63.5771 118.624 63.5771 117.735C63.5771 116.842 63.7434 116.062 64.0759 115.393C64.4084 114.724 64.8754 114.205 65.4769 113.835C66.0784 113.465 66.7826 113.28 67.5896 113.28C68.3966 113.28 69.1008 113.465 69.7023 113.835C70.3038 114.205 70.7708 114.724 71.1033 115.393C71.4359 116.062 71.6021 116.842 71.6021 117.735C71.6021 118.624 71.4359 119.402 71.1033 120.067C70.7708 120.732 70.3038 121.249 69.7023 121.619C69.1008 121.989 68.3966 122.174 67.5896 122.174ZM67.5952 120.767C68.1183 120.767 68.5516 120.629 68.8954 120.352C69.2391 120.076 69.4931 119.708 69.6575 119.248C69.8256 118.789 69.9097 118.283 69.9097 117.73C69.9097 117.181 69.8256 116.676 69.6575 116.217C69.4931 115.753 69.2391 115.382 68.8954 115.101C68.5516 114.821 68.1183 114.681 67.5952 114.681C67.0684 114.681 66.6313 114.821 66.2839 115.101C65.9402 115.382 65.6842 115.753 65.5161 116.217C65.3517 116.676 65.2695 117.181 65.2695 117.73C65.2695 118.283 65.3517 118.789 65.5161 119.248C65.6842 119.708 65.9402 120.076 66.2839 120.352C66.6313 120.629 67.0684 120.767 67.5952 120.767ZM73.4725 125.228V113.392H75.1088V114.788H75.2489C75.3461 114.608 75.4862 114.401 75.6692 114.166C75.8523 113.93 76.1064 113.725 76.4314 113.549C76.7564 113.37 77.1861 113.28 77.7203 113.28C78.4152 113.28 79.0354 113.456 79.5809 113.807C80.1263 114.158 80.5541 114.664 80.8642 115.326C81.178 115.987 81.3349 116.783 81.3349 117.713C81.3349 118.643 81.1799 119.441 80.8698 120.106C80.5597 120.767 80.1338 121.277 79.5921 121.636C79.0504 121.991 78.432 122.168 77.7371 122.168C77.2141 122.168 76.7863 122.08 76.4538 121.905C76.125 121.729 75.8673 121.524 75.6805 121.288C75.4937 121.053 75.3498 120.844 75.2489 120.661H75.1481V125.228H73.4725ZM75.1144 117.696C75.1144 118.301 75.2022 118.832 75.3778 119.288C75.5534 119.743 75.8075 120.1 76.14 120.358C76.4725 120.612 76.8797 120.739 77.3617 120.739C77.8623 120.739 78.2807 120.606 78.617 120.341C78.9532 120.072 79.2073 119.708 79.3791 119.248C79.5547 118.789 79.6425 118.271 79.6425 117.696C79.6425 117.128 79.5566 116.618 79.3847 116.166C79.2166 115.714 78.9626 115.357 78.6226 115.096C78.2863 114.834 77.866 114.704 77.3617 114.704C76.876 114.704 76.465 114.829 76.1288 115.079C75.7963 115.329 75.5441 115.679 75.3722 116.127C75.2004 116.575 75.1144 117.098 75.1144 117.696ZM86.9222 122.174C86.0741 122.174 85.3437 121.993 84.731 121.63C84.122 121.264 83.6513 120.75 83.3188 120.089C82.99 119.424 82.8256 118.645 82.8256 117.752C82.8256 116.87 82.99 116.093 83.3188 115.421C83.6513 114.748 84.1146 114.223 84.7086 113.846C85.3063 113.469 86.005 113.28 86.8045 113.28C87.2902 113.28 87.7609 113.36 88.2167 113.521C88.6725 113.682 89.0816 113.934 89.444 114.278C89.8064 114.621 90.0922 115.068 90.3014 115.617C90.5106 116.162 90.6152 116.826 90.6152 117.606V118.2H83.7727V116.945H88.9733C88.9733 116.504 88.8836 116.114 88.7043 115.774C88.5249 115.43 88.2728 115.159 87.9477 114.961C87.6264 114.763 87.2491 114.664 86.8157 114.664C86.345 114.664 85.934 114.78 85.5828 115.012C85.2354 115.24 84.9664 115.539 84.7758 115.908C84.589 116.275 84.4956 116.672 84.4956 117.102V118.083C84.4956 118.658 84.5965 119.148 84.7982 119.551C85.0037 119.955 85.2895 120.263 85.6557 120.476C86.0218 120.685 86.4496 120.79 86.939 120.79C87.2566 120.79 87.5461 120.745 87.8076 120.655C88.0691 120.562 88.2952 120.423 88.4857 120.24C88.6762 120.057 88.822 119.831 88.9228 119.562L90.5088 119.848C90.3817 120.315 90.1538 120.724 89.8251 121.075C89.5 121.423 89.0909 121.694 88.5978 121.888C88.1084 122.078 87.5498 122.174 86.9222 122.174ZM92.4744 122V113.392H94.094V114.76H94.1836C94.3405 114.296 94.617 113.932 95.013 113.667C95.4128 113.398 95.8648 113.263 96.3692 113.263C96.4738 113.263 96.5971 113.267 96.7391 113.274C96.8848 113.282 96.9987 113.291 97.0809 113.303V114.905C97.0137 114.887 96.8941 114.866 96.7223 114.844C96.5504 114.817 96.3785 114.804 96.2067 114.804C95.8107 114.804 95.4576 114.888 95.1475 115.057C94.8412 115.221 94.5983 115.451 94.419 115.746C94.2397 116.037 94.15 116.37 94.15 116.743V122H92.4744Z" fill="#102B2D"/>
<path d="M187.69 113.562C187.637 113.066 187.414 112.68 187.02 112.403C186.63 112.127 186.122 111.989 185.497 111.989C185.058 111.989 184.681 112.055 184.366 112.188C184.052 112.32 183.812 112.5 183.645 112.727C183.478 112.955 183.393 113.214 183.389 113.506C183.389 113.748 183.444 113.958 183.554 114.136C183.668 114.314 183.821 114.466 184.014 114.591C184.207 114.712 184.421 114.814 184.656 114.898C184.891 114.981 185.128 115.051 185.366 115.108L186.457 115.381C186.897 115.483 187.319 115.621 187.724 115.795C188.134 115.97 188.499 116.189 188.821 116.455C189.147 116.72 189.404 117.04 189.594 117.415C189.783 117.79 189.878 118.229 189.878 118.733C189.878 119.415 189.704 120.015 189.355 120.534C189.007 121.049 188.503 121.453 187.844 121.744C187.188 122.032 186.395 122.176 185.463 122.176C184.558 122.176 183.772 122.036 183.105 121.756C182.442 121.475 181.923 121.066 181.548 120.528C181.177 119.991 180.976 119.335 180.946 118.562H183.02C183.05 118.968 183.175 119.305 183.395 119.574C183.615 119.843 183.901 120.044 184.253 120.176C184.609 120.309 185.007 120.375 185.446 120.375C185.904 120.375 186.306 120.307 186.651 120.17C186.999 120.03 187.272 119.837 187.469 119.591C187.666 119.341 187.766 119.049 187.77 118.716C187.766 118.413 187.677 118.163 187.503 117.966C187.329 117.765 187.084 117.598 186.77 117.466C186.459 117.33 186.096 117.208 185.679 117.102L184.355 116.761C183.397 116.515 182.639 116.142 182.082 115.642C181.529 115.138 181.253 114.47 181.253 113.636C181.253 112.951 181.438 112.35 181.81 111.835C182.185 111.32 182.694 110.92 183.338 110.636C183.982 110.348 184.711 110.205 185.526 110.205C186.351 110.205 187.075 110.348 187.696 110.636C188.321 110.92 188.812 111.316 189.168 111.824C189.524 112.328 189.707 112.907 189.719 113.562H187.69ZM195.473 122.17C194.621 122.17 193.882 121.983 193.257 121.608C192.632 121.233 192.147 120.708 191.803 120.034C191.462 119.36 191.291 118.572 191.291 117.67C191.291 116.769 191.462 115.979 191.803 115.301C192.147 114.623 192.632 114.097 193.257 113.722C193.882 113.347 194.621 113.159 195.473 113.159C196.325 113.159 197.064 113.347 197.689 113.722C198.314 114.097 198.797 114.623 199.138 115.301C199.482 115.979 199.655 116.769 199.655 117.67C199.655 118.572 199.482 119.36 199.138 120.034C198.797 120.708 198.314 121.233 197.689 121.608C197.064 121.983 196.325 122.17 195.473 122.17ZM195.484 120.523C195.946 120.523 196.333 120.396 196.643 120.142C196.954 119.884 197.185 119.54 197.337 119.108C197.492 118.676 197.57 118.195 197.57 117.665C197.57 117.131 197.492 116.648 197.337 116.216C197.185 115.78 196.954 115.434 196.643 115.176C196.333 114.919 195.946 114.79 195.484 114.79C195.011 114.79 194.617 114.919 194.303 115.176C193.992 115.434 193.759 115.78 193.604 116.216C193.452 116.648 193.376 117.131 193.376 117.665C193.376 118.195 193.452 118.676 193.604 119.108C193.759 119.54 193.992 119.884 194.303 120.142C194.617 120.396 195.011 120.523 195.484 120.523ZM206.963 118.33V113.273H209.02V122H207.026V120.449H206.935C206.738 120.937 206.414 121.337 205.963 121.648C205.516 121.958 204.965 122.114 204.31 122.114C203.738 122.114 203.232 121.987 202.793 121.733C202.357 121.475 202.016 121.102 201.77 120.614C201.524 120.121 201.401 119.527 201.401 118.83V113.273H203.457V118.511C203.457 119.064 203.609 119.504 203.912 119.83C204.215 120.155 204.613 120.318 205.105 120.318C205.408 120.318 205.702 120.244 205.986 120.097C206.27 119.949 206.503 119.729 206.685 119.438C206.87 119.142 206.963 118.773 206.963 118.33ZM211.135 122V113.273H213.129V114.727H213.22C213.379 114.223 213.652 113.835 214.038 113.562C214.429 113.286 214.874 113.148 215.374 113.148C215.487 113.148 215.614 113.153 215.754 113.165C215.898 113.172 216.018 113.186 216.112 113.205V115.097C216.025 115.066 215.887 115.04 215.697 115.017C215.512 114.991 215.332 114.977 215.158 114.977C214.783 114.977 214.446 115.059 214.146 115.222C213.851 115.381 213.618 115.602 213.447 115.886C213.277 116.17 213.192 116.498 213.192 116.869V122H211.135ZM220.926 122.17C220.055 122.17 219.307 121.979 218.682 121.597C218.061 121.214 217.581 120.686 217.244 120.011C216.911 119.333 216.744 118.553 216.744 117.67C216.744 116.784 216.915 116.002 217.256 115.324C217.597 114.642 218.078 114.112 218.699 113.733C219.324 113.35 220.063 113.159 220.915 113.159C221.623 113.159 222.25 113.29 222.795 113.551C223.345 113.809 223.782 114.174 224.108 114.648C224.434 115.117 224.619 115.667 224.665 116.295H222.699C222.619 115.875 222.43 115.525 222.131 115.244C221.835 114.96 221.439 114.818 220.943 114.818C220.523 114.818 220.153 114.932 219.835 115.159C219.517 115.383 219.269 115.705 219.091 116.125C218.917 116.545 218.83 117.049 218.83 117.636C218.83 118.231 218.917 118.742 219.091 119.17C219.265 119.595 219.509 119.922 219.824 120.153C220.142 120.381 220.515 120.494 220.943 120.494C221.246 120.494 221.517 120.437 221.756 120.324C221.998 120.206 222.201 120.038 222.364 119.818C222.527 119.598 222.638 119.331 222.699 119.017H224.665C224.616 119.634 224.434 120.182 224.119 120.659C223.805 121.133 223.377 121.504 222.835 121.773C222.294 122.038 221.657 122.17 220.926 122.17ZM230.217 122.17C229.342 122.17 228.587 121.989 227.95 121.625C227.318 121.258 226.831 120.739 226.49 120.068C226.149 119.394 225.979 118.6 225.979 117.688C225.979 116.79 226.149 116.002 226.49 115.324C226.835 114.642 227.316 114.112 227.933 113.733C228.551 113.35 229.276 113.159 230.109 113.159C230.647 113.159 231.155 113.246 231.632 113.42C232.113 113.591 232.537 113.856 232.905 114.216C233.276 114.576 233.568 115.034 233.78 115.591C233.992 116.144 234.098 116.803 234.098 117.568V118.199H226.945V116.812H232.126C232.123 116.419 232.037 116.068 231.871 115.761C231.704 115.451 231.471 115.206 231.172 115.028C230.876 114.85 230.532 114.761 230.138 114.761C229.717 114.761 229.348 114.864 229.03 115.068C228.712 115.269 228.464 115.534 228.286 115.864C228.111 116.189 228.022 116.547 228.018 116.938V118.148C228.018 118.655 228.111 119.091 228.297 119.455C228.482 119.814 228.742 120.091 229.075 120.284C229.409 120.473 229.799 120.568 230.246 120.568C230.545 120.568 230.816 120.527 231.058 120.443C231.301 120.356 231.511 120.229 231.689 120.062C231.867 119.896 232.001 119.689 232.092 119.443L234.013 119.659C233.892 120.167 233.661 120.61 233.32 120.989C232.982 121.364 232.551 121.655 232.024 121.864C231.498 122.068 230.895 122.17 230.217 122.17Z" fill="#102B2D"/>
<rect x="155" y="80" width="105" height="71" rx="7" stroke="#58DA95" stroke-width="2"/>
<path d="M523.414 122V110.523H527.718C528.6 110.523 529.34 110.687 529.937 111.016C530.539 111.345 530.993 111.797 531.299 112.372C531.609 112.944 531.764 113.594 531.764 114.322C531.764 115.058 531.609 115.712 531.299 116.284C530.989 116.855 530.531 117.306 529.926 117.634C529.321 117.959 528.576 118.122 527.69 118.122H524.838V116.413H527.41C527.925 116.413 528.348 116.323 528.676 116.144C529.005 115.964 529.248 115.718 529.405 115.404C529.566 115.09 529.646 114.73 529.646 114.322C529.646 113.915 529.566 113.557 529.405 113.246C529.248 112.936 529.003 112.695 528.671 112.524C528.342 112.348 527.918 112.26 527.399 112.26H525.493V122H523.414ZM535.803 122.174C535.258 122.174 534.767 122.077 534.329 121.882C533.896 121.684 533.552 121.393 533.298 121.008C533.048 120.623 532.923 120.149 532.923 119.585C532.923 119.099 533.013 118.697 533.192 118.38C533.371 118.062 533.616 117.808 533.926 117.618C534.236 117.427 534.585 117.283 534.974 117.186C535.366 117.085 535.772 117.012 536.19 116.968C536.694 116.915 537.103 116.869 537.417 116.827C537.731 116.783 537.959 116.715 538.101 116.626C538.247 116.532 538.32 116.388 538.32 116.194V116.161C538.32 115.738 538.194 115.412 537.944 115.18C537.694 114.948 537.333 114.832 536.862 114.832C536.366 114.832 535.971 114.941 535.68 115.157C535.392 115.374 535.198 115.63 535.097 115.925L533.203 115.656C533.352 115.133 533.599 114.696 533.943 114.345C534.286 113.99 534.707 113.725 535.204 113.549C535.701 113.37 536.25 113.28 536.851 113.28C537.266 113.28 537.679 113.329 538.09 113.426C538.501 113.523 538.876 113.684 539.216 113.908C539.556 114.128 539.829 114.429 540.034 114.81C540.244 115.191 540.348 115.667 540.348 116.239V122H538.398V120.818H538.331C538.207 121.057 538.034 121.281 537.81 121.49C537.589 121.696 537.311 121.862 536.975 121.989C536.642 122.112 536.252 122.174 535.803 122.174ZM536.33 120.683C536.737 120.683 537.09 120.603 537.389 120.442C537.688 120.278 537.918 120.061 538.079 119.792C538.243 119.523 538.325 119.23 538.325 118.912V117.898C538.262 117.95 538.153 117.999 538 118.044C537.851 118.088 537.683 118.128 537.496 118.161C537.309 118.195 537.124 118.225 536.941 118.251C536.758 118.277 536.599 118.299 536.465 118.318C536.162 118.359 535.891 118.426 535.652 118.52C535.413 118.613 535.224 118.744 535.086 118.912C534.948 119.077 534.879 119.29 534.879 119.551C534.879 119.925 535.015 120.207 535.288 120.397C535.56 120.588 535.908 120.683 536.33 120.683ZM546.143 122.168C545.284 122.168 544.546 121.979 543.929 121.602C543.316 121.225 542.844 120.704 542.511 120.039C542.183 119.37 542.018 118.6 542.018 117.73C542.018 116.855 542.186 116.084 542.523 115.415C542.859 114.743 543.333 114.22 543.946 113.846C544.562 113.469 545.291 113.28 546.132 113.28C546.83 113.28 547.449 113.409 547.987 113.667C548.528 113.921 548.96 114.281 549.281 114.748C549.602 115.212 549.785 115.753 549.83 116.374H547.891C547.813 115.959 547.626 115.613 547.331 115.337C547.039 115.057 546.649 114.916 546.16 114.916C545.745 114.916 545.381 115.029 545.067 115.253C544.753 115.473 544.508 115.791 544.333 116.205C544.161 116.62 544.075 117.117 544.075 117.696C544.075 118.283 544.161 118.787 544.333 119.209C544.505 119.628 544.746 119.951 545.056 120.179C545.369 120.403 545.737 120.515 546.16 120.515C546.458 120.515 546.726 120.459 546.961 120.347C547.2 120.231 547.4 120.065 547.561 119.848C547.721 119.631 547.831 119.368 547.891 119.058H549.83C549.782 119.667 549.602 120.207 549.292 120.677C548.982 121.144 548.56 121.511 548.026 121.776C547.492 122.037 546.864 122.168 546.143 122.168ZM553.345 119.299L553.34 116.85H553.665L556.758 113.392H559.129L555.324 117.629H554.903L553.345 119.299ZM551.496 122V110.523H553.525V122H551.496ZM556.898 122L554.096 118.083L555.464 116.654L559.325 122H556.898ZM562.958 122.174C562.412 122.174 561.921 122.077 561.484 121.882C561.051 121.684 560.707 121.393 560.453 121.008C560.202 120.623 560.077 120.149 560.077 119.585C560.077 119.099 560.167 118.697 560.346 118.38C560.526 118.062 560.77 117.808 561.08 117.618C561.39 117.427 561.74 117.283 562.128 117.186C562.521 117.085 562.926 117.012 563.344 116.968C563.849 116.915 564.258 116.869 564.572 116.827C564.886 116.783 565.113 116.715 565.255 116.626C565.401 116.532 565.474 116.388 565.474 116.194V116.161C565.474 115.738 565.349 115.412 565.098 115.18C564.848 114.948 564.488 114.832 564.017 114.832C563.52 114.832 563.126 114.941 562.834 115.157C562.547 115.374 562.353 115.63 562.252 115.925L560.357 115.656C560.507 115.133 560.753 114.696 561.097 114.345C561.441 113.99 561.861 113.725 562.358 113.549C562.855 113.37 563.404 113.28 564.006 113.28C564.42 113.28 564.833 113.329 565.244 113.426C565.655 113.523 566.031 113.684 566.371 113.908C566.711 114.128 566.983 114.429 567.189 114.81C567.398 115.191 567.503 115.667 567.503 116.239V122H565.552V120.818H565.485C565.362 121.057 565.188 121.281 564.964 121.49C564.744 121.696 564.465 121.862 564.129 121.989C563.796 122.112 563.406 122.174 562.958 122.174ZM563.485 120.683C563.892 120.683 564.245 120.603 564.544 120.442C564.843 120.278 565.072 120.061 565.233 119.792C565.397 119.523 565.48 119.23 565.48 118.912V117.898C565.416 117.95 565.308 117.999 565.155 118.044C565.005 118.088 564.837 118.128 564.65 118.161C564.463 118.195 564.278 118.225 564.095 118.251C563.912 118.277 563.754 118.299 563.619 118.318C563.316 118.359 563.046 118.426 562.806 118.52C562.567 118.613 562.379 118.744 562.24 118.912C562.102 119.077 562.033 119.29 562.033 119.551C562.033 119.925 562.169 120.207 562.442 120.397C562.715 120.588 563.062 120.683 563.485 120.683ZM573.286 125.407C572.557 125.407 571.932 125.308 571.409 125.11C570.886 124.916 570.465 124.654 570.148 124.326C569.83 123.997 569.61 123.633 569.486 123.233L571.313 122.79C571.396 122.958 571.515 123.125 571.672 123.289C571.829 123.457 572.04 123.595 572.305 123.704C572.574 123.816 572.912 123.872 573.32 123.872C573.895 123.872 574.371 123.732 574.749 123.451C575.126 123.175 575.315 122.719 575.315 122.084V120.453H575.214C575.109 120.663 574.956 120.877 574.754 121.098C574.556 121.318 574.293 121.503 573.964 121.653C573.639 121.802 573.23 121.877 572.737 121.877C572.076 121.877 571.476 121.722 570.938 121.412C570.404 121.098 569.978 120.631 569.66 120.011C569.346 119.387 569.189 118.606 569.189 117.668C569.189 116.723 569.346 115.925 569.66 115.275C569.978 114.621 570.406 114.126 570.944 113.79C571.482 113.45 572.081 113.28 572.742 113.28C573.247 113.28 573.661 113.366 573.987 113.538C574.315 113.706 574.577 113.91 574.771 114.149C574.965 114.384 575.113 114.606 575.214 114.816H575.326V113.392H577.327V122.14C577.327 122.876 577.151 123.485 576.8 123.967C576.449 124.449 575.968 124.809 575.36 125.049C574.751 125.288 574.059 125.407 573.286 125.407ZM573.303 120.285C573.732 120.285 574.099 120.181 574.401 119.971C574.704 119.762 574.934 119.461 575.091 119.069C575.247 118.677 575.326 118.206 575.326 117.657C575.326 117.115 575.247 116.641 575.091 116.233C574.937 115.826 574.709 115.511 574.407 115.286C574.108 115.058 573.74 114.945 573.303 114.945C572.851 114.945 572.473 115.062 572.171 115.298C571.868 115.533 571.64 115.856 571.487 116.267C571.334 116.674 571.257 117.138 571.257 117.657C571.257 118.184 571.334 118.645 571.487 119.041C571.644 119.433 571.874 119.74 572.176 119.96C572.483 120.177 572.858 120.285 573.303 120.285ZM583.216 122.168C582.353 122.168 581.608 121.989 580.98 121.63C580.356 121.268 579.876 120.756 579.54 120.095C579.204 119.43 579.036 118.647 579.036 117.747C579.036 116.861 579.204 116.084 579.54 115.415C579.88 114.743 580.355 114.22 580.964 113.846C581.573 113.469 582.288 113.28 583.11 113.28C583.64 113.28 584.141 113.366 584.612 113.538C585.086 113.706 585.505 113.968 585.867 114.322C586.233 114.677 586.521 115.129 586.73 115.679C586.939 116.224 587.044 116.874 587.044 117.629V118.251H579.988V116.884H585.099C585.096 116.495 585.012 116.149 584.847 115.847C584.683 115.54 584.453 115.299 584.158 115.124C583.866 114.948 583.526 114.86 583.138 114.86C582.723 114.86 582.359 114.961 582.045 115.163C581.731 115.361 581.487 115.623 581.311 115.948C581.139 116.269 581.051 116.622 581.048 117.007V118.2C581.048 118.701 581.139 119.131 581.322 119.489C581.505 119.844 581.761 120.117 582.09 120.308C582.419 120.494 582.804 120.588 583.244 120.588C583.54 120.588 583.807 120.547 584.046 120.464C584.285 120.379 584.492 120.253 584.668 120.089C584.843 119.925 584.976 119.721 585.066 119.478L586.96 119.691C586.84 120.192 586.612 120.629 586.276 121.002C585.944 121.372 585.518 121.66 584.998 121.866C584.479 122.067 583.885 122.168 583.216 122.168Z" fill="#102B2D"/>
<rect x="497" y="80" width="116" height="71" rx="7" stroke="#58DA95" stroke-width="2"/>
<path d="M673.465 114.255H671.717C671.649 113.882 671.524 113.553 671.341 113.269C671.158 112.985 670.934 112.744 670.669 112.546C670.403 112.348 670.106 112.199 669.778 112.098C669.453 111.997 669.107 111.946 668.741 111.946C668.08 111.946 667.487 112.113 666.964 112.445C666.445 112.778 666.034 113.265 665.731 113.908C665.433 114.55 665.283 115.335 665.283 116.261C665.283 117.195 665.433 117.984 665.731 118.626C666.034 119.269 666.447 119.755 666.97 120.083C667.493 120.412 668.081 120.577 668.735 120.577C669.098 120.577 669.441 120.528 669.766 120.431C670.095 120.33 670.392 120.182 670.657 119.988C670.923 119.794 671.147 119.557 671.33 119.276C671.517 118.992 671.646 118.667 671.717 118.301L673.465 118.307C673.372 118.871 673.19 119.39 672.921 119.865C672.656 120.336 672.314 120.743 671.896 121.087C671.481 121.427 671.007 121.69 670.472 121.877C669.938 122.064 669.355 122.157 668.724 122.157C667.73 122.157 666.845 121.922 666.068 121.451C665.291 120.976 664.678 120.298 664.23 119.417C663.785 118.535 663.563 117.483 663.563 116.261C663.563 115.036 663.787 113.984 664.235 113.106C664.683 112.225 665.296 111.548 666.073 111.078C666.85 110.603 667.734 110.366 668.724 110.366C669.333 110.366 669.901 110.454 670.428 110.629C670.958 110.801 671.435 111.055 671.857 111.392C672.279 111.724 672.628 112.131 672.905 112.613C673.181 113.091 673.368 113.639 673.465 114.255ZM679.028 122.174C678.221 122.174 677.517 121.989 676.916 121.619C676.314 121.249 675.847 120.732 675.515 120.067C675.182 119.402 675.016 118.624 675.016 117.735C675.016 116.842 675.182 116.062 675.515 115.393C675.847 114.724 676.314 114.205 676.916 113.835C677.517 113.465 678.221 113.28 679.028 113.28C679.835 113.28 680.54 113.465 681.141 113.835C681.743 114.205 682.21 114.724 682.542 115.393C682.875 116.062 683.041 116.842 683.041 117.735C683.041 118.624 682.875 119.402 682.542 120.067C682.21 120.732 681.743 121.249 681.141 121.619C680.54 121.989 679.835 122.174 679.028 122.174ZM679.034 120.767C679.557 120.767 679.99 120.629 680.334 120.352C680.678 120.076 680.932 119.708 681.096 119.248C681.264 118.789 681.349 118.283 681.349 117.73C681.349 117.181 681.264 116.676 681.096 116.217C680.932 115.753 680.678 115.382 680.334 115.101C679.99 114.821 679.557 114.681 679.034 114.681C678.507 114.681 678.07 114.821 677.723 115.101C677.379 115.382 677.123 115.753 676.955 116.217C676.791 116.676 676.708 117.181 676.708 117.73C676.708 118.283 676.791 118.789 676.955 119.248C677.123 119.708 677.379 120.076 677.723 120.352C678.07 120.629 678.507 120.767 679.034 120.767ZM686.587 116.889V122H684.911V113.392H686.52V114.793H686.626C686.824 114.337 687.134 113.971 687.556 113.695C687.982 113.418 688.518 113.28 689.165 113.28C689.751 113.28 690.265 113.403 690.706 113.65C691.147 113.893 691.489 114.255 691.731 114.737C691.974 115.219 692.096 115.815 692.096 116.525V122H690.42V116.727C690.42 116.103 690.258 115.615 689.933 115.264C689.608 114.909 689.161 114.732 688.593 114.732C688.205 114.732 687.859 114.816 687.556 114.984C687.258 115.152 687.02 115.398 686.845 115.723C686.673 116.045 686.587 116.433 686.587 116.889ZM700.793 115.494L699.274 115.763C699.211 115.568 699.11 115.383 698.972 115.208C698.837 115.032 698.654 114.888 698.423 114.776C698.191 114.664 697.902 114.608 697.554 114.608C697.08 114.608 696.684 114.715 696.366 114.928C696.048 115.137 695.89 115.408 695.89 115.74C695.89 116.028 695.996 116.26 696.209 116.435C696.422 116.611 696.766 116.755 697.24 116.867L698.608 117.181C699.4 117.364 699.99 117.646 700.378 118.027C700.767 118.408 700.961 118.903 700.961 119.512C700.961 120.027 700.812 120.487 700.513 120.89C700.218 121.29 699.805 121.604 699.274 121.832C698.748 122.06 698.137 122.174 697.442 122.174C696.478 122.174 695.692 121.968 695.083 121.557C694.474 121.143 694.1 120.554 693.962 119.792L695.581 119.545C695.682 119.968 695.89 120.287 696.203 120.504C696.517 120.717 696.926 120.823 697.431 120.823C697.98 120.823 698.419 120.709 698.748 120.481C699.076 120.25 699.241 119.968 699.241 119.635C699.241 119.366 699.14 119.14 698.938 118.957C698.74 118.774 698.436 118.636 698.025 118.542L696.568 118.223C695.764 118.04 695.17 117.748 694.786 117.349C694.405 116.949 694.214 116.443 694.214 115.83C694.214 115.322 694.356 114.877 694.64 114.496C694.924 114.115 695.316 113.818 695.817 113.605C696.317 113.388 696.891 113.28 697.537 113.28C698.468 113.28 699.2 113.482 699.734 113.885C700.268 114.285 700.621 114.821 700.793 115.494ZM708.256 118.43V113.392H709.938V122H708.29V120.509H708.2C708.002 120.969 707.685 121.352 707.248 121.658C706.814 121.961 706.274 122.112 705.628 122.112C705.075 122.112 704.586 121.991 704.16 121.748C703.738 121.501 703.405 121.137 703.162 120.655C702.923 120.173 702.804 119.577 702.804 118.867V113.392H704.479V118.666C704.479 119.252 704.642 119.719 704.967 120.067C705.292 120.414 705.714 120.588 706.233 120.588C706.547 120.588 706.859 120.509 707.169 120.352C707.483 120.195 707.743 119.958 707.948 119.641C708.157 119.323 708.26 118.92 708.256 118.43ZM712.189 122V113.392H713.797V114.793H713.904C714.083 114.319 714.376 113.949 714.784 113.684C715.191 113.415 715.678 113.28 716.246 113.28C716.822 113.28 717.304 113.415 717.692 113.684C718.084 113.953 718.374 114.322 718.561 114.793H718.65C718.856 114.334 719.183 113.968 719.631 113.695C720.08 113.418 720.614 113.28 721.234 113.28C722.015 113.28 722.652 113.525 723.145 114.014C723.642 114.504 723.89 115.242 723.89 116.228V122H722.215V116.385C722.215 115.802 722.056 115.38 721.738 115.118C721.421 114.857 721.042 114.726 720.601 114.726C720.055 114.726 719.631 114.894 719.329 115.23C719.026 115.563 718.875 115.991 718.875 116.514V122H717.205V116.278C717.205 115.811 717.059 115.436 716.768 115.152C716.476 114.868 716.097 114.726 715.63 114.726C715.312 114.726 715.019 114.81 714.75 114.978C714.485 115.143 714.27 115.372 714.106 115.667C713.945 115.963 713.865 116.304 713.865 116.693V122H712.189ZM729.846 122.174C728.998 122.174 728.268 121.993 727.655 121.63C727.046 121.264 726.575 120.75 726.243 120.089C725.914 119.424 725.749 118.645 725.749 117.752C725.749 116.87 725.914 116.093 726.243 115.421C726.575 114.748 727.038 114.223 727.632 113.846C728.23 113.469 728.929 113.28 729.728 113.28C730.214 113.28 730.685 113.36 731.141 113.521C731.596 113.682 732.005 113.934 732.368 114.278C732.73 114.621 733.016 115.068 733.225 115.617C733.434 116.162 733.539 116.826 733.539 117.606V118.2H726.697V116.945H731.897C731.897 116.504 731.807 116.114 731.628 115.774C731.449 115.43 731.197 115.159 730.872 114.961C730.55 114.763 730.173 114.664 729.74 114.664C729.269 114.664 728.858 114.78 728.507 115.012C728.159 115.24 727.89 115.539 727.7 115.908C727.513 116.275 727.419 116.672 727.419 117.102V118.083C727.419 118.658 727.52 119.148 727.722 119.551C727.928 119.955 728.213 120.263 728.579 120.476C728.946 120.685 729.373 120.79 729.863 120.79C730.18 120.79 730.47 120.745 730.731 120.655C730.993 120.562 731.219 120.423 731.41 120.24C731.6 120.057 731.746 119.831 731.847 119.562L733.433 119.848C733.306 120.315 733.078 120.724 732.749 121.075C732.424 121.423 732.015 121.694 731.522 121.888C731.032 122.078 730.474 122.174 729.846 122.174ZM735.398 122V113.392H737.018V114.76H737.107C737.264 114.296 737.541 113.932 737.937 113.667C738.337 113.398 738.789 113.263 739.293 113.263C739.398 113.263 739.521 113.267 739.663 113.274C739.809 113.282 739.923 113.291 740.005 113.303V114.905C739.937 114.887 739.818 114.866 739.646 114.844C739.474 114.817 739.302 114.804 739.13 114.804C738.734 114.804 738.381 114.888 738.071 115.057C737.765 115.221 737.522 115.451 737.343 115.746C737.163 116.037 737.074 116.37 737.074 116.743V122H735.398Z" fill="#102B2D"/>
<path d="M329.634 234H325.745V222.523H329.713C330.852 222.523 331.831 222.753 332.649 223.212C333.471 223.668 334.103 224.324 334.544 225.179C334.984 226.035 335.205 227.058 335.205 228.25C335.205 229.446 334.983 230.473 334.538 231.332C334.097 232.192 333.46 232.851 332.627 233.311C331.798 233.77 330.8 234 329.634 234ZM327.824 232.201H329.534C330.333 232.201 331 232.055 331.534 231.764C332.068 231.469 332.47 231.03 332.739 230.447C333.008 229.86 333.143 229.128 333.143 228.25C333.143 227.372 333.008 226.644 332.739 226.065C332.47 225.482 332.072 225.047 331.545 224.759C331.022 224.468 330.372 224.322 329.595 224.322H327.824V232.201ZM340.901 234.168C340.038 234.168 339.293 233.989 338.665 233.63C338.041 233.268 337.561 232.756 337.225 232.095C336.889 231.43 336.721 230.647 336.721 229.747C336.721 228.861 336.889 228.084 337.225 227.415C337.565 226.743 338.04 226.22 338.649 225.846C339.258 225.469 339.973 225.28 340.795 225.28C341.325 225.28 341.826 225.366 342.297 225.538C342.771 225.706 343.19 225.968 343.552 226.322C343.918 226.677 344.206 227.129 344.415 227.679C344.624 228.224 344.729 228.874 344.729 229.629V230.251H337.673V228.884H342.784C342.781 228.495 342.697 228.149 342.532 227.847C342.368 227.54 342.138 227.299 341.843 227.124C341.551 226.948 341.211 226.86 340.823 226.86C340.408 226.86 340.044 226.961 339.73 227.163C339.416 227.361 339.172 227.623 338.996 227.948C338.824 228.269 338.736 228.622 338.733 229.007V230.2C338.733 230.701 338.824 231.131 339.007 231.489C339.19 231.844 339.446 232.117 339.775 232.308C340.104 232.494 340.489 232.588 340.929 232.588C341.225 232.588 341.492 232.547 341.731 232.464C341.97 232.379 342.177 232.253 342.353 232.089C342.528 231.925 342.661 231.721 342.751 231.478L344.645 231.691C344.525 232.192 344.297 232.629 343.961 233.002C343.629 233.372 343.203 233.66 342.683 233.866C342.164 234.067 341.57 234.168 340.901 234.168ZM346.445 237.228V225.392H348.44V226.816H348.558C348.663 226.606 348.81 226.384 349.001 226.149C349.191 225.91 349.449 225.706 349.774 225.538C350.099 225.366 350.514 225.28 351.018 225.28C351.683 225.28 352.283 225.45 352.817 225.79C353.355 226.126 353.781 226.625 354.095 227.286C354.412 227.944 354.571 228.751 354.571 229.707C354.571 230.653 354.416 231.456 354.106 232.117C353.796 232.778 353.374 233.283 352.839 233.63C352.305 233.978 351.7 234.151 351.024 234.151C350.531 234.151 350.121 234.069 349.796 233.905C349.471 233.74 349.21 233.542 349.012 233.311C348.818 233.075 348.666 232.853 348.558 232.644H348.474V237.228H346.445ZM348.435 229.696C348.435 230.253 348.513 230.74 348.67 231.159C348.831 231.577 349.06 231.904 349.359 232.139C349.662 232.371 350.028 232.487 350.458 232.487C350.906 232.487 351.282 232.367 351.584 232.128C351.887 231.885 352.115 231.555 352.268 231.136C352.425 230.714 352.503 230.234 352.503 229.696C352.503 229.162 352.427 228.687 352.273 228.273C352.12 227.858 351.892 227.533 351.59 227.298C351.287 227.062 350.91 226.945 350.458 226.945C350.024 226.945 349.656 227.058 349.354 227.286C349.051 227.514 348.821 227.834 348.664 228.245C348.511 228.656 348.435 229.139 348.435 229.696ZM360.119 234.168C359.256 234.168 358.511 233.989 357.883 233.63C357.259 233.268 356.779 232.756 356.443 232.095C356.107 231.43 355.938 230.647 355.938 229.747C355.938 228.861 356.107 228.084 356.443 227.415C356.783 226.743 357.257 226.22 357.866 225.846C358.475 225.469 359.191 225.28 360.013 225.28C360.543 225.28 361.044 225.366 361.515 225.538C361.989 225.706 362.407 225.968 362.77 226.322C363.136 226.677 363.424 227.129 363.633 227.679C363.842 228.224 363.947 228.874 363.947 229.629V230.251H356.891V228.884H362.002C361.998 228.495 361.914 228.149 361.75 227.847C361.585 227.54 361.356 227.299 361.061 227.124C360.769 226.948 360.429 226.86 360.041 226.86C359.626 226.86 359.262 226.961 358.948 227.163C358.634 227.361 358.389 227.623 358.214 227.948C358.042 228.269 357.954 228.622 357.95 229.007V230.2C357.95 230.701 358.042 231.131 358.225 231.489C358.408 231.844 358.664 232.117 358.993 232.308C359.321 232.494 359.706 232.588 360.147 232.588C360.442 232.588 360.709 232.547 360.948 232.464C361.188 232.379 361.395 232.253 361.571 232.089C361.746 231.925 361.879 231.721 361.968 231.478L363.863 231.691C363.743 232.192 363.515 232.629 363.179 233.002C362.846 233.372 362.42 233.66 361.901 233.866C361.382 234.067 360.788 234.168 360.119 234.168ZM367.692 228.956V234H365.663V225.392H367.602V226.855H367.703C367.901 226.373 368.216 225.99 368.65 225.706C369.087 225.422 369.627 225.28 370.269 225.28C370.863 225.28 371.381 225.407 371.822 225.661C372.266 225.915 372.61 226.283 372.853 226.765C373.099 227.247 373.221 227.832 373.217 228.519V234H371.188V228.833C371.188 228.258 371.039 227.808 370.74 227.482C370.445 227.157 370.036 226.995 369.513 226.995C369.158 226.995 368.842 227.073 368.566 227.23C368.293 227.383 368.078 227.606 367.921 227.897C367.768 228.189 367.692 228.542 367.692 228.956ZM378.474 234.151C377.798 234.151 377.192 233.978 376.658 233.63C376.124 233.283 375.702 232.778 375.392 232.117C375.081 231.456 374.926 230.653 374.926 229.707C374.926 228.751 375.083 227.944 375.397 227.286C375.715 226.625 376.142 226.126 376.68 225.79C377.218 225.45 377.818 225.28 378.479 225.28C378.984 225.28 379.398 225.366 379.723 225.538C380.048 225.706 380.306 225.91 380.497 226.149C380.687 226.384 380.835 226.606 380.94 226.816H381.024V222.523H383.058V234H381.063V232.644H380.94C380.835 232.853 380.684 233.075 380.486 233.311C380.288 233.542 380.026 233.74 379.701 233.905C379.376 234.069 378.967 234.151 378.474 234.151ZM379.04 232.487C379.469 232.487 379.836 232.371 380.138 232.139C380.441 231.904 380.671 231.577 380.827 231.159C380.984 230.74 381.063 230.253 381.063 229.696C381.063 229.139 380.984 228.656 380.827 228.245C380.674 227.834 380.446 227.514 380.144 227.286C379.845 227.058 379.477 226.945 379.04 226.945C378.588 226.945 378.21 227.062 377.908 227.298C377.605 227.533 377.377 227.858 377.224 228.273C377.071 228.687 376.994 229.162 376.994 229.696C376.994 230.234 377.071 230.714 377.224 231.136C377.381 231.555 377.611 231.885 377.913 232.128C378.22 232.367 378.595 232.487 379.04 232.487ZM389.03 234.168C388.167 234.168 387.422 233.989 386.794 233.63C386.17 233.268 385.69 232.756 385.354 232.095C385.018 231.43 384.85 230.647 384.85 229.747C384.85 228.861 385.018 228.084 385.354 227.415C385.694 226.743 386.169 226.22 386.778 225.846C387.387 225.469 388.102 225.28 388.924 225.28C389.454 225.28 389.955 225.366 390.426 225.538C390.9 225.706 391.319 225.968 391.681 226.322C392.047 226.677 392.335 227.129 392.544 227.679C392.753 228.224 392.858 228.874 392.858 229.629V230.251H385.802V228.884H390.913C390.91 228.495 390.826 228.149 390.661 227.847C390.497 227.54 390.267 227.299 389.972 227.124C389.68 226.948 389.34 226.86 388.952 226.86C388.537 226.86 388.173 226.961 387.859 227.163C387.545 227.361 387.301 227.623 387.125 227.948C386.953 228.269 386.865 228.622 386.862 229.007V230.2C386.862 230.701 386.953 231.131 387.136 231.489C387.319 231.844 387.575 232.117 387.904 232.308C388.233 232.494 388.618 232.588 389.058 232.588C389.354 232.588 389.621 232.547 389.86 232.464C390.099 232.379 390.306 232.253 390.482 232.089C390.657 231.925 390.79 231.721 390.88 231.478L392.774 231.691C392.654 232.192 392.426 232.629 392.09 233.002C391.758 233.372 391.332 233.66 390.812 233.866C390.293 234.067 389.699 234.168 389.03 234.168ZM396.603 228.956V234H394.574V225.392H396.513V226.855H396.614C396.812 226.373 397.128 225.99 397.561 225.706C397.998 225.422 398.538 225.28 399.181 225.28C399.775 225.28 400.292 225.407 400.733 225.661C401.178 225.915 401.521 226.283 401.764 226.765C402.011 227.247 402.132 227.832 402.128 228.519V234H400.1V228.833C400.1 228.258 399.95 227.808 399.651 227.482C399.356 227.157 398.947 226.995 398.424 226.995C398.069 226.995 397.754 227.073 397.477 227.23C397.204 227.383 396.99 227.606 396.833 227.897C396.679 228.189 396.603 228.542 396.603 228.956ZM407.945 234.168C407.086 234.168 406.348 233.979 405.732 233.602C405.119 233.225 404.647 232.704 404.314 232.039C403.985 231.37 403.821 230.6 403.821 229.73C403.821 228.855 403.989 228.084 404.325 227.415C404.661 226.743 405.136 226.22 405.749 225.846C406.365 225.469 407.094 225.28 407.934 225.28C408.633 225.28 409.251 225.409 409.789 225.667C410.331 225.921 410.762 226.281 411.084 226.748C411.405 227.212 411.588 227.753 411.633 228.374H409.694C409.615 227.959 409.429 227.613 409.134 227.337C408.842 227.057 408.452 226.916 407.962 226.916C407.548 226.916 407.183 227.029 406.869 227.253C406.556 227.473 406.311 227.791 406.135 228.205C405.963 228.62 405.878 229.117 405.878 229.696C405.878 230.283 405.963 230.787 406.135 231.209C406.307 231.628 406.548 231.951 406.858 232.179C407.172 232.403 407.54 232.515 407.962 232.515C408.261 232.515 408.528 232.459 408.764 232.347C409.003 232.231 409.203 232.065 409.363 231.848C409.524 231.631 409.634 231.368 409.694 231.058H411.633C411.584 231.667 411.405 232.207 411.095 232.677C410.785 233.144 410.363 233.511 409.828 233.776C409.294 234.037 408.667 234.168 407.945 234.168ZM413.299 234V225.392H415.327V234H413.299ZM414.319 224.17C413.997 224.17 413.721 224.064 413.489 223.851C413.258 223.634 413.142 223.375 413.142 223.072C413.142 222.766 413.258 222.506 413.489 222.293C413.721 222.076 413.997 221.968 414.319 221.968C414.644 221.968 414.92 222.076 415.148 222.293C415.38 222.506 415.496 222.766 415.496 223.072C415.496 223.375 415.38 223.634 415.148 223.851C414.92 224.064 414.644 224.17 414.319 224.17ZM421.224 234.168C420.361 234.168 419.616 233.989 418.988 233.63C418.364 233.268 417.884 232.756 417.548 232.095C417.212 231.43 417.044 230.647 417.044 229.747C417.044 228.861 417.212 228.084 417.548 227.415C417.888 226.743 418.362 226.22 418.971 225.846C419.58 225.469 420.296 225.28 421.118 225.28C421.648 225.28 422.149 225.366 422.62 225.538C423.094 225.706 423.513 225.968 423.875 226.322C424.241 226.677 424.529 227.129 424.738 227.679C424.947 228.224 425.052 228.874 425.052 229.629V230.251H417.996V228.884H423.107C423.103 228.495 423.019 228.149 422.855 227.847C422.691 227.54 422.461 227.299 422.166 227.124C421.874 226.948 421.534 226.86 421.146 226.86C420.731 226.86 420.367 226.961 420.053 227.163C419.739 227.361 419.494 227.623 419.319 227.948C419.147 228.269 419.059 228.622 419.055 229.007V230.2C419.055 230.701 419.147 231.131 419.33 231.489C419.513 231.844 419.769 232.117 420.098 232.308C420.427 232.494 420.811 232.588 421.252 232.588C421.547 232.588 421.815 232.547 422.054 232.464C422.293 232.379 422.5 232.253 422.676 232.089C422.851 231.925 422.984 231.721 423.074 231.478L424.968 231.691C424.848 232.192 424.62 232.629 424.284 233.002C423.952 233.372 423.526 233.66 423.006 233.866C422.487 234.067 421.893 234.168 421.224 234.168ZM433.571 227.667L431.722 227.869C431.67 227.682 431.578 227.507 431.447 227.342C431.32 227.178 431.149 227.045 430.932 226.945C430.715 226.844 430.45 226.793 430.136 226.793C429.714 226.793 429.359 226.885 429.071 227.068C428.787 227.251 428.647 227.488 428.651 227.78C428.647 228.03 428.739 228.233 428.926 228.39C429.116 228.547 429.43 228.676 429.867 228.777L431.335 229.091C432.15 229.266 432.755 229.545 433.151 229.926C433.551 230.307 433.753 230.806 433.756 231.422C433.753 231.964 433.594 232.442 433.28 232.857C432.97 233.268 432.538 233.589 431.985 233.821C431.432 234.052 430.797 234.168 430.08 234.168C429.026 234.168 428.178 233.948 427.536 233.507C426.893 233.062 426.51 232.444 426.387 231.652L428.365 231.461C428.455 231.85 428.645 232.143 428.937 232.341C429.228 232.539 429.607 232.638 430.074 232.638C430.556 232.638 430.943 232.539 431.234 232.341C431.53 232.143 431.677 231.898 431.677 231.607C431.677 231.36 431.582 231.157 431.391 230.996C431.205 230.836 430.913 230.712 430.517 230.626L429.049 230.318C428.223 230.146 427.612 229.857 427.216 229.45C426.82 229.039 426.624 228.519 426.628 227.892C426.624 227.361 426.768 226.902 427.059 226.513C427.355 226.121 427.764 225.818 428.287 225.605C428.814 225.388 429.421 225.28 430.108 225.28C431.117 225.28 431.911 225.495 432.49 225.925C433.073 226.354 433.433 226.935 433.571 227.667Z" fill="#102B2D"/>
<rect x="298.5" y="191" width="162" height="73" rx="8" stroke="#58DA95" stroke-width="2" stroke-linecap="square" stroke-dasharray="5 5"/>
<path d="M560 192L554 198L548 192" stroke="#58DA95" stroke-linecap="round" stroke-linejoin="round"/>
<path d="M554 159V221C554 225.418 550.418 229 546 229H462" stroke="#58DA95" stroke-linejoin="round"/>
<path d="M280 228C279.448 228 279 228.448 279 229C279 229.552 279.448 230 280 230L280 228ZM294 230C294.552 230 295 229.552 295 229C295 228.448 294.552 228 294 228L294 230ZM280.057 230C280.609 230 281.057 229.552 281.057 229C281.057 228.448 280.609 228 280.057 228L280.057 230ZM284.61 228C284.057 228 283.61 228.448 283.61 229C283.61 229.552 284.057 230 284.61 230L284.61 228ZM284.724 230C285.276 230 285.724 229.552 285.724 229C285.724 228.448 285.276 228 284.724 228L284.724 230ZM289.276 228C288.724 228 288.276 228.448 288.276 229C288.276 229.552 288.724 230 289.276 230L289.276 228ZM289.39 230C289.943 230 290.39 229.552 290.39 229C290.39 228.448 289.943 228 289.39 228L289.39 230ZM293.943 228C293.391 228 292.943 228.448 292.943 229C292.943 229.552 293.391 230 293.943 230L293.943 228ZM280 230L280.057 230L280.057 228L280 228L280 230ZM284.61 230L284.724 230L284.724 228L284.61 228L284.61 230ZM289.276 230L289.39 230L289.39 228L289.276 228L289.276 230ZM293.943 230L294 230L294 228L293.943 228L293.943 230Z" fill="#F03100"/>
<path d="M286.401 238.971C287.294 241.239 285.854 243.72 283.44 244.06C274.522 245.313 265.478 245.313 256.56 244.06C254.146 243.72 252.706 241.239 253.599 238.971C256.992 230.358 261.504 222.226 266.999 214.841C268.504 212.817 271.496 212.817 273.001 214.841C278.496 222.226 283.008 230.358 286.401 238.971Z" fill="#F03100"/>
<path d="M271.381 224.455L271.147 234.724H268.86L268.633 224.455H271.381ZM270.004 239.156C269.573 239.156 269.203 239.005 268.896 238.702C268.593 238.399 268.441 238.029 268.441 237.594C268.441 237.168 268.593 236.803 268.896 236.5C269.203 236.197 269.573 236.045 270.004 236.045C270.425 236.045 270.79 236.197 271.097 236.5C271.41 236.803 271.566 237.168 271.566 237.594C271.566 237.883 271.493 238.145 271.346 238.382C271.204 238.619 271.014 238.808 270.778 238.95C270.546 239.088 270.288 239.156 270.004 239.156Z" fill="white"/>
<path d="M264 117L328 117" stroke="#58DA95" stroke-linejoin="round"/>
<path d="M294 111L300 117L294 123" stroke="#58DA95" stroke-linecap="square" stroke-linejoin="round"/>
<path d="M428 117L492 117" stroke="#58DA95" stroke-linejoin="round"/>
<path d="M458 111L464 117L458 123" stroke="#58DA95" stroke-linecap="square" stroke-linejoin="round"/>
<path d="M616 117L644 117" stroke="#58DA95" stroke-linejoin="round"/>
<path d="M628 111L634 117L628 123" stroke="#58DA95" stroke-linecap="square" stroke-linejoin="round"/>
<path d="M122 117L150 117" stroke="#58DA95" stroke-linejoin="round"/>
<path d="M134 111L140 117L134 123" stroke="#58DA95" stroke-linecap="square" stroke-linejoin="round"/>
<path d="M378 187L378 159" stroke="#58DA95" stroke-linejoin="round"/>
<path d="M372 175L378 169L384 175" stroke="#58DA95" stroke-linecap="square" stroke-linejoin="round"/>
<mask id="path-45-inside-1_2_425" fill="white">
<path fill-rule="evenodd" clip-rule="evenodd" d="M332.345 119.071C337.164 132.828 345.776 144.884 357.149 153.798C358.234 154.648 359.575 155.082 360.944 155.082H394.643H395.643V155.004C396.655 154.844 397.619 154.44 398.438 153.798C409.811 144.884 418.423 132.828 423.242 119.071C423.702 117.758 423.702 116.324 423.242 115.012C418.423 101.255 409.811 89.1981 398.438 80.2845C397.619 79.6428 396.655 79.2382 395.643 79.0782V79H394.643H360.944C359.575 79 358.234 79.4341 357.149 80.2845C345.776 89.1981 337.164 101.255 332.345 115.012C331.885 116.324 331.885 117.758 332.345 119.071Z"/>
</mask>
<path d="M357.149 153.798L358.383 152.224L358.383 152.224L357.149 153.798ZM332.345 119.071L334.232 118.409V118.409L332.345 119.071ZM395.643 155.082V157.082H397.643V155.082H395.643ZM395.643 155.004L395.33 153.029L393.643 153.295V155.004H395.643ZM398.438 153.798L397.204 152.224V152.224L398.438 153.798ZM423.242 119.071L421.355 118.409V118.409L423.242 119.071ZM423.242 115.012L421.355 115.673V115.673L423.242 115.012ZM398.438 80.2845L399.671 78.7103V78.7103L398.438 80.2845ZM395.643 79.0782H393.643V80.787L395.33 81.0537L395.643 79.0782ZM395.643 79H397.643V77H395.643V79ZM357.149 80.2845L358.383 81.8586V81.8586L357.149 80.2845ZM332.345 115.012L334.232 115.673L334.232 115.673L332.345 115.012ZM358.383 152.224C347.313 143.548 338.927 131.809 334.232 118.409L330.457 119.732C335.402 133.846 344.239 146.221 355.916 155.372L358.383 152.224ZM360.944 153.082C359.995 153.082 359.095 152.782 358.383 152.224L355.916 155.372C357.373 156.514 359.154 157.082 360.944 157.082V153.082ZM394.643 153.082H360.944V157.082H394.643V153.082ZM395.643 153.082H394.643V157.082H395.643V153.082ZM393.643 155.004V155.082H397.643V155.004H393.643ZM395.955 156.98C397.287 156.769 398.572 156.234 399.671 155.372L397.204 152.224C396.666 152.645 396.023 152.919 395.33 153.029L395.955 156.98ZM399.671 155.372C411.348 146.221 420.185 133.846 425.13 119.732L421.355 118.409C416.66 131.809 408.274 143.548 397.204 152.224L399.671 155.372ZM425.13 119.732C425.739 117.991 425.739 116.091 425.13 114.35L421.355 115.673C421.664 116.557 421.664 117.525 421.355 118.409L425.13 119.732ZM425.13 114.35C420.185 100.236 411.348 87.8618 399.671 78.7103L397.204 81.8586C408.274 90.5344 416.66 102.273 421.355 115.673L425.13 114.35ZM399.671 78.7103C398.572 77.8488 397.287 77.3133 395.955 77.1027L395.33 81.0537C396.023 81.1631 396.666 81.4369 397.204 81.8586L399.671 78.7103ZM393.643 79V79.0782H397.643V79H393.643ZM394.643 81H395.643V77H394.643V81ZM360.944 81H394.643V77H360.944V81ZM358.383 81.8586C359.095 81.3004 359.995 81 360.944 81V77C359.154 77 357.373 77.5679 355.916 78.7103L358.383 81.8586ZM334.232 115.673C338.927 102.273 347.313 90.5344 358.383 81.8586L355.916 78.7103C344.239 87.8618 335.402 100.236 330.457 114.35L334.232 115.673ZM334.232 118.409C333.923 117.525 333.923 116.557 334.232 115.673L330.457 114.35C329.848 116.091 329.848 117.991 330.457 119.732L334.232 118.409Z" fill="#58DA95" mask="url(#path-45-inside-1_2_425)"/>
<path d="M360.561 124V112.523H364.954C365.784 112.523 366.473 112.654 367.022 112.915C367.575 113.173 367.988 113.526 368.261 113.974C368.537 114.423 368.675 114.931 368.675 115.499C368.675 115.966 368.586 116.365 368.406 116.698C368.227 117.027 367.986 117.294 367.683 117.499C367.381 117.705 367.043 117.852 366.669 117.942V118.054C367.076 118.077 367.467 118.202 367.84 118.43C368.218 118.654 368.526 118.971 368.765 119.382C369.004 119.793 369.124 120.29 369.124 120.873C369.124 121.467 368.98 122.001 368.692 122.476C368.405 122.946 367.971 123.318 367.392 123.591C366.813 123.864 366.084 124 365.206 124H360.561ZM362.64 122.263H364.876C365.631 122.263 366.174 122.119 366.507 121.831C366.843 121.54 367.011 121.166 367.011 120.71C367.011 120.37 366.927 120.064 366.759 119.791C366.591 119.515 366.352 119.298 366.041 119.141C365.731 118.981 365.362 118.9 364.932 118.9H362.64V122.263ZM362.64 117.404H364.697C365.055 117.404 365.378 117.339 365.666 117.208C365.954 117.073 366.18 116.885 366.344 116.642C366.512 116.395 366.596 116.104 366.596 115.768C366.596 115.323 366.439 114.957 366.126 114.669C365.815 114.382 365.354 114.238 364.741 114.238H362.64V117.404ZM376.329 120.38V115.392H378.358V124H376.391V122.47H376.301C376.107 122.952 375.787 123.346 375.343 123.653C374.902 123.959 374.358 124.112 373.712 124.112C373.148 124.112 372.649 123.987 372.216 123.737C371.786 123.483 371.45 123.115 371.207 122.633C370.964 122.147 370.843 121.56 370.843 120.873V115.392H372.871V120.559C372.871 121.105 373.021 121.538 373.32 121.859C373.619 122.181 374.011 122.341 374.497 122.341C374.795 122.341 375.085 122.268 375.365 122.123C375.645 121.977 375.875 121.76 376.055 121.473C376.238 121.181 376.329 120.817 376.329 120.38ZM380.444 124V115.392H382.473V124H380.444ZM381.464 114.17C381.143 114.17 380.866 114.064 380.634 113.851C380.403 113.634 380.287 113.375 380.287 113.072C380.287 112.766 380.403 112.506 380.634 112.293C380.866 112.076 381.143 111.968 381.464 111.968C381.789 111.968 382.065 112.076 382.293 112.293C382.525 112.506 382.641 112.766 382.641 113.072C382.641 113.375 382.525 113.634 382.293 113.851C382.065 114.064 381.789 114.17 381.464 114.17ZM386.587 112.523V124H384.559V112.523H386.587ZM391.868 124.151C391.192 124.151 390.586 123.978 390.052 123.63C389.518 123.283 389.096 122.778 388.786 122.117C388.475 121.456 388.32 120.653 388.32 119.707C388.32 118.751 388.477 117.944 388.791 117.286C389.109 116.625 389.536 116.126 390.074 115.79C390.612 115.45 391.212 115.28 391.873 115.28C392.378 115.28 392.792 115.366 393.117 115.538C393.442 115.706 393.7 115.91 393.891 116.149C394.081 116.384 394.229 116.606 394.334 116.816H394.418V112.523H396.452V124H394.457V122.644H394.334C394.229 122.853 394.078 123.075 393.88 123.311C393.682 123.542 393.42 123.74 393.095 123.905C392.77 124.069 392.361 124.151 391.868 124.151ZM392.434 122.487C392.863 122.487 393.23 122.371 393.532 122.139C393.835 121.904 394.065 121.577 394.221 121.159C394.378 120.74 394.457 120.253 394.457 119.696C394.457 119.139 394.378 118.656 394.221 118.245C394.068 117.834 393.84 117.514 393.538 117.286C393.239 117.058 392.871 116.945 392.434 116.945C391.982 116.945 391.604 117.062 391.302 117.298C390.999 117.533 390.771 117.858 390.618 118.273C390.465 118.687 390.388 119.162 390.388 119.696C390.388 120.234 390.465 120.714 390.618 121.136C390.775 121.555 391.005 121.885 391.307 122.128C391.614 122.367 391.989 122.487 392.434 122.487Z" fill="#102B2D"/>
</svg>
