<svg width="784" height="285" viewBox="0 0 784 285" fill="none" xmlns="http://www.w3.org/2000/svg">
<rect width="784" height="285" fill="white"/>
<path d="M71.4009 34.9712C72.2942 37.2392 70.8542 39.7203 68.4404 40.0596C59.5219 41.3135 50.4781 41.3135 41.5596 40.0596C39.1458 39.7203 37.7058 37.2392 38.5991 34.9713C41.992 26.3578 46.5043 18.226 51.9985 10.8407C53.5044 8.81667 56.4956 8.81668 58.0014 10.8407C63.4957 18.226 68.008 26.3578 71.4009 34.9712Z" fill="#F03100"/>
<path d="M56.2433 19.9091L56.0323 29.152H53.9741L53.7695 19.9091H56.2433ZM55.0032 33.1406C54.6154 33.1406 54.283 33.0043 54.006 32.7315C53.7333 32.4588 53.5969 32.1264 53.5969 31.7344C53.5969 31.3509 53.7333 31.0227 54.006 30.75C54.283 30.4773 54.6154 30.3409 55.0032 30.3409C55.3825 30.3409 55.7106 30.4773 55.9876 30.75C56.2688 31.0227 56.4094 31.3509 56.4094 31.7344C56.4094 31.9943 56.3434 32.2308 56.2113 32.4439C56.0835 32.657 55.913 32.8274 55.6999 32.9553C55.4911 33.0788 55.2589 33.1406 55.0032 33.1406Z" fill="white"/>
<path d="M55 44V89" stroke="#F03100" stroke-width="2" stroke-linecap="round" stroke-linejoin="round" stroke-dasharray="0.1 4"/>
<path d="M143.401 34.9712C144.294 37.2392 142.854 39.7203 140.44 40.0596C131.522 41.3135 122.478 41.3135 113.56 40.0596C111.146 39.7203 109.706 37.2392 110.599 34.9713C113.992 26.3578 118.504 18.226 123.999 10.8407C125.504 8.81667 128.496 8.81668 130.001 10.8407C135.496 18.226 140.008 26.3578 143.401 34.9712Z" fill="#F03100"/>
<path d="M128.243 19.9091L128.032 29.152H125.974L125.77 19.9091H128.243ZM127.003 33.1406C126.615 33.1406 126.283 33.0043 126.006 32.7315C125.733 32.4588 125.597 32.1264 125.597 31.7344C125.597 31.3509 125.733 31.0227 126.006 30.75C126.283 30.4773 126.615 30.3409 127.003 30.3409C127.382 30.3409 127.711 30.4773 127.988 30.75C128.269 31.0227 128.409 31.3509 128.409 31.7344C128.409 31.9943 128.343 32.2308 128.211 32.4439C128.083 32.657 127.913 32.8274 127.7 32.9553C127.491 33.0788 127.259 33.1406 127.003 33.1406Z" fill="white"/>
<path d="M127 44V89" stroke="#F03100" stroke-width="2" stroke-linecap="round" stroke-linejoin="round" stroke-dasharray="0.1 4"/>
<path d="M230.401 34.9712C231.294 37.2392 229.854 39.7203 227.44 40.0596C218.522 41.3135 209.478 41.3135 200.56 40.0596C198.146 39.7203 196.706 37.2392 197.599 34.9713C200.992 26.3578 205.504 18.226 210.999 10.8407C212.504 8.81667 215.496 8.81668 217.001 10.8407C222.496 18.226 227.008 26.3578 230.401 34.9712Z" fill="#F03100"/>
<path d="M215.243 19.9091L215.032 29.152H212.974L212.77 19.9091H215.243ZM214.003 33.1406C213.615 33.1406 213.283 33.0043 213.006 32.7315C212.733 32.4588 212.597 32.1264 212.597 31.7344C212.597 31.3509 212.733 31.0227 213.006 30.75C213.283 30.4773 213.615 30.3409 214.003 30.3409C214.382 30.3409 214.711 30.4773 214.988 30.75C215.269 31.0227 215.409 31.3509 215.409 31.7344C215.409 31.9943 215.343 32.2308 215.211 32.4439C215.083 32.657 214.913 32.8274 214.7 32.9553C214.491 33.0788 214.259 33.1406 214.003 33.1406Z" fill="white"/>
<path d="M214 44V64" stroke="#F03100" stroke-width="2" stroke-linecap="round" stroke-linejoin="round" stroke-dasharray="0.1 4"/>
<path d="M326.401 34.9712C327.294 37.2392 325.854 39.7203 323.44 40.0596C314.522 41.3135 305.478 41.3135 296.56 40.0596C294.146 39.7203 292.706 37.2392 293.599 34.9713C296.992 26.3578 301.504 18.226 306.999 10.8407C308.504 8.81667 311.496 8.81668 313.001 10.8407C318.496 18.226 323.008 26.3578 326.401 34.9712Z" fill="#F03100"/>
<path d="M311.243 19.9091L311.032 29.152H308.974L308.77 19.9091H311.243ZM310.003 33.1406C309.615 33.1406 309.283 33.0043 309.006 32.7315C308.733 32.4588 308.597 32.1264 308.597 31.7344C308.597 31.3509 308.733 31.0227 309.006 30.75C309.283 30.4773 309.615 30.3409 310.003 30.3409C310.382 30.3409 310.711 30.4773 310.988 30.75C311.269 31.0227 311.409 31.3509 311.409 31.7344C311.409 31.9943 311.343 32.2308 311.211 32.4439C311.083 32.657 310.913 32.8274 310.7 32.9553C310.491 33.0788 310.259 33.1406 310.003 33.1406Z" fill="white"/>
<path d="M310 44V89" stroke="#F03100" stroke-width="2" stroke-linecap="round" stroke-linejoin="round" stroke-dasharray="0.1 4"/>
<path d="M408.401 34.9712C409.294 37.2392 407.854 39.7203 405.44 40.0596C396.522 41.3135 387.478 41.3135 378.56 40.0596C376.146 39.7203 374.706 37.2392 375.599 34.9713C378.992 26.3578 383.504 18.226 388.999 10.8407C390.504 8.81667 393.496 8.81668 395.001 10.8407C400.496 18.226 405.008 26.3578 408.401 34.9712Z" fill="#F03100"/>
<path d="M393.243 19.9091L393.032 29.152H390.974L390.77 19.9091H393.243ZM392.003 33.1406C391.615 33.1406 391.283 33.0043 391.006 32.7315C390.733 32.4588 390.597 32.1264 390.597 31.7344C390.597 31.3509 390.733 31.0227 391.006 30.75C391.283 30.4773 391.615 30.3409 392.003 30.3409C392.382 30.3409 392.711 30.4773 392.988 30.75C393.269 31.0227 393.409 31.3509 393.409 31.7344C393.409 31.9943 393.343 32.2308 393.211 32.4439C393.083 32.657 392.913 32.8274 392.7 32.9553C392.491 33.0788 392.259 33.1406 392.003 33.1406Z" fill="white"/>
<path d="M392 44V64" stroke="#F03100" stroke-width="2" stroke-linecap="round" stroke-linejoin="round" stroke-dasharray="0.1 4"/>
<path d="M490.401 34.9712C491.294 37.2392 489.854 39.7203 487.44 40.0596C478.522 41.3135 469.478 41.3135 460.56 40.0596C458.146 39.7203 456.706 37.2392 457.599 34.9713C460.992 26.3578 465.504 18.226 470.999 10.8407C472.504 8.81667 475.496 8.81668 477.001 10.8407C482.496 18.226 487.008 26.3578 490.401 34.9712Z" fill="#F03100"/>
<path d="M475.243 19.9091L475.032 29.152H472.974L472.77 19.9091H475.243ZM474.003 33.1406C473.615 33.1406 473.283 33.0043 473.006 32.7315C472.733 32.4588 472.597 32.1264 472.597 31.7344C472.597 31.3509 472.733 31.0227 473.006 30.75C473.283 30.4773 473.615 30.3409 474.003 30.3409C474.382 30.3409 474.711 30.4773 474.988 30.75C475.269 31.0227 475.409 31.3509 475.409 31.7344C475.409 31.9943 475.343 32.2308 475.211 32.4439C475.083 32.657 474.913 32.8274 474.7 32.9553C474.491 33.0788 474.259 33.1406 474.003 33.1406Z" fill="white"/>
<path d="M474 44V89" stroke="#F03100" stroke-width="2" stroke-linecap="round" stroke-linejoin="round" stroke-dasharray="0.1 4"/>
<path d="M586.401 34.9712C587.294 37.2392 585.854 39.7203 583.44 40.0596C574.522 41.3135 565.478 41.3135 556.56 40.0596C554.146 39.7203 552.706 37.2392 553.599 34.9713C556.992 26.3578 561.504 18.226 566.999 10.8407C568.504 8.81667 571.496 8.81668 573.001 10.8407C578.496 18.226 583.008 26.3578 586.401 34.9712Z" fill="#F03100"/>
<path d="M571.243 19.9091L571.032 29.152H568.974L568.77 19.9091H571.243ZM570.003 33.1406C569.615 33.1406 569.283 33.0043 569.006 32.7315C568.733 32.4588 568.597 32.1264 568.597 31.7344C568.597 31.3509 568.733 31.0227 569.006 30.75C569.283 30.4773 569.615 30.3409 570.003 30.3409C570.382 30.3409 570.711 30.4773 570.988 30.75C571.269 31.0227 571.409 31.3509 571.409 31.7344C571.409 31.9943 571.343 32.2308 571.211 32.4439C571.083 32.657 570.913 32.8274 570.7 32.9553C570.491 33.0788 570.259 33.1406 570.003 33.1406Z" fill="white"/>
<path d="M570 44V64" stroke="#F03100" stroke-width="2" stroke-linecap="round" stroke-linejoin="round" stroke-dasharray="0.1 4"/>
<path d="M673.401 34.9712C674.294 37.2392 672.854 39.7203 670.44 40.0596C661.522 41.3135 652.478 41.3135 643.56 40.0596C641.146 39.7203 639.706 37.2392 640.599 34.9713C643.992 26.3578 648.504 18.226 653.999 10.8407C655.504 8.81667 658.496 8.81668 660.001 10.8407C665.496 18.226 670.008 26.3578 673.401 34.9712Z" fill="#F03100"/>
<path d="M658.243 19.9091L658.032 29.152H655.974L655.77 19.9091H658.243ZM657.003 33.1406C656.615 33.1406 656.283 33.0043 656.006 32.7315C655.733 32.4588 655.597 32.1264 655.597 31.7344C655.597 31.3509 655.733 31.0227 656.006 30.75C656.283 30.4773 656.615 30.3409 657.003 30.3409C657.382 30.3409 657.711 30.4773 657.988 30.75C658.269 31.0227 658.409 31.3509 658.409 31.7344C658.409 31.9943 658.343 32.2308 658.211 32.4439C658.083 32.657 657.913 32.8274 657.7 32.9553C657.491 33.0788 657.259 33.1406 657.003 33.1406Z" fill="white"/>
<path d="M657 44V89" stroke="#F03100" stroke-width="2" stroke-linecap="round" stroke-linejoin="round" stroke-dasharray="0.1 4"/>
<path d="M745.401 34.9712C746.294 37.2392 744.854 39.7203 742.44 40.0596C733.522 41.3135 724.478 41.3135 715.56 40.0596C713.146 39.7203 711.706 37.2392 712.599 34.9713C715.992 26.3578 720.504 18.226 725.999 10.8407C727.504 8.81667 730.496 8.81668 732.001 10.8407C737.496 18.226 742.008 26.3578 745.401 34.9712Z" fill="#F03100"/>
<path d="M730.243 19.9091L730.032 29.152H727.974L727.77 19.9091H730.243ZM729.003 33.1406C728.615 33.1406 728.283 33.0043 728.006 32.7315C727.733 32.4588 727.597 32.1264 727.597 31.7344C727.597 31.3509 727.733 31.0227 728.006 30.75C728.283 30.4773 728.615 30.3409 729.003 30.3409C729.382 30.3409 729.711 30.4773 729.988 30.75C730.269 31.0227 730.409 31.3509 730.409 31.7344C730.409 31.9943 730.343 32.2308 730.211 32.4439C730.083 32.657 729.913 32.8274 729.7 32.9553C729.491 33.0788 729.259 33.1406 729.003 33.1406Z" fill="white"/>
<path d="M729 44V89" stroke="#F03100" stroke-width="2" stroke-linecap="round" stroke-linejoin="round" stroke-dasharray="0.1 4"/>
<path d="M21.3565 112.5V100.864H25.5043C26.4096 100.864 27.1596 101.028 27.7543 101.358C28.349 101.687 28.794 102.138 29.0895 102.71C29.3849 103.278 29.5327 103.919 29.5327 104.631C29.5327 105.347 29.383 105.991 29.0838 106.562C28.7884 107.131 28.3414 107.581 27.7429 107.915C27.1482 108.244 26.4001 108.409 25.4986 108.409H22.6463V106.92H25.3395C25.9115 106.92 26.3755 106.822 26.7315 106.625C27.0876 106.424 27.349 106.152 27.5156 105.807C27.6823 105.462 27.7656 105.07 27.7656 104.631C27.7656 104.191 27.6823 103.801 27.5156 103.46C27.349 103.119 27.0857 102.852 26.7259 102.659C26.3698 102.466 25.9001 102.369 25.3168 102.369H23.1122V112.5H21.3565ZM31.4545 112.5V103.773H33.0966V105.159H33.1875C33.3466 104.689 33.6269 104.32 34.0284 104.051C34.4337 103.778 34.892 103.642 35.4034 103.642C35.5095 103.642 35.6345 103.646 35.7784 103.653C35.9261 103.661 36.0417 103.67 36.125 103.682V105.307C36.0568 105.288 35.9356 105.267 35.7614 105.244C35.5871 105.218 35.4129 105.205 35.2386 105.205C34.8371 105.205 34.4792 105.29 34.1648 105.46C33.8542 105.627 33.608 105.86 33.4261 106.159C33.2443 106.455 33.1534 106.792 33.1534 107.17V112.5H31.4545ZM40.9588 112.676C40.1406 112.676 39.4266 112.489 38.8168 112.114C38.2069 111.739 37.7334 111.214 37.3963 110.54C37.0592 109.866 36.8906 109.078 36.8906 108.176C36.8906 107.271 37.0592 106.479 37.3963 105.801C37.7334 105.123 38.2069 104.597 38.8168 104.222C39.4266 103.847 40.1406 103.659 40.9588 103.659C41.777 103.659 42.491 103.847 43.1009 104.222C43.7107 104.597 44.1842 105.123 44.5213 105.801C44.8584 106.479 45.027 107.271 45.027 108.176C45.027 109.078 44.8584 109.866 44.5213 110.54C44.1842 111.214 43.7107 111.739 43.1009 112.114C42.491 112.489 41.777 112.676 40.9588 112.676ZM40.9645 111.25C41.4948 111.25 41.9342 111.11 42.2827 110.83C42.6312 110.549 42.8887 110.176 43.0554 109.71C43.2259 109.244 43.3111 108.731 43.3111 108.17C43.3111 107.614 43.2259 107.102 43.0554 106.636C42.8887 106.167 42.6312 105.79 42.2827 105.506C41.9342 105.222 41.4948 105.08 40.9645 105.08C40.4304 105.08 39.9872 105.222 39.6349 105.506C39.2865 105.79 39.027 106.167 38.8565 106.636C38.6899 107.102 38.6065 107.614 38.6065 108.17C38.6065 108.731 38.6899 109.244 38.8565 109.71C39.027 110.176 39.2865 110.549 39.6349 110.83C39.9872 111.11 40.4304 111.25 40.9645 111.25ZM50.1903 112.67C49.4858 112.67 48.857 112.491 48.304 112.131C47.7547 111.767 47.3229 111.25 47.0085 110.58C46.6979 109.905 46.5426 109.097 46.5426 108.153C46.5426 107.21 46.6998 106.403 47.0142 105.733C47.3324 105.062 47.768 104.549 48.321 104.193C48.8741 103.837 49.5009 103.659 50.2017 103.659C50.7434 103.659 51.179 103.75 51.5085 103.932C51.8419 104.11 52.0994 104.318 52.2812 104.557C52.4669 104.795 52.6108 105.006 52.7131 105.188H52.8153V100.864H54.5142V112.5H52.8551V111.142H52.7131C52.6108 111.328 52.4631 111.54 52.2699 111.778C52.0805 112.017 51.8191 112.225 51.4858 112.403C51.1525 112.581 50.7206 112.67 50.1903 112.67ZM50.5653 111.222C51.054 111.222 51.4669 111.093 51.804 110.835C52.1449 110.574 52.4025 110.212 52.5767 109.75C52.7547 109.288 52.8438 108.75 52.8438 108.136C52.8438 107.53 52.7566 107 52.5824 106.545C52.4081 106.091 52.1525 105.737 51.8153 105.483C51.4782 105.229 51.0616 105.102 50.5653 105.102C50.054 105.102 49.6278 105.235 49.2869 105.5C48.946 105.765 48.6884 106.127 48.5142 106.585C48.3438 107.044 48.2585 107.561 48.2585 108.136C48.2585 108.72 48.3456 109.244 48.5199 109.71C48.6941 110.176 48.9517 110.545 49.2926 110.818C49.6373 111.087 50.0616 111.222 50.5653 111.222ZM62.4673 108.881V103.773H64.1719V112.5H62.5014V110.989H62.4105C62.2098 111.455 61.8878 111.843 61.4446 112.153C61.0052 112.46 60.4579 112.614 59.8026 112.614C59.242 112.614 58.7457 112.491 58.3139 112.244C57.8859 111.994 57.5488 111.625 57.3026 111.136C57.0601 110.648 56.9389 110.044 56.9389 109.324V103.773H58.6378V109.119C58.6378 109.714 58.8026 110.187 59.1321 110.54C59.4616 110.892 59.8897 111.068 60.4162 111.068C60.7344 111.068 61.0507 110.989 61.3651 110.83C61.6832 110.67 61.9465 110.43 62.1548 110.108C62.367 109.786 62.4711 109.377 62.4673 108.881ZM70.1307 112.676C69.286 112.676 68.5587 112.485 67.9489 112.102C67.3428 111.716 66.8769 111.184 66.5511 110.506C66.2254 109.828 66.0625 109.051 66.0625 108.176C66.0625 107.29 66.2292 106.508 66.5625 105.83C66.8958 105.148 67.3655 104.616 67.9716 104.233C68.5777 103.85 69.2917 103.659 70.1136 103.659C70.7765 103.659 71.3674 103.782 71.8864 104.028C72.4053 104.271 72.8239 104.612 73.142 105.051C73.464 105.491 73.6553 106.004 73.7159 106.591H72.0625C71.9716 106.182 71.7633 105.83 71.4375 105.534C71.1155 105.239 70.6837 105.091 70.142 105.091C69.6686 105.091 69.2538 105.216 68.8977 105.466C68.5455 105.712 68.2708 106.064 68.0739 106.523C67.8769 106.977 67.7784 107.515 67.7784 108.136C67.7784 108.773 67.875 109.322 68.0682 109.784C68.2614 110.246 68.5341 110.604 68.8864 110.858C69.2424 111.112 69.661 111.239 70.142 111.239C70.464 111.239 70.7557 111.18 71.017 111.062C71.2822 110.941 71.5038 110.769 71.6818 110.545C71.8636 110.322 71.9905 110.053 72.0625 109.739H73.7159C73.6553 110.303 73.4716 110.807 73.1648 111.25C72.858 111.693 72.447 112.042 71.9318 112.295C71.4205 112.549 70.8201 112.676 70.1307 112.676ZM79.294 112.676C78.4342 112.676 77.6937 112.492 77.0724 112.125C76.455 111.754 75.9777 111.233 75.6406 110.562C75.3073 109.888 75.1406 109.098 75.1406 108.193C75.1406 107.299 75.3073 106.511 75.6406 105.83C75.9777 105.148 76.4474 104.616 77.0497 104.233C77.6558 103.85 78.3641 103.659 79.1747 103.659C79.6671 103.659 80.1444 103.741 80.6065 103.903C81.0687 104.066 81.4834 104.322 81.8509 104.67C82.2183 105.019 82.508 105.472 82.7202 106.028C82.9323 106.581 83.0384 107.254 83.0384 108.045V108.648H76.1009V107.375H81.3736C81.3736 106.928 81.2827 106.532 81.1009 106.188C80.919 105.839 80.6634 105.564 80.3338 105.364C80.008 105.163 79.6255 105.062 79.1861 105.062C78.7088 105.062 78.2921 105.18 77.9361 105.415C77.5838 105.646 77.3111 105.949 77.1179 106.324C76.9285 106.695 76.8338 107.098 76.8338 107.534V108.528C76.8338 109.112 76.9361 109.608 77.1406 110.017C77.349 110.426 77.6387 110.739 78.0099 110.955C78.3812 111.167 78.8149 111.273 79.3111 111.273C79.633 111.273 79.9266 111.227 80.1918 111.136C80.4569 111.042 80.6861 110.902 80.8793 110.716C81.0724 110.53 81.2202 110.301 81.3224 110.028L82.9304 110.318C82.8016 110.792 82.5705 111.206 82.2372 111.562C81.9077 111.915 81.4929 112.189 80.9929 112.386C80.4967 112.58 79.9304 112.676 79.294 112.676ZM84.9233 112.5V103.773H86.5653V105.159H86.6562C86.8153 104.689 87.0956 104.32 87.4972 104.051C87.9025 103.778 88.3608 103.642 88.8722 103.642C88.9782 103.642 89.1032 103.646 89.2472 103.653C89.3949 103.661 89.5104 103.67 89.5938 103.682V105.307C89.5256 105.288 89.4044 105.267 89.2301 105.244C89.0559 105.218 88.8816 105.205 88.7074 105.205C88.3059 105.205 87.9479 105.29 87.6335 105.46C87.3229 105.627 87.0767 105.86 86.8949 106.159C86.7131 106.455 86.6222 106.792 86.6222 107.17V112.5H84.9233Z" fill="#102B2D"/>
<path d="M104 107L150 107" stroke="#58DA95" stroke-linejoin="round"/>
<path d="M125 101L131 107L125 113" stroke="#58DA95" stroke-linecap="square" stroke-linejoin="round"/>
<rect x="155" y="70" width="118" height="74" rx="7" stroke="#58DA95" stroke-width="2"/>
<path d="M194.19 105.062C194.137 104.566 193.914 104.18 193.52 103.903C193.13 103.627 192.622 103.489 191.997 103.489C191.558 103.489 191.181 103.555 190.866 103.688C190.552 103.82 190.312 104 190.145 104.227C189.978 104.455 189.893 104.714 189.889 105.006C189.889 105.248 189.944 105.458 190.054 105.636C190.168 105.814 190.321 105.966 190.514 106.091C190.707 106.212 190.921 106.314 191.156 106.398C191.391 106.481 191.628 106.551 191.866 106.608L192.957 106.881C193.397 106.983 193.819 107.121 194.224 107.295C194.634 107.47 194.999 107.689 195.321 107.955C195.647 108.22 195.904 108.54 196.094 108.915C196.283 109.29 196.378 109.729 196.378 110.233C196.378 110.915 196.204 111.515 195.855 112.034C195.507 112.549 195.003 112.953 194.344 113.244C193.688 113.532 192.895 113.676 191.963 113.676C191.058 113.676 190.272 113.536 189.605 113.256C188.942 112.975 188.423 112.566 188.048 112.028C187.677 111.491 187.476 110.835 187.446 110.062H189.52C189.55 110.468 189.675 110.805 189.895 111.074C190.115 111.343 190.401 111.544 190.753 111.676C191.109 111.809 191.507 111.875 191.946 111.875C192.404 111.875 192.806 111.807 193.151 111.67C193.499 111.53 193.772 111.337 193.969 111.091C194.166 110.841 194.266 110.549 194.27 110.216C194.266 109.913 194.177 109.663 194.003 109.466C193.829 109.265 193.584 109.098 193.27 108.966C192.959 108.83 192.596 108.708 192.179 108.602L190.855 108.261C189.897 108.015 189.139 107.642 188.582 107.142C188.029 106.638 187.753 105.97 187.753 105.136C187.753 104.451 187.938 103.85 188.31 103.335C188.685 102.82 189.194 102.42 189.838 102.136C190.482 101.848 191.211 101.705 192.026 101.705C192.851 101.705 193.575 101.848 194.196 102.136C194.821 102.42 195.312 102.816 195.668 103.324C196.024 103.828 196.207 104.407 196.219 105.062H194.19ZM201.973 113.67C201.121 113.67 200.382 113.483 199.757 113.108C199.132 112.733 198.647 112.208 198.303 111.534C197.962 110.86 197.791 110.072 197.791 109.17C197.791 108.269 197.962 107.479 198.303 106.801C198.647 106.123 199.132 105.597 199.757 105.222C200.382 104.847 201.121 104.659 201.973 104.659C202.825 104.659 203.564 104.847 204.189 105.222C204.814 105.597 205.297 106.123 205.638 106.801C205.982 107.479 206.155 108.269 206.155 109.17C206.155 110.072 205.982 110.86 205.638 111.534C205.297 112.208 204.814 112.733 204.189 113.108C203.564 113.483 202.825 113.67 201.973 113.67ZM201.984 112.023C202.446 112.023 202.833 111.896 203.143 111.642C203.454 111.384 203.685 111.04 203.837 110.608C203.992 110.176 204.07 109.695 204.07 109.165C204.07 108.631 203.992 108.148 203.837 107.716C203.685 107.28 203.454 106.934 203.143 106.676C202.833 106.419 202.446 106.29 201.984 106.29C201.511 106.29 201.117 106.419 200.803 106.676C200.492 106.934 200.259 107.28 200.104 107.716C199.952 108.148 199.876 108.631 199.876 109.165C199.876 109.695 199.952 110.176 200.104 110.608C200.259 111.04 200.492 111.384 200.803 111.642C201.117 111.896 201.511 112.023 201.984 112.023ZM213.463 109.83V104.773H215.52V113.5H213.526V111.949H213.435C213.238 112.437 212.914 112.837 212.463 113.148C212.016 113.458 211.465 113.614 210.81 113.614C210.238 113.614 209.732 113.487 209.293 113.233C208.857 112.975 208.516 112.602 208.27 112.114C208.024 111.621 207.901 111.027 207.901 110.33V104.773H209.957V110.011C209.957 110.564 210.109 111.004 210.412 111.33C210.715 111.655 211.113 111.818 211.605 111.818C211.908 111.818 212.202 111.744 212.486 111.597C212.77 111.449 213.003 111.229 213.185 110.938C213.37 110.642 213.463 110.273 213.463 109.83ZM217.635 113.5V104.773H219.629V106.227H219.72C219.879 105.723 220.152 105.335 220.538 105.062C220.929 104.786 221.374 104.648 221.874 104.648C221.987 104.648 222.114 104.653 222.254 104.665C222.398 104.672 222.518 104.686 222.612 104.705V106.597C222.525 106.566 222.387 106.54 222.197 106.517C222.012 106.491 221.832 106.477 221.658 106.477C221.283 106.477 220.946 106.559 220.646 106.722C220.351 106.881 220.118 107.102 219.947 107.386C219.777 107.67 219.692 107.998 219.692 108.369V113.5H217.635ZM227.426 113.67C226.555 113.67 225.807 113.479 225.182 113.097C224.561 112.714 224.081 112.186 223.744 111.511C223.411 110.833 223.244 110.053 223.244 109.17C223.244 108.284 223.415 107.502 223.756 106.824C224.097 106.142 224.578 105.612 225.199 105.233C225.824 104.85 226.563 104.659 227.415 104.659C228.123 104.659 228.75 104.79 229.295 105.051C229.845 105.309 230.282 105.674 230.608 106.148C230.934 106.617 231.119 107.167 231.165 107.795H229.199C229.119 107.375 228.93 107.025 228.631 106.744C228.335 106.46 227.939 106.318 227.443 106.318C227.023 106.318 226.653 106.432 226.335 106.659C226.017 106.883 225.769 107.205 225.591 107.625C225.417 108.045 225.33 108.549 225.33 109.136C225.33 109.731 225.417 110.242 225.591 110.67C225.765 111.095 226.009 111.422 226.324 111.653C226.642 111.881 227.015 111.994 227.443 111.994C227.746 111.994 228.017 111.937 228.256 111.824C228.498 111.706 228.701 111.538 228.864 111.318C229.027 111.098 229.138 110.831 229.199 110.517H231.165C231.116 111.134 230.934 111.682 230.619 112.159C230.305 112.633 229.877 113.004 229.335 113.273C228.794 113.538 228.157 113.67 227.426 113.67ZM236.717 113.67C235.842 113.67 235.087 113.489 234.45 113.125C233.818 112.758 233.331 112.239 232.99 111.568C232.649 110.894 232.479 110.1 232.479 109.188C232.479 108.29 232.649 107.502 232.99 106.824C233.335 106.142 233.816 105.612 234.433 105.233C235.051 104.85 235.776 104.659 236.609 104.659C237.147 104.659 237.655 104.746 238.132 104.92C238.613 105.091 239.037 105.356 239.405 105.716C239.776 106.076 240.068 106.534 240.28 107.091C240.492 107.644 240.598 108.303 240.598 109.068V109.699H233.445V108.312H238.626C238.623 107.919 238.537 107.568 238.371 107.261C238.204 106.951 237.971 106.706 237.672 106.528C237.376 106.35 237.032 106.261 236.638 106.261C236.217 106.261 235.848 106.364 235.53 106.568C235.212 106.769 234.964 107.034 234.786 107.364C234.611 107.689 234.522 108.047 234.518 108.438V109.648C234.518 110.155 234.611 110.591 234.797 110.955C234.982 111.314 235.242 111.591 235.575 111.784C235.909 111.973 236.299 112.068 236.746 112.068C237.045 112.068 237.316 112.027 237.558 111.943C237.801 111.856 238.011 111.729 238.189 111.562C238.367 111.396 238.501 111.189 238.592 110.943L240.513 111.159C240.392 111.667 240.161 112.11 239.82 112.489C239.482 112.864 239.051 113.155 238.524 113.364C237.998 113.568 237.395 113.67 236.717 113.67Z" fill="#102B2D"/>
<path d="M278 107L342 107" stroke="#58DA95" stroke-linejoin="round"/>
<path d="M308 101L314 107L308 113" stroke="#58DA95" stroke-linecap="square" stroke-linejoin="round"/>
<mask id="path-35-inside-1_2_14" fill="white">
<path fill-rule="evenodd" clip-rule="evenodd" d="M346.345 109.071C351.164 122.828 359.776 134.884 371.149 143.798C372.234 144.648 373.575 145.082 374.944 145.082H408.643H409.643V145.004C410.655 144.844 411.619 144.44 412.438 143.798C423.811 134.884 432.423 122.828 437.242 109.071C437.702 107.758 437.702 106.324 437.242 105.012C432.423 91.2547 423.811 79.1981 412.438 70.2845C411.619 69.6428 410.655 69.2382 409.643 69.0782V69H408.643H374.944C373.575 69 372.234 69.4341 371.149 70.2845C359.776 79.1981 351.164 91.2547 346.345 105.012C345.885 106.324 345.885 107.758 346.345 109.071Z"/>
</mask>
<path d="M371.149 143.798L372.383 142.224L372.383 142.224L371.149 143.798ZM346.345 109.071L348.232 108.409V108.409L346.345 109.071ZM409.643 145.082V147.082H411.643V145.082H409.643ZM409.643 145.004L409.33 143.029L407.643 143.295V145.004H409.643ZM412.438 143.798L411.204 142.224V142.224L412.438 143.798ZM437.242 109.071L435.355 108.409V108.409L437.242 109.071ZM437.242 105.012L435.355 105.673V105.673L437.242 105.012ZM412.438 70.2845L413.671 68.7103V68.7103L412.438 70.2845ZM409.643 69.0782H407.643V70.787L409.33 71.0537L409.643 69.0782ZM409.643 69H411.643V67H409.643V69ZM371.149 70.2845L372.383 71.8586V71.8586L371.149 70.2845ZM346.345 105.012L348.232 105.673L348.232 105.673L346.345 105.012ZM372.383 142.224C361.313 133.548 352.927 121.809 348.232 108.409L344.457 109.732C349.402 123.846 358.239 136.221 369.916 145.372L372.383 142.224ZM374.944 143.082C373.995 143.082 373.095 142.782 372.383 142.224L369.916 145.372C371.373 146.514 373.154 147.082 374.944 147.082V143.082ZM408.643 143.082H374.944V147.082H408.643V143.082ZM409.643 143.082H408.643V147.082H409.643V143.082ZM407.643 145.004V145.082H411.643V145.004H407.643ZM409.955 146.98C411.287 146.769 412.572 146.234 413.671 145.372L411.204 142.224C410.666 142.645 410.023 142.919 409.33 143.029L409.955 146.98ZM413.671 145.372C425.348 136.221 434.185 123.846 439.13 109.732L435.355 108.409C430.66 121.809 422.274 133.548 411.204 142.224L413.671 145.372ZM439.13 109.732C439.739 107.991 439.739 106.091 439.13 104.35L435.355 105.673C435.664 106.557 435.664 107.525 435.355 108.409L439.13 109.732ZM439.13 104.35C434.185 90.2363 425.348 77.8618 413.671 68.7103L411.204 71.8586C422.274 80.5344 430.66 92.2731 435.355 105.673L439.13 104.35ZM413.671 68.7103C412.572 67.8488 411.287 67.3133 409.955 67.1027L409.33 71.0537C410.023 71.1631 410.666 71.4369 411.204 71.8586L413.671 68.7103ZM407.643 69V69.0782H411.643V69H407.643ZM408.643 71H409.643V67H408.643V71ZM374.944 71H408.643V67H374.944V71ZM372.383 71.8586C373.095 71.3004 373.995 71 374.944 71V67C373.154 67 371.373 67.5679 369.916 68.7103L372.383 71.8586ZM348.232 105.673C352.927 92.2731 361.313 80.5344 372.383 71.8586L369.916 68.7103C358.239 77.8618 349.402 90.2363 344.457 104.35L348.232 105.673ZM348.232 108.409C347.923 107.525 347.923 106.557 348.232 105.673L344.457 104.35C343.848 106.091 343.848 107.991 344.457 109.732L348.232 108.409Z" fill="#58DA95" mask="url(#path-35-inside-1_2_14)"/>
<path d="M374.312 114V102.364H378.766C379.607 102.364 380.306 102.496 380.863 102.761C381.424 103.023 381.842 103.381 382.119 103.835C382.399 104.29 382.539 104.805 382.539 105.381C382.539 105.854 382.448 106.259 382.266 106.597C382.085 106.93 381.84 107.201 381.533 107.409C381.227 107.617 380.884 107.767 380.505 107.858V107.972C380.918 107.994 381.314 108.121 381.692 108.352C382.075 108.58 382.388 108.902 382.63 109.318C382.872 109.735 382.994 110.239 382.994 110.83C382.994 111.432 382.848 111.973 382.556 112.455C382.264 112.932 381.825 113.309 381.238 113.585C380.651 113.862 379.912 114 379.022 114H374.312ZM376.42 112.239H378.687C379.452 112.239 380.003 112.093 380.34 111.801C380.681 111.506 380.852 111.127 380.852 110.665C380.852 110.32 380.766 110.009 380.596 109.733C380.425 109.453 380.183 109.233 379.869 109.074C379.554 108.911 379.179 108.83 378.744 108.83H376.42V112.239ZM376.42 107.312H378.505C378.869 107.312 379.196 107.246 379.488 107.114C379.78 106.977 380.009 106.786 380.175 106.54C380.346 106.29 380.431 105.994 380.431 105.653C380.431 105.203 380.272 104.831 379.954 104.54C379.639 104.248 379.172 104.102 378.55 104.102H376.42V107.312ZM390.299 110.33V105.273H392.356V114H390.362V112.449H390.271C390.074 112.937 389.75 113.337 389.299 113.648C388.852 113.958 388.301 114.114 387.646 114.114C387.074 114.114 386.568 113.987 386.129 113.733C385.693 113.475 385.352 113.102 385.106 112.614C384.86 112.121 384.737 111.527 384.737 110.83V105.273H386.793V110.511C386.793 111.064 386.945 111.504 387.248 111.83C387.551 112.155 387.949 112.318 388.441 112.318C388.744 112.318 389.038 112.244 389.322 112.097C389.606 111.949 389.839 111.729 390.021 111.438C390.206 111.142 390.299 110.773 390.299 110.33ZM394.471 114V105.273H396.528V114H394.471ZM395.505 104.034C395.179 104.034 394.899 103.926 394.664 103.71C394.429 103.491 394.312 103.227 394.312 102.92C394.312 102.61 394.429 102.347 394.664 102.131C394.899 101.911 395.179 101.801 395.505 101.801C395.835 101.801 396.115 101.911 396.346 102.131C396.581 102.347 396.698 102.61 396.698 102.92C396.698 103.227 396.581 103.491 396.346 103.71C396.115 103.926 395.835 104.034 395.505 104.034ZM400.7 102.364V114H398.643V102.364H400.7ZM406.053 114.153C405.368 114.153 404.754 113.977 404.212 113.625C403.671 113.273 403.243 112.761 402.928 112.091C402.614 111.42 402.457 110.606 402.457 109.648C402.457 108.678 402.616 107.86 402.934 107.193C403.256 106.523 403.69 106.017 404.235 105.676C404.781 105.331 405.388 105.159 406.059 105.159C406.57 105.159 406.991 105.246 407.32 105.42C407.65 105.591 407.911 105.797 408.104 106.04C408.298 106.278 408.447 106.504 408.553 106.716H408.638V102.364H410.701V114H408.678V112.625H408.553C408.447 112.837 408.294 113.062 408.093 113.301C407.892 113.536 407.627 113.737 407.298 113.903C406.968 114.07 406.553 114.153 406.053 114.153ZM406.627 112.466C407.063 112.466 407.434 112.348 407.741 112.114C408.048 111.875 408.281 111.544 408.44 111.119C408.599 110.695 408.678 110.201 408.678 109.636C408.678 109.072 408.599 108.581 408.44 108.165C408.284 107.748 408.053 107.424 407.746 107.193C407.443 106.962 407.07 106.847 406.627 106.847C406.169 106.847 405.786 106.966 405.479 107.205C405.173 107.443 404.942 107.773 404.786 108.193C404.631 108.614 404.553 109.095 404.553 109.636C404.553 110.182 404.631 110.669 404.786 111.097C404.945 111.521 405.178 111.856 405.485 112.102C405.796 112.345 406.176 112.466 406.627 112.466Z" fill="#102B2D"/>
<path d="M442 107L506 107" stroke="#58DA95" stroke-linejoin="round"/>
<path d="M472 101L478 107L472 113" stroke="#58DA95" stroke-linecap="square" stroke-linejoin="round"/>
<rect x="511" y="70" width="118" height="74" rx="7" stroke="#58DA95" stroke-width="2"/>
<path d="M529.747 113.5H525.804V101.864H529.827C530.982 101.864 531.974 102.097 532.804 102.562C533.637 103.025 534.277 103.689 534.724 104.557C535.171 105.424 535.395 106.462 535.395 107.67C535.395 108.883 535.17 109.924 534.719 110.795C534.272 111.667 533.626 112.335 532.781 112.801C531.94 113.267 530.929 113.5 529.747 113.5ZM527.912 111.676H529.645C530.455 111.676 531.132 111.528 531.673 111.233C532.215 110.934 532.622 110.489 532.895 109.898C533.168 109.303 533.304 108.561 533.304 107.67C533.304 106.78 533.168 106.042 532.895 105.455C532.622 104.864 532.219 104.422 531.685 104.131C531.154 103.835 530.495 103.688 529.707 103.688H527.912V111.676ZM537.307 113.5V104.773H539.364V113.5H537.307ZM538.341 103.534C538.015 103.534 537.735 103.426 537.5 103.21C537.265 102.991 537.148 102.727 537.148 102.42C537.148 102.11 537.265 101.847 537.5 101.631C537.735 101.411 538.015 101.301 538.341 101.301C538.67 101.301 538.951 101.411 539.182 101.631C539.417 101.847 539.534 102.11 539.534 102.42C539.534 102.727 539.417 102.991 539.182 103.21C538.951 103.426 538.67 103.534 538.341 103.534ZM548.376 107.08L546.501 107.284C546.448 107.095 546.356 106.917 546.223 106.75C546.094 106.583 545.92 106.449 545.7 106.347C545.481 106.244 545.212 106.193 544.893 106.193C544.465 106.193 544.106 106.286 543.814 106.472C543.526 106.657 543.384 106.898 543.388 107.193C543.384 107.447 543.477 107.653 543.666 107.812C543.859 107.972 544.178 108.102 544.621 108.205L546.109 108.523C546.935 108.701 547.549 108.983 547.95 109.369C548.356 109.756 548.56 110.261 548.564 110.886C548.56 111.436 548.399 111.92 548.081 112.341C547.767 112.758 547.329 113.083 546.768 113.318C546.208 113.553 545.564 113.67 544.837 113.67C543.768 113.67 542.909 113.447 542.257 113C541.606 112.549 541.217 111.922 541.092 111.119L543.098 110.926C543.189 111.32 543.382 111.617 543.678 111.818C543.973 112.019 544.357 112.119 544.831 112.119C545.32 112.119 545.712 112.019 546.007 111.818C546.306 111.617 546.456 111.369 546.456 111.074C546.456 110.824 546.359 110.617 546.166 110.455C545.977 110.292 545.681 110.167 545.28 110.08L543.791 109.767C542.954 109.593 542.335 109.299 541.933 108.886C541.532 108.47 541.333 107.943 541.337 107.307C541.333 106.769 541.479 106.303 541.774 105.909C542.073 105.511 542.488 105.205 543.018 104.989C543.553 104.769 544.168 104.659 544.865 104.659C545.888 104.659 546.693 104.877 547.28 105.312C547.871 105.748 548.236 106.337 548.376 107.08ZM554.618 104.773V106.364H549.601V104.773H554.618ZM550.839 102.682H552.896V110.875C552.896 111.152 552.938 111.364 553.021 111.511C553.108 111.655 553.222 111.754 553.362 111.807C553.502 111.86 553.658 111.886 553.828 111.886C553.957 111.886 554.074 111.877 554.18 111.858C554.29 111.839 554.374 111.822 554.43 111.807L554.777 113.415C554.667 113.453 554.51 113.494 554.305 113.54C554.105 113.585 553.858 113.612 553.567 113.619C553.052 113.634 552.588 113.557 552.175 113.386C551.762 113.212 551.434 112.943 551.192 112.58C550.953 112.216 550.836 111.761 550.839 111.216V102.682ZM556.338 113.5V104.773H558.332V106.227H558.423C558.582 105.723 558.855 105.335 559.241 105.062C559.632 104.786 560.077 104.648 560.577 104.648C560.69 104.648 560.817 104.653 560.957 104.665C561.101 104.672 561.221 104.686 561.315 104.705V106.597C561.228 106.566 561.09 106.54 560.901 106.517C560.715 106.491 560.535 106.477 560.361 106.477C559.986 106.477 559.649 106.559 559.349 106.722C559.054 106.881 558.821 107.102 558.651 107.386C558.48 107.67 558.395 107.998 558.395 108.369V113.5H556.338ZM562.682 113.5V104.773H564.739V113.5H562.682ZM563.716 103.534C563.39 103.534 563.11 103.426 562.875 103.21C562.64 102.991 562.523 102.727 562.523 102.42C562.523 102.11 562.64 101.847 562.875 101.631C563.11 101.411 563.39 101.301 563.716 101.301C564.045 101.301 564.326 101.411 564.557 101.631C564.792 101.847 564.909 102.11 564.909 102.42C564.909 102.727 564.792 102.991 564.557 103.21C564.326 103.426 564.045 103.534 563.716 103.534ZM566.945 113.5V101.864H569.001V106.216H569.087C569.193 106.004 569.342 105.778 569.536 105.54C569.729 105.297 569.99 105.091 570.32 104.92C570.649 104.746 571.07 104.659 571.581 104.659C572.255 104.659 572.863 104.831 573.405 105.176C573.95 105.517 574.382 106.023 574.7 106.693C575.022 107.36 575.183 108.178 575.183 109.148C575.183 110.106 575.026 110.92 574.712 111.591C574.397 112.261 573.969 112.773 573.428 113.125C572.886 113.477 572.272 113.653 571.587 113.653C571.087 113.653 570.672 113.57 570.342 113.403C570.013 113.237 569.748 113.036 569.547 112.801C569.35 112.562 569.196 112.337 569.087 112.125H568.967V113.5H566.945ZM568.962 109.136C568.962 109.701 569.041 110.195 569.2 110.619C569.363 111.044 569.596 111.375 569.899 111.614C570.206 111.848 570.577 111.966 571.013 111.966C571.467 111.966 571.848 111.845 572.155 111.602C572.462 111.356 572.693 111.021 572.848 110.597C573.007 110.169 573.087 109.682 573.087 109.136C573.087 108.595 573.009 108.114 572.854 107.693C572.698 107.273 572.467 106.943 572.161 106.705C571.854 106.466 571.471 106.347 571.013 106.347C570.573 106.347 570.2 106.462 569.893 106.693C569.587 106.924 569.354 107.248 569.195 107.665C569.039 108.081 568.962 108.572 568.962 109.136ZM582.494 109.83V104.773H584.551V113.5H582.557V111.949H582.466C582.269 112.437 581.945 112.837 581.494 113.148C581.047 113.458 580.496 113.614 579.841 113.614C579.269 113.614 578.763 113.487 578.324 113.233C577.888 112.975 577.547 112.602 577.301 112.114C577.055 111.621 576.932 111.027 576.932 110.33V104.773H578.989V110.011C578.989 110.564 579.14 111.004 579.443 111.33C579.746 111.655 580.144 111.818 580.636 111.818C580.939 111.818 581.233 111.744 581.517 111.597C581.801 111.449 582.034 111.229 582.216 110.938C582.402 110.642 582.494 110.273 582.494 109.83ZM591.024 104.773V106.364H586.007V104.773H591.024ZM587.246 102.682H589.303V110.875C589.303 111.152 589.344 111.364 589.428 111.511C589.515 111.655 589.628 111.754 589.768 111.807C589.909 111.86 590.064 111.886 590.234 111.886C590.363 111.886 590.481 111.877 590.587 111.858C590.696 111.839 590.78 111.822 590.837 111.807L591.183 113.415C591.073 113.453 590.916 113.494 590.712 113.54C590.511 113.585 590.265 113.612 589.973 113.619C589.458 113.634 588.994 113.557 588.581 113.386C588.168 113.212 587.84 112.943 587.598 112.58C587.359 112.216 587.242 111.761 587.246 111.216V102.682ZM592.744 113.5V104.773H594.801V113.5H592.744ZM593.778 103.534C593.453 103.534 593.172 103.426 592.938 103.21C592.703 102.991 592.585 102.727 592.585 102.42C592.585 102.11 592.703 101.847 592.938 101.631C593.172 101.411 593.453 101.301 593.778 101.301C594.108 101.301 594.388 101.411 594.619 101.631C594.854 101.847 594.972 102.11 594.972 102.42C594.972 102.727 594.854 102.991 594.619 103.21C594.388 103.426 594.108 103.534 593.778 103.534ZM600.723 113.67C599.871 113.67 599.132 113.483 598.507 113.108C597.882 112.733 597.397 112.208 597.053 111.534C596.712 110.86 596.541 110.072 596.541 109.17C596.541 108.269 596.712 107.479 597.053 106.801C597.397 106.123 597.882 105.597 598.507 105.222C599.132 104.847 599.871 104.659 600.723 104.659C601.575 104.659 602.314 104.847 602.939 105.222C603.564 105.597 604.047 106.123 604.388 106.801C604.732 107.479 604.905 108.269 604.905 109.17C604.905 110.072 604.732 110.86 604.388 111.534C604.047 112.208 603.564 112.733 602.939 113.108C602.314 113.483 601.575 113.67 600.723 113.67ZM600.734 112.023C601.196 112.023 601.583 111.896 601.893 111.642C602.204 111.384 602.435 111.04 602.587 110.608C602.742 110.176 602.82 109.695 602.82 109.165C602.82 108.631 602.742 108.148 602.587 107.716C602.435 107.28 602.204 106.934 601.893 106.676C601.583 106.419 601.196 106.29 600.734 106.29C600.261 106.29 599.867 106.419 599.553 106.676C599.242 106.934 599.009 107.28 598.854 107.716C598.702 108.148 598.626 108.631 598.626 109.165C598.626 109.695 598.702 110.176 598.854 110.608C599.009 111.04 599.242 111.384 599.553 111.642C599.867 111.896 600.261 112.023 600.734 112.023ZM608.707 108.386V113.5H606.651V104.773H608.616V106.256H608.719C608.92 105.767 609.24 105.379 609.679 105.091C610.122 104.803 610.67 104.659 611.321 104.659C611.923 104.659 612.448 104.788 612.895 105.045C613.346 105.303 613.694 105.676 613.94 106.165C614.19 106.653 614.313 107.246 614.31 107.943V113.5H612.253V108.261C612.253 107.678 612.101 107.222 611.798 106.892C611.499 106.562 611.084 106.398 610.554 106.398C610.194 106.398 609.874 106.477 609.594 106.636C609.317 106.792 609.099 107.017 608.94 107.312C608.785 107.608 608.707 107.966 608.707 108.386Z" fill="#102B2D"/>
<path d="M634 107L680 107" stroke="#58DA95" stroke-linejoin="round"/>
<path d="M655 101L661 107L655 113" stroke="#58DA95" stroke-linecap="square" stroke-linejoin="round"/>
<path d="M700.576 104.648H698.803C698.735 104.269 698.608 103.936 698.423 103.648C698.237 103.36 698.01 103.116 697.741 102.915C697.472 102.714 697.171 102.562 696.837 102.46C696.508 102.358 696.157 102.307 695.786 102.307C695.116 102.307 694.515 102.475 693.985 102.812C693.459 103.15 693.042 103.644 692.735 104.295C692.432 104.947 692.281 105.742 692.281 106.682C692.281 107.629 692.432 108.428 692.735 109.08C693.042 109.731 693.46 110.223 693.991 110.557C694.521 110.89 695.118 111.057 695.781 111.057C696.148 111.057 696.496 111.008 696.826 110.909C697.159 110.807 697.46 110.657 697.729 110.46C697.998 110.263 698.226 110.023 698.411 109.739C698.601 109.451 698.731 109.121 698.803 108.75L700.576 108.756C700.481 109.328 700.298 109.854 700.025 110.335C699.756 110.812 699.409 111.225 698.985 111.574C698.565 111.919 698.084 112.186 697.542 112.375C697 112.564 696.409 112.659 695.769 112.659C694.762 112.659 693.864 112.42 693.076 111.943C692.288 111.462 691.667 110.775 691.212 109.881C690.762 108.987 690.536 107.92 690.536 106.682C690.536 105.439 690.763 104.373 691.218 103.483C691.673 102.589 692.294 101.903 693.082 101.426C693.87 100.945 694.765 100.705 695.769 100.705C696.387 100.705 696.962 100.794 697.496 100.972C698.034 101.146 698.517 101.403 698.945 101.744C699.373 102.081 699.728 102.494 700.008 102.983C700.288 103.468 700.478 104.023 700.576 104.648ZM706.217 112.676C705.398 112.676 704.684 112.489 704.075 112.114C703.465 111.739 702.991 111.214 702.654 110.54C702.317 109.866 702.148 109.078 702.148 108.176C702.148 107.271 702.317 106.479 702.654 105.801C702.991 105.123 703.465 104.597 704.075 104.222C704.684 103.847 705.398 103.659 706.217 103.659C707.035 103.659 707.749 103.847 708.359 104.222C708.969 104.597 709.442 105.123 709.779 105.801C710.116 106.479 710.285 107.271 710.285 108.176C710.285 109.078 710.116 109.866 709.779 110.54C709.442 111.214 708.969 111.739 708.359 112.114C707.749 112.489 707.035 112.676 706.217 112.676ZM706.222 111.25C706.753 111.25 707.192 111.11 707.54 110.83C707.889 110.549 708.147 110.176 708.313 109.71C708.484 109.244 708.569 108.731 708.569 108.17C708.569 107.614 708.484 107.102 708.313 106.636C708.147 106.167 707.889 105.79 707.54 105.506C707.192 105.222 706.753 105.08 706.222 105.08C705.688 105.08 705.245 105.222 704.893 105.506C704.544 105.79 704.285 106.167 704.114 106.636C703.948 107.102 703.864 107.614 703.864 108.17C703.864 108.731 703.948 109.244 704.114 109.71C704.285 110.176 704.544 110.549 704.893 110.83C705.245 111.11 705.688 111.25 706.222 111.25ZM713.88 107.318V112.5H712.181V103.773H713.812V105.193H713.92C714.121 104.731 714.435 104.36 714.863 104.08C715.295 103.799 715.838 103.659 716.494 103.659C717.088 103.659 717.609 103.784 718.056 104.034C718.503 104.28 718.85 104.648 719.096 105.136C719.342 105.625 719.465 106.229 719.465 106.949V112.5H717.766V107.153C717.766 106.521 717.602 106.027 717.272 105.67C716.942 105.311 716.49 105.131 715.914 105.131C715.52 105.131 715.17 105.216 714.863 105.386C714.56 105.557 714.319 105.807 714.141 106.136C713.967 106.462 713.88 106.856 713.88 107.318ZM728.283 105.903L726.744 106.176C726.679 105.979 726.577 105.792 726.437 105.614C726.3 105.436 726.115 105.29 725.88 105.176C725.645 105.062 725.352 105.006 724.999 105.006C724.518 105.006 724.117 105.114 723.795 105.33C723.473 105.542 723.312 105.816 723.312 106.153C723.312 106.445 723.42 106.68 723.636 106.858C723.852 107.036 724.2 107.182 724.681 107.295L726.067 107.614C726.871 107.799 727.469 108.085 727.863 108.472C728.257 108.858 728.454 109.36 728.454 109.977C728.454 110.5 728.302 110.966 727.999 111.375C727.7 111.78 727.281 112.098 726.744 112.33C726.21 112.561 725.59 112.676 724.886 112.676C723.908 112.676 723.111 112.468 722.494 112.051C721.876 111.631 721.497 111.034 721.357 110.261L722.999 110.011C723.102 110.439 723.312 110.763 723.63 110.983C723.948 111.199 724.363 111.307 724.874 111.307C725.431 111.307 725.876 111.191 726.21 110.96C726.543 110.725 726.71 110.439 726.71 110.102C726.71 109.83 726.607 109.6 726.403 109.415C726.202 109.229 725.893 109.089 725.477 108.994L723.999 108.67C723.185 108.485 722.583 108.189 722.192 107.784C721.806 107.379 721.613 106.866 721.613 106.244C721.613 105.729 721.757 105.278 722.045 104.892C722.333 104.506 722.73 104.205 723.238 103.989C723.746 103.769 724.327 103.659 724.982 103.659C725.925 103.659 726.668 103.864 727.21 104.273C727.751 104.678 728.109 105.222 728.283 105.903ZM735.85 108.881V103.773H737.555V112.5H735.884V110.989H735.793C735.593 111.455 735.271 111.843 734.827 112.153C734.388 112.46 733.841 112.614 733.185 112.614C732.625 112.614 732.129 112.491 731.697 112.244C731.269 111.994 730.932 111.625 730.685 111.136C730.443 110.648 730.322 110.044 730.322 109.324V103.773H732.021V109.119C732.021 109.714 732.185 110.187 732.515 110.54C732.844 110.892 733.272 111.068 733.799 111.068C734.117 111.068 734.433 110.989 734.748 110.83C735.066 110.67 735.329 110.43 735.538 110.108C735.75 109.786 735.854 109.377 735.85 108.881ZM739.837 112.5V103.773H741.468V105.193H741.576C741.758 104.712 742.055 104.337 742.468 104.068C742.881 103.795 743.375 103.659 743.951 103.659C744.534 103.659 745.023 103.795 745.417 104.068C745.815 104.341 746.108 104.716 746.298 105.193H746.388C746.597 104.727 746.928 104.356 747.383 104.08C747.837 103.799 748.379 103.659 749.008 103.659C749.799 103.659 750.445 103.907 750.945 104.403C751.449 104.9 751.701 105.648 751.701 106.648V112.5H750.002V106.807C750.002 106.216 749.841 105.788 749.519 105.523C749.197 105.258 748.813 105.125 748.366 105.125C747.813 105.125 747.383 105.295 747.076 105.636C746.769 105.973 746.616 106.407 746.616 106.938V112.5H744.923V106.699C744.923 106.225 744.775 105.845 744.479 105.557C744.184 105.269 743.799 105.125 743.326 105.125C743.004 105.125 742.707 105.21 742.434 105.381C742.165 105.547 741.947 105.78 741.781 106.08C741.618 106.379 741.536 106.725 741.536 107.119V112.5H739.837ZM757.739 112.676C756.879 112.676 756.139 112.492 755.518 112.125C754.9 111.754 754.423 111.233 754.086 110.562C753.753 109.888 753.586 109.098 753.586 108.193C753.586 107.299 753.753 106.511 754.086 105.83C754.423 105.148 754.893 104.616 755.495 104.233C756.101 103.85 756.809 103.659 757.62 103.659C758.112 103.659 758.59 103.741 759.052 103.903C759.514 104.066 759.929 104.322 760.296 104.67C760.664 105.019 760.953 105.472 761.165 106.028C761.378 106.581 761.484 107.254 761.484 108.045V108.648H754.546V107.375H759.819C759.819 106.928 759.728 106.532 759.546 106.188C759.364 105.839 759.109 105.564 758.779 105.364C758.453 105.163 758.071 105.062 757.631 105.062C757.154 105.062 756.737 105.18 756.381 105.415C756.029 105.646 755.756 105.949 755.563 106.324C755.374 106.695 755.279 107.098 755.279 107.534V108.528C755.279 109.112 755.381 109.608 755.586 110.017C755.794 110.426 756.084 110.739 756.455 110.955C756.826 111.167 757.26 111.273 757.756 111.273C758.078 111.273 758.372 111.227 758.637 111.136C758.902 111.042 759.131 110.902 759.325 110.716C759.518 110.53 759.665 110.301 759.768 110.028L761.376 110.318C761.247 110.792 761.016 111.206 760.683 111.562C760.353 111.915 759.938 112.189 759.438 112.386C758.942 112.58 758.376 112.676 757.739 112.676ZM763.369 112.5V103.773H765.011V105.159H765.102C765.261 104.689 765.541 104.32 765.942 104.051C766.348 103.778 766.806 103.642 767.317 103.642C767.424 103.642 767.549 103.646 767.692 103.653C767.84 103.661 767.956 103.67 768.039 103.682V105.307C767.971 105.288 767.85 105.267 767.675 105.244C767.501 105.218 767.327 105.205 767.153 105.205C766.751 105.205 766.393 105.29 766.079 105.46C765.768 105.627 765.522 105.86 765.34 106.159C765.158 106.455 765.067 106.792 765.067 107.17V112.5H763.369Z" fill="#102B2D"/>
<path d="M392.5 195L392.5 149" stroke="#58DA95" stroke-linejoin="round"/>
<path d="M386.5 174L392.5 168L398.5 174" stroke="#58DA95" stroke-linecap="square" stroke-linejoin="round"/>
<rect x="312" y="200" width="160" height="74" rx="7" stroke="#58DA95" stroke-width="2" stroke-dasharray="5 5"/>
<path d="M341.442 243.5H337.499V231.864H341.522C342.677 231.864 343.67 232.097 344.499 232.562C345.333 233.025 345.973 233.689 346.42 234.557C346.867 235.424 347.09 236.462 347.09 237.67C347.09 238.883 346.865 239.924 346.414 240.795C345.967 241.667 345.321 242.335 344.477 242.801C343.636 243.267 342.624 243.5 341.442 243.5ZM339.607 241.676H341.34C342.151 241.676 342.827 241.528 343.369 241.233C343.91 240.934 344.317 240.489 344.59 239.898C344.863 239.303 344.999 238.561 344.999 237.67C344.999 236.78 344.863 236.042 344.59 235.455C344.317 234.864 343.914 234.422 343.38 234.131C342.85 233.835 342.191 233.688 341.403 233.688H339.607V241.676ZM352.866 243.67C351.991 243.67 351.235 243.489 350.599 243.125C349.966 242.758 349.479 242.239 349.138 241.568C348.798 240.894 348.627 240.1 348.627 239.188C348.627 238.29 348.798 237.502 349.138 236.824C349.483 236.142 349.964 235.612 350.582 235.233C351.199 234.85 351.924 234.659 352.758 234.659C353.296 234.659 353.803 234.746 354.281 234.92C354.762 235.091 355.186 235.356 355.553 235.716C355.924 236.076 356.216 236.534 356.428 237.091C356.64 237.644 356.746 238.303 356.746 239.068V239.699H349.593V238.312H354.775C354.771 237.919 354.686 237.568 354.519 237.261C354.353 236.951 354.12 236.706 353.82 236.528C353.525 236.35 353.18 236.261 352.786 236.261C352.366 236.261 351.996 236.364 351.678 236.568C351.36 236.769 351.112 237.034 350.934 237.364C350.76 237.689 350.671 238.047 350.667 238.438V239.648C350.667 240.155 350.76 240.591 350.945 240.955C351.131 241.314 351.39 241.591 351.724 241.784C352.057 241.973 352.447 242.068 352.894 242.068C353.193 242.068 353.464 242.027 353.707 241.943C353.949 241.856 354.159 241.729 354.337 241.562C354.515 241.396 354.65 241.189 354.741 240.943L356.661 241.159C356.54 241.667 356.309 242.11 355.968 242.489C355.631 242.864 355.199 243.155 354.673 243.364C354.146 243.568 353.544 243.67 352.866 243.67ZM358.487 246.773V234.773H360.509V236.216H360.629C360.735 236.004 360.884 235.778 361.077 235.54C361.271 235.297 361.532 235.091 361.862 234.92C362.191 234.746 362.612 234.659 363.123 234.659C363.797 234.659 364.405 234.831 364.947 235.176C365.492 235.517 365.924 236.023 366.242 236.693C366.564 237.36 366.725 238.178 366.725 239.148C366.725 240.106 366.568 240.92 366.254 241.591C365.939 242.261 365.511 242.773 364.969 243.125C364.428 243.477 363.814 243.653 363.129 243.653C362.629 243.653 362.214 243.57 361.884 243.403C361.555 243.237 361.29 243.036 361.089 242.801C360.892 242.562 360.738 242.337 360.629 242.125H360.543V246.773H358.487ZM360.504 239.136C360.504 239.701 360.583 240.195 360.742 240.619C360.905 241.044 361.138 241.375 361.441 241.614C361.748 241.848 362.119 241.966 362.555 241.966C363.009 241.966 363.39 241.845 363.697 241.602C364.004 241.356 364.235 241.021 364.39 240.597C364.549 240.169 364.629 239.682 364.629 239.136C364.629 238.595 364.551 238.114 364.396 237.693C364.24 237.273 364.009 236.943 363.702 236.705C363.396 236.466 363.013 236.347 362.555 236.347C362.115 236.347 361.742 236.462 361.435 236.693C361.129 236.924 360.896 237.248 360.737 237.665C360.581 238.081 360.504 238.572 360.504 239.136ZM372.35 243.67C371.475 243.67 370.719 243.489 370.083 243.125C369.451 242.758 368.964 242.239 368.623 241.568C368.282 240.894 368.112 240.1 368.112 239.188C368.112 238.29 368.282 237.502 368.623 236.824C368.968 236.142 369.449 235.612 370.066 235.233C370.683 234.85 371.409 234.659 372.242 234.659C372.78 234.659 373.288 234.746 373.765 234.92C374.246 235.091 374.67 235.356 375.038 235.716C375.409 236.076 375.701 236.534 375.913 237.091C376.125 237.644 376.231 238.303 376.231 239.068V239.699H369.077V238.312H374.259C374.255 237.919 374.17 237.568 374.004 237.261C373.837 236.951 373.604 236.706 373.305 236.528C373.009 236.35 372.665 236.261 372.271 236.261C371.85 236.261 371.481 236.364 371.163 236.568C370.844 236.769 370.596 237.034 370.418 237.364C370.244 237.689 370.155 238.047 370.151 238.438V239.648C370.151 240.155 370.244 240.591 370.43 240.955C370.615 241.314 370.875 241.591 371.208 241.784C371.541 241.973 371.932 242.068 372.379 242.068C372.678 242.068 372.949 242.027 373.191 241.943C373.433 241.856 373.644 241.729 373.822 241.562C374 241.396 374.134 241.189 374.225 240.943L376.146 241.159C376.024 241.667 375.793 242.11 375.452 242.489C375.115 242.864 374.683 243.155 374.157 243.364C373.63 243.568 373.028 243.67 372.35 243.67ZM380.028 238.386V243.5H377.971V234.773H379.937V236.256H380.039C380.24 235.767 380.56 235.379 380.999 235.091C381.442 234.803 381.99 234.659 382.641 234.659C383.244 234.659 383.768 234.788 384.215 235.045C384.666 235.303 385.014 235.676 385.261 236.165C385.511 236.653 385.634 237.246 385.63 237.943V243.5H383.573V238.261C383.573 237.678 383.422 237.222 383.119 236.892C382.819 236.562 382.405 236.398 381.874 236.398C381.514 236.398 381.194 236.477 380.914 236.636C380.638 236.792 380.42 237.017 380.261 237.312C380.105 237.608 380.028 237.966 380.028 238.386ZM390.96 243.653C390.274 243.653 389.66 243.477 389.119 243.125C388.577 242.773 388.149 242.261 387.835 241.591C387.52 240.92 387.363 240.106 387.363 239.148C387.363 238.178 387.522 237.36 387.84 236.693C388.162 236.023 388.596 235.517 389.141 235.176C389.687 234.831 390.295 234.659 390.965 234.659C391.477 234.659 391.897 234.746 392.227 234.92C392.556 235.091 392.817 235.297 393.011 235.54C393.204 235.778 393.353 236.004 393.46 236.216H393.545V231.864H395.607V243.5H393.585V242.125H393.46C393.353 242.337 393.2 242.562 392.999 242.801C392.799 243.036 392.533 243.237 392.204 243.403C391.874 243.57 391.46 243.653 390.96 243.653ZM391.533 241.966C391.969 241.966 392.34 241.848 392.647 241.614C392.954 241.375 393.187 241.044 393.346 240.619C393.505 240.195 393.585 239.701 393.585 239.136C393.585 238.572 393.505 238.081 393.346 237.665C393.191 237.248 392.96 236.924 392.653 236.693C392.35 236.462 391.977 236.347 391.533 236.347C391.075 236.347 390.692 236.466 390.386 236.705C390.079 236.943 389.848 237.273 389.692 237.693C389.537 238.114 389.46 238.595 389.46 239.136C389.46 239.682 389.537 240.169 389.692 240.597C389.852 241.021 390.085 241.356 390.391 241.602C390.702 241.845 391.083 241.966 391.533 241.966ZM401.663 243.67C400.788 243.67 400.032 243.489 399.396 243.125C398.763 242.758 398.276 242.239 397.935 241.568C397.594 240.894 397.424 240.1 397.424 239.188C397.424 238.29 397.594 237.502 397.935 236.824C398.28 236.142 398.761 235.612 399.379 235.233C399.996 234.85 400.721 234.659 401.555 234.659C402.093 234.659 402.6 234.746 403.077 234.92C403.558 235.091 403.983 235.356 404.35 235.716C404.721 236.076 405.013 236.534 405.225 237.091C405.437 237.644 405.543 238.303 405.543 239.068V239.699H398.39V238.312H403.572C403.568 237.919 403.483 237.568 403.316 237.261C403.149 236.951 402.916 236.706 402.617 236.528C402.322 236.35 401.977 236.261 401.583 236.261C401.163 236.261 400.793 236.364 400.475 236.568C400.157 236.769 399.909 237.034 399.731 237.364C399.557 237.689 399.468 238.047 399.464 238.438V239.648C399.464 240.155 399.557 240.591 399.742 240.955C399.928 241.314 400.187 241.591 400.521 241.784C400.854 241.973 401.244 242.068 401.691 242.068C401.99 242.068 402.261 242.027 402.504 241.943C402.746 241.856 402.956 241.729 403.134 241.562C403.312 241.396 403.447 241.189 403.538 240.943L405.458 241.159C405.337 241.667 405.106 242.11 404.765 242.489C404.428 242.864 403.996 243.155 403.469 243.364C402.943 243.568 402.341 243.67 401.663 243.67ZM409.34 238.386V243.5H407.283V234.773H409.249V236.256H409.352C409.552 235.767 409.872 235.379 410.312 235.091C410.755 234.803 411.302 234.659 411.954 234.659C412.556 234.659 413.081 234.788 413.528 235.045C413.978 235.303 414.327 235.676 414.573 236.165C414.823 236.653 414.946 237.246 414.942 237.943V243.5H412.886V238.261C412.886 237.678 412.734 237.222 412.431 236.892C412.132 236.562 411.717 236.398 411.187 236.398C410.827 236.398 410.507 236.477 410.227 236.636C409.95 236.792 409.732 237.017 409.573 237.312C409.418 237.608 409.34 237.966 409.34 238.386ZM420.84 243.67C419.969 243.67 419.221 243.479 418.596 243.097C417.975 242.714 417.496 242.186 417.158 241.511C416.825 240.833 416.658 240.053 416.658 239.17C416.658 238.284 416.829 237.502 417.17 236.824C417.511 236.142 417.992 235.612 418.613 235.233C419.238 234.85 419.977 234.659 420.829 234.659C421.537 234.659 422.164 234.79 422.71 235.051C423.259 235.309 423.696 235.674 424.022 236.148C424.348 236.617 424.533 237.167 424.579 237.795H422.613C422.533 237.375 422.344 237.025 422.045 236.744C421.749 236.46 421.353 236.318 420.857 236.318C420.437 236.318 420.067 236.432 419.749 236.659C419.431 236.883 419.183 237.205 419.005 237.625C418.831 238.045 418.744 238.549 418.744 239.136C418.744 239.731 418.831 240.242 419.005 240.67C419.179 241.095 419.424 241.422 419.738 241.653C420.056 241.881 420.429 241.994 420.857 241.994C421.16 241.994 421.431 241.937 421.67 241.824C421.912 241.706 422.115 241.538 422.278 241.318C422.441 241.098 422.552 240.831 422.613 240.517H424.579C424.53 241.134 424.348 241.682 424.033 242.159C423.719 242.633 423.291 243.004 422.749 243.273C422.208 243.538 421.571 243.67 420.84 243.67ZM426.268 243.5V234.773H428.325V243.5H426.268ZM427.302 233.534C426.976 233.534 426.696 233.426 426.461 233.21C426.226 232.991 426.109 232.727 426.109 232.42C426.109 232.11 426.226 231.847 426.461 231.631C426.696 231.411 426.976 231.301 427.302 231.301C427.631 231.301 427.912 231.411 428.143 231.631C428.378 231.847 428.495 232.11 428.495 232.42C428.495 232.727 428.378 232.991 428.143 233.21C427.912 233.426 427.631 233.534 427.302 233.534ZM434.303 243.67C433.428 243.67 432.673 243.489 432.036 243.125C431.404 242.758 430.917 242.239 430.576 241.568C430.235 240.894 430.065 240.1 430.065 239.188C430.065 238.29 430.235 237.502 430.576 236.824C430.921 236.142 431.402 235.612 432.019 235.233C432.637 234.85 433.362 234.659 434.195 234.659C434.733 234.659 435.241 234.746 435.718 234.92C436.199 235.091 436.623 235.356 436.991 235.716C437.362 236.076 437.654 236.534 437.866 237.091C438.078 237.644 438.184 238.303 438.184 239.068V239.699H431.031V238.312H436.212C436.209 237.919 436.123 237.568 435.957 237.261C435.79 236.951 435.557 236.706 435.258 236.528C434.962 236.35 434.618 236.261 434.224 236.261C433.803 236.261 433.434 236.364 433.116 236.568C432.798 236.769 432.549 237.034 432.371 237.364C432.197 237.689 432.108 238.047 432.104 238.438V239.648C432.104 240.155 432.197 240.591 432.383 240.955C432.568 241.314 432.828 241.591 433.161 241.784C433.495 241.973 433.885 242.068 434.332 242.068C434.631 242.068 434.902 242.027 435.144 241.943C435.387 241.856 435.597 241.729 435.775 241.562C435.953 241.396 436.087 241.189 436.178 240.943L438.099 241.159C437.978 241.667 437.746 242.11 437.406 242.489C437.068 242.864 436.637 243.155 436.11 243.364C435.584 243.568 434.981 243.67 434.303 243.67ZM446.822 237.08L444.947 237.284C444.894 237.095 444.801 236.917 444.668 236.75C444.54 236.583 444.365 236.449 444.146 236.347C443.926 236.244 443.657 236.193 443.339 236.193C442.911 236.193 442.551 236.286 442.259 236.472C441.971 236.657 441.829 236.898 441.833 237.193C441.829 237.447 441.922 237.653 442.112 237.812C442.305 237.972 442.623 238.102 443.066 238.205L444.555 238.523C445.38 238.701 445.994 238.983 446.396 239.369C446.801 239.756 447.005 240.261 447.009 240.886C447.005 241.436 446.844 241.92 446.526 242.341C446.212 242.758 445.774 243.083 445.214 243.318C444.653 243.553 444.009 243.67 443.282 243.67C442.214 243.67 441.354 243.447 440.702 243C440.051 242.549 439.663 241.922 439.538 241.119L441.543 240.926C441.634 241.32 441.827 241.617 442.123 241.818C442.418 242.019 442.803 242.119 443.276 242.119C443.765 242.119 444.157 242.019 444.452 241.818C444.752 241.617 444.901 241.369 444.901 241.074C444.901 240.824 444.805 240.617 444.612 240.455C444.422 240.292 444.127 240.167 443.725 240.08L442.237 239.767C441.399 239.593 440.78 239.299 440.379 238.886C439.977 238.47 439.778 237.943 439.782 237.307C439.778 236.769 439.924 236.303 440.219 235.909C440.519 235.511 440.933 235.205 441.464 234.989C441.998 234.769 442.613 234.659 443.31 234.659C444.333 234.659 445.138 234.877 445.725 235.312C446.316 235.748 446.682 236.337 446.822 237.08Z" fill="#102B2D"/>
<path d="M573 242L567 236L573 230" stroke="#58DA95" stroke-linecap="round" stroke-linejoin="round"/>
<path d="M657 118V228C657 232.418 653.418 236 649 236H477" stroke="#58DA95" stroke-linejoin="round"/>
</svg>
