<?xml version="1.0" standalone="no"?>
<!DOCTYPE svg PUBLIC "-//W3C//DTD SVG 20010904//EN"
 "http://www.w3.org/TR/2001/REC-SVG-20010904/DTD/svg10.dtd">
<svg version="1.0" xmlns="http://www.w3.org/2000/svg"
 width="700.000000pt" height="700.000000pt" viewBox="0 0 700.000000 700.000000"
 preserveAspectRatio="xMidYMid meet">
<metadata>
Created by potrace 1.14, written by Peter Selinger 2001-2017
</metadata>
<g transform="translate(0.000000,700.000000) scale(0.100000,-0.100000)"
fill="#000000" stroke="none">
<path d="M1245 6993 c-278 -36 -540 -149 -742 -320 -116 -98 -259 -262 -250
-286 3 -7 36 -59 73 -116 38 -57 74 -110 79 -119 23 -36 242 -341 282 -392 24
-30 47 -59 51 -65 17 -24 179 -223 202 -249 50 -59 124 -143 199 -226 96 -107
396 -409 521 -523 80 -73 98 -85 120 -81 72 17 371 100 485 136 512 158 1070
393 1500 631 50 28 115 64 145 80 100 55 363 219 525 328 339 228 651 473 965
759 150 136 433 421 425 428 -3 3 -13 8 -23 11 -20 6 -4512 10 -4557 4z"/>
<path d="M6214 6653 c-198 -210 -274 -284 -548 -538 -31 -29 -238 -205 -281
-240 -27 -22 -56 -46 -63 -53 -8 -7 -30 -25 -50 -40 -21 -15 -39 -30 -42 -33
-3 -3 -72 -56 -155 -117 -82 -61 -161 -120 -175 -130 -121 -91 -704 -462 -726
-462 -3 0 -21 -11 -42 -24 -80 -52 -532 -283 -697 -356 -389 -173 -759 -310
-1120 -416 -33 -10 -64 -21 -68 -25 -5 -3 36 -38 90 -77 54 -39 109 -79 123
-90 47 -36 385 -259 485 -319 279 -168 578 -327 850 -451 172 -78 421 -182
437 -182 8 0 18 -4 24 -9 5 -5 29 -16 54 -25 25 -8 83 -29 130 -46 47 -17 126
-45 175 -61 50 -16 120 -39 156 -51 l67 -22 78 60 c90 69 317 258 389 323 27
26 85 79 130 120 193 178 476 474 660 691 54 63 107 126 119 140 22 25 290
378 316 416 113 163 159 231 239 354 52 80 126 197 163 260 l69 115 -2 190
c-2 105 -9 222 -16 260 -7 39 -16 84 -19 100 -11 63 -76 241 -116 319 -110
213 -269 392 -474 534 l-31 21 -129 -136z"/>
<path d="M10 5808 c-5 -22 -8 -4531 -3 -4577 l5 -44 177 7 c97 4 194 8 216 10
22 3 76 7 121 11 44 3 96 8 115 10 19 2 61 6 94 10 78 8 144 15 175 20 26 5
73 11 138 20 20 3 62 10 92 15 30 5 66 11 80 14 14 2 43 7 65 11 36 6 158 29
210 39 11 3 43 10 70 16 28 6 61 14 75 16 121 23 577 149 770 214 227 76 531
192 695 265 28 12 88 39 135 60 191 84 635 317 805 422 157 97 277 172 281
176 2 2 -24 14 -58 27 -755 271 -1524 677 -2157 1137 -126 92 -356 268 -406
311 -11 10 -45 38 -75 62 -30 25 -60 49 -66 55 -6 5 -40 35 -74 65 -35 30 -68
59 -74 65 -6 5 -59 53 -116 105 -133 121 -405 394 -523 524 -49 56 -106 119
-126 141 -129 142 -386 467 -534 675 -49 69 -92 126 -96 128 -4 1 -9 -3 -11
-10z"/>
<path d="M6981 4408 c-8 -13 -71 -99 -140 -193 -123 -166 -145 -195 -166 -219
-6 -6 -28 -33 -50 -61 -56 -71 -196 -238 -209 -250 -6 -5 -26 -28 -45 -50
-149 -176 -464 -493 -735 -740 -50 -46 -235 -201 -341 -286 -638 -514 -1355
-939 -2105 -1250 -80 -33 -158 -66 -175 -73 -16 -7 -75 -29 -130 -49 -55 -20
-143 -51 -195 -70 -123 -45 -409 -135 -485 -153 -5 -1 -59 -16 -120 -33 -176
-50 -639 -152 -755 -167 -25 -3 -52 -7 -60 -9 -17 -5 -36 -8 -195 -31 -16 -2
-41 -6 -55 -9 -14 -3 -50 -7 -80 -10 -30 -3 -71 -8 -90 -10 -97 -12 -121 -15
-190 -21 -41 -3 -88 -8 -105 -9 -16 -2 -79 -6 -140 -10 -177 -11 -207 -13
-213 -19 -11 -12 114 -179 199 -266 31 -32 97 -91 145 -130 38 -31 161 -107
229 -142 92 -48 218 -91 346 -120 l104 -23 2275 0 2275 0 104 23 c278 63 506
184 695 369 219 215 350 464 405 768 19 107 20 157 21 1688 0 867 -1 1577 -2
1577 -2 0 -9 -10 -17 -22z"/>
</g>
</svg>
