<svg width="784" height="226" viewBox="0 0 784 226" fill="none" xmlns="http://www.w3.org/2000/svg">
<rect width="784" height="226" fill="white"/>
<path d="M21.3565 53.5V41.8636H25.5043C26.4096 41.8636 27.1596 42.0284 27.7543 42.358C28.349 42.6875 28.794 43.1383 29.0895 43.7102C29.3849 44.2784 29.5327 44.9186 29.5327 45.6307C29.5327 46.3466 29.383 46.9905 29.0838 47.5625C28.7884 48.1307 28.3414 48.5814 27.7429 48.9148C27.1482 49.2443 26.4001 49.4091 25.4986 49.4091H22.6463V47.9205H25.3395C25.9115 47.9205 26.3755 47.822 26.7315 47.625C27.0876 47.4242 27.349 47.1515 27.5156 46.8068C27.6823 46.4621 27.7656 46.0701 27.7656 45.6307C27.7656 45.1913 27.6823 44.8011 27.5156 44.4602C27.349 44.1193 27.0857 43.8523 26.7259 43.6591C26.3698 43.4659 25.9001 43.3693 25.3168 43.3693H23.1122V53.5H21.3565ZM31.4545 53.5V44.7727H33.0966V46.1591H33.1875C33.3466 45.6894 33.6269 45.3201 34.0284 45.0511C34.4337 44.7784 34.892 44.642 35.4034 44.642C35.5095 44.642 35.6345 44.6458 35.7784 44.6534C35.9261 44.661 36.0417 44.6705 36.125 44.6818V46.3068C36.0568 46.2879 35.9356 46.267 35.7614 46.2443C35.5871 46.2178 35.4129 46.2045 35.2386 46.2045C34.8371 46.2045 34.4792 46.2898 34.1648 46.4602C33.8542 46.6269 33.608 46.8598 33.4261 47.1591C33.2443 47.4545 33.1534 47.7917 33.1534 48.1705V53.5H31.4545ZM40.9588 53.6761C40.1406 53.6761 39.4266 53.4886 38.8168 53.1136C38.2069 52.7386 37.7334 52.214 37.3963 51.5398C37.0592 50.8655 36.8906 50.0777 36.8906 49.1761C36.8906 48.2708 37.0592 47.4792 37.3963 46.8011C37.7334 46.1231 38.2069 45.5966 38.8168 45.2216C39.4266 44.8466 40.1406 44.6591 40.9588 44.6591C41.777 44.6591 42.491 44.8466 43.1009 45.2216C43.7107 45.5966 44.1842 46.1231 44.5213 46.8011C44.8584 47.4792 45.027 48.2708 45.027 49.1761C45.027 50.0777 44.8584 50.8655 44.5213 51.5398C44.1842 52.214 43.7107 52.7386 43.1009 53.1136C42.491 53.4886 41.777 53.6761 40.9588 53.6761ZM40.9645 52.25C41.4948 52.25 41.9342 52.1098 42.2827 51.8295C42.6312 51.5492 42.8887 51.1761 43.0554 50.7102C43.2259 50.2443 43.3111 49.7311 43.3111 49.1705C43.3111 48.6136 43.2259 48.1023 43.0554 47.6364C42.8887 47.1667 42.6312 46.7898 42.2827 46.5057C41.9342 46.2216 41.4948 46.0795 40.9645 46.0795C40.4304 46.0795 39.9872 46.2216 39.6349 46.5057C39.2865 46.7898 39.027 47.1667 38.8565 47.6364C38.6899 48.1023 38.6065 48.6136 38.6065 49.1705C38.6065 49.7311 38.6899 50.2443 38.8565 50.7102C39.027 51.1761 39.2865 51.5492 39.6349 51.8295C39.9872 52.1098 40.4304 52.25 40.9645 52.25ZM50.1903 53.6705C49.4858 53.6705 48.857 53.4905 48.304 53.1307C47.7547 52.767 47.3229 52.25 47.0085 51.5795C46.6979 50.9053 46.5426 50.0966 46.5426 49.1534C46.5426 48.2102 46.6998 47.4034 47.0142 46.733C47.3324 46.0625 47.768 45.5492 48.321 45.1932C48.8741 44.8371 49.5009 44.6591 50.2017 44.6591C50.7434 44.6591 51.179 44.75 51.5085 44.9318C51.8419 45.1098 52.0994 45.3182 52.2812 45.5568C52.4669 45.7955 52.6108 46.0057 52.7131 46.1875H52.8153V41.8636H54.5142V53.5H52.8551V52.142H52.7131C52.6108 52.3277 52.4631 52.5398 52.2699 52.7784C52.0805 53.017 51.8191 53.2254 51.4858 53.4034C51.1525 53.5814 50.7206 53.6705 50.1903 53.6705ZM50.5653 52.2216C51.054 52.2216 51.4669 52.0928 51.804 51.8352C52.1449 51.5739 52.4025 51.2121 52.5767 50.75C52.7547 50.2879 52.8438 49.75 52.8438 49.1364C52.8438 48.5303 52.7566 48 52.5824 47.5455C52.4081 47.0909 52.1525 46.7367 51.8153 46.483C51.4782 46.2292 51.0616 46.1023 50.5653 46.1023C50.054 46.1023 49.6278 46.2348 49.2869 46.5C48.946 46.7652 48.6884 47.1269 48.5142 47.5852C48.3438 48.0436 48.2585 48.5606 48.2585 49.1364C48.2585 49.7197 48.3456 50.2443 48.5199 50.7102C48.6941 51.1761 48.9517 51.5455 49.2926 51.8182C49.6373 52.0871 50.0616 52.2216 50.5653 52.2216ZM62.4673 49.8807V44.7727H64.1719V53.5H62.5014V51.9886H62.4105C62.2098 52.4545 61.8878 52.8428 61.4446 53.1534C61.0052 53.4602 60.4579 53.6136 59.8026 53.6136C59.242 53.6136 58.7457 53.4905 58.3139 53.2443C57.8859 52.9943 57.5488 52.625 57.3026 52.1364C57.0601 51.6477 56.9389 51.0436 56.9389 50.3239V44.7727H58.6378V50.1193C58.6378 50.714 58.8026 51.1875 59.1321 51.5398C59.4616 51.892 59.8897 52.0682 60.4162 52.0682C60.7344 52.0682 61.0507 51.9886 61.3651 51.8295C61.6832 51.6705 61.9465 51.4299 62.1548 51.108C62.367 50.786 62.4711 50.3769 62.4673 49.8807ZM70.1307 53.6761C69.286 53.6761 68.5587 53.4848 67.9489 53.1023C67.3428 52.7159 66.8769 52.1837 66.5511 51.5057C66.2254 50.8277 66.0625 50.0511 66.0625 49.1761C66.0625 48.2898 66.2292 47.5076 66.5625 46.8295C66.8958 46.1477 67.3655 45.6155 67.9716 45.233C68.5777 44.8504 69.2917 44.6591 70.1136 44.6591C70.7765 44.6591 71.3674 44.7822 71.8864 45.0284C72.4053 45.2708 72.8239 45.6117 73.142 46.0511C73.464 46.4905 73.6553 47.0038 73.7159 47.5909H72.0625C71.9716 47.1818 71.7633 46.8295 71.4375 46.5341C71.1155 46.2386 70.6837 46.0909 70.142 46.0909C69.6686 46.0909 69.2538 46.2159 68.8977 46.4659C68.5455 46.7121 68.2708 47.0644 68.0739 47.5227C67.8769 47.9773 67.7784 48.5152 67.7784 49.1364C67.7784 49.7727 67.875 50.322 68.0682 50.7841C68.2614 51.2462 68.5341 51.6042 68.8864 51.858C69.2424 52.1117 69.661 52.2386 70.142 52.2386C70.464 52.2386 70.7557 52.1799 71.017 52.0625C71.2822 51.9413 71.5038 51.7689 71.6818 51.5455C71.8636 51.322 71.9905 51.053 72.0625 50.7386H73.7159C73.6553 51.303 73.4716 51.8068 73.1648 52.25C72.858 52.6932 72.447 53.0417 71.9318 53.2955C71.4205 53.5492 70.8201 53.6761 70.1307 53.6761ZM79.294 53.6761C78.4342 53.6761 77.6937 53.4924 77.0724 53.125C76.455 52.7538 75.9777 52.233 75.6406 51.5625C75.3073 50.8883 75.1406 50.0985 75.1406 49.1932C75.1406 48.2992 75.3073 47.5114 75.6406 46.8295C75.9777 46.1477 76.4474 45.6155 77.0497 45.233C77.6558 44.8504 78.3641 44.6591 79.1747 44.6591C79.6671 44.6591 80.1444 44.7405 80.6065 44.9034C81.0687 45.0663 81.4834 45.322 81.8509 45.6705C82.2183 46.0189 82.508 46.4716 82.7202 47.0284C82.9323 47.5814 83.0384 48.2538 83.0384 49.0455V49.6477H76.1009V48.375H81.3736C81.3736 47.928 81.2827 47.5322 81.1009 47.1875C80.919 46.839 80.6634 46.5644 80.3338 46.3636C80.008 46.1629 79.6255 46.0625 79.1861 46.0625C78.7088 46.0625 78.2921 46.1799 77.9361 46.4148C77.5838 46.6458 77.3111 46.9489 77.1179 47.3239C76.9285 47.6951 76.8338 48.0985 76.8338 48.5341V49.5284C76.8338 50.1117 76.9361 50.608 77.1406 51.017C77.349 51.4261 77.6387 51.7386 78.0099 51.9545C78.3812 52.1667 78.8149 52.2727 79.3111 52.2727C79.633 52.2727 79.9266 52.2273 80.1918 52.1364C80.4569 52.0417 80.6861 51.9015 80.8793 51.7159C81.0724 51.5303 81.2202 51.3011 81.3224 51.0284L82.9304 51.3182C82.8016 51.7917 82.5705 52.2064 82.2372 52.5625C81.9077 52.9148 81.4929 53.1894 80.9929 53.3864C80.4967 53.5795 79.9304 53.6761 79.294 53.6761ZM84.9233 53.5V44.7727H86.5653V46.1591H86.6562C86.8153 45.6894 87.0956 45.3201 87.4972 45.0511C87.9025 44.7784 88.3608 44.642 88.8722 44.642C88.9782 44.642 89.1032 44.6458 89.2472 44.6534C89.3949 44.661 89.5104 44.6705 89.5938 44.6818V46.3068C89.5256 46.2879 89.4044 46.267 89.2301 46.2443C89.0559 46.2178 88.8816 46.2045 88.7074 46.2045C88.3059 46.2045 87.9479 46.2898 87.6335 46.4602C87.3229 46.6269 87.0767 46.8598 86.8949 47.1591C86.7131 47.4545 86.6222 47.7917 86.6222 48.1705V53.5H84.9233Z" fill="#102B2D"/>
<path d="M104 48L150 48" stroke="#58DA95" stroke-linejoin="round"/>
<path d="M125 42L131 48L125 54" stroke="#58DA95" stroke-linecap="square" stroke-linejoin="round"/>
<rect x="155" y="11" width="118" height="74" rx="7" stroke="#58DA95" stroke-width="2"/>
<path d="M194.19 46.0625C194.137 45.5663 193.914 45.1799 193.52 44.9034C193.13 44.6269 192.622 44.4886 191.997 44.4886C191.558 44.4886 191.181 44.5549 190.866 44.6875C190.552 44.8201 190.312 45 190.145 45.2273C189.978 45.4545 189.893 45.714 189.889 46.0057C189.889 46.2481 189.944 46.4583 190.054 46.6364C190.168 46.8144 190.321 46.9659 190.514 47.0909C190.707 47.2121 190.921 47.3144 191.156 47.3977C191.391 47.4811 191.628 47.5511 191.866 47.608L192.957 47.8807C193.397 47.983 193.819 48.1212 194.224 48.2955C194.634 48.4697 194.999 48.6894 195.321 48.9545C195.647 49.2197 195.904 49.5398 196.094 49.9148C196.283 50.2898 196.378 50.7292 196.378 51.233C196.378 51.9148 196.204 52.5152 195.855 53.0341C195.507 53.5492 195.003 53.9527 194.344 54.2443C193.688 54.5322 192.895 54.6761 191.963 54.6761C191.058 54.6761 190.272 54.536 189.605 54.2557C188.942 53.9754 188.423 53.5663 188.048 53.0284C187.677 52.4905 187.476 51.8352 187.446 51.0625H189.52C189.55 51.4678 189.675 51.8049 189.895 52.0739C190.115 52.3428 190.401 52.5436 190.753 52.6761C191.109 52.8087 191.507 52.875 191.946 52.875C192.404 52.875 192.806 52.8068 193.151 52.6705C193.499 52.5303 193.772 52.3371 193.969 52.0909C194.166 51.8409 194.266 51.5492 194.27 51.2159C194.266 50.9129 194.177 50.6629 194.003 50.4659C193.829 50.2652 193.584 50.0985 193.27 49.9659C192.959 49.8295 192.596 49.7083 192.179 49.6023L190.855 49.2614C189.897 49.0152 189.139 48.642 188.582 48.142C188.029 47.6383 187.753 46.9697 187.753 46.1364C187.753 45.4508 187.938 44.8504 188.31 44.3352C188.685 43.8201 189.194 43.4205 189.838 43.1364C190.482 42.8485 191.211 42.7045 192.026 42.7045C192.851 42.7045 193.575 42.8485 194.196 43.1364C194.821 43.4205 195.312 43.8163 195.668 44.3239C196.024 44.8277 196.207 45.4072 196.219 46.0625H194.19ZM201.973 54.6705C201.121 54.6705 200.382 54.483 199.757 54.108C199.132 53.733 198.647 53.2083 198.303 52.5341C197.962 51.8598 197.791 51.072 197.791 50.1705C197.791 49.2689 197.962 48.4792 198.303 47.8011C198.647 47.1231 199.132 46.5966 199.757 46.2216C200.382 45.8466 201.121 45.6591 201.973 45.6591C202.825 45.6591 203.564 45.8466 204.189 46.2216C204.814 46.5966 205.297 47.1231 205.638 47.8011C205.982 48.4792 206.155 49.2689 206.155 50.1705C206.155 51.072 205.982 51.8598 205.638 52.5341C205.297 53.2083 204.814 53.733 204.189 54.108C203.564 54.483 202.825 54.6705 201.973 54.6705ZM201.984 53.0227C202.446 53.0227 202.833 52.8958 203.143 52.642C203.454 52.3845 203.685 52.0398 203.837 51.608C203.992 51.1761 204.07 50.6951 204.07 50.1648C204.07 49.6307 203.992 49.1477 203.837 48.7159C203.685 48.2803 203.454 47.9337 203.143 47.6761C202.833 47.4186 202.446 47.2898 201.984 47.2898C201.511 47.2898 201.117 47.4186 200.803 47.6761C200.492 47.9337 200.259 48.2803 200.104 48.7159C199.952 49.1477 199.876 49.6307 199.876 50.1648C199.876 50.6951 199.952 51.1761 200.104 51.608C200.259 52.0398 200.492 52.3845 200.803 52.642C201.117 52.8958 201.511 53.0227 201.984 53.0227ZM213.463 50.8295V45.7727H215.52V54.5H213.526V52.9489H213.435C213.238 53.4375 212.914 53.8371 212.463 54.1477C212.016 54.4583 211.465 54.6136 210.81 54.6136C210.238 54.6136 209.732 54.4867 209.293 54.233C208.857 53.9754 208.516 53.6023 208.27 53.1136C208.024 52.6212 207.901 52.0265 207.901 51.3295V45.7727H209.957V51.0114C209.957 51.5644 210.109 52.0038 210.412 52.3295C210.715 52.6553 211.113 52.8182 211.605 52.8182C211.908 52.8182 212.202 52.7443 212.486 52.5966C212.77 52.4489 213.003 52.2292 213.185 51.9375C213.37 51.642 213.463 51.2727 213.463 50.8295ZM217.635 54.5V45.7727H219.629V47.2273H219.72C219.879 46.7235 220.152 46.3352 220.538 46.0625C220.929 45.786 221.374 45.6477 221.874 45.6477C221.987 45.6477 222.114 45.6534 222.254 45.6648C222.398 45.6723 222.518 45.6856 222.612 45.7045V47.5966C222.525 47.5663 222.387 47.5398 222.197 47.517C222.012 47.4905 221.832 47.4773 221.658 47.4773C221.283 47.4773 220.946 47.5587 220.646 47.7216C220.351 47.8807 220.118 48.1023 219.947 48.3864C219.777 48.6705 219.692 48.9981 219.692 49.3693V54.5H217.635ZM227.426 54.6705C226.555 54.6705 225.807 54.4792 225.182 54.0966C224.561 53.714 224.081 53.1856 223.744 52.5114C223.411 51.8333 223.244 51.053 223.244 50.1705C223.244 49.2841 223.415 48.5019 223.756 47.8239C224.097 47.142 224.578 46.6117 225.199 46.233C225.824 45.8504 226.563 45.6591 227.415 45.6591C228.123 45.6591 228.75 45.7898 229.295 46.0511C229.845 46.3087 230.282 46.6742 230.608 47.1477C230.934 47.6174 231.119 48.1667 231.165 48.7955H229.199C229.119 48.375 228.93 48.0246 228.631 47.7443C228.335 47.4602 227.939 47.3182 227.443 47.3182C227.023 47.3182 226.653 47.4318 226.335 47.6591C226.017 47.8826 225.769 48.2045 225.591 48.625C225.417 49.0455 225.33 49.5492 225.33 50.1364C225.33 50.7311 225.417 51.2424 225.591 51.6705C225.765 52.0947 226.009 52.4223 226.324 52.6534C226.642 52.8807 227.015 52.9943 227.443 52.9943C227.746 52.9943 228.017 52.9375 228.256 52.8239C228.498 52.7064 228.701 52.5379 228.864 52.3182C229.027 52.0985 229.138 51.8314 229.199 51.517H231.165C231.116 52.1345 230.934 52.6818 230.619 53.1591C230.305 53.6326 229.877 54.0038 229.335 54.2727C228.794 54.5379 228.157 54.6705 227.426 54.6705ZM236.717 54.6705C235.842 54.6705 235.087 54.4886 234.45 54.125C233.818 53.7576 233.331 53.2386 232.99 52.5682C232.649 51.8939 232.479 51.1004 232.479 50.1875C232.479 49.2898 232.649 48.5019 232.99 47.8239C233.335 47.142 233.816 46.6117 234.433 46.233C235.051 45.8504 235.776 45.6591 236.609 45.6591C237.147 45.6591 237.655 45.7462 238.132 45.9205C238.613 46.0909 239.037 46.3561 239.405 46.7159C239.776 47.0758 240.068 47.5341 240.28 48.0909C240.492 48.6439 240.598 49.303 240.598 50.0682V50.6989H233.445V49.3125H238.626C238.623 48.9186 238.537 48.5682 238.371 48.2614C238.204 47.9508 237.971 47.7064 237.672 47.5284C237.376 47.3504 237.032 47.2614 236.638 47.2614C236.217 47.2614 235.848 47.3636 235.53 47.5682C235.212 47.7689 234.964 48.0341 234.786 48.3636C234.611 48.6894 234.522 49.0473 234.518 49.4375V50.6477C234.518 51.1553 234.611 51.5909 234.797 51.9545C234.982 52.3144 235.242 52.5909 235.575 52.7841C235.909 52.9735 236.299 53.0682 236.746 53.0682C237.045 53.0682 237.316 53.0265 237.558 52.9432C237.801 52.8561 238.011 52.7292 238.189 52.5625C238.367 52.3958 238.501 52.1894 238.592 51.9432L240.513 52.1591C240.392 52.6667 240.161 53.1098 239.82 53.4886C239.482 53.8636 239.051 54.1553 238.524 54.3636C237.998 54.5682 237.395 54.6705 236.717 54.6705Z" fill="#102B2D"/>
<path d="M278 48L342 48" stroke="#58DA95" stroke-linejoin="round"/>
<path d="M308 42L314 48L308 54" stroke="#58DA95" stroke-linecap="square" stroke-linejoin="round"/>
<mask id="path-8-inside-1_571_581" fill="white">
<path fill-rule="evenodd" clip-rule="evenodd" d="M346.345 50.0707C351.164 63.8276 359.776 75.8842 371.149 84.7979C372.234 85.6482 373.575 86.0824 374.944 86.0824H408.643H409.643V86.0042C410.655 85.8442 411.619 85.4395 412.438 84.7979C423.811 75.8842 432.423 63.8276 437.242 50.0707C437.702 48.7582 437.702 47.3241 437.242 46.0117C432.423 32.2547 423.811 20.1981 412.438 11.2845C411.619 10.6428 410.655 10.2382 409.643 10.0782V10H408.643H374.944C373.575 10 372.234 10.4341 371.149 11.2845C359.776 20.1981 351.164 32.2547 346.345 46.0117C345.885 47.3241 345.885 48.7582 346.345 50.0707Z"/>
</mask>
<path d="M371.149 84.7979L372.383 83.2237L372.383 83.2237L371.149 84.7979ZM346.345 50.0707L348.232 49.4094V49.4094L346.345 50.0707ZM409.643 86.0824V88.0824H411.643V86.0824H409.643ZM409.643 86.0042L409.33 84.0287L407.643 84.2954V86.0042H409.643ZM412.438 84.7979L411.204 83.2237V83.2237L412.438 84.7979ZM437.242 50.0707L435.355 49.4094V49.4094L437.242 50.0707ZM437.242 46.0117L435.355 46.6729V46.6729L437.242 46.0117ZM412.438 11.2845L413.671 9.71035V9.71035L412.438 11.2845ZM409.643 10.0782H407.643V11.787L409.33 12.0537L409.643 10.0782ZM409.643 10H411.643V8H409.643V10ZM371.149 11.2845L372.383 12.8586V12.8586L371.149 11.2845ZM346.345 46.0117L348.232 46.6729L348.232 46.6729L346.345 46.0117ZM372.383 83.2237C361.313 74.5479 352.927 62.8092 348.232 49.4094L344.457 50.7319C349.402 64.846 358.239 77.2206 369.916 86.372L372.383 83.2237ZM374.944 84.0824C373.995 84.0824 373.095 83.782 372.383 83.2237L369.916 86.372C371.373 87.5145 373.154 88.0824 374.944 88.0824V84.0824ZM408.643 84.0824H374.944V88.0824H408.643V84.0824ZM409.643 84.0824H408.643V88.0824H409.643V84.0824ZM407.643 86.0042V86.0824H411.643V86.0042H407.643ZM409.955 87.9796C411.287 87.7691 412.572 87.2336 413.671 86.372L411.204 83.2237C410.666 83.6455 410.023 83.9193 409.33 84.0287L409.955 87.9796ZM413.671 86.372C425.348 77.2206 434.185 64.846 439.13 50.7319L435.355 49.4094C430.66 62.8092 422.274 74.5479 411.204 83.2237L413.671 86.372ZM439.13 50.7319C439.739 48.9914 439.739 47.091 439.13 45.3504L435.355 46.6729C435.664 47.5573 435.664 48.525 435.355 49.4094L439.13 50.7319ZM439.13 45.3504C434.185 31.2363 425.348 18.8618 413.671 9.71035L411.204 12.8586C422.274 21.5344 430.66 33.2731 435.355 46.6729L439.13 45.3504ZM413.671 9.71035C412.572 8.84877 411.287 8.31329 409.955 8.10271L409.33 12.0537C410.023 12.1631 410.666 12.4369 411.204 12.8586L413.671 9.71035ZM407.643 10V10.0782H411.643V10H407.643ZM408.643 12H409.643V8H408.643V12ZM374.944 12H408.643V8H374.944V12ZM372.383 12.8586C373.095 12.3004 373.995 12 374.944 12V8C373.154 8 371.373 8.56786 369.916 9.71035L372.383 12.8586ZM348.232 46.6729C352.927 33.2731 361.313 21.5344 372.383 12.8586L369.916 9.71035C358.239 18.8618 349.402 31.2363 344.457 45.3504L348.232 46.6729ZM348.232 49.4094C347.923 48.525 347.923 47.5573 348.232 46.6729L344.457 45.3504C343.848 47.091 343.848 48.9914 344.457 50.7319L348.232 49.4094Z" fill="#58DA95" mask="url(#path-8-inside-1_571_581)"/>
<path d="M374.312 55V43.3636H378.766C379.607 43.3636 380.306 43.4962 380.863 43.7614C381.424 44.0227 381.842 44.3807 382.119 44.8352C382.399 45.2898 382.539 45.8049 382.539 46.3807C382.539 46.8542 382.448 47.2595 382.266 47.5966C382.085 47.9299 381.84 48.2008 381.533 48.4091C381.227 48.6174 380.884 48.767 380.505 48.858V48.9716C380.918 48.9943 381.314 49.1212 381.692 49.3523C382.075 49.5795 382.388 49.9015 382.63 50.3182C382.872 50.7348 382.994 51.2386 382.994 51.8295C382.994 52.4318 382.848 52.9735 382.556 53.4545C382.264 53.9318 381.825 54.3087 381.238 54.5852C380.651 54.8617 379.912 55 379.022 55H374.312ZM376.42 53.2386H378.687C379.452 53.2386 380.003 53.0928 380.34 52.8011C380.681 52.5057 380.852 52.1269 380.852 51.6648C380.852 51.3201 380.766 51.0095 380.596 50.733C380.425 50.4527 380.183 50.233 379.869 50.0739C379.554 49.911 379.179 49.8295 378.744 49.8295H376.42V53.2386ZM376.42 48.3125H378.505C378.869 48.3125 379.196 48.2462 379.488 48.1136C379.78 47.9773 380.009 47.786 380.175 47.5398C380.346 47.2898 380.431 46.9943 380.431 46.6534C380.431 46.2027 380.272 45.8314 379.954 45.5398C379.639 45.2481 379.172 45.1023 378.55 45.1023H376.42V48.3125ZM390.299 51.3295V46.2727H392.356V55H390.362V53.4489H390.271C390.074 53.9375 389.75 54.3371 389.299 54.6477C388.852 54.9583 388.301 55.1136 387.646 55.1136C387.074 55.1136 386.568 54.9867 386.129 54.733C385.693 54.4754 385.352 54.1023 385.106 53.6136C384.86 53.1212 384.737 52.5265 384.737 51.8295V46.2727H386.793V51.5114C386.793 52.0644 386.945 52.5038 387.248 52.8295C387.551 53.1553 387.949 53.3182 388.441 53.3182C388.744 53.3182 389.038 53.2443 389.322 53.0966C389.606 52.9489 389.839 52.7292 390.021 52.4375C390.206 52.142 390.299 51.7727 390.299 51.3295ZM394.471 55V46.2727H396.528V55H394.471ZM395.505 45.0341C395.179 45.0341 394.899 44.9261 394.664 44.7102C394.429 44.4905 394.312 44.2273 394.312 43.9205C394.312 43.6098 394.429 43.3466 394.664 43.1307C394.899 42.911 395.179 42.8011 395.505 42.8011C395.835 42.8011 396.115 42.911 396.346 43.1307C396.581 43.3466 396.698 43.6098 396.698 43.9205C396.698 44.2273 396.581 44.4905 396.346 44.7102C396.115 44.9261 395.835 45.0341 395.505 45.0341ZM400.7 43.3636V55H398.643V43.3636H400.7ZM406.053 55.1534C405.368 55.1534 404.754 54.9773 404.212 54.625C403.671 54.2727 403.243 53.7614 402.928 53.0909C402.614 52.4205 402.457 51.6061 402.457 50.6477C402.457 49.678 402.616 48.8598 402.934 48.1932C403.256 47.5227 403.69 47.017 404.235 46.6761C404.781 46.3314 405.388 46.1591 406.059 46.1591C406.57 46.1591 406.991 46.2462 407.32 46.4205C407.65 46.5909 407.911 46.7973 408.104 47.0398C408.298 47.2784 408.447 47.5038 408.553 47.7159H408.638V43.3636H410.701V55H408.678V53.625H408.553C408.447 53.8371 408.294 54.0625 408.093 54.3011C407.892 54.536 407.627 54.7367 407.298 54.9034C406.968 55.0701 406.553 55.1534 406.053 55.1534ZM406.627 53.4659C407.063 53.4659 407.434 53.3485 407.741 53.1136C408.048 52.875 408.281 52.5436 408.44 52.1193C408.599 51.6951 408.678 51.2008 408.678 50.6364C408.678 50.072 408.599 49.5814 408.44 49.1648C408.284 48.7481 408.053 48.4242 407.746 48.1932C407.443 47.9621 407.07 47.8466 406.627 47.8466C406.169 47.8466 405.786 47.9659 405.479 48.2045C405.173 48.4432 404.942 48.7727 404.786 49.1932C404.631 49.6136 404.553 50.0947 404.553 50.6364C404.553 51.1818 404.631 51.6686 404.786 52.0966C404.945 52.5208 405.178 52.8561 405.485 53.1023C405.796 53.3447 406.176 53.4659 406.627 53.4659Z" fill="#102B2D"/>
<path d="M442 48L506 48" stroke="#58DA95" stroke-linejoin="round"/>
<path d="M472 42L478 48L472 54" stroke="#58DA95" stroke-linecap="square" stroke-linejoin="round"/>
<rect x="511" y="11" width="118" height="74" rx="7" stroke="#58DA95" stroke-width="2"/>
<path d="M529.747 54.5H525.804V42.8636H529.827C530.982 42.8636 531.974 43.0966 532.804 43.5625C533.637 44.0246 534.277 44.6894 534.724 45.5568C535.171 46.4242 535.395 47.4621 535.395 48.6705C535.395 49.8826 535.17 50.9242 534.719 51.7955C534.272 52.6667 533.626 53.3352 532.781 53.8011C531.94 54.267 530.929 54.5 529.747 54.5ZM527.912 52.6761H529.645C530.455 52.6761 531.132 52.5284 531.673 52.233C532.215 51.9337 532.622 51.4886 532.895 50.8977C533.168 50.303 533.304 49.5606 533.304 48.6705C533.304 47.7803 533.168 47.0417 532.895 46.4545C532.622 45.8636 532.219 45.4223 531.685 45.1307C531.154 44.8352 530.495 44.6875 529.707 44.6875H527.912V52.6761ZM537.307 54.5V45.7727H539.364V54.5H537.307ZM538.341 44.5341C538.015 44.5341 537.735 44.4261 537.5 44.2102C537.265 43.9905 537.148 43.7273 537.148 43.4205C537.148 43.1098 537.265 42.8466 537.5 42.6307C537.735 42.411 538.015 42.3011 538.341 42.3011C538.67 42.3011 538.951 42.411 539.182 42.6307C539.417 42.8466 539.534 43.1098 539.534 43.4205C539.534 43.7273 539.417 43.9905 539.182 44.2102C538.951 44.4261 538.67 44.5341 538.341 44.5341ZM548.376 48.0795L546.501 48.2841C546.448 48.0947 546.356 47.9167 546.223 47.75C546.094 47.5833 545.92 47.4489 545.7 47.3466C545.481 47.2443 545.212 47.1932 544.893 47.1932C544.465 47.1932 544.106 47.286 543.814 47.4716C543.526 47.6572 543.384 47.8977 543.388 48.1932C543.384 48.447 543.477 48.6534 543.666 48.8125C543.859 48.9716 544.178 49.1023 544.621 49.2045L546.109 49.5227C546.935 49.7008 547.549 49.983 547.95 50.3693C548.356 50.7557 548.56 51.2614 548.564 51.8864C548.56 52.4356 548.399 52.9205 548.081 53.3409C547.767 53.7576 547.329 54.0833 546.768 54.3182C546.208 54.553 545.564 54.6705 544.837 54.6705C543.768 54.6705 542.909 54.447 542.257 54C541.606 53.5492 541.217 52.9223 541.092 52.1193L543.098 51.9261C543.189 52.3201 543.382 52.6174 543.678 52.8182C543.973 53.0189 544.357 53.1193 544.831 53.1193C545.32 53.1193 545.712 53.0189 546.007 52.8182C546.306 52.6174 546.456 52.3693 546.456 52.0739C546.456 51.8239 546.359 51.6174 546.166 51.4545C545.977 51.2917 545.681 51.1667 545.28 51.0795L543.791 50.767C542.954 50.5928 542.335 50.2992 541.933 49.8864C541.532 49.4697 541.333 48.9432 541.337 48.3068C541.333 47.7689 541.479 47.303 541.774 46.9091C542.073 46.5114 542.488 46.2045 543.018 45.9886C543.553 45.7689 544.168 45.6591 544.865 45.6591C545.888 45.6591 546.693 45.8769 547.28 46.3125C547.871 46.7481 548.236 47.3371 548.376 48.0795ZM554.618 45.7727V47.3636H549.601V45.7727H554.618ZM550.839 43.6818H552.896V51.875C552.896 52.1515 552.938 52.3636 553.021 52.5114C553.108 52.6553 553.222 52.7538 553.362 52.8068C553.502 52.8598 553.658 52.8864 553.828 52.8864C553.957 52.8864 554.074 52.8769 554.18 52.858C554.29 52.839 554.374 52.822 554.43 52.8068L554.777 54.4148C554.667 54.4527 554.51 54.4943 554.305 54.5398C554.105 54.5852 553.858 54.6117 553.567 54.6193C553.052 54.6345 552.588 54.5568 552.175 54.3864C551.762 54.2121 551.434 53.9432 551.192 53.5795C550.953 53.2159 550.836 52.7614 550.839 52.2159V43.6818ZM556.338 54.5V45.7727H558.332V47.2273H558.423C558.582 46.7235 558.855 46.3352 559.241 46.0625C559.632 45.786 560.077 45.6477 560.577 45.6477C560.69 45.6477 560.817 45.6534 560.957 45.6648C561.101 45.6723 561.221 45.6856 561.315 45.7045V47.5966C561.228 47.5663 561.09 47.5398 560.901 47.517C560.715 47.4905 560.535 47.4773 560.361 47.4773C559.986 47.4773 559.649 47.5587 559.349 47.7216C559.054 47.8807 558.821 48.1023 558.651 48.3864C558.48 48.6705 558.395 48.9981 558.395 49.3693V54.5H556.338ZM562.682 54.5V45.7727H564.739V54.5H562.682ZM563.716 44.5341C563.39 44.5341 563.11 44.4261 562.875 44.2102C562.64 43.9905 562.523 43.7273 562.523 43.4205C562.523 43.1098 562.64 42.8466 562.875 42.6307C563.11 42.411 563.39 42.3011 563.716 42.3011C564.045 42.3011 564.326 42.411 564.557 42.6307C564.792 42.8466 564.909 43.1098 564.909 43.4205C564.909 43.7273 564.792 43.9905 564.557 44.2102C564.326 44.4261 564.045 44.5341 563.716 44.5341ZM566.945 54.5V42.8636H569.001V47.2159H569.087C569.193 47.0038 569.342 46.7784 569.536 46.5398C569.729 46.2973 569.99 46.0909 570.32 45.9205C570.649 45.7462 571.07 45.6591 571.581 45.6591C572.255 45.6591 572.863 45.8314 573.405 46.1761C573.95 46.517 574.382 47.0227 574.7 47.6932C575.022 48.3598 575.183 49.178 575.183 50.1477C575.183 51.1061 575.026 51.9205 574.712 52.5909C574.397 53.2614 573.969 53.7727 573.428 54.125C572.886 54.4773 572.272 54.6534 571.587 54.6534C571.087 54.6534 570.672 54.5701 570.342 54.4034C570.013 54.2367 569.748 54.036 569.547 53.8011C569.35 53.5625 569.196 53.3371 569.087 53.125H568.967V54.5H566.945ZM568.962 50.1364C568.962 50.7008 569.041 51.1951 569.2 51.6193C569.363 52.0436 569.596 52.375 569.899 52.6136C570.206 52.8485 570.577 52.9659 571.013 52.9659C571.467 52.9659 571.848 52.8447 572.155 52.6023C572.462 52.3561 572.693 52.0208 572.848 51.5966C573.007 51.1686 573.087 50.6818 573.087 50.1364C573.087 49.5947 573.009 49.1136 572.854 48.6932C572.698 48.2727 572.467 47.9432 572.161 47.7045C571.854 47.4659 571.471 47.3466 571.013 47.3466C570.573 47.3466 570.2 47.4621 569.893 47.6932C569.587 47.9242 569.354 48.2481 569.195 48.6648C569.039 49.0814 568.962 49.572 568.962 50.1364ZM582.494 50.8295V45.7727H584.551V54.5H582.557V52.9489H582.466C582.269 53.4375 581.945 53.8371 581.494 54.1477C581.047 54.4583 580.496 54.6136 579.841 54.6136C579.269 54.6136 578.763 54.4867 578.324 54.233C577.888 53.9754 577.547 53.6023 577.301 53.1136C577.055 52.6212 576.932 52.0265 576.932 51.3295V45.7727H578.989V51.0114C578.989 51.5644 579.14 52.0038 579.443 52.3295C579.746 52.6553 580.144 52.8182 580.636 52.8182C580.939 52.8182 581.233 52.7443 581.517 52.5966C581.801 52.4489 582.034 52.2292 582.216 51.9375C582.402 51.642 582.494 51.2727 582.494 50.8295ZM591.024 45.7727V47.3636H586.007V45.7727H591.024ZM587.246 43.6818H589.303V51.875C589.303 52.1515 589.344 52.3636 589.428 52.5114C589.515 52.6553 589.628 52.7538 589.768 52.8068C589.909 52.8598 590.064 52.8864 590.234 52.8864C590.363 52.8864 590.481 52.8769 590.587 52.858C590.696 52.839 590.78 52.822 590.837 52.8068L591.183 54.4148C591.073 54.4527 590.916 54.4943 590.712 54.5398C590.511 54.5852 590.265 54.6117 589.973 54.6193C589.458 54.6345 588.994 54.5568 588.581 54.3864C588.168 54.2121 587.84 53.9432 587.598 53.5795C587.359 53.2159 587.242 52.7614 587.246 52.2159V43.6818ZM592.744 54.5V45.7727H594.801V54.5H592.744ZM593.778 44.5341C593.453 44.5341 593.172 44.4261 592.938 44.2102C592.703 43.9905 592.585 43.7273 592.585 43.4205C592.585 43.1098 592.703 42.8466 592.938 42.6307C593.172 42.411 593.453 42.3011 593.778 42.3011C594.108 42.3011 594.388 42.411 594.619 42.6307C594.854 42.8466 594.972 43.1098 594.972 43.4205C594.972 43.7273 594.854 43.9905 594.619 44.2102C594.388 44.4261 594.108 44.5341 593.778 44.5341ZM600.723 54.6705C599.871 54.6705 599.132 54.483 598.507 54.108C597.882 53.733 597.397 53.2083 597.053 52.5341C596.712 51.8598 596.541 51.072 596.541 50.1705C596.541 49.2689 596.712 48.4792 597.053 47.8011C597.397 47.1231 597.882 46.5966 598.507 46.2216C599.132 45.8466 599.871 45.6591 600.723 45.6591C601.575 45.6591 602.314 45.8466 602.939 46.2216C603.564 46.5966 604.047 47.1231 604.388 47.8011C604.732 48.4792 604.905 49.2689 604.905 50.1705C604.905 51.072 604.732 51.8598 604.388 52.5341C604.047 53.2083 603.564 53.733 602.939 54.108C602.314 54.483 601.575 54.6705 600.723 54.6705ZM600.734 53.0227C601.196 53.0227 601.583 52.8958 601.893 52.642C602.204 52.3845 602.435 52.0398 602.587 51.608C602.742 51.1761 602.82 50.6951 602.82 50.1648C602.82 49.6307 602.742 49.1477 602.587 48.7159C602.435 48.2803 602.204 47.9337 601.893 47.6761C601.583 47.4186 601.196 47.2898 600.734 47.2898C600.261 47.2898 599.867 47.4186 599.553 47.6761C599.242 47.9337 599.009 48.2803 598.854 48.7159C598.702 49.1477 598.626 49.6307 598.626 50.1648C598.626 50.6951 598.702 51.1761 598.854 51.608C599.009 52.0398 599.242 52.3845 599.553 52.642C599.867 52.8958 600.261 53.0227 600.734 53.0227ZM608.707 49.3864V54.5H606.651V45.7727H608.616V47.2557H608.719C608.92 46.767 609.24 46.3788 609.679 46.0909C610.122 45.803 610.67 45.6591 611.321 45.6591C611.923 45.6591 612.448 45.7879 612.895 46.0455C613.346 46.303 613.694 46.6761 613.94 47.1648C614.19 47.6534 614.313 48.2462 614.31 48.9432V54.5H612.253V49.2614C612.253 48.678 612.101 48.2216 611.798 47.892C611.499 47.5625 611.084 47.3977 610.554 47.3977C610.194 47.3977 609.874 47.4773 609.594 47.6364C609.317 47.7917 609.099 48.017 608.94 48.3125C608.785 48.608 608.707 48.9659 608.707 49.3864Z" fill="#102B2D"/>
<path d="M634 48L680 48" stroke="#58DA95" stroke-linejoin="round"/>
<path d="M655 42L661 48L655 54" stroke="#58DA95" stroke-linecap="square" stroke-linejoin="round"/>
<path d="M700.576 45.6477H698.803C698.735 45.2689 698.608 44.9356 698.423 44.6477C698.237 44.3598 698.01 44.1155 697.741 43.9148C697.472 43.714 697.171 43.5625 696.837 43.4602C696.508 43.358 696.157 43.3068 695.786 43.3068C695.116 43.3068 694.515 43.4754 693.985 43.8125C693.459 44.1496 693.042 44.6439 692.735 45.2955C692.432 45.947 692.281 46.7424 692.281 47.6818C692.281 48.6288 692.432 49.428 692.735 50.0795C693.042 50.7311 693.46 51.2235 693.991 51.5568C694.521 51.8902 695.118 52.0568 695.781 52.0568C696.148 52.0568 696.496 52.0076 696.826 51.9091C697.159 51.8068 697.46 51.6572 697.729 51.4602C697.998 51.2633 698.226 51.0227 698.411 50.7386C698.601 50.4508 698.731 50.1212 698.803 49.75L700.576 49.7557C700.481 50.3277 700.298 50.8542 700.025 51.3352C699.756 51.8125 699.409 52.2254 698.985 52.5739C698.565 52.9186 698.084 53.1856 697.542 53.375C697 53.5644 696.409 53.6591 695.769 53.6591C694.762 53.6591 693.864 53.4205 693.076 52.9432C692.288 52.4621 691.667 51.7746 691.212 50.8807C690.762 49.9867 690.536 48.9205 690.536 47.6818C690.536 46.4394 690.763 45.3731 691.218 44.483C691.673 43.589 692.294 42.9034 693.082 42.4261C693.87 41.9451 694.765 41.7045 695.769 41.7045C696.387 41.7045 696.962 41.7936 697.496 41.9716C698.034 42.1458 698.517 42.4034 698.945 42.7443C699.373 43.0814 699.728 43.4943 700.008 43.983C700.288 44.4678 700.478 45.0227 700.576 45.6477ZM706.217 53.6761C705.398 53.6761 704.684 53.4886 704.075 53.1136C703.465 52.7386 702.991 52.214 702.654 51.5398C702.317 50.8655 702.148 50.0777 702.148 49.1761C702.148 48.2708 702.317 47.4792 702.654 46.8011C702.991 46.1231 703.465 45.5966 704.075 45.2216C704.684 44.8466 705.398 44.6591 706.217 44.6591C707.035 44.6591 707.749 44.8466 708.359 45.2216C708.969 45.5966 709.442 46.1231 709.779 46.8011C710.116 47.4792 710.285 48.2708 710.285 49.1761C710.285 50.0777 710.116 50.8655 709.779 51.5398C709.442 52.214 708.969 52.7386 708.359 53.1136C707.749 53.4886 707.035 53.6761 706.217 53.6761ZM706.222 52.25C706.753 52.25 707.192 52.1098 707.54 51.8295C707.889 51.5492 708.147 51.1761 708.313 50.7102C708.484 50.2443 708.569 49.7311 708.569 49.1705C708.569 48.6136 708.484 48.1023 708.313 47.6364C708.147 47.1667 707.889 46.7898 707.54 46.5057C707.192 46.2216 706.753 46.0795 706.222 46.0795C705.688 46.0795 705.245 46.2216 704.893 46.5057C704.544 46.7898 704.285 47.1667 704.114 47.6364C703.948 48.1023 703.864 48.6136 703.864 49.1705C703.864 49.7311 703.948 50.2443 704.114 50.7102C704.285 51.1761 704.544 51.5492 704.893 51.8295C705.245 52.1098 705.688 52.25 706.222 52.25ZM713.88 48.3182V53.5H712.181V44.7727H713.812V46.1932H713.92C714.121 45.7311 714.435 45.3598 714.863 45.0795C715.295 44.7992 715.838 44.6591 716.494 44.6591C717.088 44.6591 717.609 44.7841 718.056 45.0341C718.503 45.2803 718.85 45.6477 719.096 46.1364C719.342 46.625 719.465 47.2292 719.465 47.9489V53.5H717.766V48.1534C717.766 47.5208 717.602 47.0265 717.272 46.6705C716.942 46.3106 716.49 46.1307 715.914 46.1307C715.52 46.1307 715.17 46.2159 714.863 46.3864C714.56 46.5568 714.319 46.8068 714.141 47.1364C713.967 47.4621 713.88 47.8561 713.88 48.3182ZM728.283 46.9034L726.744 47.1761C726.679 46.9792 726.577 46.7917 726.437 46.6136C726.3 46.4356 726.115 46.2898 725.88 46.1761C725.645 46.0625 725.352 46.0057 724.999 46.0057C724.518 46.0057 724.117 46.1136 723.795 46.3295C723.473 46.5417 723.312 46.8163 723.312 47.1534C723.312 47.4451 723.42 47.6799 723.636 47.858C723.852 48.036 724.2 48.1818 724.681 48.2955L726.067 48.6136C726.871 48.7992 727.469 49.0852 727.863 49.4716C728.257 49.858 728.454 50.3598 728.454 50.9773C728.454 51.5 728.302 51.9659 727.999 52.375C727.7 52.7803 727.281 53.0985 726.744 53.3295C726.21 53.5606 725.59 53.6761 724.886 53.6761C723.908 53.6761 723.111 53.4678 722.494 53.0511C721.876 52.6307 721.497 52.0341 721.357 51.2614L722.999 51.0114C723.102 51.4394 723.312 51.7633 723.63 51.983C723.948 52.1989 724.363 52.3068 724.874 52.3068C725.431 52.3068 725.876 52.1913 726.21 51.9602C726.543 51.7254 726.71 51.4394 726.71 51.1023C726.71 50.8295 726.607 50.6004 726.403 50.4148C726.202 50.2292 725.893 50.089 725.477 49.9943L723.999 49.6705C723.185 49.4848 722.583 49.1894 722.192 48.7841C721.806 48.3788 721.613 47.8655 721.613 47.2443C721.613 46.7292 721.757 46.2784 722.045 45.892C722.333 45.5057 722.73 45.2045 723.238 44.9886C723.746 44.7689 724.327 44.6591 724.982 44.6591C725.925 44.6591 726.668 44.8636 727.21 45.2727C727.751 45.678 728.109 46.2216 728.283 46.9034ZM735.85 49.8807V44.7727H737.555V53.5H735.884V51.9886H735.793C735.593 52.4545 735.271 52.8428 734.827 53.1534C734.388 53.4602 733.841 53.6136 733.185 53.6136C732.625 53.6136 732.129 53.4905 731.697 53.2443C731.269 52.9943 730.932 52.625 730.685 52.1364C730.443 51.6477 730.322 51.0436 730.322 50.3239V44.7727H732.021V50.1193C732.021 50.714 732.185 51.1875 732.515 51.5398C732.844 51.892 733.272 52.0682 733.799 52.0682C734.117 52.0682 734.433 51.9886 734.748 51.8295C735.066 51.6705 735.329 51.4299 735.538 51.108C735.75 50.786 735.854 50.3769 735.85 49.8807ZM739.837 53.5V44.7727H741.468V46.1932H741.576C741.758 45.7121 742.055 45.3371 742.468 45.0682C742.881 44.7955 743.375 44.6591 743.951 44.6591C744.534 44.6591 745.023 44.7955 745.417 45.0682C745.815 45.3409 746.108 45.7159 746.298 46.1932H746.388C746.597 45.7273 746.928 45.3561 747.383 45.0795C747.837 44.7992 748.379 44.6591 749.008 44.6591C749.799 44.6591 750.445 44.9072 750.945 45.4034C751.449 45.8996 751.701 46.6477 751.701 47.6477V53.5H750.002V47.8068C750.002 47.2159 749.841 46.7879 749.519 46.5227C749.197 46.2576 748.813 46.125 748.366 46.125C747.813 46.125 747.383 46.2955 747.076 46.6364C746.769 46.9735 746.616 47.4072 746.616 47.9375V53.5H744.923V47.6989C744.923 47.2254 744.775 46.8447 744.479 46.5568C744.184 46.2689 743.799 46.125 743.326 46.125C743.004 46.125 742.707 46.2102 742.434 46.3807C742.165 46.5473 741.947 46.7803 741.781 47.0795C741.618 47.3788 741.536 47.7254 741.536 48.1193V53.5H739.837ZM757.739 53.6761C756.879 53.6761 756.139 53.4924 755.518 53.125C754.9 52.7538 754.423 52.233 754.086 51.5625C753.753 50.8883 753.586 50.0985 753.586 49.1932C753.586 48.2992 753.753 47.5114 754.086 46.8295C754.423 46.1477 754.893 45.6155 755.495 45.233C756.101 44.8504 756.809 44.6591 757.62 44.6591C758.112 44.6591 758.59 44.7405 759.052 44.9034C759.514 45.0663 759.929 45.322 760.296 45.6705C760.664 46.0189 760.953 46.4716 761.165 47.0284C761.378 47.5814 761.484 48.2538 761.484 49.0455V49.6477H754.546V48.375H759.819C759.819 47.928 759.728 47.5322 759.546 47.1875C759.364 46.839 759.109 46.5644 758.779 46.3636C758.453 46.1629 758.071 46.0625 757.631 46.0625C757.154 46.0625 756.737 46.1799 756.381 46.4148C756.029 46.6458 755.756 46.9489 755.563 47.3239C755.374 47.6951 755.279 48.0985 755.279 48.5341V49.5284C755.279 50.1117 755.381 50.608 755.586 51.017C755.794 51.4261 756.084 51.7386 756.455 51.9545C756.826 52.1667 757.26 52.2727 757.756 52.2727C758.078 52.2727 758.372 52.2273 758.637 52.1364C758.902 52.0417 759.131 51.9015 759.325 51.7159C759.518 51.5303 759.665 51.3011 759.768 51.0284L761.376 51.3182C761.247 51.7917 761.016 52.2064 760.683 52.5625C760.353 52.9148 759.938 53.1894 759.438 53.3864C758.942 53.5795 758.376 53.6761 757.739 53.6761ZM763.369 53.5V44.7727H765.011V46.1591H765.102C765.261 45.6894 765.541 45.3201 765.942 45.0511C766.348 44.7784 766.806 44.642 767.317 44.642C767.424 44.642 767.549 44.6458 767.692 44.6534C767.84 44.661 767.956 44.6705 768.039 44.6818V46.3068C767.971 46.2879 767.85 46.267 767.675 46.2443C767.501 46.2178 767.327 46.2045 767.153 46.2045C766.751 46.2045 766.393 46.2898 766.079 46.4602C765.768 46.6269 765.522 46.8598 765.34 47.1591C765.158 47.4545 765.067 47.7917 765.067 48.1705V53.5H763.369Z" fill="#102B2D"/>
<path d="M392.5 136L392.5 90" stroke="#58DA95" stroke-linejoin="round"/>
<path d="M386.5 115L392.5 109L398.5 115" stroke="#58DA95" stroke-linecap="square" stroke-linejoin="round"/>
<rect x="312" y="141" width="160" height="74" rx="7" stroke="#58DA95" stroke-width="2" stroke-dasharray="5 5"/>
<path d="M341.442 184.5H337.499V172.864H341.522C342.677 172.864 343.67 173.097 344.499 173.562C345.333 174.025 345.973 174.689 346.42 175.557C346.867 176.424 347.09 177.462 347.09 178.67C347.09 179.883 346.865 180.924 346.414 181.795C345.967 182.667 345.321 183.335 344.477 183.801C343.636 184.267 342.624 184.5 341.442 184.5ZM339.607 182.676H341.34C342.151 182.676 342.827 182.528 343.369 182.233C343.91 181.934 344.317 181.489 344.59 180.898C344.863 180.303 344.999 179.561 344.999 178.67C344.999 177.78 344.863 177.042 344.59 176.455C344.317 175.864 343.914 175.422 343.38 175.131C342.85 174.835 342.191 174.688 341.403 174.688H339.607V182.676ZM352.866 184.67C351.991 184.67 351.235 184.489 350.599 184.125C349.966 183.758 349.479 183.239 349.138 182.568C348.798 181.894 348.627 181.1 348.627 180.188C348.627 179.29 348.798 178.502 349.138 177.824C349.483 177.142 349.964 176.612 350.582 176.233C351.199 175.85 351.924 175.659 352.758 175.659C353.296 175.659 353.803 175.746 354.281 175.92C354.762 176.091 355.186 176.356 355.553 176.716C355.924 177.076 356.216 177.534 356.428 178.091C356.64 178.644 356.746 179.303 356.746 180.068V180.699H349.593V179.312H354.775C354.771 178.919 354.686 178.568 354.519 178.261C354.353 177.951 354.12 177.706 353.82 177.528C353.525 177.35 353.18 177.261 352.786 177.261C352.366 177.261 351.996 177.364 351.678 177.568C351.36 177.769 351.112 178.034 350.934 178.364C350.76 178.689 350.671 179.047 350.667 179.438V180.648C350.667 181.155 350.76 181.591 350.945 181.955C351.131 182.314 351.39 182.591 351.724 182.784C352.057 182.973 352.447 183.068 352.894 183.068C353.193 183.068 353.464 183.027 353.707 182.943C353.949 182.856 354.159 182.729 354.337 182.562C354.515 182.396 354.65 182.189 354.741 181.943L356.661 182.159C356.54 182.667 356.309 183.11 355.968 183.489C355.631 183.864 355.199 184.155 354.673 184.364C354.146 184.568 353.544 184.67 352.866 184.67ZM358.487 187.773V175.773H360.509V177.216H360.629C360.735 177.004 360.884 176.778 361.077 176.54C361.271 176.297 361.532 176.091 361.862 175.92C362.191 175.746 362.612 175.659 363.123 175.659C363.797 175.659 364.405 175.831 364.947 176.176C365.492 176.517 365.924 177.023 366.242 177.693C366.564 178.36 366.725 179.178 366.725 180.148C366.725 181.106 366.568 181.92 366.254 182.591C365.939 183.261 365.511 183.773 364.969 184.125C364.428 184.477 363.814 184.653 363.129 184.653C362.629 184.653 362.214 184.57 361.884 184.403C361.555 184.237 361.29 184.036 361.089 183.801C360.892 183.562 360.738 183.337 360.629 183.125H360.543V187.773H358.487ZM360.504 180.136C360.504 180.701 360.583 181.195 360.742 181.619C360.905 182.044 361.138 182.375 361.441 182.614C361.748 182.848 362.119 182.966 362.555 182.966C363.009 182.966 363.39 182.845 363.697 182.602C364.004 182.356 364.235 182.021 364.39 181.597C364.549 181.169 364.629 180.682 364.629 180.136C364.629 179.595 364.551 179.114 364.396 178.693C364.24 178.273 364.009 177.943 363.702 177.705C363.396 177.466 363.013 177.347 362.555 177.347C362.115 177.347 361.742 177.462 361.435 177.693C361.129 177.924 360.896 178.248 360.737 178.665C360.581 179.081 360.504 179.572 360.504 180.136ZM372.35 184.67C371.475 184.67 370.719 184.489 370.083 184.125C369.451 183.758 368.964 183.239 368.623 182.568C368.282 181.894 368.112 181.1 368.112 180.188C368.112 179.29 368.282 178.502 368.623 177.824C368.968 177.142 369.449 176.612 370.066 176.233C370.683 175.85 371.409 175.659 372.242 175.659C372.78 175.659 373.288 175.746 373.765 175.92C374.246 176.091 374.67 176.356 375.038 176.716C375.409 177.076 375.701 177.534 375.913 178.091C376.125 178.644 376.231 179.303 376.231 180.068V180.699H369.077V179.312H374.259C374.255 178.919 374.17 178.568 374.004 178.261C373.837 177.951 373.604 177.706 373.305 177.528C373.009 177.35 372.665 177.261 372.271 177.261C371.85 177.261 371.481 177.364 371.163 177.568C370.844 177.769 370.596 178.034 370.418 178.364C370.244 178.689 370.155 179.047 370.151 179.438V180.648C370.151 181.155 370.244 181.591 370.43 181.955C370.615 182.314 370.875 182.591 371.208 182.784C371.541 182.973 371.932 183.068 372.379 183.068C372.678 183.068 372.949 183.027 373.191 182.943C373.433 182.856 373.644 182.729 373.822 182.562C374 182.396 374.134 182.189 374.225 181.943L376.146 182.159C376.024 182.667 375.793 183.11 375.452 183.489C375.115 183.864 374.683 184.155 374.157 184.364C373.63 184.568 373.028 184.67 372.35 184.67ZM380.028 179.386V184.5H377.971V175.773H379.937V177.256H380.039C380.24 176.767 380.56 176.379 380.999 176.091C381.442 175.803 381.99 175.659 382.641 175.659C383.244 175.659 383.768 175.788 384.215 176.045C384.666 176.303 385.014 176.676 385.261 177.165C385.511 177.653 385.634 178.246 385.63 178.943V184.5H383.573V179.261C383.573 178.678 383.422 178.222 383.119 177.892C382.819 177.562 382.405 177.398 381.874 177.398C381.514 177.398 381.194 177.477 380.914 177.636C380.638 177.792 380.42 178.017 380.261 178.312C380.105 178.608 380.028 178.966 380.028 179.386ZM390.96 184.653C390.274 184.653 389.66 184.477 389.119 184.125C388.577 183.773 388.149 183.261 387.835 182.591C387.52 181.92 387.363 181.106 387.363 180.148C387.363 179.178 387.522 178.36 387.84 177.693C388.162 177.023 388.596 176.517 389.141 176.176C389.687 175.831 390.295 175.659 390.965 175.659C391.477 175.659 391.897 175.746 392.227 175.92C392.556 176.091 392.817 176.297 393.011 176.54C393.204 176.778 393.353 177.004 393.46 177.216H393.545V172.864H395.607V184.5H393.585V183.125H393.46C393.353 183.337 393.2 183.562 392.999 183.801C392.799 184.036 392.533 184.237 392.204 184.403C391.874 184.57 391.46 184.653 390.96 184.653ZM391.533 182.966C391.969 182.966 392.34 182.848 392.647 182.614C392.954 182.375 393.187 182.044 393.346 181.619C393.505 181.195 393.585 180.701 393.585 180.136C393.585 179.572 393.505 179.081 393.346 178.665C393.191 178.248 392.96 177.924 392.653 177.693C392.35 177.462 391.977 177.347 391.533 177.347C391.075 177.347 390.692 177.466 390.386 177.705C390.079 177.943 389.848 178.273 389.692 178.693C389.537 179.114 389.46 179.595 389.46 180.136C389.46 180.682 389.537 181.169 389.692 181.597C389.852 182.021 390.085 182.356 390.391 182.602C390.702 182.845 391.083 182.966 391.533 182.966ZM401.663 184.67C400.788 184.67 400.032 184.489 399.396 184.125C398.763 183.758 398.276 183.239 397.935 182.568C397.594 181.894 397.424 181.1 397.424 180.188C397.424 179.29 397.594 178.502 397.935 177.824C398.28 177.142 398.761 176.612 399.379 176.233C399.996 175.85 400.721 175.659 401.555 175.659C402.093 175.659 402.6 175.746 403.077 175.92C403.558 176.091 403.983 176.356 404.35 176.716C404.721 177.076 405.013 177.534 405.225 178.091C405.437 178.644 405.543 179.303 405.543 180.068V180.699H398.39V179.312H403.572C403.568 178.919 403.483 178.568 403.316 178.261C403.149 177.951 402.916 177.706 402.617 177.528C402.322 177.35 401.977 177.261 401.583 177.261C401.163 177.261 400.793 177.364 400.475 177.568C400.157 177.769 399.909 178.034 399.731 178.364C399.557 178.689 399.468 179.047 399.464 179.438V180.648C399.464 181.155 399.557 181.591 399.742 181.955C399.928 182.314 400.187 182.591 400.521 182.784C400.854 182.973 401.244 183.068 401.691 183.068C401.99 183.068 402.261 183.027 402.504 182.943C402.746 182.856 402.956 182.729 403.134 182.562C403.312 182.396 403.447 182.189 403.538 181.943L405.458 182.159C405.337 182.667 405.106 183.11 404.765 183.489C404.428 183.864 403.996 184.155 403.469 184.364C402.943 184.568 402.341 184.67 401.663 184.67ZM409.34 179.386V184.5H407.283V175.773H409.249V177.256H409.352C409.552 176.767 409.872 176.379 410.312 176.091C410.755 175.803 411.302 175.659 411.954 175.659C412.556 175.659 413.081 175.788 413.528 176.045C413.978 176.303 414.327 176.676 414.573 177.165C414.823 177.653 414.946 178.246 414.942 178.943V184.5H412.886V179.261C412.886 178.678 412.734 178.222 412.431 177.892C412.132 177.562 411.717 177.398 411.187 177.398C410.827 177.398 410.507 177.477 410.227 177.636C409.95 177.792 409.732 178.017 409.573 178.312C409.418 178.608 409.34 178.966 409.34 179.386ZM420.84 184.67C419.969 184.67 419.221 184.479 418.596 184.097C417.975 183.714 417.496 183.186 417.158 182.511C416.825 181.833 416.658 181.053 416.658 180.17C416.658 179.284 416.829 178.502 417.17 177.824C417.511 177.142 417.992 176.612 418.613 176.233C419.238 175.85 419.977 175.659 420.829 175.659C421.537 175.659 422.164 175.79 422.71 176.051C423.259 176.309 423.696 176.674 424.022 177.148C424.348 177.617 424.533 178.167 424.579 178.795H422.613C422.533 178.375 422.344 178.025 422.045 177.744C421.749 177.46 421.353 177.318 420.857 177.318C420.437 177.318 420.067 177.432 419.749 177.659C419.431 177.883 419.183 178.205 419.005 178.625C418.831 179.045 418.744 179.549 418.744 180.136C418.744 180.731 418.831 181.242 419.005 181.67C419.179 182.095 419.424 182.422 419.738 182.653C420.056 182.881 420.429 182.994 420.857 182.994C421.16 182.994 421.431 182.937 421.67 182.824C421.912 182.706 422.115 182.538 422.278 182.318C422.441 182.098 422.552 181.831 422.613 181.517H424.579C424.53 182.134 424.348 182.682 424.033 183.159C423.719 183.633 423.291 184.004 422.749 184.273C422.208 184.538 421.571 184.67 420.84 184.67ZM426.268 184.5V175.773H428.325V184.5H426.268ZM427.302 174.534C426.976 174.534 426.696 174.426 426.461 174.21C426.226 173.991 426.109 173.727 426.109 173.42C426.109 173.11 426.226 172.847 426.461 172.631C426.696 172.411 426.976 172.301 427.302 172.301C427.631 172.301 427.912 172.411 428.143 172.631C428.378 172.847 428.495 173.11 428.495 173.42C428.495 173.727 428.378 173.991 428.143 174.21C427.912 174.426 427.631 174.534 427.302 174.534ZM434.303 184.67C433.428 184.67 432.673 184.489 432.036 184.125C431.404 183.758 430.917 183.239 430.576 182.568C430.235 181.894 430.065 181.1 430.065 180.188C430.065 179.29 430.235 178.502 430.576 177.824C430.921 177.142 431.402 176.612 432.019 176.233C432.637 175.85 433.362 175.659 434.195 175.659C434.733 175.659 435.241 175.746 435.718 175.92C436.199 176.091 436.623 176.356 436.991 176.716C437.362 177.076 437.654 177.534 437.866 178.091C438.078 178.644 438.184 179.303 438.184 180.068V180.699H431.031V179.312H436.212C436.209 178.919 436.123 178.568 435.957 178.261C435.79 177.951 435.557 177.706 435.258 177.528C434.962 177.35 434.618 177.261 434.224 177.261C433.803 177.261 433.434 177.364 433.116 177.568C432.798 177.769 432.549 178.034 432.371 178.364C432.197 178.689 432.108 179.047 432.104 179.438V180.648C432.104 181.155 432.197 181.591 432.383 181.955C432.568 182.314 432.828 182.591 433.161 182.784C433.495 182.973 433.885 183.068 434.332 183.068C434.631 183.068 434.902 183.027 435.144 182.943C435.387 182.856 435.597 182.729 435.775 182.562C435.953 182.396 436.087 182.189 436.178 181.943L438.099 182.159C437.978 182.667 437.746 183.11 437.406 183.489C437.068 183.864 436.637 184.155 436.11 184.364C435.584 184.568 434.981 184.67 434.303 184.67ZM446.822 178.08L444.947 178.284C444.894 178.095 444.801 177.917 444.668 177.75C444.54 177.583 444.365 177.449 444.146 177.347C443.926 177.244 443.657 177.193 443.339 177.193C442.911 177.193 442.551 177.286 442.259 177.472C441.971 177.657 441.829 177.898 441.833 178.193C441.829 178.447 441.922 178.653 442.112 178.812C442.305 178.972 442.623 179.102 443.066 179.205L444.555 179.523C445.38 179.701 445.994 179.983 446.396 180.369C446.801 180.756 447.005 181.261 447.009 181.886C447.005 182.436 446.844 182.92 446.526 183.341C446.212 183.758 445.774 184.083 445.214 184.318C444.653 184.553 444.009 184.67 443.282 184.67C442.214 184.67 441.354 184.447 440.702 184C440.051 183.549 439.663 182.922 439.538 182.119L441.543 181.926C441.634 182.32 441.827 182.617 442.123 182.818C442.418 183.019 442.803 183.119 443.276 183.119C443.765 183.119 444.157 183.019 444.452 182.818C444.752 182.617 444.901 182.369 444.901 182.074C444.901 181.824 444.805 181.617 444.612 181.455C444.422 181.292 444.127 181.167 443.725 181.08L442.237 180.767C441.399 180.593 440.78 180.299 440.379 179.886C439.977 179.47 439.778 178.943 439.782 178.307C439.778 177.769 439.924 177.303 440.219 176.909C440.519 176.511 440.933 176.205 441.464 175.989C441.998 175.769 442.613 175.659 443.31 175.659C444.333 175.659 445.138 175.877 445.725 176.312C446.316 176.748 446.682 177.337 446.822 178.08Z" fill="#102B2D"/>
<path d="M573 183L567 177L573 171" stroke="#58DA95" stroke-linecap="round" stroke-linejoin="round"/>
<path d="M657 59V169C657 173.418 653.418 177 649 177H477" stroke="#58DA95" stroke-linejoin="round"/>
</svg>
